<?xml version="1.0" encoding="UTF-8"?>
<svg width="160px" height="29px" viewBox="0 0 160 29" version="1.1" xmlns="http://www.w3.org/2000/svg" xmlns:xlink="http://www.w3.org/1999/xlink">
    <!-- Generator: Sketch 45.2 (43514) - http://www.bohemiancoding.com/sketch -->
    <title>logo_orange</title>
    <desc>Created with Sketch.</desc>
    <defs>
        <polygon id="path-1" points="160 28.1081081 0 28.1081081 0 0 80 0 160 0 160 28.1081081"></polygon>
    </defs>
    <g id="Guidelines" stroke="none" stroke-width="1" fill="none" fill-rule="evenodd">
        <g id="Elements" transform="translate(-531.000000, -176.000000)">
            <g id="logo_orange" transform="translate(531.000000, 176.000000)">
                <g>
                    <mask id="mask-2" fill="white">
                        <use xlink:href="#path-1"></use>
                    </mask>
                    <g id="Clip-2"></g>
                    <path d="M11.1694671,0 C6.55197749,0.0801713524 2.52593071,2.20860897 0.039393804,5.94290113 L4.65741915,9.47625386 C6.19639325,7.06724845 8.60414256,5.78204737 11.2088609,5.78204737 C14.8162933,5.78204737 17.5932729,8.14349296 18.6627044,11.2231589 L8.09098311,11.2231589 L9.472382,16.8849492 L18.6773904,16.8849492 C17.5727881,20.1142257 14.6235158,22.3255177 11.2088609,22.3255177 C8.48542539,22.3255177 6.03881804,20.9606883 4.65741915,18.6719399 L0,22.165207 C2.64464788,26.0197242 6.74894651,28.1081081 11.1694671,28.1081081 C19.4579234,28.1081081 24.8648649,21.7232744 24.8648649,14.0136969 C24.8648649,5.98295487 18.5103606,0 11.1694671,0" id="Fill-1" fill="#FF7800" mask="url(#mask-2)"></path>
                    <path d="M42.672363,21.5261446 L35.0790075,21.5261446 L35.0790075,16.18438 L42.672363,16.18438 C44.1907232,16.18438 45.2812186,17.380173 45.2812186,18.855516 C45.164613,20.4497058 44.1129861,21.5261446 42.672363,21.5261446 L42.672363,21.5261446 Z M35.0790075,5.5009141 L42.516578,5.5009141 C43.9966915,5.5009141 45.086876,6.69721444 45.086876,8.1720501 C45.086876,9.72644464 43.879464,10.8028518 42.516578,10.8028518 L35.0790075,10.8028518 L35.0790075,5.5009141 Z M48.3969198,13.3142992 C49.9152799,11.7593656 50.6945162,9.84633786 50.6945162,7.81341685 C50.6945162,3.14915513 46.8390692,0 42.5557575,0 L28.1081081,0 L29.4711185,5.62080732 L29.4711185,27.027027 L42.4773985,27.027027 C47.0729023,27.027027 50.7719423,23.7187542 50.8108108,18.9749019 C50.8108108,16.6231112 50.0325074,14.7493396 48.3969198,13.3142992 L48.3969198,13.3142992 Z" id="Fill-3" fill="#FF7800" mask="url(#mask-2)"></path>
                    <polygon id="Fill-4" fill="#FF7800" mask="url(#mask-2)" points="83.5845647 5.62070181 90.0059835 5.62070181 90.0059835 27.027027 95.8993966 27.027027 95.8993966 5.62070181 102.361381 5.62070181 103.783784 0 82.1621622 0"></polygon>
                    <path d="M150.158405,14.0508984 L144.23773,14.0508984 L144.23773,5.65250574 L150.158405,5.65250574 C152.55047,5.65250574 154.275638,7.4832767 154.275638,9.83182065 C154.118463,12.3395111 152.55047,14.0508984 150.158405,14.0508984 M150.040993,0 L137.297297,0 L138.551879,5.13473275 L138.551879,27.027027 L144.23773,27.027027 L144.23773,19.6631022 L150.040993,19.6631022 C155.804493,19.6631022 160,15.802112 160,9.95117257 C160,3.9803739 155.726219,0.0795573781 150.040993,0" id="Fill-5" fill="#FF7800" mask="url(#mask-2)"></path>
                    <path d="M70.2901215,7.56756757 C62.2708515,7.72938431 56.2162162,13.6352777 56.2162162,21.6855964 C56.2162162,24.0380443 56.762126,26.2088178 57.7165875,28.1081081 L64.9145915,28.1081081 C63.1170917,26.5362108 62.0300749,24.2009535 62.0300749,21.7259221 C62.0300749,16.9930073 65.7192081,13.3928097 70.2901215,13.3928097 C74.9414006,13.3928097 78.5504883,17.154824 78.5504883,21.7259221 C78.5504883,24.2939435 77.3882289,26.5765364 75.5929703,28.1081081 L82.8175494,28.1081081 C83.7870595,26.1711913 84.3243243,23.9939913 84.3243243,21.7259221 C84.3243243,13.7567688 77.948867,7.56756757 70.2901215,7.56756757" id="Fill-6" fill="#FF7800" mask="url(#mask-2)"></path>
                    <path d="M125.806855,0 C127.971554,1.55365719 129.361111,4.15361372 129.361111,7.075399 C129.361111,11.8687306 125.552316,15.7027668 121.06123,15.7027668 C116.289672,15.7027668 112.841394,11.6183788 112.841394,7.075399 C112.841394,4.07938884 114.235113,1.5254173 116.369075,0 L108.68585,0 C107.621911,2.05161278 107.027027,4.43389376 107.027027,7.03385029 C107.027027,15.4529448 113.603409,21.6216216 121.101252,21.6216216 C129.160681,21.6216216 135.135135,14.8691439 135.135135,7.075399 C135.135135,4.48706287 134.50119,2.0815411 133.393707,0 L125.806855,0 Z" id="Fill-7" fill="#FF7800" mask="url(#mask-2)"></path>
                </g>
            </g>
        </g>
    </g>
</svg>