<svg width="48" height="48" viewBox="0 0 48 48" fill="none" xmlns="http://www.w3.org/2000/svg">
<circle cx="28" cy="28" r="18" fill="#BEDCE3"/>
<path d="M40.4396 23C43.7275 23 45.9326 19.4332 44.6104 16.2535L41.2622 9.46707C40.9548 8.84384 40.1102 8.84444 39.8035 9.46809L36.3793 16.4321C35.0921 19.5276 37.2388 23 40.4396 23Z" fill="#BEDCE3"/>
<circle cx="24" cy="24" r="18" fill="#F2C94C"/>
<path fill-rule="evenodd" clip-rule="evenodd" d="M24 7C21.5785 7 19.2778 7.50567 17.1955 8.41623C16.6895 8.63751 16.0999 8.40668 15.8786 7.90066C15.6574 7.39464 15.8882 6.80505 16.3942 6.58377C18.7244 5.56481 21.2976 5 24 5C34.4934 5 43 13.5066 43 24C43 34.4934 34.4934 43 24 43C13.5066 43 5 34.4934 5 24C5 20.7567 5.81344 17.7005 7.24826 15.0271C7.50943 14.5405 8.11565 14.3577 8.60228 14.6189C9.0889 14.8801 9.27167 15.4863 9.01049 15.9729C7.72792 18.3626 7 21.0948 7 24C7 33.3888 14.6112 41 24 41C33.3888 41 41 33.3888 41 24C41 14.6112 33.3888 7 24 7Z" fill="#231F20"/>
<path fill-rule="evenodd" clip-rule="evenodd" d="M24 34C21.9398 34 20.2466 35.1676 19.7071 35.7071C19.3166 36.0976 18.6834 36.0976 18.2929 35.7071C17.9024 35.3166 17.9024 34.6834 18.2929 34.2929C19.0868 33.499 21.2602 32 24 32C26.7398 32 28.9132 33.499 29.7071 34.2929C30.0976 34.6834 30.0976 35.3166 29.7071 35.7071C29.3166 36.0976 28.6834 36.0976 28.2929 35.7071C27.7534 35.1676 26.0602 34 24 34Z" fill="#231F20"/>
<path fill-rule="evenodd" clip-rule="evenodd" d="M21.7811 26.3753C22.1261 26.8066 22.0562 27.4359 21.6249 27.7809C20.3955 28.7644 18.783 29.1248 17.3824 29.2226C15.964 29.3216 14.6171 29.1615 13.7833 28.9762C13.2442 28.8564 12.9042 28.3222 13.024 27.7831C13.1438 27.2439 13.678 26.904 14.2171 27.0238C14.8833 27.1719 16.0365 27.3117 17.243 27.2274C18.4674 27.1419 19.605 26.8356 20.3755 26.2191C20.8068 25.8741 21.4361 25.944 21.7811 26.3753Z" fill="#231F20"/>
<path fill-rule="evenodd" clip-rule="evenodd" d="M26.2189 26.3753C25.8739 26.8066 25.9438 27.4359 26.3751 27.7809C27.6045 28.7644 29.217 29.1248 30.6176 29.2226C32.036 29.3216 33.3829 29.1615 34.2167 28.9762C34.7558 28.8564 35.0958 28.3222 34.976 27.7831C34.8562 27.2439 34.322 26.904 33.7829 27.0238C33.1167 27.1719 31.9635 27.3117 30.757 27.2274C29.5326 27.1419 28.395 26.8356 27.6245 26.2191C27.1932 25.8741 26.5639 25.944 26.2189 26.3753Z" fill="#231F20"/>
<path d="M38.4396 21C41.7275 21 43.9326 17.4332 42.6104 14.2535L39.2622 7.46707C38.9548 6.84384 38.1102 6.84444 37.8035 7.46809L34.3793 14.4321C33.0921 17.5276 35.2388 21 38.4396 21Z" fill="white"/>
<path fill-rule="evenodd" clip-rule="evenodd" d="M37.8035 7.46809L34.3793 14.4321C33.0921 17.5276 35.2388 21 38.4396 21C41.7275 21 43.9326 17.4332 42.6104 14.2535L39.2622 7.46707C38.9548 6.84384 38.1102 6.84444 37.8035 7.46809ZM40.785 15.0741L38.5349 10.5132L36.2052 15.2513C35.4468 17.1667 36.8441 19 38.4396 19C40.1217 19 41.5773 17.0734 40.785 15.0741ZM37.4686 8.35191L37.4686 8.35195L37.4686 8.35191Z" fill="#231F20"/>
</svg>
