<svg width="48" height="48" viewBox="0 0 48 48" fill="none" xmlns="http://www.w3.org/2000/svg">
<path d="M24.536 13C26.0756 10.3333 29.9246 10.3333 31.4642 13L45.3206 37C46.8602 39.6667 44.9357 43 41.8565 43H14.1437C11.0645 43 9.13996 39.6667 10.6796 37L24.536 13Z" fill="#29889E" fill-opacity="0.3"/>
<path d="M20.536 9C22.0756 6.33333 25.9246 6.33333 27.4642 9L41.3206 33C42.8602 35.6667 40.9357 39 37.8565 39H10.1437C7.06446 39 5.13996 35.6667 6.67956 33L20.536 9Z" fill="#F2C94C"/>
<path fill-rule="evenodd" clip-rule="evenodd" d="M24 16C22.8954 16 22 16.8954 22 18V27C22 28.1046 22.8954 29 24 29C25.1046 29 26 28.1046 26 27V18C26 16.8954 25.1046 16 24 16ZM24 31C22.8954 31 22 31.8954 22 33C22 34.1046 22.8954 35 24 35C25.1046 35 26 34.1046 26 33C26 31.8954 25.1046 31 24 31Z" fill="#231F20"/>
<path fill-rule="evenodd" clip-rule="evenodd" d="M19.6698 8.5C21.5943 5.16667 26.4056 5.16667 28.3301 8.5L42.1865 32.5C44.111 35.8333 41.7053 40 37.8563 40H10.1435C6.29453 40 3.88891 35.8333 5.81341 32.5L13.0303 20C13.3064 19.5217 13.918 19.3578 14.3963 19.634C14.8746 19.9101 15.0385 20.5217 14.7623 21L7.54546 33.5C6.39076 35.5 7.83414 38 10.1435 38H37.8563C40.1657 38 41.6091 35.5 40.4544 33.5L26.598 9.5C25.4433 7.5 22.5566 7.5 21.4019 9.5L19.9585 12C19.6824 12.4783 19.0708 12.6422 18.5925 12.366C18.1142 12.0899 17.9503 11.4783 18.2264 11L19.6698 8.5Z" fill="#231F20"/>
</svg>
