<svg width="48" height="48" viewBox="0 0 48 48" fill="none" xmlns="http://www.w3.org/2000/svg">
    <path d="M41.9524 26.1905H39.5238V19.7143C39.5238 17.9333 38.0667 16.4762 36.2857 16.4762H29.8095V14.0476C29.8095 11.8133 27.9962 10 25.7619 10C23.5276 10 21.7143 11.8133 21.7143 14.0476V16.4762H15.2381C13.4571 16.4762 12.0162 17.9333 12.0162 19.7143V25.8667H14.4286C16.841 25.8667 18.8 27.8257 18.8 30.2381C18.8 32.6505 16.841 34.6095 14.4286 34.6095H12V40.7619C12 42.5429 13.4571 44 15.2381 44H21.3905V41.5714C21.3905 39.159 23.3495 37.2 25.7619 37.2C28.1743 37.2 30.1333 39.159 30.1333 41.5714V44H36.2857C38.0667 44 39.5238 42.5429 39.5238 40.7619V34.2857H41.9524C44.1867 34.2857 46 32.4724 46 30.2381C46 28.0038 44.1867 26.1905 41.9524 26.1905Z" fill="#BEDCE3"/>
    <path d="M37.9524 22.1905H35.5238V15.7143C35.5238 13.9333 34.0667 12.4762 32.2857 12.4762H25.8095V10.0476C25.8095 7.81333 23.9962 6 21.7619 6C19.5276 6 17.7143 7.81333 17.7143 10.0476V12.4762H11.2381C9.45714 12.4762 8.01619 13.9333 8.01619 15.7143V21.8667H10.4286C12.841 21.8667 14.8 23.8257 14.8 26.2381C14.8 28.6505 12.841 30.6095 10.4286 30.6095H8V36.7619C8 38.5429 9.45714 40 11.2381 40H17.3905V37.5714C17.3905 35.159 19.3495 33.2 21.7619 33.2C24.1743 33.2 26.1333 35.159 26.1333 37.5714V40H32.2857C34.0667 40 35.5238 38.5429 35.5238 36.7619V30.2857H37.9524C40.1867 30.2857 42 28.4724 42 26.2381C42 24.0038 40.1867 22.1905 37.9524 22.1905Z" fill="white"/>
    <path fill-rule="evenodd" clip-rule="evenodd" d="M16.7143 10.0476C16.7143 7.26105 18.9753 5 21.7619 5C24.5485 5 26.8095 7.26105 26.8095 10.0476V11.4762H32.2857C34.619 11.4762 36.5238 13.381 36.5238 15.7143V21.1905H37.9524C40.739 21.1905 43 23.4515 43 26.2381C43 29.0247 40.739 31.2857 37.9524 31.2857H36.5238V36.7619C36.5238 39.0951 34.619 41 32.2857 41H26.1333C25.581 41 25.1333 40.5523 25.1333 40V37.5714C25.1333 35.7113 23.622 34.2 21.7619 34.2C19.9018 34.2 18.3905 35.7113 18.3905 37.5714V40C18.3905 40.5523 17.9428 41 17.3905 41H11.2381C8.90486 41 7 39.0951 7 36.7619V30.6095C7 30.0572 7.44772 29.6095 8 29.6095H10.4286C12.2887 29.6095 13.8 28.0982 13.8 26.2381C13.8 24.378 12.2887 22.8667 10.4286 22.8667H8.01619C7.46391 22.8667 7.01619 22.419 7.01619 21.8667V18.7905C7.01619 18.2382 7.46391 17.7905 8.01619 17.7905C8.56848 17.7905 9.01619 18.2382 9.01619 18.7905V20.8667H10.4286C13.3932 20.8667 15.8 23.2734 15.8 26.2381C15.8 29.2028 13.3932 31.6095 10.4286 31.6095H9V36.7619C9 37.9906 10.0094 39 11.2381 39H16.3905V37.5714C16.3905 34.6068 18.7972 32.2 21.7619 32.2C24.7266 32.2 27.1333 34.6068 27.1333 37.5714V39H32.2857C33.5144 39 34.5238 37.9906 34.5238 36.7619V30.2857C34.5238 29.7334 34.9715 29.2857 35.5238 29.2857H37.9524C39.6344 29.2857 41 27.9201 41 26.2381C41 24.5561 39.6344 23.1905 37.9524 23.1905H35.5238C34.9715 23.1905 34.5238 22.7428 34.5238 22.1905V15.7143C34.5238 14.4856 33.5144 13.4762 32.2857 13.4762H25.8095C25.2572 13.4762 24.8095 13.0285 24.8095 12.4762V10.0476C24.8095 8.36562 23.4439 7 21.7619 7C20.0799 7 18.7143 8.36562 18.7143 10.0476V12.4762C18.7143 13.0285 18.2666 13.4762 17.7143 13.4762H14.4762C13.9239 13.4762 13.4762 13.0285 13.4762 12.4762C13.4762 11.9239 13.9239 11.4762 14.4762 11.4762H16.7143V10.0476Z" fill="#231F20"/>
    <path fill-rule="evenodd" clip-rule="evenodd" d="M18.5327 31.5053L28.0758 14.9762H32.2857C32.6859 14.9762 33.0238 15.314 33.0238 15.7143V22.1905C33.0238 23.5712 34.1431 24.6905 35.5238 24.6905H37.9524C38.8059 24.6905 39.5 25.3845 39.5 26.2381C39.5 27.0917 38.8059 27.7857 37.9524 27.7857H35.5238C34.1431 27.7857 33.0238 28.905 33.0238 30.2857V36.7619C33.0238 37.1622 32.6859 37.5 32.2857 37.5H28.6329C28.5946 33.7398 25.5311 30.7 21.7619 30.7C20.5949 30.7 19.4956 30.9914 18.5327 31.5053Z" fill="#BEDCE3"/>
</svg>
