<svg width="48" height="48" viewBox="0 0 48 48" fill="none" xmlns="http://www.w3.org/2000/svg">
<path d="M39.5 16.5575V11.1322C39.5 9.8448 38.5459 8.7414 37.2701 8.569C35.7069 8.3506 31.2816 8.1322 27.8678 8.1322C24.454 8.1322 20.0287 8.3506 18.4655 8.569C17.1896 8.7414 16.2356 9.8448 16.2356 11.1322V44.6954C16.2356 45.9597 17.1436 47.0402 18.385 47.2471C19.9138 47.5115 24.339 47.7643 27.8678 47.7643C31.3965 47.7643 35.8103 47.5 37.3505 47.2471C38.5919 47.0402 39.5 45.9597 39.5 44.6954V16.5575Z" fill="#BEDCE3"/>
<path d="M35.5 12.7909V7.45218C35.5 6.18531 34.468 5.09948 33.0881 4.92981C31.3973 4.71491 27.6924 4.5 24 4.5C20.3076 4.5 16.6027 4.71491 14.9119 4.92981C13.5319 5.09948 12.5 6.18531 12.5 7.45218V40.48C12.5 41.7242 13.4822 42.7874 14.8249 42.991C16.4784 43.2512 20.1832 43.5 24 43.5C27.8167 43.5 31.5091 43.2399 33.1751 42.991C34.5178 42.7874 35.5 41.7242 35.5 40.48V12.7909Z" fill="white"/>
<path fill-rule="evenodd" clip-rule="evenodd" d="M24.1321 5.46963C20.7608 5.46963 16.3819 5.68205 14.8682 5.89029L14.8638 5.89088C14.0895 5.99399 13.5 6.65884 13.5 7.4393V40.4929C13.5 41.2616 14.0595 41.9101 14.8129 42.0342C16.2963 42.274 20.6554 42.5304 24.1321 42.5304C27.615 42.5304 31.9821 42.2845 33.4444 42.0354L33.4504 42.0344C34.2042 41.9106 34.7643 41.262 34.7643 40.4929V7.4393C34.7643 6.65884 34.1747 5.99399 33.4005 5.89088L33.396 5.89029C31.8823 5.68205 27.5034 5.46963 24.1321 5.46963ZM14.5936 3.93934C16.2063 3.71755 20.6774 3.5 24.1321 3.5C27.5868 3.5 32.0579 3.71755 33.6707 3.93934C35.4469 4.17692 36.5 5.68488 36.5 7.4393V40.4929C36.5 42.2129 35.5098 43.6915 33.7826 43.9767C32.1874 44.2482 27.7047 44.5 24.1321 44.5C20.5526 44.5 16.0845 44.2359 14.4874 43.9777L14.485 43.9773C12.7561 43.6934 11.5 42.214 11.5 40.4929V7.4393C11.5 5.68488 12.8173 4.17692 14.5936 3.93934Z" fill="#231F20"/>
<path d="M32.4999 18.5V11.5C32.4999 10.9477 32.0522 10.5 31.4999 10.5C26.4999 10.4999 21.4999 10.4999 16.4999 10.5C15.9476 10.5 15.4999 10.9477 15.4999 11.5V18.5H32.4999Z" fill="#21C68B"/>
<path d="M20.4999 19.5H15.4999V24.5H20.4999V19.5Z" fill="#BEDCE3"/>
<path d="M20.4999 25.5H15.4999V30.5H20.4999V25.5Z" fill="#BEDCE3"/>
<path d="M15.4999 31.5H20.4999V36.5H16.4999C15.9476 36.5 15.4999 36.0523 15.4999 35.5V31.5Z" fill="#BEDCE3"/>
<path d="M26.4999 19.5H21.4999V24.5H26.4999V19.5Z" fill="#BEDCE3"/>
<path d="M21.4999 25.5H26.4999V30.5H21.4999V25.5Z" fill="#BEDCE3"/>
<path d="M26.4999 31.5H21.4999V36.5H26.4999V31.5Z" fill="#BEDCE3"/>
<path d="M27.4999 19.5H32.4999V24.5H27.4999V19.5Z" fill="#BEDCE3"/>
<path d="M32.4999 25.5H27.4999V30.5H32.4999V25.5Z" fill="#BEDCE3"/>
<path d="M27.4999 31.5H32.4999V35.5C32.4999 36.0523 32.0522 36.5 31.4999 36.5H27.4999V31.5Z" fill="#BEDCE3"/>
<path d="M26.6208 38.5H21.3792C20.8936 38.5 20.5 38.9476 20.5 39.5C20.5 40.0523 20.8936 40.5 21.3792 40.5H26.6208C27.1064 40.5 27.5 40.0523 27.5 39.5C27.5 38.9476 27.1064 38.5 26.6208 38.5Z" fill="#231F20"/>
<path d="M24.1298 8.91956C24.544 8.91956 24.8798 8.58376 24.8798 8.16956C24.8798 7.75526 24.544 7.41956 24.1298 7.41956C23.7156 7.41956 23.3798 7.75526 23.3798 8.16956C23.3798 8.58376 23.7156 8.91956 24.1298 8.91956Z" fill="#231F20"/>
</svg>
