<svg width="48" height="48" viewBox="0 0 48 48" fill="none" xmlns="http://www.w3.org/2000/svg">
<path fill-rule="evenodd" clip-rule="evenodd" d="M40 24V16C40 14.3431 34.6274 13 28 13C21.3726 13 16 14.3431 16 16V24C16 24.3506 16.2406 24.6872 16.6828 25C16.2406 25.3128 16 25.6494 16 26V32C16 32.3506 16.2406 32.6872 16.6828 33C16.2406 33.3128 16 33.6494 16 34V40C16 41.6569 21.3726 43 28 43C34.6274 43 40 41.6569 40 40V34C40 33.6494 39.7594 33.3128 39.3172 33C39.7594 32.6872 40 32.3506 40 32V26C40 25.6494 39.7594 25.3128 39.3172 25C39.7594 24.6872 40 24.3506 40 24Z" fill="#BEDCE3"/>
<path fill-rule="evenodd" clip-rule="evenodd" d="M36 30V36C36 37.6569 30.6274 39 24 39C17.3726 39 12 37.6569 12 36V30C12 28.3431 17.3726 27 24 27C30.6274 27 36 28.3431 36 30Z" fill="white"/>
<path fill-rule="evenodd" clip-rule="evenodd" d="M15.2722 26.9085C17.5439 26.3406 20.6292 26 24 26C27.3708 26 30.4561 26.3406 32.7278 26.9085C33.856 27.1906 34.8399 27.5423 35.5658 27.9714C36.2248 28.3609 37 29.014 37 30V36C37 36.986 36.2248 37.6391 35.5658 38.0286C34.8399 38.4577 33.856 38.8094 32.7278 39.0915C30.4561 39.6594 27.3708 40 24 40C20.6292 40 17.5439 39.6594 15.2722 39.0915C14.144 38.8094 13.1601 38.4577 12.4342 38.0286C11.7752 37.6391 11 36.986 11 36V30C11 29.014 11.7752 28.3609 12.4342 27.9714C13.1601 27.5423 14.144 27.1906 15.2722 26.9085ZM13 30.0532V35.9468C13.025 35.9853 13.1228 36.1124 13.4518 36.3069C13.9404 36.5956 14.7138 36.8903 15.7573 37.1512C17.8287 37.669 20.7434 38 24 38C27.2566 38 30.1713 37.669 32.2427 37.1512C33.2862 36.8903 34.0596 36.5956 34.5482 36.3069C34.8772 36.1124 34.975 35.9853 35 35.9468V30.0532C34.975 30.0147 34.8772 29.8876 34.5482 29.6931C34.0596 29.4044 33.2862 29.1097 32.2427 28.8488C30.1713 28.331 27.2566 28 24 28C20.7434 28 17.8287 28.331 15.7573 28.8488C14.7138 29.1097 13.9404 29.4044 13.4518 29.6931C13.1228 29.8876 13.025 30.0147 13 30.0532Z" fill="#231F20"/>
<path d="M36 22V28C36 29.6569 30.6274 31 24 31C17.3726 31 12 29.6569 12 28V22C12 20.3431 17.3726 19 24 19C30.6274 19 36 20.3431 36 22Z" fill="white"/>
<path fill-rule="evenodd" clip-rule="evenodd" d="M15.2722 18.9085C17.5439 18.3406 20.6292 18 24 18C27.3708 18 30.4561 18.3406 32.7278 18.9085C33.856 19.1906 34.8399 19.5423 35.5658 19.9714C36.2248 20.3609 37 21.014 37 22V28C37 28.986 36.2248 29.6391 35.5658 30.0286C34.8399 30.4577 33.856 30.8094 32.7278 31.0915C30.4561 31.6594 27.3708 32 24 32C20.6292 32 17.5439 31.6594 15.2722 31.0915C14.144 30.8094 13.1601 30.4577 12.4342 30.0286C11.7752 29.6391 11 28.986 11 28V22C11 21.014 11.7752 20.3609 12.4342 19.9714C13.1601 19.5423 14.144 19.1906 15.2722 18.9085ZM13 22.0532V27.9468C13.025 27.9853 13.1228 28.1124 13.4518 28.3069C13.9404 28.5956 14.7138 28.8903 15.7573 29.1512C17.8287 29.669 20.7434 30 24 30C27.2566 30 30.1713 29.669 32.2427 29.1512C33.2862 28.8903 34.0596 28.5956 34.5482 28.3069C34.8772 28.1124 34.975 27.9853 35 27.9468V22.0532C34.975 22.0147 34.8772 21.8876 34.5482 21.6931C34.0596 21.4044 33.2862 21.1097 32.2427 20.8488C30.1713 20.331 27.2566 20 24 20C20.7434 20 17.8287 20.331 15.7573 20.8488C14.7138 21.1097 13.9404 21.4044 13.4518 21.6931C13.1228 21.8876 13.025 22.0147 13 22.0532Z" fill="#231F20"/>
<path fill-rule="evenodd" clip-rule="evenodd" d="M36 12V20C36 21.6569 30.6274 23 24 23C17.3726 23 12 21.6569 12 20V12C12 10.3431 17.3726 9 24 9C30.6274 9 36 10.3431 36 12Z" fill="white"/>
<path fill-rule="evenodd" clip-rule="evenodd" d="M15.2722 8.90854C17.5439 8.34062 20.6292 8 24 8C27.3708 8 30.4561 8.34062 32.7278 8.90854C33.856 9.19057 34.8399 9.54231 35.5658 9.9714C36.2248 10.3609 37 11.014 37 12V20C37 20.986 36.2248 21.6391 35.5658 22.0286C34.8399 22.4577 33.856 22.8094 32.7278 23.0915C30.4561 23.6594 27.3708 24 24 24C20.6292 24 17.5439 23.6594 15.2722 23.0915C14.144 22.8094 13.1601 22.4577 12.4342 22.0286C11.7752 21.6391 11 20.986 11 20V12C11 11.014 11.7752 10.3609 12.4342 9.9714C13.1601 9.54231 14.144 9.19057 15.2722 8.90854ZM13 12.0532V19.9468C13.025 19.9853 13.1228 20.1124 13.4518 20.3069C13.9404 20.5956 14.7138 20.8903 15.7573 21.1512C17.8287 21.669 20.7434 22 24 22C27.2566 22 30.1713 21.669 32.2427 21.1512C33.2862 20.8903 34.0596 20.5956 34.5482 20.3069C34.8772 20.1124 34.975 19.9853 35 19.9468V12.0532C34.975 12.0147 34.8772 11.8876 34.5482 11.6931C34.0596 11.4044 33.2862 11.1097 32.2427 10.8488C30.1713 10.331 27.2566 10 24 10C20.7434 10 17.8287 10.331 15.7573 10.8488C14.7138 11.1097 13.9404 11.4044 13.4518 11.6931C13.1228 11.8876 13.025 12.0147 13 12.0532Z" fill="#231F20"/>
<path fill-rule="evenodd" clip-rule="evenodd" d="M13.0421 12C13.0985 12.0623 13.2155 12.1672 13.4518 12.3069C13.9404 12.5956 14.7138 12.8903 15.7573 13.1512C17.8287 13.669 20.7434 14 24 14C27.2566 14 30.1713 13.669 32.2427 13.1512C33.2862 12.8903 34.0596 12.5956 34.5482 12.3069C34.7845 12.1672 34.9015 12.0623 34.9579 12C34.9015 11.9377 34.7845 11.8328 34.5482 11.6931C34.0596 11.4044 33.2862 11.1097 32.2427 10.8488C30.1713 10.331 27.2566 10 24 10C20.7434 10 17.8287 10.331 15.7573 10.8488C14.7138 11.1097 13.9404 11.4044 13.4518 11.6931C13.2155 11.8328 13.0985 11.9377 13.0421 12ZM15.2722 8.90854C17.5439 8.34062 20.6292 8 24 8C27.3708 8 30.4561 8.34062 32.7278 8.90854C33.856 9.19057 34.8399 9.54231 35.5658 9.9714C36.2248 10.3609 37 11.014 37 12C37 12.986 36.2248 13.6391 35.5658 14.0286C34.8399 14.4577 33.856 14.8094 32.7278 15.0915C30.4561 15.6594 27.3708 16 24 16C20.6292 16 17.5439 15.6594 15.2722 15.0915C14.144 14.8094 13.1601 14.4577 12.4342 14.0286C11.7752 13.6391 11 12.986 11 12C11 11.014 11.7752 10.3609 12.4342 9.9714C13.1601 9.54231 14.144 9.19057 15.2722 8.90854Z" fill="#231F20"/>
<path d="M33 16.0213C32.9103 16.0452 32.8195 16.0685 32.7278 16.0915C31.9147 16.2947 30.9974 16.4689 30 16.6087V20.5879C30.8236 20.4648 31.5768 20.3177 32.2427 20.1512C32.5134 20.0835 32.7659 20.0136 33 19.942V16.0213Z" fill="#BEDCE3"/>
<path d="M33 24.0213C32.9103 24.0452 32.8195 24.0685 32.7278 24.0915C31.9147 24.2947 30.9974 24.4689 30 24.6087V28.5879C30.8236 28.4648 31.5768 28.3177 32.2427 28.1512C32.5134 28.0835 32.7659 28.0136 33 27.942V24.0213Z" fill="#BEDCE3"/>
<path d="M33 32.0213C32.9103 32.0452 32.8195 32.0685 32.7278 32.0915C31.9147 32.2947 30.9974 32.4689 30 32.6087V36.5879C30.8236 36.4648 31.5768 36.3177 32.2427 36.1512C32.5134 36.0835 32.7659 36.0136 33 35.942V32.0213Z" fill="#BEDCE3"/>
<path d="M12.0005 18.2222C15.437 18.2222 18.2228 15.4364 18.2228 12C18.2228 8.56356 15.437 5.77777 12.0005 5.77777C8.5641 5.77777 5.77832 8.56356 5.77832 12C5.77832 15.4364 8.5641 18.2222 12.0005 18.2222Z" fill="white"/>
<path fill-rule="evenodd" clip-rule="evenodd" d="M12.0005 6.77777C9.11639 6.77777 6.77832 9.11584 6.77832 12C6.77832 14.8841 9.11639 17.2222 12.0005 17.2222C14.8847 17.2222 17.2228 14.8841 17.2228 12C17.2228 9.11584 14.8847 6.77777 12.0005 6.77777ZM4.77832 12C4.77832 8.01127 8.01182 4.77777 12.0005 4.77777C15.9893 4.77777 19.2228 8.01127 19.2228 12C19.2228 15.9887 15.9893 19.2222 12.0005 19.2222C8.01182 19.2222 4.77832 15.9887 4.77832 12Z" fill="#231F20"/>
<rect x="11" y="8" width="2" height="5" rx="1" fill="#21C68B"/>
<rect x="15.1001" y="12.64" width="2" height="4" rx="1" transform="rotate(120 15.1001 12.64)" fill="#21C68B"/>
</svg>
