<svg width="48" height="48" viewBox="0 0 48 48" fill="none" xmlns="http://www.w3.org/2000/svg">
<path fill-rule="evenodd" clip-rule="evenodd" d="M15 23L11.3734 23C10.378 23 9.9938 21.7041 10.8284 21.1616L27.455 10.3542C27.7864 10.1388 28.2136 10.1388 28.545 10.3542L45.1717 21.1616C46.0063 21.7041 45.6221 23 44.6267 23L41 23V40H44C44.5523 40 45 40.4477 45 41V44C45 44.5523 44.5523 45 44 45H12C11.4478 45 11 44.5523 11 44V41C11 40.4477 11.4478 40 12 40H15V23ZM21 23V40H25V23H21ZM31 23V40H35V23H31Z" fill="#BEDCE3"/>
<path d="M7.37336 19H40.6266C41.6221 19 42.0062 17.7041 41.1716 17.1616L24.545 6.35424C24.2136 6.13883 23.7864 6.13883 23.455 6.35424L6.82837 17.1616C5.99376 17.7041 6.37793 19 7.37336 19Z" fill="white"/>
<path d="M7 37C7 36.4477 7.44772 36 8 36H40C40.5523 36 41 36.4477 41 37V40C41 40.5523 40.5523 41 40 41H8C7.44772 41 7 40.5523 7 40V37Z" fill="white"/>
<path fill-rule="evenodd" clip-rule="evenodd" d="M6 37C6 35.8954 6.89543 35 8 35H40C41.1046 35 42 35.8954 42 37V40C42 41.1046 41.1046 42 40 42H8C6.89543 42 6 41.1046 6 40V37ZM40 37H8V40H40V37Z" fill="#231F20"/>
<path fill-rule="evenodd" clip-rule="evenodd" d="M22.9099 5.5158C23.5727 5.08498 24.4271 5.08498 25.0899 5.5158L41.7165 16.3231C43.3857 17.4081 42.6174 20 40.6265 20H7.37326C5.3824 20 4.61406 17.4081 6.28329 16.3231L8.83953 14.6616C9.30259 14.3606 9.92197 14.492 10.223 14.955C10.524 15.4181 10.3926 16.0375 9.92951 16.3384L7.37326 18L40.6265 18L23.9999 7.19269L18.5449 10.7384C18.0818 11.0394 17.4624 10.9081 17.1615 10.445C16.8605 9.98193 16.9919 9.36255 17.4549 9.06156L22.9099 5.5158Z" fill="#231F20"/>
<path d="M23.7349 9.66589C23.8971 9.56441 24.103 9.56441 24.2652 9.66589L33.7132 15.5761C34.139 15.8425 33.9502 16.5 33.448 16.5H14.5522C14.0499 16.5 13.8612 15.8425 14.287 15.5761L23.7349 9.66589Z" fill="#BEDCE3"/>
<path d="M17 20L17 35L11 35L11 20L17 20Z" fill="white"/>
<path d="M27 20L27 35L21 35L21 20L27 20Z" fill="white"/>
<path d="M37 20L37 35L31 35L31 20L37 20Z" fill="white"/>
<path fill-rule="evenodd" clip-rule="evenodd" d="M10 20H12V35H10V20ZM22 20H20V35H22V20ZM28 20H26V35H28V20ZM18 20H16V35H18V20ZM30 20H32V35H30V20ZM38 20H36V35H38V20Z" fill="#231F20"/>
</svg>
