<svg width="48" height="48" viewBox="0 0 48 48" fill="none" xmlns="http://www.w3.org/2000/svg">
<path fill-rule="evenodd" clip-rule="evenodd" d="M15.0002 23L11.3735 23C10.3781 23 9.99392 21.7041 10.8285 21.1616L27.4552 10.3542C27.7866 10.1388 28.2137 10.1388 28.5451 10.3542L45.1718 21.1616C46.0064 21.7041 45.6222 23 44.6268 23L41.0002 23V40H44.0002C44.5524 40 45.0002 40.4477 45.0002 41V44C45.0002 44.5523 44.5524 45 44.0002 45H12.0002C11.4479 45 11.0002 44.5523 11.0002 44V41C11.0002 40.4477 11.4479 40 12.0002 40H15.0002V23ZM21.0002 23V40H25.0002V23H21.0002ZM31.0002 23V40H35.0002V23H31.0002Z" fill="#BEDCE3"/>
<path d="M7.37349 19H40.6268C41.6222 19 42.0064 17.7041 41.1717 17.1616L24.5451 6.35424C24.2137 6.13883 23.7865 6.13883 23.4551 6.35424L6.8285 17.1616C5.99388 17.7041 6.37805 19 7.37349 19Z" fill="white"/>
<path d="M7 37C7 36.4477 7.44772 36 8 36H40C40.5523 36 41 36.4477 41 37V40C41 40.5523 40.5523 41 40 41H8C7.44772 41 7 40.5523 7 40V37Z" fill="white"/>
<path fill-rule="evenodd" clip-rule="evenodd" d="M6 37C6 35.8954 6.89543 35 8 35H40C41.1046 35 42 35.8954 42 37V40C42 41.1046 41.1046 42 40 42H8C6.89543 42 6 41.1046 6 40V37ZM40 37H8V40H40V37Z" fill="#231F20"/>
<path fill-rule="evenodd" clip-rule="evenodd" d="M22.91 5.5158C23.5728 5.08498 24.4272 5.08498 25.09 5.5158L41.7166 16.3231C43.3859 17.4081 42.6175 20 40.6267 20H7.37339C5.38253 20 4.61418 17.4081 6.28341 16.3231L8.83965 14.6616C9.30271 14.3606 9.92209 14.492 10.2231 14.955C10.5241 15.4181 10.3927 16.0375 9.92963 16.3384L7.37339 18L40.6267 18L24 7.19269L18.545 10.7384C18.082 11.0394 17.4626 10.9081 17.1616 10.445C16.8606 9.98193 16.992 9.36255 17.455 9.06156L22.91 5.5158Z" fill="#231F20"/>
<path d="M23.735 9.66588C23.8972 9.56441 24.1032 9.56441 24.2654 9.66588L33.7133 15.5761C34.1391 15.8425 33.9504 16.5 33.4481 16.5H14.5523C14.05 16.5 13.8613 15.8425 14.2871 15.5761L23.735 9.66588Z" fill="#BEDCE3"/>
<path d="M17 20L17 35L11 35L11 20L17 20Z" fill="white"/>
<path d="M27 20L27 35L21 35L21 20L27 20Z" fill="white"/>
<path d="M37 20L37 35L31 35L31 20L37 20Z" fill="white"/>
<path fill-rule="evenodd" clip-rule="evenodd" d="M10 20H12V35H10V20ZM22 20H20V35H22V20ZM28 20H26V35H28V20ZM18 20H16V35H18V20ZM30 20H32V35H30V20ZM38 20H36V35H38V20Z" fill="#231F20"/>
</svg>
