<svg width="48" height="48" viewBox="0 0 48 48" fill="none" xmlns="http://www.w3.org/2000/svg">
<path d="M13 20C11.3431 20 10 21.3431 10 23V35C10 36.6569 11.3431 38 13 38H40C41.1046 38 42 37.1046 42 36V33H45C45.5523 33 46 32.5523 46 32V26C46 25.4477 45.5523 25 45 25H42V22C42 20.8954 41.1046 20 40 20H13Z" fill="#29889E" fill-opacity="0.3"/>
<path d="M9 16C7.34315 16 6 17.3431 6 19V31C6 32.6569 7.34315 34 9 34H36C37.1046 34 38 33.1046 38 32V29H41C41.5523 29 42 28.5523 42 28V22C42 21.4477 41.5523 21 41 21H38V18C38 16.8954 37.1046 16 36 16H9Z" fill="white"/>
<path fill-rule="evenodd" clip-rule="evenodd" d="M11.3191 15C10.7704 15 10.3255 15.4548 10.3255 16.0157C10.3255 16.5767 10.7704 17.0315 11.3191 17.0315H35.294C35.7499 17.0315 36.1871 17.2166 36.5094 17.5462C36.8318 17.8757 37.0129 18.3227 37.0129 18.7887V20.8185C37.0044 20.876 37 20.9366 37 21C37 21.0634 37.0044 21.124 37.0129 21.1815V28.819C37.0044 28.8762 37 28.9366 37 29C37 29.0634 37.0044 29.124 37.0129 29.1815V31.2011C37.0129 31.6687 36.8316 32.1173 36.5087 32.4486C36.1862 32.7795 35.7487 32.9664 35.2918 32.9685H8.70824C8.25134 32.9664 7.81379 32.7795 7.49127 32.4486C7.16841 32.1173 6.98714 31.6687 6.98714 31.2011V21.4601C6.98714 20.8992 6.54231 20.4444 5.99357 20.4444C5.44484 20.4444 5 20.8992 5 21.4601V31.2011C4.99999 32.2062 5.38963 33.1704 6.08358 33.8824C6.77752 34.5945 7.71921 34.9963 8.70239 35L8.70602 35H35.294L35.2976 35C36.2808 34.9963 37.2225 34.5945 37.9164 33.8824C38.6104 33.1704 39 32.2062 39 31.2011V30H41C42.1442 30 43 29.1619 43 28.019V22C43 20.8499 42.1569 20 41 20H39V18.7887C39 17.7839 38.6095 16.8202 37.9145 16.1097C37.2195 15.3992 36.2769 15 35.294 15H11.3191ZM39 22V28.019H41V22H39Z" fill="#231F20"/>
<path d="M10 19C9.44772 19 9 19.4477 9 20V30C9 30.5523 9.44772 31 10 31H13C13.5523 31 14 30.5523 14 30V20C14 19.4477 13.5523 19 13 19H10Z" fill="#21C68B"/>
<path d="M17 19C16.4477 19 16 19.4477 16 20V30C16 30.5523 16.4477 31 17 31H20C20.5523 31 21 30.5523 21 30V20C21 19.4477 20.5523 19 20 19H17Z" fill="#21C68B"/>
<path d="M23 20C23 19.4477 23.4477 19 24 19H27C27.5523 19 28 19.4477 28 20V30C28 30.5523 27.5523 31 27 31H24C23.4477 31 23 30.5523 23 30V20Z" fill="#21C68B"/>
<path d="M31 19C30.4477 19 30 19.4477 30 20V30C30 30.5523 30.4477 31 31 31H34C34.5523 31 35 30.5523 35 30V20C35 19.4477 34.5523 19 34 19H31Z" fill="#21C68B"/>
</svg>
