<svg width="64" height="64" viewBox="0 0 64 64" fill="none" xmlns="http://www.w3.org/2000/svg">
<g clip-path="url(#clip0)">
<path d="M58.6922 61.1995C63.8783 56.0134 57.4708 41.1975 44.3805 28.1072C31.2903 15.017 16.4743 8.60939 11.2882 13.7955C6.10212 18.9816 12.5097 33.7975 25.5999 46.8878C38.6902 59.978 53.5061 66.3856 58.6922 61.1995Z" fill="#BEDCE3"/>
<path d="M53.1922 53.6995C58.3783 48.5134 51.9708 33.6975 38.8805 20.6072C25.7903 7.51696 10.9743 1.10939 5.78824 6.2955C0.602124 11.4816 7.00969 26.2975 20.0999 39.3878C33.1902 52.478 48.0061 58.8856 53.1922 53.6995Z" fill="white"/>
<path d="M44.3805 46.8879C57.4708 33.7977 63.8783 18.9817 58.6922 13.7956C53.5061 8.60952 38.6902 15.0171 25.5999 28.1073C12.5097 41.1976 6.10212 56.0135 11.2882 61.1996C16.4743 66.3857 31.2903 59.9782 44.3805 46.8879Z" fill="#BEDCE3"/>
<path d="M53.6922 53.6995C58.8783 48.5134 52.4708 33.6975 39.3805 20.6072C26.2903 7.51696 11.4743 1.10939 6.28824 6.2955C1.10212 11.4816 7.50969 26.2975 20.5999 39.3878C33.6902 52.478 48.5061 58.8856 53.6922 53.6995Z" fill="white"/>
<path d="M40.38 39.3899C27.29 52.4799 12.47 58.8899 7.29001 53.6999C2.11001 48.5099 8.51001 33.6999 21.6 20.6099C28.01 14.1999 34.84 9.38989 40.75 6.75989C46.9 4.02989 52.05 3.65989 54.69 6.29989C59.87 11.4799 53.47 26.2999 40.38 39.3899Z" fill="white"/>
<path d="M12.3998 56.99C9.80981 56.99 7.70981 56.25 6.21981 54.76C3.24981 51.79 3.23981 46.38 6.20981 39.52C8.98981 33.1 14.0698 26.01 20.5298 19.55C26.8498 13.23 33.8098 8.2 40.1298 5.39C47.1698 2.26 52.7098 2.21 55.7398 5.24C58.7098 8.21 58.7198 13.62 55.7498 20.48C52.9698 26.9 47.8898 33.99 41.4298 40.45C34.9798 46.91 27.8798 52 21.4598 54.77C18.0398 56.25 14.9798 56.99 12.3998 56.99ZM49.5598 5.99C47.3498 5.99 44.5498 6.71 41.3498 8.13C35.3598 10.79 28.7198 15.6 22.6498 21.67C16.4498 27.87 11.5898 34.63 8.95981 40.71C6.54981 46.28 6.32981 50.62 8.33981 52.64C10.3498 54.66 14.6998 54.43 20.2698 52.02C26.3498 49.39 33.1098 44.53 39.3098 38.33C45.5098 32.13 50.3698 25.37 52.9998 19.29C55.4098 13.72 55.6298 9.38 53.6198 7.36C52.7098 6.44 51.3298 5.99 49.5598 5.99Z" fill="#231F20"/>
<path d="M48.5701 56.9901C45.9901 56.9901 42.9301 56.2501 39.5101 54.7701C33.0901 52.0001 26.0001 46.9101 19.5401 40.4501C18.9501 39.8601 18.9501 38.9101 19.5401 38.3301C20.1301 37.7501 21.0801 37.7401 21.6601 38.3301C27.8601 44.5301 34.6201 49.3901 40.7001 52.0201C46.2701 54.4301 50.6101 54.6501 52.6301 52.6401C54.6401 50.6301 54.4201 46.2801 52.0101 40.7101C49.3801 34.6301 44.5201 27.8701 38.3201 21.6701C32.1201 15.4701 25.3501 10.6101 19.2701 7.98007C13.7101 5.57007 9.36006 5.35008 7.35006 7.36007C4.98006 9.73007 5.78006 15.4501 9.42006 22.2901C9.81006 23.0201 9.53006 23.9301 8.80006 24.3201C8.07006 24.7101 7.16006 24.4301 6.77006 23.7001C2.35006 15.4001 1.79006 8.67007 5.23006 5.24007C8.20006 2.27007 13.6101 2.26007 20.4701 5.23007C26.8801 8.00007 33.9801 13.0901 40.4401 19.5501C46.9001 26.0101 51.9901 33.1001 54.7601 39.5201C57.7201 46.3701 57.7201 51.7801 54.7501 54.7601C53.2601 56.2501 51.1601 56.9901 48.5701 56.9901Z" fill="#231F20"/>
<path d="M30.4902 37C34.3562 37 37.4902 33.866 37.4902 30C37.4902 26.134 34.3562 23 30.4902 23C26.6242 23 23.4902 26.134 23.4902 30C23.4902 33.866 26.6242 37 30.4902 37Z" fill="#F05023"/>
</g>
<defs>
<clipPath id="clip0">
<rect width="57.49" height="60" fill="white" transform="translate(3 3)"/>
</clipPath>
</defs>
</svg>
