<svg width="48" height="48" viewBox="0 0 48 48" fill="none" xmlns="http://www.w3.org/2000/svg">
<path d="M12 11C12 10.4477 12.4478 10 13 10C13.5522 10 14 10.4477 14 11C14 11.5523 14.4478 12 15 12C15.5522 12 16 11.5523 16 11C16 10.4477 16.4478 10 17 10C17.5522 10 18 10.4477 18 11C18 11.5523 18.4478 12 19 12C19.5522 12 20 11.5523 20 11C20 10.4477 20.4478 10 21 10C21.5522 10 22 10.4477 22 11C22 11.5523 22.4478 12 23 12C23.5522 12 24 11.5523 24 11C24 10.4477 24.4478 10 25 10C25.5522 10 26 10.4477 26 11C26 11.5523 26.4478 12 27 12C27.5522 12 28 11.5523 28 11C28 10.4477 28.4478 10 29 10C29.5522 10 30 10.4477 30 11C30 11.5523 30.4478 12 31 12C31.5522 12 32 11.5523 32 11C32 10.4477 32.4478 10 33 10C33.5522 10 34 10.4477 34 11C34 11.5523 34.4478 12 35 12C35.5522 12 36 11.5523 36 11C36 10.4477 36.4478 10 37 10C37.5522 10 38 10.4477 38 11C38 11.5523 38.4478 12 39 12C39.5522 12 40 11.5523 40 11C40 10.4477 40.4478 10 41 10C41.5522 10 42 10.4477 42 11V43C42 43.5523 41.5522 44 41 44C40.4478 44 40 43.5523 40 43C40 42.4477 39.5522 42 39 42C38.4478 42 38 42.4477 38 43C38 43.5523 37.5522 44 37 44C36.4478 44 36 43.5523 36 43C36 42.4477 35.5522 42 35 42C34.4478 42 34 42.4477 34 43C34 43.5523 33.5522 44 33 44C32.4478 44 32 43.5523 32 43C32 42.4477 31.5522 42 31 42C30.4478 42 30 42.4477 30 43C30 43.5523 29.5522 44 29 44C28.4478 44 28 43.5523 28 43C28 42.4477 27.5522 42 27 42C26.4478 42 26 42.4477 26 43C26 43.5523 25.5522 44 25 44C24.4478 44 24 43.5523 24 43C24 42.4477 23.5522 42 23 42C22.4478 42 22 42.4477 22 43C22 43.5523 21.5522 44 21 44C20.4478 44 20 43.5523 20 43C20 42.4477 19.5522 42 19 42C18.4478 42 18 42.4477 18 43C18 43.5523 17.5522 44 17 44C16.4478 44 16 43.5523 16 43C16 42.4477 15.5522 42 15 42C14.4478 42 14 42.4477 14 43C14 43.5523 13.5522 44 13 44C12.4478 44 12 43.5523 12 43V11Z" fill="#BEDCE3"/>
<path d="M9 8C9 7.44772 9.44775 7 10 7C10.5522 7 11 7.44772 11 8C11 8.55228 11.4478 9 12 9C12.5522 9 13 8.55228 13 8C13 7.44772 13.4478 7 14 7C14.5522 7 15 7.44772 15 8C15 8.55228 15.4478 9 16 9C16.5522 9 17 8.55228 17 8C17 7.44772 17.4478 7 18 7C18.5522 7 19 7.44772 19 8C19 8.55228 19.4478 9 20 9C20.5522 9 21 8.55228 21 8C21 7.44772 21.4478 7 22 7C22.5522 7 23 7.44772 23 8C23 8.55228 23.4478 9 24 9C24.5522 9 25 8.55228 25 8C25 7.44772 25.4478 7 26 7C26.5522 7 27 7.44772 27 8C27 8.55228 27.4478 9 28 9C28.5522 9 29 8.55228 29 8C29 7.44772 29.4478 7 30 7C30.5522 7 31 7.44772 31 8C31 8.55228 31.4478 9 32 9C32.5522 9 33 8.55228 33 8C33 7.44772 33.4478 7 34 7C34.5522 7 35 7.44772 35 8C35 8.55228 35.4478 9 36 9C36.5522 9 37 8.55228 37 8C37 7.44772 37.4478 7 38 7C38.5522 7 39 7.44772 39 8V40C39 40.5523 38.5522 41 38 41C37.4478 41 37 40.5523 37 40C37 39.4477 36.5522 39 36 39C35.4478 39 35 39.4477 35 40C35 40.5523 34.5522 41 34 41C33.4478 41 33 40.5523 33 40C33 39.4477 32.5522 39 32 39C31.4478 39 31 39.4477 31 40C31 40.5523 30.5522 41 30 41C29.4478 41 29 40.5523 29 40C29 39.4477 28.5522 39 28 39C27.4478 39 27 39.4477 27 40C27 40.5523 26.5522 41 26 41C25.4478 41 25 40.5523 25 40C25 39.4477 24.5522 39 24 39C23.4478 39 23 39.4477 23 40C23 40.5523 22.5522 41 22 41C21.4478 41 21 40.5523 21 40C21 39.4477 20.5522 39 20 39C19.4478 39 19 39.4477 19 40C19 40.5523 18.5522 41 18 41C17.4478 41 17 40.5523 17 40C17 39.4477 16.5522 39 16 39C15.4478 39 15 39.4477 15 40C15 40.5523 14.5522 41 14 41C13.4478 41 13 40.5523 13 40C13 39.4477 12.5522 39 12 39C11.4478 39 11 39.4477 11 40C11 40.5523 10.5522 41 10 41C9.44775 41 9 40.5523 9 40V8Z" fill="white"/>
<rect x="15" y="24" width="18" height="2" rx="1" fill="#BEDCE3"/>
<rect x="25" y="29" width="8" height="2" rx="1" fill="#BEDCE3"/>
<rect x="15" y="29" width="5" height="2" rx="1" fill="#BEDCE3"/>
<rect x="15" y="20" width="18" height="2" rx="1" fill="#BEDCE3"/>
<rect x="15" y="16" width="18" height="2" rx="1" fill="#BEDCE3"/>
<path d="M10 7C9.44775 7 9 7.44772 9 8V13C9 13.5523 9.44772 14 10 14C10.5523 14 11 13.5523 11 13V10.8293C11.3128 10.9398 11.6494 11 12 11C12.7683 11 13.4692 10.7111 14 10.2361C14.5308 10.7111 15.2317 11 16 11C16.7683 11 17.4692 10.7111 18 10.2361C18.5308 10.7111 19.2317 11 20 11C20.7683 11 21.4692 10.7111 22 10.2361C22.5308 10.7111 23.2317 11 24 11C24.7683 11 25.4692 10.7111 26 10.2361C26.5308 10.7111 27.2317 11 28 11C28.7683 11 29.4692 10.7111 30 10.2361C30.5308 10.7111 31.2317 11 32 11C32.7683 11 33.4692 10.7111 34 10.2361C34.5308 10.7111 35.2317 11 36 11C36.3506 11 36.6872 10.9398 37 10.8293V37.1707C36.6872 37.0602 36.3506 37 36 37C35.2317 37 34.5308 37.2889 34 37.7639C33.4692 37.2889 32.7683 37 32 37C31.2317 37 30.5308 37.2889 30 37.7639C29.4692 37.2889 28.7683 37 28 37C27.2317 37 26.5308 37.2889 26 37.7639C25.4692 37.2889 24.7683 37 24 37C23.2317 37 22.5308 37.2889 22 37.7639C21.4692 37.2889 20.7683 37 20 37C19.2317 37 18.5308 37.2889 18 37.7639C17.4692 37.2889 16.7683 37 16 37C15.2317 37 14.5308 37.2889 14 37.7639C13.4692 37.2889 12.7683 37 12 37C11.6494 37 11.3128 37.0602 11 37.1707V21C11 20.4477 10.5523 20 10 20C9.44771 20 9 20.4477 9 21V40C9 40.5523 9.44775 41 10 41C10.5522 41 11 40.5523 11 40C11 39.4477 11.4478 39 12 39C12.5522 39 13 39.4477 13 40C13 40.5523 13.4478 41 14 41C14.5522 41 15 40.5523 15 40C15 39.4477 15.4478 39 16 39C16.5522 39 17 39.4477 17 40C17 40.5523 17.4478 41 18 41C18.5522 41 19 40.5523 19 40C19 39.4477 19.4478 39 20 39C20.5522 39 21 39.4477 21 40C21 40.5523 21.4478 41 22 41C22.5522 41 23 40.5523 23 40C23 39.4477 23.4478 39 24 39C24.5522 39 25 39.4477 25 40C25 40.5523 25.4478 41 26 41C26.5522 41 27 40.5523 27 40C27 39.4477 27.4478 39 28 39C28.5522 39 29 39.4477 29 40C29 40.5523 29.4478 41 30 41C30.5522 41 31 40.5523 31 40C31 39.4477 31.4478 39 32 39C32.5522 39 33 39.4477 33 40C33 40.5523 33.4478 41 34 41C34.5522 41 35 40.5523 35 40C35 39.4477 35.4478 39 36 39C36.5522 39 37 39.4477 37 40C37 40.5523 37.4478 41 38 41C38.5522 41 39 40.5523 39 40V8C39 7.44772 38.5522 7 38 7C37.4478 7 37 7.44772 37 8C37 8.55228 36.5522 9 36 9C35.4478 9 35 8.55228 35 8C35 7.44772 34.5522 7 34 7C33.4478 7 33 7.44772 33 8C33 8.55228 32.5522 9 32 9C31.4478 9 31 8.55228 31 8C31 7.44772 30.5522 7 30 7C29.4478 7 29 7.44772 29 8C29 8.55228 28.5522 9 28 9C27.4478 9 27 8.55228 27 8C27 7.44772 26.5522 7 26 7C25.4478 7 25 7.44772 25 8C25 8.55228 24.5522 9 24 9C23.4478 9 23 8.55228 23 8C23 7.44772 22.5522 7 22 7C21.4478 7 21 7.44772 21 8C21 8.55228 20.5522 9 20 9C19.4478 9 19 8.55228 19 8C19 7.44772 18.5522 7 18 7C17.4478 7 17 7.44772 17 8C17 8.55228 16.5522 9 16 9C15.4478 9 15 8.55228 15 8C15 7.44772 14.5522 7 14 7C13.4478 7 13 7.44772 13 8C13 8.55228 12.5522 9 12 9C11.4478 9 11 8.55228 11 8C11 7.44772 10.5522 7 10 7Z" fill="#231F20"/>
</svg>
