<svg width="64" height="64" viewBox="0 0 64 64" fill="none" xmlns="http://www.w3.org/2000/svg">
<path d="M35.93 12H22C19.24 12 17 14.24 17 17V55C17 57.76 19.24 60 22 60H49C51.76 60 54 57.76 54 55V30.07C54 28.74 53.47 27.47 52.54 26.53L39.46 13.47C38.53 12.53 37.26 12 35.93 12Z" fill="#BEDCE3"/>
<path d="M32.43 7.5H18.5C15.74 7.5 13.5 9.74 13.5 12.5V50.5C13.5 53.26 15.74 55.5 18.5 55.5H45.5C48.26 55.5 50.5 53.26 50.5 50.5V25.57C50.5 24.24 49.97 22.97 49.04 22.03L35.96 8.96C35.03 8.03 33.76 7.5 32.43 7.5Z" fill="white"/>
<path fill-rule="evenodd" clip-rule="evenodd" d="M19 7.5C19 6.67157 19.6716 6 20.5 6H32.42C34.1429 6 35.7956 6.67453 37.0203 7.89893C37.0204 7.89907 37.0201 7.8988 37.0203 7.89893L50.1063 20.975C51.3107 22.1924 52 23.8401 52 25.57V50.5C52 54.0884 49.0884 57 45.5 57H18.5C14.9116 57 12 54.0884 12 50.5V16.5C12 15.6716 12.6716 15 13.5 15C14.3284 15 15 15.6716 15 16.5V50.5C15 52.4316 16.5684 54 18.5 54H45.5C47.4316 54 49 52.4316 49 50.5V25.57C49 24.6411 48.6303 23.75 47.9763 23.0876C47.9754 23.0867 47.9745 23.0858 47.9737 23.085L34.8997 10.0211C34.2444 9.36572 33.3569 9 32.42 9H20.5C19.6716 9 19 8.32843 19 7.5Z" fill="#231F20"/>
<path fill-rule="evenodd" clip-rule="evenodd" d="M34.5 7.88989C35.3284 7.88989 36 8.56147 36 9.38989V18.4999C36 20.4315 37.5684 21.9999 39.5 21.9999H49.5C50.3284 21.9999 51 22.6715 51 23.4999C51 24.3283 50.3284 24.9999 49.5 24.9999H39.5C35.9116 24.9999 33 22.0883 33 18.4999V9.38989C33 8.56147 33.6716 7.88989 34.5 7.88989Z" fill="#231F20"/>
<path d="M28.128 22H20.8829C19.8478 22 19 21.3246 19 20.5C19 19.6754 19.8478 19 20.8829 19H28.117C29.1521 19 29.9999 19.6754 29.9999 20.5C30.0109 21.3246 29.1631 22 28.128 22Z" fill="#BEDCE3"/>
<path d="M43.2312 29H20.7791C19.8011 29 19 28.3246 19 27.5C19 26.6754 19.8011 26 20.7791 26H43.2208C44.1988 26 44.9999 26.6754 44.9999 27.5C45.0103 28.3246 44.2092 29 43.2312 29Z" fill="#BEDCE3"/>
<path d="M43.2312 36H20.7791C19.8011 36 19 35.3246 19 34.5C19 33.6754 19.8011 33 20.7791 33H43.2208C44.1988 33 44.9999 33.6754 44.9999 34.5C45.0103 35.3246 44.2092 36 43.2312 36Z" fill="#BEDCE3"/>
<path d="M43.2312 43H20.7791C19.8011 43 19 42.3246 19 41.5C19 40.6754 19.8011 40 20.7791 40H43.2208C44.1988 40 44.9999 40.6754 44.9999 41.5C45.0103 42.3246 44.2092 43 43.2312 43Z" fill="#BEDCE3"/>
</svg>
