<svg width="48" height="48" viewBox="0 0 48 48" fill="none" xmlns="http://www.w3.org/2000/svg">
    <path d="M34.9456 12.8164L44.2681 22.1389C45.44 23.3108 45.44 25.2006 44.2681 26.3726L26.3727 44.268C25.2007 45.4399 23.3109 45.4399 22.139 44.268L11.729 33.858C10.5571 32.6861 10.5571 30.7963 11.729 29.6244L29.6244 11.7289C30.7964 10.557 32.6862 10.557 33.8581 11.7289L34.9456 12.8164Z"
          fill="#BEDCE3"/>
    <path d="M30.9456 8.81639L40.2681 18.1389C41.44 19.3108 41.44 21.2006 40.2681 22.3726L22.3727 40.268C21.2007 41.4399 19.3109 41.4399 18.139 40.268L7.72903 29.858C6.55712 28.6861 6.55712 26.7963 7.72903 25.6244L25.6244 7.72894C26.7964 6.55703 28.6862 6.55703 29.8581 7.72894L30.9456 8.81639Z"
          fill="white"/>
    <path d="M34.026 11.9002L30.9427 8.81699L9.24061 30.5191L12.3238 33.6023L34.026 11.9002Z" fill="#91B1B8"/>
    <path fill-rule="evenodd" clip-rule="evenodd"
          d="M30.2384 8.10927C30.629 7.71874 31.2621 7.71874 31.6527 8.10927L40.9752 17.4318C42.5376 18.9942 42.5376 21.5172 40.9752 23.0797L23.0798 40.9751C21.5173 42.5375 18.9943 42.5375 17.4319 40.9751L7.02192 30.5651C5.45949 29.0027 5.45949 26.4797 7.02192 24.9172L23.6398 8.29931C24.0304 7.90878 24.6635 7.90878 25.0541 8.29931C25.4446 8.68983 25.4446 9.323 25.0541 9.71352L8.43614 26.3314C7.65475 27.1128 7.65475 28.3695 8.43614 29.1509L18.8461 39.5609C19.6275 40.3422 20.8842 40.3422 21.6655 39.5609L39.561 21.6654C40.3423 20.8841 40.3423 19.6274 39.561 18.846L30.2384 9.52348C29.8479 9.13296 29.8479 8.49979 30.2384 8.10927Z"
          fill="#231F20"/>
    <path fill-rule="evenodd" clip-rule="evenodd"
          d="M31.4836 18.2867C31.4836 17.8725 31.8193 17.5367 32.2336 17.5367C34.613 17.5367 36.531 19.4681 36.531 21.8341C36.531 22.2483 36.1952 22.5841 35.781 22.5841C35.3667 22.5841 35.031 22.2483 35.031 21.8341C35.031 20.2937 33.7816 19.0367 32.2336 19.0367C31.8193 19.0367 31.4836 18.7009 31.4836 18.2867Z"
          fill="#21C68B"/>
    <path fill-rule="evenodd" clip-rule="evenodd"
          d="M30.7448 20.3982C30.7448 19.984 31.0806 19.6482 31.4948 19.6482C33.0915 19.6482 34.3775 20.9342 34.3775 22.5309C34.3775 22.9451 34.0417 23.2809 33.6275 23.2809C33.2133 23.2809 32.8775 22.9451 32.8775 22.5309C32.8775 21.7627 32.2631 21.1482 31.4948 21.1482C31.0806 21.1482 30.7448 20.8125 30.7448 20.3982Z"
          fill="#21C68B"/>
    <path d="M31.1674 23.6395C31.6281 23.6395 32.0015 23.266 32.0015 22.8054C32.0015 22.3448 31.6281 21.9713 31.1674 21.9713C30.7068 21.9713 30.3334 22.3448 30.3334 22.8054C30.3334 23.266 30.7068 23.6395 31.1674 23.6395Z"
          fill="#21C68B"/>
</svg>
