<svg width="64" height="64" viewBox="0 0 64 64" fill="none" xmlns="http://www.w3.org/2000/svg">
<g clip-path="url(#clip0)">
<path d="M51.5 53H17.5C13.1 53 9.5 49.4 9.5 45V23.5C9.5 19.1 13.1 15.5 17.5 15.5H51.5C55.9 15.5 59.5 19.1 59.5 23.5V45C59.5 49.4 55.9 53 51.5 53Z" fill="#BEDCE3"/>
<path d="M47.5 47H13.5C9.1 47 5.5 43.4 5.5 39V17.5C5.5 13.1 9.1 9.5 13.5 9.5H47.5C51.9 9.5 55.5 13.1 55.5 17.5V39C55.5 43.4 51.9 47 47.5 47Z" fill="white"/>
<path d="M47.2 48.5H13.8C8.4 48.5 4 44.1 4 38.7V19.9C4 19.1 4.7 18.4 5.5 18.4C6.3 18.4 7 19.1 7 19.9V38.7C7 42.5 10.1 45.5 13.8 45.5H47.1C50.9 45.5 53.9 42.4 53.9 38.7V17.8C54 14.1 50.9 11 47.2 11H15.9C15.1 11 14.4 10.3 14.4 9.5C14.4 8.7 15.1 8 15.9 8H47.1C52.6 8 57 12.4 57 17.8V38.6C57 44.1 52.6 48.5 47.2 48.5Z" fill="#231F20"/>
<path d="M19.9 29H14.5C13.4 29 12.5 28.1 12.5 27V19C12.5 17.9 13.4 17 14.5 17H19.9V29Z" fill="#F2C94C"/>
<path d="M28.5001 25.5H21.1001V29H26.5001C27.6001 29 28.5001 28.1 28.5001 27V25.5Z" fill="#F2C94C"/>
<path d="M28.5001 21.3H21.1001V24.8H28.5001V21.3Z" fill="#F2C94C"/>
<path d="M28.5001 20.5H21.1001V17H26.5001C27.6001 17 28.5001 17.9 28.5001 19V20.5Z" fill="#F2C94C"/>
<path d="M47 54.5C53.6274 54.5 59 49.1274 59 42.5C59 35.8726 53.6274 30.5 47 30.5C40.3726 30.5 35 35.8726 35 42.5C35 49.1274 40.3726 54.5 47 54.5Z" fill="#21C68B"/>
<path d="M47 56C39.6 56 33.5 49.9 33.5 42.5C33.5 35.1 39.6 29 47 29C54.4 29 60.5 35.1 60.5 42.5C60.5 49.9 54.4 56 47 56ZM47 32C41.2 32 36.5 36.7 36.5 42.5C36.5 48.3 41.2 53 47 53C52.8 53 57.5 48.3 57.5 42.5C57.5 36.7 52.8 32 47 32Z" fill="#231F20"/>
<path d="M47 44C46.2 44 45.5 43.3 45.5 42.5V37.5C45.5 36.7 46.2 36 47 36C47.8 36 48.5 36.7 48.5 37.5V42.5C48.5 43.3 47.8 44 47 44Z" fill="white"/>
<path d="M47 49C47.8284 49 48.5 48.3284 48.5 47.5C48.5 46.6716 47.8284 46 47 46C46.1716 46 45.5 46.6716 45.5 47.5C45.5 48.3284 46.1716 49 47 49Z" fill="white"/>
</g>
<defs>
<clipPath id="clip0">
<rect width="56.5" height="48" fill="white" transform="translate(4 8)"/>
</clipPath>
</defs>
</svg>
