<svg width="64" height="64" viewBox="0 0 64 64" fill="none" xmlns="http://www.w3.org/2000/svg">
<g clip-path="url(#clip0)">
<path d="M53.5 57.5H21.5C17.1 57.5 13.5 53.9 13.5 49.5V29.5C13.5 25.1 17.1 21.5 21.5 21.5H53.5C57.9 21.5 61.5 25.1 61.5 29.5V49.5C61.5 53.9 57.9 57.5 53.5 57.5Z" fill="#BEDCE3"/>
<path d="M49.5 51.5H17.5C13.1 51.5 9.5 47.9 9.5 43.5V23.5C9.5 19.1 13.1 15.5 17.5 15.5H49.5C53.9 15.5 57.5 19.1 57.5 23.5V43.5C57.5 47.9 53.9 51.5 49.5 51.5Z" fill="white"/>
<path d="M49.5 53H17.5C12.26 53 8 48.74 8 43.5V23.5C8 18.26 12.26 14 17.5 14H49.5C54.74 14 59 18.26 59 23.5V43.5C59 48.74 54.74 53 49.5 53ZM17.5 17C13.92 17 11 19.92 11 23.5V43.5C11 47.08 13.92 50 17.5 50H49.5C53.08 50 56 47.08 56 43.5V23.5C56 19.92 53.08 17 49.5 17H17.5Z" fill="#231F20"/>
<path d="M43.5 45.5H11.5C7.1 45.5 3.5 41.9 3.5 37.5V17.5C3.5 13.1 7.1 9.5 11.5 9.5H43.5C47.9 9.5 51.5 13.1 51.5 17.5V37.5C51.5 41.9 47.9 45.5 43.5 45.5Z" fill="white"/>
<path d="M43.5 47H11.5C6.26 47 2 42.74 2 37.5V19.5C2 18.67 2.67 18 3.5 18C4.33 18 5 18.67 5 19.5V37.5C5 41.08 7.92 44 11.5 44H43.5C47.08 44 50 41.08 50 37.5V17.5C50 13.92 47.08 11 43.5 11H13.5C12.67 11 12 10.33 12 9.5C12 8.67 12.67 8 13.5 8H43.5C48.74 8 53 12.26 53 17.5V37.5C53 42.74 48.74 47 43.5 47Z" fill="#231F20"/>
<path d="M17.89 28.5H12.5C11.4 28.5 10.5 27.6 10.5 26.5V18.5C10.5 17.4 11.4 16.5 12.5 16.5H17.89V28.5Z" fill="#F2C94C"/>
<path d="M26.5101 25H19.1201V28.5H24.5101C25.6101 28.5 26.5101 27.6 26.5101 26.5V25Z" fill="#F2C94C"/>
<path d="M26.5101 20.75H19.1201V24.25H26.5101V20.75Z" fill="#F2C94C"/>
<path d="M26.5101 20H19.1201V16.5H24.5101C25.6101 16.5 26.5101 17.4 26.5101 18.5V20Z" fill="#F2C94C"/>
</g>
<defs>
<clipPath id="clip0">
<rect width="59.5" height="49.5" fill="white" transform="translate(2 8)"/>
</clipPath>
</defs>
</svg>
