<svg width="48" height="48" viewBox="0 0 48 48" fill="none" xmlns="http://www.w3.org/2000/svg">
<path fill-rule="evenodd" clip-rule="evenodd" d="M7 16.5V31.75C7 33.5554 8.28739 35.0641 10 35.4203V39.75C10 41.82 11.6924 43.5 13.7778 43.5H42.4889C43.32 43.5 44 42.825 44 42V35.5H44.651C45.4004 35.5 46 34.913 46 34.1957V28.8043C46 28.087 45.4004 27.5 44.651 27.5H44V22C44 21.175 43.32 20.5 42.4889 20.5H41V14C41 13.175 40.32 12.5 39.4889 12.5H10.7778C8.69244 12.5 7 14.5 7 16.5Z" fill="#BEDCE3"/>
<path d="M13.125 8.625H10.2225C8.10003 8.625 6.37503 10.35 6.37503 12.4725V20.8875H37.29V10.125C37.29 9.3 36.615 8.625 35.79 8.625H21.375" fill="white"/>
<path fill-rule="evenodd" clip-rule="evenodd" d="M5 12.4725C5 9.72868 7.47871 7.5 10.2225 7.5H13.125C13.7463 7.5 14.25 7.87868 14.25 8.5C14.25 9.12132 13.7463 9.5 13.125 9.5H10.2225C8.72135 9.5 7.00003 10.9713 7.00003 12.4725V19.7625H36V9.875C36 9.67132 35.8287 9.5 35.625 9.5H21.375C20.7537 9.5 20.25 9.12132 20.25 8.5C20.25 7.87868 20.7537 7.5 21.375 7.5C26.25 7.5 31.125 7.49999 36 7.5C37.1046 7.5 38 8.39543 38 9.5V22.0125H5V12.4725Z" fill="#231F20"/>
<path d="M6.00003 14V36.5C6.00003 39 7.50003 40.5 10.0847 40.5H38.5C39.325 40.5 40 39.825 40 39V18C40 17 39.5 16.5 38.5 16.5H10C8.00003 16.5 7.00003 15.5 6.00003 14Z" fill="white"/>
<path fill-rule="evenodd" clip-rule="evenodd" d="M5 35.8125V13.125H7C7 14.5737 8.55132 15.5 10 15.5H38.625C40.0713 15.5 41 16.4287 41 17.875V37.875C41 39.3213 40.0713 40.5 38.625 40.5H9.875C7.18368 40.5 5 38.5038 5 35.8125ZM7 16.2147V35.875C7 37.3237 8.42632 38.5 9.875 38.5H38.625C38.8287 38.5 39 38.3287 39 38.125V17.875C39 17.6713 38.8287 17.5 38.625 17.5H9.875C8.9087 17.5 7.5 17 7 16.2147Z" fill="#231F20"/>
<path d="M40.651 31.5H32.137C29.8512 31.5 28 29.7101 28 27.5C28 25.2899 29.8512 23.5 32.137 23.5H40.651C41.4004 23.5 42 24.087 42 24.8043V30.1957C42 30.913 41.4004 31.5 40.651 31.5Z" fill="white"/>
<path fill-rule="evenodd" clip-rule="evenodd" d="M32 24.5C30.3338 24.5 29 25.8338 29 27.5C29 29.1662 30.3338 30.5 32 30.5H40.775C40.8996 30.5 41 30.4003 41 30.275V24.725C41 24.5997 40.8996 24.5 40.775 24.5H32ZM27 27.5C27 24.5912 29.0912 22.47 32 22.47H41C42.1046 22.47 43 23.3654 43 24.47C43 26.3611 43 28.6089 43 30.5C43 31.6046 42.1046 32.5 41 32.5C38 32.5 35 32.5 32 32.5C29.0912 32.5 27 30.4088 27 27.5Z" fill="#231F20"/>
<path d="M12.375 12.495H31.875C32.7 12.495 33.375 13.17 33.375 13.995V16.875H10.875V13.995C10.875 13.1625 11.55 12.495 12.375 12.495Z" fill="#21C68B"/>
<path fill-rule="evenodd" clip-rule="evenodd" d="M12.375 13.5C12.1677 13.5 12 13.6675 12 13.875V15.5H32V13.875C32 13.6713 31.8287 13.5 31.625 13.5H12.375ZM10 13.995C10 12.5375 10.9324 11.5 12.375 11.5H31.375C32.8214 11.5 34 12.5487 34 13.995V17.5H10V13.995Z" fill="#231F20"/>
<path d="M32.0025 29.5C33.1084 29.5 34.005 28.6046 34.005 27.5C34.005 26.3954 33.1084 25.5 32.0025 25.5C30.8965 25.5 30 26.3954 30 27.5C30 28.6046 30.8965 29.5 32.0025 29.5Z" fill="#91B1B8"/>
</svg>
