<svg width="48" height="48" viewBox="0 0 48 48" fill="none" xmlns="http://www.w3.org/2000/svg">
    <path d="M38.2 46H17.8C15.8 46 14.2 44.4 14.2 42.4V13.6C14.2 11.6 15.8 10 17.8 10H38.2999C40.2999 10 41.9 11.6 41.9 13.6V42.3C41.9 44.4 40.3 46 38.2 46Z"
          fill="#BEDCE3"/>
    <path d="M34.1 42H13.6C11.6 42 10 40.4 10 38.4V9.6C10 7.6 11.6 6 13.6 6H34.1C36.1 6 37.7 7.6 37.7 9.6V38.3C37.8 40.4 36.1 42 34.1 42Z"
          fill="white"/>
    <path fill-rule="evenodd" clip-rule="evenodd"
          d="M14.7 6C14.7 5.44772 15.1477 5 15.7 5H34.1C36.6523 5 38.7 7.04771 38.7 9.6V38.3C38.7 40.8523 36.6523 42.9 34.1 42.9H13.6C11.0477 42.9 9 40.8523 9 38.3V11.7C9 11.1477 9.44772 10.7 10 10.7C10.5523 10.7 11 11.1477 11 11.7V38.3C11 39.7477 12.1523 40.9 13.6 40.9H34.1C35.5477 40.9 36.7 39.7477 36.7 38.3V9.6C36.7 8.15228 35.5477 7 34.1 7H15.7C15.1477 7 14.7 6.55228 14.7 6Z"
          fill="#231F20"/>
    <path fill-rule="evenodd" clip-rule="evenodd"
          d="M15.7 12.4C15.7 11.8477 16.1477 11.4 16.7 11.4H31C31.5522 11.4 32 11.8477 32 12.4C32 12.9523 31.5522 13.4 31 13.4H16.7C16.1477 13.4 15.7 12.9523 15.7 12.4Z"
          fill="#BEDCE3"/>
    <path fill-rule="evenodd" clip-rule="evenodd"
          d="M15.7 18.1C15.7 17.5477 16.1477 17.1 16.7 17.1H28.4C28.9522 17.1 29.4 17.5477 29.4 18.1C29.4 18.6523 28.9522 19.1 28.4 19.1H16.7C16.1477 19.1 15.7 18.6523 15.7 18.1Z"
          fill="#BEDCE3"/>
    <path fill-rule="evenodd" clip-rule="evenodd"
          d="M15.7 23.8C15.7 23.2477 16.1477 22.8 16.7 22.8H31C31.5522 22.8 32 23.2477 32 23.8C32 24.3523 31.5522 24.8 31 24.8H16.7C16.1477 24.8 15.7 24.3523 15.7 23.8Z"
          fill="#BEDCE3"/>
    <path fill-rule="evenodd" clip-rule="evenodd"
          d="M15.7 29.6C15.7 29.0477 16.1477 28.6 16.7 28.6H24.6C25.1522 28.6 25.6 29.0477 25.6 29.6C25.6 30.1523 25.1522 30.6 24.6 30.6H16.7C16.1477 30.6 15.7 30.1523 15.7 29.6Z"
          fill="#BEDCE3"/>
    <path fill-rule="evenodd" clip-rule="evenodd"
          d="M15.7 35.3C15.7 34.7477 16.1477 34.3 16.7 34.3H24.6C25.1522 34.3 25.6 34.7477 25.6 35.3C25.6 35.8523 25.1522 36.3 24.6 36.3H16.7C16.1477 36.3 15.7 35.8523 15.7 35.3Z"
          fill="#BEDCE3"/>
    <path d="M30.5999 36.6C32.0911 36.6 33.2999 35.3912 33.2999 33.9C33.2999 32.4088 32.0911 31.2 30.5999 31.2C29.1087 31.2 27.8999 32.4088 27.8999 33.9C27.8999 35.3912 29.1087 36.6 30.5999 36.6Z"
          fill="#F2C94C"/>
    <path d="M30.5999 33.9C32.0911 33.9 33.2999 32.6912 33.2999 31.2C33.2999 29.7088 32.0911 28.5 30.5999 28.5C29.1087 28.5 27.8999 29.7088 27.8999 31.2C27.8999 32.6912 29.1087 33.9 30.5999 33.9Z"
          fill="#F2C94C"/>
</svg>
