<svg width="64" height="64" viewBox="0 0 64 64" fill="none" xmlns="http://www.w3.org/2000/svg">
<g clip-path="url(#clip0)">
<path d="M35 62.5C49.6355 62.5 61.5 50.6355 61.5 36C61.5 21.3645 49.6355 9.5 35 9.5C20.3645 9.5 8.5 21.3645 8.5 36C8.5 50.6355 20.3645 62.5 35 62.5Z" fill="#BEDCE3"/>
<path d="M31 56.5C45.6355 56.5 57.5 44.6355 57.5 30C57.5 15.3645 45.6355 3.5 31 3.5C16.3645 3.5 4.5 15.3645 4.5 30C4.5 44.6355 16.3645 56.5 31 56.5Z" fill="white"/>
<path d="M31 58C15.56 58 3 45.44 3 30C3 23.54 5.25 17.23 9.35 12.24C9.87 11.6 10.82 11.51 11.46 12.03C12.1 12.56 12.19 13.5 11.67 14.14C8.01 18.6 6 24.23 6 30C6 43.79 17.21 55 31 55C44.79 55 56 43.79 56 30C56 16.21 44.79 5 31 5C30.17 5 29.5 4.33 29.5 3.5C29.5 2.67 30.17 2 31 2C46.44 2 59 14.56 59 30C59 45.44 46.44 58 31 58Z" fill="#231F20"/>
<path d="M32 32.5C31.17 32.5 30.5 31.83 30.5 31V12C30.5 11.17 31.17 10.5 32 10.5C32.83 10.5 33.5 11.17 33.5 12V31C33.5 31.83 32.83 32.5 32 32.5Z" fill="#F05023"/>
<path d="M32.0001 32.5001C31.6401 32.5001 31.2801 32.3701 30.9901 32.1101L19.9901 22.1101C19.3801 21.5501 19.3301 20.6001 19.8901 19.9901C20.4501 19.3801 21.4001 19.3301 22.0101 19.8901L33.0101 29.8901C33.6201 30.4501 33.6701 31.4001 33.1101 32.0101C32.8101 32.3301 32.4101 32.5001 32.0001 32.5001Z" fill="#F05023"/>
</g>
<defs>
<clipPath id="clip0">
<rect width="58.5" height="60.5" fill="white" transform="translate(3 2)"/>
</clipPath>
</defs>
</svg>
