<svg width="48" height="48" viewBox="0 0 48 48" fill="none" xmlns="http://www.w3.org/2000/svg">
<path d="M15.84 41.9998C15.8219 41.9999 15.8038 42 15.7857 42C12.0381 42 9 38.8909 9 35.0556C9 31.2207 12.0373 28.1119 15.7843 28.1111C17.1813 24.8048 20.3056 22.4063 24.0264 22.0468C25.8076 19.0225 29.048 17 32.75 17C38.3715 17 42.9286 21.6637 42.9286 27.4167C42.9286 27.8366 42.9043 28.2508 42.8571 28.6577C45.2918 29.7123 47 32.1799 47 35.0558C47 38.8911 43.9619 42.0002 40.2143 42.0002C40.1887 42.0002 40.1631 42.0001 40.1376 41.9998H25.0666C25.0444 41.9999 25.0222 42 25 42C24.9778 42 24.9556 41.9999 24.9334 41.9998H15.84Z" fill="#BEDCE3"/>
<path d="M11.84 37.9998C11.8219 37.9999 11.8038 38 11.7857 38C8.03807 38 5 34.8909 5 31.0556C5 27.2207 8.03733 24.1119 11.7843 24.1111C13.1813 20.8048 16.3056 18.4063 20.0264 18.0468C21.8076 15.0225 25.048 13 28.75 13C34.3715 13 38.9286 17.6637 38.9286 23.4167C38.9286 23.8366 38.9043 24.2508 38.8571 24.6577C41.2918 25.7123 43 28.1799 43 31.0558C43 34.8911 39.9619 38.0002 36.2143 38.0002C36.1887 38.0002 36.1631 38.0001 36.1376 37.9998H21.0666C21.0444 37.9999 21.0222 38 21 38C20.9778 38 20.9556 37.9999 20.9334 37.9998H11.84Z" fill="white"/>
<path d="M24.88 33.9998C24.8724 33.9999 24.8648 33.9999 24.8571 33.9999C23.2792 33.9999 22 32.7563 22 31.2222C22 29.6882 23.2789 28.4447 24.8566 28.4444C25.4448 27.1219 26.7603 26.1625 28.3269 26.0187C29.0769 24.809 30.4413 24 32 24C34.3669 24 36.2857 25.8655 36.2857 28.1666C36.2857 28.3346 36.2755 28.5003 36.2556 28.663C37.2808 29.0849 38 30.0719 38 31.2222C38 32.7564 36.7208 34 35.1429 34C35.1321 34 35.1213 33.9999 35.1105 33.9998H28.7649C28.7556 33.9999 28.7462 33.9999 28.7368 33.9999C28.7275 33.9999 28.7181 33.9999 28.7088 33.9998H24.88Z" fill="#BEDCE3"/>
<path fill-rule="evenodd" clip-rule="evenodd" d="M28.75 14C25.4241 14 22.5009 15.8159 20.888 18.5543C20.6077 19.0302 19.9947 19.1887 19.5188 18.9084C19.043 18.6282 18.8844 18.0152 19.1647 17.5393C21.1143 14.2292 24.672 12 28.75 12C34.9454 12 39.9286 17.1333 39.9286 23.4167C39.9286 23.6333 39.9227 23.8485 39.911 24.0623C42.3518 25.4081 44 28.0406 44 31.0558C44 35.4214 40.5359 39.0002 36.2143 39.0002C36.1869 39.0002 36.1595 39.0001 36.1321 38.9998H21.0666L21.0033 39H20.9967L20.9334 38.9998H11.84L11.7897 39L11.7857 39C7.46411 39 4 35.4212 4 31.0556C4 26.6904 7.46326 23.112 11.7841 23.1111C12.3364 23.111 12.7842 23.5586 12.7843 24.1109C12.7845 24.6632 12.3368 25.111 11.7845 25.1111C8.61139 25.1118 6 27.751 6 31.0556C6 34.3598 8.61092 36.9989 11.7837 37C11.7844 37 11.785 37 11.7857 37L11.84 36.9998L20.9366 36.9998L20.9967 37H21.0033L21.0666 36.9998L36.1489 36.9998C36.1707 37 36.1924 37.0002 36.2143 37.0002C39.388 37.0002 42 34.3607 42 31.0558C42 28.5822 40.532 26.4729 38.4596 25.5753C38.055 25.4001 37.8129 24.9805 37.8637 24.5425C37.9065 24.1737 37.9286 23.798 37.9286 23.4167C37.9286 18.1941 33.7975 14 28.75 14Z" fill="#231F20"/>
</svg>
