<svg width="64" height="64" viewBox="0 0 64 64" fill="none" xmlns="http://www.w3.org/2000/svg">
<g clip-path="url(#clip0)">
<path d="M54.5 55.5H15.5C11.1 55.5 7.5 51.9 7.5 47.5V24.5C7.5 20.1 11.1 16.5 15.5 16.5H54.5C58.9 16.5 62.5 20.1 62.5 24.5V47.5C62.5 51.9 58.9 55.5 54.5 55.5Z" fill="#BEDCE3"/>
<path d="M50.5 49.5H11.5C7.1 49.5 3.5 45.9 3.5 41.5V18.5C3.5 14.1 7.1 10.5 11.5 10.5H50.5C54.9 10.5 58.5 14.1 58.5 18.5V41.5C58.5 45.9 54.9 49.5 50.5 49.5Z" fill="white"/>
<path d="M50.78 51H11.22C6.14 51 2 46.74 2 41.5V22.5C2 21.67 2.67 21 3.5 21C4.33 21 5 21.67 5 22.5V41.5C5 45.08 7.79 48 11.22 48H50.78C54.21 48 57 45.08 57 41.5V18.5C57 14.92 54.21 12 50.78 12H13.15C12.32 12 11.65 11.33 11.65 10.5C11.65 9.67 12.32 9 13.15 9H50.78C55.86 9 60 13.26 60 18.5V41.5C60 46.74 55.86 51 50.78 51Z" fill="#231F20"/>
<path d="M49.5 43C48.67 43 48 42.33 48 41.5V18.5C48 17.67 48.67 17 49.5 17C50.33 17 51 17.67 51 18.5V41.5C51 42.33 50.33 43 49.5 43Z" fill="#231F20"/>
<path d="M43.5 43C42.67 43 42 42.33 42 41.5V18.5C42 17.67 42.67 17 43.5 17C44.33 17 45 17.67 45 18.5V41.5C45 42.33 44.33 43 43.5 43Z" fill="#231F20"/>
<path d="M36.5 43C35.67 43 35 42.33 35 41.5V18.5C35 17.67 35.67 17 36.5 17C37.33 17 38 17.67 38 18.5V41.5C38 42.33 37.33 43 36.5 43Z" fill="#231F20"/>
<path d="M25.5 43C24.67 43 24 42.33 24 41.5V18.5C24 17.67 24.67 17 25.5 17C26.33 17 27 17.67 27 18.5V41.5C27 42.33 26.33 43 25.5 43Z" fill="#231F20"/>
<path d="M32.5 43C31.67 43 31 42.33 31 41.5V18.5C31 17.67 31.67 17 32.5 17C33.33 17 34 17.67 34 18.5V41.5C34 42.33 33.33 43 32.5 43Z" fill="#231F20"/>
<path d="M18.5 43C17.67 43 17 42.33 17 41.5V18.5C17 17.67 17.67 17 18.5 17C19.33 17 20 17.67 20 18.5V41.5C20 42.33 19.33 43 18.5 43Z" fill="#231F20"/>
<path d="M12.5 43C11.67 43 11 42.33 11 41.5V18.5C11 17.67 11.67 17 12.5 17C13.33 17 14 17.67 14 18.5V41.5C14 42.33 13.33 43 12.5 43Z" fill="#231F20"/>
</g>
<defs>
<clipPath id="clip0">
<rect width="60.5" height="46.5" fill="white" transform="translate(2 9)"/>
</clipPath>
</defs>
</svg>
