<svg width="48" height="48" viewBox="0 0 48 48" fill="none" xmlns="http://www.w3.org/2000/svg">
    <path d="M40.7636 40H15.2364C12.3564 40 10 37.6923 10 34.8718V20.1282C10 17.3077 12.3564 15 15.2364 15H40.7636C43.6436 15 46 17.3077 46 20.1282V34.8718C46 37.6923 43.6436 40 40.7636 40Z" fill="#BEDCE3"/>
    <path d="M36.7636 36H11.2364C8.35636 36 6 33.6923 6 30.8718V16.1282C6 13.3077 8.35636 11 11.2364 11H36.7636C39.6436 11 42 13.3077 42 16.1282V30.8718C42 33.6923 39.6436 36 36.7636 36Z" fill="white"/>
    <path d="M36.9593 37H11.0407C7.71241 37 5 34.2614 5 30.8929V18.6786C5 18.145 5.43897 17.7143 5.98276 17.7143C6.52655 17.7143 6.96552 18.145 6.96552 18.6786V30.8929C6.96552 33.1943 8.79345 35.0714 11.0407 35.0714H36.9593C39.2066 35.0714 41.0345 33.1943 41.0345 30.8929V16.1071C41.0345 13.8057 39.2066 11.9286 36.9593 11.9286H12.3052C11.7614 11.9286 11.3224 11.4979 11.3224 10.9643C11.3224 10.4307 11.7614 10 12.3052 10H36.9593C40.2876 10 43 12.7386 43 16.1071V30.8929C43 34.2614 40.2876 37 36.9593 37Z" fill="#231F20"/>
    <path d="M36.1205 31.8571C35.5767 31.8571 35.1377 31.4264 35.1377 30.8929V16.1071C35.1377 15.5736 35.5767 15.1429 36.1205 15.1429C36.6642 15.1429 37.1032 15.5736 37.1032 16.1071V30.8929C37.1032 31.4264 36.6642 31.8571 36.1205 31.8571Z" fill="#231F20"/>
    <path d="M32.1898 31.8571C31.646 31.8571 31.207 31.4264 31.207 30.8929V16.1071C31.207 15.5736 31.646 15.1429 32.1898 15.1429C32.7336 15.1429 33.1726 15.5736 33.1726 16.1071V30.8929C33.1726 31.4264 32.7336 31.8571 32.1898 31.8571Z" fill="#231F20"/>
    <path d="M27.6039 31.8571C27.0601 31.8571 26.6211 31.4264 26.6211 30.8929V16.1071C26.6211 15.5736 27.0601 15.1429 27.6039 15.1429C28.1476 15.1429 28.5866 15.5736 28.5866 16.1071V30.8929C28.5866 31.4264 28.1476 31.8571 27.6039 31.8571Z" fill="#231F20"/>
    <path d="M20.3963 31.8571C19.8525 31.8571 19.4136 31.4264 19.4136 30.8929V16.1071C19.4136 15.5736 19.8525 15.1429 20.3963 15.1429C20.9401 15.1429 21.3791 15.5736 21.3791 16.1071V30.8929C21.3791 31.4264 20.9401 31.8571 20.3963 31.8571Z" fill="#231F20"/>
    <path d="M24.9828 31.8571C24.439 31.8571 24 31.4264 24 30.8929V16.1071C24 15.5736 24.439 15.1429 24.9828 15.1429C25.5266 15.1429 25.9655 15.5736 25.9655 16.1071V30.8929C25.9655 31.4264 25.5266 31.8571 24.9828 31.8571Z" fill="#231F20"/>
    <path d="M15.8104 31.8571C15.2666 31.8571 14.8276 31.4264 14.8276 30.8929V16.1071C14.8276 15.5736 15.2666 15.1429 15.8104 15.1429C16.3542 15.1429 16.7932 15.5736 16.7932 16.1071V30.8929C16.7932 31.4264 16.3542 31.8571 15.8104 31.8571Z" fill="#231F20"/>
    <path d="M11.8792 31.8571C11.3354 31.8571 10.8965 31.4264 10.8965 30.8929V16.1071C10.8965 15.5736 11.3354 15.1429 11.8792 15.1429C12.423 15.1429 12.862 15.5736 12.862 16.1071V30.8929C12.862 31.4264 12.423 31.8571 11.8792 31.8571Z" fill="#231F20"/>
</svg>


