<svg width="48" height="48" viewBox="0 0 48 48" fill="none" xmlns="http://www.w3.org/2000/svg">
    <path d="M46 11.4598V21.5402C46 22.8046 44.9767 23.8276 43.712 23.8276H24.3851C23.1204 23.8276 22.0971 22.8046 22.0971 21.5402V10.2874C22.0971 9.02299 23.1204 8 24.3851 8H43.712C44.9767 8 46 9.02299 46 10.2874V11.4598Z"
          fill="#BEDCE3"/>
    <path d="M42.9992 8.45977V18.5402C42.9992 19.8046 41.9759 20.8276 40.7112 20.8276H21.3843C20.1196 20.8276 19.0963 19.8046 19.0963 18.5402V7.28735C19.0963 6.02299 20.1196 5 21.3843 5H40.7112C41.9759 5 42.9992 6.02299 42.9992 7.28735V8.45977Z"
          fill="white"/>
    <path d="M43.0106 11.7931V8.45981L19.5676 8.45981V11.7931L43.0106 11.7931Z" fill="#BEDCE3"/>
    <path fill-rule="evenodd" clip-rule="evenodd"
          d="M21.3843 6C20.672 6 20.0966 6.57527 20.0966 7.28735V18.5402C20.0966 19.2523 20.672 19.8276 21.3843 19.8276H40.7112C41.4235 19.8276 41.9989 19.2523 41.9989 18.5402V8.45977C41.9989 7.90748 42.4468 7.45977 42.9992 7.45977C43.5516 7.45977 43.9995 7.90748 43.9995 8.45977V18.5402C43.9995 20.3569 42.5284 21.8276 40.7112 21.8276H21.3843C19.5672 21.8276 18.0961 20.3569 18.0961 18.5402V7.28735C18.0961 5.4707 19.5672 4 21.3843 4H39.3316C39.884 4 40.3318 4.44772 40.3318 5C40.3318 5.55228 39.884 6 39.3316 6H21.3843Z"
          fill="#231F20"/>
    <path fill-rule="evenodd" clip-rule="evenodd"
          d="M36.894 17.7114C36.6269 17.8657 36.3169 17.954 35.9863 17.954C34.983 17.954 34.1697 17.1409 34.1697 16.1379C34.1697 15.1349 34.983 14.3218 35.9863 14.3218C36.3169 14.3218 36.6269 14.4101 36.894 14.5644C37.161 14.4101 37.471 14.3218 37.8017 14.3218C38.8049 14.3218 39.6182 15.1349 39.6182 16.1379C39.6182 17.1409 38.8049 17.954 37.8017 17.954C37.471 17.954 37.161 17.8657 36.894 17.7114Z"
          fill="#F2C94C"/>
    <path d="M6.3255 22.6487V42.7568C6.3255 44.547 7.78962 46 9.59363 46H34.4314C35.1504 46 35.7387 45.4162 35.7387 44.7027V27.1892C35.7387 26.4757 35.1504 25.8919 34.4314 25.8919H9.59363C7.78962 25.8919 6.3255 24.4389 6.3255 22.6487Z"
          fill="#BEDCE3"/>
    <path d="M36.8529 38H29.5533C27.5935 38 26.0063 36.4339 26.0063 34.5C26.0063 32.5661 27.5935 31 29.5533 31H36.8529C37.4955 31 38.0095 31.5136 38.0095 32.1413V36.8587C38.0095 37.4864 37.4955 38 36.8529 38Z"
          fill="#BEDCE3"/>
    <path d="M9.0289 14.973H6.51796C4.6818 14.973 3.18951 16.4649 3.18951 18.3005V25.5784H29.9339V16.2703C29.9339 15.5568 29.35 14.973 28.6363 14.973H16.1659"
          fill="white"/>
    <path fill-rule="evenodd" clip-rule="evenodd"
          d="M2 18.3005C2 15.9275 4.14431 14 6.51798 14H9.02891C9.56641 14 10.0021 14.3275 10.0021 14.8649C10.0021 15.4022 9.56641 15.7297 9.02891 15.7297H6.51798C5.21931 15.7297 3.73021 17.0022 3.73021 18.3005V24.6054H28.8179V16.0541C28.8179 15.8779 28.6697 15.7297 28.4935 15.7297H16.1659C15.6284 15.7297 15.1927 15.4022 15.1927 14.8649C15.1927 14.3275 15.6284 14 16.1659 14H28.6363C29.8875 14 30.5481 15.0194 30.5481 16.2703V26.5513H2V18.3005Z"
          fill="#231F20"/>
    <path d="M3.18951 18.8649V38.973C3.18951 40.7632 4.64287 42.2162 6.43362 42.2162H31.0888C31.8025 42.2162 32.3864 41.6324 32.3864 40.9189V23.4054C32.3864 22.6919 31.8025 22.1081 31.0888 22.1081H6.43362C4.64287 22.1081 3.18951 20.6551 3.18951 18.8649Z"
          fill="white"/>
    <path fill-rule="evenodd" clip-rule="evenodd"
          d="M2 39.3513V18.8649H3.73019C3.73019 20.1178 4.96409 21.1351 6.21733 21.1351H31.0888C32.34 21.1351 33.1434 22.1545 33.1434 23.4054V41.1351C33.1434 42.386 32.34 43.4054 31.0888 43.4054H6.21733C3.88909 43.4054 2 41.679 2 39.3513ZM3.73019 21.9853V39.4054C3.73019 40.6583 4.96409 41.6757 6.21733 41.6757H31.0888C31.265 41.6757 31.4132 41.5275 31.4132 41.3513V22.973C31.4132 22.7968 31.265 22.6486 31.0888 22.6486H6.21733C5.38139 22.6486 4.38579 22.4052 3.73019 21.9853Z"
          fill="#231F20"/>
    <path d="M32.8519 35H25.5523C23.5925 35 22.0053 33.4339 22.0053 31.5C22.0053 29.5661 23.5925 28 25.5523 28H32.8519C33.4944 28 34.0085 28.5136 34.0085 29.1413V33.8587C34.0085 34.4864 33.4944 35 32.8519 35Z"
          fill="white"/>
    <path fill-rule="evenodd" clip-rule="evenodd"
          d="M25.692 28.8215C24.2337 28.8215 22.7555 30.0184 22.7555 31.5135C22.7555 33.0085 24.2337 34.2054 25.692 34.2054H33.1489C33.258 34.2054 33.3459 34.1159 33.3459 34.0035V29.0234C33.3459 28.911 33.258 28.8215 33.1489 28.8215H25.692ZM21.0051 31.5135C21.0051 28.9034 23.1461 27 25.692 27H33.1489C34.3527 27 35.0088 27.9242 35.0088 28.8215V34.2054C35.0088 35.1027 34.3527 36 33.1489 36H25.692C23.1461 36 21.0051 34.1236 21.0051 31.5135Z"
          fill="#231F20"/>
    <path d="M8.38004 18.32H25.2494C25.9631 18.32 26.547 18.9038 26.547 19.6173V22.1081H7.0824V19.6173C7.0824 18.8973 7.66634 18.32 8.38004 18.32Z"
          fill="#21C68B"/>
    <path fill-rule="evenodd" clip-rule="evenodd"
          d="M8.3801 19.1892C8.20072 19.1892 8.05569 19.334 8.05569 19.5135V20.9189H25.3576V19.5135C25.3576 19.3374 25.2094 19.1892 25.0332 19.1892H8.3801ZM6.3255 19.6173C6.3255 18.3568 7.13207 17.4595 8.3801 17.4595H24.8169C26.0681 17.4595 27.0878 18.3664 27.0878 19.6173V22.6487H6.3255V19.6173Z"
          fill="#231F20"/>
    <path d="M25.5063 33C26.3349 33 27.0067 32.3284 27.0067 31.5C27.0067 30.6716 26.3349 30 25.5063 30C24.6776 30 24.0059 30.6716 24.0059 31.5C24.0059 32.3284 24.6776 33 25.5063 33Z"
          fill="#21C68B"/>
</svg>
