<svg width="64" height="64" viewBox="0 0 64 64" fill="none" xmlns="http://www.w3.org/2000/svg">
<g clip-path="url(#clip0)">
<path d="M34.5 55.42C49.964 55.42 62.5 44.9211 62.5 31.97C62.5 19.0189 49.964 8.52002 34.5 8.52002C19.036 8.52002 6.5 19.0189 6.5 31.97C6.5 44.9211 19.036 55.42 34.5 55.42Z" fill="#BEDCE3"/>
<path d="M11.4902 37.5L7.49023 52.5L23.4902 42.5L11.4902 37.5Z" fill="white"/>
<path d="M57.6401 21.1799C53.8301 8.62986 38.6001 1.02986 23.6101 4.21986C8.62009 7.40986 -0.439912 20.1699 3.36009 32.7199C4.65009 36.9599 7.24009 40.6399 10.6901 43.5199L7.49009 56.4999L19.3801 48.4599C24.8601 50.4499 31.1501 50.9999 37.3901 49.6699C52.3801 46.4899 61.4501 33.7299 57.6401 21.1799Z" fill="white"/>
<path d="M7.4901 57.9999C7.1901 57.9999 6.8901 57.9099 6.6301 57.7299C6.1201 57.3799 5.8801 56.7399 6.0301 56.1399L9.0101 44.0499C5.6101 40.9999 3.1701 37.2499 1.9301 33.1599C0.160101 27.3299 0.930101 21.1699 4.1001 15.7999C7.9501 9.28991 14.9501 4.52991 23.3001 2.75991C39.0101 -0.580091 55.0601 7.48991 59.0801 20.7499C61.0901 27.3899 59.8601 34.2599 55.5901 40.0899C55.1001 40.7599 54.1601 40.8999 53.4901 40.4199C52.8201 39.9299 52.6801 38.9899 53.1601 38.3199C56.8501 33.2699 57.9301 27.3399 56.2001 21.6199C52.6201 9.80991 38.1401 2.65991 23.9201 5.68991C16.3901 7.28991 10.1101 11.5299 6.6901 17.3299C3.9501 21.9699 3.2801 27.2799 4.8001 32.2899C5.9601 36.0999 8.3301 39.5899 11.6601 42.3799C12.1001 42.7499 12.2901 43.3299 12.1501 43.8899L9.8801 53.0899L18.5401 47.2399C18.9401 46.9699 19.4401 46.9099 19.8901 47.0699C23.5201 48.3899 27.5101 49.0299 31.4401 48.8999C32.2301 48.8799 32.9601 49.5299 32.9801 50.3499C33.0101 51.1799 32.3501 51.8699 31.5301 51.8899C27.4301 52.0099 23.4101 51.4199 19.5901 50.1299L8.3301 57.7499C8.0801 57.9199 7.7901 57.9999 7.4901 57.9999Z" fill="#231F20"/>
<path d="M30.4902 29.5C32.1471 29.5 33.4902 28.1569 33.4902 26.5C33.4902 24.8431 32.1471 23.5 30.4902 23.5C28.8334 23.5 27.4902 24.8431 27.4902 26.5C27.4902 28.1569 28.8334 29.5 30.4902 29.5Z" fill="#BEDCE3"/>
<path d="M40.4902 29.5C42.1471 29.5 43.4902 28.1569 43.4902 26.5C43.4902 24.8431 42.1471 23.5 40.4902 23.5C38.8334 23.5 37.4902 24.8431 37.4902 26.5C37.4902 28.1569 38.8334 29.5 40.4902 29.5Z" fill="#BEDCE3"/>
<path d="M20.4902 29.5C22.1471 29.5 23.4902 28.1569 23.4902 26.5C23.4902 24.8431 22.1471 23.5 20.4902 23.5C18.8334 23.5 17.4902 24.8431 17.4902 26.5C17.4902 28.1569 18.8334 29.5 20.4902 29.5Z" fill="#BEDCE3"/>
</g>
<path d="M44.5 58.5C51.1274 58.5 56.5 53.1274 56.5 46.5C56.5 39.8726 51.1274 34.5 44.5 34.5C37.8726 34.5 32.5 39.8726 32.5 46.5C32.5 53.1274 37.8726 58.5 44.5 58.5Z" fill="#21C68B"/>
<path d="M44.5 60C37.1 60 31 53.9 31 46.5C31 39.1 37.1 33 44.5 33C51.9 33 58 39.1 58 46.5C58 53.9 51.9 60 44.5 60ZM44.5 36C38.7 36 34 40.7 34 46.5C34 52.3 38.7 57 44.5 57C50.3 57 55 52.3 55 46.5C55 40.7 50.3 36 44.5 36Z" fill="#231F20"/>
<path d="M44.0998 50.6001C43.6998 50.6001 43.2998 50.5001 42.9998 50.2001C42.3998 49.6001 42.3998 48.7001 42.9998 48.1001L48.0998 43C48.6998 42.4 49.5998 42.4 50.1998 43C50.7998 43.6 50.7998 44.5001 50.1998 45.1001L45.0998 50.2001C44.7998 50.4001 44.4998 50.6001 44.0998 50.6001Z" fill="white"/>
<path d="M44.0999 50.6C43.6999 50.6 43.2999 50.5 42.9999 50.2L39.5999 46.8C38.9999 46.2 38.9999 45.3 39.5999 44.7C40.1999 44.1 41.0999 44.1 41.6999 44.7L45.0999 48.1C45.6999 48.7 45.6999 49.6 45.0999 50.2C44.7999 50.4 44.4999 50.6 44.0999 50.6Z" fill="white"/>
<defs>
<clipPath id="clip0">
<rect width="61.5" height="59.47" fill="white" transform="translate(1 2)"/>
</clipPath>
</defs>
</svg>
