<svg width="48" height="48" viewBox="0 0 48 48" fill="none" xmlns="http://www.w3.org/2000/svg">
    <path d="M45.4413 24.3674C42.9927 16.3017 33.2047 11.4173 23.5709 13.4675C13.937 15.5177 8.11434 23.7183 10.5565 31.784C11.3302 34.3269 12.8314 36.5563 14.8304 38.3471C15.0967 38.5856 15.2296 38.9419 15.1683 39.294L14.3747 43.8493C14.2278 44.6924 15.1389 45.3185 15.8733 44.8791L20.4444 42.1439C20.7025 41.9894 21.0158 41.9607 21.3009 42.0567C24.7153 43.2064 28.5859 43.4961 32.427 42.6774C42.0608 40.6337 47.89 32.4331 45.4413 24.3674Z"
          fill="#BEDCE3"/>
    <path d="M41.4413 20.3674C38.9927 12.3017 29.2047 7.41735 19.5709 9.4675C9.93704 11.5177 4.11434 19.7183 6.55653 27.784C7.38559 30.5089 9.05014 32.874 11.2674 34.7249L10 42L16.8523 37.8998C20.3742 39.1787 24.4167 39.5322 28.427 38.6774C38.0608 36.6337 43.89 28.4331 41.4413 20.3674Z"
          fill="white"/>
    <path fill-rule="evenodd" clip-rule="evenodd"
          d="M19.3627 8.4894C29.3746 6.35878 39.763 11.3967 42.3982 20.0769C45.0634 28.856 38.673 37.5256 28.6354 39.6555C24.6082 40.5138 20.5487 40.209 16.9638 38.9984L10.5134 42.8581C10.1778 43.0589 9.75596 43.0457 9.43363 42.8242C9.1113 42.6027 8.94767 42.2137 9.01479 41.8284L10.185 35.1114C8.05314 33.2081 6.43482 30.8197 5.59978 28.075L5.59939 28.0738C4.09115 23.0926 5.51418 18.0842 8.88945 14.3313C9.25877 13.9207 9.89104 13.8872 10.3017 14.2565C10.7123 14.6258 10.7458 15.2581 10.3765 15.6687C7.41311 18.9637 6.23145 23.259 7.51338 27.4935C8.27978 30.0121 9.8237 32.2172 11.9082 33.9573C12.1826 34.1863 12.3138 34.5444 12.2525 34.8966L11.3598 40.021L16.3388 37.0417C16.5969 36.8872 16.9108 36.8572 17.1936 36.9598C20.5435 38.1763 24.3956 38.5142 28.2185 37.6994L28.2194 37.6992C37.4489 35.7412 42.7164 28.0098 40.4844 20.6579C38.2224 13.2068 29.0346 8.47591 19.7789 10.4456C19.2388 10.5606 18.7077 10.2158 18.5927 9.67565C18.4777 9.13546 18.8225 8.60436 19.3627 8.4894Z"
          fill="#231F20"/>
    <path fill-rule="evenodd" clip-rule="evenodd"
          d="M17 18C16.4477 18 16 18.4477 16 19C16 19.5523 16.4477 20 17 20H31C31.5523 20 32 19.5523 32 19C32 18.4477 31.5523 18 31 18H17ZM16 24C16 23.4477 16.4477 23 17 23H31C31.5523 23 32 23.4477 32 24C32 24.5523 31.5523 25 31 25H17C16.4477 25 16 24.5523 16 24ZM16 29C16 28.4477 16.4477 28 17 28H28C28.5523 28 29 28.4477 29 29C29 29.5523 28.5523 30 28 30H17C16.4477 30 16 29.5523 16 29Z"
          fill="#BEDCE3"/>
</svg>
