<svg width="64" height="64" viewBox="0 0 64 64" fill="none" xmlns="http://www.w3.org/2000/svg">
<g clip-path="url(#clip0)">
<path d="M34.5 55.42C49.964 55.42 62.5 44.9211 62.5 31.97C62.5 19.0189 49.964 8.52002 34.5 8.52002C19.036 8.52002 6.5 19.0189 6.5 31.97C6.5 44.9211 19.036 55.42 34.5 55.42Z" fill="#BEDCE3"/>
<path d="M11.4902 37.5L7.49023 52.5L23.4902 42.5L11.4902 37.5Z" fill="white"/>
<path d="M57.6401 21.1799C53.8301 8.62986 38.6001 1.02986 23.6101 4.21986C8.62009 7.40986 -0.439912 20.1699 3.36009 32.7199C4.65009 36.9599 7.24009 40.6399 10.6901 43.5199L7.49009 56.4999L19.3801 48.4599C24.8601 50.4499 31.1501 50.9999 37.3901 49.6699C52.3801 46.4899 61.4501 33.7299 57.6401 21.1799Z" fill="white"/>
<path d="M7.4901 57.9999C7.1901 57.9999 6.8901 57.9099 6.6301 57.7299C6.1201 57.3799 5.8801 56.7399 6.0301 56.1399L9.0101 44.0499C5.6101 40.9999 3.1701 37.2499 1.9301 33.1599C0.160101 27.3299 0.930101 21.1699 4.1001 15.7999C7.9501 9.28991 14.9501 4.52991 23.3001 2.75991C39.0101 -0.580091 55.0601 7.48991 59.0801 20.7499C61.0901 27.3899 59.8601 34.2599 55.5901 40.0899C55.1001 40.7599 54.1601 40.8999 53.4901 40.4199C52.8201 39.9299 52.6801 38.9899 53.1601 38.3199C56.8501 33.2699 57.9301 27.3399 56.2001 21.6199C52.6201 9.80991 38.1401 2.65991 23.9201 5.68991C16.3901 7.28991 10.1101 11.5299 6.6901 17.3299C3.9501 21.9699 3.2801 27.2799 4.8001 32.2899C5.9601 36.0999 8.3301 39.5899 11.6601 42.3799C12.1001 42.7499 12.2901 43.3299 12.1501 43.8899L9.8801 53.0899L18.5401 47.2399C18.9401 46.9699 19.4401 46.9099 19.8901 47.0699C23.5201 48.3899 27.5101 49.0299 31.4401 48.8999C32.2301 48.8799 32.9601 49.5299 32.9801 50.3499C33.0101 51.1799 32.3501 51.8699 31.5301 51.8899C27.4301 52.0099 23.4101 51.4199 19.5901 50.1299L8.3301 57.7499C8.0801 57.9199 7.7901 57.9999 7.4901 57.9999Z" fill="#231F20"/>
<path d="M59.56 53.1401L53.55 59.1501L36.51 42.1001L33.02 32.6001L42.52 36.0901L59.56 53.1401Z" fill="white"/>
<path d="M47.9802 55.07C47.6002 55.07 47.2101 54.92 46.9201 54.63L34.4702 42.18C34.2902 42 34.1602 41.78 34.0902 41.54L31.5902 33.03C31.4402 32.5 31.5802 31.93 31.9702 31.55C32.3602 31.16 32.9302 31.02 33.4502 31.17L41.9601 33.67C42.2001 33.74 42.4201 33.87 42.6001 34.05L55.0501 46.5C55.3302 46.78 55.4902 47.16 55.4902 47.56C55.4902 47.96 55.3302 48.34 55.0501 48.62L49.0402 54.63C48.7502 54.92 48.3601 55.07 47.9802 55.07ZM36.8602 40.33L47.9802 51.45L51.8701 47.56L40.7502 36.44L35.2402 34.82L36.8602 40.33Z" fill="#231F20"/>
<path d="M57.5403 51.1099L59.5603 53.1299C60.6703 54.2399 60.6703 56.0299 59.5603 57.1399L57.5603 59.1399C56.4503 60.2499 54.6603 60.2499 53.5503 59.1399L51.5303 57.1199" fill="#F05023"/>
<path d="M55.5601 61.4701C54.4501 61.4701 53.3401 61.0501 52.5001 60.2001L50.4801 58.1801C49.8901 57.5901 49.8901 56.6401 50.4801 56.0601C51.0701 55.4801 52.0201 55.4701 52.6001 56.0601L54.6201 58.0801C55.1401 58.6001 55.9901 58.6001 56.5101 58.0801L58.5101 56.0801C58.7601 55.8301 58.9001 55.4901 58.9001 55.1401C58.9001 54.7901 58.7601 54.4501 58.5101 54.2001L56.4901 52.1801C55.9001 51.5901 55.9001 50.6401 56.4901 50.0601C57.0801 49.4801 58.0301 49.4701 58.6101 50.0601L60.6301 52.0801C61.4501 52.9001 61.9001 53.9901 61.9001 55.1401C61.9001 56.2901 61.4501 57.3901 60.6301 58.2001L58.6301 60.2001C57.7801 61.0501 56.6701 61.4701 55.5601 61.4701Z" fill="#231F20"/>
<path d="M30.4902 29.5C32.1471 29.5 33.4902 28.1569 33.4902 26.5C33.4902 24.8431 32.1471 23.5 30.4902 23.5C28.8334 23.5 27.4902 24.8431 27.4902 26.5C27.4902 28.1569 28.8334 29.5 30.4902 29.5Z" fill="#BEDCE3"/>
<path d="M40.4902 29.5C42.1471 29.5 43.4902 28.1569 43.4902 26.5C43.4902 24.8431 42.1471 23.5 40.4902 23.5C38.8334 23.5 37.4902 24.8431 37.4902 26.5C37.4902 28.1569 38.8334 29.5 40.4902 29.5Z" fill="#BEDCE3"/>
<path d="M20.4902 29.5C22.1471 29.5 23.4902 28.1569 23.4902 26.5C23.4902 24.8431 22.1471 23.5 20.4902 23.5C18.8334 23.5 17.4902 24.8431 17.4902 26.5C17.4902 28.1569 18.8334 29.5 20.4902 29.5Z" fill="#BEDCE3"/>
</g>
<defs>
<clipPath id="clip0">
<rect width="61.5" height="59.47" fill="white" transform="translate(1 2)"/>
</clipPath>
</defs>
</svg>
