<svg width="48" height="48" viewBox="0 0 48 48" fill="none" xmlns="http://www.w3.org/2000/svg">
    <g clip-path="url(#clip0_2053_13)">
        <path d="M28.7007 14.6903C29.0567 14.3343 29.6337 14.3343 29.9896 14.6903L39.8714 24.572C40.2273 24.9279 40.2273 25.505 39.8714 25.8609L29.3452 36.3871C26.2605 39.4717 21.2592 39.4717 18.1746 36.3871C15.0899 33.3024 15.0899 28.3011 18.1746 25.2164L28.7007 14.6903Z"
              fill="#BEDCE3"/>
        <path d="M37.1646 9.57755C37.7816 8.96062 38.7818 8.96062 39.3987 9.57756L44.9841 15.1629C45.601 15.7798 45.601 16.7801 44.9841 17.397L38.1632 24.2178L30.3438 16.3984L37.1646 9.57755Z"
              fill="#BEDCE3"/>
        <path d="M26.2271 12.4596C26.583 12.1036 27.1601 12.1036 27.516 12.4596L37.3977 22.3413C37.7537 22.6972 37.7537 23.2743 37.3977 23.6302L26.8716 34.1563C23.7869 37.241 18.7856 37.241 15.701 34.1563C12.6163 31.0717 12.6163 26.0704 15.701 22.9857L26.2271 12.4596Z"
              fill="#21C68B"/>
        <path d="M34.3939 7.64399C35.1749 6.86295 36.4412 6.86295 37.2223 7.644L42.2133 12.635C42.9943 13.4161 42.9943 14.6824 42.2133 15.4634L36.3554 21.3214L28.5359 13.5019L34.3939 7.64399Z"
              fill="white"/>
        <rect x="35.2495" y="9.02244" width="2.36965" height="3.15953" rx="1" transform="rotate(45 35.2495 9.02244)"
              fill="#231F20"/>
        <path d="M38.4522 13.6393C38.8427 13.2487 39.4759 13.2487 39.8664 13.6393L40.1278 13.9006C40.5183 14.2912 40.5183 14.9243 40.1278 15.3149L39.3078 16.1348C38.9173 16.5253 38.2842 16.5253 37.8936 16.1348L37.6323 15.8734C37.2417 15.4829 37.2417 14.8497 37.6323 14.4592L38.4522 13.6393Z"
              fill="#231F20"/>
        <path fill-rule="evenodd" clip-rule="evenodd"
              d="M26.9581 13.0192C26.9106 12.9718 26.8337 12.9718 26.7863 13.0192L16.26 23.5445C15.9515 23.8529 15.4514 23.8529 15.1429 23.5444C14.8345 23.2359 14.8345 22.7358 15.143 22.4273L25.6693 11.9021C26.3337 11.2378 27.4107 11.2378 28.0751 11.9021L37.9563 21.7827C38.6207 22.4471 38.6208 23.5244 37.9563 24.1888L27.4301 34.7151C24.037 38.1081 18.5357 38.1081 15.1427 34.7151C14.0882 33.6606 13.3603 32.4004 12.9612 31.0629C12.8364 30.6449 13.0742 30.2049 13.4922 30.0801C13.9102 29.9554 14.3502 30.1931 14.475 30.6112C14.801 31.7037 15.3952 32.7335 16.2597 33.598C19.0359 36.3741 23.5369 36.3741 26.313 33.598L36.8393 23.0717C36.8867 23.0242 36.8867 22.9473 36.8393 22.8998L26.9581 13.0192Z"
              fill="#231F20"/>
        <path fill-rule="evenodd" clip-rule="evenodd"
              d="M26.8722 13.3576L16.4721 23.7566C16.0465 24.1822 15.3564 24.1822 14.9308 23.7565C14.5052 23.3309 14.5052 22.6408 14.9309 22.2152L25.4572 11.69C26.2387 10.9085 27.5057 10.9085 28.2872 11.69L38.1684 21.5706C38.95 22.3521 38.95 23.6193 38.1685 24.4009L27.6422 34.9272C24.132 38.4374 18.4408 38.4374 14.9305 34.9272C13.84 33.8366 13.0867 32.5327 12.6737 31.1487C12.5016 30.5719 12.8296 29.9648 13.4064 29.7926C13.9832 29.6205 14.5903 29.9486 14.7624 30.5254C15.0746 31.5714 15.6434 32.5574 16.4719 33.3859C19.1308 36.0448 23.4419 36.0448 26.1009 33.3859L36.5009 22.9858L26.8722 13.3576ZM26.7863 13.0192C26.8337 12.9718 26.9106 12.9718 26.9581 13.0192L36.8393 22.8998C36.8867 22.9473 36.8867 23.0242 36.8393 23.0717L26.313 33.598C23.5369 36.3741 19.0359 36.3741 16.2597 33.598C15.3952 32.7335 14.801 31.7037 14.475 30.6112C14.3502 30.1931 13.9102 29.9554 13.4922 30.0801C13.0742 30.2049 12.8364 30.6449 12.9612 31.0629C13.3603 32.4004 14.0882 33.6606 15.1427 34.7151C18.5357 38.1081 24.037 38.1081 27.4301 34.7151L37.9563 24.1888C38.6208 23.5244 38.6207 22.4471 37.9563 21.7827L28.0751 11.9021C27.4107 11.2378 26.3337 11.2378 25.6693 11.9021L15.143 22.4273C14.8345 22.7358 14.8345 23.2359 15.1429 23.5444C15.4514 23.8529 15.9515 23.8529 16.26 23.5445L26.7863 13.0192Z"
              fill="#231F20"/>
        <path fill-rule="evenodd" clip-rule="evenodd"
              d="M34.1325 6.78831C35.0579 5.86291 36.5583 5.86291 37.4837 6.78831L43.069 12.3736C43.9944 13.299 43.9944 14.7994 43.069 15.7248L36.3666 22.4272L27.4301 13.4907L34.1325 6.78831ZM36.3666 7.90538C36.0581 7.59691 35.558 7.59691 35.2495 7.90538L29.6642 13.4907L36.3666 20.1931L41.9519 14.6078C42.2604 14.2993 42.2604 13.7992 41.9519 13.4907L36.3666 7.90538Z"
              fill="#231F20"/>
        <path fill-rule="evenodd" clip-rule="evenodd"
              d="M36.3666 22.8515L27.0058 13.4907L33.9203 6.57618C34.9629 5.53362 36.6532 5.53362 37.6958 6.57618L43.2811 12.1615C44.3237 13.2041 44.3237 14.8944 43.2811 15.9369L36.3666 22.8515ZM43.069 15.7248C43.9944 14.7994 43.9944 13.299 43.069 12.3736L37.4837 6.78831C36.5583 5.86291 35.0579 5.86291 34.1325 6.78831L27.4301 13.4907L36.3666 22.4272L43.069 15.7248ZM36.1545 8.11751C35.9632 7.9262 35.653 7.9262 35.4617 8.11751L30.0885 13.4907L36.3666 19.7688L41.7398 14.3956C41.9311 14.2043 41.9311 13.8941 41.7398 13.7028L36.1545 8.11751ZM35.2495 7.90537C35.558 7.59691 36.0581 7.59691 36.3666 7.90537L41.9519 13.4907C42.2604 13.7992 42.2604 14.2993 41.9519 14.6077L36.3666 20.1931L29.6642 13.4907L35.2495 7.90537Z"
              fill="#231F20"/>
        <path d="M28.7333 25.5922L27.9886 24.8475C27.7838 24.6427 27.4487 24.6427 27.2439 24.8475L26.4992 25.5922C26.2944 25.797 26.2944 26.1321 26.4992 26.3369L25.7545 27.0816L24.6375 25.9645L27.6163 22.9857L27.9886 23.3581C28.1413 23.5107 28.4057 23.4251 28.4355 23.2091L28.6849 21.4702C28.711 21.2952 28.5621 21.1463 28.3871 21.1723L26.6482 21.4218C26.4322 21.4516 26.3466 21.716 26.4992 21.8686L26.8716 22.241L23.8927 25.2198L22.7757 24.1028L23.5465 23.332C24.0193 23.4772 24.5667 23.3394 24.8758 22.8517C25.0992 22.5016 25.1103 22.0436 24.9093 21.6862C24.5146 20.9862 23.5986 20.8968 23.0736 21.4218C22.7571 21.7383 22.6789 22.1889 22.8017 22.5873L22.031 23.3581C21.6214 23.7676 21.6214 24.4379 22.031 24.8475L23.148 25.9645L22.0124 27.1002C21.5246 26.9476 20.966 27.1114 20.6644 27.6066C20.4522 27.9529 20.4447 28.4146 20.6495 28.7684C21.048 29.4572 21.9528 29.5503 22.4815 29.0216C22.798 28.7051 22.8874 28.2508 22.7608 27.8487L23.8965 26.713L25.0135 27.83C25.4231 28.2396 26.0934 28.2396 26.5029 27.83L27.2477 27.0853C27.4524 27.2901 27.7876 27.2901 27.9924 27.0853L28.7371 26.3406C28.9381 26.1321 28.9381 25.797 28.7333 25.5922Z"
              fill="white"/>
        <path fill-rule="evenodd" clip-rule="evenodd"
              d="M15.7894 33.8861C16.1284 34.322 16.0499 34.9503 15.614 35.2894C14.0801 36.4823 13.2855 37.6077 12.4683 38.765C12.1538 39.2103 11.8361 39.6603 11.4716 40.1207C10.8293 40.932 10.0742 41.7099 8.9866 42.382C7.90559 43.0499 6.54188 43.5852 4.70955 43.9778C4.16953 44.0935 3.63794 43.7496 3.52222 43.2095C3.4065 42.6695 3.75047 42.1379 4.29049 42.0222C5.95817 41.6648 7.09446 41.2001 7.93532 40.6805C8.76959 40.1651 9.35828 39.568 9.90348 38.8793C10.1663 38.5473 10.4279 38.1766 10.7087 37.7786C11.5639 36.5666 12.5974 35.1019 14.3861 33.7106C14.822 33.3716 15.4503 33.4501 15.7894 33.8861Z"
              fill="#231F20"/>
    </g>
    <defs>
        <clipPath id="clip0_2053_13">
            <rect width="48" height="48" fill="white"/>
        </clipPath>
    </defs>
</svg>
