<svg width="48" height="48" viewBox="0 0 48 48" fill="none" xmlns="http://www.w3.org/2000/svg">
<path d="M10 16C10 12.6863 12.6863 10 16 10H40C43.3137 10 46 12.6863 46 16V40C46 43.3137 43.3137 46 40 46H16C12.6863 46 10 43.3137 10 40V16Z" fill="#BEDCE3"/>
<path d="M6 12C6 8.68629 8.68629 6 12 6H36C39.3137 6 42 8.68629 42 12V36C42 39.3137 39.3137 42 36 42H12C8.68629 42 6 39.3137 6 36V12Z" fill="#F6E700"/>
<path fill-rule="evenodd" clip-rule="evenodd" d="M12.5 6C12.5 5.44772 12.9477 5 13.5 5H36C39.866 5 43 8.13401 43 12V36C43 39.866 39.866 43 36 43H12C8.13401 43 5 39.866 5 36V14C5 13.4477 5.44772 13 6 13C6.55228 13 7 13.4477 7 14V36C7 38.7614 9.23858 41 12 41H36C38.7614 41 41 38.7614 41 36V12C41 9.23858 38.7614 7 36 7H13.5C12.9477 7 12.5 6.55228 12.5 6Z" fill="#231F20"/>
<rect x="12" y="12" width="4" height="4" fill="#231F20"/>
<rect x="12" y="16" width="4" height="4" fill="#231F20"/>
<rect x="12" y="20" width="4" height="4" fill="#231F20"/>
<rect x="12" y="24" width="4" height="4" fill="#231F20"/>
<rect x="12" y="28" width="4" height="4" fill="#231F20"/>
<rect x="12" y="32" width="4" height="4" fill="#231F20"/>
<rect x="16" y="32" width="4" height="4" fill="#231F20"/>
<rect x="20" y="32" width="4" height="4" fill="#231F20"/>
<rect x="24" y="32" width="4" height="4" fill="#231F20"/>
<rect x="28" y="32" width="4" height="4" fill="#231F20"/>
<rect x="32" y="32" width="4" height="4" fill="#231F20"/>
<rect x="16" y="28" width="4" height="4" fill="#231F20"/>
<rect x="20" y="28" width="4" height="4" fill="#231F20"/>
<rect x="20" y="24" width="4" height="4" fill="#231F20"/>
<rect x="28" y="28" width="4" height="4" fill="#231F20"/>
<rect x="32" y="24" width="4" height="4" fill="#231F20"/>
<rect x="16" y="20" width="4" height="4" fill="#231F20"/>
<path d="M36.7279 11.5858C35.9469 10.8047 34.6806 10.8047 33.8995 11.5858L28.2427 17.2426L25.4142 14.4141C24.6332 13.633 23.3668 13.633 22.5858 14.4141C21.8047 15.1951 21.8047 16.4615 22.5858 17.2425L26.8164 21.4732C26.8204 21.4772 26.8244 21.4813 26.8284 21.4853C27.6095 22.2663 28.8758 22.2663 29.6569 21.4853L36.7279 14.4142C37.509 13.6332 37.509 12.3668 36.7279 11.5858Z" fill="#231F20"/>
</svg>
