<svg width="48" height="48" viewBox="0 0 48 48" fill="none" xmlns="http://www.w3.org/2000/svg">
    <path d="M14 14C14 11.7909 15.7909 10 18 10H31.1716C31.702 10 32.2107 10.2107 32.5858 10.5858L41.4142 19.4142C41.7893 19.7893 42 20.298 42 20.8284V42C42 44.2091 40.2091 46 38 46H18C15.7909 46 14 44.2091 14 42V14Z" fill="#BEDCE3"/>
    <path d="M10 10C10 7.79086 11.7909 6 14 6H27.1716C27.702 6 28.2107 6.21071 28.5858 6.58579L37.4142 15.4142C37.7893 15.7893 38 16.298 38 16.8284V38C38 40.2091 36.2091 42 34 42H14C11.7909 42 10 40.2091 10 38V10Z" fill="white"/>
    <path fill-rule="evenodd" clip-rule="evenodd" d="M15 6C15 5.44772 15.4477 5 16 5H27.1716C27.9672 5 28.7303 5.31607 29.2929 5.87868L38.1213 14.7071C38.6839 15.2697 39 16.0328 39 16.8284V38C39 40.7614 36.7614 43 34 43H14C11.2386 43 9 40.7614 9 38V12.5C9 11.9477 9.44772 11.5 10 11.5C10.5523 11.5 11 11.9477 11 12.5V38C11 39.6569 12.3431 41 14 41H34C35.6569 41 37 39.6569 37 38V16.8284C37 16.5632 36.8946 16.3089 36.7071 16.1213L27.8787 7.29289C27.6911 7.10536 27.4368 7 27.1716 7H16C15.4477 7 15 6.55228 15 6Z" fill="#231F20"/>
    <path fill-rule="evenodd" clip-rule="evenodd" d="M26.5 12V6H28.5V12C28.5 13.6569 29.8431 15 31.5 15H37V17H31.5C28.7386 17 26.5 14.7614 26.5 12Z" fill="#231F20"/>
    <rect x="16" y="29" width="16" height="2" rx="1" fill="#BEDCE3"/>
    <rect x="16" y="24" width="16" height="2" rx="1" fill="#BEDCE3"/>
    <rect x="16" y="19" width="16" height="2" rx="1" fill="#BEDCE3"/>
    <rect x="16" y="14" width="8" height="2" rx="1" fill="#BEDCE3"/>
</svg>

