<svg width="48" height="48" viewBox="0 0 48 48" fill="none" xmlns="http://www.w3.org/2000/svg">
    <path d="M39.0005 47.2222C42.437 47.2222 45.2228 44.4364 45.2228 41C45.2228 37.5636 42.437 34.7778 39.0005 34.7778C35.5641 34.7778 32.7783 37.5636 32.7783 41C32.7783 44.4364 35.5641 47.2222 39.0005 47.2222Z"
          fill="#BEDCE3"/>
    <path d="M14 14C14 11.7909 15.7909 10 18 10H31.1716C31.702 10 32.2107 10.2107 32.5858 10.5858L41.4142 19.4142C41.7893 19.7893 42 20.298 42 20.8284V38L39.9438 42.5236C39.6531 43.1633 39.199 43.715 38.6273 44.1234L36 46H18C15.7909 46 14 44.2091 14 42V14Z"
          fill="#BEDCE3"/>
    <path d="M10 10C10 7.79086 11.7909 6 14 6H27.1716C27.702 6 28.2107 6.21071 28.5858 6.58579L37.4142 15.4142C37.7893 15.7893 38 16.298 38 16.8284V38C38 40.2091 36.2091 42 34 42H14C11.7909 42 10 40.2091 10 38V10Z"
          fill="white"/>
    <path fill-rule="evenodd" clip-rule="evenodd"
          d="M15 6C15 5.44772 15.4477 5 16 5H27.1716C27.9672 5 28.7303 5.31607 29.2929 5.87868L38.1213 14.7071C38.6839 15.2697 39 16.0328 39 16.8284V38C39 40.7614 36.7614 43 34 43H14C11.2386 43 9 40.7614 9 38V12.5C9 11.9477 9.44772 11.5 10 11.5C10.5523 11.5 11 11.9477 11 12.5V38C11 39.6569 12.3431 41 14 41H34C35.6569 41 37 39.6569 37 38V16.8284C37 16.5632 36.8946 16.3089 36.7071 16.1213L27.8787 7.29289C27.6911 7.10536 27.4368 7 27.1716 7H16C15.4477 7 15 6.55228 15 6Z"
          fill="#231F20"/>
    <path fill-rule="evenodd" clip-rule="evenodd"
          d="M26.5 12V6H28.5V12C28.5 13.6569 29.8431 15 31.5 15H37V17H31.5C28.7386 17 26.5 14.7614 26.5 12Z"
          fill="#231F20"/>
    <path fill-rule="evenodd" clip-rule="evenodd"
          d="M17 14C16.4477 14 16 14.4477 16 15C16 15.5523 16.4477 16 17 16H23C23.5523 16 24 15.5523 24 15C24 14.4477 23.5523 14 23 14H17ZM16 20C16 19.4477 16.4477 19 17 19H31C31.5523 19 32 19.4477 32 20C32 20.5523 31.5523 21 31 21H17C16.4477 21 16 20.5523 16 20ZM17 24C16.4477 24 16 24.4477 16 25C16 25.5523 16.4477 26 17 26H31C31.5523 26 32 25.5523 32 25C32 24.4477 31.5523 24 31 24H17ZM17 29C16.4477 29 16 29.4477 16 30C16 30.5523 16.4477 31 17 31H28C28.5523 31 29 30.5523 29 30C29 29.4477 28.5523 29 28 29H17Z"
          fill="#BEDCE3"/>
    <path d="M35.0004 43.2222C38.4368 43.2222 41.2226 40.4364 41.2226 37C41.2226 33.5636 38.4368 30.7778 35.0004 30.7778C31.5639 30.7778 28.7781 33.5636 28.7781 37C28.7781 40.4364 31.5639 43.2222 35.0004 43.2222Z"
          fill="#F05023"/>
    <path d="M35 44C31.163 44 28 40.837 28 37C28 33.163 31.163 30 35 30C38.837 30 42 33.163 42 37C42 40.837 38.837 44 35 44ZM35 31.5556C31.9926 31.5556 29.5556 33.9926 29.5556 37C29.5556 40.0074 31.9926 42.4444 35 42.4444C38.0074 42.4444 40.4444 40.0074 40.4444 37C40.4444 33.9926 38.0074 31.5556 35 31.5556Z"
          fill="#231F20"/>
    <path d="M37.1223 37.8H32.8752C32.4517 37.8 32.0752 37.4235 32.0752 37C32.0752 36.5765 32.4517 36.2 32.8752 36.2H37.1223C37.5458 36.2 37.9223 36.5765 37.9223 37C37.9223 37.4235 37.5928 37.8 37.1223 37.8Z"
          fill="white"/>
</svg>
