<svg width="48" height="48" viewBox="0 0 48 48" fill="none" xmlns="http://www.w3.org/2000/svg">
<path d="M39.0005 47.2222C42.437 47.2222 45.2228 44.4364 45.2228 41C45.2228 37.5636 42.437 34.7778 39.0005 34.7778C35.5641 34.7778 32.7783 37.5636 32.7783 41C32.7783 44.4364 35.5641 47.2222 39.0005 47.2222Z" fill="#BEDCE3"/>
<path d="M14 14C14 11.7909 15.7909 10 18 10H31.1716C31.702 10 32.2107 10.2107 32.5858 10.5858L41.4142 19.4142C41.7893 19.7893 42 20.298 42 20.8284V38L39.9438 42.5236C39.6531 43.1633 39.199 43.715 38.6273 44.1234L36 46H18C15.7909 46 14 44.2091 14 42V14Z" fill="#BEDCE3"/>
<path d="M10 10C10 7.79086 11.7909 6 14 6H27.1716C27.702 6 28.2107 6.21071 28.5858 6.58579L37.4142 15.4142C37.7893 15.7893 38 16.298 38 16.8284V38C38 40.2091 36.2091 42 34 42H14C11.7909 42 10 40.2091 10 38V10Z" fill="white"/>
<path fill-rule="evenodd" clip-rule="evenodd" d="M15 6C15 5.44772 15.4477 5 16 5H27.1716C27.9672 5 28.7303 5.31607 29.2929 5.87868L38.1213 14.7071C38.6839 15.2697 39 16.0328 39 16.8284V38C39 40.7614 36.7614 43 34 43H14C11.2386 43 9 40.7614 9 38V12.5C9 11.9477 9.44772 11.5 10 11.5C10.5523 11.5 11 11.9477 11 12.5V38C11 39.6569 12.3431 41 14 41H34C35.6569 41 37 39.6569 37 38V16.8284C37 16.5632 36.8946 16.3089 36.7071 16.1213L27.8787 7.29289C27.6911 7.10536 27.4368 7 27.1716 7H16C15.4477 7 15 6.55228 15 6Z" fill="#231F20"/>
<path fill-rule="evenodd" clip-rule="evenodd" d="M26.5 12V6H28.5V12C28.5 13.6569 29.8431 15 31.5 15H37V17H31.5C28.7386 17 26.5 14.7614 26.5 12Z" fill="#231F20"/>
<rect x="16" y="29" width="16" height="2" rx="1" fill="#BEDCE3"/>
<rect x="16" y="24" width="16" height="2" rx="1" fill="#BEDCE3"/>
<rect x="16" y="19" width="16" height="2" rx="1" fill="#BEDCE3"/>
<rect x="16" y="14" width="8" height="2" rx="1" fill="#BEDCE3"/>
<path d="M35.0005 43.2222C38.437 43.2222 41.2228 40.4364 41.2228 37C41.2228 33.5636 38.437 30.7778 35.0005 30.7778C31.5641 30.7778 28.7783 33.5636 28.7783 37C28.7783 40.4364 31.5641 43.2222 35.0005 43.2222Z" fill="#21C68B"/>
<path d="M35 44C31.163 44 28 40.837 28 37C28 33.163 31.163 30 35 30C38.837 30 42 33.163 42 37C42 40.837 38.837 44 35 44ZM35 31.5556C31.9926 31.5556 29.5556 33.9926 29.5556 37C29.5556 40.0074 31.9926 42.4444 35 42.4444C38.0074 42.4444 40.4444 40.0074 40.4444 37C40.4444 33.9926 38.0074 31.5556 35 31.5556Z" fill="#231F20"/>
<path d="M34.793 39.1259C34.5856 39.1259 34.3781 39.0741 34.2226 38.9185C33.9115 38.6074 33.9115 38.1407 34.2226 37.8296L36.867 35.1852C37.1781 34.8741 37.6448 34.8741 37.9559 35.1852C38.267 35.4963 38.267 35.963 37.9559 36.2741L35.3115 38.9185C35.1559 39.0222 35.0004 39.1259 34.793 39.1259Z" fill="white"/>
<path d="M34.7927 39.1259C34.5853 39.1259 34.3779 39.0741 34.2224 38.9185L32.4594 37.1556C32.1483 36.8444 32.1483 36.3778 32.4594 36.0667C32.7705 35.7556 33.2372 35.7556 33.5483 36.0667L35.3113 37.8296C35.6224 38.1407 35.6224 38.6074 35.3113 38.9185C35.1557 39.0222 35.0001 39.1259 34.7927 39.1259Z" fill="white"/>
</svg>
