<svg width="48" height="48" viewBox="0 0 48 48" fill="none" xmlns="http://www.w3.org/2000/svg">
<path fill-rule="evenodd" clip-rule="evenodd" d="M18 10C15.7909 10 14 11.7909 14 14V42C14 44.2091 15.7909 46 18 46H35.2964C36.3312 46.768 37.6128 47.2222 39.0005 47.2222C42.437 47.2222 45.2228 44.4364 45.2228 41C45.2228 38.6511 43.9212 36.6062 42 35.5471V20.8284C42 20.298 41.7893 19.7893 41.4142 19.4142L32.5858 10.5858C32.2107 10.2107 31.702 10 31.1716 10H18Z" fill="#BEDCE3"/>
<path d="M10 10C10 7.79086 11.7909 6 14 6H27.1716C27.702 6 28.2107 6.21071 28.5858 6.58579L37.4142 15.4142C37.7893 15.7893 38 16.298 38 16.8284V38C38 40.2091 36.2091 42 34 42H14C11.7909 42 10 40.2091 10 38V10Z" fill="white"/>
<path fill-rule="evenodd" clip-rule="evenodd" d="M15 6C15 5.44772 15.4477 5 16 5H27.1716C27.9672 5 28.7303 5.31607 29.2929 5.87868L38.1213 14.7071C38.6839 15.2697 39 16.0328 39 16.8284V38C39 40.7614 36.7614 43 34 43H14C11.2386 43 9 40.7614 9 38V12.5C9 11.9477 9.44772 11.5 10 11.5C10.5523 11.5 11 11.9477 11 12.5V38C11 39.6569 12.3431 41 14 41H34C35.6569 41 37 39.6569 37 38V16.8284C37 16.5632 36.8946 16.3089 36.7071 16.1213L27.8787 7.29289C27.6911 7.10536 27.4368 7 27.1716 7H16C15.4477 7 15 6.55228 15 6Z" fill="#231F20"/>
<path fill-rule="evenodd" clip-rule="evenodd" d="M26.5 12V6H28.5V12C28.5 13.6569 29.8431 15 31.5 15H37V17H31.5C28.7386 17 26.5 14.7614 26.5 12Z" fill="#231F20"/>
<path fill-rule="evenodd" clip-rule="evenodd" d="M17 14C16.4477 14 16 14.4477 16 15C16 15.5523 16.4477 16 17 16H23C23.5523 16 24 15.5523 24 15C24 14.4477 23.5523 14 23 14H17ZM16 20C16 19.4477 16.4477 19 17 19H31C31.5523 19 32 19.4477 32 20C32 20.5523 31.5523 21 31 21H17C16.4477 21 16 20.5523 16 20ZM17 24C16.4477 24 16 24.4477 16 25C16 25.5523 16.4477 26 17 26H31C31.5523 26 32 25.5523 32 25C32 24.4477 31.5523 24 31 24H17ZM17 29C16.4477 29 16 29.4477 16 30C16 30.5523 16.4477 31 17 31H28C28.5523 31 29 30.5523 29 30C29 29.4477 28.5523 29 28 29H17Z" fill="#BEDCE3"/>
<path d="M35.0004 43.2222C38.4368 43.2222 41.2226 40.4364 41.2226 37C41.2226 33.5636 38.4368 30.7778 35.0004 30.7778C31.5639 30.7778 28.7781 33.5636 28.7781 37C28.7781 40.4364 31.5639 43.2222 35.0004 43.2222Z" fill="#21C68B"/>
<path d="M35 44C31.163 44 28 40.837 28 37C28 33.163 31.163 30 35 30C38.837 30 42 33.163 42 37C42 40.837 38.837 44 35 44ZM35 31.5556C31.9926 31.5556 29.5556 33.9926 29.5556 37C29.5556 40.0074 31.9926 42.4444 35 42.4444C38.0074 42.4444 40.4444 40.0074 40.4444 37C40.4444 33.9926 38.0074 31.5556 35 31.5556Z" fill="#231F20"/>
<path fill-rule="evenodd" clip-rule="evenodd" d="M34.8001 39.1259C34.7977 39.1259 34.7952 39.1259 34.7927 39.1259C34.5853 39.1259 34.3779 39.0741 34.2224 38.9185L32.4594 37.1556C32.1483 36.8444 32.1483 36.3778 32.4594 36.0667C32.7705 35.7556 33.2372 35.7556 33.5483 36.0667L34.7669 37.2853L36.867 35.1852C37.1781 34.8741 37.6448 34.8741 37.9559 35.1852C38.267 35.4963 38.267 35.963 37.9559 36.2741L35.3115 38.9185C35.1577 39.021 35.004 39.1235 34.8001 39.1259Z" fill="white"/>
</svg>
