<svg width="48" height="48" viewBox="0 0 48 48" fill="none" xmlns="http://www.w3.org/2000/svg">
    <path d="M14 14C14 11.7909 15.7909 10 18 10H31.1716C31.702 10 32.2107 10.2107 32.5858 10.5858L41.4142 19.4142C41.7893 19.7893 42 20.298 42 20.8284V42C42 44.2091 40.2091 46 38 46H18C15.7909 46 14 44.2091 14 42V14Z"
          fill="#BEDCE3"/>
    <path d="M10 10C10 7.79086 11.7909 6 14 6H27.1716C27.702 6 28.2107 6.21071 28.5858 6.58579L37.4142 15.4142C37.7893 15.7893 38 16.298 38 16.8284V38C38 40.2091 36.2091 42 34 42H14C11.7909 42 10 40.2091 10 38V10Z"
          fill="white"/>
    <path fill-rule="evenodd" clip-rule="evenodd"
          d="M15 6C15 5.44772 15.4477 5 16 5H27.1716C27.9672 5 28.7303 5.31607 29.2929 5.87868L38.1213 14.7071C38.6839 15.2697 39 16.0328 39 16.8284V38C39 40.7614 36.7614 43 34 43H14C11.2386 43 9 40.7614 9 38V12.5C9 11.9477 9.44772 11.5 10 11.5C10.5523 11.5 11 11.9477 11 12.5V38C11 39.6569 12.3431 41 14 41H34C35.6569 41 37 39.6569 37 38V16.8284C37 16.5632 36.8946 16.3089 36.7071 16.1213L27.8787 7.29289C27.6911 7.10536 27.4368 7 27.1716 7H16C15.4477 7 15 6.55228 15 6Z"
          fill="#231F20"/>
    <path fill-rule="evenodd" clip-rule="evenodd"
          d="M26.5 12V6H28.5V12C28.5 13.6569 29.8431 15 31.5 15H37V17H31.5C28.7386 17 26.5 14.7614 26.5 12Z"
          fill="#231F20"/>
    <path fill-rule="evenodd" clip-rule="evenodd"
          d="M21.9824 24.3753C22.296 24.8065 22.2325 25.4358 21.8404 25.7808C20.7228 26.7644 19.2569 27.1247 17.9837 27.2225C16.6942 27.3216 15.4698 27.1615 14.7118 26.9762C14.2217 26.8564 13.9127 26.3222 14.0216 25.783C14.1305 25.2439 14.6161 24.904 15.1062 25.0238C15.7118 25.1718 16.7601 25.3117 17.857 25.2274C18.97 25.1419 20.0041 24.8355 20.7046 24.2191C21.0967 23.8741 21.6687 23.944 21.9824 24.3753ZM23.9998 32C22.1269 32 20.5876 33.1676 20.0972 33.7071C19.7422 34.0976 19.1666 34.0976 18.8116 33.7071C18.4566 33.3166 18.4566 32.6834 18.8116 32.2929C19.5333 31.499 21.509 30 23.9998 30C26.4905 30 28.4662 31.499 29.1879 32.2929C29.5429 32.6834 29.5429 33.3166 29.1879 33.7071C28.8329 34.0976 28.2573 34.0976 27.9023 33.7071C27.4119 33.1676 25.8726 32 23.9998 32ZM26.1591 25.7808C25.7671 25.4358 25.7035 24.8065 26.0171 24.3753C26.3308 23.944 26.9028 23.8741 27.2949 24.2191C27.9954 24.8355 29.0295 25.1419 30.1425 25.2274C31.2394 25.3117 32.2877 25.1718 32.8933 25.0238C33.3834 24.904 33.869 25.2439 33.9779 25.783C34.0868 26.3222 33.7778 26.8564 33.2877 26.9762C32.5297 27.1615 31.3053 27.3216 30.0159 27.2225C28.7426 27.1247 27.2768 26.7644 26.1591 25.7808Z"
          fill="#BEDCE3"/>
</svg>
