<svg width="48" height="48" viewBox="0 0 48 48" fill="none" xmlns="http://www.w3.org/2000/svg">
    <path d="M27.8401 45.84C37.7812 45.84 45.8401 37.7811 45.8401 27.84C45.8401 17.8989 37.7812 9.84 27.8401 9.84C17.899 9.84 9.84009 17.8989 9.84009 27.84C9.84009 37.7811 17.899 45.84 27.8401 45.84Z"
          fill="#BEDCE3"/>
    <path d="M24 42C33.9411 42 42 33.9411 42 24C42 14.0589 33.9411 6 24 6C14.0589 6 6 14.0589 6 24C6 33.9411 14.0589 42 24 42Z"
          fill="#F05023"/>
    <path fill-rule="evenodd" clip-rule="evenodd"
          d="M23 5.99792C23.0012 5.44563 23.4498 4.99885 24.0021 5C28.3127 5.00898 32.4921 6.48346 35.854 9.18132C39.216 11.8792 41.5606 15.64 42.503 19.8463C43.4453 24.0527 42.9293 28.4544 41.0397 32.3287C39.1502 36.2031 35.9993 39.3198 32.1046 41.167C28.2099 43.0142 23.8028 43.4821 19.607 42.494C15.4112 41.5058 11.6761 39.1203 9.01509 35.7292C6.35406 32.338 4.92524 28.1428 4.96326 23.8324C5.00129 19.522 6.50389 15.3526 9.22434 12.0089C9.57289 11.5805 10.2027 11.5158 10.6311 11.8643C11.0595 12.2129 11.1243 12.8427 10.7757 13.2711C8.34164 16.2628 6.99721 19.9933 6.96319 23.85C6.92917 27.7067 8.20758 31.4603 10.5885 34.4945C12.9694 37.5287 16.3113 39.6631 20.0655 40.5473C23.8196 41.4314 27.7628 41.0127 31.2475 39.3599C34.7323 37.7072 37.5515 34.9186 39.2421 31.452C40.9328 27.9855 41.3945 24.0471 40.5513 20.2836C39.7082 16.52 37.6103 13.155 34.6023 10.7412C31.5942 8.3273 27.8548 7.00803 23.9979 7C23.4457 6.99885 22.9989 6.5502 23 5.99792Z"
          fill="#231F20"/>
    <path d="M24.21 26.08L14.73 17.84C14.6688 17.7879 14.5963 17.7507 14.5183 17.7313C14.4402 17.712 14.3587 17.711 14.2802 17.7284C14.2017 17.7459 14.1284 17.7813 14.0659 17.8319C14.0034 17.8825 13.9534 17.9469 13.92 18.02C13.2564 19.5975 13.0251 21.3234 13.25 23.02C13.633 25.3933 14.8025 27.569 16.5707 29.1976C18.339 30.8262 20.6033 31.8132 23 32C29.66 32.68 35.29 27.85 35.29 21.79C35.2874 20.4861 35.0186 19.1964 34.5 18C34.4666 17.9269 34.4167 17.8625 34.3542 17.8119C34.2917 17.7613 34.2183 17.7259 34.1398 17.7084C34.0613 17.691 33.9799 17.692 33.9018 17.7113C33.8238 17.7307 33.7513 17.7679 33.69 17.82L24.21 26.08Z"
          fill="white"/>
    <path d="M24.2101 36C26.0469 36.0025 27.8587 35.5744 29.5001 34.75C29.6107 34.6955 29.7064 34.6149 29.779 34.5151C29.8515 34.4154 29.8987 34.2994 29.9164 34.1774C29.9341 34.0553 29.9219 33.9308 29.8807 33.8145C29.8395 33.6982 29.7707 33.5937 29.6801 33.51L25.4001 29.51H23.0001L18.7201 33.51C18.6295 33.5937 18.5606 33.6982 18.5194 33.8145C18.4783 33.9308 18.466 34.0553 18.4837 34.1774C18.5014 34.2994 18.5486 34.4154 18.6211 34.5151C18.6937 34.6149 18.7894 34.6955 18.9001 34.75C20.5475 35.5775 22.3665 36.0057 24.2101 36Z"
          fill="white"/>
    <path d="M24.2101 19.53C24.2101 19.53 24.0001 16.59 21.7001 16.59C21.0606 16.5765 20.4416 16.8157 19.9774 17.2556C19.5131 17.6955 19.241 18.3007 19.2201 18.94C19.8969 18.9973 20.5782 18.9122 21.2201 18.69C21.6012 19.509 21.6797 20.4366 21.4418 21.3081C21.2038 22.1795 20.6646 22.9384 19.9201 23.45L24.2201 27.67L24.2101 19.53Z"
          fill="white"/>
    <path d="M24.2101 19.53C24.2101 19.53 24.4701 16.59 26.7201 16.59C27.3595 16.5765 27.9785 16.8157 28.4428 17.2556C28.9071 17.6955 29.1792 18.3007 29.2001 18.94C28.5233 18.9973 27.8419 18.9122 27.2001 18.69C26.819 19.509 26.7404 20.4366 26.9784 21.3081C27.2164 22.1795 27.7555 22.9384 28.5001 23.45L24.2001 27.67L24.2101 19.53Z"
          fill="white"/>
    <path d="M23.6501 16.12H24.7701C24.8763 16.1204 24.9813 16.0962 25.0767 16.0494C25.1721 16.0026 25.2554 15.9343 25.3201 15.85C25.7701 15.25 26.6001 13.85 24.4901 13.69H23.9301C21.8201 13.81 22.6501 15.25 23.1001 15.85C23.1647 15.9343 23.248 16.0026 23.3434 16.0494C23.4388 16.0962 23.5438 16.1204 23.6501 16.12Z"
          fill="white"/>
</svg>
