<svg width="64" height="64" viewBox="0 0 64 64" fill="none" xmlns="http://www.w3.org/2000/svg">
<g clip-path="url(#clip0)">
<path d="M12.5 21.5V52.5C12.5 55.26 14.74 57.5 17.5 57.5H55.5C56.6 57.5 57.5 56.6 57.5 55.5V28.5C57.5 27.4 56.6 26.5 55.5 26.5H17.5C14.74 26.5 12.5 24.26 12.5 21.5Z" fill="#BEDCE3"/>
<path d="M17.5 9.5H13.63C10.8 9.5 8.5 11.8 8.5 14.63V25.85H49.72V11.5C49.72 10.4 48.82 9.5 47.72 9.5H28.5" fill="white"/>
<path fill-rule="evenodd" clip-rule="evenodd" d="M7 14.63C7 10.9716 9.97157 8 13.63 8H17.5C18.3284 8 19 8.67157 19 9.5C19 10.3284 18.3284 11 17.5 11H13.63C11.6284 11 10 12.6284 10 14.63V24.35H48.22V11.5C48.22 11.2284 47.9916 11 47.72 11H28.5C27.6716 11 27 10.3284 27 9.5C27 8.67157 27.6716 8 28.5 8H47.72C49.6484 8 51.22 9.57157 51.22 11.5V27.35H7V14.63Z" fill="#231F20"/>
<path d="M8 15V46C8 48.76 10.24 51 13 51H51C52.1 51 53 50.1 53 49V22C53 20.9 52.1 20 51 20H13C10.24 20 8 17.76 8 15Z" fill="white"/>
<path fill-rule="evenodd" clip-rule="evenodd" d="M7 46.5V15.5H10C10 17.4316 11.5684 19 13.5 19H51.5C53.4284 19 55 20.5716 55 22.5V49.5C55 51.4284 53.4284 53 51.5 53H13.5C9.91157 53 7 50.0884 7 46.5ZM10 20.9774V46.5C10 48.4316 11.5684 50 13.5 50H51.5C51.7716 50 52 49.7716 52 49.5V22.5C52 22.2284 51.7716 22 51.5 22H13.5C12.2116 22 11.0105 21.6247 10 20.9774Z" fill="#231F20"/>
<path d="M31.411 27C29.4682 27.0003 27.5828 27.6591 26.0626 28.8688C24.5424 30.0786 23.4771 31.7679 23.0405 33.661H27.4615C27.8226 32.9221 28.3838 32.2994 29.0814 31.8638C29.779 31.4282 30.5849 31.1973 31.4073 31.1973C32.2297 31.1973 33.0356 31.4282 33.7332 31.8638C34.4307 32.2994 34.992 32.9221 35.353 33.661H30.1952V37.3157H35.4451C35.1072 38.1056 34.5448 38.779 33.8276 39.2522C33.1105 39.7254 32.2702 39.9776 31.411 39.9776C30.5518 39.9776 29.7115 39.7254 28.9943 39.2522C28.2772 38.779 27.7148 38.1056 27.3768 37.3157H23C23.3269 38.907 24.0984 40.373 25.225 41.5434C26.3516 42.7138 27.7871 43.5407 29.3648 43.928C30.9425 44.3153 32.5977 44.2471 34.1382 43.7315C35.6787 43.2158 37.0414 42.2737 38.068 41.0147C39.0946 39.7556 39.743 38.2312 39.9379 36.6184C40.1329 35.0056 39.8664 33.3705 39.1694 31.9031C38.4723 30.4357 37.3734 29.1961 36.0001 28.3282C34.6268 27.4603 33.0355 26.9998 31.411 27Z" fill="#F05023"/>
<path d="M16.5 14.6599H42.5C43.6 14.6599 44.5 15.5599 44.5 16.6599V20.4999H14.5V16.6599C14.5 15.5499 15.4 14.6599 16.5 14.6599Z" fill="white"/>
<path fill-rule="evenodd" clip-rule="evenodd" d="M16.5 16.1599C16.2235 16.1599 16 16.3832 16 16.6599V18.9999H43V16.6599C43 16.3883 42.7716 16.1599 42.5 16.1599H16.5ZM13 16.6599C13 14.7166 14.5765 13.1599 16.5 13.1599H42.5C44.4284 13.1599 46 14.7315 46 16.6599V21.9999H13V16.6599Z" fill="#231F20"/>
</g>
<defs>
<clipPath id="clip0">
<rect width="50.8" height="49.5" fill="white" transform="translate(7 8)"/>
</clipPath>
</defs>
</svg>
