<svg width="48" height="48" viewBox="0 0 48 48" fill="none" xmlns="http://www.w3.org/2000/svg">
<path d="M28 14.013C16.5 14.013 11 22.5 9 27.5C11 32.5 16.5 41 27.5 41C39.5 41 45.3333 32.3333 47 27.5C45 23 40 14.013 28 14.013Z" fill="#BEDCE3"/>
<path d="M24 10.013C12.5 10.013 7 18.5 5 23.5C7 28.5 12.5 37 23.5 37C35.5 37 41.3333 28.3333 43 23.5C41 19 36 10.013 24 10.013Z" fill="white"/>
<path d="M32.5 23.213C32.5 27.9075 28.6944 31.713 24 31.713C19.3056 31.713 15.5 27.9075 15.5 23.213C15.5 18.5186 19.3056 14.713 24 14.713C28.6944 14.713 32.5 18.5186 32.5 23.213Z" fill="#41B2E5"/>
<path d="M29 23.013C29 25.7745 26.7614 28.013 24 28.013C21.2386 28.013 19 25.7745 19 23.013C19 20.2516 21.2386 18.013 24 18.013C26.7614 18.013 29 20.2516 29 23.013Z" fill="#231F20"/>
<path fill-rule="evenodd" clip-rule="evenodd" d="M6.30498 9.29404C6.70207 8.91019 7.33514 8.92092 7.71899 9.31801L36.719 39.318C37.1028 39.7151 37.0921 40.3482 36.695 40.732C36.2979 41.1159 35.6649 41.1051 35.281 40.7081L6.28101 10.7081C5.89716 10.311 5.90789 9.67789 6.30498 9.29404Z" fill="#231F20"/>
<path fill-rule="evenodd" clip-rule="evenodd" d="M13.8629 14.225C14.261 13.8423 14.8941 13.8548 15.2768 14.2529L33.165 32.861C33.5478 33.2592 33.5353 33.8922 33.1372 34.275C32.739 34.6577 32.106 34.6452 31.7232 34.2471L13.835 15.639C13.4522 15.2408 13.4647 14.6078 13.8629 14.225Z" fill="white"/>
<path fill-rule="evenodd" clip-rule="evenodd" d="M24.2159 11.013C22.7996 11.013 21.3418 11.1833 19.8407 11.5277C18.3146 11.8779 17.102 12.2777 16.1824 12.7158C15.6838 12.9533 15.087 12.7417 14.8495 12.2431C14.612 11.7445 14.8236 11.1478 15.3222 10.9102C16.4177 10.3884 17.7816 9.94819 19.3934 9.57836C21.0302 9.20278 22.6383 9.01303 24.2159 9.01303C28.5459 9.01303 32.5128 10.3035 36.0905 12.8677C39.4563 15.2801 41.9713 18.4673 43.6316 22.4056C43.9305 23.1146 43.9293 23.9151 43.6265 24.6236C42.8949 26.3352 41.9896 27.9195 40.9098 29.3741C39.6752 31.0371 38.2434 32.4981 36.6156 33.7546C36.1784 34.0921 35.5504 34.0113 35.213 33.5741C34.8755 33.1369 34.9563 32.5089 35.3935 32.1714C36.8748 31.028 38.1778 29.6989 39.3039 28.182C40.2874 26.8571 41.1155 25.4097 41.7874 23.8375C41.8766 23.629 41.8772 23.3926 41.7887 23.1826C40.2661 19.5709 37.9797 16.6824 34.9254 14.4933C31.6803 12.1675 28.1193 11.013 24.2159 11.013ZM11.8087 15.4291C10.3899 16.7337 9.19564 18.0953 8.22038 19.5124C7.39029 20.7186 6.71849 21.9439 6.20139 23.1882C6.11867 23.3872 6.11927 23.6165 6.20812 23.8242C7.75653 27.4439 10.065 30.3386 13.1378 32.5316C16.3942 34.8558 20.0056 36.013 24 36.013C25.2372 36.013 26.4598 35.9056 27.6683 35.6909C28.8754 35.4765 29.9404 35.1724 30.8698 34.785L31.6393 36.6311C30.5535 37.0836 29.3443 37.4245 28.0181 37.6601C26.6933 37.8954 25.3537 38.013 24 38.013C19.5884 38.013 15.5709 36.7253 11.9759 34.1595C8.59321 31.7452 6.05632 28.5545 4.3693 24.6108C4.07247 23.9169 4.0609 23.1272 4.35452 22.4207C4.92894 21.0384 5.66958 19.6911 6.57283 18.3786C7.6415 16.8258 8.9374 15.3523 10.455 13.9569L11.8087 15.4291Z" fill="#231F20"/>
</svg>
