<svg width="48" height="48" viewBox="0 0 48 48" fill="none" xmlns="http://www.w3.org/2000/svg">
    <path d="M45.4413 24.3674C42.9927 16.3017 33.2047 11.4173 23.5709 13.4675C13.937 15.5177 8.11434 23.7183 10.5565 31.784C11.3302 34.3269 12.8314 36.5563 14.8304 38.3471C15.0967 38.5856 15.2296 38.9419 15.1683 39.294L14.3747 43.8493C14.2278 44.6924 15.1389 45.3185 15.8733 44.8791L20.4444 42.1439C20.7025 41.9894 21.0158 41.9607 21.3009 42.0567C24.7153 43.2064 28.5859 43.4961 32.427 42.6774C42.0608 40.6337 47.89 32.4331 45.4413 24.3674Z"
          fill="#BEDCE3"/>
    <path d="M41.4413 20.3674C38.9927 12.3017 29.2047 7.41735 19.5709 9.4675C9.93704 11.5177 4.11434 19.7183 6.55653 27.784C7.38559 30.5089 9.05014 32.874 11.2674 34.7249L10 42L16.8523 37.8998C20.3742 39.1787 24.4167 39.5322 28.427 38.6774C38.0608 36.6337 43.89 28.4331 41.4413 20.3674Z"
          fill="white"/>
    <path fill-rule="evenodd" clip-rule="evenodd"
          d="M19.3627 8.4894C29.3747 6.35878 39.763 11.3967 42.3982 20.0769C45.0634 28.856 38.6731 37.5256 28.6355 39.6555C24.6083 40.5138 20.5488 40.209 16.9639 38.9984L10.5135 42.8581C10.1779 43.0589 9.75602 43.0457 9.43369 42.8242C9.11137 42.6027 8.94773 42.2137 9.01485 41.8284L10.185 35.1114C8.0532 33.2081 6.43488 30.8197 5.59984 28.075L5.59945 28.0738C4.09121 23.0926 5.51424 18.0842 8.88951 14.3313C9.25883 13.9207 9.89111 13.8872 10.3017 14.2565C10.7124 14.6258 10.7459 15.2581 10.3766 15.6687C7.41317 18.9637 6.23151 23.259 7.51344 27.4935C8.27984 30.0121 9.82376 32.2172 11.9082 33.9573C12.1826 34.1863 12.3139 34.5444 12.2526 34.8966L11.3598 40.021L16.3388 37.0417C16.597 36.8872 16.9109 36.8572 17.1936 36.9598C20.5436 38.1763 24.3957 38.5142 28.2186 37.6994L28.2195 37.6992C37.449 35.7412 42.7164 28.0098 40.4845 20.6579C38.2224 13.2068 29.0347 8.47591 19.779 10.4456C19.2388 10.5606 18.7077 10.2158 18.5928 9.67565C18.4778 9.13546 18.8225 8.60436 19.3627 8.4894Z"
          fill="#231F20"/>
    <path d="M23.824 19.032C23.248 19.032 22.704 19.104 22.192 19.248C21.9754 19.3089 21.7487 19.3856 21.5121 19.478C20.9542 19.6959 20.3045 19.4504 20.0958 18.889L19.7607 17.9874C19.5969 17.5465 19.7598 17.0439 20.1851 16.8431C20.6394 16.6287 21.1403 16.4543 21.688 16.32C22.536 16.096 23.368 15.984 24.184 15.984C25.208 15.984 26.048 16.12 26.704 16.392C27.376 16.664 27.904 17.008 28.288 17.424C28.672 17.84 28.936 18.296 29.08 18.792C29.24 19.288 29.32 19.76 29.32 20.208C29.32 20.656 29.248 21.072 29.104 21.456C28.976 21.824 28.808 22.168 28.6 22.488C28.392 22.808 28.152 23.112 27.88 23.4C27.608 23.688 27.344 23.96 27.088 24.216C26.896 24.408 26.696 24.616 26.488 24.84C26.28 25.048 26.088 25.272 25.912 25.512C25.752 25.752 25.616 26.008 25.504 26.28C25.392 26.536 25.336 26.8 25.336 27.072C25.336 27.3993 25.062 27.696 24.7347 27.696H22.7252C22.4151 27.696 22.1457 27.477 22.12 27.168C22.12 26.96 22.12 26.784 22.12 26.64C22.12 26.192 22.176 25.792 22.288 25.44C22.4 25.072 22.544 24.736 22.72 24.432C22.912 24.112 23.128 23.816 23.368 23.544C23.608 23.272 23.856 23.008 24.112 22.752C24.48 22.384 24.816 22.024 25.12 21.672C25.424 21.304 25.576 20.888 25.576 20.424C25.576 20.04 25.424 19.712 25.12 19.44C24.832 19.168 24.4 19.032 23.824 19.032Z"
          fill="#F05023"/>
    <path d="M25.0765 32.3369C25.4923 31.9928 25.7002 31.5053 25.7002 30.8745C25.7002 30.2437 25.4923 29.7562 25.0765 29.4121C24.6751 29.068 24.2163 28.896 23.7002 28.896C23.1841 28.896 22.7181 29.068 22.3023 29.4121C21.9009 29.7562 21.7002 30.2437 21.7002 30.8745C21.7002 31.5053 21.9009 31.9928 22.3023 32.3369C22.7181 32.6809 23.1841 32.853 23.7002 32.853C24.2163 32.853 24.6751 32.6809 25.0765 32.3369Z"
          fill="#F05023"/>
</svg>
