<svg width="48" height="48" viewBox="0 0 48 48" fill="none" xmlns="http://www.w3.org/2000/svg">
    <path d="M27.4073 31.45C29.534 31.6633 31.674 31.89 33.8273 32.13C34.8293 31.4002 35.7876 30.6122 36.6973 29.77C46.3573 20.97 45.6973 10.65 45.6173 10.59C40.2989 9.70672 34.8395 10.3303 29.8573 12.39C28.524 15.11 27.2473 17.89 26.0273 20.73C25.454 19.0567 24.8906 17.39 24.3373 15.73C24.0173 16 23.6873 16.28 23.3373 16.58C13.7873 25.5 16.3373 37.72 16.2373 37.65C20.8222 37.8757 25.3848 36.8783 29.4573 34.76L27.4073 31.45Z"
          fill="#BEDCE3"/>
    <path d="M23.72 27.36L30.13 28.04C31.1344 27.3168 32.0929 26.5319 33 25.69C42.67 16.89 42 6.57 41.92 6.5C36.6048 5.62237 31.1501 6.24576 26.17 8.3C24.8367 11.02 23.5567 13.8033 22.33 16.65L20.65 11.65C20.32 11.92 19.99 12.2 19.65 12.5C10.11 21.42 12.65 33.64 12.55 33.58C17.1345 33.8004 21.6957 32.8033 25.77 30.69L23.72 27.36Z"
          fill="white"/>
    <path d="M10.94 46L9.31 44.84C11.92 41.22 14.11 38.73 17.03 35.35L18.54 36.65C15.66 40 13.51 42.44 10.94 46Z"
          fill="#BEDCE3"/>
    <path fill-rule="evenodd" clip-rule="evenodd"
          d="M30.1234 15.7124C30.4866 16.1285 30.4437 16.7602 30.0276 17.1234C21.3459 24.7006 13.5566 33.2431 6.81075 42.5854C6.48743 43.0332 5.86235 43.134 5.4146 42.8107C4.96684 42.4874 4.86596 41.8623 5.18928 41.4146C12.0242 31.949 19.9162 23.2938 28.7125 15.6166C29.1286 15.2534 29.7603 15.2963 30.1234 15.7124Z"
          fill="#231F20"/>
    <path fill-rule="evenodd" clip-rule="evenodd"
          d="M25.7887 7.37555C30.9409 5.25034 36.5841 4.60541 42.0829 5.51336C42.2667 5.5437 42.4383 5.62477 42.5785 5.74742C42.7755 5.91979 42.8489 6.12656 42.8546 6.14252L42.8549 6.14344C42.877 6.20057 42.8893 6.24816 42.8949 6.27078C42.9071 6.3198 42.914 6.36253 42.9176 6.38605C42.9255 6.4384 42.9313 6.49407 42.9357 6.54559C42.9448 6.65263 42.9522 6.79262 42.9561 6.96057C42.9639 7.29841 42.958 7.7724 42.9175 8.3594C42.8363 9.53368 42.6154 11.1731 42.0793 13.0905C41.0061 16.9295 38.6693 21.8814 33.6767 26.4262C32.7403 27.2951 31.751 28.1051 30.7144 28.8515C30.5147 28.9952 30.2691 29.0604 30.0245 29.0344L25.6387 28.5692L26.6216 30.1658C26.7673 30.4025 26.8079 30.6891 26.7337 30.957C26.6595 31.2248 26.4772 31.4497 26.2305 31.5777C22.0123 33.7656 17.2917 34.8014 12.5455 34.5809C12.3286 34.5789 12.1474 34.5046 12.0355 34.4375C11.7289 34.2535 11.5505 33.9253 11.5499 33.5816C11.5496 33.5787 11.5492 33.5756 11.5488 33.5722C11.546 33.5497 11.5418 33.5166 11.5367 33.4763C11.5266 33.3958 11.5128 33.2865 11.4996 33.1757C11.4566 32.816 11.4007 32.2881 11.3617 31.6246C11.2839 30.2993 11.2735 28.4317 11.5693 26.2718C12.1611 21.9501 13.9848 16.428 18.967 11.7696C18.9741 11.763 18.9812 11.7565 18.9884 11.7502C19.3378 11.4419 19.6772 11.1538 20.0168 10.876C20.271 10.668 20.6112 10.5981 20.9268 10.6891C21.2425 10.78 21.4933 11.0201 21.5979 11.3315L22.454 13.8792C23.3653 11.8398 24.3047 9.83339 25.2721 7.85984C25.3795 7.64081 25.5632 7.46857 25.7887 7.37555ZM12.2885 32.6147C12.3873 32.5879 12.4915 32.576 12.598 32.5812C12.6048 32.5815 12.6116 32.5818 12.6183 32.5821C12.5163 32.5746 12.4051 32.5824 12.2885 32.6147ZM13.4482 32.6075C17.2094 32.6603 20.9332 31.8635 24.3421 30.278L22.8684 27.8842C22.6686 27.5595 22.6707 27.1494 22.874 26.8268C23.0773 26.5043 23.4463 26.3254 23.8255 26.3656L29.8519 27.0049C30.7117 26.3685 31.5356 25.6848 32.3197 24.957L32.3269 24.9504L32.327 24.9504C37.0018 20.6961 39.1642 16.0896 40.1532 12.552C40.6484 10.7806 40.8493 9.27694 40.9222 8.22153C40.9452 7.8888 40.9554 7.6019 40.9582 7.36656C36.205 6.72226 31.3631 7.31232 26.9002 9.08329C25.6345 11.6792 24.4172 14.3333 23.2484 17.0457C23.0844 17.4263 22.7027 17.6663 22.2887 17.6491C21.8746 17.632 21.5141 17.3613 21.3821 16.9685L20.1759 13.3787C15.7366 17.6087 14.0926 22.5863 13.5508 26.5432C13.2765 28.5458 13.2862 30.2794 13.3583 31.5073C13.3837 31.9405 13.417 32.3106 13.4482 32.6075Z"
          fill="#231F20"/>
</svg>
