<svg width="48" height="48" viewBox="0 0 48 48" fill="none" xmlns="http://www.w3.org/2000/svg">
    <path fill-rule="evenodd" clip-rule="evenodd"
          d="M41.3453 10.5277L44.0913 13.8465C44.6642 14.5182 45 15.4072 45 16.3554V41.049C45 43.2221 43.222 45 41.049 45H13.3921C11.2191 45 9.44116 43.2221 9.44116 41.049V16.3554C9.44116 15.4072 9.777 14.5182 10.3499 13.8465L13.0761 10.5277C13.6292 9.85603 14.4392 9.44118 15.3676 9.44118H39.0735C40.002 9.44118 40.8119 9.85603 41.3453 10.5277ZM15.2293 11.4167L13.6292 13.3922H40.7922L38.9352 11.4167H15.2293ZM20.3186 23.2696C19.7663 23.2696 19.3186 23.7173 19.3186 24.2696V34.1225C19.3186 34.6748 19.7663 35.1225 20.3186 35.1225H34.1225C34.6748 35.1225 35.1225 34.6748 35.1225 34.1225V24.2696C35.1225 23.7173 34.6748 23.2696 34.1225 23.2696H20.3186Z"
          fill="#BEDCE3"/>
    <path d="M6 12.5882C6 11.4837 6.89543 10.5882 8 10.5882H37.2647C38.3693 10.5882 39.2647 11.4837 39.2647 12.5882V37.2647C39.2647 38.3693 38.3693 39.2647 37.2647 39.2647H8C6.89543 39.2647 6 38.3693 6 37.2647V12.5882Z"
          fill="white"/>
    <path fill-rule="evenodd" clip-rule="evenodd"
          d="M5 12.5882C5 10.9314 6.34315 9.58823 8 9.58823H37.2647C38.9216 9.58823 40.2647 10.9314 40.2647 12.5882V37.2647C40.2647 38.9216 38.9216 40.2647 37.2647 40.2647H8C6.34315 40.2647 5 38.9216 5 37.2647V21C5 20.4477 5.44772 20 6 20C6.55228 20 7 20.4477 7 21V37.2647C7 37.817 7.44772 38.2647 8 38.2647H37.2647C37.817 38.2647 38.2647 37.817 38.2647 37.2647V12.5882C38.2647 12.036 37.817 11.5882 37.2647 11.5882H8C7.44772 11.5882 7 12.0359 7 12.5882V14C7 14.5523 6.55228 15 6 15C5.44772 15 5 14.5523 5 14V12.5882Z"
          fill="#231F20"/>
    <path d="M10.8256 6.63716C11.204 6.2308 11.7342 6 12.2894 6H32.9753C33.5305 6 34.0607 6.2308 34.439 6.63716L38.1176 10.5882H7.14703L10.8256 6.63716Z"
          fill="white"/>
    <path fill-rule="evenodd" clip-rule="evenodd"
          d="M10.0937 5.95575C10.6612 5.3462 11.4566 5 12.2894 5H32.9753C33.8081 5 34.6034 5.3462 35.171 5.95574L38.8495 9.90682C39.1207 10.1981 39.1934 10.6224 39.0345 10.9873C38.8757 11.3523 38.5156 11.5882 38.1176 11.5882H7.14706C6.74908 11.5882 6.38899 11.3523 6.23015 10.9873C6.07132 10.6224 6.14397 10.1981 6.41516 9.90682L10.0937 5.95575ZM12.2894 7C12.0118 7 11.7467 7.1154 11.5575 7.31858L9.44441 9.58824H35.8203L33.7072 7.31858C33.518 7.1154 33.2529 7 32.9753 7H12.2894Z"
          fill="#231F20"/>
    <path fill-rule="evenodd" clip-rule="evenodd" d="M39 22H33V20H39V22Z" fill="#231F20"/>
    <path fill-rule="evenodd" clip-rule="evenodd" d="M12 22H6V20H12V22Z" fill="#231F20"/>
    <path fill-rule="evenodd" clip-rule="evenodd" d="M39 29H33V27H39V29Z" fill="#231F20"/>
    <path fill-rule="evenodd" clip-rule="evenodd" d="M12 29H6V27H12V29Z" fill="#231F20"/>
    <path fill-rule="evenodd" clip-rule="evenodd"
          d="M31 17H14C13.4477 17 13 17.4477 13 18V32C13 32.5523 13.4477 33 14 33H31C31.5523 33 32 32.5523 32 32V18C32 17.4477 31.5523 17 31 17ZM14 15C12.3431 15 11 16.3431 11 18V32C11 33.6569 12.3431 35 14 35H31C32.6569 35 34 33.6569 34 32V18C34 16.3431 32.6569 15 31 15H14Z"
          fill="#231F20"/>
</svg>
