<svg width="48" height="48" viewBox="0 0 48 48" fill="none" xmlns="http://www.w3.org/2000/svg">
<path fill-rule="evenodd" clip-rule="evenodd" d="M18.7745 10.0005C20.3761 10.0378 22.9239 11.9264 26.3539 15.6172H29.6455C33.0755 11.9264 35.6233 10.0378 37.2248 10.0005C37.7399 9.98946 38.1923 10.1613 38.5284 10.5003C39.444 11.4243 40.3234 12.8431 40.8808 14.2958C41.5339 15.9983 41.6503 17.5198 41.2082 18.5798C40.9972 19.0859 40.5947 19.654 39.8275 20H44C45.1046 20 46 20.8954 46 22V25C46 26.1046 45.1046 27 44 27V44C44 45.1046 43.1046 46 42 46H14C12.8954 46 12 45.1046 12 44V27C10.8954 27 10 26.1046 10 25V22C10 20.8954 10.8954 20 12 20H16.1716C15.4044 19.654 15.002 19.086 14.791 18.5798C14.3491 17.5197 14.4655 15.9983 15.1186 14.2958C15.6759 12.8431 16.5554 11.4242 17.471 10.5003C17.807 10.1613 18.2582 9.9894 18.7745 10.0005Z" fill="#BEDCE3"/>
<rect x="8" y="21" width="32" height="21" rx="2" fill="#21C68B"/>
<path d="M36.8808 10.2958C36.3234 8.84309 35.444 7.42426 34.5284 6.50028C34.1923 6.1613 33.7399 5.98946 33.2248 6.0005C31.5182 6.04023 28.7372 8.18216 24.9591 12.3667C24.8647 12.4711 24.8125 12.6069 24.8125 12.7477V15.7543C24.8125 16.0683 25.0669 16.3227 25.3809 16.3227H34.1245C36.0727 16.3227 36.8768 15.3749 37.2082 14.5798C37.6503 13.5198 37.5339 11.9983 36.8808 10.2958Z" fill="white"/>
<path d="M37.2055 11.2858C37.1896 11.2274 37.1645 11.1719 37.1311 11.1215C36.2728 9.82376 34.4182 10.3093 33.0135 10.9452C28.9327 12.7924 27.2474 15.337 27.1777 15.4443C27.0641 15.6192 27.0554 15.842 27.1549 16.0252C27.2543 16.2084 27.446 16.3223 27.6544 16.3223H34.124C35.3636 16.3223 36.283 15.9418 36.8564 15.1913C37.5377 14.2998 37.6584 12.9492 37.2055 11.2858Z" fill="#D6D6D6"/>
<path d="M23.0403 12.3667C19.2622 8.18216 16.4812 6.04023 14.7745 6.00051C14.2582 5.9894 13.807 6.16131 13.471 6.50029C12.5554 7.42419 11.6759 8.8431 11.1186 10.2958C10.4655 11.9983 10.3491 13.5197 10.791 14.5798C11.1224 15.375 11.9265 16.3228 13.8748 16.3228H22.6183C22.9323 16.3228 23.1867 16.0683 23.1867 15.7544V12.7477C23.1868 12.6069 23.1347 12.4712 23.0403 12.3667Z" fill="white"/>
<path d="M20.8223 15.4447C20.7525 15.3374 19.0673 12.7928 14.9864 10.9456C13.5816 10.3098 11.7271 9.82439 10.8688 11.1219C10.8355 11.1723 10.8104 11.2278 10.7945 11.2862C10.3414 12.9496 10.4622 14.3002 11.1435 15.1917C11.7169 15.9421 12.6362 16.3227 13.876 16.3227H20.3456C20.554 16.3227 20.7456 16.2087 20.8451 16.0255C20.9445 15.8424 20.9358 15.6196 20.8223 15.4447Z" fill="#D6D6D6"/>
<path d="M26.3809 11.6172H21.6192C21.3052 11.6172 21.0508 11.8717 21.0508 12.1856V15.7542C21.0508 16.0681 21.3052 16.3226 21.6192 16.3226H26.3809C26.6949 16.3226 26.9493 16.068 26.9493 15.7542V12.1856C26.9493 11.8716 26.6949 11.6172 26.3809 11.6172Z" fill="white"/>
<rect x="21" y="23" width="6" height="19" fill="white"/>
<rect x="6" y="16" width="36" height="7" rx="2" fill="#21C68B"/>
<path d="M28 16H20V23H28V16Z" fill="white"/>
<path fill-rule="evenodd" clip-rule="evenodd" d="M9 23V40C9 40.5523 9.44772 41 10 41H38C38.5523 41 39 40.5523 39 40V23H41V40C41 41.6569 39.6569 43 38 43H10C8.34315 43 7 41.6569 7 40V23H9Z" fill="#212121"/>
<path fill-rule="evenodd" clip-rule="evenodd" d="M12.7609 5.79635C13.3085 5.24384 14.0332 4.98432 14.7962 5.00073L14.798 5.00077C15.915 5.02677 17.1516 5.66157 18.4313 6.60372C19.7488 7.57373 21.2677 8.98865 22.9757 10.8174L23.2338 11.0937L21.5 12.5V16.7987L11.5646 16.8168L11.5305 16.7987C10.6255 16.3172 10.1304 15.5938 9.86814 14.9646C9.28315 13.561 9.49186 11.7448 10.1852 9.93764C10.7826 8.38034 11.7305 6.83611 12.7609 5.79635ZM14.1815 7.20421C13.3807 8.01227 12.5697 9.30584 12.0525 10.654C11.4395 12.2517 11.4155 13.4784 11.7142 14.1951M14.1815 7.20421C14.3057 7.07891 14.4831 6.99464 14.7523 7.00025C15.22 7.01151 16.0307 7.31987 17.2455 8.21427C18.362 9.03632 19.6997 10.2621 21.2561 11.908L20.5 12.1687V15L12.4396 15.0165C12.0505 14.7999 11.838 14.4922 11.7142 14.1951" fill="#212121"/>
<path fill-rule="evenodd" clip-rule="evenodd" d="M35.2366 5.79635C34.6891 5.24384 33.9643 4.98432 33.2013 5.00073L33.1996 5.00077C32.0825 5.02677 30.8459 5.66157 29.5663 6.60372C28.2488 7.57373 26.7299 8.98865 25.0218 10.8174L24.7638 11.0937L26.4976 12.5V16.7987L36.4329 16.8168L36.4671 16.7987C37.3721 16.3172 37.8671 15.5938 38.1294 14.9646C38.7144 13.561 38.5057 11.7448 37.8124 9.93764C37.215 8.38034 36.2671 6.83611 35.2366 5.79635ZM33.8161 7.20421C34.6169 8.01227 35.4279 9.30584 35.9451 10.654C36.558 12.2517 36.5821 13.4784 36.2834 14.1951M33.8161 7.20421C33.6919 7.07891 33.5145 6.99464 33.2452 7.00025C32.7776 7.01151 31.9669 7.31987 30.7521 8.21427C29.6356 9.03632 28.2978 10.2621 26.7415 11.908L27.4976 12.1687V15L35.558 15.0165C35.9471 14.7999 36.1595 14.4922 36.2834 14.1951" fill="#212121"/>
<path fill-rule="evenodd" clip-rule="evenodd" d="M20.0508 12.1856C20.0508 11.3196 20.7527 10.6172 21.6192 10.6172H26.3809C27.2473 10.6172 27.9493 11.3194 27.9493 12.1856V16.7542H20.0508V12.1856ZM22.0508 12.6172V15H25.9493V12.6172H22.0508Z" fill="#212121"/>
<path fill-rule="evenodd" clip-rule="evenodd" d="M5 18C5 16.3431 6.34315 15 8 15H40C41.6569 15 43 16.3431 43 18V21C43 22.6569 41.6569 24 40 24H20C19.4477 24 19 23.5523 19 23C19 22.4477 19.4477 22 20 22H40C40.5523 22 41 21.5523 41 21V18C41 17.4477 40.5523 17 40 17H8C7.44772 17 7 17.4477 7 18V21C7 21.5523 7.44772 22 8 22H13C13.5523 22 14 22.4477 14 23C14 23.5523 13.5523 24 13 24H8C6.34315 24 5 22.6569 5 21V18Z" fill="#212121"/>
</svg>
