<svg width="48" height="48" viewBox="0 0 48 48" fill="none" xmlns="http://www.w3.org/2000/svg">
    <path d="M45.01 37.24V16.77C45.01 14.7597 43.3803 13.13 41.37 13.13L12.65 13.13C10.6397 13.13 9.01001 14.7597 9.01001 16.77V37.24C9.01001 39.2503 10.6397 40.88 12.65 40.88H41.37C43.3803 40.88 45.01 39.2503 45.01 37.24Z"
          fill="#BEDCE3"/>
    <path d="M40.99 33.23V12.76C40.99 10.7497 39.3603 9.12 37.35 9.12L8.62999 9.12C6.61967 9.12 4.98999 10.7497 4.98999 12.76V33.23C4.98999 35.2403 6.61967 36.87 8.62999 36.87H37.35C39.3603 36.87 40.99 35.2403 40.99 33.23Z"
          fill="white"/>
    <path fill-rule="evenodd" clip-rule="evenodd"
          d="M9.74 9.12C9.74 8.56771 10.1877 8.12 10.74 8.12H37.36C38.5906 8.12 39.7708 8.60886 40.641 9.47902C41.5111 10.3492 42 11.5294 42 12.76V33.23C42 33.8404 41.8796 34.4448 41.6456 35.0086C41.4116 35.5724 41.0687 36.0845 40.6365 36.5155C40.2043 36.9465 39.6912 37.288 39.1268 37.5205C38.5628 37.7527 37.9586 37.8715 37.3487 37.87C37.3482 37.87 37.3477 37.87 37.3473 37.87L37.35 36.87V37.87H37.3487H8.64C7.4094 37.87 6.22919 37.3811 5.35902 36.511C4.48886 35.6408 4 34.4606 4 33.23V14.87C4 14.3177 4.44772 13.87 5 13.87C5.55228 13.87 6 14.3177 6 14.87V33.23C6 33.9302 6.27814 34.6017 6.77324 35.0968C7.26833 35.5919 7.93983 35.87 8.64 35.87H37.35L37.3527 35.87C37.7001 35.871 38.0441 35.8034 38.3653 35.6711C38.6864 35.5389 38.9783 35.3446 39.2242 35.0993C39.4701 34.8541 39.6652 34.5627 39.7984 34.242C39.9315 33.9212 40 33.5773 40 33.23V12.76C40 12.0598 39.7219 11.3883 39.2268 10.8932C38.7317 10.3981 38.0602 10.12 37.36 10.12H10.74C10.1877 10.12 9.74 9.67228 9.74 9.12Z"
          fill="#231F20"/>
    <path fill-rule="evenodd" clip-rule="evenodd"
          d="M34.2089 15.6723C34.4143 16.0099 34.3754 16.442 34.113 16.7375L25.733 26.1775C25.4658 26.4786 25.0311 26.5655 24.6686 26.3904L19.0123 23.6586L12.6059 28.8398C12.2195 29.1523 11.6528 29.0924 11.3402 28.706C11.0276 28.3195 11.0875 27.7528 11.474 27.4402L18.324 21.9002C18.5949 21.6812 18.9678 21.6381 19.2814 21.7896L24.8387 24.4736L30.8245 17.7306L28.9609 18.2025C28.479 18.3245 27.9895 18.0328 27.8675 17.5509C27.7455 17.069 28.0372 16.5795 28.5191 16.4575L33.2191 15.2675C33.6021 15.1705 34.0036 15.3347 34.2089 15.6723Z"
          fill="#21C68B"/>
    <path fill-rule="evenodd" clip-rule="evenodd"
          d="M33.5029 15.2422C33.9987 15.2769 34.3725 15.707 34.3378 16.2029L34.0178 20.7729C33.9831 21.2687 33.553 21.6425 33.0571 21.6078C32.5613 21.5731 32.1875 21.143 32.2222 20.6471L32.5422 16.0771C32.5769 15.5813 33.007 15.2075 33.5029 15.2422Z"
          fill="#21C68B"/>
</svg>
