<svg width="48" height="48" viewBox="0 0 48 48" fill="none" xmlns="http://www.w3.org/2000/svg">
<circle cx="28" cy="28" r="18" fill="#BEDCE3"/>
<circle cx="24" cy="24" r="18" fill="#21C68B"/>
<path fill-rule="evenodd" clip-rule="evenodd" d="M24 7C21.5785 7 19.2778 7.50567 17.1955 8.41623C16.6895 8.63751 16.0999 8.40668 15.8786 7.90066C15.6574 7.39464 15.8882 6.80505 16.3942 6.58377C18.7244 5.56481 21.2976 5 24 5C34.4934 5 43 13.5066 43 24C43 34.4934 34.4934 43 24 43C13.5066 43 5 34.4934 5 24C5 20.7567 5.81344 17.7005 7.24826 15.0271C7.50943 14.5405 8.11565 14.3577 8.60228 14.6189C9.0889 14.8801 9.27167 15.4863 9.01049 15.9729C7.72792 18.3626 7 21.0948 7 24C7 33.3888 14.6112 41 24 41C33.3888 41 41 33.3888 41 24C41 14.6112 33.3888 7 24 7Z" fill="#231F20"/>
<path d="M28 22H20V26H28V22Z" fill="white"/>
<path d="M12.3852 20.9353V21.3338C12.2463 21.2436 12.0941 21.1819 11.9221 21.1819C11.4123 21.1819 11 21.6205 11 22.1611V25.8389C11 26.3795 11.4123 26.8181 11.9221 26.8181C12.0941 26.8181 12.2463 26.7564 12.3852 26.6662V27.0647C12.3852 28.0637 13.0906 28.8786 14 29V19C13.0906 19.1214 12.3852 19.9363 12.3852 20.9353Z" fill="white"/>
<path d="M36.0779 21.1819C35.9058 21.1819 35.7536 21.2435 35.6149 21.3337V20.9353C35.6149 19.9363 34.9093 19.1214 34 19V29C34.9095 28.8785 35.6149 28.0637 35.6149 27.0647V26.6663C35.7538 26.7565 35.906 26.8181 36.0779 26.8181C36.5877 26.8181 37 26.3796 37 25.839V22.1613C37 21.6204 36.5877 21.1819 36.0779 21.1819Z" fill="white"/>
<path d="M16.9993 16C15.8959 16 15 16.8689 15 17.9404V30.0596C15 31.1311 15.896 32 16.9993 32C18.104 32 19 31.1311 19 30.0596V17.9404C19 16.8689 18.104 16 16.9993 16Z" fill="white"/>
<path d="M31.0007 16C29.896 16 29 16.8689 29 17.9404V30.0596C29 31.1311 29.896 32 31.0007 32C32.1041 32 33 31.1311 33 30.0596V17.9404C33 16.8689 32.1041 16 31.0007 16Z" fill="white"/>
</svg>
