<svg width="48" height="48" viewBox="0 0 48 48" fill="none" xmlns="http://www.w3.org/2000/svg">
    <circle cx="28" cy="28" r="18" fill="#29889E" fill-opacity="0.3"/>
    <circle cx="24" cy="24" r="18" fill="#F05023"/>
    <path fill-rule="evenodd" clip-rule="evenodd"
          d="M24 7C21.5785 7 19.2778 7.50567 17.1955 8.41623C16.6895 8.63751 16.0999 8.40668 15.8786 7.90066C15.6574 7.39464 15.8882 6.80505 16.3942 6.58377C18.7244 5.56481 21.2976 5 24 5C34.4934 5 43 13.5066 43 24C43 34.4934 34.4934 43 24 43C13.5066 43 5 34.4934 5 24C5 20.7567 5.81344 17.7005 7.24826 15.0271C7.50943 14.5405 8.11565 14.3577 8.60228 14.6189C9.0889 14.8801 9.27167 15.4863 9.01049 15.9729C7.72792 18.3626 7 21.0948 7 24C7 33.3888 14.6112 41 24 41C33.3888 41 41 33.3888 41 24C41 14.6112 33.3888 7 24 7Z"
          fill="#231F20"/>
    <path d="M17.7002 19.5218C17.7002 18.6852 17.9645 17.8397 18.4932 16.9855C19.7236 14.9768 22.0684 14 24.3562 14C26.4693 14 28.7203 14.7795 29.9072 16.6288C31.2025 18.6139 30.8128 21.08 29.1792 22.7054C28.7719 23.1105 28.0352 23.7974 26.9692 24.7662C26.1024 25.5692 25.6956 26.3543 25.4482 27.4742C25.2835 28.3901 24.7679 28.8481 23.9012 28.8481C22.8716 28.8481 22.3022 28.0325 22.3022 27.0647C22.3022 25.8283 22.6919 24.6415 23.5372 23.7226C24.6477 22.4891 27.1252 21.5 27.1252 19.2972C27.1252 18 25.7933 16.9855 24.3562 16.9855C22.3022 16.9855 21.6436 18.042 21.1062 19.6803C20.8115 20.6755 20.2525 21.1731 19.4292 21.1731C18.5405 21.1731 17.7002 20.4386 17.7002 19.5218ZM24.0442 34C22.9042 34 22.0682 33.1508 22.0682 32.0185C22.0682 30.9237 22.9515 30.0502 24.0442 30.0502C25.1333 30.0502 25.9812 30.9387 25.9812 32.0185C25.9812 33.1135 25.1594 34 24.0442 34Z"
          fill="white"/>
</svg>
