<svg width="64" height="64" viewBox="0 0 64 64" fill="none" xmlns="http://www.w3.org/2000/svg">
<g clip-path="url(#clip0)">
<path d="M32 62C30.62 62 29.5 60.88 29.5 59.5V53.5C29.5 52.12 30.62 51 32 51C33.38 51 34.5 52.12 34.5 53.5V59.5C34.5 60.88 33.38 62 32 62Z" fill="#231F20"/>
<path d="M36 51.5C44.2843 51.5 51 44.7843 51 36.5C51 28.2157 44.2843 21.5 36 21.5C27.7157 21.5 21 28.2157 21 36.5C21 44.7843 27.7157 51.5 36 51.5Z" fill="#BEDCE3"/>
<path d="M32 45.5C40.2843 45.5 47 38.7843 47 30.5C47 22.2157 40.2843 15.5 32 15.5C23.7157 15.5 17 22.2157 17 30.5C17 38.7843 23.7157 45.5 32 45.5Z" fill="white"/>
<path d="M32 59C28.42 59 25.5 56.08 25.5 52.5V38.5C25.5 34.93 28.42 32 32 32C35.57 32 38.5 34.92 38.5 38.5V52.5C38.5 56.08 35.58 59 32 59Z" fill="white"/>
<path d="M31.9998 60C31.4398 60 30.8698 59.94 30.3098 59.81C26.9498 59.05 24.5098 55.9 24.5098 52.3V45.19C19.0098 42.38 15.5098 36.72 15.5098 30.5C15.5098 27.19 16.4798 24 18.3298 21.27C18.7898 20.58 19.7198 20.4 20.4098 20.87C21.0998 21.33 21.2798 22.27 20.8098 22.95C19.2998 25.18 18.5098 27.79 18.5098 30.5C18.5098 35.86 21.6898 40.72 26.6098 42.87L27.5098 43.26V52.3C27.5098 54.51 28.9698 56.43 30.9698 56.88C32.3498 57.19 33.7198 56.88 34.8098 56.01C35.8898 55.15 36.5098 53.86 36.5098 52.5V43.26L37.4098 42.87C42.3298 40.72 45.5098 35.86 45.5098 30.5C45.4998 23.06 39.4498 17 31.9998 17C31.1698 17 30.4998 16.33 30.4998 15.5C30.4998 14.67 31.1698 14 31.9998 14C41.0998 14 48.4998 21.4 48.4998 30.5C48.4998 36.72 44.9998 42.38 39.4998 45.19V52.5C39.4998 54.79 38.4698 56.92 36.6698 58.36C35.3298 59.43 33.6898 60 31.9998 60Z" fill="#231F20"/>
<path d="M32 11C31.17 11 30.5 10.33 30.5 9.5V3.5C30.5 2.67 31.17 2 32 2C32.83 2 33.5 2.67 33.5 3.5V9.5C33.5 10.33 32.83 11 32 11Z" fill="#F05023"/>
<path d="M43.1201 14.3299C42.7901 14.3299 42.4601 14.2199 42.1801 13.9999C41.5301 13.4799 41.4301 12.5399 41.9501 11.8899L45.7201 7.21995C46.2401 6.57995 47.1801 6.46995 47.8301 6.98995C48.4801 7.50995 48.5801 8.44995 48.0601 9.09995L44.2901 13.7699C43.9901 14.1399 43.5601 14.3299 43.1201 14.3299Z" fill="#F05023"/>
<path d="M20.9498 14.2899C20.5298 14.2899 20.0998 14.1099 19.8098 13.7599L15.9198 9.18993C15.3798 8.55993 15.4598 7.60993 16.0898 7.06993C16.7198 6.52993 17.6698 6.60993 18.1998 7.23993L22.0898 11.8099C22.6298 12.4399 22.5498 13.3899 21.9198 13.9199C21.6398 14.1699 21.2898 14.2899 20.9498 14.2899Z" fill="#F05023"/>
<path d="M50.45 24.58C49.95 24.58 49.46 24.33 49.17 23.87C48.73 23.17 48.95 22.24 49.65 21.81L54.75 18.65C55.45 18.21 56.38 18.43 56.81 19.13C57.25 19.83 57.03 20.76 56.33 21.19L51.23 24.35C51 24.51 50.72 24.58 50.45 24.58Z" fill="#F05023"/>
<path d="M13.4998 24.6501C13.2198 24.6501 12.9298 24.5701 12.6698 24.4001L7.66978 21.0901C6.97978 20.6301 6.78978 19.7001 7.24978 19.0101C7.70978 18.3201 8.63978 18.1301 9.32978 18.5901L14.3298 21.9001C15.0198 22.3601 15.2098 23.2901 14.7498 23.9801C14.4698 24.4201 13.9898 24.6501 13.4998 24.6501Z" fill="#F05023"/>
<path d="M33 47H31C30.17 47 29.5 46.33 29.5 45.5C29.5 44.67 30.17 44 31 44H33C33.83 44 34.5 44.67 34.5 45.5C34.5 46.33 33.83 47 33 47Z" fill="#231F20"/>
<path d="M33 53H31C30.17 53 29.5 52.33 29.5 51.5C29.5 50.67 30.17 50 31 50H33C33.83 50 34.5 50.67 34.5 51.5C34.5 52.33 33.83 53 33 53Z" fill="#231F20"/>
</g>
<defs>
<clipPath id="clip0">
<rect width="50.05" height="60" fill="white" transform="translate(7 2)"/>
</clipPath>
</defs>
</svg>
