<svg width="64" height="64" viewBox="0 0 64 64" fill="none" xmlns="http://www.w3.org/2000/svg">
<g clip-path="url(#clip0)">
<path d="M12.7101 61.5498C10.9801 59.8198 10.9801 56.9998 12.7101 55.2698L29.6701 38.3098L35.9501 44.5898L18.9901 61.5498C17.2501 63.2798 14.4401 63.2798 12.7101 61.5498Z" fill="#BEDCE3"/>
<path d="M39.56 53.7499C50.0865 53.7499 58.62 45.2164 58.62 34.6899C58.62 24.1633 50.0865 15.6299 39.56 15.6299C29.0335 15.6299 20.5 24.1633 20.5 34.6899C20.5 45.2164 29.0335 53.7499 39.56 53.7499Z" fill="#BEDCE3"/>
<path d="M7.79994 58.5501C6.06994 56.8201 6.06994 54.0001 7.79994 52.2701L24.7599 35.3101L31.0399 41.5901L14.0799 58.5501C12.3499 60.2801 9.52994 60.2801 7.79994 58.5501Z" fill="#F05023"/>
<path fill-rule="evenodd" clip-rule="evenodd" d="M24.7599 33.1887L33.1613 41.59L15.1406 59.6107C12.8248 61.9265 9.05507 61.9265 6.73928 59.6107C4.42349 57.2949 4.42349 53.5252 6.73928 51.2094L24.7599 33.1887ZM24.7599 37.4314L8.8606 53.3307C7.71639 54.4749 7.71639 56.3452 8.8606 57.4894C10.0048 58.6336 11.8751 58.6336 13.0193 57.4894L28.9186 41.59L24.7599 37.4314Z" fill="#231F20"/>
<path d="M36.5297 48.88C47.0563 48.88 55.5897 40.3466 55.5897 29.82C55.5897 19.2935 47.0563 10.76 36.5297 10.76C26.0032 10.76 17.4697 19.2935 17.4697 29.82C17.4697 40.3466 26.0032 48.88 36.5297 48.88Z" fill="white"/>
<path fill-rule="evenodd" clip-rule="evenodd" d="M51.8517 21.2339C47.1062 12.7749 36.3998 9.75434 27.9438 14.4982L27.9414 14.4995C25.5828 15.817 23.6495 17.6031 22.1849 19.6757C21.7068 20.3522 20.7708 20.5131 20.0942 20.035C19.4177 19.5569 19.2568 18.6209 19.7349 17.9443C21.45 15.5173 23.7163 13.4236 26.4771 11.8812C36.3809 6.32591 48.9138 9.86545 54.4681 19.7661C60.0242 29.6701 56.4848 42.2037 46.5838 47.7582C36.6801 53.3142 24.1468 49.7751 18.5921 39.8746C17.8163 38.4954 17.2113 37.0487 16.7888 35.5863C16.5589 34.7904 17.0177 33.9588 17.8136 33.7289C18.6095 33.499 19.441 33.9578 19.671 34.7537C20.0284 35.991 20.5432 37.2241 21.2072 38.4046L21.2081 38.4061C25.9536 46.8651 36.66 49.8856 45.116 45.1418C53.575 40.3963 56.5955 29.6899 51.8517 21.2339Z" fill="#231F20"/>
<path fill-rule="evenodd" clip-rule="evenodd" d="M13.6064 5.30333C14.212 4.73807 15.1612 4.7708 15.7265 5.37643L21.1865 11.2264C21.7517 11.8321 21.719 12.7812 21.1134 13.3465C20.5077 13.9117 19.5586 13.879 18.9933 13.2734L13.5333 7.42339C12.9681 6.81776 13.0008 5.86858 13.6064 5.30333Z" fill="#231F20"/>
<path fill-rule="evenodd" clip-rule="evenodd" d="M24.508 1.00866C25.3316 0.919177 26.0718 1.51428 26.1613 2.33786L26.7013 7.30786C26.7908 8.13144 26.1957 8.87162 25.3721 8.96111C24.5485 9.05059 23.8083 8.45549 23.7188 7.63191L23.1788 2.66191C23.0893 1.83833 23.6844 1.09814 24.508 1.00866Z" fill="#231F20"/>
<path fill-rule="evenodd" clip-rule="evenodd" d="M7.84351 16.5657C7.98937 15.7503 8.7687 15.2074 9.58418 15.3533L14.5042 16.2333C15.3197 16.3791 15.8625 17.1585 15.7166 17.9739C15.5708 18.7894 14.7915 19.3323 13.976 19.1864L9.05598 18.3064C8.24049 18.1606 7.69765 17.3812 7.84351 16.5657Z" fill="#231F20"/>
<path d="M28.5 37.5297V36.4297C28.5 33.6697 30.69 31.4297 33.4 31.4297H40.13C42.84 31.4297 45.03 33.6697 45.03 36.4297V37.5297" fill="white"/>
<path fill-rule="evenodd" clip-rule="evenodd" d="M33.4 32.9297C31.5479 32.9297 30 34.4684 30 36.4297V37.5297C30 38.3581 29.3284 39.0297 28.5 39.0297C27.6716 39.0297 27 38.3581 27 37.5297V36.4297C27 32.871 29.8321 29.9297 33.4 29.9297H40.13C43.6979 29.9297 46.53 32.871 46.53 36.4297V37.5297C46.53 38.3581 45.8584 39.0297 45.03 39.0297C44.2016 39.0297 43.53 38.3581 43.53 37.5297V36.4297C43.53 34.4684 41.9821 32.9297 40.13 32.9297H33.4Z" fill="#231F20"/>
<path d="M36.7699 31.1798C39.7136 31.1798 42.0999 28.7935 42.0999 25.8498C42.0999 22.9061 39.7136 20.5198 36.7699 20.5198C33.8263 20.5198 31.4399 22.9061 31.4399 25.8498C31.4399 28.7935 33.8263 31.1798 36.7699 31.1798Z" fill="white"/>
<path fill-rule="evenodd" clip-rule="evenodd" d="M36.7699 22.0198C34.6547 22.0198 32.9399 23.7345 32.9399 25.8498C32.9399 27.965 34.6547 29.6798 36.7699 29.6798C38.8852 29.6798 40.5999 27.965 40.5999 25.8498C40.5999 23.7345 38.8852 22.0198 36.7699 22.0198ZM29.9399 25.8498C29.9399 22.0777 32.9978 19.0198 36.7699 19.0198C40.542 19.0198 43.5999 22.0777 43.5999 25.8498C43.5999 29.6219 40.542 32.6798 36.7699 32.6798C32.9978 32.6798 29.9399 29.6219 29.9399 25.8498Z" fill="#231F20"/>
</g>
<defs>
<clipPath id="clip0">
<rect width="53.62" height="61.85" fill="white" transform="translate(5 1)"/>
</clipPath>
</defs>
</svg>
