<svg width="48" height="48" viewBox="0 0 48 48" fill="none" xmlns="http://www.w3.org/2000/svg">
    <path d="M27.9017 12.6639L19.7189 20.9523C19.1724 21.5058 18.8622 22.2689 18.8622 23.0618V38.0078C18.8622 39.6535 20.1916 41 21.8163 41H35.1097C36.2913 41 37.3548 40.2819 37.8274 39.1897L42.6426 27.8044C43.8833 24.8421 41.7416 21.5507 38.566 21.5507H30.2207L31.6239 14.6986C31.7716 13.9505 31.55 13.1875 31.0183 12.6489C30.1468 11.7812 28.7584 11.7812 27.9017 12.6639Z"
          fill="#BEDCE3"/>
    <path d="M24.9017 8.66391L16.7189 16.9523C16.1724 17.5058 15.8622 18.2689 15.8622 19.0618V34.0078C15.8622 35.6535 17.1916 37 18.8163 37H32.1097C33.2913 37 34.3548 36.2819 34.8274 35.1897L39.6426 23.8044C40.8833 20.8421 38.7416 17.5507 35.566 17.5507H27.2207L28.6239 10.6986C28.7716 9.95055 28.55 9.18754 28.0183 8.64894C27.1468 7.78121 25.7584 7.78121 24.9017 8.66391ZM9.95408 37C11.5788 37 12.9082 35.6535 12.9082 34.0078V22.039C12.9082 20.3933 11.5788 19.0468 9.95408 19.0468C8.32934 19.0468 7 20.3933 7 22.039V34.0078C7 35.6535 8.32934 37 9.95408 37Z"
          fill="white"/>
    <path d="M7 22C7 20.3431 8.34315 19 10 19C11.6569 19 13 20.3431 13 22V34C13 35.6569 11.6569 37 10 37C8.34315 37 7 35.6569 7 34V22Z"
          fill="#21C68B"/>
    <path fill-rule="evenodd" clip-rule="evenodd"
          d="M24.1874 7.96413C25.4393 6.67775 27.4656 6.68746 28.7239 7.94033L28.7299 7.94636C29.5007 8.72707 29.815 9.82826 29.6049 10.8923L29.6036 10.8992L28.4462 16.5507H35.566C39.4792 16.5507 42.0726 20.5911 40.565 24.1907L40.5636 24.1939L35.7452 35.5869C35.1194 37.0329 33.7031 38 32.1097 38H18.8163C16.6272 38 14.8622 36.1937 14.8622 34.0078V22.039C14.8622 21.4867 15.31 21.039 15.8622 21.039C16.4145 21.039 16.8622 21.4867 16.8622 22.039V34.0078C16.8622 35.1133 17.7559 36 18.8163 36H32.1097C32.8784 36 33.588 35.5323 33.9082 34.796L38.7202 23.4181C38.7205 23.4175 38.7207 23.417 38.7209 23.4164C39.6932 21.092 38.0034 18.5507 35.566 18.5507H25.9951L27.6428 10.5049C27.643 10.5039 27.6432 10.5029 27.6434 10.5019C27.7272 10.0723 27.5996 9.65018 27.3096 9.35453C26.826 8.87607 26.08 8.88568 25.6193 9.36036L25.6134 9.36649L19.5279 15.5304C19.1399 15.9234 18.5068 15.9275 18.1138 15.5395C17.7207 15.1514 17.7167 14.5183 18.1047 14.1253L24.1874 7.96413ZM6 22.039C6 19.8532 7.765 18.0468 9.95408 18.0468C12.1432 18.0468 13.9082 19.8532 13.9082 22.039V34.0078C13.9082 36.1937 12.1432 38 9.95408 38C7.765 38 6 36.1937 6 34.0078V22.039ZM9.95408 20.0468C8.89367 20.0468 8 20.9335 8 22.039V34.0078C8 35.1134 8.89367 36 9.95408 36C11.0145 36 11.9082 35.1134 11.9082 34.0078V22.039C11.9082 20.9335 11.0145 20.0468 9.95408 20.0468Z"
          fill="#231F20"/>
</svg>
