<svg width="48" height="48" viewBox="0 0 48 48" fill="none" xmlns="http://www.w3.org/2000/svg">
    <path d="M39.52 11.43C36.31 8.21999 31.09 8.21999 27.88 11.43L24.55 14.76L20.6 18.71C20.1 19.21 19.68 19.77 19.34 20.36C18.75 20.71 18.2 21.12 17.69 21.62L10.42 28.89C7.21001 32.1 7.21001 37.32 10.42 40.53C13.63 43.74 18.85 43.74 22.06 40.53L29.33 33.26C29.83 32.76 30.25 32.2 30.59 31.61C31.18 31.26 31.73 30.85 32.24 30.35L39.51 23.08C42.74 19.85 42.74 14.64 39.52 11.43ZM26.59 27.59C25.75 27.63 24.89 27.35 24.25 26.7C23.61 26.06 23.32 25.2 23.36 24.36C24.2 24.32 25.06 24.6 25.7 25.25C26.34 25.9 26.64 26.75 26.59 27.59ZM18.43 36.89C17.22 38.1 15.27 38.1 14.07 36.89C12.86 35.68 12.86 33.73 14.07 32.53L18.9998 27.5C19.9998 28 20.7198 28.23 21.4998 29C22.2798 29.77 22.28 31.7 23.23 32.11L18.43 36.89ZM35.89 19.43L31.1 24.22C30.7 23.27 30.12 22.38 29.34 21.61C28.57 20.84 27.68 20.26 26.73 19.85L31.52 15.06C32.73 13.85 34.68 13.85 35.88 15.06C37.09 16.27 37.09 18.22 35.89 19.43Z"
          fill="#BEDCE3"/>
    <path d="M38.52 8.42999C35.31 5.21999 30.09 5.21999 26.88 8.42999L23.55 11.76L19.6 15.71C19.1 16.21 18.68 16.77 18.34 17.36C17.75 17.71 17.2 18.12 16.69 18.62L9.42001 25.89C6.21001 29.1 6.21001 34.32 9.42001 37.53C12.63 40.74 17.85 40.74 21.06 37.53L28.33 30.26C28.83 29.76 29.25 29.2 29.59 28.61C30.18 28.26 30.73 27.85 31.24 27.35L38.51 20.08C41.74 16.85 41.74 11.64 38.52 8.42999ZM25.59 24.59C24.75 24.63 23.89 24.35 23.25 23.7C22.61 23.06 22.32 22.2 22.36 21.36C23.2 21.32 24.06 21.6 24.7 22.25C25.34 22.9 25.64 23.75 25.59 24.59ZM17.43 33.89C16.22 35.1 14.27 35.1 13.07 33.89C11.87 32.68 11.86 30.73 13.07 29.53L17.86 24.74C18.26 25.69 18.84 26.58 19.62 27.35C20.4 28.12 21.28 28.7 22.23 29.11L17.43 33.89ZM34.89 16.43L30.1 21.22C29.7 20.27 29.12 19.38 28.34 18.61C27.56 17.84 26.68 17.26 25.73 16.85L30.52 12.06C31.73 10.85 33.68 10.85 34.88 12.06C36.09 13.27 36.09 15.22 34.89 16.43Z"
          fill="white"/>
    <path d="M39.23 7.71999C35.63 4.11999 29.77 4.11999 26.18 7.71999C25.79 8.10999 25.79 8.73999 26.18 9.12999C26.57 9.51999 27.2 9.51999 27.59 9.12999C30.41 6.30999 35 6.30999 37.82 9.12999C40.64 11.95 40.64 16.54 37.82 19.36L31.68 25.5C31.84 24.15 31.69 22.78 31.26 21.48L35.6 17.14C37.19 15.55 37.19 12.95 35.6 11.36C34.83 10.59 33.8 10.16 32.71 10.16C31.62 10.16 30.59 10.59 29.82 11.36L22.55 18.63C20.96 20.22 20.96 22.82 22.55 24.41C23.07 24.93 23.69 25.26 24.35 25.44C24.26 25.61 24.15 25.77 24.01 25.91L22.05 27.87C21.43 27.54 20.85 27.14 20.34 26.63C18.97 25.26 18.22 23.45 18.22 21.52C18.22 19.59 18.97 17.77 20.34 16.41L24.28 12.46C24.67 12.07 24.67 11.44 24.28 11.05C23.89 10.66 23.26 10.66 22.87 11.05L18.9 14.99C18.4 15.49 17.97 16.04 17.61 16.63C17.03 16.99 16.49 17.41 15.99 17.9L8.71999 25.17C5.11999 28.77 5.11999 34.62 8.71999 38.22C10.52 40.02 12.88 40.92 15.25 40.92C17.62 40.92 19.98 40.02 21.78 38.22L29.05 30.95C29.55 30.45 29.98 29.9 30.34 29.32C30.92 28.96 31.46 28.54 31.96 28.04L39.23 20.77C42.83 17.17 42.83 11.32 39.23 7.71999ZM31.23 12.77C31.62 12.38 32.15 12.16 32.71 12.16C33.27 12.16 33.79 12.38 34.18 12.77C34.99 13.58 34.99 14.91 34.18 15.72L30.35 19.55C29.99 18.96 29.56 18.41 29.05 17.9C28.54 17.39 27.98 16.98 27.38 16.62L31.23 12.77ZM18.9 28.05C19.41 28.56 19.97 28.97 20.56 29.34L16.71 33.19C15.9 34 14.57 34 13.76 33.19C13.37 32.8 13.15 32.27 13.15 31.71C13.15 31.15 13.37 30.63 13.76 30.23L17.59 26.4C17.97 26.99 18.4 27.54 18.9 28.05ZM27.63 29.54L20.36 36.81C17.54 39.63 12.95 39.63 10.13 36.81C7.30999 33.99 7.30999 29.4 10.13 26.59L16.26 20.46C16.22 20.81 16.19 21.16 16.19 21.52C16.19 22.54 16.36 23.54 16.68 24.48L12.34 28.82C11.57 29.59 11.14 30.62 11.14 31.71C11.14 32.8 11.57 33.83 12.34 34.6C13.14 35.4 14.18 35.8 15.23 35.8C16.28 35.8 17.32 35.4 18.12 34.6L25.39 27.33C26.16 26.56 26.59 25.53 26.59 24.44C26.59 23.35 26.17 22.32 25.39 21.55C24.88 21.04 24.25 20.7 23.6 20.52C23.69 20.36 23.8 20.2 23.94 20.06L25.92 18.08C26.54 18.41 27.11 18.82 27.62 19.33C28.99 20.7 29.74 22.51 29.74 24.44C29.75 26.36 29 28.18 27.63 29.54Z"
          fill="#231F20"/>
    <path d="M14.38 14.38C14.12 14.38 13.87 14.28 13.67 14.09L11.12 11.54C10.73 11.15 10.73 10.52 11.12 10.13C11.51 9.73999 12.14 9.73999 12.53 10.13L15.08 12.68C15.47 13.07 15.47 13.7 15.08 14.09C14.89 14.28 14.63 14.38 14.38 14.38Z"
          fill="#F05023"/>
    <path d="M36.12 36.12C35.86 36.12 35.61 36.02 35.41 35.83L32.86 33.28C32.47 32.89 32.47 32.26 32.86 31.87C33.25 31.48 33.88 31.48 34.27 31.87L36.82 34.42C37.21 34.81 37.21 35.44 36.82 35.83C36.63 36.02 36.38 36.12 36.12 36.12Z"
          fill="#F05023"/>
    <path d="M10.48 17.94C10.39 17.94 10.31 17.93 10.22 17.91L6.74 16.98C6.21 16.84 5.89 16.29 6.03 15.76C6.17 15.23 6.72 14.91 7.25 15.05L10.73 15.98C11.26 16.12 11.58 16.67 11.44 17.2C11.32 17.64 10.92 17.94 10.48 17.94Z"
          fill="#F05023"/>
    <path d="M30.95 40.95C30.51 40.95 30.1 40.66 29.99 40.21L29.06 36.73C28.92 36.2 29.23 35.65 29.77 35.51C30.3 35.37 30.85 35.68 30.99 36.22L31.92 39.7C32.06 40.23 31.75 40.78 31.21 40.92C31.12 40.94 31.03 40.95 30.95 40.95Z"
          fill="#F05023"/>
    <path d="M17.93 10.48C17.49 10.48 17.08 10.19 16.96 9.73998L16.03 6.25999C15.89 5.72999 16.2 5.17999 16.74 5.03999C17.27 4.89999 17.82 5.20999 17.96 5.74999L18.89 9.22999C19.03 9.75998 18.72 10.31 18.18 10.45C18.11 10.47 18.02 10.48 17.93 10.48Z"
          fill="#F05023"/>
    <path d="M40.95 30.95C40.86 30.95 40.78 30.94 40.69 30.92L37.21 29.99C36.68 29.85 36.36 29.3 36.5 28.77C36.64 28.24 37.19 27.92 37.72 28.06L41.2 28.99C41.73 29.13 42.05 29.68 41.91 30.21C41.8 30.65 41.39 30.95 40.95 30.95Z"
          fill="#F05023"/>
</svg>
