<svg width="48" height="48" viewBox="0 0 48 48" fill="none" xmlns="http://www.w3.org/2000/svg">
<path d="M39.5202 11.43C36.3102 8.21999 31.0902 8.21999 27.8802 11.43L24.5502 14.76L20.6002 18.71C20.1002 19.21 19.6802 19.77 19.3402 20.36C18.7502 20.71 18.2002 21.12 17.6902 21.62L10.4202 28.89C7.2102 32.1 7.2102 37.32 10.4202 40.53C13.6302 43.74 18.8502 43.74 22.0602 40.53L29.3302 33.26C29.8302 32.76 30.2502 32.2 30.5902 31.61C31.1802 31.26 31.7302 30.85 32.2402 30.35L39.5102 23.08C42.7402 19.85 42.7402 14.64 39.5202 11.43ZM26.5902 27.59C25.7502 27.63 24.8902 27.35 24.2502 26.7C23.6102 26.06 23.3202 25.2 23.3602 24.36C24.2002 24.32 25.0602 24.6 25.7002 25.25C26.3402 25.9 26.6402 26.75 26.5902 27.59ZM18.4302 36.89C17.2202 38.1 15.2702 38.1 14.0702 36.89C12.8602 35.68 12.8602 33.73 14.0702 32.53L19 27.5C20 28 20.72 28.23 21.5 29C22.28 29.77 22.2802 31.7 23.2302 32.11L18.4302 36.89ZM35.8902 19.43L31.1002 24.22C30.7002 23.27 30.1202 22.38 29.3402 21.61C28.5702 20.84 27.6802 20.26 26.7302 19.85L31.5202 15.06C32.7302 13.85 34.6802 13.85 35.8802 15.06C37.0902 16.27 37.0902 18.22 35.8902 19.43Z" fill="#BEDCE3"/>
<path d="M38.5202 8.42999C35.3102 5.21999 30.0902 5.21999 26.8802 8.42999L23.5502 11.76L19.6002 15.71C19.1002 16.21 18.6802 16.77 18.3402 17.36C17.7502 17.71 17.2002 18.12 16.6902 18.62L9.4202 25.89C6.2102 29.1 6.2102 34.32 9.4202 37.53C12.6302 40.74 17.8502 40.74 21.0602 37.53L28.3302 30.26C28.8302 29.76 29.2502 29.2 29.5902 28.61C30.1802 28.26 30.7302 27.85 31.2402 27.35L38.5102 20.08C41.7402 16.85 41.7402 11.64 38.5202 8.42999ZM25.5902 24.59C24.7502 24.63 23.8902 24.35 23.2502 23.7C22.6102 23.06 22.3202 22.2 22.3602 21.36C23.2002 21.32 24.0602 21.6 24.7002 22.25C25.3402 22.9 25.6402 23.75 25.5902 24.59ZM17.4302 33.89C16.2202 35.1 14.2702 35.1 13.0702 33.89C11.8702 32.68 11.8602 30.73 13.0702 29.53L17.8602 24.74C18.2602 25.69 18.8402 26.58 19.6202 27.35C20.4002 28.12 21.2802 28.7 22.2302 29.11L17.4302 33.89ZM34.8902 16.43L30.1002 21.22C29.7002 20.27 29.1202 19.38 28.3402 18.61C27.5602 17.84 26.6802 17.26 25.7302 16.85L30.5202 12.06C31.7302 10.85 33.6802 10.85 34.8802 12.06C36.0902 13.27 36.0902 15.22 34.8902 16.43Z" fill="white"/>
<path d="M39.23 7.71999C35.63 4.11999 29.77 4.11999 26.18 7.71999C25.79 8.10999 25.79 8.73999 26.18 9.12999C26.57 9.51999 27.2 9.51999 27.59 9.12999C30.41 6.30999 35 6.30999 37.82 9.12999C40.64 11.95 40.64 16.54 37.82 19.36L31.68 25.5C31.84 24.15 31.69 22.78 31.26 21.48L35.6 17.14C37.19 15.55 37.19 12.95 35.6 11.36C34.83 10.59 33.8 10.16 32.71 10.16C31.62 10.16 30.59 10.59 29.82 11.36L22.55 18.63C20.96 20.22 20.96 22.82 22.55 24.41C23.07 24.93 23.69 25.26 24.35 25.44C24.26 25.61 24.15 25.77 24.01 25.91L22.05 27.87C21.43 27.54 20.85 27.14 20.34 26.63C18.97 25.26 18.22 23.45 18.22 21.52C18.22 19.59 18.97 17.77 20.34 16.41L24.28 12.46C24.67 12.07 24.67 11.44 24.28 11.05C23.89 10.66 23.26 10.66 22.87 11.05L18.9 14.99C18.4 15.49 17.97 16.04 17.61 16.63C17.03 16.99 16.49 17.41 15.99 17.9L8.72002 25.17C5.12002 28.77 5.12002 34.62 8.72002 38.22C10.52 40.02 12.88 40.92 15.25 40.92C17.62 40.92 19.98 40.02 21.78 38.22L29.05 30.95C29.55 30.45 29.98 29.9 30.34 29.32C30.92 28.96 31.46 28.54 31.96 28.04L39.23 20.77C42.83 17.17 42.83 11.32 39.23 7.71999ZM31.23 12.77C31.62 12.38 32.15 12.16 32.71 12.16C33.27 12.16 33.79 12.38 34.18 12.77C34.99 13.58 34.99 14.91 34.18 15.72L30.35 19.55C29.99 18.96 29.56 18.41 29.05 17.9C28.54 17.39 27.98 16.98 27.38 16.62L31.23 12.77ZM18.9 28.05C19.41 28.56 19.97 28.97 20.56 29.34L16.71 33.19C15.9 34 14.57 34 13.76 33.19C13.37 32.8 13.15 32.27 13.15 31.71C13.15 31.15 13.37 30.63 13.76 30.23L17.59 26.4C17.97 26.99 18.4 27.54 18.9 28.05ZM27.63 29.54L20.36 36.81C17.54 39.63 12.95 39.63 10.13 36.81C7.31002 33.99 7.31002 29.4 10.13 26.59L16.26 20.46C16.22 20.81 16.19 21.16 16.19 21.52C16.19 22.54 16.36 23.54 16.68 24.48L12.34 28.82C11.57 29.59 11.14 30.62 11.14 31.71C11.14 32.8 11.57 33.83 12.34 34.6C13.14 35.4 14.18 35.8 15.23 35.8C16.28 35.8 17.32 35.4 18.12 34.6L25.39 27.33C26.16 26.56 26.59 25.53 26.59 24.44C26.59 23.35 26.17 22.32 25.39 21.55C24.88 21.04 24.25 20.7 23.6 20.52C23.69 20.36 23.8 20.2 23.94 20.06L25.92 18.08C26.54 18.41 27.11 18.82 27.62 19.33C28.99 20.7 29.74 22.51 29.74 24.44C29.75 26.36 29 28.18 27.63 29.54Z" fill="black"/>
<path d="M14.3801 14.38C14.1201 14.38 13.8701 14.28 13.6701 14.09L11.1201 11.54C10.7301 11.15 10.7301 10.52 11.1201 10.13C11.5101 9.73999 12.1401 9.73999 12.5301 10.13L15.0801 12.68C15.4701 13.07 15.4701 13.7 15.0801 14.09C14.8901 14.28 14.6301 14.38 14.3801 14.38Z" fill="#F05023"/>
<path d="M36.1199 36.12C35.8599 36.12 35.6099 36.02 35.4099 35.83L32.8599 33.28C32.4699 32.89 32.4699 32.26 32.8599 31.87C33.2499 31.48 33.8799 31.48 34.2699 31.87L36.8199 34.42C37.2099 34.81 37.2099 35.44 36.8199 35.83C36.6299 36.02 36.3799 36.12 36.1199 36.12Z" fill="#F05023"/>
<path d="M10.48 17.94C10.39 17.94 10.31 17.93 10.22 17.91L6.73997 16.98C6.20997 16.84 5.88997 16.29 6.02997 15.76C6.16997 15.23 6.71997 14.91 7.24997 15.05L10.73 15.98C11.26 16.12 11.58 16.67 11.44 17.2C11.32 17.64 10.92 17.94 10.48 17.94Z" fill="#F05023"/>
<path d="M30.9499 40.95C30.5099 40.95 30.0999 40.66 29.9899 40.21L29.0599 36.73C28.9199 36.2 29.2299 35.65 29.7699 35.51C30.2999 35.37 30.8499 35.68 30.9899 36.22L31.9199 39.7C32.0599 40.23 31.7499 40.78 31.2099 40.92C31.1199 40.94 31.0299 40.95 30.9499 40.95Z" fill="#F05023"/>
<path d="M17.9301 10.48C17.4901 10.48 17.0801 10.19 16.9601 9.73998L16.0301 6.25999C15.8901 5.72999 16.2001 5.17999 16.7401 5.03999C17.2701 4.89999 17.8201 5.20999 17.9601 5.74999L18.8901 9.22999C19.0301 9.75998 18.7201 10.31 18.1801 10.45C18.1101 10.47 18.0201 10.48 17.9301 10.48Z" fill="#F05023"/>
<path d="M40.9502 30.95C40.8602 30.95 40.7802 30.94 40.6902 30.92L37.2102 29.99C36.6802 29.85 36.3602 29.3 36.5002 28.77C36.6402 28.24 37.1902 27.92 37.7202 28.06L41.2002 28.99C41.7302 29.13 42.0502 29.68 41.9102 30.21C41.8002 30.65 41.3902 30.95 40.9502 30.95Z" fill="#F05023"/>
</svg>
