<svg width="64" height="64" viewBox="0 0 64 64" fill="none" xmlns="http://www.w3.org/2000/svg">
<path d="M9.3335 28C9.3335 23.5817 12.9152 20 17.3335 20H54.6668C59.0851 20 62.6668 23.5817 62.6668 28V49.3333C62.6668 53.7516 59.0851 57.3333 54.6668 57.3333H17.3335C12.9152 57.3333 9.3335 53.7516 9.3335 49.3333V28Z" fill="#BEDCE3"/>
<path d="M4 22.6667C4 18.2485 7.58172 14.6667 12 14.6667H49.3333C53.7516 14.6667 57.3333 18.2485 57.3333 22.6667V44.0001C57.3333 48.4184 53.7516 52.0001 49.3333 52.0001H12C7.58172 52.0001 4 48.4184 4 44.0001V22.6667Z" fill="white"/>
<path fill-rule="evenodd" clip-rule="evenodd" d="M12.2372 21.9078C12.6564 21.3024 13.487 21.1514 14.0924 21.5705L31.4257 33.5705C32.0312 33.9897 32.1822 34.8203 31.763 35.4257C31.3439 36.0312 30.5133 36.1822 29.9078 35.763L12.5745 23.763C11.9691 23.3439 11.818 22.5133 12.2372 21.9078Z" fill="black"/>
<path fill-rule="evenodd" clip-rule="evenodd" d="M55.7477 16.5528C56.1788 17.1497 56.0444 17.9832 55.4474 18.4143L31.4474 35.7477C30.8505 36.1788 30.017 36.0444 29.5859 35.4474C29.1547 34.8505 29.2892 34.017 29.8861 33.5859L53.8861 16.2525C54.4831 15.8214 55.3165 15.9558 55.7477 16.5528Z" fill="black"/>
<path fill-rule="evenodd" clip-rule="evenodd" d="M15.9998 14.6666C15.9998 13.9302 16.5968 13.3333 17.3332 13.3333H49.3332C54.4878 13.3333 58.6665 17.5119 58.6665 22.6666V43.9999C58.6665 49.1546 54.4878 53.3333 49.3332 53.3333H11.9998C6.84518 53.3333 2.6665 49.1546 2.6665 43.9999V27.9999C2.6665 27.2635 3.26346 26.6666 3.99984 26.6666C4.73622 26.6666 5.33317 27.2635 5.33317 27.9999V43.9999C5.33317 47.6818 8.31794 50.6666 11.9998 50.6666H49.3332C53.0151 50.6666 55.9998 47.6818 55.9998 43.9999V22.6666C55.9998 18.9847 53.0151 15.9999 49.3332 15.9999H17.3332C16.5968 15.9999 15.9998 15.403 15.9998 14.6666Z" fill="black"/>
<path d="M59.9998 17.3334C59.9998 23.2245 55.2242 28.0001 49.3332 28.0001C43.4421 28.0001 38.6665 23.2245 38.6665 17.3334C38.6665 11.4424 43.4421 6.66675 49.3332 6.66675C55.2242 6.66675 59.9998 11.4424 59.9998 17.3334Z" fill="#F05023"/>
<path fill-rule="evenodd" clip-rule="evenodd" d="M49.3335 7.99992C44.1788 7.99992 40.0002 12.1786 40.0002 17.3333C40.0002 22.4879 44.1788 26.6666 49.3335 26.6666C54.4882 26.6666 58.6668 22.4879 58.6668 17.3333C58.6668 12.1786 54.4882 7.99992 49.3335 7.99992ZM37.3335 17.3333C37.3335 10.7058 42.7061 5.33325 49.3335 5.33325C55.9609 5.33325 61.3335 10.7058 61.3335 17.3333C61.3335 23.9607 55.9609 29.3333 49.3335 29.3333C42.7061 29.3333 37.3335 23.9607 37.3335 17.3333Z" fill="black"/>
<path fill-rule="evenodd" clip-rule="evenodd" d="M51.1767 12.1015C51.675 12.3079 51.9998 12.7941 51.9998 13.3334V21.3334C51.9998 22.0698 51.4029 22.6667 50.6665 22.6667C49.9301 22.6667 49.3332 22.0698 49.3332 21.3334V16.5523L48.9426 16.9428C48.4219 17.4635 47.5777 17.4635 47.057 16.9428C46.5363 16.4221 46.5363 15.5779 47.057 15.0572L49.7237 12.3906C50.105 12.0092 50.6785 11.8952 51.1767 12.1015Z" fill="white"/>
</svg>
