<svg width="48" height="48" viewBox="0 0 48 48" fill="none" xmlns="http://www.w3.org/2000/svg">
    <path d="M10 23.1602C10 22.8058 10.1875 22.4779 10.493 22.2983L27.493 12.2983C27.8059 12.1142 28.1941 12.1142 28.507 12.2983L45.507 22.2983C45.8125 22.4779 46 22.8058 46 23.1602V41.7647C46 42.317 45.5523 42.7647 45 42.7647H11C10.4477 42.7647 10 42.317 10 41.7647V23.1602Z"
          fill="#29889E" fill-opacity="0.3"/>
    <path d="M6 19.1602C6 18.8058 6.18754 18.4779 6.49298 18.2983L23.493 8.29825C23.8059 8.11417 24.1941 8.11416 24.507 8.29825L41.507 18.2983C41.8125 18.4779 42 18.8058 42 19.1602V37.7647C42 38.317 41.5523 38.7647 41 38.7647H7C6.44772 38.7647 6 38.317 6 37.7647V19.1602Z"
          fill="white"/>
    <path fill-rule="evenodd" clip-rule="evenodd"
          d="M22.986 7.43632C23.6119 7.06814 24.3881 7.06814 25.014 7.43632L42.014 17.4363C42.6249 17.7957 43 18.4515 43 19.1602V37.7647C43 38.8693 42.1046 39.7647 41 39.7647H7C5.89543 39.7647 5 38.8693 5 37.7647V19.1602C5 18.4515 5.37508 17.7957 5.98596 17.4363L22.986 7.43632ZM41 19.1602L24 9.16019L7 19.1602V37.7647H41L41 19.1602Z"
          fill="#231F20"/>
    <path d="M12 12.8C12 11.8059 12.8266 11 13.8462 11H34.1538C35.1734 11 36 11.8059 36 12.8V27.2C36 28.1941 35.1734 29 34.1538 29H13.8462C12.8266 29 12 28.1941 12 27.2V12.8Z"
          fill="white"/>
    <path fill-rule="evenodd" clip-rule="evenodd"
          d="M17 15C16.4477 15 16 15.4477 16 16C16 16.5523 16.4477 17 17 17H31C31.5523 17 32 16.5523 32 16C32 15.4477 31.5523 15 31 15H17ZM17 19C16.4477 19 16 19.4477 16 20C16 20.5523 16.4477 21 17 21H31C31.5523 21 32 20.5523 32 20C32 19.4477 31.5523 19 31 19H17Z"
          fill="#BEDCE3"/>
    <path fill-rule="evenodd" clip-rule="evenodd"
          d="M25.0132 29.5642C24.3882 29.9318 23.6132 29.9324 22.9877 29.5657L8.9943 21.3627C8.51785 21.0834 8.35802 20.4707 8.63733 19.9943C8.91663 19.5178 9.52929 19.358 10.0057 19.6373L23.9991 27.8403L40.493 18.1381C40.969 17.858 41.5819 18.0169 41.862 18.493C42.142 18.969 41.9831 19.5819 41.507 19.8619L25.0132 29.5642Z"
          fill="#231F20"/>
    <path fill-rule="evenodd" clip-rule="evenodd"
          d="M14 10C12.3431 10 11 11.3431 11 13V21.3555H13V13C13 12.4477 13.4477 12 14 12H34C34.5523 12 35 12.4477 35 13V21.3555H37V13C37 11.3431 35.6569 10 34 10H14Z"
          fill="#231F20"/>
</svg>
