<svg width="64" height="64" viewBox="0 0 64 64" fill="none" xmlns="http://www.w3.org/2000/svg">
<g clip-path="url(#clip0)">
<path d="M56.8298 23H8.17977C5.86977 23 4.41977 20.51 5.56977 18.5L12.1298 8.51C12.6698 7.58 13.6698 7 14.7498 7H50.2698C51.3498 7 52.3498 7.58 52.8798 8.51L59.4398 18.5C60.5898 20.51 59.1398 23 56.8298 23Z" fill="#F05023"/>
<path d="M50.1699 60.5H22.1699C19.9699 60.5 18.1699 58.7 18.1699 56.5V23.5H54.1699V56.5C54.1699 58.7 52.3699 60.5 50.1699 60.5Z" fill="#BEDCE3"/>
<path d="M48.6699 55.0185H15.6699C13.4699 55.0185 11.6699 53.192 11.6699 50.9597V23.4814H52.6699V50.9597C52.6699 53.192 50.8699 55.0185 48.6699 55.0185Z" fill="white"/>
<path d="M48.6699 56.5H15.6699C12.6399 56.5 10.1699 54.0647 10.1699 51.0713V22H54.1699V51.0713C54.1699 54.0647 51.6999 56.5 48.6699 56.5ZM13.1699 24.9528V51.0713C13.1699 52.431 14.2899 53.5371 15.6699 53.5371H48.6599C50.0399 53.5371 51.1599 52.431 51.1599 51.0713V24.9528H13.1699Z" fill="#231F20"/>
<path d="M56.1599 25H7.50991C5.88991 25 4.42991 24.16 3.60991 22.75C2.78991 21.34 2.78991 19.66 3.59991 18.25C4.00991 17.53 4.92991 17.28 5.64991 17.69C6.36991 18.1 6.61991 19.02 6.20991 19.74C5.81991 20.42 6.07991 21.02 6.20991 21.24C6.33991 21.48 6.72991 22 7.50991 22H56.1599C56.9399 22 57.3299 21.48 57.4599 21.25C57.5899 21.02 57.8499 20.43 57.4599 19.75L50.9399 9.84C50.6399 9.29 50.1399 9 49.5999 9H16.8999C16.0699 9 15.3999 8.33 15.3999 7.5C15.3999 6.67 16.0699 6 16.8899 6H49.5899C51.1999 6 52.6999 6.87 53.4999 8.27L60.0199 18.18C60.8699 19.67 60.8699 21.35 60.0499 22.76C59.2399 24.16 57.7899 25 56.1599 25Z" fill="#231F20"/>
<path d="M38.6699 55H25.6699V40C25.6699 38.9 26.5599 38 27.6699 38H36.6799C37.7799 38 38.6799 38.89 38.6799 40V55H38.6699Z" fill="white"/>
<path d="M40.1699 56.5H24.1699V40C24.1699 38.07 25.7399 36.5 27.6699 36.5H36.6799C38.6099 36.5 40.1799 38.07 40.1799 40V56.5H40.1699ZM27.1699 53.5H37.1699V40C37.1699 39.73 36.9499 39.5 36.6699 39.5H27.6599C27.3899 39.5 27.1599 39.72 27.1599 40V53.5H27.1699Z" fill="#231F20"/>
</g>
<defs>
<clipPath id="clip0">
<rect width="57.67" height="54.5" fill="white" transform="translate(3 6)"/>
</clipPath>
</defs>
</svg>
