<svg width="48" height="48" viewBox="0 0 48 48" fill="none" xmlns="http://www.w3.org/2000/svg">
    <path d="M25.3999 44.9L11.3999 30.8C9.8999 29.3 9.8999 26.9 11.3999 25.4L25.3999 11.4C26.8999 9.9 29.2999 9.9 30.7999 11.4L44.8999 25.5C46.3999 27 46.3999 29.4 44.8999 30.9L30.7999 44.9C29.2999 46.4 26.8999 46.4 25.3999 44.9Z"
          fill="#BEDCE3"/>
    <path d="M21.3 40.8L7.19996 26.7C5.69996 25.2 5.69996 22.8 7.19996 21.3L21.3 7.2C22.8 5.7 25.2 5.7 26.7 7.2L40.8 21.3C42.3 22.8 42.3 25.2 40.8 26.7L26.7 40.8C25.2 42.2 22.8 42.2 21.3 40.8Z"
          fill="white"/>
    <path fill-rule="evenodd" clip-rule="evenodd"
          d="M25.6672 7.68045C24.7768 6.72162 23.2316 6.68252 22.2071 7.7071L18.3071 11.6071C17.9165 11.9976 17.2834 11.9976 16.8928 11.6071C16.5023 11.2166 16.5023 10.5834 16.8928 10.1929L20.7928 6.29289C22.5636 4.52211 25.4082 4.47859 27.1193 6.30516L31.0071 10.1929C31.3976 10.5834 31.3976 11.2166 31.0071 11.6071C30.6165 11.9976 29.9834 11.9976 29.5928 11.6071L25.6798 7.69401L25.6672 7.68045Z"
          fill="#231F20"/>
    <path fill-rule="evenodd" clip-rule="evenodd"
          d="M16.9928 36.3929C17.3834 36.0024 18.0165 36.0024 18.4071 36.3929L22.3201 40.306L22.3327 40.3195C23.2231 41.2784 24.7683 41.3175 25.7928 40.2929L29.6928 36.3929C30.0834 36.0024 30.7165 36.0024 31.1071 36.3929C31.4976 36.7834 31.4976 37.4166 31.1071 37.8071L27.2071 41.7071C25.4363 43.4779 22.5917 43.5214 20.8806 41.6948L16.9928 37.8071C16.6023 37.4166 16.6023 36.7834 16.9928 36.3929Z"
          fill="#231F20"/>
    <path fill-rule="evenodd" clip-rule="evenodd"
          d="M36.3928 16.8929C36.7834 16.5024 37.4165 16.5024 37.8071 16.8929L41.7071 20.7929C43.4778 22.5637 43.5214 25.4082 41.6948 27.1194L37.8071 31.0071C37.4165 31.3976 36.7834 31.3976 36.3928 31.0071C36.0023 30.6166 36.0023 29.9834 36.3928 29.5929L40.3059 25.6798L40.3195 25.6672C41.2783 24.7769 41.3174 23.2317 40.2928 22.2071L36.3928 18.3071C36.0023 17.9166 36.0023 17.2834 36.3928 16.8929Z"
          fill="#231F20"/>
    <path fill-rule="evenodd" clip-rule="evenodd"
          d="M11.6071 16.9929C11.9976 17.3834 11.9976 18.0166 11.6071 18.4071L7.69397 22.3202L7.68041 22.3328C6.72158 23.2231 6.68248 24.7683 7.70706 25.7929L11.6071 29.6929C11.9976 30.0834 11.9976 30.7166 11.6071 31.1071C11.2165 31.4976 10.5834 31.4976 10.1928 31.1071L6.29285 27.2071C4.52207 25.4363 4.47854 22.5918 6.30511 20.8806L10.1928 16.9929C10.5834 16.6024 11.2165 16.6024 11.6071 16.9929Z"
          fill="#231F20"/>
    <path fill-rule="evenodd" clip-rule="evenodd"
          d="M17.6 16C16.7164 16 16 16.7163 16 17.6V19.2V22.4V25.6V28.8V30.4C16 31.2837 16.7164 32 17.6 32H19.2H22.4H25.6H28.8H30.4C31.2837 32 32 31.2837 32 30.4V28.8H28.8V25.6H32V22.4H28.8V19.2H32V17.6C32 16.7163 31.2837 16 30.4 16H28.8V19.2H25.6V22.4H22.4V19.2H19.2V16H17.6ZM22.4 25.6H19.2V22.4H22.4V25.6ZM25.6 25.6V22.4H28.8V25.6H25.6ZM25.6 28.8V25.6H22.4V28.8H25.6Z"
          fill="#F05023"/>
</svg>
