<svg width="48" height="48" viewBox="0 0 48 48" fill="none" xmlns="http://www.w3.org/2000/svg">
<path fill-rule="evenodd" clip-rule="evenodd" d="M17.0174 12C15.2314 12 13.6619 13.1839 13.1713 14.9011L10.7286 23.4506C10.3635 24.7282 11.3228 26 12.6516 26H14.0001V40C14.0001 42.2091 15.791 44 18.0001 44H38.0001C40.2093 44 42.0001 42.2091 42.0001 40V25.7848C43.9393 25.1196 45.1471 23.0144 44.5433 20.9011L42.829 14.9011C42.3384 13.1839 40.7689 12 38.9829 12H38.0001H35.0001H21.0001H18.0001H17.0174Z" fill="#BEDCE3"/>
<path d="M10 12C10 9.79086 11.7909 8 14 8H34C36.2091 8 38 9.79086 38 12V36C38 38.2091 36.2091 40 34 40H14C11.7909 40 10 38.2091 10 36V12Z" fill="white"/>
<path d="M9 36V22H11V36C11 37.6569 12.3431 39 14 39H18C18.5523 39 19 38.5523 19 38V28C19 26.3431 20.3431 25 22 25H26C27.6569 25 29 26.3431 29 28V38C29 38.5523 29.4477 39 30 39H34C35.6569 39 37 37.6569 37 36V12C37 10.3431 35.6569 9 34 9H17V7H34C36.7614 7 39 9.23858 39 12V36C39 38.7614 36.7614 41 34 41H30C28.3431 41 27 39.6569 27 38V28C27 27.4477 26.5523 27 26 27H22C21.4477 27 21 27.4477 21 28V38C21 39.6569 19.6569 41 18 41H14C11.2386 41 9 38.7614 9 36Z" fill="#231F20"/>
<path d="M9.17092 10.9011C9.66155 9.18391 11.2311 8 13.017 8H16.9998L15.4904 18.5657C15.2089 20.5363 13.5212 22 11.5306 22H11.3027C8.64521 22 6.72656 19.4564 7.45663 16.9011L9.17092 10.9011Z" fill="#F05023"/>
<path fill-rule="evenodd" clip-rule="evenodd" d="M14.0085 8C14.0085 7.44772 14.4562 7 15.0085 7H18.1529L16.4805 18.7071C16.1286 21.1704 14.019 23 11.5307 23H11.3028C7.98095 23 5.58263 19.8205 6.49523 16.6264L6.89555 15.2253C7.04727 14.6942 7.60076 14.3868 8.13179 14.5385C8.66283 14.6902 8.97032 15.2437 8.81859 15.7747L8.41828 17.1758C7.87072 19.0923 9.30971 21 11.3028 21H11.5307C13.0237 21 14.2895 19.9022 14.5006 18.4243L15.8469 9H15.0085C14.4562 9 14.0085 8.55228 14.0085 8Z" fill="#231F20"/>
<path d="M17 8H24V18C24 20.2091 22.2092 22 20 22H19.6121C17.1779 22 15.308 19.844 15.6523 17.4343L17 8Z" fill="#F05023"/>
<path fill-rule="evenodd" clip-rule="evenodd" d="M16.1324 7H24.9997V18C24.9997 20.7614 22.7612 23 19.9997 23H19.6118C16.569 23 14.2317 20.3051 14.662 17.2929L16.1324 7ZM17.867 9L16.6419 17.5757C16.3837 19.383 17.7861 21 19.6118 21H19.9997C21.6566 21 22.9997 19.6569 22.9997 18V9H17.867Z" fill="#231F20"/>
<path d="M31 8H24V18C24 20.2091 25.7909 22 28 22H28.388C30.8222 22 32.692 19.844 32.3478 17.4343L31 8Z" fill="#F05023"/>
<path fill-rule="evenodd" clip-rule="evenodd" d="M23 7H31.8673L33.3377 17.2929C33.768 20.3051 31.4307 23 28.388 23H28C25.2386 23 23 20.7614 23 18V7ZM25 9V18C25 19.6569 26.3431 21 28 21H28.388C30.2136 21 31.616 19.383 31.3578 17.5757L30.1327 9H25Z" fill="#231F20"/>
<path d="M31 8H34.9828C36.7687 8 38.3383 9.18391 38.8289 10.9011L40.5432 16.9011C41.2733 19.4564 39.3546 22 36.6971 22H36.4692C34.4786 22 32.7909 20.5363 32.5094 18.5657L31 8Z" fill="#F05023"/>
<path fill-rule="evenodd" clip-rule="evenodd" d="M29.8472 7H34.983C37.2154 7 39.1773 8.47989 39.7906 10.6264L41.5049 16.6264C42.4175 19.8205 40.0192 23 36.6973 23H36.4694C33.9811 23 31.8715 21.1704 31.5196 18.7071L29.8472 7ZM32.1532 9L33.4995 18.4243C33.7106 19.9022 34.9764 21 36.4694 21H36.6973C38.6904 21 40.1294 19.0923 39.5818 17.1758L37.8675 11.1758C37.4996 9.88793 36.3224 9 34.983 9H32.1532Z" fill="#231F20"/>
</svg>
