<svg width="48" height="48" viewBox="0 0 48 48" fill="none" xmlns="http://www.w3.org/2000/svg">
<path d="M25 44C32.1797 44 38 38.1797 38 31C38 23.8203 32.1797 18 25 18C17.8203 18 12 23.8203 12 31C12 38.1797 17.8203 44 25 44Z" fill="#BEDCE3"/>
<path d="M31 38C38.1797 38 44 32.1797 44 25C44 17.8203 38.1797 12 31 12C23.8203 12 18 17.8203 18 25C18 32.1797 23.8203 38 31 38Z" fill="#BEDCE3"/>
<path d="M21 40C28.1797 40 34 34.1797 34 27C34 19.8203 28.1797 14 21 14C13.8203 14 8 19.8203 8 27C8 34.1797 13.8203 40 21 40Z" fill="#F05023"/>
<path fill-rule="evenodd" clip-rule="evenodd" d="M20 14C20 13.4477 20.4477 13 21 13C28.732 13 35 19.268 35 27C35 34.732 28.732 41 21 41C13.268 41 7 34.732 7 27C7 24.671 7.56948 22.4721 8.57764 20.5378C8.8329 20.0481 9.43685 19.858 9.92661 20.1132C10.4164 20.3685 10.6065 20.9724 10.3512 21.4622C9.48826 23.1179 9 25.0005 9 27C9 33.6274 14.3726 39 21 39C27.6274 39 33 33.6274 33 27C33 20.3726 27.6274 15 21 15C20.4477 15 20 14.5523 20 14Z" fill="#231F20"/>
<path d="M27 34C34.1797 34 40 28.1797 40 21C40 13.8203 34.1797 8 27 8C19.8203 8 14 13.8203 14 21C14 28.1797 19.8203 34 27 34Z" fill="white"/>
<path fill-rule="evenodd" clip-rule="evenodd" d="M27 9C20.3726 9 15 14.3726 15 21C15 27.6274 20.3726 33 27 33C33.6274 33 39 27.6274 39 21C39 14.3726 33.6274 9 27 9ZM13 21C13 13.268 19.268 7 27 7C34.732 7 41 13.268 41 21C41 28.732 34.732 35 27 35C19.268 35 13 28.732 13 21Z" fill="#231F20"/>
<path fill-rule="evenodd" clip-rule="evenodd" d="M27.81 21.5396H26.8747C26.8075 21.5584 26.7372 21.5683 26.6649 21.5683H25.7345V23.0072H26.6649C27.1399 23.0072 27.5303 23.4388 27.5303 23.964C27.5303 24.4892 27.1399 24.9209 26.6649 24.9209H25.7345V26.4748C25.7345 26.9784 25.6305 27.3525 25.4157 27.6115C25.201 27.8705 24.9343 28 24.609 28C24.2707 28 23.9909 27.8705 23.7827 27.6187C23.5745 27.3669 23.4704 26.9856 23.4704 26.4964V24.9209H22.8653C22.3904 24.9209 22 24.4892 22 23.964C22 23.4388 22.3904 23.0072 22.8653 23.0072H23.4704V21.5683H22.8653C22.3904 21.5683 22 21.1367 22 20.6115C22 20.0863 22.3904 19.6547 22.8653 19.6547H23.4704V15.5324C23.4704 14.9784 23.5875 14.5899 23.8152 14.3525C24.0429 14.1151 24.4073 14 24.9083 14H27.81C28.6688 14 29.3325 14.0719 29.7944 14.2158C30.2498 14.3597 30.6467 14.5899 30.9785 14.9137C31.3103 15.2374 31.5641 15.6403 31.7398 16.1079C31.9154 16.5827 32 17.1079 32 17.6978C32 18.9568 31.6487 19.9137 30.946 20.5612C30.2433 21.2158 29.1958 21.5396 27.81 21.5396ZM25.7411 15.8777V19.6547H27.2635C27.797 19.6547 28.2459 19.5899 28.6038 19.4676C28.9616 19.3453 29.2349 19.1439 29.4236 18.8633C29.6122 18.5827 29.7033 18.2158 29.7033 17.7554C29.7033 17.2086 29.5602 16.7626 29.2674 16.4245C28.9421 16.0576 28.272 15.8777 27.2635 15.8777H25.7411Z" fill="#231F20"/>
</svg>
