<svg width="64" height="64" viewBox="0 0 64 64" fill="none" xmlns="http://www.w3.org/2000/svg">
<g clip-path="url(#clip0)">
<path d="M41.9998 51C52.2115 51 60.4898 42.7218 60.4898 32.51C60.4898 22.2983 52.2115 14.02 41.9998 14.02C31.788 14.02 23.5098 22.2983 23.5098 32.51C23.5098 42.7218 31.788 51 41.9998 51Z" fill="#BEDCE3"/>
<path d="M22.9998 56.5C33.2115 56.5 41.4898 48.2218 41.4898 38.01C41.4898 27.7983 33.2115 19.52 22.9998 19.52C12.788 19.52 4.50977 27.7983 4.50977 38.01C4.50977 48.2218 12.788 56.5 22.9998 56.5Z" fill="#F05023"/>
<path d="M22.9799 58.5C20.7299 58.5 18.4399 58.12 16.2099 57.31C5.83989 53.57 0.449886 42.09 4.18989 31.71C4.46989 30.93 5.32989 30.53 6.10989 30.81C6.88989 31.09 7.28989 31.95 7.00989 32.73C3.82989 41.54 8.40989 51.3 17.2199 54.49C21.4899 56.03 26.0999 55.82 30.2099 53.89C34.3199 51.96 37.4299 48.55 38.9699 44.28C39.2499 43.5 40.1099 43.1 40.8899 43.38C41.6699 43.66 42.0699 44.52 41.7899 45.3C38.8699 53.43 31.1699 58.5 22.9799 58.5Z" fill="#231F20"/>
<path d="M37.4998 44.5C47.7115 44.5 55.9898 36.2218 55.9898 26.01C55.9898 15.7983 47.7115 7.52002 37.4998 7.52002C27.288 7.52002 19.0098 15.7983 19.0098 26.01C19.0098 36.2218 27.288 44.5 37.4998 44.5Z" fill="white"/>
<path d="M37.5098 46.0101C35.2198 46.0101 32.9198 45.6101 30.7098 44.8101C25.6798 43.0001 21.6698 39.3401 19.3998 34.5001C17.1298 29.6701 16.8798 24.2401 18.6898 19.2101C20.4998 14.1801 24.1698 10.1801 28.9998 7.91007C33.8298 5.64007 39.2598 5.39007 44.2898 7.20007C49.3098 9.01007 53.3298 12.6801 55.5998 17.5101C57.8698 22.3401 58.1198 27.7701 56.3098 32.8001C54.4998 37.8301 50.8298 41.8401 45.9998 44.1101C43.2898 45.3701 40.4098 46.0101 37.5098 46.0101ZM37.5098 9.01007C30.5498 9.01007 24.0098 13.3201 21.5098 20.2301C18.3298 29.0401 22.9098 38.8001 31.7198 41.9901C40.5298 45.1701 50.2898 40.5901 53.4798 31.7801C56.6598 22.9701 52.0798 13.2101 43.2698 10.0201C41.3698 9.34007 39.4198 9.01007 37.5098 9.01007Z" fill="#231F20"/>
<path d="M39.0396 28.3101H35.8496V35.1701C35.8496 35.8701 35.6896 36.3901 35.3596 36.7501C35.0296 37.1101 34.6196 37.2901 34.1196 37.2901C33.5996 37.2901 33.1696 37.1101 32.8496 36.7601C32.5296 36.4101 32.3696 35.8801 32.3696 35.2001V19.9601C32.3696 19.1901 32.5496 18.6501 32.8996 18.3201C33.2496 17.9901 33.8096 17.8301 34.5796 17.8301H39.0396C40.3596 17.8301 41.3796 17.9301 42.0896 18.1301C42.7896 18.3301 43.3996 18.6501 43.9096 19.1001C44.4196 19.5501 44.8096 20.1101 45.0796 20.7601C45.3496 21.4201 45.4796 22.1501 45.4796 22.9701C45.4796 24.7201 44.9396 26.0501 43.8596 26.9501C42.7796 27.8601 41.1696 28.3101 39.0396 28.3101ZM38.1996 20.4401H35.8596V25.6901H38.1996C39.0196 25.6901 39.7096 25.6001 40.2596 25.4301C40.8096 25.2601 41.2296 24.9801 41.5196 24.5901C41.8096 24.2001 41.9496 23.6901 41.9496 23.0501C41.9496 22.2901 41.7296 21.6701 41.2796 21.2001C40.7796 20.6901 39.7496 20.4401 38.1996 20.4401Z" fill="#231F20"/>
<path d="M37.2799 28.3502H31.4399C30.7099 28.3502 30.1099 27.7502 30.1099 27.0202C30.1099 26.2902 30.7099 25.6902 31.4399 25.6902H37.2799C38.0099 25.6902 38.6099 26.2902 38.6099 27.0202C38.6099 27.7502 38.0099 28.3502 37.2799 28.3502Z" fill="#231F20"/>
<path d="M37.2799 33.0101H31.4399C30.7099 33.0101 30.1099 32.4101 30.1099 31.6801C30.1099 30.9501 30.7099 30.3501 31.4399 30.3501H37.2799C38.0099 30.3501 38.6099 30.9501 38.6099 31.6801C38.6099 32.4101 38.0099 33.0101 37.2799 33.0101Z" fill="#231F20"/>
</g>
<defs>
<clipPath id="clip0">
<rect width="57.5" height="52.5" fill="white" transform="translate(3 6)"/>
</clipPath>
</defs>
</svg>
