<svg width="48" height="48" viewBox="0 0 48 48" fill="none" xmlns="http://www.w3.org/2000/svg">
    <path fill-rule="evenodd" clip-rule="evenodd"
          d="M13.453 28C12.6832 29.3333 13.6455 31 15.1851 31H21.2619L15.2774 44.9962C14.3688 47.1213 17.059 48.941 18.6932 47.3068L41.5858 24.4142C42.8457 23.1543 41.9534 21 40.1716 21H33.6603L40.0111 10C40.7809 8.66667 39.8187 7 38.2791 7H26.7321C26.0175 7 25.3573 7.3812 25 8L13.453 28Z"
          fill="#BEDCE3"/>
    <path fill-rule="evenodd" clip-rule="evenodd"
          d="M9.453 24C8.6832 25.3333 9.64545 27 11.1851 27H17.2619L11.0737 41.4726C10.2083 43.4965 12.7704 45.2296 14.3269 43.6731L37.5858 20.4142C38.8457 19.1543 37.9534 17 36.1716 17H29.6603L36.0111 6C36.7809 4.66667 35.8187 3 34.2791 3H22.7321C22.0175 3 21.3573 3.3812 21 4L9.453 24Z"
          fill="white"/>
    <path fill-rule="evenodd" clip-rule="evenodd"
          d="M24 3C24 2.44772 24.4477 2 25 2H34.2791C36.5885 2 38.0319 4.5 36.8772 6.5L31.3923 16H36.1716C38.8443 16 40.1828 19.2314 38.2929 21.1213L15.034 44.3802C12.6993 46.7149 8.8562 44.1153 10.1543 41.0794L15.7468 28H11.1851C8.87568 28 7.4323 25.5 8.587 23.5L14.3605 13.5C14.6366 13.0217 15.2482 12.8578 15.7265 13.134C16.2048 13.4101 16.3687 14.0217 16.0926 14.5L10.3191 24.5C9.93415 25.1667 10.4153 26 11.1851 26H17.262C17.598 26 17.9115 26.1687 18.0966 26.4492C18.2817 26.7296 18.3135 27.0842 18.1814 27.3932L11.9932 41.8657C11.5605 42.8777 12.8416 43.7442 13.6198 42.966L36.8787 19.7071C37.5087 19.0771 37.0625 18 36.1716 18H29.6603C29.303 18 28.9729 17.8094 28.7943 17.5C28.6156 17.1906 28.6156 16.8094 28.7943 16.5L35.1451 5.5C35.53 4.83333 35.0489 4 34.2791 4H25C24.4477 4 24 3.55228 24 3Z"
          fill="#231F20"/>
</svg>
