<svg width="48" height="48" viewBox="0 0 48 48" fill="none" xmlns="http://www.w3.org/2000/svg">
<path fill-rule="evenodd" clip-rule="evenodd" d="M7.1499 38.7971V39.7971C7.1499 42.0062 8.94076 43.7971 11.1499 43.7971H42.1499C44.359 43.7971 46.1499 42.0062 46.1499 39.7971V16.7971C46.1499 14.5879 44.359 12.7971 42.1499 12.7971V34.7971C42.1499 37.0062 40.359 38.7971 38.1499 38.7971H7.1499Z" fill="#BEDCE3"/>
<path d="M4 35.5V10C4 7.79086 5.79086 6 8 6H37.5V11H42.5V35.5C42.5 37.7091 40.7091 39.5 38.5 39.5H8C5.79086 39.5 4 37.7091 4 35.5Z" fill="white"/>
<path d="M10.5398 24.095V17.0647H17.5701V24.095H10.5398Z" fill="#F2C94C"/>
<path d="M4.05498 11C3.47233 11 3 11.4723 3 12.055V35.9192C3 38.4971 5.09702 40.5941 7.67489 40.5941H38.6251C41.203 40.5941 43.3 38.4971 43.3 35.9192V11.4848C43.3 10.404 42.4209 9.52489 41.34 9.52489H38.7751V6.95995C38.7751 5.8791 37.896 5 36.8152 5H10.002C9.4486 5 9 5.4486 9 6.00199C9 6.55381 9.44618 7.00177 9.998 7.00397L36.6652 7.10995V34.5618C36.6652 35.8921 37.7472 36.9742 39.0776 36.9742C39.6602 36.9742 40.1326 36.5019 40.1326 35.9192C40.1326 35.3366 39.6602 34.8643 39.0776 34.8643C38.9109 34.8643 38.7751 34.7284 38.7751 34.5618V11.6348H41.19V35.9192C41.19 37.3334 40.0393 38.4842 38.6251 38.4842H7.67489C6.26072 38.4842 5.10995 37.3334 5.10995 35.9192V12.055C5.10995 11.4723 4.63763 11 4.05498 11Z" fill="#231F20"/>
<path d="M8.42986 11.4848C8.42986 10.9022 8.90218 10.4299 9.48484 10.4299H32.2903C32.8728 10.4299 33.3452 10.9022 33.3452 11.4848C33.3452 12.0675 32.8728 12.5398 32.2903 12.5398H9.48484C8.90218 12.5398 8.42986 12.0675 8.42986 11.4848Z" fill="#231F20"/>
<path fill-rule="evenodd" clip-rule="evenodd" d="M8.42986 16.0097C8.42986 15.4271 8.90218 14.9548 9.48484 14.9548H18.6251C19.2078 14.9548 19.6801 15.4271 19.6801 16.0097V25.15C19.6801 25.7327 19.2078 26.205 18.6251 26.205H9.48484C8.90218 26.205 8.42986 25.7327 8.42986 25.15V16.0097ZM10.5398 17.0647V24.095H17.5701V17.0647H10.5398Z" fill="#231F20"/>
<path d="M23.15 14.9548C22.5673 14.9548 22.095 15.4271 22.095 16.0097C22.095 16.5924 22.5673 17.0647 23.15 17.0647H32.2903C32.8728 17.0647 33.3452 16.5924 33.3452 16.0097C33.3452 15.4271 32.8728 14.9548 32.2903 14.9548H23.15Z" fill="#231F20"/>
<path d="M22.095 20.5346C22.095 19.952 22.5673 19.4796 23.15 19.4796H32.2903C32.8728 19.4796 33.3452 19.9519 33.3452 20.5346C33.3452 21.1173 32.8728 21.5896 32.2903 21.5896H23.15C22.5673 21.5896 22.095 21.1173 22.095 20.5346Z" fill="#231F20"/>
<path d="M23.15 24.0045C22.5673 24.0045 22.095 24.4768 22.095 25.0595C22.095 25.6422 22.5673 26.1145 23.15 26.1145H32.2903C32.8728 26.1145 33.3452 25.6422 33.3452 25.0595C33.3452 24.4768 32.8728 24.0045 32.2903 24.0045H23.15Z" fill="#231F20"/>
<path d="M8.42986 29.5844C8.42986 29.0017 8.90218 28.5294 9.48484 28.5294H18.6251C19.2078 28.5294 19.6801 29.0017 19.6801 29.5844C19.6801 30.1671 19.2078 30.6394 18.6251 30.6394H9.48484C8.90218 30.6394 8.42986 30.1671 8.42986 29.5844Z" fill="#231F20"/>
<path d="M23.15 28.5294C22.5673 28.5294 22.095 29.0017 22.095 29.5844C22.095 30.1671 22.5673 30.6394 23.15 30.6394H32.2903C32.8728 30.6394 33.3452 30.1671 33.3452 29.5844C33.3452 29.0017 32.8728 28.5294 32.2903 28.5294H23.15Z" fill="#231F20"/>
<path d="M8.42986 34.1093C8.42986 33.5266 8.90218 33.0543 9.48484 33.0543H18.6251C19.2078 33.0543 19.6801 33.5266 19.6801 34.1093C19.6801 34.6919 19.2078 35.1643 18.6251 35.1643H9.48484C8.90218 35.1643 8.42986 34.6919 8.42986 34.1093Z" fill="#231F20"/>
<path d="M23.15 33.0543C22.5673 33.0543 22.095 33.5266 22.095 34.1093C22.095 34.6919 22.5673 35.1643 23.15 35.1643H32.2903C32.8728 35.1643 33.3452 34.6919 33.3452 34.1093C33.3452 33.5266 32.8728 33.0543 32.2903 33.0543H23.15Z" fill="#231F20"/>
</svg>
