<svg width="48" height="48" viewBox="0 0 48 48" fill="none" xmlns="http://www.w3.org/2000/svg">
<path d="M41.5714 11C40.9674 11 40.4622 11.1666 40.0451 11.5162C39.7079 11.7988 39.4765 12.1714 39.3183 12.4261L39.2904 12.4709C37.8568 14.7699 35.2806 16.172 32.2254 16.9901C29.1829 17.8048 25.8125 18 23 18H16C14.1362 18 12.5701 19.2748 12.126 21H11C9.89543 21 9 21.8954 9 23V27C9 28.1046 9.89543 29 11 29H12.126C12.5701 30.7252 14.1362 32 16 32H16.2658L18.142 40.6294C18.3766 41.7088 19.4419 42.3935 20.5212 42.1589L22.4756 41.734C23.5549 41.4993 24.2397 40.4341 24.005 39.3547L22.406 32H23C25.8125 32 29.183 32.1953 32.2256 33.0102C35.2808 33.8285 37.8571 35.2306 39.2908 37.5297L39.3187 37.5745C39.4768 37.8292 39.7082 38.2017 40.0454 38.4842C40.4627 38.8338 40.9677 39 41.5714 39C42.1459 39 42.7089 38.8386 43.155 38.5263C43.598 38.2163 44 37.692 44 37V13C44 12.308 43.598 11.7837 43.155 11.4737C42.7089 11.1614 42.1459 11 41.5714 11Z" fill="#BEDCE3"/>
<path d="M14.0718 28L16.1191 37.417C16.2365 37.9567 16.7691 38.299 17.3088 38.1817L19.2631 37.7568C19.8028 37.6395 20.1452 37.1069 20.0278 36.5672L18.1652 28H14.0718Z" fill="white"/>
<path d="M10 19C10 17.3431 11.3431 16 13 16H20V28H13C11.3431 28 10 26.6569 10 25V19Z" fill="#41B2E5"/>
<path d="M38.5714 9C39.3604 9 40 9.44771 40 10V34C40 34.5523 39.3604 35 38.5714 35C37.7626 35 37.5008 34.5803 37.1394 34.0006C33.8866 28.7844 25.6917 28 20 28V16C25.6917 16 33.8862 15.2162 37.139 10C37.5005 9.42031 37.7626 9 38.5714 9Z" fill="white"/>
<path fill-rule="evenodd" clip-rule="evenodd" d="M37.0451 8.51622C37.4622 8.16656 37.9674 8 38.5714 8C39.1459 8 39.7089 8.16139 40.155 8.47366C40.598 8.78372 41 9.30798 41 10V34C41 34.692 40.598 35.2163 40.155 35.5263C39.7089 35.8386 39.1459 36 38.5714 36C37.9677 36 37.4627 35.8338 37.0454 35.4842C36.6879 35.1847 36.4493 34.7839 36.2908 34.5297C34.8571 32.2306 32.2808 30.8285 29.2256 30.0102C26.183 29.1953 22.8125 29 20 29H19V15H20C22.8125 15 26.1829 14.8048 29.2254 13.9901C32.2806 13.172 34.8568 11.7699 36.2904 9.47086C36.449 9.21667 36.6876 8.81586 37.0451 8.51622ZM38.21 10.1878C38.147 10.2743 38.0823 10.3772 37.9875 10.5291C36.1684 13.4462 33.021 15.0442 29.7428 15.922C26.8233 16.7038 23.6821 16.9469 21 16.9918V27.0082C23.6821 27.0532 26.8235 27.2964 29.743 28.0783C33.0213 28.9563 36.1688 30.5544 37.9879 33.4715C38.0827 33.6234 38.1474 33.7263 38.2103 33.8127C38.3125 33.9531 38.3933 34 38.5714 34C38.778 34 39 34 39 33.4715V10.5C39 10 38.778 10 38.5714 10C38.3931 10 38.3123 10.0473 38.21 10.1878Z" fill="#231F20"/>
<path fill-rule="evenodd" clip-rule="evenodd" d="M14.5 16C14.5 15.4477 14.9477 15 15.5 15H21V29H13C10.7909 29 9 27.2091 9 25V19C9 18.3462 9.15763 17.7263 9.43784 17.179C9.68953 16.6874 10.2921 16.4929 10.7837 16.7446C11.2753 16.9963 11.4698 17.5988 11.2181 18.0904C11.0789 18.3622 11 18.6704 11 19V25C11 26.1046 11.8954 27 13 27H19V17H15.5C14.9477 17 14.5 16.5523 14.5 16Z" fill="#231F20"/>
<path d="M7 20C7 19.4477 7.44772 19 8 19H10V25H8C7.44772 25 7 24.5523 7 24V20Z" fill="#231F20"/>
<path fill-rule="evenodd" clip-rule="evenodd" d="M12.8311 27H18.9712L21.0051 36.3547C21.2397 37.4341 20.555 38.4993 19.4756 38.734L17.5213 39.1589C16.4419 39.3935 15.3767 38.7088 15.142 37.6294L12.8311 27ZM15.3126 29L17.0964 37.2045L19.0507 36.7796L17.3593 29H15.3126Z" fill="#231F20"/>
</svg>
