<svg width="64" height="64" viewBox="0 0 64 64" fill="none" xmlns="http://www.w3.org/2000/svg">
<g clip-path="url(#clip0)">
<path d="M12.7101 61.5498C10.9801 59.8198 10.9801 56.9998 12.7101 55.2698L29.6701 38.3098L35.9501 44.5898L18.9901 61.5498C17.2501 63.2798 14.4401 63.2798 12.7101 61.5498Z" fill="#BEDCE3"/>
<path d="M39.56 53.7499C50.0865 53.7499 58.62 45.2164 58.62 34.6899C58.62 24.1633 50.0865 15.6299 39.56 15.6299C29.0335 15.6299 20.5 24.1633 20.5 34.6899C20.5 45.2164 29.0335 53.7499 39.56 53.7499Z" fill="#BEDCE3"/>
<path d="M7.79994 58.5501C6.06994 56.8201 6.06994 54.0001 7.79994 52.2701L24.7599 35.3101L31.0399 41.5901L14.0799 58.5501C12.3499 60.2801 9.52994 60.2801 7.79994 58.5501Z" fill="#F05023"/>
<path fill-rule="evenodd" clip-rule="evenodd" d="M24.7599 33.1887L33.1613 41.59L15.1406 59.6107C12.8248 61.9265 9.05507 61.9265 6.73928 59.6107C4.42349 57.2949 4.42349 53.5252 6.73928 51.2094L24.7599 33.1887ZM24.7599 37.4314L8.8606 53.3307C7.71639 54.4749 7.71639 56.3452 8.8606 57.4894C10.0048 58.6336 11.8751 58.6336 13.0193 57.4894L28.9186 41.59L24.7599 37.4314Z" fill="#231F20"/>
<path d="M36.5297 48.88C47.0563 48.88 55.5897 40.3466 55.5897 29.82C55.5897 19.2935 47.0563 10.76 36.5297 10.76C26.0032 10.76 17.4697 19.2935 17.4697 29.82C17.4697 40.3466 26.0032 48.88 36.5297 48.88Z" fill="white"/>
<path fill-rule="evenodd" clip-rule="evenodd" d="M51.8517 21.2339C47.1062 12.7749 36.3998 9.75434 27.9438 14.4982L27.9414 14.4995C25.5828 15.817 23.6495 17.6031 22.1849 19.6757C21.7068 20.3522 20.7708 20.5131 20.0942 20.035C19.4177 19.5569 19.2568 18.6209 19.7349 17.9443C21.45 15.5173 23.7163 13.4236 26.4771 11.8812C36.3809 6.32591 48.9138 9.86545 54.4681 19.7661C60.0242 29.6701 56.4848 42.2037 46.5838 47.7582C36.6801 53.3142 24.1468 49.7751 18.5921 39.8746C17.8163 38.4954 17.2113 37.0487 16.7888 35.5863C16.5589 34.7904 17.0177 33.9588 17.8136 33.7289C18.6095 33.499 19.441 33.9578 19.671 34.7537C20.0284 35.991 20.5432 37.2241 21.2072 38.4046L21.2081 38.4061C25.9536 46.8651 36.66 49.8856 45.116 45.1418C53.575 40.3963 56.5955 29.6899 51.8517 21.2339Z" fill="#231F20"/>
</g>
<defs>
<clipPath id="clip0">
<rect width="53.62" height="61.85" fill="white" transform="translate(5 1)"/>
</clipPath>
</defs>
</svg>
