<svg width="64" height="64" viewBox="0 0 64 64" fill="none" xmlns="http://www.w3.org/2000/svg">
<g clip-path="url(#clip0)">
<path d="M34 63.5C48.6355 63.5 60.5 51.6355 60.5 37C60.5 22.3645 48.6355 10.5 34 10.5C19.3645 10.5 7.5 22.3645 7.5 37C7.5 51.6355 19.3645 63.5 34 63.5Z" fill="#BEDCE3"/>
<path d="M30 57.5C44.6355 57.5 56.5 45.6355 56.5 31C56.5 16.3645 44.6355 4.5 30 4.5C15.3645 4.5 3.5 16.3645 3.5 31C3.5 45.6355 15.3645 57.5 30 57.5Z" fill="white"/>
<path d="M30 59C14.56 59 2 46.44 2 31C2 24.54 4.25 18.23 8.35 13.24C8.87 12.6 9.82 12.51 10.46 13.03C11.1 13.56 11.19 14.5 10.67 15.14C7.01 19.6 5 25.23 5 31C5 44.79 16.21 56 30 56C43.79 56 55 44.79 55 31C55 17.21 43.79 6 30 6C29.17 6 28.5 5.33 28.5 4.5C28.5 3.67 29.17 3 30 3C45.44 3 58 15.56 58 31C58 46.44 45.44 59 30 59Z" fill="#231F20"/>
</g>
<path d="M25.7293 40C25.3773 40 25.0813 39.88 24.8413 39.64C24.6173 39.4 24.5053 39.112 24.5053 38.776C24.5053 38.424 24.6173 38.136 24.8413 37.912L31.6573 29.944C32.1373 29.384 32.5053 28.856 32.7613 28.36C33.0333 27.864 33.1693 27.392 33.1693 26.944C33.1693 25.904 32.8973 25.072 32.3533 24.448C31.8253 23.824 31.0973 23.512 30.1693 23.512C29.5613 23.512 29.0093 23.672 28.5133 23.992C28.0333 24.296 27.6493 24.712 27.3613 25.24C27.0893 25.752 26.9533 26.32 26.9533 26.944C26.9533 27.264 26.8333 27.544 26.5933 27.784C26.3693 28.024 26.0813 28.144 25.7293 28.144C25.3933 28.144 25.1053 28.024 24.8653 27.784C24.6253 27.544 24.5053 27.264 24.5053 26.944C24.5053 25.856 24.7533 24.888 25.2493 24.04C25.7453 23.176 26.4173 22.496 27.2653 22C28.1293 21.504 29.0973 21.256 30.1693 21.256C31.2573 21.256 32.2013 21.488 33.0013 21.952C33.8013 22.416 34.4173 23.072 34.8493 23.92C35.2973 24.768 35.5213 25.776 35.5213 26.944C35.5213 27.456 35.4093 27.976 35.1853 28.504C34.9773 29.032 34.7053 29.536 34.3693 30.016C34.0493 30.496 33.7213 30.928 33.3853 31.312L27.8893 37.552H34.6093C34.9613 37.552 35.2573 37.68 35.4973 37.936C35.7373 38.176 35.8573 38.456 35.8573 38.776C35.8573 39.112 35.7373 39.4 35.4973 39.64C35.2573 39.88 34.9613 40 34.6093 40H25.7293Z" fill="#231F20"/>
<defs>
<clipPath id="clip0">
<rect width="58.5" height="60.5" fill="white" transform="translate(2 3)"/>
</clipPath>
</defs>
</svg>
