<svg width="48" height="48" viewBox="0 0 48 48" fill="none" xmlns="http://www.w3.org/2000/svg">
<circle cx="28" cy="28" r="18" fill="#BEDCE3"/>
<circle cx="24" cy="24" r="18" fill="#21C68B"/>
<path fill-rule="evenodd" clip-rule="evenodd" d="M24 7C21.5785 7 19.2778 7.50567 17.1955 8.41623C16.6895 8.63751 16.0999 8.40668 15.8786 7.90066C15.6574 7.39464 15.8882 6.80505 16.3942 6.58377C18.7244 5.56481 21.2976 5 24 5C34.4934 5 43 13.5066 43 24C43 34.4934 34.4934 43 24 43C13.5066 43 5 34.4934 5 24C5 20.7567 5.81344 17.7005 7.24826 15.0271C7.50943 14.5405 8.11565 14.3577 8.60228 14.6189C9.0889 14.8801 9.27167 15.4863 9.01049 15.9729C7.72792 18.3626 7 21.0948 7 24C7 33.3888 14.6112 41 24 41C33.3888 41 41 33.3888 41 24C41 14.6112 33.3888 7 24 7Z" fill="#231F20"/>
<path d="M24.5729 33C24.2529 33 23.9729 32.88 23.7329 32.64C23.4929 32.4 23.3729 32.112 23.3729 31.776V17.136L21.6209 17.88C21.3489 17.992 21.0929 18.048 20.8529 18.048C20.5009 18.048 20.2049 17.936 19.9649 17.712C19.7409 17.488 19.6289 17.2 19.6289 16.848C19.6289 16.592 19.6929 16.36 19.8209 16.152C19.9489 15.944 20.1489 15.792 20.4209 15.696L24.1649 14.352C24.2449 14.32 24.3249 14.296 24.4049 14.28C24.4849 14.264 24.5569 14.256 24.6209 14.256C24.9889 14.256 25.2769 14.376 25.4849 14.616C25.7089 14.84 25.8209 15.136 25.8209 15.504V31.776C25.8209 32.112 25.7009 32.4 25.4609 32.64C25.2209 32.88 24.9249 33 24.5729 33Z" fill="white"/>
</svg>
