<svg width="48" height="48" viewBox="0 0 48 48" fill="none" xmlns="http://www.w3.org/2000/svg">
<circle cx="28" cy="28" r="18" fill="#BEDCE3"/>
<circle cx="24" cy="24" r="18" fill="#21C68B"/>
<path fill-rule="evenodd" clip-rule="evenodd" d="M24 7C21.5785 7 19.2778 7.50567 17.1955 8.41623C16.6895 8.63751 16.0999 8.40668 15.8786 7.90066C15.6574 7.39464 15.8882 6.80505 16.3942 6.58377C18.7244 5.56481 21.2976 5 24 5C34.4934 5 43 13.5066 43 24C43 34.4934 34.4934 43 24 43C13.5066 43 5 34.4934 5 24C5 20.7567 5.81344 17.7005 7.24826 15.0271C7.50943 14.5405 8.11565 14.3577 8.60228 14.6189C9.0889 14.8801 9.27167 15.4863 9.01049 15.9729C7.72792 18.3626 7 21.0948 7 24C7 33.3888 14.6112 41 24 41C33.3888 41 41 33.3888 41 24C41 14.6112 33.3888 7 24 7Z" fill="#231F20"/>
<path d="M19.7294 33C19.3774 33 19.0814 32.88 18.8414 32.64C18.6174 32.4 18.5054 32.112 18.5054 31.776C18.5054 31.424 18.6174 31.136 18.8414 30.912L25.6574 22.944C26.1374 22.384 26.5054 21.856 26.7614 21.36C27.0334 20.864 27.1694 20.392 27.1694 19.944C27.1694 18.904 26.8974 18.072 26.3534 17.448C25.8254 16.824 25.0974 16.512 24.1694 16.512C23.5614 16.512 23.0094 16.672 22.5134 16.992C22.0334 17.296 21.6494 17.712 21.3614 18.24C21.0894 18.752 20.9534 19.32 20.9534 19.944C20.9534 20.264 20.8334 20.544 20.5934 20.784C20.3694 21.024 20.0814 21.144 19.7294 21.144C19.3934 21.144 19.1054 21.024 18.8654 20.784C18.6254 20.544 18.5054 20.264 18.5054 19.944C18.5054 18.856 18.7534 17.888 19.2494 17.04C19.7454 16.176 20.4174 15.496 21.2654 15C22.1294 14.504 23.0974 14.256 24.1694 14.256C25.2574 14.256 26.2014 14.488 27.0014 14.952C27.8014 15.416 28.4174 16.072 28.8494 16.92C29.2974 17.768 29.5214 18.776 29.5214 19.944C29.5214 20.456 29.4094 20.976 29.1854 21.504C28.9774 22.032 28.7054 22.536 28.3694 23.016C28.0494 23.496 27.7214 23.928 27.3854 24.312L21.8894 30.552H28.6094C28.9614 30.552 29.2574 30.68 29.4974 30.936C29.7374 31.176 29.8574 31.456 29.8574 31.776C29.8574 32.112 29.7374 32.4 29.4974 32.64C29.2574 32.88 28.9614 33 28.6094 33H19.7294Z" fill="white"/>
</svg>
