<svg width="48" height="48" viewBox="0 0 48 48" fill="none" xmlns="http://www.w3.org/2000/svg">
<circle cx="28" cy="28" r="18" fill="#BEDCE3"/>
<circle cx="24" cy="24" r="18" fill="#21C68B"/>
<path fill-rule="evenodd" clip-rule="evenodd" d="M24 7C21.5785 7 19.2778 7.50567 17.1955 8.41623C16.6895 8.63751 16.0999 8.40668 15.8786 7.90066C15.6574 7.39464 15.8882 6.80505 16.3942 6.58377C18.7244 5.56481 21.2976 5 24 5C34.4934 5 43 13.5066 43 24C43 34.4934 34.4934 43 24 43C13.5066 43 5 34.4934 5 24C5 20.7567 5.81344 17.7005 7.24826 15.0271C7.50943 14.5405 8.11565 14.3577 8.60228 14.6189C9.0889 14.8801 9.27167 15.4863 9.01049 15.9729C7.72792 18.3626 7 21.0948 7 24C7 33.3888 14.6112 41 24 41C33.3888 41 41 33.3888 41 24C41 14.6112 33.3888 7 24 7Z" fill="#231F20"/>
<path d="M24.3042 33C23.1042 33 22.0402 32.752 21.1122 32.256C20.1842 31.744 19.4562 31.056 18.9282 30.192C18.4002 29.312 18.1362 28.328 18.1362 27.24C18.1362 26.872 18.2402 26.576 18.4482 26.352C18.6722 26.112 18.9362 25.992 19.2402 25.992C19.5602 25.992 19.8242 26.112 20.0322 26.352C20.2402 26.576 20.3442 26.872 20.3442 27.24C20.3442 27.896 20.5122 28.504 20.8482 29.064C21.1842 29.608 21.6402 30.048 22.2162 30.384C22.7922 30.704 23.4402 30.864 24.1602 30.864C25.2162 30.864 26.0642 30.576 26.7042 30C27.3602 29.408 27.6882 28.584 27.6882 27.528C27.6882 26.856 27.5442 26.256 27.2562 25.728C26.9682 25.184 26.5762 24.752 26.0802 24.432C25.5842 24.112 25.0242 23.952 24.4002 23.952C24.0482 23.952 23.7522 23.832 23.5122 23.592C23.2882 23.352 23.1762 23.056 23.1762 22.704C23.1762 22.352 23.2882 22.064 23.5122 21.84C23.7522 21.6 24.0482 21.48 24.4002 21.48C24.8482 21.48 25.2802 21.368 25.6962 21.144C26.1122 20.904 26.4562 20.592 26.7282 20.208C27.0002 19.808 27.1362 19.36 27.1362 18.864C27.1362 18.16 26.8802 17.568 26.3682 17.088C25.8562 16.608 25.2002 16.368 24.4002 16.368C23.7922 16.368 23.2322 16.488 22.7202 16.728C22.2242 16.968 21.8242 17.288 21.5202 17.688C21.2322 18.088 21.0882 18.536 21.0882 19.032C21.0882 19.4 20.9842 19.712 20.7762 19.968C20.5682 20.208 20.3042 20.328 19.9842 20.328C19.6802 20.328 19.4162 20.216 19.1922 19.992C18.9842 19.752 18.8802 19.456 18.8802 19.104C18.8802 18.176 19.1202 17.344 19.6002 16.608C20.0802 15.872 20.7362 15.296 21.5682 14.88C22.4002 14.448 23.3282 14.232 24.3522 14.232C25.2962 14.232 26.1442 14.44 26.8962 14.856C27.6642 15.256 28.2642 15.808 28.6962 16.512C29.1442 17.2 29.3682 17.984 29.3682 18.864C29.3682 19.488 29.2242 20.04 28.9362 20.52C28.6642 21 28.3122 21.416 27.8802 21.768C27.4482 22.104 26.9922 22.384 26.5122 22.608C27.7762 23.04 28.6882 23.696 29.2482 24.576C29.8242 25.44 30.1122 26.432 30.1122 27.552C30.1122 28.592 29.8482 29.528 29.3202 30.36C28.7922 31.176 28.0882 31.824 27.2082 32.304C26.3282 32.768 25.3602 33 24.3042 33Z" fill="white"/>
</svg>
