<svg width="64" height="64" viewBox="0 0 64 64" fill="none" xmlns="http://www.w3.org/2000/svg">
<g clip-path="url(#clip0)">
<path d="M34.5 63.5C49.964 63.5 62.5 50.964 62.5 35.5C62.5 20.036 49.964 7.5 34.5 7.5C19.036 7.5 6.5 20.036 6.5 35.5C6.5 50.964 19.036 63.5 34.5 63.5Z" fill="#BEDCE3"/>
<path d="M30.5 57.5C45.964 57.5 58.5 44.964 58.5 29.5C58.5 14.036 45.964 1.5 30.5 1.5C15.036 1.5 2.5 14.036 2.5 29.5C2.5 44.964 15.036 57.5 30.5 57.5Z" fill="#21C68B"/>
<path d="M30.5 59C14.23 59 1 45.77 1 29.5C1 22.69 3.38 16.05 7.69 10.79C8.21 10.15 9.16 10.06 9.8 10.58C10.44 11.11 10.53 12.05 10.01 12.69C6.13 17.42 4 23.38 4 29.5C4 44.11 15.89 56 30.5 56C45.11 56 57 44.11 57 29.5C57 14.89 45.11 3 30.5 3C29.67 3 29 2.33 29 1.5C29 0.67 29.67 0 30.5 0C46.77 0 60 13.23 60 29.5C60 45.77 46.77 59 30.5 59Z" fill="#231F20"/>
<path d="M29.5001 37.0001C29.1201 37.0001 28.7301 36.8501 28.4401 36.5601C27.8501 35.9701 27.8501 35.0201 28.4401 34.4401L40.4401 22.4401C41.0301 21.8501 41.9801 21.8501 42.5601 22.4401C43.1501 23.0301 43.1501 23.9801 42.5601 24.5601L30.5601 36.5601C30.2701 36.8501 29.8801 37.0001 29.5001 37.0001Z" fill="white"/>
<path d="M29.5001 37.0001C29.1201 37.0001 28.7301 36.8501 28.4401 36.5601L20.4401 28.5601C19.8501 27.9701 19.8501 27.0201 20.4401 26.4401C21.0301 25.8501 21.9801 25.8501 22.5601 26.4401L30.5601 34.4401C31.1501 35.0301 31.1501 35.9801 30.5601 36.5601C30.2701 36.8501 29.8801 37.0001 29.5001 37.0001Z" fill="white"/>
</g>
<defs>
<clipPath id="clip0">
<rect width="61.5" height="63.5" fill="white" transform="translate(1)"/>
</clipPath>
</defs>
</svg>
