<svg width="48" height="48" viewBox="0 0 48 48" fill="none" xmlns="http://www.w3.org/2000/svg">
    <circle cx="28" cy="28" r="18" fill="#BEDCE3"/>
    <circle cx="24" cy="24" r="18" fill="#21C68B"/>
    <path fill-rule="evenodd" clip-rule="evenodd" d="M24 7C21.5785 7 19.2778 7.50567 17.1955 8.41623C16.6895 8.63751 16.0999 8.40668 15.8786 7.90066C15.6574 7.39464 15.8882 6.80505 16.3942 6.58377C18.7244 5.56481 21.2976 5 24 5C34.4934 5 43 13.5066 43 24C43 34.4934 34.4934 43 24 43C13.5066 43 5 34.4934 5 24C5 20.7567 5.81344 17.7005 7.24826 15.0271C7.50943 14.5405 8.11565 14.3577 8.60228 14.6189C9.0889 14.8801 9.27167 15.4863 9.01049 15.9729C7.72792 18.3626 7 21.0948 7 24C7 33.3888 14.6112 41 24 41C33.3888 41 41 33.3888 41 24C41 14.6112 33.3888 7 24 7Z" fill="#231F20"/>
    <path d="M31.0712 19.1715C30.2902 18.3905 29.0238 18.3905 28.2428 19.1715L22.586 24.8283L19.7575 21.9999C18.9764 21.2188 17.7101 21.2188 16.929 21.9999C16.148 22.7809 16.148 24.0472 16.929 24.8283L21.1597 29.0589C21.1637 29.063 21.1677 29.067 21.1717 29.071C21.9528 29.8521 23.2191 29.8521 24.0001 29.071L31.0712 22C31.8522 21.2189 31.8522 19.9526 31.0712 19.1715Z" fill="white"/>
</svg>
