<svg width="48" height="48" viewBox="0 0 48 48" fill="none" xmlns="http://www.w3.org/2000/svg">
<circle cx="28" cy="28" r="18" fill="#BEDCE3"/>
<circle cx="24" cy="24" r="18" fill="white"/>
<path d="M24 22C19.7419 22 16.2594 26.5574 16.0007 32.3121C15.9836 32.6914 16.2843 33 16.6532 33H31.3468C31.7157 33 32.0164 32.6914 31.9993 32.3121C31.7406 26.5574 28.2581 22 24 22Z" fill="#21C68B"/>
<path fill-rule="evenodd" clip-rule="evenodd" d="M18.138 31H29.862C29.5638 29.082 28.851 27.4307 27.9164 26.2204C26.7621 24.7255 25.3653 24 24 24C22.6347 24 21.2379 24.7255 20.0836 26.2204C19.149 27.4307 18.4362 29.082 18.138 31ZM16.0007 32.3121C16.2594 26.5574 19.7419 22 24 22C28.2581 22 31.7406 26.5574 31.9993 32.3121C32.0164 32.6914 31.7157 33 31.3468 33H16.6532C16.2843 33 15.9836 32.6914 16.0007 32.3121Z" fill="#231F20"/>
<path d="M29 19C29 21.7614 26.7614 24 24 24C21.2386 24 19 21.7614 19 19C19 16.2386 21.2386 14 24 14C26.7614 14 29 16.2386 29 19Z" fill="white"/>
<path fill-rule="evenodd" clip-rule="evenodd" d="M24 22C25.6569 22 27 20.6569 27 19C27 17.3431 25.6569 16 24 16C22.3431 16 21 17.3431 21 19C21 20.6569 22.3431 22 24 22ZM24 24C26.7614 24 29 21.7614 29 19C29 16.2386 26.7614 14 24 14C21.2386 14 19 16.2386 19 19C19 21.7614 21.2386 24 24 24Z" fill="#231F20"/>
<path fill-rule="evenodd" clip-rule="evenodd" d="M24 7C21.5785 7 19.2778 7.50567 17.1955 8.41623C16.6895 8.63751 16.0999 8.40668 15.8786 7.90066C15.6574 7.39464 15.8882 6.80505 16.3942 6.58377C18.7244 5.56481 21.2976 5 24 5C34.4934 5 43 13.5066 43 24C43 34.4934 34.4934 43 24 43C13.5066 43 5 34.4934 5 24C5 20.7567 5.81344 17.7005 7.24826 15.0271C7.50943 14.5405 8.11565 14.3577 8.60228 14.6189C9.0889 14.8801 9.27167 15.4863 9.01049 15.9729C7.72792 18.3626 7 21.0948 7 24C7 33.3888 14.6112 41 24 41C33.3888 41 41 33.3888 41 24C41 14.6112 33.3888 7 24 7Z" fill="#231F20"/>
</svg>
