<svg width="64" height="64" viewBox="0 0 64 64" fill="none" xmlns="http://www.w3.org/2000/svg">
<g clip-path="url(#clip0)">
<path d="M34.5 63.5C49.964 63.5 62.5 50.964 62.5 35.5C62.5 20.036 49.964 7.5 34.5 7.5C19.036 7.5 6.5 20.036 6.5 35.5C6.5 50.964 19.036 63.5 34.5 63.5Z" fill="#BEDCE3"/>
<path d="M30.5 57.5C45.964 57.5 58.5 44.964 58.5 29.5C58.5 14.036 45.964 1.5 30.5 1.5C15.036 1.5 2.5 14.036 2.5 29.5C2.5 44.964 15.036 57.5 30.5 57.5Z" fill="#21C68B"/>
<path d="M41.962 36.4399L38.2555 32.7331C37.5173 31.9978 36.2947 32.0201 35.5308 32.7844L33.6634 34.6513C33.5455 34.5863 33.4234 34.5184 33.295 34.4463C32.1158 33.7929 30.5019 32.8974 28.8035 31.1978C27.1002 29.4947 26.2038 27.8783 25.5485 26.6983C25.4793 26.5733 25.4131 26.4528 25.3476 26.3384L26.6009 25.087L27.217 24.4701C27.9821 23.7047 28.0032 22.4825 27.2667 21.7451L23.5603 18.0378C22.8238 17.3015 21.6007 17.3238 20.8355 18.0891L19.7909 19.1397L19.8195 19.1681C19.4692 19.615 19.1765 20.1305 18.9587 20.6864C18.7579 21.2155 18.6329 21.7204 18.5757 22.2264C18.0863 26.2837 19.9404 29.9918 24.9721 35.0235C31.9275 41.9784 37.5326 41.453 37.7744 41.4274C38.301 41.3644 38.8058 41.2386 39.3187 41.0394C39.8697 40.8241 40.3849 40.5319 40.8315 40.1823L40.8543 40.2026L41.9126 39.1664C42.6761 38.4011 42.6981 37.1785 41.962 36.4399Z" fill="white"/>
<path d="M30.5 59C14.23 59 1 45.77 1 29.5C1 22.69 3.38 16.05 7.69 10.79C8.21 10.15 9.16 10.06 9.8 10.58C10.44 11.11 10.53 12.05 10.01 12.69C6.13 17.42 4 23.38 4 29.5C4 44.11 15.89 56 30.5 56C45.11 56 57 44.11 57 29.5C57 14.89 45.11 3 30.5 3C29.67 3 29 2.33 29 1.5C29 0.67 29.67 0 30.5 0C46.77 0 60 13.23 60 29.5C60 45.77 46.77 59 30.5 59Z" fill="#231F20"/>
</g>
<defs>
<clipPath id="clip0">
<rect width="61.5" height="63.5" fill="white" transform="translate(1)"/>
</clipPath>
</defs>
</svg>
