<svg width="64" height="64" viewBox="0 0 64 64" fill="none" xmlns="http://www.w3.org/2000/svg">
<g clip-path="url(#clip0)">
<path d="M33 58.95C43.7696 58.95 52.5 50.2195 52.5 39.45C52.5 28.6804 43.7696 19.95 33 19.95C22.2304 19.95 13.5 28.6804 13.5 39.45C13.5 50.2195 22.2304 58.95 33 58.95Z" fill="#BEDCE3"/>
<path d="M29 52.95C39.7696 52.95 48.5 44.2195 48.5 33.45C48.5 22.6804 39.7696 13.95 29 13.95C18.2304 13.95 9.5 22.6804 9.5 33.45C9.5 44.2195 18.2304 52.95 29 52.95Z" fill="white"/>
<path d="M48.5 33.45C48.5 44.22 39.77 52.95 29 52.95C18.23 52.95 9.5 44.22 9.5 33.45C9.5 28.22 11.56 23.47 14.91 19.97" fill="white"/>
<path d="M29 54.45C17.42 54.45 8 45.03 8 33.45C8 28.02 10.07 22.86 13.82 18.94C14.39 18.34 15.34 18.32 15.94 18.89C16.54 19.46 16.56 20.41 15.99 21.01C12.77 24.37 11 28.79 11 33.45C11 43.37 19.07 51.45 29 51.45C38.93 51.45 47 43.37 47 33.45C47 32.62 47.67 31.95 48.5 31.95C49.33 31.95 50 32.62 50 33.45C50 45.03 40.58 54.45 29 54.45Z" fill="#231F20"/>
<path d="M30.38 7.50997C43.25 8.42997 53.53 18.71 54.45 31.58C54.52 32.61 53.74 33.46 52.71 33.46H30.24C29.28 33.46 28.5 32.68 28.5 31.72V9.24997C28.5 8.21997 29.34 7.42997 30.38 7.50997Z" fill="#F05023"/>
<path d="M52.7 34.95H30.24C28.45 34.95 27 33.5 27 31.71V9.25002C27 8.34002 27.37 7.47002 28.03 6.87002C28.68 6.26002 29.58 5.95002 30.48 6.01002C44.03 6.97002 54.97 17.92 55.94 31.47C56 32.38 55.69 33.27 55.08 33.92C54.47 34.57 53.6 34.95 52.7 34.95ZM30.24 9.00002C30.17 9.00002 30.11 9.02002 30.07 9.06002C30.02 9.11002 30 9.17002 30 9.25002V31.71C30 31.84 30.11 31.95 30.24 31.95H52.7C52.78 31.95 52.84 31.93 52.89 31.88C52.94 31.83 52.96 31.77 52.95 31.68C52.08 19.61 42.34 9.86002 30.27 9.00002C30.26 9.00002 30.25 9.00002 30.24 9.00002Z" fill="#231F20"/>
</g>
<defs>
<clipPath id="clip0">
<rect width="47.95" height="52.95" fill="white" transform="translate(8 6)"/>
</clipPath>
</defs>
</svg>
