<svg width="48" height="48" viewBox="0 0 48 48" fill="none" xmlns="http://www.w3.org/2000/svg">
    <path fill-rule="evenodd" clip-rule="evenodd"
          d="M9 36H18L16.2364 40.7031L15.5067 42.6489C15.2616 43.3026 15.7448 44 16.443 44H31.557C32.2552 44 32.7385 43.3026 32.4934 42.6489L31.7589 40.6902L30 36H39C40.1046 36 41 35.1792 41 34.1667V31H43C44.1046 31 45 30.1046 45 29V24C45 22.8954 44.1046 22 43 22H41V15.8333C41 14.8208 40.1046 14 39 14H9C7.89543 14 7 14.8208 7 15.8333V34.1667C7 35.1792 7.89543 36 9 36Z"
          fill="#BEDCE3"/>
    <path d="M5 32H35C36.1046 32 37 31.1046 37 30V12C37 10.8954 36.1046 10 35 10H5C3.89543 10 3 10.8954 3 12V30C3 31.1046 3.89543 32 5 32Z"
          fill="white"/>
    <path fill-rule="evenodd" clip-rule="evenodd"
          d="M5 11C4.44771 11 4 11.4477 4 12V30C4 30.5523 4.44772 31 5 31H35C35.5523 31 36 30.5523 36 30V14C36 13.4477 36.4477 13 37 13C37.5523 13 38 13.4477 38 14V30C38 31.6569 36.6569 33 35 33H5C3.34315 33 2 31.6569 2 30V12C2 10.3431 3.34315 9 5 9H32.75C33.3023 9 33.75 9.44772 33.75 10C33.75 10.5523 33.3023 11 32.75 11H5Z"
          fill="#231F20"/>
    <path d="M38 20H44C44.5523 20 45 19.5523 45 19V7C45 6.44772 44.5523 6 44 6H38C37.4477 6 37 6.44772 37 7V19C37 19.5523 37.4477 20 38 20Z"
          fill="#21C68B"/>
    <path d="M13.7567 32.6489C13.903 32.2586 14.2762 32 14.693 32H25.307C25.7238 32 26.097 32.2586 26.2433 32.6489L28.4933 38.6489C28.7385 39.3026 28.2552 40 27.557 40H12.443C11.7448 40 11.2615 39.3026 11.5067 38.6489L13.7567 32.6489Z"
          fill="white"/>
    <path fill-rule="evenodd" clip-rule="evenodd"
          d="M12.8203 32.2978C13.1131 31.5171 13.8593 31 14.693 31H25.307C26.1407 31 26.8869 31.5171 27.1797 32.2978L29.4297 38.2978C29.92 39.6053 28.9534 41 27.557 41H12.443C11.0466 41 10.08 39.6053 10.5703 38.2978L12.8203 32.2978ZM25.307 33L14.693 33L12.443 39L27.557 39L25.307 33Z"
          fill="#231F20"/>
    <path d="M41 6L39 6L39 20L41 20L41 6Z" fill="white"/>
    <path fill-rule="evenodd" clip-rule="evenodd"
          d="M36 7C36 5.89543 36.8954 5 38 5H44C45.1046 5 46 5.89543 46 7V19C46 20.1046 45.1046 21 44 21H38C36.8954 21 36 20.1046 36 19V7ZM44 7L38 7V19H44V7Z"
          fill="#231F20"/>
    <path d="M37 18H39C40.1046 18 41 18.8954 41 20V25C41 26.1046 40.1046 27 39 27H37V18Z" fill="white"/>
    <path fill-rule="evenodd" clip-rule="evenodd"
          d="M36 17H39C40.6569 17 42 18.3431 42 20V25C42 26.6569 40.6569 28 39 28H36V17ZM38 19V26H39C39.5523 26 40 25.5523 40 25V20C40 19.4477 39.5523 19 39 19H38Z"
          fill="#231F20"/>
    <path d="M6 13H34V29H6V13Z" fill="#BEDCE3"/>
</svg>
