<svg width="48" height="48" viewBox="0 0 48 48" fill="none" xmlns="http://www.w3.org/2000/svg">
    <path d="M10 37H40C41.1046 37 42 36.1046 42 35V17C42 15.8954 41.1046 15 40 15H10C8.89543 15 8 15.8954 8 17V35C8 36.1046 8.89543 37 10 37Z"
          fill="#BEDCE3"/>
    <path d="M41 21H43C44.1046 21 45 21.8954 45 23V28C45 29.1046 44.1046 30 43 30H41V21Z" fill="#BEDCE3"/>
    <path d="M19.7236 36.5528C19.893 36.214 20.2393 36 20.6181 36H31.382C31.7608 36 32.107 36.214 32.2764 36.5528L34.2764 40.5528C34.6089 41.2177 34.1254 42 33.382 42H18.6181C17.8747 42 17.3912 41.2177 17.7236 40.5528L19.7236 36.5528Z"
          fill="#BEDCE3"/>
    <path d="M13.5499 38H29.4501C30.1766 38 30.6606 37.2498 30.3612 36.5878L28.0993 31.5878C27.9374 31.23 27.5809 31 27.1882 31H15.8119C15.4191 31 15.0626 31.23 14.9007 31.5878L12.6388 36.5878C12.3394 37.2498 12.8234 38 13.5499 38Z"
          fill="white"/>
    <path d="M37 15H39C40.1046 15 41 15.8954 41 17V24C41 25.1046 40.1046 26 39 26H37V15Z" fill="white"/>
    <path fill-rule="evenodd" clip-rule="evenodd"
          d="M36 14H39C40.6569 14 42 15.3431 42 17V24C42 25.6569 40.6569 27 39 27H36V14ZM38 16V25H39C39.5523 25 40 24.5523 40 24V17C40 16.4477 39.5523 16 39 16H38Z"
          fill="#231F20"/>
    <path d="M8 12H34V28H8V12Z" fill="#BEDCE3"/>
    <path d="M37 29V11C37 9.89543 36.1046 9 35 9H26.5H7C5.89543 9 5 9.89543 5 11V29C5 30.1046 5.89543 31 7 31H33H35C36.1046 31 37 30.1046 37 29Z"
          fill="white"/>
    <path fill-rule="evenodd" clip-rule="evenodd"
          d="M7 10C6.44771 10 6 10.4477 6 11V29C6 29.5523 6.44772 30 7 30H15C15.5523 30 16 30.4477 16 31C16 31.5523 15.5523 32 15 32H7C5.34315 32 4 30.6569 4 29V11C4 9.34314 5.34315 8 7 8H11.5C12.0523 8 12.5 8.44772 12.5 9C12.5 9.55228 12.0523 10 11.5 10H7ZM25.5 9C25.5 8.44772 25.9477 8 26.5 8H35C36.6569 8 38 9.34315 38 11V29C38 30.6569 36.6569 32 35 32H33C32.4477 32 32 31.5523 32 31C32 30.4477 32.4477 30 33 30H35C35.5523 30 36 29.5523 36 29V11C36 10.4477 35.5523 10 35 10H26.5C25.9477 10 25.5 9.55228 25.5 9Z"
          fill="#231F20"/>
    <path fill-rule="evenodd" clip-rule="evenodd"
          d="M15.9191 31.3939L13.5165 37H30C30.5523 37 31 37.4477 31 38C31 38.5523 30.5523 39 30 39H13.5165C12.0807 39 11.1126 37.5319 11.6782 36.2122L12.5974 36.6061L11.6782 36.2122L14.0808 30.6061L15.9191 31.3939Z"
          fill="#231F20"/>
    <path d="M8 12H34V28H8V12Z" fill="#BEDCE3"/>
    <path fill-rule="evenodd" clip-rule="evenodd"
          d="M21.6126 12.9224C21.1925 12.7914 20.8874 12.3925 20.9068 11.9272L21.0548 8.32812C21.0789 7.78047 21.5386 7.34767 22.0958 7.37476C22.6434 7.39886 23.0762 7.85852 23.0491 8.41572L22.9011 12.0148C22.877 12.5624 22.4174 12.9952 21.8602 12.9682C21.7874 12.9664 21.6985 12.9492 21.6126 12.9224ZM17.0626 15.5889C16.8144 15.5115 16.6055 15.3417 16.4711 15.1007L14.7957 11.9073C14.5395 11.4189 14.727 10.8175 15.2154 10.5612C15.7038 10.305 16.3053 10.4925 16.5615 10.9809L18.2369 14.1744C18.4931 14.6628 18.3056 15.2642 17.8172 15.5204C17.5792 15.6453 17.3013 15.6634 17.0626 15.5889ZM12.0404 17.7207C12.1204 17.7665 12.1938 17.7999 12.2797 17.8267C12.6998 17.9577 13.1709 17.7903 13.4165 17.406C13.7079 16.9417 13.5661 16.3214 13.1018 16.0299L10.0564 14.1063C9.59205 13.8148 8.97173 13.9566 8.68031 14.4209C8.3889 14.8852 8.53068 15.5056 8.99499 15.797L12.0404 17.7207Z"
          fill="#F05023"/>
    <path fill-rule="evenodd" clip-rule="evenodd"
          d="M19.6335 18.7531L19.6121 18.7815C19.3454 19.3169 19.2642 19.9261 19.382 20.5133L19.3851 20.5286L19.3872 20.5441C19.4502 21.0062 19.5424 21.4875 19.6598 21.9638C19.7169 22.1792 19.7192 22.189 19.8374 22.6844L19.838 22.6869L19.8686 22.814C19.9082 22.9774 19.9424 23.1103 19.9797 23.2439C20.0465 23.4817 20.0733 23.5772 20.0965 23.6632L20.1103 23.7148C20.1537 23.8784 20.1958 24.0528 20.2613 24.3401C20.3229 24.612 20.3772 24.885 20.4288 25.179L20.742 26.9617L19.5582 25.5925C19.4191 25.4317 19.2703 25.2763 19.1137 25.1288L19.1041 25.1198C18.7645 24.7825 18.3256 24.5454 17.8463 24.4448C17.2198 24.3831 16.6801 24.7745 16.5409 25.3474L16.5378 25.3599C16.458 25.655 16.5055 25.9817 16.6752 26.2513L16.6856 26.2678L16.6947 26.2851C16.7835 26.4541 16.9748 26.7184 17.3776 27.2175L17.4388 27.2933L17.4823 27.3469C18.0087 27.9969 18.0131 28.0023 18.1418 28.1862L18.1477 28.1945C18.2991 28.4204 18.558 28.8477 18.7988 29.245C18.8147 29.2712 18.8305 29.2972 18.8462 29.3231C18.9752 29.5358 19.0981 29.7381 19.1987 29.8998C19.249 29.9807 19.2925 30.0496 19.3276 30.1034C19.3451 30.1303 19.3597 30.1521 19.3714 30.1691L19.3855 30.1892L20.1963 31.1159C20.321 31.2319 20.6131 31.5082 20.8033 31.6882C20.8931 31.7732 20.9602 31.8367 20.9762 31.8516C21.0712 31.9402 21.1576 32.0195 21.2399 32.0934C21.2657 32.1165 21.2784 32.1278 21.2912 32.1391C21.3039 32.1504 21.3167 32.1617 21.3426 32.1846C21.4641 32.2916 21.5278 32.4288 21.5628 32.5269C21.6018 32.6359 21.6263 32.7567 21.6399 32.8806C21.6627 33.0893 21.6556 33.309 21.6333 33.5087C21.6332 33.5102 21.633 33.5117 21.6328 33.5133C21.8662 33.5146 22.1228 33.519 22.4893 33.5272L22.6419 33.5307C23.849 33.5581 24.2589 33.5562 24.6146 33.5137C24.6706 33.5072 24.805 33.4521 25.0076 33.2444C25.1986 33.0485 25.3991 32.7701 25.5934 32.4411L26.0429 31.68L26.4636 32.4573C26.627 32.7591 26.803 33.0213 26.9792 33.2097C27.1561 33.3989 27.2896 33.4674 27.3701 33.4829C27.7332 33.5207 28.0852 33.5248 28.4333 33.4968C28.3739 33.2338 28.3441 32.9647 28.3444 32.6948C28.3359 32.3404 28.3704 31.9964 28.4476 31.6599L28.4598 31.6065L28.4833 31.5571C28.7628 30.9691 29.1624 30.3598 29.6449 29.8184C29.9576 29.3642 30.1859 28.9102 30.3519 28.4341C30.4808 27.8403 30.5579 27.2791 30.5937 26.7152C30.5941 26.4424 30.5942 26.2983 30.5943 26.1542C30.5944 25.9958 30.5944 25.8374 30.5944 25.5079V24.4347L30.6135 24.3676C30.6948 24.0816 30.6257 23.7724 30.4278 23.5478C30.2205 23.3126 29.9035 23.2058 29.5962 23.2677C29.3869 23.3098 29.2037 23.4258 29.0764 23.5896L28.4753 24.3633L28.2015 23.4225C28.1591 23.2766 28.1104 23.1329 28.0557 22.9912C27.8654 22.7377 27.6697 22.6029 27.4598 22.5268C27.1132 22.4641 26.8075 22.4655 26.5118 22.5173C26.2488 22.5908 26.0449 22.7334 25.9018 22.9224L25.3553 23.6438L25.0355 22.7972C25.0319 22.7876 25.0282 22.7781 25.0246 22.7685C24.817 22.4855 24.5825 22.3464 24.3328 22.2921C24.0386 22.2436 23.7523 22.2623 23.4822 22.3425C23.3332 22.4015 23.2085 22.489 23.1115 22.5947L22.4287 23.338L22.251 22.3444C22.2137 22.1356 22.1825 21.9535 22.156 21.7876L22.1545 21.778L22.1533 21.7684C22.0737 21.1074 21.9017 20.4456 21.6437 19.8152L21.6369 19.7984L21.6312 19.7811C21.4835 19.3289 21.1876 18.9089 20.7873 18.6002C20.3464 18.415 19.9255 18.4978 19.6335 18.7531ZM25.5675 21.8717C25.7763 21.7248 26.0141 21.6145 26.2739 21.5456L26.2928 21.5406L26.3121 21.5371C26.7508 21.4569 27.1978 21.4582 27.6825 21.5512L27.7153 21.5574L27.7469 21.568C28.1994 21.7193 28.5838 22.0053 28.9057 22.4598C29.059 22.3804 29.225 22.3224 29.3988 22.2873C30.0564 22.1549 30.7346 22.3834 31.1781 22.8867C31.5849 23.3484 31.7374 23.977 31.5944 24.5686V25.5079C31.5944 26.143 31.5944 26.1432 31.5937 26.7318L31.5937 26.747L31.5927 26.7622C31.5535 27.392 31.4671 28.0176 31.3225 28.6767L31.3164 28.7047L31.3071 28.7319C31.1066 29.3159 30.8278 29.8688 30.4488 30.414L30.431 30.4397L30.4101 30.4629C29.9957 30.9237 29.6516 31.4424 29.4106 31.9363C29.3602 32.1751 29.3377 32.4204 29.3443 32.6762L29.3445 32.6834L29.3444 32.6907C29.3437 32.9237 29.3739 33.1557 29.4344 33.3807C29.5741 33.9002 29.2164 34.4215 28.6814 34.478C28.2107 34.5278 27.7366 34.5276 27.2494 34.4757L27.2379 34.4744L27.2264 34.4727C26.8252 34.411 26.4973 34.1585 26.2488 33.8927C26.1663 33.8045 26.0873 33.7092 26.0118 33.6089C25.9188 33.7287 25.8226 33.841 25.7235 33.9426C25.4675 34.2051 25.1315 34.4598 24.7323 34.5068C24.2919 34.5593 23.8044 34.5574 22.6192 34.5304L22.467 34.527C22.0263 34.5171 21.7529 34.5129 21.4894 34.5129C20.9441 34.5129 20.5317 34.0195 20.6283 33.4828C20.6283 33.4827 20.6284 33.4821 20.6286 33.4811L20.6294 33.4758L20.6321 33.4576C20.6342 33.4424 20.6368 33.4224 20.6395 33.398C20.656 33.2495 20.6586 33.1062 20.6458 32.9895C20.6422 32.9566 20.6377 32.9294 20.6331 32.9076C20.6315 32.9002 20.6299 32.8937 20.6285 32.888C20.6144 32.8755 20.6007 32.8633 20.5731 32.8385C20.4848 32.7594 20.3928 32.675 20.2941 32.5829C20.2671 32.5577 20.1827 32.4778 20.0772 32.3779C19.8794 32.1907 19.6073 31.9331 19.4978 31.8319L19.4784 31.814L18.6118 30.8236L18.6033 30.8127C18.5423 30.7347 18.4464 30.5839 18.3494 30.4278C18.2454 30.2605 18.1197 30.0536 17.9911 29.8416L17.9529 29.7786C17.7054 29.3704 17.4582 28.9627 17.3196 28.7553C17.316 28.7501 17.3125 28.7452 17.3091 28.7404C17.2164 28.6077 17.2153 28.6061 16.6617 27.9227L16.5994 27.8456C16.2157 27.37 15.9623 27.0348 15.8186 26.7674C15.5113 26.2692 15.4211 25.6648 15.5707 25.105C15.8355 24.029 16.857 23.3255 17.9799 23.4534L18.001 23.4558L18.0218 23.46C18.4105 23.5381 18.7816 23.6807 19.1188 23.8789C19.099 23.8066 19.0722 23.7108 19.0169 23.5138C18.9757 23.3663 18.9384 23.2214 18.8968 23.05L18.8654 22.9194C18.7471 22.4234 18.7468 22.4225 18.6937 22.2219L18.6899 22.2076C18.565 21.7019 18.4665 21.1895 18.3984 20.6942C18.2379 19.8758 18.359 19.027 18.7422 18.2859L18.7617 18.2482L18.889 18.0796L18.9199 18.0505C19.5364 17.4706 20.4312 17.3341 21.2514 17.7121L21.298 17.7335L21.3392 17.764C21.9188 18.1919 22.355 18.7893 22.5759 19.4528C22.8334 20.0856 23.0146 20.7469 23.1142 21.4127C23.1235 21.409 23.1327 21.4054 23.1421 21.4019L23.1572 21.3961L23.1728 21.3913C23.6023 21.2595 24.0554 21.2307 24.5099 21.3078L24.5192 21.3094L24.5285 21.3114C24.919 21.393 25.27 21.5797 25.5675 21.8717Z"
          fill="#231F20"/>
    <path d="M31.0944 25.5079C31.0944 26.1428 31.0944 26.1429 31.0937 26.7312C31.0561 27.335 30.9733 27.9352 30.8341 28.5696C30.6491 29.1089 30.3915 29.6205 30.0383 30.1286C29.578 30.6405 29.1976 31.219 28.9349 31.7717C28.8667 32.0688 28.8363 32.3733 28.8444 32.6891C28.8435 32.9664 28.8796 33.2426 28.9516 33.5105C29.0114 33.7331 28.8581 33.9565 28.6288 33.9808C28.1938 34.0268 27.7551 34.0268 27.3024 33.9785C26.8219 33.9046 26.3732 33.3407 26.0239 32.6953C25.6131 33.3908 25.129 33.9567 24.6739 34.0102C24.2757 34.0578 23.8271 34.0578 22.6305 34.0305C22.5543 34.0288 22.5543 34.0288 22.4781 34.0271C22.0364 34.0172 21.7586 34.0128 21.4894 34.0128C21.2557 34.0128 21.079 33.8014 21.1204 33.5714C21.1239 33.552 21.13 33.5108 21.1364 33.4534C21.1558 33.2792 21.1607 33.0978 21.1429 32.9351C21.1219 32.7433 21.0717 32.6121 21.012 32.5596C20.9591 32.513 20.9591 32.513 20.9063 32.4658C20.821 32.3893 20.7321 32.3077 20.6352 32.2173C20.5704 32.1568 20.0012 31.6164 19.8372 31.4648L18.9972 30.5048C18.8345 30.2966 18.0388 28.9303 17.7322 28.4729C17.6125 28.3019 17.6247 28.3171 17.0503 27.608C17.0194 27.5698 17.0194 27.5698 16.9884 27.5315C16.591 27.039 16.3674 26.7372 16.2521 26.5176C16.0088 26.1312 15.9383 25.6607 16.055 25.2293C16.2566 24.4 17.0432 23.8499 17.9233 23.9502C18.5061 24.0673 19.0417 24.3529 19.4565 24.7649C19.6255 24.924 19.7861 25.0917 19.9364 25.2655C19.8859 24.9785 19.8334 24.7142 19.7738 24.4512C19.7088 24.1662 19.6683 23.9987 19.6271 23.8433C19.6205 23.8184 19.6205 23.8184 19.6138 23.7936C19.5913 23.7105 19.5654 23.6179 19.4982 23.3786C19.459 23.2379 19.4234 23.0996 19.3827 22.932C19.3671 22.8675 19.3671 22.8675 19.3517 22.8031C19.2321 22.302 19.2319 22.301 19.1753 22.0877C19.0534 21.5935 18.9574 21.0933 18.8917 20.6116C18.7489 19.8998 18.8528 19.1605 19.1863 18.5156L19.2625 18.4147C19.722 17.9825 20.396 17.8684 21.0422 18.1662C21.5454 18.5377 21.9205 19.0566 22.1065 19.6258C22.3813 20.2973 22.5646 21.0026 22.6497 21.7086C22.6756 21.8707 22.7062 22.0496 22.7432 22.2564C22.8969 22.0891 23.0922 21.9556 23.3194 21.8693C23.6731 21.7608 24.0472 21.7364 24.4262 21.8008C24.8277 21.8847 25.1835 22.1157 25.4679 22.5294C25.48 22.5597 25.4917 22.59 25.5032 22.6205C25.7196 22.3347 26.0265 22.1284 26.402 22.029C26.7772 21.9604 27.1617 21.9604 27.5883 22.0422C27.9315 22.1569 28.2317 22.3733 28.4977 22.7488C28.5675 22.9237 28.6289 23.1017 28.6816 23.2828C28.8812 23.0259 29.1688 22.8437 29.4975 22.7775C29.98 22.6804 30.4776 22.848 30.8029 23.2172C31.1136 23.5698 31.2221 24.0552 31.0944 24.5043V25.5079Z"
          fill="white"/>
    <path fill-rule="evenodd" clip-rule="evenodd"
          d="M31.0937 26.7312C31.0944 26.1429 31.0944 26.1428 31.0944 25.5079V24.5043C31.2221 24.0552 31.1136 23.5698 30.8029 23.2172C30.4776 22.848 29.98 22.6804 29.4975 22.7775C29.1688 22.8437 28.8812 23.0259 28.6816 23.2828C28.6289 23.1017 28.5675 22.9237 28.4977 22.7488C28.2317 22.3733 27.9315 22.1569 27.5883 22.0422C27.1617 21.9604 26.7772 21.9604 26.402 22.029C26.0265 22.1284 25.7196 22.3347 25.5032 22.6205C25.4917 22.59 25.48 22.5597 25.4679 22.5294C25.1835 22.1157 24.8277 21.8847 24.4262 21.8008C24.0472 21.7364 23.6731 21.7608 23.3194 21.8693C23.0922 21.9556 22.8969 22.0891 22.7432 22.2564C22.7062 22.0496 22.6756 21.8707 22.6497 21.7086C22.5646 21.0026 22.3813 20.2973 22.1065 19.6258C21.9205 19.0566 21.5454 18.5377 21.0422 18.1662C20.396 17.8684 19.722 17.9825 19.2625 18.4147L19.1863 18.5156C18.8528 19.1605 18.7489 19.8998 18.8917 20.6116C18.9574 21.0933 19.0534 21.5935 19.1753 22.0877C19.2319 22.301 19.2321 22.302 19.3517 22.8031L19.3827 22.932C19.4234 23.0996 19.459 23.2379 19.4982 23.3786C19.5654 23.6179 19.5913 23.7105 19.6138 23.7936L19.6271 23.8433C19.6683 23.9987 19.7088 24.1662 19.7738 24.4512C19.8334 24.7142 19.8859 24.9785 19.9364 25.2655C19.7861 25.0917 19.6255 24.924 19.4565 24.7649C19.0417 24.3529 18.5061 24.0673 17.9233 23.9502C17.0432 23.8499 16.2566 24.4 16.055 25.2293C15.9383 25.6607 16.0088 26.1312 16.2521 26.5176C16.3674 26.7372 16.591 27.039 16.9884 27.5315L17.0503 27.608C17.5115 28.1775 17.5945 28.2798 17.6713 28.3866C17.6902 28.4128 17.7086 28.4392 17.7322 28.4729C17.8769 28.6889 18.1307 29.1074 18.3754 29.5111C18.649 29.9623 18.9113 30.3949 18.9972 30.5048L19.8372 31.4648C19.9471 31.5663 20.2386 31.8423 20.4387 32.0316C20.5374 32.125 20.6138 32.1973 20.6352 32.2173C20.7321 32.3077 20.821 32.3893 20.9063 32.4658C20.9328 32.4895 20.946 32.5013 20.9592 32.513C20.9724 32.5247 20.9856 32.5364 21.012 32.5596C21.0717 32.6121 21.1219 32.7433 21.1429 32.9351C21.1607 33.0978 21.1558 33.2792 21.1364 33.4534C21.13 33.5108 21.1239 33.552 21.1204 33.5714C21.079 33.8014 21.2557 34.0128 21.4894 34.0128C21.7586 34.0128 22.0364 34.0172 22.4781 34.0271L22.6305 34.0305C23.8271 34.0578 24.2757 34.0578 24.6739 34.0102C25.129 33.9567 25.6131 33.3908 26.0239 32.6953C26.3732 33.3407 26.8219 33.9046 27.3024 33.9785C27.7551 34.0268 28.1938 34.0268 28.6288 33.9808C28.8581 33.9565 29.0114 33.7331 28.9516 33.5105C28.8796 33.2426 28.8435 32.9664 28.8444 32.6891C28.8363 32.3733 28.8667 32.0688 28.9349 31.7717C29.1976 31.219 29.578 30.6405 30.0383 30.1286C30.3915 29.6205 30.6491 29.1089 30.8341 28.5696C30.9733 27.9352 31.0561 27.335 31.0937 26.7312ZM21.0112 31.5408C20.816 31.3562 20.4751 31.0338 20.3708 30.9396L19.5704 30.021C19.5118 29.9415 19.3214 29.6263 19.1003 29.2602C18.8373 28.8248 18.5309 28.3176 18.3509 28.049C18.2675 27.9297 18.1645 27.7951 18.024 27.6191C17.9694 27.5507 17.9304 27.5024 17.8325 27.3816L17.6331 27.1359L17.5721 27.0605C17.2075 26.6086 16.9988 26.327 16.9007 26.1421C16.7551 25.9089 16.7169 25.6543 16.7814 25.4157C16.8962 24.9441 17.3347 24.6374 17.8076 24.6905C18.2144 24.7737 18.6176 24.9887 18.9352 25.304C19.1853 25.5397 19.4089 25.7885 19.6106 26.0545C19.6732 26.1329 19.7126 26.1856 19.7745 26.2723C19.881 26.4217 19.9114 26.4632 19.9941 26.569C20 26.5765 20.0159 26.598 20.0369 26.6265C20.0947 26.7048 20.191 26.8351 20.2228 26.8689C20.2619 26.9186 20.2619 26.9186 20.4614 27.0003C20.8893 26.8426 20.8917 26.8391 20.9042 26.6381C20.9091 26.5591 20.8954 26.4884 20.8619 26.3619C20.7477 25.5263 20.6464 24.908 20.5051 24.285C20.4382 23.9916 20.3958 23.8162 20.352 23.6511L20.3379 23.5981C20.3143 23.511 20.2872 23.4143 20.2206 23.1771C20.1839 23.0455 20.1503 22.915 20.1115 22.755L20.0812 22.6291C19.9597 22.1198 19.9592 22.1176 19.9019 21.9017C19.7878 21.4393 19.6968 20.9649 19.6309 20.4866C19.5224 19.9426 19.5911 19.4 19.822 18.9211C20.0589 18.7293 20.3852 18.6848 20.6667 18.8103C20.9747 19.0486 21.2565 19.4384 21.4031 19.8849C21.6617 20.5192 21.8281 21.1592 21.9071 21.8129C21.9505 22.0856 22.0029 22.383 22.0729 22.762L22.1041 22.9299C22.3785 24.402 22.3804 24.4125 22.3846 24.5403C22.401 25.0318 23.1344 25.0196 23.1344 24.5279C23.1344 24.4195 23.1323 24.3614 23.1185 24.0364C23.1132 23.9082 23.111 23.8535 23.1086 23.7787C23.098 23.4466 23.1033 23.2208 23.1271 23.1014C23.1729 22.8609 23.3376 22.6642 23.563 22.5782C23.7814 22.5121 24.0374 22.4954 24.2869 22.5376C24.4912 22.5806 24.6847 22.7063 24.8153 22.8873C24.9866 23.3493 25.1062 23.9257 25.1246 24.5096C25.1397 24.9898 25.8506 24.9959 25.874 24.5161C25.8982 24.0193 25.9806 23.5271 26.1196 23.0497C26.2341 22.9089 26.3904 22.8073 26.5666 22.7601C26.8229 22.7144 27.116 22.7144 27.402 22.7667C27.5495 22.82 27.7236 22.9455 27.8497 23.1132C27.9985 23.5212 28.118 24.0432 28.1553 24.5741C28.1529 24.5734 28.1508 24.5728 28.1497 24.5736C28.1442 24.5773 28.16 24.6129 28.2525 24.8211C28.6336 24.8872 28.7493 24.9073 28.8048 24.8587C28.8291 24.8375 28.8419 24.8032 28.8603 24.7541L28.8603 24.754C28.8862 24.7013 28.8862 24.7013 28.8935 24.6789C28.9028 24.6515 28.9125 24.615 28.9295 24.5489C28.9668 24.4075 29.0012 24.2974 29.0458 24.1893C29.0749 24.1187 29.1055 24.0573 29.1369 24.0074C29.2464 23.7151 29.4258 23.557 29.6456 23.5127C29.8653 23.4685 30.092 23.5449 30.2402 23.713C30.3884 23.8812 30.4356 24.1157 30.364 24.3281L30.3444 24.4479V26.7079C30.3099 27.251 30.2322 27.8141 30.1128 28.369C29.9617 28.8011 29.7349 29.2516 29.4504 29.6654C28.9698 30.1952 28.5477 30.8371 28.2287 31.5312C28.1216 31.9625 28.0849 32.33 28.0946 32.6977C28.0939 32.8842 28.1076 33.0738 28.1355 33.2629C27.8898 33.2701 27.6436 33.2608 27.3988 33.2349C27.2772 33.2158 26.9055 32.7487 26.6892 32.3492C26.5672 32.1043 26.3056 31.9426 26.0194 31.9426C25.7333 31.9426 25.4717 32.1043 25.3439 32.3604C25.0957 32.7876 24.6983 33.2522 24.5856 33.2654C24.2387 33.3068 23.7954 33.3068 22.6476 33.2807L22.4949 33.2773C22.2592 33.272 22.0693 33.2683 21.9019 33.2659C21.9069 33.128 21.9033 32.9892 21.8884 32.8534C21.8489 32.4931 21.7359 32.1972 21.5068 31.9961C21.4822 31.9743 21.4697 31.9633 21.4574 31.9524C21.4448 31.9412 21.4323 31.9301 21.4072 31.9076C21.3258 31.8345 21.2403 31.7561 21.1468 31.6688C21.1314 31.6545 21.0805 31.6063 21.0112 31.5408Z"
          fill="#231F20"/>
</svg>
