<svg width="48" height="48" viewBox="0 0 48 48" fill="none" xmlns="http://www.w3.org/2000/svg">
<path fill-rule="evenodd" clip-rule="evenodd" d="M41 15.4911C41 13.623 39.9154 11.9032 38.1528 11.3794C35.2118 10.5055 31.7308 10 28 10C24.2692 10 20.7882 10.5055 17.8472 11.3794C16.0846 11.9032 15 13.623 15 15.4911V28V40.5089C15 42.377 16.0846 44.0968 17.8472 44.6206C20.7882 45.4945 24.2692 46 28 46C31.7308 46 35.2118 45.4945 38.1528 44.6206C39.9154 44.0968 41 42.377 41 40.5089V28V15.4911Z" fill="#BEDCE3"/>
<path fill-rule="evenodd" clip-rule="evenodd" d="M37 11.4911C37 9.62304 35.9154 7.90318 34.1528 7.37942C31.2118 6.50549 27.7308 6 24 6C20.2692 6 16.7882 6.50549 13.8472 7.37942C12.0846 7.90318 11 9.62304 11 11.4911V24V36.5089C11 38.377 12.0846 40.0968 13.8472 40.6206C16.7882 41.4945 20.2692 42 24 42C27.7308 42 31.2118 41.4945 34.1528 40.6206C35.9154 40.0968 37 38.377 37 36.5089V24V11.4911Z" fill="white"/>
<path fill-rule="evenodd" clip-rule="evenodd" d="M24 7C20.3559 7 16.9717 7.49417 14.132 8.33799C12.8673 8.71379 12 9.98365 12 11.4911V34C12 34.5523 11.5523 35 11 35C10.4477 35 10 34.5523 10 34V11.4911C10 9.26244 11.3018 7.09257 13.5623 6.42084C16.6047 5.5168 20.1824 5 24 5C27.8176 5 31.3953 5.5168 34.4377 6.42084C36.6982 7.09257 38 9.26244 38 11.4911V36.5089C38 38.7376 36.6982 40.9074 34.4377 41.5792C31.3953 42.4832 27.8176 43 24 43C20.1824 43 16.6047 42.4832 13.5623 41.5792C13.0329 41.4218 12.7313 40.8651 12.8886 40.3357C13.0459 39.8063 13.6026 39.5047 14.132 39.662C16.9717 40.5058 20.3559 41 24 41C27.6441 41 31.0283 40.5058 33.868 39.662C35.1327 39.2862 36 38.0164 36 36.5089V11.4911C36 9.98365 35.1327 8.71379 33.868 8.33799C31.0283 7.49417 27.6441 7 24 7Z" fill="#231F20"/>
<path d="M15 31.26H19.7368V36H17C15.8954 36 15 35.1046 15 34V31.26Z" fill="#BEDCE3"/>
<path d="M28.2632 31.26H33V34C33 35.1046 32.1046 36 31 36H28.2632V31.26Z" fill="#BEDCE3"/>
<path d="M21.6313 31.26H26.3682V36H21.6313V31.26Z" fill="#BEDCE3"/>
<path d="M15 14C15 12.8954 15.8954 12 17 12H31C32.1046 12 33 12.8954 33 14V29.26H15V14Z" fill="#91B1B8"/>
<circle cx="24" cy="9.5" r="1" fill="#231F20"/>
</svg>
