<svg width="64" height="64" viewBox="0 0 64 64" fill="none" xmlns="http://www.w3.org/2000/svg">
<g clip-path="url(#clip0)">
<path d="M53.6798 61.8101H15.4498C12.2098 61.8101 9.56982 59.1101 9.56982 55.8101C9.56982 52.5101 12.2198 49.8101 15.4498 49.8101H53.6898C56.9298 49.8101 59.5698 52.5101 59.5698 55.8101C59.5598 59.1101 56.9198 61.8101 53.6798 61.8101Z" fill="#BEDCE3"/>
<path d="M17.4501 36.3099C16.9901 36.3099 16.5401 36.0999 16.2501 35.7099C15.7501 35.0499 15.8901 34.1099 16.5601 33.6099L21.6301 29.8299L20.2401 19.6599L12.5201 16.6999L7.30012 19.6599C6.58012 20.0699 5.66012 19.8199 5.26012 19.0999C4.85012 18.3799 5.10012 17.4599 5.82012 17.0599L12.2701 13.3999L22.9601 17.4899L24.8301 31.1799L18.3401 36.0199C18.0701 36.2099 17.7601 36.3099 17.4501 36.3099Z" fill="#231F20"/>
<path d="M27.7298 52.7501C25.7998 51.2001 25.4798 48.3601 27.0298 46.4201L47.5598 20.8001C49.1098 18.8701 51.9498 18.5501 53.8898 20.1001C55.8198 21.6501 56.1398 24.4901 54.5898 26.4301L34.0598 52.0501C32.5098 53.9801 29.6698 54.2901 27.7298 52.7501Z" fill="white"/>
<path d="M30.5398 55.2301C29.2198 55.2301 27.8998 54.8001 26.7898 53.9201C24.2098 51.8501 23.7898 48.0701 25.8598 45.4901L46.3798 19.8701C47.3798 18.6201 48.8098 17.8401 50.4098 17.6601C52.0098 17.4801 53.5698 17.9401 54.8198 18.9401C56.0698 19.9401 56.8498 21.3701 57.0298 22.9601C57.2098 24.5601 56.7498 26.1201 55.7498 27.3701L35.2298 52.9901C34.0498 54.4601 32.2998 55.2301 30.5398 55.2301ZM51.0798 20.6201C50.9698 20.6201 50.8498 20.6301 50.7398 20.6401C49.9398 20.7301 49.2298 21.1201 48.7298 21.7401L28.2098 47.3601C27.1798 48.6501 27.3798 50.5401 28.6798 51.5801C29.9698 52.6101 31.8598 52.4101 32.8998 51.1101L53.4198 25.4901C53.9198 24.8701 54.1398 24.0801 54.0598 23.2801C53.9698 22.4801 53.5798 21.7701 52.9598 21.2701C52.4098 20.8501 51.7598 20.6201 51.0798 20.6201Z" fill="#231F20"/>
<path d="M35.3398 7.21997C37.0898 5.46997 39.9498 5.46997 41.6998 7.21997L54.4298 19.95C56.1798 21.7 56.1798 24.56 54.4298 26.31C52.6798 28.06 49.8198 28.06 48.0698 26.31L35.3398 13.59C33.5898 11.84 33.5898 8.96997 35.3398 7.21997Z" fill="white"/>
<path d="M51.2498 29.1299C49.6398 29.1299 48.1398 28.5099 47.0098 27.3799L34.2798 14.6499C33.1498 13.5199 32.5298 12.0099 32.5298 10.4099C32.5298 8.79992 33.1498 7.29992 34.2798 6.16992C35.4098 5.03992 36.9198 4.41992 38.5198 4.41992C40.1198 4.41992 41.6298 5.03992 42.7598 6.16992L55.4998 18.8899C56.6298 20.0199 57.2498 21.5299 57.2498 23.1299C57.2498 24.7299 56.6298 26.2399 55.4998 27.3699C54.3698 28.4999 52.8598 29.1299 51.2498 29.1299ZM38.5198 7.40992C37.7498 7.40992 36.9798 7.69992 36.3998 8.28992C35.2298 9.45992 35.2298 11.3599 36.3998 12.5299L49.1298 25.2599C50.2598 26.3899 52.2498 26.3899 53.3698 25.2599C54.5398 24.0899 54.5398 22.1899 53.3698 21.0199L40.6498 8.27992C40.0598 7.69992 39.2898 7.40992 38.5198 7.40992Z" fill="#231F20"/>
<path d="M50.5 55.8101H11.5C8.2 55.8101 5.5 53.1101 5.5 49.8101C5.5 46.5101 8.2 43.8101 11.5 43.8101H50.5C53.8 43.8101 56.5 46.5101 56.5 49.8101C56.5 53.1101 53.8 55.8101 50.5 55.8101Z" fill="#F05023"/>
<path d="M49.62 57.3101H11.38C7.31 57.3101 4 53.9501 4 49.8101C4 48.9801 4.67 48.3101 5.5 48.3101C6.33 48.3101 7 48.9801 7 49.8101C7 52.2901 8.97 54.3101 11.38 54.3101H49.61C52.03 54.3101 53.99 52.2901 53.99 49.8101C53.99 47.3301 52.02 45.3101 49.61 45.3101H12.5C11.67 45.3101 11 44.6401 11 43.8101C11 42.9801 11.67 42.3101 12.5 42.3101H49.62C53.69 42.3101 57 45.6701 57 49.8101C57 53.9501 53.69 57.3101 49.62 57.3101Z" fill="#231F20"/>
<path d="M48.5601 51.8101C49.6646 51.8101 50.5601 50.9146 50.5601 49.8101C50.5601 48.7055 49.6646 47.8101 48.5601 47.8101C47.4555 47.8101 46.5601 48.7055 46.5601 49.8101C46.5601 50.9146 47.4555 51.8101 48.5601 51.8101Z" fill="white"/>
<path d="M39.6299 51.8101C40.7345 51.8101 41.6299 50.9146 41.6299 49.8101C41.6299 48.7055 40.7345 47.8101 39.6299 47.8101C38.5253 47.8101 37.6299 48.7055 37.6299 49.8101C37.6299 50.9146 38.5253 51.8101 39.6299 51.8101Z" fill="white"/>
<path d="M30.6299 51.8101C31.7345 51.8101 32.6299 50.9146 32.6299 49.8101C32.6299 48.7055 31.7345 47.8101 30.6299 47.8101C29.5253 47.8101 28.6299 48.7055 28.6299 49.8101C28.6299 50.9146 29.5253 51.8101 30.6299 51.8101Z" fill="white"/>
<path d="M21.6299 51.8101C22.7345 51.8101 23.6299 50.9146 23.6299 49.8101C23.6299 48.7055 22.7345 47.8101 21.6299 47.8101C20.5253 47.8101 19.6299 48.7055 19.6299 49.8101C19.6299 50.9146 20.5253 51.8101 21.6299 51.8101Z" fill="white"/>
<path d="M12.6299 51.8101C13.7345 51.8101 14.6299 50.9146 14.6299 49.8101C14.6299 48.7055 13.7345 47.8101 12.6299 47.8101C11.5253 47.8101 10.6299 48.7055 10.6299 49.8101C10.6299 50.9146 11.5253 51.8101 12.6299 51.8101Z" fill="white"/>
<path d="M18.8197 21.64C17.5397 19.52 18.2197 16.74 20.3397 15.46L35.7397 6.13998C37.8597 4.85998 40.6397 5.53998 41.9197 7.65998C43.1997 9.77998 42.5197 12.56 40.3997 13.84L24.9997 23.16C22.8797 24.45 20.0997 23.76 18.8197 21.64Z" fill="white"/>
<path d="M22.6799 25.3099C20.6499 25.3099 18.6599 24.2799 17.5399 22.4199C15.8299 19.5899 16.7399 15.8899 19.5699 14.1799L34.9699 4.85994C36.3399 4.02994 37.9399 3.78994 39.5099 4.16994C41.0699 4.54994 42.3799 5.51994 43.2099 6.88994C44.0399 8.25994 44.2799 9.86994 43.8999 11.4299C43.5199 12.9899 42.5499 14.2999 41.1899 15.1299L25.7899 24.4499C24.7999 25.0299 23.7299 25.3099 22.6799 25.3099ZM20.0999 20.8699C20.9599 22.2799 22.8099 22.7399 24.2199 21.8799L39.6199 12.5599C40.2999 12.1499 40.7799 11.4899 40.9699 10.7099C41.1599 9.92994 41.0399 9.11994 40.6299 8.43994C40.2199 7.75994 39.5599 7.27994 38.7799 7.07994C37.9999 6.89994 37.1999 7.01994 36.5199 7.42994L21.1199 16.7499C20.4399 17.1599 19.9599 17.8199 19.7599 18.5999C19.5599 19.3799 19.6899 20.1899 20.0999 20.8699Z" fill="#231F20"/>
</g>
<defs>
<clipPath id="clip0">
<rect width="55.56" height="57.81" fill="white" transform="translate(4 4)"/>
</clipPath>
</defs>
</svg>
