<svg width="64" height="64" viewBox="0 0 64 64" fill="none" xmlns="http://www.w3.org/2000/svg">
<path d="M12.5 21.5V52.5C12.5 55.26 14.74 57.5 17.5 57.5H55.5C56.6 57.5 57.5 56.6 57.5 55.5V28.5C57.5 27.4 56.6 26.5 55.5 26.5H17.5C14.74 26.5 12.5 24.26 12.5 21.5Z" fill="#BEDCE3"/>
<path d="M17.5 9.5H13.63C10.8 9.5 8.5 11.8 8.5 14.63V25.85H49.72V11.5C49.72 10.4 48.82 9.5 47.72 9.5H28.5" fill="white"/>
<path fill-rule="evenodd" clip-rule="evenodd" d="M7 14.63C7 10.9716 9.97157 8 13.63 8H17.5C18.3284 8 19 8.67157 19 9.5C19 10.3284 18.3284 11 17.5 11H13.63C11.6284 11 10 12.6284 10 14.63V24.35H48.22V11.5C48.22 11.2284 47.9916 11 47.72 11H28.5C27.6716 11 27 10.3284 27 9.5C27 8.67157 27.6716 8 28.5 8H47.72C49.6484 8 51.22 9.57157 51.22 11.5V27.35H7V14.63Z" fill="#231F20"/>
<path d="M8.5 15.5V46.5C8.5 49.26 10.74 51.5 13.5 51.5H51.5C52.6 51.5 53.5 50.6 53.5 49.5V22.5C53.5 21.4 52.6 20.5 51.5 20.5H13.5C10.74 20.5 8.5 18.26 8.5 15.5Z" fill="white"/>
<path fill-rule="evenodd" clip-rule="evenodd" d="M7 46.5V15.5H10C10 17.4316 11.5684 19 13.5 19H51.5C53.4284 19 55 20.5716 55 22.5V49.5C55 51.4284 53.4284 53 51.5 53H13.5C9.91157 53 7 50.0884 7 46.5ZM10 20.9774V46.5C10 48.4316 11.5684 50 13.5 50H51.5C51.7716 50 52 49.7716 52 49.5V22.5C52 22.2284 51.7716 22 51.5 22H13.5C12.2116 22 11.0105 21.6247 10 20.9774Z" fill="#231F20"/>
<path d="M54.5001 40.5H43.1401C40.0901 40.5 37.6201 38.03 37.6201 34.98C37.6201 31.93 40.0901 29.46 43.1401 29.46H54.5001C55.5001 29.46 56.3001 30.27 56.3001 31.26V38.7C56.3001 39.69 55.5001 40.5 54.5001 40.5Z" fill="white"/>
<path fill-rule="evenodd" clip-rule="evenodd" d="M43.1401 30.96C40.9185 30.96 39.1201 32.7584 39.1201 34.98C39.1201 37.2015 40.9185 39 43.1401 39H54.5001C54.6663 39 54.8001 38.867 54.8001 38.7V31.26C54.8001 31.093 54.6663 30.96 54.5001 30.96H43.1401ZM36.1201 34.98C36.1201 31.1015 39.2617 27.96 43.1401 27.96H54.5001C56.334 27.96 57.8001 29.447 57.8001 31.26V38.7C57.8001 40.513 56.334 42 54.5001 42H43.1401C39.2617 42 36.1201 38.8584 36.1201 34.98Z" fill="#231F20"/>
<path d="M16.5 14.6599H42.5C43.6 14.6599 44.5 15.5599 44.5 16.6599V20.4999H14.5V16.6599C14.5 15.5499 15.4 14.6599 16.5 14.6599Z" fill="#F05023"/>
<path fill-rule="evenodd" clip-rule="evenodd" d="M16.5 16.1599C16.2235 16.1599 16 16.3832 16 16.6599V18.9999H43V16.6599C43 16.3883 42.7716 16.1599 42.5 16.1599H16.5ZM13 16.6599C13 14.7166 14.5765 13.1599 16.5 13.1599H42.5C44.4284 13.1599 46 14.7315 46 16.6599V21.9999H13V16.6599Z" fill="#231F20"/>
<path d="M43.17 37.6701C44.6446 37.6701 45.84 36.4747 45.84 35.0001C45.84 33.5255 44.6446 32.3301 43.17 32.3301C41.6954 32.3301 40.5 33.5255 40.5 35.0001C40.5 36.4747 41.6954 37.6701 43.17 37.6701Z" fill="#F05023"/>
</svg>
