<svg width="48" height="48" viewBox="0 0 48 48" fill="none" xmlns="http://www.w3.org/2000/svg">
<circle cx="28" cy="28" r="18" fill="#BEDCE3"/>
<circle cx="24" cy="24" r="18" fill="#21C68B"/>
<path fill-rule="evenodd" clip-rule="evenodd" d="M24 7C21.5785 7 19.2778 7.50567 17.1955 8.41623C16.6895 8.63751 16.0999 8.40668 15.8786 7.90066C15.6574 7.39464 15.8882 6.80505 16.3942 6.58377C18.7244 5.56481 21.2976 5 24 5C34.4934 5 43 13.5066 43 24C43 34.4934 34.4934 43 24 43C13.5066 43 5 34.4934 5 24C5 20.7567 5.81344 17.7005 7.24826 15.0271C7.50943 14.5405 8.11565 14.3577 8.60228 14.6189C9.0889 14.8801 9.27167 15.4863 9.01049 15.9729C7.72792 18.3626 7 21.0948 7 24C7 33.3888 14.6112 41 24 41C33.3888 41 41 33.3888 41 24C41 14.6112 33.3888 7 24 7Z" fill="#231F20"/>
<path d="M14.6525 14C14.293 14 14 14.293 14 14.6525V22.5489C14 22.9084 14.293 23.2014 14.6525 23.2014H22.5489C22.9084 23.2014 23.2014 22.9084 23.2014 22.5489V14.6525C23.2014 14.293 22.9084 14 22.5489 14H14.6525ZM25.4378 14C25.0783 14 24.7853 14.293 24.7853 14.6525V22.5489C24.7853 22.9084 25.0783 23.2014 25.4378 23.2014H33.3342C33.6937 23.2014 33.9867 22.9084 33.9867 22.5489V14.6525C33.9867 14.293 33.6937 14 33.3342 14H25.4378ZM15.305 15.3183H21.8831V21.8964H15.305V15.3183ZM26.0903 15.3183H32.6684V21.8964H26.0903V15.3183ZM16.8363 16.8896V20.4583H20.405V16.8896H16.8363ZM27.6083 16.8097V20.3784H31.177V16.8097H27.6083ZM14.6525 24.7853C14.293 24.7853 14 25.0783 14 25.4378V33.3342C14 33.6937 14.293 33.9867 14.6525 33.9867H22.5489C22.9084 33.9867 23.2014 33.6937 23.2014 33.3342V25.4378C23.2014 25.0783 22.9084 24.7853 22.5489 24.7853H14.6525ZM25.4378 24.7853C25.0783 24.7853 24.7853 25.0783 24.7853 25.4378V28.7269H26.1036V26.0903H28.7402V24.772H25.4511L25.4378 24.7853ZM30.6976 24.7853C30.3381 24.7853 30.0451 25.0783 30.0451 25.4378V28.7269H31.3634V26.0903H34V24.772H30.7109L30.6976 24.7853ZM15.305 26.1036H21.8831V32.6817H15.305V26.1036ZM16.8363 27.7015V31.2702H20.405V27.7015H16.8363ZM27.4086 28.7402V30.0585H26.7561C26.3966 30.0585 26.1036 30.3514 26.1036 30.7109V34H27.4219V31.3634H28.7402V34H30.0585V30.7109C30.0585 30.3514 29.7655 30.0585 29.406 30.0585H28.7535V28.7402H27.4352H27.4086ZM32.6684 28.7402V34H33.9867V28.7402H32.6684Z" fill="white"/>
</svg>
