<svg width="64" height="64" viewBox="0 0 64 64" fill="none" xmlns="http://www.w3.org/2000/svg">
<g clip-path="url(#clip0)">
<path d="M54 60.5H51C48.8 60.5 47 58.7 47 56.5V19.5C47 17.3 48.8 15.5 51 15.5H54C56.2 15.5 58 17.3 58 19.5V56.5C58 58.7 56.2 60.5 54 60.5Z" fill="#BEDCE3"/>
<path d="M49.7798 54.22H46.7798C44.5798 54.22 42.7798 52.42 42.7798 50.22V20.78V13.22C42.7798 11.02 44.5798 9.21997 46.7798 9.21997H49.7798C51.9798 9.21997 53.7798 11.02 53.7798 13.22V50.22C53.7798 52.42 51.9798 54.22 49.7798 54.22Z" fill="#F05023"/>
<path d="M36 60.5H33C30.8 60.5 29 58.7 29 56.5V38.5C29 36.3 30.8 34.5 33 34.5H36C38.2 34.5 40 36.3 40 38.5V56.5C40 58.7 38.2 60.5 36 60.5Z" fill="#BEDCE3"/>
<path d="M32 54.9399H29C26.8 54.9399 25 53.1399 25 50.9399V32.9399C25 30.7399 26.8 28.9399 29 28.9399H32C34.2 28.9399 36 30.7399 36 32.9399V50.9399C36 53.1399 34.2 54.9399 32 54.9399Z" fill="white"/>
<path d="M18 60.4999H15C12.8 60.4999 11 58.6999 11 56.4999V50.6499C11 48.4499 12.8 46.6499 15 46.6499H18C20.2 46.6499 22 48.4499 22 50.6499V56.4999C22 58.6999 20.2 60.4999 18 60.4999Z" fill="#BEDCE3"/>
<path d="M32.5 54.5H29.5C27.3 54.5 25.5 52.7 25.5 50.5V32.5C25.5 30.3 27.3 28.5 29.5 28.5H32.5C34.7 28.5 36.5 30.3 36.5 32.5V50.5C36.5 52.7 34.7 54.5 32.5 54.5Z" fill="white"/>
<path d="M32.5 56H29.5C26.47 56 24 53.53 24 50.5V32.5C24 29.47 26.47 27 29.5 27H32.5C35.53 27 38 29.47 38 32.5V50.5C38 53.53 35.53 56 32.5 56ZM29.5 30C28.12 30 27 31.12 27 32.5V50.5C27 51.88 28.12 53 29.5 53H32.5C33.88 53 35 51.88 35 50.5V32.5C35 31.12 33.88 30 32.5 30H29.5Z" fill="#231F20"/>
<path d="M14.5 54.5H11.5C9.3 54.5 7.5 52.7 7.5 50.5V44.5C7.5 42.3 9.3 40.5 11.5 40.5H14.5C16.7 40.5 18.5 42.3 18.5 44.5V50.5C18.5 52.7 16.7 54.5 14.5 54.5Z" fill="white"/>
<path d="M14.5 56H11.5C8.47 56 6 53.53 6 50.5V44.5C6 41.47 8.47 39 11.5 39H14.5C17.53 39 20 41.47 20 44.5V50.5C20 53.53 17.53 56 14.5 56ZM11.5 42C10.12 42 9 43.12 9 44.5V50.5C9 51.88 10.12 53 11.5 53H14.5C15.88 53 17 51.88 17 50.5V44.5C17 43.12 15.88 42 14.5 42H11.5Z" fill="#231F20"/>
<path d="M50.5 56H47.5C44.47 56 42 53.53 42 50.5V21.06C42 20.23 42.67 19.56 43.5 19.56C44.33 19.56 45 20.23 45 21.06V50.5C45 51.88 46.12 53 47.5 53H50.5C51.88 53 53 51.88 53 50.5V13.5C53 12.12 51.88 11 50.5 11H47.5C46.67 11 46 10.33 46 9.5C46 8.67 46.67 8 47.5 8H50.5C53.53 8 56 10.47 56 13.5V50.5C56 53.53 53.53 56 50.5 56Z" fill="#231F20"/>
</g>
<defs>
<clipPath id="clip0">
<rect width="52" height="52.5" fill="white" transform="translate(6 8)"/>
</clipPath>
</defs>
</svg>
