<svg width="48" height="48" viewBox="0 0 48 48" fill="none" xmlns="http://www.w3.org/2000/svg">
<path d="M27.5314 36.5319C34.6136 36.5319 40.3548 30.7907 40.3548 23.7085C40.3548 16.6263 34.6136 10.8851 27.5314 10.8851C20.4492 10.8851 14.708 16.6263 14.708 23.7085C14.708 30.7907 20.4492 36.5319 27.5314 36.5319Z" fill="#BEDCE3"/>
<path d="M31.0624 26.8489L27.3192 29.0106C26.1529 29.6823 25.756 31.1845 26.4277 32.3447L34.1828 45.7726C34.4637 46.255 35.1904 46.139 35.3064 45.5955L36.2468 41.1073C36.32 40.7532 36.6864 40.5456 37.0284 40.6555L41.4616 42.0722C41.9929 42.2431 42.4508 41.6691 42.1761 41.1867L34.3965 27.7405C33.7248 26.5803 32.2227 26.1772 31.0624 26.8489Z" fill="#BEDCE3"/>
<path d="M24.5533 26.849L27.7714 28.7053C29.2247 29.5419 29.7254 31.4165 28.8889 32.8698L21.4391 45.7787C21.1582 46.2611 20.4315 46.1451 20.3216 45.6016L19.3812 41.1074C19.308 40.7532 18.9477 40.5456 18.6057 40.6555L14.1603 42.0722C13.6351 42.2431 13.171 41.6691 13.4519 41.1928L21.3719 27.3191L24.5533 26.849Z" fill="#BEDCE3"/>
<path d="M27.0624 22.8489L23.3192 25.0106C22.1529 25.6823 21.756 27.1845 22.4277 28.3447L30.1828 41.7726C30.4637 42.255 31.1904 42.139 31.3064 41.5955L32.2468 37.1073C32.32 36.7532 32.6864 36.5456 33.0284 36.6555L37.4616 38.0722C37.9929 38.2431 38.4508 37.6691 38.1761 37.1867L30.3965 23.7405C29.7248 22.5803 28.2227 22.1772 27.0624 22.8489Z" fill="white"/>
<path d="M30.6956 42.9939C30.1583 42.9939 29.6575 42.713 29.3828 42.2306L21.6277 28.8027C20.6995 27.1967 21.2552 25.1389 22.855 24.2168L26.5982 22.0551C28.2042 21.127 30.2621 21.6826 31.1841 23.2825L38.9453 36.7288C39.2629 37.2783 39.2079 37.9561 38.811 38.4447C38.4141 38.9393 37.7668 39.1347 37.1623 38.9393L33.0588 37.6264L32.1917 41.7787C32.0635 42.4016 31.5688 42.8718 30.9399 42.9695C30.8605 42.9878 30.7811 42.9939 30.6956 42.9939ZM27.5203 23.6428L23.7771 25.8044C23.0504 26.2258 22.8001 27.1601 23.2153 27.8928L30.5674 40.6246L31.3429 36.9242C31.4345 36.5028 31.6971 36.1364 32.0696 35.9166C32.4421 35.7029 32.8878 35.6479 33.3031 35.7823L36.973 36.9547L29.6026 24.1985C29.1812 23.4718 28.247 23.2214 27.5203 23.6428Z" fill="#231F20"/>
<path d="M20.5533 22.849L23.7714 24.7053C25.2247 25.5419 25.7254 27.4165 24.8889 28.8698L17.4391 41.7787C17.1582 42.2611 16.4315 42.1451 16.3216 41.6016L15.3812 37.1074C15.308 36.7532 14.9477 36.5456 14.6057 36.6555L10.1603 38.0722C9.63512 38.2431 9.17103 37.6691 9.45193 37.1928L17.3719 23.3191L20.5533 22.849Z" fill="white"/>
<path d="M16.9139 43C16.8345 43 16.749 42.9939 16.6697 42.9817C16.0407 42.884 15.5522 42.4138 15.4178 41.791L14.5507 37.6325L10.4411 38.9454C9.83661 39.1408 9.18933 38.9454 8.79242 38.4508C8.3955 37.9562 8.34055 37.2845 8.65808 36.7349L10.6243 33.3275C10.8747 32.8879 11.4365 32.7413 11.8761 32.9917C12.3158 33.242 12.4624 33.8038 12.212 34.2435L10.6427 36.9608L14.3187 35.7884C14.7278 35.6602 15.1797 35.709 15.5522 35.9227C15.9247 36.1365 16.1872 36.5028 16.2788 36.9242L17.0544 40.6246L24.1011 28.418C24.382 27.9295 24.4614 27.3555 24.3087 26.7998C24.1622 26.2441 23.808 25.7861 23.3195 25.5052L20.1014 23.6489C19.6618 23.3985 19.5152 22.8368 19.7656 22.3971C20.016 21.9574 20.5777 21.8109 21.0174 22.0612L24.2355 23.9176C25.1514 24.4427 25.8048 25.3037 26.0796 26.3235C26.3544 27.3494 26.2139 28.418 25.6888 29.3339L18.239 42.2428C17.952 42.713 17.4513 43 16.9139 43Z" fill="#231F20"/>
<path d="M23.7834 31.5627C30.8655 31.5627 36.6068 25.8215 36.6068 18.7394C36.6068 11.6572 30.8655 5.91595 23.7834 5.91595C16.7012 5.91595 10.96 11.6572 10.96 18.7394C10.96 25.8215 16.7012 31.5627 23.7834 31.5627Z" fill="#F05023"/>
<path d="M23.7833 32.4787C16.2053 32.4787 10.0439 26.3174 10.0439 18.7394C10.0439 15.619 11.0637 12.6818 12.9872 10.2393C13.2986 9.84236 13.8788 9.77519 14.2757 10.0866C14.6726 10.398 14.7398 10.9781 14.4283 11.3751C12.7613 13.4879 11.8759 16.0403 11.8759 18.7394C11.8759 25.3037 17.2189 30.6468 23.7833 30.6468C30.3477 30.6468 35.6908 25.3037 35.6908 18.7394C35.6908 12.175 30.3538 6.83191 23.7833 6.83191C23.2765 6.83191 22.8674 6.42279 22.8674 5.91596C22.8674 5.40913 23.2765 5 23.7833 5C31.3613 5 37.5227 11.1613 37.5227 18.7394C37.5227 26.3174 31.3613 32.4787 23.7833 32.4787Z" fill="#231F20"/>
<path d="M23.3354 13.1203C23.5186 12.7486 24.0485 12.7483 24.2321 13.1198L25.7796 16.2505C25.8525 16.398 25.9933 16.5002 26.1561 16.5238L29.6074 17.0245C30.0176 17.084 30.1814 17.588 29.8847 17.8774L27.3849 20.3145C27.2671 20.4294 27.2133 20.5949 27.2412 20.7571L27.8314 24.1955C27.9015 24.6039 27.4729 24.9154 27.1061 24.7227L24.0158 23.0993C23.8702 23.0228 23.6963 23.0228 23.5507 23.0993L20.4604 24.7227C20.0936 24.9154 19.665 24.6039 19.7351 24.1955L20.3253 20.7568C20.3532 20.5947 20.2995 20.4294 20.1819 20.3145L17.6865 17.8772C17.3901 17.5878 17.5541 17.0842 17.964 17.0247L21.4161 16.5239C21.5791 16.5002 21.72 16.3978 21.7928 16.2501L23.3354 13.1203Z" fill="white"/>
</svg>
