<svg width="48" height="48" viewBox="0 0 48 48" fill="none" xmlns="http://www.w3.org/2000/svg">
    <path d="M27.5314 36.5319C34.6136 36.5319 40.3548 30.7907 40.3548 23.7085C40.3548 16.6263 34.6136 10.8851 27.5314 10.8851C20.4492 10.8851 14.708 16.6263 14.708 23.7085C14.708 30.7907 20.4492 36.5319 27.5314 36.5319Z"
          fill="#BEDCE3"/>
    <path d="M31.0624 26.8489L27.3192 29.0106C26.1529 29.6823 25.756 31.1845 26.4277 32.3447L34.1828 45.7726C34.4637 46.255 35.1904 46.139 35.3064 45.5955L36.2468 41.1073C36.32 40.7532 36.6864 40.5456 37.0284 40.6555L41.4616 42.0722C41.9929 42.2431 42.4508 41.6691 42.1761 41.1867L34.3965 27.7405C33.7248 26.5803 32.2227 26.1772 31.0624 26.8489Z"
          fill="#BEDCE3"/>
    <path d="M24.5533 26.849L27.7714 28.7053C29.2247 29.5419 29.7254 31.4165 28.8889 32.8698L21.4391 45.7787C21.1582 46.2611 20.4315 46.1451 20.3216 45.6016L19.3812 41.1074C19.308 40.7532 18.9477 40.5456 18.6057 40.6555L14.1603 42.0722C13.6351 42.2431 13.171 41.6691 13.4519 41.1928L21.3719 27.3191L24.5533 26.849Z"
          fill="#BEDCE3"/>
    <path d="M27.0623 22.8489L23.3191 25.0106C22.1528 25.6823 21.7558 27.1845 22.4275 28.3447L30.1826 41.7726C30.4635 42.255 31.1902 42.139 31.3062 41.5955L32.2466 37.1073C32.3199 36.7532 32.6863 36.5456 33.0282 36.6555L37.4615 38.0722C37.9927 38.2431 38.4507 37.6691 38.1759 37.1867L30.3964 23.7405C29.7247 22.5803 28.2225 22.1772 27.0623 22.8489Z"
          fill="white"/>
    <path d="M30.6955 42.9939C30.1582 42.9939 29.6575 42.713 29.3827 42.2306L21.6276 28.8027C20.6994 27.1967 21.2551 25.1389 22.8549 24.2168L26.5982 22.0551C28.2041 21.127 30.262 21.6826 31.184 23.2825L38.9453 36.7288C39.2628 37.2783 39.2078 37.9561 38.8109 38.4447C38.414 38.9393 37.7667 39.1347 37.1622 38.9393L33.0587 37.6264L32.1916 41.7787C32.0634 42.4016 31.5688 42.8718 30.9398 42.9695C30.8604 42.9878 30.781 42.9939 30.6955 42.9939ZM27.5202 23.6428L23.777 25.8044C23.0504 26.2258 22.8 27.1601 23.2152 27.8928L30.5673 40.6246L31.3428 36.9242C31.4344 36.5028 31.697 36.1364 32.0695 35.9166C32.442 35.7029 32.8877 35.6479 33.303 35.7823L36.9729 36.9547L29.6025 24.1985C29.1812 23.4718 28.2469 23.2214 27.5202 23.6428Z"
          fill="#231F20"/>
    <path d="M20.5529 22.849L23.771 24.7053C25.2243 25.5419 25.725 27.4165 24.8884 28.8698L17.4387 41.7787C17.1578 42.2611 16.4311 42.1451 16.3212 41.6016L15.3808 37.1074C15.3075 36.7532 14.9472 36.5456 14.6053 36.6555L10.1598 38.0722C9.63469 38.2431 9.17061 37.6691 9.4515 37.1928L17.3715 23.3191L20.5529 22.849Z"
          fill="white"/>
    <path d="M16.9135 43C16.8341 43 16.7486 42.9939 16.6692 42.9817C16.0403 42.884 15.5518 42.4138 15.4174 41.791L14.5503 37.6325L10.4407 38.9454C9.83618 39.1408 9.18891 38.9454 8.79199 38.4508C8.39508 37.9562 8.34012 37.2845 8.65765 36.7349L10.6239 33.3275C10.8743 32.8879 11.4361 32.7413 11.8757 32.9917C12.3154 33.242 12.4619 33.8038 12.2116 34.2435L10.6422 36.9608L14.3183 35.7884C14.7274 35.6602 15.1793 35.709 15.5518 35.9227C15.9242 36.1365 16.1868 36.5028 16.2784 36.9242L17.0539 40.6246L24.1007 28.418C24.3816 27.9295 24.461 27.3555 24.3083 26.7998C24.1618 26.2441 23.8076 25.7861 23.3191 25.5052L20.101 23.6489C19.6614 23.3985 19.5148 22.8368 19.7652 22.3971C20.0155 21.9574 20.5773 21.8109 21.017 22.0612L24.235 23.9176C25.151 24.4427 25.8044 25.3037 26.0792 26.3235C26.354 27.3494 26.2135 28.418 25.6884 29.3339L18.2386 42.2428C17.9516 42.713 17.4508 43 16.9135 43Z"
          fill="#231F20"/>
    <path d="M23.7832 31.5627C30.8653 31.5627 36.6066 25.8215 36.6066 18.7394C36.6066 11.6572 30.8653 5.91595 23.7832 5.91595C16.701 5.91595 10.9598 11.6572 10.9598 18.7394C10.9598 25.8215 16.701 31.5627 23.7832 31.5627Z"
          fill="#F05023"/>
    <path d="M23.7832 32.4787C16.2052 32.4787 10.0438 26.3174 10.0438 18.7394C10.0438 15.619 11.0636 12.6818 12.9871 10.2393C13.2985 9.84236 13.8786 9.77519 14.2755 10.0866C14.6725 10.398 14.7396 10.9781 14.4282 11.3751C12.7612 13.4879 11.8757 16.0403 11.8757 18.7394C11.8757 25.3037 17.2188 30.6468 23.7832 30.6468C30.3475 30.6468 35.6906 25.3037 35.6906 18.7394C35.6906 12.175 30.3537 6.83191 23.7832 6.83191C23.2764 6.83191 22.8672 6.42279 22.8672 5.91596C22.8672 5.40913 23.2764 5 23.7832 5C31.3612 5 37.5226 11.1613 37.5226 18.7394C37.5226 26.3174 31.3612 32.4787 23.7832 32.4787Z"
          fill="#231F20"/>
    <path d="M23.3353 13.1203C23.5185 12.7486 24.0484 12.7483 24.232 13.1198L25.7795 16.2505C25.8524 16.398 25.9932 16.5002 26.156 16.5238L29.6073 17.0245C30.0175 17.084 30.1813 17.588 29.8846 17.8774L27.3848 20.3145C27.267 20.4294 27.2132 20.5949 27.2411 20.7571L27.8313 24.1955C27.9014 24.6039 27.4728 24.9154 27.106 24.7227L24.0157 23.0993C23.8701 23.0228 23.6962 23.0228 23.5506 23.0993L20.4603 24.7227C20.0935 24.9154 19.6649 24.6039 19.735 24.1955L20.3253 20.7568C20.3531 20.5947 20.2994 20.4294 20.1818 20.3145L17.6864 17.8772C17.39 17.5878 17.554 17.0842 17.964 17.0247L21.4161 16.5239C21.5791 16.5002 21.7199 16.3978 21.7928 16.2501L23.3353 13.1203Z"
          fill="white"/>
</svg>
