<svg width="48" height="48" viewBox="0 0 48 48" fill="none" xmlns="http://www.w3.org/2000/svg">
    <path d="M25.5 15.1347V18.5253C25.5 19.3776 26.4788 19.7943 27.0406 19.1882L32.0975 13.9035C32.46 13.5247 32.46 12.9375 32.0975 12.5586L27.0406 7.27393C26.4788 6.68674 25.5 7.10346 25.5 7.95583V11.3464C17.4887 11.3464 11 18.1275 11 26.4997C11 28.4696 11.3625 30.3638 12.0331 32.0875C12.5225 33.3566 14.0813 33.6975 15.0056 32.7315C15.495 32.2201 15.6944 31.4434 15.4225 30.7615C14.8969 29.4546 14.625 27.9961 14.625 26.4997C14.625 20.23 19.5006 15.1347 25.5 15.1347ZM35.9944 20.2679C35.505 20.7793 35.3056 21.5749 35.5775 22.2378C36.085 23.5637 36.375 25.0033 36.375 26.4997C36.375 32.7694 31.4994 37.8647 25.5 37.8647V34.4741C25.5 33.6217 24.5212 33.205 23.9594 33.8112L18.9025 39.0959C18.54 39.4747 18.54 40.0619 18.9025 40.4407L23.9594 45.7254C24.5212 46.3126 25.5 45.8959 25.5 45.0625V41.653C33.5112 41.653 40 34.8719 40 26.4997C40 24.5298 39.6375 22.6356 38.9669 20.9119C38.4775 19.6428 36.9188 19.3019 35.9944 20.2679Z"
          fill="#BEDCE3"/>
    <path d="M23.5 12.1347V15.5253C23.5 16.3776 24.4788 16.7943 25.0406 16.1882L30.0975 10.9035C30.46 10.5247 30.46 9.93748 30.0975 9.55864L25.0406 4.27393C24.4788 3.68674 23.5 4.10346 23.5 4.95583V8.34638C19.5836 8.34638 16.031 9.96701 13.4225 12.6019C12.5603 13.4728 11.8012 14.4546 11.1663 15.5253C10.4874 16.67 9.95033 17.9165 9.58079 19.2378C9.20274 20.5896 9 22.0198 9 23.4997C9 25.4696 9.3625 27.3638 10.0331 29.0875C10.5225 30.3566 12.0813 30.6975 13.0056 29.7315C13.495 29.2201 13.6944 28.4434 13.4225 27.7615C12.8969 26.4546 12.625 24.9961 12.625 23.4997C12.625 17.23 17.5006 12.1347 23.5 12.1347ZM33.9944 17.2679C33.505 17.7793 33.3056 18.5749 33.5775 19.2378C34.085 20.5637 34.375 22.0033 34.375 23.4997C34.375 29.7694 29.4994 34.8647 23.5 34.8647V31.4741C23.5 30.6217 22.5212 30.205 21.9594 30.8112L16.9025 36.0959C16.54 36.4747 16.54 37.0619 16.9025 37.4407L21.9594 42.7254C22.5212 43.3126 23.5 42.8959 23.5 42.0625V38.653C31.5112 38.653 38 31.8719 38 23.4997C38 21.5298 37.6375 19.6356 36.9669 17.9119C36.4775 16.6428 34.9188 16.3019 33.9944 17.2679Z"
          fill="white"/>
    <path d="M33.9944 17.2679C33.505 17.7793 33.3056 18.5749 33.5775 19.2378C34.085 20.5637 34.375 22.0033 34.375 23.4997C34.375 29.7694 29.4994 34.8647 23.5 34.8647V31.4741C23.5 30.6217 22.5212 30.205 21.9594 30.8112L16.9025 36.0959C16.54 36.4747 16.54 37.0619 16.9025 37.4407L21.9594 42.7254C22.5212 43.3126 23.5 42.8959 23.5 42.0625V38.653C31.5112 38.653 38 31.8719 38 23.4997C38 21.5298 37.6375 19.6356 36.9669 17.9119C36.4775 16.6428 34.9188 16.3019 33.9944 17.2679Z"
          fill="white"/>
    <path fill-rule="evenodd" clip-rule="evenodd"
          d="M22.5 4.95583C22.5 3.30817 24.5053 2.2681 25.7631 3.58257L30.82 8.86728C31.5525 9.63277 31.5525 10.8294 30.82 11.5949L25.7679 16.8746C24.5107 18.2204 22.5 17.17 22.5 15.5253V13.1876C17.5538 13.7139 13.625 18.0996 13.625 23.4997C13.625 24.877 13.8755 26.208 14.3503 27.3884L14.3514 27.3912C14.7848 28.4782 14.4561 29.6621 13.7281 30.4228C12.2695 31.9472 9.83971 31.3622 9.10069 29.4488C8.38486 27.6085 8 25.5917 8 23.4997C8 21.9282 8.21533 20.4074 8.61775 18.9685C8.76649 18.4366 9.31825 18.126 9.85013 18.2748C10.382 18.4235 10.6926 18.9753 10.5438 19.5071C10.1901 20.7718 10 22.1114 10 23.4997C10 25.3471 10.34 27.1182 10.9651 28.7249L10.9662 28.7277C11.2066 29.3512 11.8934 29.4474 12.2831 29.0401C12.5336 28.7783 12.6038 28.4096 12.494 28.1329C11.918 26.6999 11.625 25.1144 11.625 23.4997C11.625 16.7197 16.9073 11.1347 23.5 11.1347H24.5V15.3068L29.3569 10.2311L24.5 5.15537V9.34638H23.5C19.8674 9.34638 16.566 10.848 14.1332 13.3054C13.7446 13.6979 13.1114 13.7011 12.719 13.3125C12.3265 12.924 12.3233 12.2908 12.7118 11.8984C15.2733 9.31102 18.6978 7.63156 22.5 7.37943V4.95583ZM33.2719 16.5765C34.7304 15.0523 37.1599 15.6371 37.8992 17.5502C38.6151 19.3906 39 21.4075 39 23.4997C39 32.0353 32.6327 39.0826 24.5 39.6201V42.0625C24.5 43.7141 22.4792 44.7151 21.2369 43.4168L16.18 38.1321C15.4475 37.3666 15.4475 36.17 16.18 35.4045L21.2321 30.1248C22.4893 28.779 24.5 29.8294 24.5 31.4741V33.8117C29.4462 33.2855 33.375 28.8998 33.375 23.4997C33.375 22.1366 33.1116 20.8213 32.6472 19.6048C32.2141 18.5332 32.5483 17.3327 33.2719 16.5765ZM36.0338 18.2717C35.7934 17.6481 35.1066 17.552 34.7169 17.9592C34.4645 18.223 34.3997 18.6072 34.5027 18.8584L34.5072 18.8693L34.5114 18.8804C35.0598 20.3131 35.375 21.8735 35.375 23.4997C35.375 30.2797 30.0927 35.8647 23.5 35.8647H22.5V31.6926L17.6431 36.7683L22.5 41.844V37.653H23.5C30.9179 37.653 37 31.3616 37 23.4997C37 21.6523 36.66 19.8812 36.0349 18.2745L36.0338 18.2717Z"
          fill="#231F20"/>
</svg>
