<svg width="48" height="48" viewBox="0 0 48 48" fill="none" xmlns="http://www.w3.org/2000/svg">
    <path d="M32.1111 14.2V25C32.1111 26.98 33.7111 28.6 35.6667 28.6H37.4444V41.2C37.4444 42.19 38.2444 43 39.2222 43C40.2 43 41 42.19 41 41.2V9.034C41 7.864 39.9156 7 38.7956 7.27C34.9556 8.224 32.1111 11.518 32.1111 14.2ZM23.2222 19.6H19.6667V8.8C19.6667 7.81 18.8667 7 17.8889 7C16.9111 7 16.1111 7.81 16.1111 8.8V19.6H12.5556V8.8C12.5556 7.81 11.7556 7 10.7778 7C9.8 7 9 7.81 9 8.8V19.6C9 23.578 12.1822 26.8 16.1111 26.8V41.2C16.1111 42.19 16.9111 43 17.8889 43C18.8667 43 19.6667 42.19 19.6667 41.2V26.8C23.5956 26.8 26.7778 23.578 26.7778 19.6V8.8C26.7778 7.81 25.9778 7 25 7C24.0222 7 23.2222 7.81 23.2222 8.8V19.6Z"
          fill="#BEDCE3"/>
    <path d="M29.1111 11.2V22C29.1111 23.98 30.7111 25.6 32.6667 25.6H34.4444V38.2C34.4444 39.19 35.2444 40 36.2222 40C37.2 40 38 39.19 38 38.2V6.034C38 4.864 36.9156 4 35.7956 4.27C31.9556 5.224 29.1111 8.518 29.1111 11.2ZM20.2222 16.6H16.6667V5.8C16.6667 4.81 15.8667 4 14.8889 4C13.9111 4 13.1111 4.81 13.1111 5.8V16.6H9.55556V5.8C9.55556 4.81 8.75556 4 7.77778 4C6.8 4 6 4.81 6 5.8V16.6C6 20.578 9.18222 23.8 13.1111 23.8V38.2C13.1111 39.19 13.9111 40 14.8889 40C15.8667 40 16.6667 39.19 16.6667 38.2V23.8C20.5956 23.8 23.7778 20.578 23.7778 16.6V5.8C23.7778 4.81 22.9778 4 22 4C21.0222 4 20.2222 4.81 20.2222 5.8V16.6Z"
          fill="white"/>
    <path fill-rule="evenodd" clip-rule="evenodd"
          d="M6.77778 4C6.77778 3.44772 7.22549 3 7.77778 3C9.31952 3 10.5556 4.26946 10.5556 5.8V15.6H12.1111V5.8C12.1111 4.26946 13.3472 3 14.8889 3C16.4306 3 17.6667 4.26946 17.6667 5.8V15.6H19.2222V5.8C19.2222 4.26946 20.4583 3 22 3C23.5417 3 24.7778 4.26946 24.7778 5.8V16.6C24.7778 20.7779 21.6845 24.2402 17.6667 24.7385V38.2C17.6667 39.7305 16.4306 41 14.8889 41C13.3472 41 12.1111 39.7305 12.1111 38.2V24.7385C8.0933 24.2402 5 20.7779 5 16.6V8C5 7.44772 5.44772 7 6 7C6.55228 7 7 7.44772 7 8V16.6C7 20.0375 9.74618 22.8 13.1111 22.8H14.1111V38.2C14.1111 38.6495 14.4751 39 14.8889 39C15.3027 39 15.6667 38.6495 15.6667 38.2V22.8H16.6667C20.0316 22.8 22.7778 20.0375 22.7778 16.6V5.8C22.7778 5.35054 22.4138 5 22 5C21.5862 5 21.2222 5.35054 21.2222 5.8V17.6H15.6667V5.8C15.6667 5.35054 15.3027 5 14.8889 5C14.4751 5 14.1111 5.35054 14.1111 5.8V17.6H8.55556V5.8C8.55556 5.35054 8.1916 5 7.77778 5C7.22549 5 6.77778 4.55228 6.77778 4ZM35.5612 3.29785C37.325 2.87265 39 4.23212 39 6.034V38.2C39 39.7305 37.764 41 36.2222 41C34.6805 41 33.4444 39.7305 33.4444 38.2V26.6H32.6667C30.1472 26.6 28.1111 24.5205 28.1111 22V11.2C28.1111 9.52532 28.9824 7.79941 30.2818 6.4052C31.5961 4.99498 33.4343 3.82623 35.5544 3.2995L35.5612 3.29785ZM36.0327 5.24149C34.3145 5.66924 32.8119 6.62391 31.7449 7.7688C30.6621 8.93059 30.1111 10.1927 30.1111 11.2V22C30.1111 23.4395 31.2751 24.6 32.6667 24.6H35.4444V38.2C35.4444 38.6495 35.8084 39 36.2222 39C36.636 39 37 38.6495 37 38.2V6.034C37 5.49692 36.508 5.12878 36.0327 5.24149Z"
          fill="#231F20"/>
</svg>
