<svg width="48" height="48" viewBox="0 0 48 48" fill="none" xmlns="http://www.w3.org/2000/svg">
<path d="M13.2133 27.0839L17.5939 28.9045C17.1046 30.1562 16.7064 31.442 16.4106 32.7505L16.2399 33.5015L22.5206 39.7826L23.2715 39.6233C24.58 39.3274 25.8657 38.9406 27.1173 38.4399L28.9378 42.8207C28.9947 42.9687 29.1654 43.0369 29.3019 42.98C29.3361 42.9687 29.3702 42.9459 29.3929 42.9118L32.1351 40.1695C33.0453 39.2592 33.5232 38.0189 33.4549 36.7331L33.3525 34.9694C38.4385 31.2144 43.5814 24.6261 44.9809 13.1449C45.1288 12.1094 44.4006 11.1536 43.3652 11.0171C43.1946 10.9943 43.0239 10.9943 42.8646 11.0171C31.3727 12.428 24.7962 17.5826 21.0414 22.6462L19.2778 22.5551C18.0035 22.4869 16.7519 22.9534 15.8416 23.8637L13.0995 26.606C12.9857 26.7084 12.963 26.8905 13.0654 27.0042C13.0995 27.0384 13.145 27.0725 13.1906 27.0839H13.2133Z" fill="#29889E" fill-opacity="0.3"/>
<path d="M9.21331 23.0839L13.5939 24.9045C13.1046 26.1562 12.7064 27.442 12.4106 28.7505L12.2399 29.5015L18.5206 35.7826L19.2715 35.6233C20.58 35.3274 21.8657 34.9406 23.1173 34.4399L24.9378 38.8207C24.9947 38.9687 25.1654 39.0369 25.3019 38.98C25.3361 38.9687 25.3702 38.9459 25.3929 38.9118L28.1351 36.1695C29.0453 35.2592 29.5232 34.0189 29.4549 32.7331L29.3525 30.9694C34.4385 27.2144 39.5814 20.6261 40.9809 9.1449C41.1288 8.10943 40.4006 7.15361 39.3652 7.01707C39.1946 6.99431 39.0239 6.99431 38.8646 7.01707C27.3727 8.42804 20.7962 13.5826 17.0414 18.6462L15.2778 18.5551C14.0035 18.4869 12.7519 18.9534 11.8416 19.8637L9.09953 22.606C8.98575 22.7084 8.96299 22.8905 9.0654 23.0042C9.09953 23.0384 9.14504 23.0725 9.19055 23.0839H9.21331Z" fill="white"/>
<path fill-rule="evenodd" clip-rule="evenodd" d="M38.7625 6.02538C39.0128 5.99067 39.2697 5.99235 39.5192 6.02562C41.0861 6.23302 42.1906 7.67685 41.9725 9.2465C40.574 20.7021 35.5191 27.483 30.3606 31.4465L30.4333 32.6989C30.5164 34.2633 29.9338 35.7738 28.828 36.8798L26.1189 39.5891C25.9799 39.751 25.8099 39.8564 25.6473 39.9169C25.0209 40.1594 24.2947 39.8549 24.038 39.2138L22.5782 35.7007C21.5588 36.063 20.5228 36.3566 19.4764 36.5932L19.4638 36.5961L18.7115 36.7556C18.3898 36.8238 18.0555 36.7247 17.823 36.4922L11.5314 30.1999C11.2954 29.9639 11.1971 29.6232 11.271 29.2978L11.4417 28.5465C11.4417 28.5466 11.4418 28.5463 11.4417 28.5465C11.6792 27.4961 11.98 26.4605 12.3382 25.4459L8.91439 24.0229C8.62323 23.9462 8.43058 23.7703 8.35135 23.6911C8.33931 23.679 8.32759 23.6667 8.3162 23.654C7.811 23.0926 7.96611 22.3197 8.39602 21.9079L11.1324 19.1712C12.243 18.0605 13.7668 17.4944 15.3128 17.5771C15.3125 17.5771 15.313 17.5771 15.3128 17.5771L16.564 17.6417C20.5251 12.5042 27.294 7.43562 38.7625 6.02538ZM39.2625 7.95143C39.1736 7.93957 39.0922 7.94082 39.0267 7.95018L39.0077 7.95271C27.7687 9.33268 21.4166 14.351 17.8084 19.217C17.6147 19.4783 17.303 19.6252 16.9781 19.6085L15.2114 19.5173L15.2095 19.5172C14.2026 19.4632 13.2191 19.8319 12.5062 20.5449L10.4812 22.5701L13.9474 24.0108C14.4354 24.2136 14.6717 24.7693 14.4793 25.2615C14.0062 26.4718 13.6219 27.7133 13.3367 28.9749L13.2843 29.2054L18.824 34.7456L19.0542 34.6968C20.3187 34.4106 21.5549 34.0379 22.7539 33.5583C23.2473 33.3609 23.8077 33.5967 24.0117 34.0874L25.4387 37.5217L27.4542 35.506C28.1715 34.7886 28.5464 33.8151 28.4934 32.8041C28.4933 32.8034 28.4933 32.8026 28.4933 32.8019L28.3909 31.0398C28.3719 30.7121 28.5197 30.397 28.7837 30.202C33.6696 26.5946 38.6764 20.2319 40.0451 9.0026L40.0477 8.98277C40.1192 8.48251 39.767 8.01797 39.2638 7.95161L39.2625 7.95143Z" fill="#231F20"/>
<path d="M8.65416 36.2338C7.95445 35.9828 7.20007 35.9143 6.47849 36.0512C6.34729 36.0855 6.20517 36.0398 6.1177 35.9371C5.99744 35.8116 5.96464 35.629 6.04117 35.4693C6.81741 33.7349 8.86189 30.2433 12.5791 33.0617C12.6557 33.1301 12.6666 33.2557 12.5901 33.3355C12.5901 33.3355 12.5901 33.3355 12.5791 33.3469C11.5733 34.1799 11.0048 35.4579 11.0485 36.7929C11.0485 36.9527 11.1797 37.0782 11.3328 37.0896C12.6119 37.1466 13.8364 36.5647 14.6345 35.5263C14.7001 35.4465 14.8204 35.4351 14.8969 35.5035L14.9188 35.5263C15.4326 36.1653 16.8539 38.2535 15.2796 40.2731C14.5908 41.1289 13.6068 41.6766 12.5463 41.7907C11.0266 41.9619 8.20591 42.4753 7.05794 43.856C6.91581 44.0272 6.66435 44.05 6.50036 43.9016C6.44569 43.8446 6.40196 43.7761 6.38009 43.6962C5.97557 42.2471 5.34146 39.018 8.67603 36.2224L8.65416 36.2338Z" fill="#F05023"/>
<path d="M26.0176 17.0201C27.39 15.66 29.607 15.66 30.9795 17.0201C32.3402 18.392 32.3402 20.608 30.9795 21.9799C29.607 23.34 27.4018 23.34 26.0293 21.9799C24.6569 20.6198 24.6569 18.392 26.0293 17.0201H26.0176Z" fill="#91B1B8"/>
</svg>
