<svg width="48" height="48" viewBox="0 0 48 48" fill="none" xmlns="http://www.w3.org/2000/svg">
    <path d="M39 12H29.6C28.7 12 28 12.272 27.272 13L23.5 16.772L12.944 27.328C12.368 27.904 12 28.72 12 29.6C12 30.48 12.352 31.28 12.944 31.856L24.144 43.056C24.72 43.648 25.52 44 26.4 44C27.28 44 28.08 43.648 28.656 43.072L43.056 28.672C43.648 28.08 44 27.28 44 26.4V17C44 14.5 42 12 39 12Z"
          fill="#29889E" fill-opacity="0.3"/>
    <path d="M35 8H25.6C24.7 8 24 8.272 23.272 9L19.5 12.772L8.944 23.328C8.368 23.904 8 24.72 8 25.6C8 26.48 8.352 27.28 8.944 27.856L20.144 39.056C20.72 39.648 21.52 40 22.4 40C23.28 40 24.08 39.648 24.656 39.072L39.056 24.672C39.648 24.08 40 23.28 40 22.4V13C40 10.5 38 8 35 8Z"
          fill="white"/>
    <path fill-rule="evenodd" clip-rule="evenodd"
          d="M41 13C41 10.0138 38.6161 7 35 7H25.6C25.0477 7 24.6 7.44772 24.6 8C24.6 8.55228 25.0477 9 25.6 9H35C37.3839 9 39 10.9862 39 13V22.4C39 23.0054 38.7601 23.5537 38.3489 23.9649L23.9489 38.3649C23.5564 38.7574 23.0091 39 22.4 39C21.7922 39 21.25 38.7588 20.8607 38.3586L20.8512 38.3488L9.64142 27.1392C9.2413 26.7499 9 26.2078 9 25.6C9 24.9981 9.25329 24.4329 9.65111 24.0351L20.2071 13.4791C20.5976 13.0886 20.5976 12.4554 20.2071 12.0649C19.8166 11.6744 19.1834 11.6744 18.7929 12.0649L8.23689 22.6209C7.4827 23.3751 7 24.4418 7 25.6C7 26.7496 7.46068 27.8053 8.24136 28.5676L19.4324 39.7586C20.1947 40.5393 21.2504 41 22.4 41C23.5509 41 24.6036 40.5386 25.3631 39.7791L39.7631 25.3791C40.5359 24.6063 41 23.5546 41 22.4V13Z"
          fill="#231F20"/>
    <path fill-rule="evenodd" clip-rule="evenodd"
          d="M34 16C35.1067 16 36 15.1067 36 14C36 12.8933 35.1067 12 34 12C32.8933 12 32 12.8933 32 14C32 15.1067 32.8933 16 34 16Z"
          fill="#231F20"/>
    <path d="M21.313 23.7835C21.313 24.1977 20.9772 24.5335 20.563 24.5335C20.1488 24.5335 19.813 24.1977 19.813 23.7835C19.813 23.3693 20.1488 23.0335 20.563 23.0335C20.9772 23.0335 21.313 23.3693 21.313 23.7835Z"
          fill="#F05023"/>
    <path d="M25.4379 28.2834C25.8521 28.2834 26.1879 27.9476 26.1879 27.5334C26.1879 27.1192 25.8521 26.7835 25.4379 26.7835C25.0237 26.7835 24.6879 27.1192 24.6879 27.5334C24.6879 27.9476 25.0237 28.2834 25.4379 28.2834Z"
          fill="#F05023"/>
    <path fill-rule="evenodd" clip-rule="evenodd"
          d="M29.4203 23.5735L30.8153 25.1635C31.0628 25.4485 31.0628 25.8685 30.8078 26.1385L29.4128 27.7284L29.6078 29.8359C29.6453 30.2109 29.3978 30.5559 29.0303 30.6384L26.9604 31.1109L25.8804 32.9333C25.6929 33.2558 25.2879 33.3908 24.9429 33.2408L23.0005 32.4083L21.058 33.2558C20.7055 33.4058 20.308 33.2708 20.113 32.9483L19.033 31.1334L16.9631 30.6609C16.6031 30.5784 16.3481 30.2334 16.3856 29.8584L16.5806 27.7434L15.1856 26.1535C14.9381 25.8685 14.9381 25.4485 15.1856 25.1635L16.5806 23.566L16.3856 21.466C16.3481 21.0836 16.6031 20.7461 16.9706 20.6636L19.033 20.1986L20.1205 18.3836C20.308 18.0611 20.713 17.9261 21.058 18.0761L23.0005 18.9086L24.9504 18.0611C25.2954 17.9111 25.6929 18.0461 25.8879 18.3686L26.9679 20.1911L29.0378 20.6636C29.3978 20.7461 29.6528 21.0911 29.6153 21.466L29.4203 23.5735ZM25.2861 21.9539C25.0054 21.7777 24.6351 21.8624 24.4589 22.143L20.5588 28.3565C20.3826 28.6371 20.4673 29.0074 20.748 29.1836C21.0287 29.3598 21.399 29.2751 21.5751 28.9944L25.4753 22.781C25.6514 22.5003 25.5667 22.13 25.2861 21.9539ZM22.438 23.7835C22.438 24.819 21.5985 25.6585 20.563 25.6585C19.5275 25.6585 18.688 24.819 18.688 23.7835C18.688 22.748 19.5275 21.9086 20.563 21.9086C21.5985 21.9086 22.438 22.748 22.438 23.7835ZM25.4379 29.4084C26.4734 29.4084 27.3129 28.569 27.3129 27.5334C27.3129 26.4979 26.4734 25.6585 25.4379 25.6585C24.4024 25.6585 23.5629 26.4979 23.5629 27.5334C23.5629 28.569 24.4024 29.4084 25.4379 29.4084Z"
          fill="#F05023"/>
</svg>
