<svg width="48" height="48" viewBox="0 0 48 48" fill="none" xmlns="http://www.w3.org/2000/svg">
<circle cx="28" cy="28" r="18" fill="#BEDCE3"/>
<circle cx="24" cy="24" r="18" fill="#F05023"/>
<path fill-rule="evenodd" clip-rule="evenodd" d="M24 7C21.5785 7 19.2778 7.50567 17.1955 8.41623C16.6895 8.63751 16.0999 8.40668 15.8786 7.90066C15.6574 7.39464 15.8882 6.80505 16.3942 6.58377C18.7244 5.56481 21.2976 5 24 5C34.4934 5 43 13.5066 43 24C43 34.4934 34.4934 43 24 43C13.5066 43 5 34.4934 5 24C5 20.7567 5.81344 17.7005 7.24826 15.0271C7.50943 14.5405 8.11565 14.3577 8.60228 14.6189C9.0889 14.8801 9.27167 15.4863 9.01049 15.9729C7.72792 18.3626 7 21.0948 7 24C7 33.3888 14.6112 41 24 41C33.3888 41 41 33.3888 41 24C41 14.6112 33.3888 7 24 7Z" fill="#231F20"/>
<path fill-rule="evenodd" clip-rule="evenodd" d="M25.9357 24L34.7909 18.8874L22.8616 12V22.2313L14 17.115V30.8899L22.8616 25.7736V36L34.7909 29.1126L25.9357 24ZM25.8723 20.6432L29.1103 18.7738L25.8723 16.9044V20.6432ZM25.8723 30.8684L29.1103 28.999L25.8723 27.1295V30.8684ZM20.2487 23.8888L17.0107 25.7583L17.0107 22.0194L20.2487 23.8888Z" fill="white"/>
</svg>
