<svg width="48" height="48" viewBox="0 0 48 48" fill="none" xmlns="http://www.w3.org/2000/svg">
    <path d="M18.6118 42.8991C20.0635 40.8812 18.6554 39.5495 17.0386 39.8848C16.8269 39.9287 16.6781 39.9224 16.4867 39.9224C11.7883 39.9224 18.9211 27.2539 20.5201 24.5116C20.7097 24.1863 21.0633 24.0093 21.4387 24.0367L24.379 24.2507C24.3811 24.2508 24.3823 24.2529 24.3814 24.2548C24.3806 24.2566 24.3817 24.2587 24.3837 24.2588C25.439 24.3373 27.1403 24.6453 28.2815 24.8074C28.7412 24.8726 29.1661 24.5865 29.3045 24.1433L32.6815 13.3244C32.8539 12.7722 32.526 12.1892 31.961 12.0652C28.7834 11.3682 22.6362 10.3237 18.2018 11.6065C11.5803 13.5221 10.566 15.8496 10.526 18.5386C10.4859 21.2276 13.0429 23.3064 15.5885 23.5633C15.63 23.5674 15.6573 23.6075 15.6437 23.6469C14.8622 25.901 13.1483 30.7482 11.8442 33.7451C11.6063 34.2919 11.3469 34.8576 11.0847 35.4293C9.20155 39.5351 7.17516 43.9533 11.9364 43.9519C12.6049 43.9517 14.1139 43.9843 14.2982 43.9883C14.3106 43.9886 14.3209 43.989 14.3334 43.9896C14.5893 44.0027 17.7218 44.1362 18.6118 42.8991Z"
          fill="#BEDCE3"/>
    <path fill-rule="evenodd" clip-rule="evenodd"
          d="M20.1219 23.2562C20.1219 23.2562 9.99544 40.5 15 40.5C15.2019 40.5 15.4036 40.4739 15.6047 40.4237L23.5 23.5L20.1219 23.2562Z"
          fill="#BEDCE3"/>
    <path d="M14.6118 39.8991C16.0635 37.8812 14.6554 36.5495 13.0386 36.8848C12.8269 36.9287 12.6781 36.9224 12.4867 36.9224C7.78826 36.9224 14.9211 24.2539 16.5201 21.5116C16.7097 21.1863 17.0633 21.0093 17.4387 21.0367L20.379 21.2507C20.3811 21.2508 20.3823 21.2529 20.3814 21.2548C20.3806 21.2566 20.3817 21.2587 20.3837 21.2588C21.439 21.3373 23.1403 21.6453 24.2815 21.8074C24.7412 21.8726 25.1661 21.5865 25.3045 21.1433L28.6815 10.3244C28.8539 9.77219 28.526 9.18917 27.961 9.06524C24.7834 8.36823 18.6362 7.32372 14.2018 8.60653C7.58026 10.5221 6.56604 12.8496 6.52599 15.5386C6.48594 18.2276 9.04293 20.3064 11.5885 20.5633C11.63 20.5674 11.6573 20.6075 11.6437 20.6469C10.8622 22.901 9.14831 27.7482 7.84425 30.7451C7.6063 31.2919 7.34687 31.8576 7.08466 32.4293C5.20155 36.5351 3.17516 40.9533 7.93645 40.9519C8.60491 40.9517 10.1139 40.9843 10.2982 40.9883C10.3106 40.9886 10.3209 40.989 10.3334 40.9896C10.5893 41.0027 13.7218 41.1362 14.6118 39.8991Z"
          fill="white"/>
    <path fill-rule="evenodd" clip-rule="evenodd"
          d="M21.4774 9.09061C19.0382 8.90642 16.5302 8.97396 14.4797 9.56714C11.2313 10.5069 9.52842 11.5042 8.62502 12.4669C7.77078 13.3771 7.5438 14.3505 7.52588 15.5535C7.5109 16.5593 7.97879 17.4944 8.76954 18.2316C9.56568 18.9738 10.6383 19.4623 11.6889 19.5683C12.3296 19.633 12.8277 20.2845 12.5885 20.9744C11.8088 23.2234 10.083 28.1065 8.7612 31.1441C8.51934 31.6999 8.2565 32.273 7.99584 32.8413L7.99362 32.8462C7.51989 33.879 7.05429 34.8951 6.68742 35.8514C6.31713 36.8166 6.07563 37.6512 6.01481 38.3212C5.95367 38.9948 6.08773 39.3319 6.25799 39.5127C6.43595 39.7018 6.87073 39.9522 7.93616 39.9519C8.61842 39.9517 10.1407 39.9846 10.3201 39.9886C10.3435 39.9891 10.3636 39.9899 10.3843 39.9909C10.4893 39.9963 11.2676 40.0298 12.1068 39.9214C12.527 39.8672 12.9253 39.7818 13.2475 39.6589C13.5823 39.5312 13.7394 39.3995 13.8 39.3152C14.3863 38.5002 14.1965 38.1411 14.1512 38.0752C14.0656 37.9503 13.7689 37.7546 13.2417 37.8639C12.9455 37.9254 12.7059 37.9238 12.5434 37.9227C12.5233 37.9225 12.5044 37.9224 12.4867 37.9224C11.6522 37.9224 10.9113 37.6246 10.432 36.9543C9.99634 36.3449 9.89134 35.5805 9.91028 34.8733C9.94831 33.4536 10.5097 31.6436 11.2126 29.8758C12.6379 26.2918 14.8534 22.3847 15.6563 21.0078C16.0473 20.3373 16.7733 19.9856 17.5113 20.0393L20.4517 20.2533C20.4973 20.2567 20.5418 20.2629 20.5851 20.2718C21.3466 20.3376 22.3934 20.5026 23.3065 20.6465C23.6926 20.7073 24.0548 20.7644 24.3613 20.8086L27.7236 10.037C26.1612 9.69497 23.8902 9.27282 21.4774 9.09061ZM21.628 7.09629C24.1798 7.28899 26.5607 7.73432 28.1753 8.08846C29.3299 8.34173 29.978 9.52694 29.6361 10.6223L26.259 21.4412C25.9837 22.3234 25.1155 22.9358 24.1409 22.7974C23.7477 22.7416 23.3141 22.6731 22.8731 22.6035C21.9503 22.4578 20.9951 22.307 20.3096 22.2561C20.2656 22.2528 20.2228 22.247 20.1815 22.239L17.3728 22.0345C16.5678 23.4161 14.431 27.195 13.0711 30.6149C12.3783 32.357 11.9375 33.8855 11.9096 34.9269C11.8955 35.4502 11.9916 35.6969 12.059 35.7911L12.0602 35.7928C12.085 35.8276 12.1524 35.9224 12.4867 35.9224C12.5077 35.9224 12.5269 35.9224 12.5447 35.9224C12.7159 35.9226 12.7535 35.9226 12.8356 35.9056C13.9251 35.6796 15.1408 35.9821 15.8005 36.9438C16.5006 37.9644 16.289 39.2802 15.4236 40.4831C15.0393 41.0173 14.471 41.3328 13.9601 41.5276C13.4367 41.7272 12.869 41.8396 12.3629 41.905C11.3493 42.0358 10.4333 41.996 10.2824 41.9883L10.2783 41.9881L10.2763 41.9881C10.0871 41.9839 8.5914 41.9517 7.93674 41.9519C6.62153 41.9523 5.52413 41.6509 4.80177 40.8836C4.07171 40.1082 3.93732 39.0844 4.023 38.1404C4.10902 37.1927 4.42961 36.153 4.82011 35.1351C5.21193 34.1137 5.70266 33.0438 6.16828 32.0286L6.17571 32.0124C6.43874 31.4389 6.69396 30.8823 6.9273 30.3461C8.04347 27.781 9.4726 23.819 10.3429 21.3397C9.25637 21.0342 8.22905 20.462 7.40573 19.6945C6.29161 18.6558 5.50103 17.2069 5.5261 15.5237C5.54823 14.0378 5.84839 12.5029 7.16666 11.0982C8.43576 9.74592 10.5507 8.62174 13.9239 7.64592C16.3078 6.95628 19.0906 6.90468 21.628 7.09629Z"
          fill="#231F20"/>
    <path fill-rule="evenodd" clip-rule="evenodd"
          d="M16.6219 21C16.6219 21 7.49481 36 12.4994 36C12.7013 36 12.903 35.9739 13.1041 35.9237L20 21.2438L16.6219 21Z"
          fill="white"/>
    <path fill-rule="evenodd" clip-rule="evenodd"
          d="M16.0849 19.9586L21.5241 20.3512L13.8071 36.7791L13.346 36.894C13.0712 36.9625 12.7883 37 12.4994 37C11.5832 37 10.8054 36.6277 10.3669 35.8436C9.98486 35.1605 9.95468 34.3204 10.038 33.5489C10.2077 31.9775 10.9365 29.9813 11.7692 28.096C12.614 26.1831 13.614 24.2794 14.3988 22.8599C14.9402 21.8806 15.5033 20.9146 16.0849 19.9586ZM17.1657 22.0418C16.49 23.1927 14.8522 26.0658 13.5987 28.904C12.7751 30.7687 12.1605 32.5225 12.0265 33.7636C11.9579 34.3983 12.0357 34.7302 12.1125 34.8673C12.1136 34.8693 12.1147 34.8715 12.1159 34.8738C12.1355 34.9108 12.1761 34.9876 12.4338 34.9987L18.4759 22.1364L17.1657 22.0418Z"
          fill="#231F20"/>
    <path d="M41.8752 10H38.1248C36.9513 10 36 10.992 36 12.2157V41.7843C36 43.008 36.9513 44 38.1248 44H41.8752C43.0487 44 44 43.008 44 41.7843V12.2157C44 10.992 43.0487 10 41.8752 10Z"
          fill="#BEDCE3"/>
    <path d="M37.8752 8H34.1248C32.9513 8 32 8.96283 32 10.1505V38.8495C32 40.0372 32.9513 41 34.1248 41H37.8752C39.0487 41 40 40.0372 40 38.8495V10.1505C40 8.96283 39.0487 8 37.8752 8Z"
          fill="#F05023"/>
    <path fill-rule="evenodd" clip-rule="evenodd"
          d="M31.4699 10C31.4699 8.34315 32.8131 7 34.4699 7H37.9999C39.6568 7 40.9999 8.34315 40.9999 10V39C40.9999 40.6569 39.6568 42 37.9999 42H34.4699C32.8131 42 31.4699 40.6569 31.4699 39V10ZM34.4699 9C33.9177 9 33.4699 9.44772 33.4699 10V15H35.2399C35.7922 15 36.2399 15.4477 36.2399 16C36.2399 16.5523 35.7922 17 35.2399 17H33.4699V21H36.2399C36.7922 21 37.2399 21.4477 37.2399 22C37.2399 22.5523 36.7922 23 36.2399 23H33.4699V27H35.2399C35.7922 27 36.2399 27.4477 36.2399 28C36.2399 28.5523 35.7922 29 35.2399 29H33.4699V33H36.2399C36.7922 33 37.2399 33.4477 37.2399 34C37.2399 34.5523 36.7922 35 36.2399 35H33.4699V39C33.4699 39.5523 33.9177 40 34.4699 40H37.9999C38.5522 40 38.9999 39.5523 38.9999 39V10C38.9999 9.44772 38.5522 9 37.9999 9H34.4699Z"
          fill="#231F20"/>
</svg>
