<svg width="48" height="48" viewBox="0 0 48 48" fill="none" xmlns="http://www.w3.org/2000/svg">
    <path d="M22.0888 29.4844L26.685 34.0806L15.5481 45.2175C14.2789 46.4867 12.2211 46.4867 10.9519 45.2175C9.6827 43.9483 9.6827 41.8905 10.9519 40.6213L22.0888 29.4844Z"
          fill="#BEDCE3"/>
    <path d="M31.9978 37.9058C39.6762 37.9058 45.9008 31.6812 45.9008 24.0028C45.9008 16.3243 39.6762 10.0997 31.9978 10.0997C24.3193 10.0997 18.0947 16.3243 18.0947 24.0028C18.0947 31.6812 24.3193 37.9058 31.9978 37.9058Z"
          fill="#BEDCE3"/>
    <path d="M18.0888 25.4844L22.685 30.0806L11.5481 41.2175C10.2789 42.4867 8.22111 42.4867 6.9519 41.2175C5.6827 39.9483 5.6827 37.8905 6.9519 36.6213L18.0888 25.4844Z"
          fill="#F05023"/>
    <path fill-rule="evenodd" clip-rule="evenodd"
          d="M18.0888 24.0702L24.0992 30.0806L12.2552 41.9246C10.5955 43.5843 7.90452 43.5843 6.2448 41.9246C4.58507 40.2649 4.58507 37.5739 6.2448 35.9142L18.0888 24.0702ZM18.0888 26.8986L7.65901 37.3284C6.78033 38.2071 6.78033 39.6317 7.65901 40.5104C8.53769 41.3891 9.96231 41.3891 10.841 40.5104L21.2708 30.0806L18.0888 26.8986Z"
          fill="#231F20"/>
    <path d="M27.9979 33.9058C35.6763 33.9058 41.9009 27.6812 41.9009 20.0028C41.9009 12.3243 35.6763 6.09972 27.9979 6.09972C20.3194 6.09972 14.0948 12.3243 14.0948 20.0028C14.0948 27.6812 20.3194 33.9058 27.9979 33.9058Z"
          fill="white"/>
    <path fill-rule="evenodd" clip-rule="evenodd"
          d="M39.1736 13.7397C35.7121 7.56942 27.9025 5.36611 21.7343 8.82644L21.7326 8.82742C20.0121 9.78846 18.6019 11.0913 17.5336 12.6031C17.1848 13.0966 16.5021 13.2139 16.0086 12.8652C15.5151 12.5164 15.3977 11.8337 15.7465 11.3402C16.9975 9.56979 18.6506 8.04258 20.6645 6.91748C27.8887 2.86528 37.0306 5.44715 41.0821 12.669C45.135 19.8934 42.5532 29.0358 35.331 33.0875C28.1069 37.1403 18.9647 34.5587 14.9129 27.3369C14.347 26.3309 13.9057 25.2756 13.5975 24.2089C13.4298 23.6283 13.7644 23.0217 14.345 22.854C14.9255 22.6863 15.5321 23.021 15.6998 23.6015C15.9606 24.5041 16.3361 25.4035 16.8204 26.2646L16.8211 26.2657C20.2826 32.436 28.0922 34.6393 34.2604 31.179C40.4306 27.7175 42.634 19.9078 39.1736 13.7397Z"
          fill="#231F20"/>
    <path d="M18.8413 18.3851C18.4606 18.3179 18.2039 17.9541 18.2975 17.579C18.5963 16.3814 19.1148 15.2475 19.8285 14.2357C20.5423 13.2238 21.4366 12.355 22.4645 11.6718C22.7865 11.4578 23.2154 11.5776 23.4063 11.9137L24.1966 13.3049C24.3876 13.641 24.2674 14.0656 23.952 14.2891C23.305 14.7478 22.7391 15.3141 22.28 15.965C21.8208 16.6159 21.4772 17.3389 21.2621 18.1023C21.1573 18.4744 20.7977 18.73 20.417 18.6629L18.8413 18.3851Z"
          fill="#BEDCE3"/>
    <path d="M24.8192 11.2609C24.687 10.8976 24.8738 10.4934 25.2454 10.3869C25.6022 10.2846 25.9645 10.2023 26.3305 10.1404C26.7116 10.0758 27.0548 10.3596 27.0925 10.7444L27.2486 12.3367C27.2863 12.7215 27.0039 13.0605 26.6248 13.1364C26.5074 13.1599 26.3906 13.1865 26.2745 13.216C25.8998 13.3113 25.4987 13.1277 25.3664 12.7644L24.8192 11.2609Z"
          fill="#BEDCE3"/>
</svg>
