<svg width="48" height="48" viewBox="0 0 48 48" fill="none" xmlns="http://www.w3.org/2000/svg">
    <path fill-rule="evenodd" clip-rule="evenodd"
          d="M33.8421 17.5263H40.3684C42.1795 17.5263 43.6316 18.9784 43.6316 20.7895V38.7368C43.6316 40.5479 42.1795 42 40.3684 42H14.2632C12.4521 42 11 40.5479 11 38.7368L11.0163 20.7895C11.0163 18.9784 12.4521 17.5263 14.2632 17.5263H20.7895V14.2632C20.7895 12.4521 22.2416 13 24.0526 13H30.5789C32.39 13 33.8421 12.4521 33.8421 14.2632V17.5263ZM24.0526 17.5263H30.5789V14.2632H24.0526V17.5263ZM32.2852 30.442L33.72 31.548C33.8396 31.6526 33.8844 31.8319 33.7948 31.9664L32.4496 34.283C32.36 34.4325 32.1806 34.4923 32.0312 34.4325L30.3572 33.7599C30.0284 34.0289 29.6399 34.2382 29.2363 34.4175L28.9822 36.1811C28.9673 36.3455 28.8178 36.4651 28.6534 36.4651H25.9781C25.8137 36.4651 25.6792 36.3455 25.6493 36.1811L25.3953 34.4175C24.9768 34.2531 24.6031 34.0289 24.2594 33.7599L22.6004 34.4325C22.436 34.4773 22.2567 34.4325 22.1819 34.283L20.8368 31.9664C20.7471 31.817 20.792 31.6376 20.9115 31.533L22.3314 30.427C22.3015 30.2178 22.2866 29.9936 22.2866 29.7694C22.2866 29.5452 22.3015 29.321 22.3314 29.1118L20.9115 28.0058C20.777 27.9012 20.7621 27.7218 20.8368 27.5724L22.1819 25.2558C22.2716 25.1063 22.451 25.0466 22.6004 25.1063L24.2594 25.7789C24.6031 25.5099 24.9917 25.3006 25.3953 25.1213L25.6493 23.3577C25.6643 23.1933 25.8137 23.0737 25.9781 23.0737H28.6534C28.8029 23.0737 28.9523 23.1933 28.9673 23.3726L29.2214 25.1362C29.6399 25.3006 30.0135 25.5248 30.3572 25.7938L32.0162 25.1213C32.1806 25.0765 32.36 25.1213 32.4347 25.2707L33.7798 27.5873C33.8695 27.7368 33.8247 27.9161 33.7051 28.0208L32.2852 29.1267C32.3301 29.336 32.345 29.5602 32.345 29.7844C32.345 30.0085 32.3151 30.2327 32.2852 30.442ZM25.2906 29.7694C25.2906 30.8903 26.2023 31.7871 27.3083 31.7871C28.4143 31.7871 29.326 30.8903 29.326 29.7694C29.326 28.6485 28.4292 27.7517 27.3083 27.7517C26.1874 27.7517 25.2906 28.6485 25.2906 29.7694Z"
          fill="#BEDCE3"/>
    <path fill-rule="evenodd" clip-rule="evenodd"
          d="M36.3684 13.5263H29.8421V10.2632C29.8421 8.45211 28.39 7 26.5789 7H20.0526C18.2416 7 16.7895 8.45211 16.7895 10.2632V13.5263H10.2632C8.45211 13.5263 7.01632 14.9784 7.01632 16.7895L7 34.7368C7 36.5479 8.45211 38 10.2632 38H36.3684C38.1795 38 39.6316 36.5479 39.6316 34.7368V16.7895C39.6316 14.9784 38.1795 13.5263 36.3684 13.5263ZM29.8421 13.5263H16.7895V10C16.7895 8.34314 18.1326 7 19.7895 7H26.8421C28.499 7 29.8421 8.34315 29.8421 10V13.5263Z"
          fill="#21C68B"/>
    <path fill-rule="evenodd" clip-rule="evenodd"
          d="M26.8421 6C29.0513 6 30.8421 7.79086 30.8421 10V12.5263H36.3684C38.7318 12.5263 40.6316 14.4261 40.6316 16.7895V34.7368C40.6316 37.1002 38.7318 39 36.3684 39H10.2632C7.89982 39 6 37.1002 6 34.7368L6.01476 18.4991C6.01526 17.9468 6.46339 17.4995 7.01567 17.5C7.56795 17.5005 8.01526 17.9486 8.01476 18.5009L8 34.7368C8 34.7367 8 34.737 8 34.7368C8.00022 35.9954 9.00453 37 10.2632 37H36.3684C37.6272 37 38.6316 35.9956 38.6316 34.7368V16.7895C38.6316 15.5307 37.6272 14.5263 36.3684 14.5263H12C11.4477 14.5263 11 14.0786 11 13.5263C11 12.974 11.4477 12.5263 12 12.5263H15.7895V10C15.7895 7.79086 17.5803 6 19.7895 6H26.8421ZM17.7895 12.5263H28.8421V10.2632C28.8421 9.00439 27.8377 8 26.5789 8H20.0526C18.7939 8 17.7895 9.00439 17.7895 10.2632V12.5263Z"
          fill="#231F20"/>
    <path d="M29.7201 27.548L28.2853 26.442C28.3152 26.2327 28.345 26.0086 28.345 25.7844C28.345 25.5602 28.3301 25.336 28.2853 25.1268L29.7051 24.0208C29.8247 23.9161 29.8695 23.7368 29.7798 23.5873L28.4347 21.2708C28.36 21.1213 28.1806 21.0765 28.0162 21.1213L26.3573 21.7939C26.0135 21.5248 25.6399 21.3006 25.2214 21.1362L24.9673 19.3726C24.9524 19.1933 24.8029 19.0737 24.6535 19.0737H21.9782C21.8138 19.0737 21.6643 19.1933 21.6494 19.3577L21.3953 21.1213C20.9917 21.3006 20.6032 21.5099 20.2594 21.7789L18.6004 21.1063C18.451 21.0466 18.2716 21.1064 18.1819 21.2558L16.8368 23.5724C16.7621 23.7219 16.777 23.9012 16.9116 24.0058L18.3314 25.1118C18.3015 25.321 18.2866 25.5452 18.2866 25.7694C18.2866 25.9936 18.3015 26.2178 18.3314 26.427L16.9116 27.533C16.792 27.6376 16.7472 27.817 16.8368 27.9664L18.1819 30.283C18.2567 30.4325 18.436 30.4773 18.6004 30.4325L20.2594 29.7599C20.6032 30.029 20.9768 30.2531 21.3953 30.4175L21.6494 32.1811C21.6792 32.3455 21.8138 32.4651 21.9782 32.4651H24.6535C24.8179 32.4651 24.9673 32.3455 24.9823 32.1811L25.2363 30.4175C25.6399 30.2382 26.0285 30.029 26.3573 29.7599L28.0312 30.4325C28.1806 30.4923 28.36 30.4325 28.4497 30.283L29.7948 27.9664C29.8845 27.8319 29.8396 27.6526 29.7201 27.548ZM23.3083 27.7871C22.2023 27.7871 21.2907 26.8903 21.2907 25.7694C21.2907 24.6485 22.1874 23.7517 23.3083 23.7517C24.4293 23.7517 25.326 24.6485 25.326 25.7694C25.326 26.8903 24.4143 27.7871 23.3083 27.7871Z"
          fill="white"/>
</svg>
