<svg width="48" height="48" viewBox="0 0 48 48" fill="none" xmlns="http://www.w3.org/2000/svg">
    <path d="M41.5019 28C41.5019 27.586 41.4839 27.19 41.4479 26.776L44.7959 24.238C45.5159 23.698 45.7139 22.69 45.2639 21.898L41.8979 16.084C41.4479 15.292 40.4759 14.968 39.6479 15.328L35.7779 16.966C35.1119 16.498 34.4099 16.084 33.6719 15.742L33.1499 11.584C33.0419 10.684 32.2679 10 31.3679 10H24.6539C23.7359 10 22.9619 10.684 22.8539 11.584L22.3319 15.742C21.5939 16.084 20.8919 16.498 20.2259 16.966L16.3559 15.328C15.5279 14.968 14.5559 15.292 14.1059 16.084L10.7399 21.916C10.2899 22.708 10.4879 23.698 11.2079 24.256L14.5559 26.794C14.5199 27.19 14.5019 27.586 14.5019 28C14.5019 28.414 14.5199 28.81 14.5559 29.224L11.2079 31.762C10.4879 32.302 10.2899 33.31 10.7399 34.102L14.1059 39.916C14.5559 40.708 15.5279 41.032 16.3559 40.672L20.2259 39.034C20.8919 39.502 21.5939 39.916 22.3319 40.258L22.8539 44.416C22.9619 45.316 23.7359 46 24.6359 46H31.3499C32.2499 46 33.0239 45.316 33.1319 44.416L33.6539 40.258C34.3919 39.916 35.0939 39.502 35.7599 39.034L39.6299 40.672C40.4579 41.032 41.4299 40.708 41.8799 39.916L45.2459 34.102C45.6959 33.31 45.4979 32.32 44.7779 31.762L41.4299 29.224C41.4839 28.81 41.5019 28.414 41.5019 28ZM28.0739 34.3C24.5999 34.3 21.7739 31.474 21.7739 28C21.7739 24.526 24.5999 21.7 28.0739 21.7C31.5479 21.7 34.3739 24.526 34.3739 28C34.3739 31.474 31.5479 34.3 28.0739 34.3Z"
          fill="#BEDCE3"/>
    <path d="M37.5019 24C37.5019 23.586 37.4839 23.19 37.4479 22.776L40.7959 20.238C41.5159 19.698 41.7139 18.69 41.2639 17.898L37.8979 12.084C37.4479 11.292 36.4759 10.968 35.6479 11.328L31.7779 12.966C31.1119 12.498 30.4099 12.084 29.6719 11.742L29.1499 7.584C29.0419 6.684 28.2679 6 27.3679 6H20.6539C19.7359 6 18.9619 6.684 18.8539 7.584L18.3319 11.742C17.5939 12.084 16.8919 12.498 16.2259 12.966L12.3559 11.328C11.5279 10.968 10.5559 11.292 10.1059 12.084L6.73994 17.916C6.28994 18.708 6.48794 19.698 7.20794 20.256L10.5559 22.794C10.5199 23.19 10.5019 23.586 10.5019 24C10.5019 24.414 10.5199 24.81 10.5559 25.224L7.20794 27.762C6.48794 28.302 6.28994 29.31 6.73994 30.102L10.1059 35.916C10.5559 36.708 11.5279 37.032 12.3559 36.672L16.2259 35.034C16.8919 35.502 17.5939 35.916 18.3319 36.258L18.8539 40.416C18.9619 41.316 19.7359 42 20.6359 42H27.3499C28.2499 42 29.0239 41.316 29.1319 40.416L29.6539 36.258C30.3919 35.916 31.0939 35.502 31.7599 35.034L35.6299 36.672C36.4579 37.032 37.4299 36.708 37.8799 35.916L41.2459 30.102C41.6959 29.31 41.4979 28.32 40.7779 27.762L37.4299 25.224C37.4839 24.81 37.5019 24.414 37.5019 24ZM24.0739 30.3C20.5999 30.3 17.7739 27.474 17.7739 24C17.7739 20.526 20.5999 17.7 24.0739 17.7C27.5479 17.7 30.3739 20.526 30.3739 24C30.3739 27.474 27.5479 30.3 24.0739 30.3Z"
          fill="white"/>
    <path fill-rule="evenodd" clip-rule="evenodd"
          d="M17.8614 7.46175C18.0319 6.0547 19.2368 5 20.6539 5H27.3679C28.7733 5 29.9729 6.06095 30.1425 7.46196C30.1426 7.46293 30.1427 7.46389 30.1428 7.46485L30.5968 11.0813C31.0418 11.3103 31.4723 11.5624 31.8884 11.8334L35.2542 10.4088C36.5507 9.84805 38.0637 10.3563 38.765 11.5858C38.7658 11.5872 38.7666 11.5886 38.7674 11.59L42.1334 17.404C42.8237 18.6188 42.5317 20.1841 41.3986 21.036C41.3977 21.0367 41.3968 21.0373 41.3959 21.038L38.4828 23.2464C38.4955 23.4957 38.5019 23.7447 38.5019 24C38.5019 24.2538 38.4956 24.5067 38.4788 24.7642L41.3905 26.9715C42.5037 27.8342 42.8111 29.3716 42.1154 30.596L42.1114 30.6031L38.7494 36.41C38.7486 36.4114 38.7478 36.4128 38.747 36.4141C38.0457 37.6437 36.5327 38.152 35.2362 37.5912L31.8704 36.1666C31.4543 36.4376 31.0238 36.6897 30.5788 36.9187L30.1248 40.5351C30.1247 40.5361 30.1246 40.5371 30.1245 40.538C29.9549 41.939 28.7553 43 27.3499 43H20.6359C19.2306 43 18.0311 41.9391 17.8614 40.5382C17.8613 40.5372 17.8612 40.5362 17.8611 40.5351L17.407 36.9187C16.9621 36.6897 16.5316 36.4376 16.1155 36.1666L12.7497 37.5912C11.4531 38.152 9.93999 37.6437 9.23869 36.4139L5.87044 30.596C5.18015 29.3811 5.47214 27.8158 6.60542 26.9639C6.60626 26.9633 6.60709 26.9626 6.60792 26.962L9.52106 24.7536C9.50833 24.5043 9.50193 24.2553 9.50193 24C9.50193 23.7501 9.50805 23.5058 9.52034 23.2638L6.59532 21.0465C5.48218 20.1838 5.17476 18.6464 5.87047 17.422C6.1433 16.9418 6.75375 16.7737 7.23393 17.0465C7.71412 17.3194 7.88222 17.9298 7.60938 18.41C7.4058 18.7683 7.49302 19.2092 7.81708 19.4629L11.602 22.3322L11.5518 22.8845C11.5186 23.2499 11.5019 23.6157 11.5019 24C11.5019 24.3837 11.5185 24.7508 11.5522 25.1374L11.6 25.6874L7.81203 28.5589L7.80792 28.562C7.50406 28.7899 7.40071 29.2375 7.60777 29.6051L10.9754 35.422C11.1742 35.7718 11.6003 35.9101 11.9572 35.7549L11.9661 35.751L16.347 33.8969L16.8009 34.2158C17.4236 34.6534 18.0741 35.0364 18.7524 35.3507L19.2551 35.5837L19.8468 40.2969C19.8945 40.6944 20.2423 41 20.6359 41H27.3499C27.7436 41 28.0913 40.6944 28.1391 40.2969L28.1397 40.2914L28.7307 35.5837L29.2335 35.3507C29.9117 35.0364 30.5623 34.6534 31.185 34.2158L31.6389 33.8969L36.0287 35.7549C36.3856 35.9101 36.8117 35.7718 37.0105 35.422L37.0145 35.4149L40.3765 29.608C40.377 29.6071 40.3775 29.6062 40.378 29.6053C40.5796 29.2474 40.492 28.8082 40.1688 28.5551C40.1676 28.5542 40.1665 28.5533 40.1654 28.5524L36.3633 25.6702L36.4383 25.0947C36.4852 24.735 36.5019 24.3841 36.5019 24C36.5019 23.6163 36.4853 23.2492 36.4517 22.8626L36.4039 22.3126L40.1918 19.4411L40.1959 19.438C40.4998 19.2101 40.6032 18.7624 40.396 18.3947C40.3955 18.3938 40.395 18.3929 40.3945 18.392L37.0284 12.578C36.8297 12.2282 36.4036 12.0899 36.0467 12.2451L36.0377 12.249L31.6569 14.1031L31.203 13.7842C30.5803 13.3466 29.9297 12.9636 29.2515 12.6493L28.7487 12.4163L28.157 7.70315C28.1093 7.3056 27.7616 7 27.3679 7H20.6539C20.2361 7 19.8938 7.31174 19.8468 7.70315L19.8462 7.70857L19.2551 12.4163L18.7524 12.6493C18.0741 12.9636 17.4236 13.3466 16.8009 13.7842L16.347 14.1031L13.9011 13.0679C13.3925 12.8526 13.1547 12.2658 13.37 11.7572C13.5853 11.2486 14.1721 11.0108 14.6807 11.2261L16.1155 11.8334C16.5316 11.5624 16.9621 11.3103 17.407 11.0813L17.8614 7.46175ZM24.0739 18.7C21.1522 18.7 18.7739 21.0783 18.7739 24C18.7739 26.9217 21.1522 29.3 24.0739 29.3C26.9956 29.3 29.3739 26.9217 29.3739 24C29.3739 21.0783 26.9956 18.7 24.0739 18.7ZM16.7739 24C16.7739 19.9737 20.0476 16.7 24.0739 16.7C28.1002 16.7 31.3739 19.9737 31.3739 24C31.3739 28.0263 28.1002 31.3 24.0739 31.3C20.0476 31.3 16.7739 28.0263 16.7739 24Z"
          fill="#231F20"/>
    <path d="M21.2584 39.5011L20.6398 34.5732L19.3829 33.9908C19.2331 33.9214 19.0842 33.8478 18.9363 33.7702L20.0563 31.8303C21.2615 32.4507 22.6278 32.8011 24.0738 32.8011C28.9285 32.8011 32.8738 28.8558 32.8738 24.0011C32.8738 20.9028 31.2668 18.1761 28.8447 16.6083L29.9268 14.7341C30.0656 14.8235 30.2035 14.9164 30.3404 15.0126L31.4751 15.8099L36.0456 13.8754L38.7927 18.6204L34.8376 21.6186L34.9572 22.9937C34.9872 23.3392 35.0018 23.6628 35.0018 24.0011C35.0018 24.3405 34.987 24.6237 34.9508 24.9017L34.7631 26.3407L38.7747 29.3817L36.0276 34.1267L31.4571 32.1923L30.3224 32.9896C29.7647 33.3815 29.1912 33.718 28.6026 33.9908L27.3458 34.5732L26.7272 39.5011H21.2584Z"
          fill="#BEDCE3"/>
</svg>
