<svg width="48" height="48" viewBox="0 0 48 48" fill="none" xmlns="http://www.w3.org/2000/svg">
<path d="M41.5019 28C41.5019 27.586 41.4839 27.19 41.4479 26.776L44.7959 24.238C45.5159 23.698 45.7139 22.69 45.2639 21.898L41.8979 16.084C41.4479 15.292 40.4759 14.968 39.6479 15.328L35.7779 16.966C35.1119 16.498 34.4099 16.084 33.6719 15.742L33.1499 11.584C33.0419 10.684 32.2679 10 31.3679 10H24.6539C23.7359 10 22.9619 10.684 22.8539 11.584L22.3319 15.742C21.5939 16.084 20.8919 16.498 20.2259 16.966L16.3559 15.328C15.5279 14.968 14.5559 15.292 14.1059 16.084L10.7399 21.916C10.2899 22.708 10.4879 23.698 11.2079 24.256L14.5559 26.794C14.5199 27.19 14.5019 27.586 14.5019 28C14.5019 28.414 14.5199 28.81 14.5559 29.224L11.2079 31.762C10.4879 32.302 10.2899 33.31 10.7399 34.102L14.1059 39.916C14.5559 40.708 15.5279 41.032 16.3559 40.672L20.2259 39.034C20.8919 39.502 21.5939 39.916 22.3319 40.258L22.8539 44.416C22.9619 45.316 23.7359 46 24.6359 46H31.3499C32.2499 46 33.0239 45.316 33.1319 44.416L33.6539 40.258C34.3919 39.916 35.0939 39.502 35.7599 39.034L39.6299 40.672C40.4579 41.032 41.4299 40.708 41.8799 39.916L45.2459 34.102C45.6959 33.31 45.4979 32.32 44.7779 31.762L41.4299 29.224C41.4839 28.81 41.5019 28.414 41.5019 28ZM28.0739 34.3C24.5999 34.3 21.7739 31.474 21.7739 28C21.7739 24.526 24.5999 21.7 28.0739 21.7C31.5479 21.7 34.3739 24.526 34.3739 28C34.3739 31.474 31.5479 34.3 28.0739 34.3Z" fill="#BEDCE3"/>
<path d="M37.5019 24C37.5019 23.586 37.4839 23.19 37.4479 22.776L40.7959 20.238C41.5159 19.698 41.7139 18.69 41.2639 17.898L37.8979 12.084C37.4479 11.292 36.4759 10.968 35.6479 11.328L31.7779 12.966C31.1119 12.498 30.4099 12.084 29.6719 11.742L29.1499 7.584C29.0419 6.684 28.2679 6 27.3679 6H20.6539C19.7359 6 18.9619 6.684 18.8539 7.584L18.3319 11.742C17.5939 12.084 16.8919 12.498 16.2259 12.966L12.3559 11.328C11.5279 10.968 10.5559 11.292 10.1059 12.084L6.73994 17.916C6.28994 18.708 6.48794 19.698 7.20794 20.256L10.5559 22.794C10.5199 23.19 10.5019 23.586 10.5019 24C10.5019 24.414 10.5199 24.81 10.5559 25.224L7.20794 27.762C6.48794 28.302 6.28994 29.31 6.73994 30.102L10.1059 35.916C10.5559 36.708 11.5279 37.032 12.3559 36.672L16.2259 35.034C16.8919 35.502 17.5939 35.916 18.3319 36.258L18.8539 40.416C18.9619 41.316 19.7359 42 20.6359 42H27.3499C28.2499 42 29.0239 41.316 29.1319 40.416L29.6539 36.258C30.3919 35.916 31.0939 35.502 31.7599 35.034L35.6299 36.672C36.4579 37.032 37.4299 36.708 37.8799 35.916L41.2459 30.102C41.6959 29.31 41.4979 28.32 40.7779 27.762L37.4299 25.224C37.4839 24.81 37.5019 24.414 37.5019 24ZM24.0739 30.3C20.5999 30.3 17.7739 27.474 17.7739 24C17.7739 20.526 20.5999 17.7 24.0739 17.7C27.5479 17.7 30.3739 20.526 30.3739 24C30.3739 27.474 27.5479 30.3 24.0739 30.3Z" fill="white"/>
<path fill-rule="evenodd" clip-rule="evenodd" d="M17.8615 7.46175C18.0319 6.0547 19.2369 5 20.654 5H27.368C28.7734 5 29.973 6.06095 30.1426 7.46196C30.1427 7.46293 30.1428 7.46389 30.1429 7.46485L30.5969 11.0813C31.0419 11.3103 31.4724 11.5624 31.8885 11.8334L35.2543 10.4088C36.5508 9.84805 38.0638 10.3563 38.7651 11.5858C38.7659 11.5872 38.7667 11.5886 38.7675 11.59L42.1335 17.404C42.8238 18.6188 42.5318 20.1841 41.3987 21.036C41.3978 21.0367 41.3969 21.0373 41.396 21.038L38.4829 23.2464C38.4956 23.4957 38.502 23.7447 38.502 24C38.502 24.2538 38.4957 24.5067 38.4789 24.7642L41.3906 26.9715C42.5038 27.8342 42.8112 29.3716 42.1155 30.596L42.1115 30.6031L38.7495 36.41C38.7487 36.4114 38.7479 36.4128 38.7471 36.4141C38.0458 37.6437 36.5328 38.152 35.2362 37.5912L31.8705 36.1666C31.4544 36.4376 31.0239 36.6897 30.5789 36.9187L30.1249 40.5351C30.1248 40.5361 30.1247 40.5371 30.1246 40.538C29.955 41.939 28.7554 43 27.35 43H20.636C19.2307 43 18.0312 41.9391 17.8615 40.5382C17.8614 40.5372 17.8613 40.5362 17.8611 40.5351L17.4071 36.9187C16.9622 36.6897 16.5317 36.4376 16.1156 36.1666L12.7498 37.5912C11.4532 38.152 9.94009 37.6437 9.23878 36.4139L5.87053 30.596C5.18024 29.3811 5.47223 27.8158 6.60551 26.9639C6.60635 26.9633 6.60718 26.9626 6.60802 26.962L9.52115 24.7536C9.50842 24.5043 9.50202 24.2553 9.50202 24C9.50202 23.7501 9.50814 23.5058 9.52043 23.2638L6.59541 21.0465C5.48227 20.1838 5.17485 18.6464 5.87056 17.422C6.14339 16.9418 6.75384 16.7737 7.23403 17.0465C7.71421 17.3194 7.88231 17.9298 7.60947 18.41C7.40589 18.7683 7.49311 19.2092 7.81718 19.4629L11.6021 22.3322L11.5519 22.8845C11.5187 23.2499 11.502 23.6157 11.502 24C11.502 24.3837 11.5186 24.7508 11.5523 25.1374L11.6001 25.6874L7.81212 28.5589L7.80802 28.562C7.50415 28.7899 7.4008 29.2375 7.60786 29.6051L10.9755 35.422C11.1743 35.7718 11.6004 35.9101 11.9573 35.7549L11.9662 35.751L16.3471 33.8969L16.801 34.2158C17.4237 34.6534 18.0742 35.0364 18.7525 35.3507L19.2552 35.5837L19.8469 40.2969C19.8946 40.6944 20.2424 41 20.636 41H27.35C27.7437 41 28.0914 40.6944 28.1391 40.2969L28.1398 40.2914L28.7308 35.5837L29.2336 35.3507C29.9118 35.0364 30.5624 34.6534 31.1851 34.2158L31.639 33.8969L36.0288 35.7549C36.3857 35.9101 36.8118 35.7718 37.0106 35.422L37.0146 35.4149L40.3766 29.608C40.3771 29.6071 40.3776 29.6062 40.3781 29.6053C40.5797 29.2474 40.4921 28.8082 40.1688 28.5551C40.1677 28.5542 40.1666 28.5533 40.1655 28.5524L36.3633 25.6702L36.4384 25.0947C36.4853 24.735 36.502 24.3841 36.502 24C36.502 23.6163 36.4854 23.2492 36.4518 22.8626L36.404 22.3126L40.1919 19.4411L40.196 19.438C40.4999 19.2101 40.6033 18.7624 40.3961 18.3947C40.3956 18.3938 40.3951 18.3929 40.3946 18.392L37.0285 12.578C36.8298 12.2282 36.4037 12.0899 36.0467 12.2451L36.0378 12.249L31.657 14.1031L31.2031 13.7842C30.5804 13.3466 29.9298 12.9636 29.2516 12.6493L28.7488 12.4163L28.1571 7.70315C28.1094 7.3056 27.7617 7 27.368 7H20.654C20.2362 7 19.8939 7.31174 19.8469 7.70315L19.8462 7.70857L19.2552 12.4163L18.7525 12.6493C18.0742 12.9636 17.4237 13.3466 16.801 13.7842L16.3471 14.1031L13.9012 13.0679C13.3926 12.8526 13.1548 12.2658 13.3701 11.7572C13.5854 11.2486 14.1722 11.0108 14.6808 11.2261L16.1156 11.8334C16.5317 11.5624 16.9622 11.3103 17.4071 11.0813L17.8615 7.46175ZM24.074 18.7C21.1523 18.7 18.774 21.0783 18.774 24C18.774 26.9217 21.1523 29.3 24.074 29.3C26.9957 29.3 29.374 26.9217 29.374 24C29.374 21.0783 26.9957 18.7 24.074 18.7ZM16.774 24C16.774 19.9737 20.0477 16.7 24.074 16.7C28.1003 16.7 31.374 19.9737 31.374 24C31.374 28.0263 28.1003 31.3 24.074 31.3C20.0477 31.3 16.774 28.0263 16.774 24Z" fill="#231F20"/>
<path d="M21.2586 39.5011L20.64 34.5732L19.3831 33.9908C19.2333 33.9214 19.0844 33.8478 18.9365 33.7702L20.0566 31.8303C21.2617 32.4507 22.628 32.8011 24.074 32.8011C28.9287 32.8011 32.874 28.8558 32.874 24.0011C32.874 20.9028 31.267 18.1761 28.8449 16.6083L29.927 14.7341C30.0659 14.8235 30.2037 14.9163 30.3406 15.0126L31.4753 15.8099L36.0458 13.8754L38.7929 18.6204L34.8378 21.6186L34.9574 22.9936C34.9874 23.3392 35.002 23.6628 35.002 24.0011C35.002 24.3405 34.9873 24.6237 34.951 24.9017L34.7633 26.3407L38.7749 29.3817L36.0278 34.1267L31.4573 32.1923L30.3226 32.9896C29.7649 33.3815 29.1915 33.718 28.6028 33.9908L27.346 34.5732L26.7274 39.5011H21.2586Z" fill="#BEDCE3"/>
</svg>
