<svg width="64" height="64" viewBox="0 0 64 64" fill="none" xmlns="http://www.w3.org/2000/svg">
<path d="M9 56V53C9 50.8 10.8 49 13 49H56C58.2 49 60 50.8 60 53V56C60 58.2 58.2 60 56 60H13C10.8 60 9 58.2 9 56Z" fill="#BEDCE3"/>
<path d="M5 50V47C5 44.8 6.8 43 9 43H38.44H52C54.2 43 56 44.8 56 47V50C56 52.2 54.2 54 52 54H9C6.8 54 5 52.2 5 50Z" fill="#F05023"/>
<path d="M52.5 56H9.5C6.47 56 4 53.53 4 50.5V47.5C4 46.67 4.67 46 5.5 46C6.33 46 7 46.67 7 47.5V50.5C7 51.88 8.12 53 9.5 53H52.5C53.88 53 55 51.88 55 50.5V47.5C55 46.12 53.88 45 52.5 45H17.5C16.67 45 16 44.33 16 43.5C16 42.67 16.67 42 17.5 42H52.5C55.53 42 58 44.47 58 47.5V50.5C58 53.53 55.53 56 52.5 56Z" fill="#231F20"/>
<path d="M14.43 40.44C15.89 41.45 17.9 41.08 18.91 39.62L30.32 23.09C31.33 21.63 30.96 19.62 29.5 18.61C28.04 17.6 26.03 17.97 25.02 19.43L13.61 35.96C12.6 37.42 12.97 39.43 14.43 40.44Z" fill="white"/>
<path d="M16.2502 42.51C15.3202 42.51 14.3902 42.24 13.5702 41.68C12.5402 40.97 11.8402 39.89 11.6102 38.64C11.3802 37.39 11.6502 36.14 12.3702 35.11L23.7802 18.58C24.4902 17.54 25.5702 16.85 26.8202 16.62C28.0702 16.39 29.3202 16.66 30.3502 17.38C31.3802 18.09 32.0802 19.17 32.3102 20.42C32.5402 21.67 32.2702 22.92 31.5502 23.95L20.1402 40.47C19.2302 41.8 17.7502 42.51 16.2502 42.51ZM27.6802 19.54C27.5802 19.54 27.4702 19.55 27.3602 19.57C26.9002 19.65 26.5102 19.9 26.2502 20.28L14.8402 36.81C14.5802 37.19 14.4802 37.64 14.5702 38.1C14.6502 38.56 14.9102 38.95 15.2802 39.21C16.0602 39.75 17.1402 39.55 17.6802 38.77L29.0902 22.24C29.3502 21.86 29.4502 21.41 29.3602 20.95C29.2802 20.49 29.0202 20.1 28.6502 19.84C28.3602 19.65 28.0202 19.54 27.6802 19.54Z" fill="#231F20"/>
<path d="M47.5 40.5C45.85 40.5 44.5 39.15 44.5 37.5V11.5C44.5 9.85 45.85 8.5 47.5 8.5C49.15 8.5 50.5 9.85 50.5 11.5V37.5C50.5 39.15 49.15 40.5 47.5 40.5Z" fill="white"/>
<path d="M47.5 42C45.02 42 43 39.98 43 37.5V11.5C43 9.02 45.02 7 47.5 7C49.98 7 52 9.02 52 11.5V37.5C52 39.98 49.98 42 47.5 42ZM47.5 10C46.67 10 46 10.67 46 11.5V37.5C46 38.33 46.67 39 47.5 39C48.33 39 49 38.33 49 37.5V11.5C49 10.67 48.33 10 47.5 10Z" fill="#231F20"/>
<path d="M36.5 40.5C34.85 40.5 33.5 39.15 33.5 37.5V16.5C33.5 14.85 34.85 13.5 36.5 13.5C38.15 13.5 39.5 14.85 39.5 16.5V37.5C39.5 39.15 38.15 40.5 36.5 40.5Z" fill="white"/>
<path d="M36.5 42C34.02 42 32 39.98 32 37.5V16.5C32 14.02 34.02 12 36.5 12C38.98 12 41 14.02 41 16.5V37.5C41 39.98 38.98 42 36.5 42ZM36.5 15C35.67 15 35 15.67 35 16.5V37.5C35 38.33 35.67 39 36.5 39C37.33 39 38 38.33 38 37.5V16.5C38 15.67 37.33 15 36.5 15Z" fill="#231F20"/>
</svg>
