<svg width="48" height="48" viewBox="0 0 48 48" fill="none" xmlns="http://www.w3.org/2000/svg">
<path fill-rule="evenodd" clip-rule="evenodd" d="M17.0174 12C15.2314 12 13.6619 13.1839 13.1713 14.9011L10.7286 23.4506C10.3635 24.7282 11.3228 26 12.6516 26H14.0001V40C14.0001 42.2091 15.791 44 18.0001 44H38.0001C40.2093 44 42.0001 42.2091 42.0001 40V25.7848C43.9393 25.1196 45.1471 23.0144 44.5433 20.9011L42.829 14.9011C42.3384 13.1839 40.7689 12 38.9829 12H38.0001H35.0001H21.0001H18.0001H17.0174Z" fill="#BEDCE3"/>
<path d="M10 12C10 9.79086 11.7909 8 14 8H34C36.2091 8 38 9.79086 38 12V36C38 38.2091 36.2091 40 34 40H14C11.7909 40 10 38.2091 10 36V12Z" fill="white"/>
<path d="M9.00021 36V22H11.0002V36C11.0002 37.6569 12.3434 39 14.0002 39H18.0002C18.5525 39 19.0002 38.5523 19.0002 38V28C19.0002 26.3431 20.3434 25 22.0002 25H26.0002C27.6571 25 29.0002 26.3431 29.0002 28V38C29.0002 38.5523 29.4479 39 30.0002 39H34.0002C35.6571 39 37.0002 37.6569 37.0002 36V12C37.0002 10.3431 35.6571 9 34.0002 9H17.0002V7H34.0002C36.7616 7 39.0002 9.23858 39.0002 12V36C39.0002 38.7614 36.7616 41 34.0002 41H30.0002C28.3434 41 27.0002 39.6569 27.0002 38V28C27.0002 27.4477 26.5525 27 26.0002 27H22.0002C21.4479 27 21.0002 27.4477 21.0002 28V38C21.0002 39.6569 19.6571 41 18.0002 41H14.0002C11.2388 41 9.00021 38.7614 9.00021 36Z" fill="#231F20"/>
<path d="M9.1711 10.9011C9.66173 9.18391 11.2313 8 13.0172 8H17L15.4906 18.5657C15.2091 20.5363 13.5214 22 11.5308 22H11.3029C8.64539 22 6.72674 19.4564 7.45681 16.9011L9.1711 10.9011Z" fill="#F05023"/>
<path fill-rule="evenodd" clip-rule="evenodd" d="M14.0086 8C14.0086 7.44772 14.4563 7 15.0086 7H18.153L16.4806 18.7071C16.1287 21.1704 14.0191 23 11.5308 23H11.3029C7.98101 23 5.58269 19.8205 6.49529 16.6264L6.89561 15.2253C7.04733 14.6942 7.60082 14.3868 8.13185 14.5385C8.66289 14.6902 8.97038 15.2437 8.81866 15.7747L8.41834 17.1758C7.87078 19.0923 9.30977 21 11.3029 21H11.5308C13.0238 21 14.2895 19.9022 14.5007 18.4243L15.847 9H15.0086C14.4563 9 14.0086 8.55228 14.0086 8Z" fill="#231F20"/>
<path d="M17 8H24V18C24 20.2091 22.2091 22 20 22H19.612C17.1778 22 15.308 19.844 15.6522 17.4343L17 8Z" fill="#F05023"/>
<path fill-rule="evenodd" clip-rule="evenodd" d="M16.1327 7H25V18C25 20.7614 22.7614 23 20 23H19.612C16.5693 23 14.232 20.3051 14.6623 17.2929L16.1327 7ZM17.8673 9L16.6422 17.5757C16.384 19.383 17.7864 21 19.612 21H20C21.6568 21 23 19.6569 23 18V9H17.8673Z" fill="#231F20"/>
<path d="M31.0001 8H24.0001V18C24.0001 20.2091 25.791 22 28.0001 22H28.3881C30.8223 22 32.6921 19.844 32.3479 17.4343L31.0001 8Z" fill="#F05023"/>
<path fill-rule="evenodd" clip-rule="evenodd" d="M23.0001 7H31.8674L33.3378 17.2929C33.7681 20.3051 31.4308 23 28.3881 23H28.0001C25.2387 23 23.0001 20.7614 23.0001 18V7ZM25.0001 9V18C25.0001 19.6569 26.3433 21 28.0001 21H28.3881C30.2137 21 31.6161 19.383 31.3579 17.5757L30.1328 9H25.0001Z" fill="#231F20"/>
<path d="M31.0001 8H34.9829C36.7688 8 38.3383 9.18391 38.829 10.9011L40.5432 16.9011C41.2733 19.4564 39.3547 22 36.6971 22H36.4692C34.4786 22 32.791 20.5363 32.5094 18.5657L31.0001 8Z" fill="#F05023"/>
<path fill-rule="evenodd" clip-rule="evenodd" d="M29.847 7H34.9829C37.2153 7 39.1772 8.47989 39.7905 10.6264L41.5048 16.6264C42.4173 19.8205 40.019 23 36.6971 23H36.4692C33.981 23 31.8714 21.1704 31.5195 18.7071L29.847 7ZM32.1531 9L33.4994 18.4243C33.7105 19.9022 34.9763 21 36.4692 21H36.6971C38.6903 21 40.1293 19.0923 39.5817 17.1758L37.8674 11.1758C37.4994 9.88793 36.3223 9 34.9829 9H32.1531Z" fill="#231F20"/>
</svg>
