<svg width="64" height="64" viewBox="0 0 64 64" fill="none" xmlns="http://www.w3.org/2000/svg">
<g clip-path="url(#clip0)">
<path d="M50.2699 52.5H18.8199C15.0299 52.5 12.7499 49.36 13.7699 45.53L19.0799 25.48C20.0999 21.64 24.0299 18.51 27.8199 18.51H56.3699L63.4999 28.58L59.0099 45.53C57.9999 49.36 54.0599 52.5 50.2699 52.5Z" fill="#BEDCE3"/>
<path d="M47.6 46.5H16.15C12.36 46.5 10.08 43.36 11.1 39.53L16.41 19.48C17.43 15.64 21.36 12.51 25.15 12.51H53.7L60.83 22.58L56.34 39.53C55.33 43.36 51.4 46.5 47.6 46.5Z" fill="white"/>
<path fill-rule="evenodd" clip-rule="evenodd" d="M25.6501 12.5C25.6501 11.6716 26.3216 11 27.1501 11H51.3601C53.273 11 55.0319 11.7893 56.113 13.3114L56.1152 13.3145L60.9078 20.0982C61.935 21.5616 62.152 23.4132 61.6811 25.2103L57.7898 39.9151C57.1857 42.1895 55.7417 44.1947 53.9438 45.6279C52.1485 47.0591 49.898 48 47.6001 48H16.1501C13.8211 48 11.8317 47.021 10.6069 45.3317C9.38914 43.6521 9.04176 41.4312 9.65031 39.145C9.6504 39.1447 9.6505 39.1443 9.65059 39.144L14.4301 21.096C14.6421 20.2952 15.4632 19.8179 16.2641 20.03C17.0649 20.2421 17.5422 21.0632 17.3301 21.864L12.5495 39.916C12.1385 41.4595 12.4212 42.7232 13.0357 43.5708C13.6435 44.409 14.6891 45 16.1501 45H47.6001C49.0921 45 50.7016 44.3759 52.0738 43.2821C53.4433 42.1903 54.4744 40.7107 54.8903 39.1451C54.8903 39.1451 54.8903 39.1452 54.8903 39.1451L58.7791 24.4497C58.7791 24.4495 58.779 24.45 58.7791 24.4497C59.0676 23.3482 58.8854 22.44 58.4536 21.8235C58.4532 21.8229 58.4527 21.8224 58.4523 21.8218L53.6672 15.0486C53.6668 15.0481 53.6664 15.0476 53.666 15.047C53.2269 14.4299 52.4463 14 51.3601 14H27.1501C26.3216 14 25.6501 13.3284 25.6501 12.5Z" fill="#231F20"/>
<path d="M27.02 32.5L30.46 19.5H25.96C24.86 19.5 23.72 20.4 23.43 21.5L20.52 32.5H27.02Z" fill="#F2C94C"/>
<path d="M19.9899 34.5L19.4599 36.5C19.1699 37.6 19.8299 38.5 20.9299 38.5H25.4299L26.4899 34.5H19.9899Z" fill="#F2C94C"/>
<path d="M30.8697 25.5L27.4297 38.5H31.9297C33.0297 38.5 34.1697 37.6 34.4597 36.5L37.3697 25.5H30.8697Z" fill="#F2C94C"/>
<path d="M37.8999 23.5L38.4299 21.5C38.7199 20.4 38.0599 19.5 36.9599 19.5H32.4599L31.3999 23.5H37.8999Z" fill="#F2C94C"/>
<path fill-rule="evenodd" clip-rule="evenodd" d="M5 24.5C5 23.6716 5.67157 23 6.5 23H9.5C10.3284 23 11 23.6716 11 24.5C11 25.3284 10.3284 26 9.5 26H6.5C5.67157 26 5 25.3284 5 24.5Z" fill="#231F20"/>
<path fill-rule="evenodd" clip-rule="evenodd" d="M1 30.5C1 29.6716 1.67157 29 2.5 29H8.5C9.32843 29 10 29.6716 10 30.5C10 31.3284 9.32843 32 8.5 32H2.5C1.67157 32 1 31.3284 1 30.5Z" fill="#231F20"/>
<path fill-rule="evenodd" clip-rule="evenodd" d="M3 36.5C3 35.6716 3.67157 35 4.5 35H7.26C8.08843 35 8.76 35.6716 8.76 36.5C8.76 37.3284 8.08843 38 7.26 38H4.5C3.67157 38 3 37.3284 3 36.5Z" fill="#231F20"/>
</g>
<defs>
<clipPath id="clip0">
<rect width="62.5" height="41.5" fill="white" transform="translate(1 11)"/>
</clipPath>
</defs>
</svg>
