<svg width="64" height="64" viewBox="0 0 64 64" fill="none" xmlns="http://www.w3.org/2000/svg">
<g clip-path="url(#clip0)">
<path d="M53.6 52.5H17.4C13.6 52.5 10.5 49.4 10.5 45.5V25.5C10.5 21.7 13.6 18.5 17.4 18.5H50.7L60.5 28.6V45.6C60.5 49.4 57.4 52.5 53.6 52.5Z" fill="#BEDCE3"/>
<path d="M49.6 46.5H13.4C9.6 46.5 6.5 43.4 6.5 39.5V19.5C6.5 15.7 9.6 12.5 13.4 12.5H46.7L56.5 22.6V39.6C56.5 43.4 53.4 46.5 49.6 46.5Z" fill="white"/>
<path d="M49.6 48H13.4C8.8 48 5 44.2 5 39.5V21.5C5 20.6 5.7 20 6.5 20C7.3 20 8 20.6 8 21.5V39.6C8 42.6 10.4 45.1 13.4 45.1H49.6C52.6 45.1 55 42.6 55 39.6V24.8C55 23.7 54.6 22.7 53.9 22L47.3 15.2C46.5 14.4 45.4 14 44.4 14H15.4C14.6 14 13.9 13.3 13.9 12.5C13.9 11.7 14.6 11 15.4 11H44.4C46.3 11 48.1 11.8 49.5 13.1L56 19.9C57.3 21.2 58 23 58 24.8V39.5C58 44.2 54.2 48 49.6 48Z" fill="#231F20"/>
<path d="M20.6001 32.5V19.5H16.1001C15.0001 19.5 14.1001 20.4 14.1001 21.5V32.5H20.6001Z" fill="#F2C94C"/>
<path d="M14.1001 34.5V36.5C14.1001 37.6 15.0001 38.5 16.1001 38.5H20.6001V34.5H14.1001Z" fill="#F2C94C"/>
<path d="M22.6001 25.5V38.5H27.1001C28.2001 38.5 29.1001 37.6 29.1001 36.5V25.5H22.6001Z" fill="#F2C94C"/>
<path d="M29.1001 23.5V21.5C29.1001 20.4 28.2001 19.5 27.1001 19.5H22.6001V23.5H29.1001Z" fill="#F2C94C"/>
<path d="M48 56C54.6274 56 60 50.6274 60 44C60 37.3726 54.6274 32 48 32C41.3726 32 36 37.3726 36 44C36 50.6274 41.3726 56 48 56Z" fill="#F05023"/>
<path d="M48 57.5C40.6 57.5 34.5 51.4 34.5 44C34.5 36.6 40.6 30.5 48 30.5C55.4 30.5 61.5 36.6 61.5 44C61.5 51.4 55.4 57.5 48 57.5ZM48 33.5C42.2 33.5 37.5 38.2 37.5 44C37.5 49.8 42.2 54.5 48 54.5C53.8 54.5 58.5 49.8 58.5 44C58.5 38.2 53.8 33.5 48 33.5Z" fill="#231F20"/>
<path d="M51.3998 45.7001H44.4998C43.5998 45.7001 42.7998 44.9 42.7998 44C42.7998 43.1 43.5998 42.3 44.4998 42.3H51.3998C52.2998 42.3 53.0998 43.1 53.0998 44C53.0998 44.9 52.3998 45.7001 51.3998 45.7001Z" fill="white"/>
</g>
<defs>
<clipPath id="clip0">
<rect width="56.5" height="46.5" fill="white" transform="translate(5 11)"/>
</clipPath>
</defs>
</svg>
