<svg width="48" height="48" viewBox="0 0 48 48" fill="none" xmlns="http://www.w3.org/2000/svg">
    <path d="M40.0005 46.2222C43.437 46.2222 46.2228 43.4364 46.2228 40C46.2228 36.5636 43.437 33.7778 40.0005 33.7778C36.5641 33.7778 33.7783 36.5636 33.7783 40C33.7783 43.4364 36.5641 46.2222 40.0005 46.2222Z"
          fill="#BEDCE3"/>
    <path d="M41.8304 41.32H14.1693C12.8958 41.32 11.8643 40.2767 11.8643 38.9886V33.7429C11.8643 32.4548 12.8958 31.4114 14.1693 31.4114H41.8304C43.1039 31.4114 44.1354 32.4548 44.1354 33.7429V38.9886C44.1354 40.2767 43.1039 41.32 41.8304 41.32Z"
          fill="#BEDCE3"/>
    <path d="M28 36C35.1797 36 41 30.1797 41 23C41 15.8203 35.1797 10 28 10C20.8203 10 15 15.8203 15 23C15 30.1797 20.8203 36 28 36Z"
          fill="#BEDCE3"/>
    <path d="M24 32C31.1797 32 37 26.1797 37 19C37 11.8203 31.1797 6 24 6C16.8203 6 11 11.8203 11 19C11 26.1797 16.8203 32 24 32Z"
          fill="white"/>
    <path fill-rule="evenodd" clip-rule="evenodd"
          d="M23.15 5.99999C23.15 5.53055 23.5306 5.14999 24 5.14999C31.6492 5.14999 37.85 11.3509 37.85 19C37.85 26.6491 31.6492 32.85 24 32.85C16.3509 32.85 10.15 26.6491 10.15 19C10.15 15.0059 11.8418 11.4056 14.5455 8.87896C14.8885 8.55844 15.4263 8.57664 15.7469 8.91963C16.0674 9.26261 16.0492 9.8005 15.7062 10.121C13.3322 12.3396 11.85 15.496 11.85 19C11.85 25.7103 17.2898 31.15 24 31.15C30.7103 31.15 36.15 25.7103 36.15 19C36.15 12.2897 30.7103 6.84999 24 6.84999C23.5306 6.84999 23.15 6.46944 23.15 5.99999Z"
          fill="#231F20"/>
    <path fill-rule="evenodd" clip-rule="evenodd"
          d="M24 17.85C23.3649 17.85 22.85 18.3649 22.85 19C22.85 19.6351 23.3649 20.15 24 20.15C24.6352 20.15 25.15 19.6351 25.15 19C25.15 18.3649 24.6352 17.85 24 17.85ZM21.15 19C21.15 17.426 22.426 16.15 24 16.15C25.574 16.15 26.85 17.426 26.85 19C26.85 20.574 25.574 21.85 24 21.85C22.426 21.85 21.15 20.574 21.15 19Z"
          fill="#231F20"/>
    <path d="M37.8304 37.32H10.1693C8.89578 37.32 7.86426 36.2767 7.86426 34.9886V29.7429C7.86426 28.4548 8.89578 27.4114 10.1693 27.4114H37.8304C39.1039 27.4114 40.1354 28.4548 40.1354 29.7429V34.9886C40.1354 36.2767 39.1039 37.32 37.8304 37.32Z"
          fill="white"/>
    <path d="M37.8305 38.1943H10.1695C8.42339 38.1943 7 36.7546 7 34.9886V29.7429C7 27.9768 8.42339 26.5371 10.1695 26.5371H37.8305C39.5766 26.5371 41 27.9768 41 29.7429V34.9886C41 36.7546 39.5766 38.1943 37.8305 38.1943ZM10.1695 28.2857C9.37424 28.2857 8.72881 28.9385 8.72881 29.7429V34.9886C8.72881 35.7929 9.37424 36.4457 10.1695 36.4457H37.8305C38.6258 36.4457 39.2712 35.7929 39.2712 34.9886V29.7429C39.2712 28.9385 38.6258 28.2857 37.8305 28.2857H10.1695Z"
          fill="#231F20"/>
    <path d="M18.5772 34.1143C19.5429 34.1143 20.3258 33.3314 20.3258 32.3657C20.3258 31.4 19.5429 30.6172 18.5772 30.6172C17.6115 30.6172 16.8286 31.4 16.8286 32.3657C16.8286 33.3314 17.6115 34.1143 18.5772 34.1143Z"
          fill="#231F20"/>
    <path d="M12.7486 34.1143C13.7143 34.1143 14.4971 33.3314 14.4971 32.3657C14.4971 31.4 13.7143 30.6172 12.7486 30.6172C11.7829 30.6172 11 31.4 11 32.3657C11 33.3314 11.7829 34.1143 12.7486 34.1143Z"
          fill="#231F20"/>
    <path d="M36.0004 42.2222C39.4368 42.2222 42.2226 39.4364 42.2226 36C42.2226 32.5636 39.4368 29.7778 36.0004 29.7778C32.5639 29.7778 29.7781 32.5636 29.7781 36C29.7781 39.4364 32.5639 42.2222 36.0004 42.2222Z"
          fill="#F05023"/>
    <path d="M36 43C32.163 43 29 39.837 29 36C29 32.163 32.163 29 36 29C39.837 29 43 32.163 43 36C43 39.837 39.837 43 36 43ZM36 30.5556C32.9926 30.5556 30.5556 32.9926 30.5556 36C30.5556 39.0074 32.9926 41.4444 36 41.4444C39.0074 41.4444 41.4444 39.0074 41.4444 36C41.4444 32.9926 39.0074 30.5556 36 30.5556Z"
          fill="#231F20"/>
    <path d="M38.1223 36.8H33.8752C33.4517 36.8 33.0752 36.4235 33.0752 36C33.0752 35.5765 33.4517 35.2 33.8752 35.2H38.1223C38.5458 35.2 38.9223 35.5765 38.9223 36C38.9223 36.4235 38.5928 36.8 38.1223 36.8Z"
          fill="white"/>
</svg>
