<svg width="48" height="48" viewBox="0 0 48 48" fill="none" xmlns="http://www.w3.org/2000/svg">
<path d="M41.8304 41.32H14.1693C12.8958 41.32 11.8643 40.2767 11.8643 38.9886V33.7429C11.8643 32.4548 12.8958 31.4114 14.1693 31.4114H41.8304C43.1039 31.4114 44.1354 32.4548 44.1354 33.7429V38.9886C44.1354 40.2767 43.1039 41.32 41.8304 41.32Z" fill="#BEDCE3"/>
<path d="M28 36C35.1797 36 41 30.1797 41 23C41 15.8203 35.1797 10 28 10C20.8203 10 15 15.8203 15 23C15 30.1797 20.8203 36 28 36Z" fill="#BEDCE3"/>
<path d="M24 32C31.1797 32 37 26.1797 37 19C37 11.8203 31.1797 6 24 6C16.8203 6 11 11.8203 11 19C11 26.1797 16.8203 32 24 32Z" fill="white"/>
<path fill-rule="evenodd" clip-rule="evenodd" d="M23.1499 5.99999C23.1499 5.53055 23.5305 5.14999 23.9999 5.14999C31.649 5.14999 37.8499 11.3509 37.8499 19C37.8499 26.6491 31.649 32.85 23.9999 32.85C16.3508 32.85 10.1499 26.6491 10.1499 19C10.1499 15.0059 11.8417 11.4056 14.5453 8.87896C14.8883 8.55844 15.4262 8.57664 15.7467 8.91963C16.0673 9.26261 16.0491 9.8005 15.7061 10.121C13.3321 12.3396 11.8499 15.496 11.8499 19C11.8499 25.7103 17.2896 31.15 23.9999 31.15C30.7102 31.15 36.1499 25.7103 36.1499 19C36.1499 12.2897 30.7102 6.84999 23.9999 6.84999C23.5305 6.84999 23.1499 6.46944 23.1499 5.99999Z" fill="#231F20"/>
<path fill-rule="evenodd" clip-rule="evenodd" d="M23.9999 17.85C23.3648 17.85 22.8499 18.3649 22.8499 19C22.8499 19.6351 23.3648 20.15 23.9999 20.15C24.635 20.15 25.1499 19.6351 25.1499 19C25.1499 18.3649 24.635 17.85 23.9999 17.85ZM21.1499 19C21.1499 17.426 22.4259 16.15 23.9999 16.15C25.5739 16.15 26.8499 17.426 26.8499 19C26.8499 20.574 25.5739 21.85 23.9999 21.85C22.4259 21.85 21.1499 20.574 21.1499 19Z" fill="#231F20"/>
<path d="M37.8304 37.32H10.1693C8.89578 37.32 7.86426 36.2767 7.86426 34.9886V29.7429C7.86426 28.4548 8.89578 27.4114 10.1693 27.4114H37.8304C39.1039 27.4114 40.1354 28.4548 40.1354 29.7429V34.9886C40.1354 36.2767 39.1039 37.32 37.8304 37.32Z" fill="white"/>
<path d="M37.8305 38.1943H10.1695C8.42339 38.1943 7 36.7546 7 34.9886V29.7429C7 27.9768 8.42339 26.5371 10.1695 26.5371H37.8305C39.5766 26.5371 41 27.9768 41 29.7429V34.9886C41 36.7546 39.5766 38.1943 37.8305 38.1943ZM10.1695 28.2857C9.37424 28.2857 8.72881 28.9385 8.72881 29.7429V34.9886C8.72881 35.7929 9.37424 36.4457 10.1695 36.4457H37.8305C38.6258 36.4457 39.2712 35.7929 39.2712 34.9886V29.7429C39.2712 28.9385 38.6258 28.2857 37.8305 28.2857H10.1695Z" fill="#231F20"/>
<path d="M18.5772 34.1143C19.5429 34.1143 20.3258 33.3314 20.3258 32.3657C20.3258 31.4 19.5429 30.6172 18.5772 30.6172C17.6115 30.6172 16.8286 31.4 16.8286 32.3657C16.8286 33.3314 17.6115 34.1143 18.5772 34.1143Z" fill="#231F20"/>
<path d="M12.7486 34.1143C13.7143 34.1143 14.4971 33.3314 14.4971 32.3657C14.4971 31.4 13.7143 30.6172 12.7486 30.6172C11.7829 30.6172 11 31.4 11 32.3657C11 33.3314 11.7829 34.1143 12.7486 34.1143Z" fill="#231F20"/>
</svg>
