<svg width="48" height="48" viewBox="0 0 48 48" fill="none" xmlns="http://www.w3.org/2000/svg">
    <path d="M41.8304 41.32H14.1693C12.8958 41.32 11.8643 40.2767 11.8643 38.9886V33.7429C11.8643 32.4548 12.8958 31.4114 14.1693 31.4114H41.8304C43.1039 31.4114 44.1354 32.4548 44.1354 33.7429V38.9886C44.1354 40.2767 43.1039 41.32 41.8304 41.32Z"
          fill="#BEDCE3"/>
    <path d="M28 36C35.1797 36 41 30.1797 41 23C41 15.8203 35.1797 10 28 10C20.8203 10 15 15.8203 15 23C15 30.1797 20.8203 36 28 36Z"
          fill="#BEDCE3"/>
    <path d="M24 32C31.1797 32 37 26.1797 37 19C37 11.8203 31.1797 6 24 6C16.8203 6 11 11.8203 11 19C11 26.1797 16.8203 32 24 32Z"
          fill="white"/>
    <path fill-rule="evenodd" clip-rule="evenodd"
          d="M23.15 5.99999C23.15 5.53055 23.5306 5.14999 24 5.14999C31.6491 5.14999 37.85 11.3509 37.85 19C37.85 26.6491 31.6491 32.85 24 32.85C16.3509 32.85 10.15 26.6491 10.15 19C10.15 15.0059 11.8418 11.4056 14.5454 8.87896C14.8884 8.55844 15.4263 8.57664 15.7468 8.91963C16.0674 9.26261 16.0492 9.8005 15.7062 10.121C13.3322 12.3396 11.85 15.496 11.85 19C11.85 25.7103 17.2897 31.15 24 31.15C30.7103 31.15 36.15 25.7103 36.15 19C36.15 12.2897 30.7103 6.84999 24 6.84999C23.5306 6.84999 23.15 6.46944 23.15 5.99999Z"
          fill="#231F20"/>
    <path fill-rule="evenodd" clip-rule="evenodd"
          d="M24 17.85C23.3649 17.85 22.85 18.3649 22.85 19C22.85 19.6351 23.3649 20.15 24 20.15C24.6351 20.15 25.15 19.6351 25.15 19C25.15 18.3649 24.6351 17.85 24 17.85ZM21.15 19C21.15 17.426 22.426 16.15 24 16.15C25.574 16.15 26.85 17.426 26.85 19C26.85 20.574 25.574 21.85 24 21.85C22.426 21.85 21.15 20.574 21.15 19Z"
          fill="#231F20"/>
    <path d="M37.8304 37.32H10.1693C8.89578 37.32 7.86426 36.2767 7.86426 34.9886V29.7429C7.86426 28.4548 8.89578 27.4114 10.1693 27.4114H37.8304C39.1039 27.4114 40.1354 28.4548 40.1354 29.7429V34.9886C40.1354 36.2767 39.1039 37.32 37.8304 37.32Z"
          fill="#21C68B"/>
    <path d="M37.8305 38.1943H10.1695C8.42339 38.1943 7 36.7546 7 34.9886V29.7429C7 27.9768 8.42339 26.5371 10.1695 26.5371H37.8305C39.5766 26.5371 41 27.9768 41 29.7429V34.9886C41 36.7546 39.5766 38.1943 37.8305 38.1943ZM10.1695 28.2857C9.37424 28.2857 8.72881 28.9385 8.72881 29.7429V34.9886C8.72881 35.7929 9.37424 36.4457 10.1695 36.4457H37.8305C38.6258 36.4457 39.2712 35.7929 39.2712 34.9886V29.7429C39.2712 28.9385 38.6258 28.2857 37.8305 28.2857H10.1695Z"
          fill="#231F20"/>
    <path d="M18.5772 34.1143C19.5429 34.1143 20.3258 33.3314 20.3258 32.3657C20.3258 31.4 19.5429 30.6172 18.5772 30.6172C17.6115 30.6172 16.8286 31.4 16.8286 32.3657C16.8286 33.3314 17.6115 34.1143 18.5772 34.1143Z"
          fill="white"/>
    <path d="M12.7486 34.1143C13.7143 34.1143 14.4971 33.3314 14.4971 32.3657C14.4971 31.4 13.7143 30.6172 12.7486 30.6172C11.7829 30.6172 11 31.4 11 32.3657C11 33.3314 11.7829 34.1143 12.7486 34.1143Z"
          fill="white"/>
</svg>
