<svg width="48" height="48" viewBox="0 0 48 48" fill="none" xmlns="http://www.w3.org/2000/svg">
    <g clip-path="url(#clip0_2014_224)">
        <path d="M16.425 36.375H8.325C5.175 36.375 2.625 33.975 2.625 30.975V12.525C2.625 9.6 5.175 7.125 8.325 7.125H16.425C19.575 7.125 22.125 9.525 22.125 12.525V31.05C22.125 33.975 19.575 36.375 16.425 36.375Z"
              fill="white"/>
        <path d="M16.425 37.5H8.325C7.725 37.5 7.2 36.975 7.2 36.375C7.2 35.775 7.725 35.25 8.325 35.25H16.425C18.975 35.25 21 33.375 21 30.975V12.525C21 10.2 18.975 8.25 16.425 8.25H8.325C5.775 8.25 3.75 10.125 3.75 12.525V27.3C3.75 27.9 3.225 28.425 2.625 28.425C2.025 28.425 1.5 27.9 1.5 27.225V12.525C1.5 8.925 4.575 6 8.325 6H16.425C20.175 6 23.25 8.925 23.25 12.525V31.05C23.25 34.575 20.175 37.5 16.425 37.5Z"
              fill="#231F20"/>
        <path d="M17.25 6.75H7.5V3.375C7.5 2.75625 7.86562 2.25 8.3125 2.25H17.25V6.75Z" fill="white"/>
        <path d="M18.75 8.25H6V4.125C6 2.7 7.2 1.5 8.625 1.5H18.75V8.25ZM8.25 6H16.5V3.75H8.625C8.4 3.75 8.25 3.9 8.25 4.125V6Z"
              fill="#231F20"/>
        <path d="M18 5.25H21.75V4.5C21.75 3.675 20.7857 3 19.6071 3H18V5.25Z" fill="white"/>
        <path d="M22.5 6H16.5L16.5 1.5H19.875C21.375 1.5 22.5 2.625 22.5 4.125V6ZM18.75 4.5H19.5C19.5 4.5 20.25 4.5 21 4.5C21 4.02307 21 4.875 21 4.125C21 3.375 20.625 3 19.875 3H18.75V4.5Z"
              fill="#231F20"/>
        <path d="M11.25 27.75H5.25V30.75C5.25 32.4069 6.59315 33.75 8.25 33.75H11.25V27.75Z" fill="#BEDCE3"/>
        <path d="M19.5 20.25H13.5V26.25H19.5V20.25Z" fill="#BEDCE3"/>
        <path d="M11.25 20.25H5.25V26.25H11.25V20.25Z" fill="#BEDCE3"/>
        <path d="M19.5 18.75H5.25V12.75C5.25 11.1 6.6 9.75 8.25 9.75H16.5C18.15 9.75 19.5 11.1 19.5 12.75V18.75Z"
              fill="#F05023"/>
    </g>
    <g clip-path="url(#clip1_2014_224)">
        <path d="M39.7534 45.375H31.7465C28.6328 45.375 26.1121 42.975 26.1121 39.975V21.525C26.1121 18.6 28.6328 16.125 31.7465 16.125H39.7534C42.8672 16.125 45.3879 18.525 45.3879 21.525V40.05C45.3879 42.975 42.8672 45.375 39.7534 45.375Z"
              fill="white"/>
        <path d="M39.7534 46.5H31.7466C31.1534 46.5 30.6345 45.975 30.6345 45.375C30.6345 44.775 31.1534 44.25 31.7466 44.25H39.7534C42.2741 44.25 44.2759 42.375 44.2759 39.975V21.525C44.2759 19.2 42.2741 17.25 39.7534 17.25H31.7466C29.2259 17.25 27.2241 19.125 27.2241 21.525V36.3C27.2241 36.9 26.7052 37.425 26.1121 37.425C25.519 37.425 25 36.9 25 36.225V21.525C25 17.925 28.0397 15 31.7466 15H39.7534C43.4603 15 46.5 17.925 46.5 21.525V40.05C46.5 43.575 43.4603 46.5 39.7534 46.5Z"
              fill="#727272"/>
        <path d="M40.5 15.75H30.75V12.375C30.75 11.7562 31.1156 11.25 31.5625 11.25H40.5V15.75Z" fill="white"/>
        <path d="M42 17.25H29.25V13.125C29.25 11.7 30.45 10.5 31.875 10.5H42V17.25ZM31.5 15H39.75V12.75H31.875C31.65 12.75 31.5 12.9 31.5 13.125V15Z"
              fill="#727272"/>
        <path d="M41.25 14.25H45V13.5C45 12.675 44.0357 12 42.8571 12H41.25V14.25Z" fill="white"/>
        <path d="M45.75 15H39.75L39.75 10.5H43.125C44.625 10.5 45.75 11.625 45.75 13.125V15ZM42 13.5H42.75C42.75 13.5 43.5 13.5 44.25 13.5C44.25 13.0231 44.25 13.875 44.25 13.125C44.25 12.375 43.875 12 43.125 12H42V13.5Z"
              fill="#727272"/>
        <path d="M35 29H29V35H35V29Z" fill="#C6C6C6"/>
        <path d="M43 29H37V35H43V29Z" fill="#C6C6C6"/>
        <path d="M35 37H29V40C29 41.6569 30.3431 43 32 43H35V37Z" fill="#C6C6C6"/>
        <path d="M43 37H37V43H40C41.6569 43 43 41.6569 43 40V37Z" fill="#C6C6C6"/>
        <path d="M43 27H29V21.6667C29 20.2 30.3263 19 31.9474 19H40.0526C41.6737 19 43 20.2 43 21.6667V27Z"
              fill="#C6C6C6"/>
    </g>
    <defs>
        <clipPath id="clip0_2014_224">
            <rect width="21.75" height="36" fill="white" transform="translate(1.5 1.5)"/>
        </clipPath>
        <clipPath id="clip1_2014_224">
            <rect width="21.75" height="36" fill="white" transform="translate(24.75 10.5)"/>
        </clipPath>
    </defs>
</svg>
