<svg width="48" height="48" viewBox="0 0 48 48" fill="none" xmlns="http://www.w3.org/2000/svg">
    <path d="M13.652 26.6775L7.32435 32.883C6.89188 33.3279 6.89188 34.0174 7.32435 34.4622L13.652 40.6677C14.3576 41.3795 15.5867 40.8679 15.5867 39.8892V35.8857H29.2661C30.518 35.8857 31.5423 34.8848 31.5423 33.6615C31.5423 32.4382 30.518 31.4373 29.2661 31.4373H15.5867V27.456C15.5867 26.4551 14.3576 25.9657 13.652 26.6775ZM46.6784 19.5378L40.3508 13.3323C39.6452 12.6205 38.4161 13.1321 38.4161 14.1108V18.0921H24.7139C23.462 18.0921 22.4378 19.093 22.4378 20.3163C22.4378 21.5396 23.462 22.5405 24.7139 22.5405H38.3934V26.5218C38.3934 27.5227 39.6225 28.012 40.3281 27.3003L46.6557 21.0947C47.1109 20.6721 47.1109 19.9604 46.6784 19.5378Z"
          fill="#BEDCE3"/>
    <path d="M9.81826 23.166L3.33246 29.5931C2.88918 30.0538 2.88918 30.768 3.33246 31.2287L9.81826 37.6558C10.5415 38.393 11.8013 37.8632 11.8013 36.8496V32.703H25.8228C27.106 32.703 28.1558 31.6664 28.1558 30.3994C28.1558 29.1324 27.106 28.0958 25.8228 28.0958H11.8013V23.9722C11.8013 22.9356 10.5415 22.4288 9.81826 23.166ZM43.6704 15.7713L37.1846 9.34415C36.4614 8.60699 35.2015 9.13682 35.2015 10.1504V14.2739H21.1567C19.8736 14.2739 18.8237 15.3106 18.8237 16.5776C18.8237 17.8446 19.8736 18.8812 21.1567 18.8812H35.1782V23.0047C35.1782 24.0414 36.438 24.5482 37.1613 23.811L43.6471 17.3838C44.1137 16.9462 44.1137 16.209 43.6704 15.7713Z"
          fill="white"/>
    <path fill-rule="evenodd" clip-rule="evenodd"
          d="M38.0552 8.62246C36.7283 7.29341 34.4161 8.23006 34.4161 10.1108V13.0921H25C24.4477 13.0921 24 13.5398 24 14.0921C24 14.6444 24.4477 15.0921 25 15.0921H36.4161V10.1108C36.4161 10.0834 36.4225 10.0719 36.4293 10.0624C36.4398 10.048 36.4617 10.0278 36.4965 10.0136C36.531 9.99952 36.5617 9.99818 36.5816 10.0016C36.5954 10.004 36.6141 10.0095 36.6407 10.0363L42.9783 16.2518L42.9795 16.253C42.9914 16.2646 43.0002 16.2821 43 16.3062C42.9998 16.3286 42.9921 16.3463 42.9753 16.3619L42.9653 16.3712L36.6279 22.5863L36.6179 22.5962C36.589 22.6254 36.5672 22.6325 36.5511 22.6354C36.5295 22.6393 36.4997 22.6377 36.4681 22.625C36.4365 22.6124 36.4173 22.5945 36.4082 22.5818C36.4026 22.5741 36.3934 22.5595 36.3934 22.5218V17.5405H21.7139C20.9924 17.5405 20.4378 16.9657 20.4378 16.3163C20.4378 15.764 19.9901 15.3163 19.4378 15.3163C18.8855 15.3163 18.4378 15.764 18.4378 16.3163C18.4378 18.1135 19.9316 19.5405 21.7139 19.5405H34.3934V22.5218C34.3934 24.4458 36.7205 25.3243 38.0326 24.0099L44.3475 17.8169C45.2135 17.001 45.211 15.6386 44.3786 14.8238M44.3773 14.8226L38.0552 8.62246L44.3773 14.8226ZM12.5867 22.456C13.1389 22.456 13.5867 22.9037 13.5867 23.456V26.4373H26.2661C28.0484 26.4373 29.5423 27.8643 29.5423 29.6615C29.5423 31.4587 28.0484 32.8857 26.2661 32.8857H13.5867V35.8892C13.5867 37.77 11.2744 38.7066 9.94745 37.3774L3.61565 31.1678L3.60734 31.1593C2.79755 30.3263 2.79756 29.0189 3.60733 28.186L3.61565 28.1774L7.79981 24.074C8.19412 23.6873 8.82726 23.6934 9.21396 24.0877C9.60066 24.482 9.5945 25.1152 9.20019 25.5019L5.03666 29.5851C5.00827 29.6164 5 29.647 5 29.6726C5 29.6982 5.00827 29.7288 5.03666 29.7601L11.3622 35.9636C11.3888 35.9904 11.4074 35.996 11.4212 35.9984C11.4411 36.0018 11.4718 36.0005 11.5063 35.9864C11.5411 35.9722 11.563 35.952 11.5735 35.9376C11.5803 35.9281 11.5867 35.9166 11.5867 35.8892V30.8857H26.2661C26.9876 30.8857 27.5423 30.3109 27.5423 29.6615C27.5423 29.0121 26.9876 28.4373 26.2661 28.4373H11.5867V23.456C11.5867 22.9037 12.0344 22.456 12.5867 22.456Z"
          fill="#231F20"/>
</svg>
