<svg width="48" height="48" viewBox="0 0 48 48" fill="none" xmlns="http://www.w3.org/2000/svg">
<path d="M29.2644 21.0575V15.6322C29.2644 14.3448 28.3103 13.2414 27.0345 13.069C25.4713 12.8506 23.046 12.6322 19.6322 12.6322C16.2184 12.6322 13.7931 12.8506 12.2299 13.069C10.954 13.2414 10 14.3448 10 15.6322V42.1954C10 43.4597 10.908 44.5402 12.1494 44.7471C13.6782 45.0115 16.1034 45.2643 19.6322 45.2643C23.1609 45.2643 25.5747 45 27.1149 44.7471C28.3563 44.5402 29.2644 43.4597 29.2644 42.1954V21.0575Z" fill="#BEDCE3"/>
<path d="M44.9883 12.4598V22.5402C44.9883 23.8046 43.9653 24.8276 42.701 24.8276H23.3792C22.1148 24.8276 21.0918 23.8046 21.0918 22.5402V11.2874C21.0918 10.023 22.1148 9 23.3792 9H42.701C43.9653 9 44.9883 10.023 44.9883 11.2874V12.4598Z" fill="#BEDCE3"/>
<path d="M41.9883 9.45977V19.5402C41.9883 20.8046 40.9653 21.8276 39.701 21.8276H20.3792C19.1148 21.8276 18.0918 20.8046 18.0918 19.5402V8.28735C18.0918 7.02299 19.1148 6 20.3792 6H39.701C40.9653 6 41.9883 7.02299 41.9883 8.28735V9.45977Z" fill="white"/>
<path d="M41.9995 12.7931V9.45981L18.5627 9.45981V12.7931L41.9995 12.7931Z" fill="#BEDCE3"/>
<path fill-rule="evenodd" clip-rule="evenodd" d="M20.3792 7C19.6671 7 19.0918 7.57527 19.0918 8.28735V19.5402C19.0918 20.2523 19.6671 20.8276 20.3792 20.8276H39.701C40.4131 20.8276 40.9883 20.2523 40.9883 19.5402V9.45977C40.9883 8.90748 41.436 8.45977 41.9883 8.45977C42.5406 8.45977 42.9883 8.90748 42.9883 9.45977V19.5402C42.9883 21.3569 41.5176 22.8276 39.701 22.8276H20.3792C18.5625 22.8276 17.0918 21.3569 17.0918 19.5402V8.28735C17.0918 6.4707 18.5625 5 20.3792 5H38.3217C38.8739 5 39.3217 5.44772 39.3217 6C39.3217 6.55228 38.8739 7 38.3217 7H20.3792Z" fill="#231F20"/>
<path fill-rule="evenodd" clip-rule="evenodd" d="M35.8847 18.7114C35.6177 18.8657 35.3078 18.954 34.9772 18.954C33.9742 18.954 33.1611 18.1409 33.1611 17.1379C33.1611 16.1349 33.9742 15.3218 34.9772 15.3218C35.3078 15.3218 35.6177 15.4101 35.8847 15.5644C36.1517 15.4101 36.4616 15.3218 36.7922 15.3218C37.7952 15.3218 38.6083 16.1349 38.6083 17.1379C38.6083 18.1409 37.7952 18.954 36.7922 18.954C36.4616 18.954 36.1517 18.8657 35.8847 18.7114Z" fill="#F2C94C"/>
<path d="M25.2644 17.0575V11.6322C25.2644 10.3448 24.3103 9.24137 23.0345 9.06895C21.4713 8.85056 19.046 8.63217 15.6322 8.63217C12.2184 8.63217 9.7931 8.85056 8.22988 9.06895C6.95402 9.24137 6 10.3448 6 11.6322V38.1954C6 39.4597 6.90805 40.5402 8.14942 40.7471C9.67816 41.0115 12.1034 41.2643 15.6322 41.2643C19.1609 41.2643 21.5747 41 23.1149 40.7471C24.3563 40.5402 25.2644 39.4597 25.2644 38.1954V17.0575Z" fill="white"/>
<path fill-rule="evenodd" clip-rule="evenodd" d="M15.6322 9.64386C12.2608 9.64386 9.88194 9.85955 8.36824 10.071L8.3638 10.0716L8.3638 10.0716C7.58955 10.1763 7 10.8514 7 11.6439V38.2071C7 38.9877 7.55954 39.6462 8.31287 39.7722C9.79631 40.0157 12.1554 40.276 15.6322 40.276C19.1151 40.276 21.4822 40.0263 22.9445 39.7734L22.9505 39.7724C23.7043 39.6468 24.2644 38.9881 24.2644 38.2071V11.6439C24.2644 10.8514 23.6748 10.1763 22.9006 10.0716L22.8961 10.071C21.3824 9.85955 19.0035 9.64386 15.6322 9.64386ZM8.09358 8.08997C9.70636 7.86476 12.1774 7.64386 15.6322 7.64386C19.0869 7.64386 21.558 7.86476 23.1708 8.08997C24.947 8.33122 26.2644 9.86243 26.2644 11.6439V38.2071C26.2644 39.9536 25.0099 41.455 23.2827 41.7446C21.6875 42.0203 19.2048 42.276 15.6322 42.276C12.0526 42.276 9.58451 42.0078 7.98741 41.7456L7.98502 41.7452C6.25608 41.457 5 39.9548 5 38.2071V11.6439C5 9.86243 6.31731 8.33122 8.09358 8.08997Z" fill="#231F20"/>
<path d="M18.116 36.7816H12.8401C12.3513 36.7816 11.9551 37.1752 11.9551 37.6609C11.9551 38.1465 12.3513 38.5402 12.8401 38.5402H18.116C18.6048 38.5402 19.001 38.1465 19.001 37.6609C19.001 37.1752 18.6048 36.7816 18.116 36.7816Z" fill="#231F20"/>
<path d="M22.3482 30.1591H8.8999V33.7453H22.3482V30.1591Z" fill="#21C68B"/>
<path d="M12.4861 25.32H8.8999V28.9062H12.4861V25.32Z" fill="#BEDCE3"/>
<path d="M17.4168 25.32H13.8306V28.9062H17.4168V25.32Z" fill="#BEDCE3"/>
<path d="M22.3494 25.32H18.7632V28.9062H22.3494V25.32Z" fill="#BEDCE3"/>
<path d="M15.6299 12.4196C16.0441 12.4196 16.3799 12.0838 16.3799 11.6696C16.3799 11.2553 16.0441 10.9196 15.6299 10.9196C15.2157 10.9196 14.8799 11.2553 14.8799 11.6696C14.8799 12.0838 15.2157 12.4196 15.6299 12.4196Z" fill="#231F20"/>
</svg>
