<svg width="48" height="48" viewBox="0 0 48 48" fill="none" xmlns="http://www.w3.org/2000/svg">
    <path fill-rule="evenodd" clip-rule="evenodd"
          d="M18 12C18 10.8954 18.8954 10 20 10H34H34.8C36.5673 10 38 11.4327 38 13.2C38 13.6418 37.6418 14 37.2 14H34V16C36.2091 16 38 17.7909 38 20V42C38 44.2091 36.2091 46 34 46H18C15.7909 46 14 44.2091 14 42V20C14 17.7909 15.7909 16 18 16V12Z"
          fill="#BEDCE3"/>
    <path d="M10 16C10 13.7909 11.7909 12 14 12H30C32.2091 12 34 13.7909 34 16V38C34 40.2091 32.2091 42 30 42H14C11.7909 42 10 40.2091 10 38V16Z"
          fill="white"/>
    <path d="M13 34.26H17.7368V39H15C13.8954 39 13 38.1045 13 37V34.26Z" fill="#BEDCE3"/>
    <path d="M26.2632 34.26H31V37C31 38.1045 30.1046 39 29 39H26.2632V34.26Z" fill="#BEDCE3"/>
    <path d="M19.6313 34.26H24.3682V39H19.6313V34.26Z" fill="#BEDCE3"/>
    <path d="M13 17C13 15.8954 13.8954 15 15 15H29C30.1046 15 31 15.8954 31 17V32.26H13V17Z" fill="#91B1B8"/>
    <path d="M14 8C14 6.89543 14.8954 6 16 6H30V12H14V8Z" fill="white"/>
    <path d="M30 6C32.2091 6 34 7.79086 34 10H30V6Z" fill="white"/>
    <path fill-rule="evenodd" clip-rule="evenodd"
          d="M33 9C33 7.5 32.2095 7 31 7V5C33.4853 5 35.05 6.5 35.05 9V10C35.05 10.5523 34.6023 11 34.05 11H30C29.4477 11 29 10.5523 29 10C29 9.44772 29.4477 9 30 9H33Z"
          fill="#231F20"/>
    <path fill-rule="evenodd" clip-rule="evenodd"
          d="M13 8C13 6.34315 14.3431 5 16 5H31V13H13V8ZM16 7C15.4477 7 15 7.44772 15 8V11H29V7H16Z" fill="#231F20"/>
    <path fill-rule="evenodd" clip-rule="evenodd"
          d="M9 16C9 13.2386 11.2386 11 14 11H30C32.7614 11 35 13.2386 35 16V38C35 40.7614 32.7614 43 30 43H14C13.4477 43 13 42.5523 13 42C13 41.4477 13.4477 41 14 41H30C31.6569 41 33 39.6569 33 38V16C33 14.3431 31.6569 13 30 13H14C12.3431 13 11 14.3431 11 16V34C11 34.5523 10.5523 35 10 35C9.44772 35 9 34.5523 9 34V16Z"
          fill="#231F20"/>
    <path d="M29.3259 5.33166C31.9527 2.72846 35.9329 2.30503 39 4.06138C39.5958 4.40255 40.1571 4.82598 40.6674 5.33166C41.1737 5.84218 41.5977 6.40384 41.9391 7C43.6951 10.0655 43.2712 14.0432 40.6674 16.6683C37.5304 19.7772 32.4897 19.7772 29.3527 16.6683C26.2158 13.5595 26.2158 8.46734 29.3527 5.33166H29.3259Z"
          fill="#21C68B"/>
    <path fill-rule="evenodd" clip-rule="evenodd"
          d="M30.3902 5.70851C32.3035 4.05713 34.8987 3.60133 37.1905 4.3473C37.7156 4.51824 38.28 4.23109 38.4509 3.70593C38.6218 3.18076 38.3347 2.61646 37.8095 2.44551C34.6867 1.42903 31.1139 2.15183 28.622 4.62137L26.8963 6.33165H27.3044C25.197 9.80616 25.6418 14.3985 28.6488 17.3786C32.1756 20.8738 37.8445 20.8738 41.3713 17.3786L41.3713 17.3786L41.3774 17.3725C43.8473 14.8823 44.5709 11.3119 43.5551 8.19052C43.3842 7.66535 42.8199 7.37817 42.2947 7.54908C41.7695 7.72 41.4823 8.28429 41.6533 8.80946C42.446 11.2453 41.8794 14.0241 39.9604 15.9611C37.213 18.6806 32.8028 18.6796 30.0567 15.9581C27.3161 13.2421 27.3117 8.78571 30.0597 6.03891L30.3902 5.70851Z"
          fill="#231F20"/>
    <path d="M31.2857 12.2857C30.5756 12.2857 30 11.7101 30 11C30 10.2899 30.5756 9.71428 31.2857 9.71428L38.7143 9.71428C39.4244 9.71428 40 10.2899 40 11C40 11.7101 39.4244 12.2857 38.7143 12.2857L31.2857 12.2857Z"
          fill="white"/>
    <path d="M36.2857 14.7143C36.2857 15.4244 35.7101 16 35 16C34.2899 16 33.7143 15.4244 33.7143 14.7143L33.7143 7.28571C33.7143 6.57563 34.2899 6 35 6C35.7101 6 36.2857 6.57563 36.2857 7.28571L36.2857 14.7143Z"
          fill="white"/>
</svg>
