<svg width="48" height="48" viewBox="0 0 48 48" fill="none" xmlns="http://www.w3.org/2000/svg">
<path fill-rule="evenodd" clip-rule="evenodd" d="M16 10C14.8954 10 14 10.8954 14 12V16C11.7909 16 10 17.7909 10 20V42C10 44.2091 11.7909 46 14 46H30C32.2091 46 34 44.2091 34 42V20C34 17.7909 32.2091 16 30 16V14H33.2C33.6418 14 34 13.6418 34 13.2C34 11.4327 32.5673 10 30.8 10H30H16ZM40.1248 15H43.8752C45.0487 15 46 15.9045 46 17.0202V43.9798C46 45.0955 45.0487 46 43.8752 46H40.1248C38.9513 46 38 45.0955 38 43.9798V17.0202C38 15.9045 38.9513 15 40.1248 15Z" fill="#BEDCE3"/>
<path d="M40 11.31H36.47C35.3654 11.31 34.47 12.2054 34.47 13.31V40C34.47 41.1046 35.3654 42 36.47 42H40C41.1045 42 42 41.1046 42 40V13.31C42 12.2054 41.1045 11.31 40 11.31Z" fill="white"/>
<path fill-rule="evenodd" clip-rule="evenodd" d="M36.47 12.31C35.9177 12.31 35.47 12.7577 35.47 13.31V17H37.24C37.7923 17 38.24 17.4477 38.24 18C38.24 18.5523 37.7923 19 37.24 19H35.47V23H38.24C38.7923 23 39.24 23.4477 39.24 24C39.24 24.5523 38.7923 25 38.24 25H35.47V29H37.24C37.7923 29 38.24 29.4477 38.24 30C38.24 30.5523 37.7923 31 37.24 31H35.47V35H38.24C38.7923 35 39.24 35.4477 39.24 36C39.24 36.5523 38.7923 37 38.24 37H35.47V40C35.47 40.5523 35.9177 41 36.47 41H40C40.5523 41 41 40.5523 41 40V13.31C41 12.7577 40.5523 12.31 40 12.31H36.47ZM33.47 36V30V24V18V13.31C33.47 11.6531 34.8131 10.31 36.47 10.31H40C41.6568 10.31 43 11.6531 43 13.31V40C43 41.6569 41.6568 43 40 43H36.47C34.8131 43 33.47 41.6569 33.47 40V36Z" fill="#231F20"/>
<path d="M6 16C6 13.7909 7.79086 12 10 12H26C28.2091 12 30 13.7909 30 16V38C30 40.2091 28.2091 42 26 42H10C7.79086 42 6 40.2091 6 38V16Z" fill="white"/>
<path fill-rule="evenodd" clip-rule="evenodd" d="M13.7368 23.13H9V27.87H13.7368V23.13ZM20.3682 23.13H15.6313V27.87H20.3682V23.13ZM22.26 23.13H26.9968V27.87H22.26V23.13ZM9 29.76H13.7368V34.5H9V29.76ZM15.6313 29.76H20.3682V34.5H15.6313V29.76Z" fill="#BEDCE3"/>
<path d="M9 17.3726C9 16.0623 9.89543 15 11 15H25C26.1046 15 27 16.0623 27 17.3726V21.24H9V17.3726Z" fill="#21C68B"/>
<path d="M10 8C10 6.89543 10.8954 6 12 6H26V12H10V8Z" fill="white"/>
<path d="M26 6C28.2091 6 30 7.79086 30 10H26V6Z" fill="white"/>
<path fill-rule="evenodd" clip-rule="evenodd" d="M29 9C29 7.5 28.2095 7 27 7V5C29.4853 5 31.05 6.5 31.05 9V10C31.05 10.5523 30.6023 11 30.05 11H26C25.4477 11 25 10.5523 25 10C25 9.44772 25.4477 9 26 9H29Z" fill="#231F20"/>
<path fill-rule="evenodd" clip-rule="evenodd" d="M9 8C9 6.34315 10.3431 5 12 5H27V13H9V8ZM12 7C11.4477 7 11 7.44772 11 8V11H25V7H12Z" fill="#231F20"/>
<path fill-rule="evenodd" clip-rule="evenodd" d="M5 16C5 13.2386 7.23858 11 10 11H26C28.7614 11 31 13.2386 31 16V38C31 40.7614 28.7614 43 26 43H10C9.44772 43 9 42.5523 9 42C9 41.4477 9.44772 41 10 41H26C27.6569 41 29 39.6569 29 38V16C29 14.3431 27.6569 13 26 13H10C8.34315 13 7 14.3431 7 16V34C7 34.5523 6.55228 35 6 35C5.44772 35 5 34.5523 5 34V16Z" fill="#231F20"/>
</svg>
