<svg width="48" height="48" viewBox="0 0 48 48" fill="none" xmlns="http://www.w3.org/2000/svg">
<path fill-rule="evenodd" clip-rule="evenodd" d="M20 12C20 10.8954 20.8954 10 22 10H36H36.8C38.5673 10 40 11.4327 40 13.2C40 13.6418 39.6418 14 39.2 14H36V16C38.2091 16 40 17.7909 40 20V42C40 44.2091 38.2091 46 36 46H20C17.7909 46 16 44.2091 16 42V20C16 17.7909 17.7909 16 20 16V12Z" fill="#BEDCE3"/>
<path d="M12 16C12 13.7909 13.7909 12 16 12H32C34.2091 12 36 13.7909 36 16V38C36 40.2091 34.2091 42 32 42H16C13.7909 42 12 40.2091 12 38V16Z" fill="white"/>
<path d="M15 34.26H19.7368V39H17C15.8954 39 15 38.1046 15 37V34.26Z" fill="#BEDCE3"/>
<path d="M28.2632 34.26H33V37C33 38.1046 32.1046 39 31 39H28.2632V34.26Z" fill="#BEDCE3"/>
<path d="M21.6313 34.26H26.3682V39H21.6313V34.26Z" fill="#BEDCE3"/>
<path d="M15 17C15 15.8954 15.8954 15 17 15H31C32.1046 15 33 15.8954 33 17V32.26H15V17Z" fill="#21C68B"/>
<path d="M16 8C16 6.89543 16.8954 6 18 6H32V12H16V8Z" fill="white"/>
<path d="M32 6C34.2091 6 36 7.79086 36 10H32V6Z" fill="white"/>
<path fill-rule="evenodd" clip-rule="evenodd" d="M35 9C35 7.5 34.2095 7 33 7V5C35.4853 5 37.05 6.5 37.05 9V10C37.05 10.5523 36.6023 11 36.05 11H32C31.4477 11 31 10.5523 31 10C31 9.44772 31.4477 9 32 9H35Z" fill="#231F20"/>
<path fill-rule="evenodd" clip-rule="evenodd" d="M15 8C15 6.34315 16.3431 5 18 5H33V13H15V8ZM18 7C17.4477 7 17 7.44772 17 8V11H31V7H18Z" fill="#231F20"/>
<path fill-rule="evenodd" clip-rule="evenodd" d="M11 16C11 13.2386 13.2386 11 16 11H32C34.7614 11 37 13.2386 37 16V38C37 40.7614 34.7614 43 32 43H16C15.4477 43 15 42.5523 15 42C15 41.4477 15.4477 41 16 41H32C33.6569 41 35 39.6569 35 38V16C35 14.3431 33.6569 13 32 13H16C14.3431 13 13 14.3431 13 16V34C13 34.5523 12.5523 35 12 35C11.4477 35 11 34.5523 11 34V16Z" fill="#231F20"/>
<path d="M25.2559 27.875V19.307H27.9919C29.0959 19.307 29.8999 19.531 30.4039 19.979C30.9159 20.427 31.1719 21.043 31.1719 21.827C31.1719 22.291 31.0679 22.727 30.8599 23.135C30.6519 23.543 30.3039 23.871 29.8159 24.119C29.3359 24.367 28.6799 24.491 27.8479 24.491H27.0679V27.875H25.2559ZM24.2959 26.591V25.427H28.9159V26.591H24.2959ZM24.2959 24.491V23.003H26.0539H27.8119V24.491H24.2959ZM27.6679 23.003C28.0119 23.003 28.3079 22.967 28.5559 22.895C28.8039 22.815 28.9959 22.691 29.1319 22.523C29.2679 22.355 29.3359 22.143 29.3359 21.887C29.3359 21.519 29.2199 21.247 28.9879 21.071C28.7559 20.887 28.3919 20.795 27.8959 20.795H27.0679V23.003H27.6679Z" fill="white"/>
<path d="M20.14 19.25C21.0767 19.25 21.8089 19.5469 22.3367 20.1406C22.9656 20.8438 23.28 22.0098 23.28 23.6387C23.28 25.2637 22.9634 26.4316 22.3301 27.1426C21.8068 27.7285 21.0767 28.0215 20.14 28.0215C19.1989 28.0215 18.4403 27.7012 17.8642 27.0605C17.2881 26.416 17 25.2695 17 23.6211C17 22.0039 17.3166 20.8398 17.9499 20.1289C18.4732 19.543 19.2033 19.25 20.14 19.25ZM20.14 20.6152C19.9157 20.6152 19.7156 20.6797 19.5397 20.8086C19.3638 20.9336 19.2275 21.1602 19.1307 21.4883C19.0032 21.9141 18.9394 22.6309 18.9394 23.6387C18.9394 24.6465 18.9966 25.3398 19.1109 25.7188C19.2253 26.0938 19.3682 26.3438 19.5397 26.4688C19.7156 26.5938 19.9157 26.6562 20.14 26.6562C20.3643 26.6562 20.5644 26.5938 20.7403 26.4688C20.9162 26.3398 21.0525 26.1113 21.1493 25.7832C21.2768 25.3613 21.3406 24.6465 21.3406 23.6387C21.3406 22.6309 21.2834 21.9395 21.1691 21.5645C21.0547 21.1855 20.9096 20.9336 20.7337 20.8086C20.5622 20.6797 20.3643 20.6152 20.14 20.6152Z" fill="white"/>
</svg>
