<svg width="48" height="48" viewBox="0 0 48 48" fill="none" xmlns="http://www.w3.org/2000/svg">
<path fill-rule="evenodd" clip-rule="evenodd" d="M20 12C20 10.8954 20.8954 10 22 10H36H36.8C38.5673 10 40 11.4327 40 13.2C40 13.6418 39.6418 14 39.2 14H36V16C38.2091 16 40 17.7909 40 20V42C40 44.2091 38.2091 46 36 46H20C17.7909 46 16 44.2091 16 42V20C16 17.7909 17.7909 16 20 16V12Z" fill="#BEDCE3"/>
<path d="M12 16C12 13.7909 13.7909 12 16 12H32C34.2091 12 36 13.7909 36 16V38C36 40.2091 34.2091 42 32 42H16C13.7909 42 12 40.2091 12 38V16Z" fill="white"/>
<path d="M15 34.26H19.7368V39H17C15.8954 39 15 38.1046 15 37V34.26Z" fill="#BEDCE3"/>
<path d="M28.2632 34.26H33V37C33 38.1046 32.1046 39 31 39H28.2632V34.26Z" fill="#BEDCE3"/>
<path d="M21.6313 34.26H26.3682V39H21.6313V34.26Z" fill="#BEDCE3"/>
<path d="M15 17C15 15.8954 15.8954 15 17 15H31C32.1046 15 33 15.8954 33 17V32.26H15V17Z" fill="#91B1B8"/>
<path d="M16 8C16 6.89543 16.8954 6 18 6H32V12H16V8Z" fill="white"/>
<path d="M32 6C34.2091 6 36 7.79086 36 10H32V6Z" fill="white"/>
<path fill-rule="evenodd" clip-rule="evenodd" d="M35 9C35 7.5 34.2095 7 33 7V5C35.4853 5 37.05 6.5 37.05 9V10C37.05 10.5523 36.6023 11 36.05 11H32C31.4477 11 31 10.5523 31 10C31 9.44772 31.4477 9 32 9H35Z" fill="#231F20"/>
<path fill-rule="evenodd" clip-rule="evenodd" d="M15 8C15 6.34315 16.3431 5 18 5H33V13H15V8ZM18 7C17.4477 7 17 7.44772 17 8V11H31V7H18Z" fill="#231F20"/>
<path fill-rule="evenodd" clip-rule="evenodd" d="M11 16C11 13.2386 13.2386 11 16 11H32C34.7614 11 37 13.2386 37 16V38C37 40.7614 34.7614 43 32 43H16C15.4477 43 15 42.5523 15 42C15 41.4477 15.4477 41 16 41H32C33.6569 41 35 39.6569 35 38V16C35 14.3431 33.6569 13 32 13H16C14.3431 13 13 14.3431 13 16V34C13 34.5523 12.5523 35 12 35C11.4477 35 11 34.5523 11 34V16Z" fill="#231F20"/>
</svg>
