<svg width="48" height="48" viewBox="0 0 48 48" fill="none" xmlns="http://www.w3.org/2000/svg">
    <circle cx="24" cy="24" r="22" fill="#F2C94C"/>
    <path d="M16.6875 11.0625C16.6875 9.26757 18.1426 7.8125 19.9375 7.8125H28.0625C29.8574 7.8125 31.3125 9.26757 31.3125 11.0625V37.875C31.3125 39.6699 29.8574 41.125 28.0625 41.125H19.9375C18.1426 41.125 16.6875 39.6699 16.6875 37.875V11.0625Z"
          fill="white"/>
    <path d="M27.6562 14.3125C27.6562 16.3318 26.0193 17.9688 24 17.9688C21.9807 17.9688 20.3438 16.3318 20.3438 14.3125C20.3438 12.2932 21.9807 10.6562 24 10.6562C26.0193 10.6562 27.6562 12.2932 27.6562 14.3125Z"
          fill="#BEDCE3"/>
    <path d="M27.6562 24.4688C27.6562 26.488 26.0193 28.125 24 28.125C21.9807 28.125 20.3438 26.488 20.3438 24.4688C20.3438 22.4495 21.9807 20.8125 24 20.8125C26.0193 20.8125 27.6562 22.4495 27.6562 24.4688Z"
          fill="#F2C94C"/>
    <path d="M27.6562 34.625C27.6562 36.6443 26.0193 38.2812 24 38.2812C21.9807 38.2812 20.3438 36.6443 20.3438 34.625C20.3438 32.6057 21.9807 30.9688 24 30.9688C26.0193 30.9688 27.6562 32.6057 27.6562 34.625Z"
          fill="#BEDCE3"/>
    <path fill-rule="evenodd" clip-rule="evenodd"
          d="M24 11.4688C22.4294 11.4688 21.1562 12.7419 21.1562 14.3125C21.1562 14.7612 20.7925 15.125 20.3438 15.125C19.895 15.125 19.5312 14.7612 19.5312 14.3125C19.5312 11.8445 21.532 9.84375 24 9.84375C26.468 9.84375 28.4688 11.8445 28.4688 14.3125C28.4688 14.7612 28.105 15.125 27.6562 15.125C27.2075 15.125 26.8438 14.7612 26.8438 14.3125C26.8438 12.7419 25.5706 11.4688 24 11.4688ZM24 21.625C22.4294 21.625 21.1562 22.8982 21.1562 24.4688C21.1562 24.9175 20.7925 25.2812 20.3438 25.2812C19.895 25.2812 19.5312 24.9175 19.5312 24.4688C19.5312 22.0007 21.532 20 24 20C26.468 20 28.4688 22.0007 28.4688 24.4688C28.4688 24.9175 28.105 25.2812 27.6562 25.2812C27.2075 25.2812 26.8438 24.9175 26.8438 24.4688C26.8438 22.8982 25.5706 21.625 24 21.625ZM21.1562 34.625C21.1562 33.0544 22.4294 31.7812 24 31.7812C25.5706 31.7812 26.8438 33.0544 26.8438 34.625C26.8438 35.0737 27.2075 35.4375 27.6562 35.4375C28.105 35.4375 28.4688 35.0737 28.4688 34.625C28.4688 32.157 26.468 30.1562 24 30.1562C21.532 30.1562 19.5312 32.157 19.5312 34.625C19.5312 35.0737 19.895 35.4375 20.3438 35.4375C20.7925 35.4375 21.1562 35.0737 21.1562 34.625Z"
          fill="#231F20"/>
    <path fill-rule="evenodd" clip-rule="evenodd"
          d="M19.9375 7C18.1185 7 16.5787 8.19555 16.061 9.84375H11.8123C11.4062 9.84375 11 10.25 11 10.6562C11 11.5537 11.7275 12.2812 12.625 12.2812C15.0614 12.2812 15.8743 13.093 15.875 16.3394L15.875 16.3438V20H11.8123C11.4062 20 11 20.4062 11 20.8125C11 21.71 11.7275 22.4375 12.625 22.4375C15.0617 22.4375 15.8745 23.2495 15.875 26.4969L15.875 26.5V30.1562H11.8123C11.4062 30.1562 11 30.5625 11 30.9688C11 31.8662 11.7275 32.5938 12.625 32.5938C15.0625 32.5938 15.875 33.4062 15.875 36.6562H15.8752V37.875C15.8752 40.1187 17.6941 41.9375 19.9377 41.9375H28.0627C30.3064 41.9375 32.1252 40.1187 32.1252 37.875V36.5622C32.1409 33.3905 32.9612 32.5938 35.375 32.5938C36.2725 32.5938 37 31.8662 37 30.9688C37 30.5625 36.5938 30.1562 36.1877 30.1562H32.1252V26.4058C32.141 23.2343 32.9612 22.4375 35.375 22.4375C36.2725 22.4375 37 21.71 37 20.8125C37 20.4062 36.5938 20 36.1877 20H32.1252V16.2494C32.141 13.078 32.9613 12.2812 35.375 12.2812C36.2725 12.2812 37 11.5537 37 10.6562C37 10.25 36.5938 9.84375 36.1877 9.84375H31.939C31.4213 8.19555 29.8815 7 28.0625 7H19.9375ZM20.7464 40.3125L20.75 40.3125H28.0625C29.4087 40.3125 30.5 39.2212 30.5 37.875V11.0625C30.5 9.71631 29.4087 8.625 28.0625 8.625H27.2537L27.2502 8.62501L19.9377 8.62501C18.5915 8.62501 17.5002 9.71631 17.5002 11.0625L17.5002 37.875C17.5002 39.2212 18.5915 40.3125 19.9377 40.3125H20.7464Z"
          fill="#231F20"/>
</svg>
