<svg width="48" height="48" viewBox="0 0 48 48" fill="none" xmlns="http://www.w3.org/2000/svg">
<circle cx="24" cy="24" r="20" fill="#FF1817"/>
<path d="M15 7.5C15 5.29086 16.7909 3.5 19 3.5H29C31.2091 3.5 33 5.29086 33 7.5V40.5C33 42.7091 31.2091 44.5 29 44.5H19C16.7909 44.5 15 42.7091 15 40.5V7.5Z" fill="white"/>
<path d="M28.5 11.5C28.5 13.9853 26.4853 16 24 16C21.5147 16 19.5 13.9853 19.5 11.5C19.5 9.01472 21.5147 7 24 7C26.4853 7 28.5 9.01472 28.5 11.5Z" fill="#FF1817"/>
<path d="M28.5 24C28.5 26.4853 26.4853 28.5 24 28.5C21.5147 28.5 19.5 26.4853 19.5 24C19.5 21.5147 21.5147 19.5 24 19.5C26.4853 19.5 28.5 21.5147 28.5 24Z" fill="#BEDCE3"/>
<path d="M28.5 36.5C28.5 38.9853 26.4853 41 24 41C21.5147 41 19.5 38.9853 19.5 36.5C19.5 34.0147 21.5147 32 24 32C26.4853 32 28.5 34.0147 28.5 36.5Z" fill="#BEDCE3"/>
<path fill-rule="evenodd" clip-rule="evenodd" d="M24 8C22.067 8 20.5 9.567 20.5 11.5C20.5 12.0523 20.0523 12.5 19.5 12.5C18.9477 12.5 18.5 12.0523 18.5 11.5C18.5 8.46243 20.9624 6 24 6C27.0376 6 29.5 8.46243 29.5 11.5C29.5 12.0523 29.0523 12.5 28.5 12.5C27.9477 12.5 27.5 12.0523 27.5 11.5C27.5 9.567 25.933 8 24 8ZM24 20.5C22.067 20.5 20.5 22.067 20.5 24C20.5 24.5523 20.0523 25 19.5 25C18.9477 25 18.5 24.5523 18.5 24C18.5 20.9624 20.9624 18.5 24 18.5C27.0376 18.5 29.5 20.9624 29.5 24C29.5 24.5523 29.0523 25 28.5 25C27.9477 25 27.5 24.5523 27.5 24C27.5 22.067 25.933 20.5 24 20.5ZM20.5 36.5C20.5 34.567 22.067 33 24 33C25.933 33 27.5 34.567 27.5 36.5C27.5 37.0523 27.9477 37.5 28.5 37.5C29.0523 37.5 29.5 37.0523 29.5 36.5C29.5 33.4624 27.0376 31 24 31C20.9624 31 18.5 33.4624 18.5 36.5C18.5 37.0523 18.9477 37.5 19.5 37.5C20.0523 37.5 20.5 37.0523 20.5 36.5Z" fill="#231F20"/>
<path fill-rule="evenodd" clip-rule="evenodd" d="M10 9C13 9 14 10 14 14V18.5H8.99979C8.5 18.5 8 19 8 19.5C8 20.6046 8.89543 21.5 10 21.5C13 21.5 14 22.5 14 26.5V31H8.99979C8.5 31 8 31.5 8 32C8 33.1046 8.89543 34 10 34C13 34 14 35 14 39H14.1338C14.3067 39.2989 14.6299 39.5 15 39.5C15.5523 39.5 16 39.0523 16 38.5V7.5C16 5.84315 17.3431 4.5 19 4.5H29C30.6569 4.5 32 5.84315 32 7.5V40.5C32 42.1569 30.6569 43.5 29 43.5H20C19.4477 43.5 19 43.9477 19 44.5C19 45.0523 19.4477 45.5 20 45.5H29C31.7614 45.5 34 43.2614 34 40.5V39C34 35 35 34 38 34C39.1046 34 40 33.1046 40 32C40 31.5 39.5 31 39.0002 31H34V26.5C34 22.5 35 21.5 38 21.5C39.1046 21.5 40 20.6046 40 19.5C40 19 39.5 18.5 39.0002 18.5H34V14C34 10 35 9 38 9C39.1046 9 40 8.10457 40 7C40 6.5 39.5 6 39.0002 6H33.7711C33.134 3.97145 31.2388 2.5 29 2.5H19C16.7612 2.5 14.866 3.97145 14.2289 6H8.99979C8.5 6 8 6.5 8 7C8 8.10457 8.89543 9 10 9Z" fill="#231F20"/>
</svg>
