<svg width="48" height="48" viewBox="0 0 48 48" fill="none" xmlns="http://www.w3.org/2000/svg">
    <path fill-rule="evenodd" clip-rule="evenodd"
          d="M28.7155 40.9112L28.7137 40.9132C28.7175 40.909 28.7202 40.9059 28.7155 40.9112ZM27.3152 40.9441C27.3152 40.9441 27.3128 40.9418 27.3105 40.9396C27.2594 40.8902 26.8403 40.4994 26.0226 40.1087C25.0927 39.6645 23.6271 39.2097 21.5592 39.2653C18.5238 39.347 16.16 39.474 14.4192 39.5806C12.7116 39.6852 11.5292 39.7762 10.9474 39.7762C10.4242 39.7762 10 39.3619 10 38.851V17.4395C10 16.9285 10.4242 16.5143 10.9474 16.5143C14.4594 16.5143 17.9933 16.0987 21.507 16.0041C23.9757 15.9377 25.7907 16.7414 26.9888 17.5754C27.3871 17.8526 27.7164 18.1325 27.9793 18.3837C28.2319 18.1325 28.5489 17.8544 28.9355 17.5793C30.1226 16.7342 31.9414 15.9355 34.493 16.0041C37.5565 16.0865 39.9433 16.2148 41.6995 16.3224C43.4889 16.432 44.5499 16.5143 45.0526 16.5143C45.5758 16.5143 46 16.9285 46 17.4395V38.851C46 39.3619 45.5758 39.7762 45.0526 39.7762C44.4708 39.7762 43.2884 39.6852 41.5808 39.5806C39.84 39.474 37.4762 39.347 34.4408 39.2653C32.2767 39.2071 30.8146 39.6647 29.9175 40.1032C29.1274 40.4893 28.7531 40.8717 28.7155 40.9112L28.7137 40.9132C28.5391 41.1086 28.2884 41.2235 28.0227 41.2297C27.7561 41.236 27.4993 41.1322 27.3152 40.9441ZM27.3125 40.9413L27.3152 40.9441L27.3125 40.9413Z"
          fill="#BEDCE3"/>
    <path d="M30.5 42.5V30L33.5 28.5V42.5L32 42L30.5 42.5Z" fill="#BEDCE3"/>
    <path fill-rule="evenodd" clip-rule="evenodd"
          d="M24.7155 36.9112L24.7137 36.9132C24.7175 36.909 24.7202 36.9059 24.7155 36.9112ZM23.3152 36.9441C23.3152 36.9441 23.3128 36.9418 23.3105 36.9396C23.2594 36.8902 22.8403 36.4994 22.0226 36.1087C21.0927 35.6645 19.6271 35.2097 17.5592 35.2653C14.5238 35.347 12.16 35.474 10.4192 35.5806C8.71162 35.6852 7.52922 35.7762 6.94737 35.7762C6.42415 35.7762 6 35.3619 6 34.851V13.4395C6 12.9285 6.42415 12.5143 6.94737 12.5143C10.4594 12.5143 13.9933 12.0987 17.507 12.0041C19.9757 11.9377 21.7907 12.7414 22.9888 13.5754C23.3871 13.8526 23.7164 14.1325 23.9793 14.3837C24.2319 14.1325 24.5489 13.8544 24.9355 13.5793C26.1226 12.7342 27.9414 11.9355 30.493 12.0041C33.5565 12.0865 35.9433 12.2148 37.6995 12.3224C39.4889 12.432 40.5499 12.5143 41.0526 12.5143C41.5758 12.5143 42 12.9285 42 13.4395V34.851C42 35.3619 41.5758 35.7762 41.0526 35.7762C40.4708 35.7762 39.2884 35.6852 37.5808 35.5806C35.84 35.474 33.4762 35.347 30.4408 35.2653C28.2767 35.2071 26.8146 35.6647 25.9175 36.1032C25.1274 36.4893 24.7531 36.8717 24.7155 36.9112L24.7137 36.9132C24.5391 37.1086 24.2884 37.2235 24.0227 37.2297C23.7561 37.236 23.4993 37.1322 23.3152 36.9441ZM23.3125 36.9413L23.3152 36.9441L23.3125 36.9413Z"
          fill="white"/>
    <path fill-rule="evenodd" clip-rule="evenodd"
          d="M23.165 15.7452C23.3541 16.0322 23.6775 16.2021 24.0214 16.1947C24.3648 16.1874 24.6803 16.0043 24.857 15.7102M23.165 15.7452C22.7997 15.216 22.2908 14.769 21.7717 14.399C20.8001 13.7065 19.3028 13.0135 17.2014 13.0714C13.7954 13.1652 10.4003 13.3857 7 13.5838V34.7234C10.3813 34.5177 13.7591 34.3083 17.1463 34.215C19.6708 34.1455 21.5369 34.7155 22.7916 35.3293C23.2838 35.5701 23.6789 35.8161 23.9808 36.0299C24.2717 35.8148 24.6519 35.5701 25.1289 35.3313C26.3707 34.7099 28.2404 34.143 30.8537 34.215C34.2403 34.3083 37.6191 34.5177 41 34.7234V13.5838C37.5997 13.3857 34.2046 13.1652 30.7986 13.0714C28.5943 13.0107 27.1011 13.7089 26.1655 14.3909C25.6728 14.75 25.1867 15.1895 24.857 15.7102M24.7552 37.9933L24.7534 37.9954C24.7574 37.9908 24.7602 37.9875 24.7552 37.9933ZM23.2771 38.0288C23.2771 38.0288 23.2747 38.0263 23.2722 38.0239C23.2182 37.9705 22.7759 37.5481 21.9127 37.1259C20.9312 36.6457 19.3842 36.1541 17.2014 36.2143C13.9973 36.3025 11.5022 36.4398 9.66467 36.5551C7.86227 36.6681 6.61418 36.7664 6 36.7664C5.44772 36.7664 5 36.3187 5 35.7664V12.6236C5 12.0713 5.44772 11.6236 6 11.6236C9.70717 11.6236 13.4373 11.1743 17.1463 11.0722C19.7522 11.0004 21.668 11.869 22.9326 12.7704C23.353 13.0701 23.7006 13.3726 23.9782 13.6441C24.2448 13.3726 24.5794 13.0721 24.9874 12.7746C26.2405 11.8613 28.1604 10.9979 30.8537 11.0722C34.0874 11.1612 36.6068 11.2998 38.4605 11.4161C40.3494 11.5346 41.4694 11.6236 42 11.6236C42.5523 11.6236 43 12.0713 43 12.6236V35.7664C43 36.3187 42.5523 36.7664 42 36.7664C41.3858 36.7664 40.1377 36.6681 38.3353 36.5551C36.4978 36.4398 34.0027 36.3025 30.7986 36.2143C28.5143 36.1513 26.9709 36.646 26.024 37.1199C25.19 37.5372 24.7949 37.9505 24.7552 37.9933L24.7534 37.9954C24.5691 38.2066 24.3045 38.3308 24.024 38.3375C23.7425 38.3443 23.4715 38.2321 23.2771 38.0288ZM23.2743 38.0258L23.2771 38.0288L23.2743 38.0258Z"
          fill="#231F20"/>
    <path d="M9.5 9.5C9.86995 9.5 10.5307 9.51711 11.3747 9.58297C11.9549 9.62824 12.6217 9.69655 13.3401 9.79818C14.0822 9.90315 14.8793 10.0437 15.6931 10.2311C19.1412 11.0251 22.8869 12.6608 24 16V37C22 31 11.5 32.5 9.5 32.5V9.5Z"
          fill="white"/>
    <path fill-rule="evenodd" clip-rule="evenodd"
          d="M8.5 9.5C8.5 8.94772 8.94772 8.5 9.5 8.5C9.89659 8.5 10.5833 8.51817 11.4525 8.586C12.0031 8.62896 12.4147 9.11015 12.3717 9.66076C12.3287 10.2114 11.8476 10.6229 11.2969 10.5799C11.0066 10.5573 10.7393 10.5406 10.5 10.5286V31.45C11.9315 31.3625 14.4521 31.2171 16.8691 31.5071C18.9745 31.7598 21.3132 32.369 23 33.8027V16.1698C22.3487 14.3991 20.7569 13.1339 18.7053 12.2425C18.1987 12.0224 17.9665 11.4334 18.1866 10.9268C18.4067 10.4203 18.9957 10.1881 19.5023 10.4082C21.8463 11.4266 24.0742 13.0604 24.9487 15.6838C24.9827 15.7857 25 15.8925 25 16V37C25 37.4905 24.6443 37.9085 24.1602 37.9871C23.6761 38.0656 23.2064 37.7815 23.0513 37.3162C22.2529 34.9209 19.7071 33.862 16.6309 33.4929C14.3828 33.2231 12.2322 33.3535 10.7769 33.4417C10.2511 33.4736 9.81601 33.5 9.5 33.5C8.94772 33.5 8.5 33.0523 8.5 32.5V9.5Z"
          fill="#231F20"/>
    <path d="M38.5 9.5C36.5 9.5 26 10 24 16V37C26 31 36.5 32.5 38.5 32.5V9.5Z" fill="white"/>
    <path d="M26.5 39.5V13L29.5 11.5V39.5L28 39L26.5 39.5Z" fill="#F05023"/>
    <path fill-rule="evenodd" clip-rule="evenodd"
          d="M39.5 9.5C39.5 8.94772 39.0523 8.5 38.5 8.5C37.4512 8.5 34.2262 8.62819 30.9804 9.53704C27.8009 10.4273 24.2206 12.1759 23.0513 15.6838C23.0173 15.7857 23 15.8925 23 16V37C23 37.4905 23.3557 37.9085 23.8398 37.9871C24.3239 38.0656 24.7936 37.7815 24.9487 37.3162C25.7471 34.9209 28.2929 33.862 31.3691 33.4929C33.6172 33.2231 35.7678 33.3535 37.2231 33.4417C37.7489 33.4736 38.184 33.5 38.5 33.5C39.0523 33.5 39.5 33.0523 39.5 32.5V9.5ZM37.5 10.5286V31.45C36.0685 31.3625 33.5479 31.2171 31.1309 31.5071C29.0255 31.7598 26.6868 32.369 25 33.8027V16.1698C25.8849 13.7651 28.5097 12.3057 31.5196 11.463C33.8106 10.8215 36.1138 10.5984 37.5 10.5286Z"
          fill="#231F20"/>
    <path d="M26.5 39.5V27L29.5 25.5V39.5L28 39L26.5 39.5Z" fill="#F05023"/>
</svg>
