<svg width="48" height="48" viewBox="0 0 48 48" fill="none" xmlns="http://www.w3.org/2000/svg">
<g clip-path="url(#clip0_1526_237)">
<path d="M25.2551 15.0585C25.7057 14.6079 26.4362 14.6079 26.8868 15.0585L39.3972 27.5689C39.8478 28.0195 39.8478 28.7501 39.3972 29.2007L26.0709 42.5269C22.1657 46.4322 15.8341 46.4322 11.9288 42.5269C8.02357 38.6217 8.02357 32.29 11.9288 28.3848L25.2551 15.0585Z" fill="#BEDCE3"/>
<path d="M35.9704 8.58579C36.7515 7.80474 38.0178 7.80474 38.7989 8.58579L45.8699 15.6569C46.651 16.4379 46.651 17.7042 45.8699 18.4853L37.2347 27.1205L27.3352 17.221L35.9704 8.58579Z" fill="#BEDCE3"/>
<path d="M22.1235 12.2344C22.5741 11.7838 23.3046 11.7838 23.7552 12.2344L36.2656 24.7448C36.7162 25.1954 36.7162 25.9259 36.2656 26.3765L22.9393 39.7028C19.0341 43.608 12.7025 43.608 8.79721 39.7028C4.89197 35.7975 4.89197 29.4659 8.79721 25.5607L22.1235 12.2344Z" fill="#21C68B"/>
<path d="M32.8388 5.76169C33.6199 4.98064 34.8862 4.98064 35.6673 5.76169L42.7383 12.8328C43.5194 13.6138 43.5194 14.8801 42.7383 15.6612L34.9459 23.4536L25.0465 13.5541L32.8388 5.76169Z" fill="white"/>
<rect x="33.5459" y="7.883" width="3" height="4" rx="1" transform="rotate(45 33.5459 7.883)" fill="#231F20"/>
<path d="M37.7886 13.5399C38.1791 13.1493 38.8123 13.1493 39.2028 13.5399L39.9099 14.247C40.3004 14.6375 40.3004 15.2707 39.9099 15.6612L38.4957 17.0754C38.1052 17.4659 37.472 17.4659 37.0815 17.0754L36.3744 16.3683C35.9839 15.9778 35.9839 15.3446 36.3744 14.9541L37.7886 13.5399Z" fill="#231F20"/>
<path fill-rule="evenodd" clip-rule="evenodd" d="M23.0489 12.943C22.9888 12.8829 22.8915 12.8829 22.8314 12.943L9.50497 26.268C9.11442 26.6585 8.48126 26.6585 8.09075 26.268C7.70025 25.8774 7.70028 25.2442 8.09083 24.8537L21.4173 11.5287C22.2584 10.6877 23.622 10.6877 24.463 11.5287L36.9728 24.0377C37.8139 24.8788 37.8139 26.2426 36.9728 27.0837L23.6464 40.4101C19.3507 44.7058 12.3861 44.7058 8.09042 40.4101C6.75542 39.0751 5.83392 37.4798 5.32862 35.7864C5.1707 35.2572 5.4717 34.7002 6.00092 34.5422C6.53015 34.3843 7.08719 34.6853 7.24511 35.2145C7.65785 36.5977 8.41013 37.9014 9.50464 38.9959C13.0193 42.5105 18.7176 42.5105 22.2322 38.9959L35.5586 25.6695C35.6187 25.6094 35.6187 25.512 35.5586 25.4519L23.0489 12.943Z" fill="#231F20"/>
<path fill-rule="evenodd" clip-rule="evenodd" d="M32.1317 5.05455C33.3033 3.88297 35.2028 3.88298 36.3744 5.05455L43.4454 12.1256C44.617 13.2972 44.617 15.1967 43.4454 16.3683L34.9602 24.8535L23.6465 13.5398L32.1317 5.05455ZM34.9602 6.46876C34.5696 6.07824 33.9365 6.07824 33.5459 6.46876L26.4749 13.5398L34.9602 22.0251L42.0312 14.954C42.4218 14.5635 42.4218 13.9304 42.0312 13.5398L34.9602 6.46876Z" fill="#231F20"/>
<g clip-path="url(#clip1_1526_237)">
<path d="M25.2964 28.8604L24.3536 27.9176C24.0943 27.6584 23.67 27.6584 23.4107 27.9176L22.4679 28.8604C22.2087 29.1197 22.2087 29.544 22.4679 29.8033L21.5251 30.7461L20.1109 29.3319L23.8821 25.5606L24.3536 26.032C24.5468 26.2253 24.8815 26.1169 24.9192 25.8435L25.2351 23.642C25.2681 23.4204 25.0795 23.2319 24.858 23.2649L22.6565 23.5807C22.3831 23.6184 22.2747 23.9531 22.4679 24.1464L22.9393 24.6178L19.1681 28.389L17.7539 26.9748L18.7297 25.999C19.3284 26.1829 20.0213 26.0085 20.4126 25.3909C20.6955 24.9478 20.7096 24.368 20.455 23.9154C19.9553 23.0292 18.7957 22.916 18.131 23.5807C17.7303 23.9814 17.6313 24.5518 17.7869 25.0562L16.8111 26.032C16.2925 26.5506 16.2925 27.3991 16.8111 27.9176L18.2253 29.3319L16.7875 30.7696C16.17 30.5764 15.4629 30.7838 15.081 31.4107C14.8123 31.8492 14.8029 32.4337 15.0622 32.8815C15.5666 33.7536 16.7121 33.8715 17.3815 33.2021C17.7822 32.8014 17.8953 32.2263 17.735 31.7172L19.1728 30.2794L20.587 31.6936C21.1056 32.2121 21.9541 32.2121 22.4726 31.6936L23.4155 30.7508C23.6747 31.0101 24.099 31.0101 24.3583 30.7508L25.3011 29.808C25.5556 29.544 25.5556 29.1197 25.2964 28.8604Z" fill="white"/>
</g>
</g>
<defs>
<clipPath id="clip0_1526_237">
<rect width="48" height="48" fill="white"/>
</clipPath>
<clipPath id="clip1_1526_237">
<rect width="16" height="16" fill="white" transform="translate(20.1109 17.0754) rotate(45)"/>
</clipPath>
</defs>
</svg>
