<svg width="48" height="48" viewBox="0 0 48 48" fill="none" xmlns="http://www.w3.org/2000/svg">
<g clip-path="url(#clip0)">
<path d="M25.2552 15.0585C25.7058 14.6079 26.4364 14.6079 26.887 15.0585L39.3973 27.5689C39.8479 28.0195 39.8479 28.75 39.3973 29.2007L26.0711 42.5269C22.1658 46.4321 15.8342 46.4321 11.9289 42.5269C8.02369 38.6217 8.02369 32.29 11.9289 28.3848L25.2552 15.0585Z" fill="#BEDCE3"/>
<path d="M35.9706 8.58577C36.7516 7.80472 38.0179 7.80472 38.799 8.58577L45.8701 15.6568C46.6511 16.4379 46.6511 17.7042 45.8701 18.4853L37.2348 27.1205L27.3353 17.221L35.9706 8.58577Z" fill="#BEDCE3"/>
<path d="M22.1236 12.2344C22.5742 11.7838 23.3047 11.7838 23.7553 12.2344L36.2657 24.7448C36.7163 25.1954 36.7163 25.9259 36.2657 26.3765L22.9395 39.7028C19.0342 43.608 12.7026 43.608 8.79732 39.7028C4.89208 35.7975 4.89208 29.4659 8.79732 25.5607L22.1236 12.2344Z" fill="#21C68B"/>
<path d="M32.8387 5.76167C33.6198 4.98062 34.8861 4.98062 35.6671 5.76167L42.7382 12.8327C43.5193 13.6138 43.5193 14.8801 42.7382 15.6612L34.9458 23.4536L25.0463 13.5541L32.8387 5.76167Z" fill="white"/>
<rect x="33.5459" y="7.883" width="3" height="4" rx="1" transform="rotate(45 33.5459 7.883)" fill="#231F20"/>
<path d="M37.7885 13.5398C38.179 13.1493 38.8122 13.1493 39.2027 13.5398L39.9098 14.2469C40.3003 14.6375 40.3003 15.2706 39.9098 15.6612L38.4956 17.0754C38.1051 17.4659 37.4719 17.4659 37.0814 17.0754L36.3743 16.3683C35.9838 15.9777 35.9838 15.3446 36.3743 14.9541L37.7885 13.5398Z" fill="#231F20"/>
<path fill-rule="evenodd" clip-rule="evenodd" d="M23.0494 12.943C22.9893 12.8829 22.892 12.8829 22.8319 12.943L9.50547 26.268C9.11492 26.6585 8.48176 26.6585 8.09126 26.268C7.70075 25.8774 7.70078 25.2442 8.09133 24.8537L21.4178 11.5287C22.2589 10.6877 23.6225 10.6877 24.4635 11.5287L36.9733 24.0377C37.8144 24.8788 37.8145 26.2426 36.9733 27.0837L23.6469 40.4101C19.3512 44.7058 12.3866 44.7058 8.09093 40.4101C6.75592 39.0751 5.83443 37.4798 5.32913 35.7864C5.1712 35.2572 5.4722 34.7002 6.00143 34.5422C6.53065 34.3843 7.0877 34.6853 7.24562 35.2145C7.65835 36.5977 8.41063 37.9014 9.50514 38.9959C13.0198 42.5105 18.7181 42.5105 22.2327 38.9959L35.5591 25.6695C35.6192 25.6094 35.6192 25.512 35.5591 25.4519L23.0494 12.943Z" fill="#231F20"/>
<path fill-rule="evenodd" clip-rule="evenodd" d="M32.1321 5.05456C33.3037 3.88299 35.2032 3.88299 36.3747 5.05456L43.4458 12.1256C44.6174 13.2972 44.6174 15.1967 43.4458 16.3683L34.9605 24.8536L23.6468 13.5398L32.1321 5.05456ZM34.9605 6.46878C34.57 6.07825 33.9368 6.07825 33.5463 6.46878L26.4752 13.5398L34.9605 22.0251L42.0316 14.9541C42.4221 14.5635 42.4221 13.9304 42.0316 13.5398L34.9605 6.46878Z" fill="#231F20"/>
<g clip-path="url(#clip1)">
<path d="M25.2965 28.8605L24.3537 27.9177C24.0945 27.6584 23.6702 27.6584 23.4109 27.9177L22.4681 28.8605C22.2088 29.1197 22.2088 29.544 22.4681 29.8033L21.5253 30.7461L20.1111 29.3319L23.8823 25.5606L24.3537 26.032C24.547 26.2253 24.8817 26.1169 24.9194 25.8435L25.2353 23.642C25.2683 23.4205 25.0797 23.2319 24.8581 23.2649L22.6567 23.5807C22.3833 23.6184 22.2748 23.9531 22.4681 24.1464L22.9395 24.6178L19.1683 28.3891L17.7541 26.9748L18.7299 25.999C19.3286 26.1829 20.0215 26.0085 20.4128 25.3909C20.6956 24.9478 20.7098 24.368 20.4552 23.9154C19.9555 23.0292 18.7959 22.9161 18.1312 23.5807C17.7305 23.9814 17.6315 24.5518 17.7871 25.0562L16.8113 26.032C16.2927 26.5506 16.2927 27.3991 16.8113 27.9177L18.2255 29.3319L16.7877 30.7697C16.1702 30.5764 15.463 30.7838 15.0812 31.4108C14.8125 31.8492 14.8031 32.4337 15.0624 32.8815C15.5668 33.7536 16.7123 33.8715 17.3817 33.2021C17.7824 32.8014 17.8955 32.2263 17.7352 31.7172L19.173 30.2794L20.5872 31.6936C21.1058 32.2122 21.9543 32.2122 22.4728 31.6936L23.4156 30.7508C23.6749 31.0101 24.0992 31.0101 24.3585 30.7508L25.3013 29.808C25.5558 29.544 25.5558 29.1197 25.2965 28.8605Z" fill="white"/>
</g>
</g>
<defs>
<clipPath id="clip0">
<rect width="48" height="48" fill="white"/>
</clipPath>
<clipPath id="clip1">
<rect width="16" height="16" fill="white" transform="translate(20.1113 17.0754) rotate(45)"/>
</clipPath>
</defs>
</svg>
