<svg width="48" height="48" viewBox="0 0 48 48" fill="none" xmlns="http://www.w3.org/2000/svg">
<path d="M40.0005 46.2222C43.437 46.2222 46.2228 43.4364 46.2228 40C46.2228 36.5636 43.437 33.7778 40.0005 33.7778C36.5641 33.7778 33.7783 36.5636 33.7783 40C33.7783 43.4364 36.5641 46.2222 40.0005 46.2222Z" fill="#BEDCE3"/>
<path d="M36.7146 20.7296C36.0735 19.6163 34.6396 19.2375 33.5322 19.8786L30.344 21.7205V12.2057C30.344 10.9234 29.2948 9.87428 28.0125 9.87428C26.7303 9.87428 25.6811 10.9234 25.6811 12.2057V21.7205L22.4929 19.8786C21.3796 19.2375 19.9516 19.6222 19.3105 20.7296C18.6693 21.8429 19.054 23.2709 20.1615 23.912L26.5379 27.5957C26.5671 27.6131 26.5962 27.619 26.6195 27.6306C27.01 27.9221 27.488 28.1027 28.0125 28.1027C28.5371 28.1027 29.0151 27.9221 29.4056 27.6306C29.4347 27.619 29.4639 27.6073 29.4872 27.5957L35.8636 23.912C36.9711 23.2767 37.3558 21.8429 36.7146 20.7296Z" fill="#BEDCE3"/>
<path d="M41.8304 41.32H14.1693C12.8958 41.32 11.8643 40.2767 11.8643 38.9886V33.7429C11.8643 32.4548 12.8958 31.4114 14.1693 31.4114H41.8304C43.1039 31.4114 44.1354 32.4548 44.1354 33.7429V38.9886C44.1354 40.2767 43.1039 41.32 41.8304 41.32Z" fill="#BEDCE3"/>
<path d="M37.8304 37.32H10.1693C8.89578 37.32 7.86426 36.2767 7.86426 34.9886V29.7429C7.86426 28.4548 8.89578 27.4114 10.1693 27.4114H37.8304C39.1039 27.4114 40.1354 28.4548 40.1354 29.7429V34.9886C40.1354 36.2767 39.1039 37.32 37.8304 37.32Z" fill="white"/>
<path d="M37.8305 38.1943H10.1695C8.42339 38.1943 7 36.7546 7 34.9886V29.7429C7 27.9768 8.42339 26.5371 10.1695 26.5371H37.8305C39.5766 26.5371 41 27.9768 41 29.7429V34.9886C41 36.7546 39.5766 38.1943 37.8305 38.1943ZM10.1695 28.2857C9.37424 28.2857 8.72881 28.9385 8.72881 29.7429V34.9886C8.72881 35.7929 9.37424 36.4457 10.1695 36.4457H37.8305C38.6258 36.4457 39.2712 35.7929 39.2712 34.9886V29.7429C39.2712 28.9385 38.6258 28.2857 37.8305 28.2857H10.1695Z" fill="#231F20"/>
<path d="M18.5772 34.1143C19.5429 34.1143 20.3258 33.3314 20.3258 32.3657C20.3258 31.4 19.5429 30.6172 18.5772 30.6172C17.6115 30.6172 16.8286 31.4 16.8286 32.3657C16.8286 33.3314 17.6115 34.1143 18.5772 34.1143Z" fill="#231F20"/>
<path d="M12.7486 34.1143C13.7143 34.1143 14.4971 33.3314 14.4971 32.3657C14.4971 31.4 13.7143 30.6172 12.7486 30.6172C11.7829 30.6172 11 31.4 11 32.3657C11 33.3314 11.7829 34.1143 12.7486 34.1143Z" fill="#231F20"/>
<path d="M32.594 16.7296C31.9529 15.6163 30.519 15.2375 29.4116 15.8786L26.2234 17.7205V8.20571C26.2234 6.92343 25.1742 5.87428 23.8919 5.87428C22.6097 5.87428 21.5605 6.92343 21.5605 8.20571V17.7205L18.3723 15.8786C17.259 15.2375 15.831 15.6222 15.1899 16.7296C14.5487 17.8429 14.9334 19.2709 16.0409 19.912L22.4173 23.5957C22.4465 23.6131 22.4756 23.619 22.4989 23.6306C22.8894 23.9221 23.3674 24.1027 23.8919 24.1027C24.4165 24.1027 24.8945 23.9221 25.285 23.6306C25.3141 23.619 25.3433 23.6073 25.3666 23.5957L31.743 19.912C32.8505 19.2767 33.2351 17.8429 32.594 16.7296Z" fill="white"/>
<path d="M23.8917 24.9829C23.2389 24.9829 22.6095 24.7789 22.0616 24.3942C22.0383 24.3825 22.0091 24.3709 21.98 24.3534L15.6035 20.6697C14.8633 20.2442 14.3329 19.5506 14.1114 18.723C13.8899 17.8953 14.0007 17.0327 14.4261 16.2925C14.8516 15.5522 15.5452 15.0218 16.3729 14.8003C17.2005 14.5789 18.0632 14.6896 18.8034 15.1151L20.686 16.205V11.9768C20.686 11.493 21.0765 11.1025 21.5603 11.1025C22.0441 11.1025 22.4346 11.493 22.4346 11.9768V19.2359L17.9349 16.6363C17.6027 16.444 17.2064 16.3915 16.8275 16.4906C16.4487 16.5897 16.1339 16.8345 15.9416 17.1667C15.7492 17.499 15.6968 17.8953 15.7959 18.2742C15.8949 18.653 16.1397 18.9678 16.472 19.1601L22.8076 22.8205C22.8426 22.8321 22.8717 22.8496 22.9009 22.8671L23.0175 22.9429C23.2098 23.0711 23.5012 23.2343 23.8917 23.2343C24.2823 23.2343 24.5737 23.0711 24.7602 22.937L24.97 22.8205L31.3115 19.1601C31.6437 18.9678 31.8885 18.653 31.9876 18.2742C32.0867 17.8953 32.0401 17.5048 31.8419 17.1667C31.6496 16.8287 31.3348 16.5897 30.956 16.4906C30.5771 16.3915 30.1866 16.4382 29.8485 16.6363L25.3489 19.2301V8.20571C25.3489 7.40137 24.6961 6.74857 23.8917 6.74857C23.408 6.74857 23.0175 6.35806 23.0175 5.87429C23.0175 5.39051 23.408 5 23.8917 5C25.6578 5 27.0975 6.43966 27.0975 8.20571V16.205L28.9743 15.1209C29.7145 14.6954 30.5771 14.5789 31.4048 14.8062C32.2324 15.0277 32.926 15.5581 33.3515 16.2983C33.777 17.0385 33.8936 17.9011 33.6663 18.7288C33.4448 19.5565 32.9144 20.2501 32.1741 20.6755L25.7161 24.4C25.174 24.7789 24.5445 24.9829 23.8917 24.9829Z" fill="#231F20"/>
<path d="M36.0005 42.2222C39.437 42.2222 42.2228 39.4364 42.2228 36C42.2228 32.5636 39.437 29.7778 36.0005 29.7778C32.5641 29.7778 29.7783 32.5636 29.7783 36C29.7783 39.4364 32.5641 42.2222 36.0005 42.2222Z" fill="#21C68B"/>
<path d="M36 43C32.163 43 29 39.837 29 36C29 32.163 32.163 29 36 29C39.837 29 43 32.163 43 36C43 39.837 39.837 43 36 43ZM36 30.5556C32.9926 30.5556 30.5556 32.9926 30.5556 36C30.5556 39.0074 32.9926 41.4444 36 41.4444C39.0074 41.4444 41.4444 39.0074 41.4444 36C41.4444 32.9926 39.0074 30.5556 36 30.5556Z" fill="#231F20"/>
<path d="M35.793 38.1259C35.5856 38.1259 35.3781 38.0741 35.2226 37.9185C34.9115 37.6074 34.9115 37.1407 35.2226 36.8296L37.867 34.1852C38.1781 33.8741 38.6448 33.8741 38.9559 34.1852C39.267 34.4963 39.267 34.963 38.9559 35.2741L36.3115 37.9185C36.1559 38.0222 36.0004 38.1259 35.793 38.1259Z" fill="white"/>
<path d="M35.7927 38.1259C35.5853 38.1259 35.3779 38.0741 35.2224 37.9185L33.4594 36.1556C33.1483 35.8444 33.1483 35.3778 33.4594 35.0667C33.7705 34.7556 34.2372 34.7556 34.5483 35.0667L36.3113 36.8296C36.6224 37.1407 36.6224 37.6074 36.3113 37.9185C36.1557 38.0222 36.0001 38.1259 35.7927 38.1259Z" fill="white"/>
</svg>
