<svg width="48" height="48" viewBox="0 0 48 48" fill="none" xmlns="http://www.w3.org/2000/svg">
<circle cx="28" cy="28" r="18" fill="#BEDCE3"/>
<circle cx="24" cy="24" r="18" fill="#212121"/>
<path fill-rule="evenodd" clip-rule="evenodd" d="M24 42C33.9411 42 42 33.9411 42 24C42 14.0589 33.9411 6 24 6C14.0589 6 6 14.0589 6 24C6 33.9411 14.0589 42 24 42ZM22.2 15C22.2 14.0059 23.0059 13.2 24 13.2C24.9941 13.2 25.8 14.0059 25.8 15V25.0757L30.364 29.6397C31.067 30.3426 31.067 31.4823 30.364 32.1853C29.6611 32.8882 28.5214 32.8882 27.8184 32.1853L22.7272 27.0941C22.3742 26.7411 22.1985 26.2779 22.2001 25.8152L22.2 25.8V15Z" fill="#F2C94C"/>
<path fill-rule="evenodd" clip-rule="evenodd" d="M24 7C21.5785 7 19.2778 7.50567 17.1955 8.41623C16.6895 8.63751 16.0999 8.40668 15.8786 7.90066C15.6574 7.39464 15.8882 6.80505 16.3942 6.58377C18.7244 5.56481 21.2976 5 24 5C34.4934 5 43 13.5066 43 24C43 34.4934 34.4934 43 24 43C13.5066 43 5 34.4934 5 24C5 20.7567 5.81344 17.7005 7.24826 15.0271C7.50943 14.5405 8.11565 14.3577 8.60228 14.6189C9.0889 14.8801 9.27167 15.4863 9.01049 15.9729C7.72792 18.3626 7 21.0948 7 24C7 33.3888 14.6112 41 24 41C33.3888 41 41 33.3888 41 24C41 14.6112 33.3888 7 24 7Z" fill="#231F20"/>
</svg>
