<svg width="64" height="64" viewBox="0 0 64 64" fill="none" xmlns="http://www.w3.org/2000/svg">
<g clip-path="url(#clip0)">
<path d="M35 62.5C49.6355 62.5 61.5 50.6355 61.5 36C61.5 21.3645 49.6355 9.5 35 9.5C20.3645 9.5 8.5 21.3645 8.5 36C8.5 50.6355 20.3645 62.5 35 62.5Z" fill="#BEDCE3"/>
<path d="M31 56.5C45.6355 56.5 57.5 44.6355 57.5 30C57.5 15.3645 45.6355 3.5 31 3.5C16.3645 3.5 4.5 15.3645 4.5 30C4.5 44.6355 16.3645 56.5 31 56.5Z" fill="white"/>
<path d="M31 58C15.56 58 3 45.44 3 30C3 23.54 5.25 17.23 9.35 12.24C9.87 11.6 10.82 11.51 11.46 12.03C12.1 12.56 12.19 13.5 11.67 14.14C8.01 18.6 6 24.23 6 30C6 43.79 17.21 55 31 55C44.79 55 56 43.79 56 30C56 16.21 44.79 5 31 5C30.17 5 29.5 4.33 29.5 3.5C29.5 2.67 30.17 2 31 2C46.44 2 59 14.56 59 30C59 45.44 46.44 58 31 58Z" fill="#231F20"/>
<path d="M41.444 43.5H20.556C20.8312 39.8313 22.1019 36.6071 23.9403 34.2941C25.8712 31.8648 28.3669 30.5 31 30.5C33.6331 30.5 36.1288 31.8648 38.0597 34.2941C39.8981 36.6071 41.1688 39.8313 41.444 43.5Z" stroke="#231F20" stroke-width="3" stroke-linejoin="round"/>
<path fill-rule="evenodd" clip-rule="evenodd" d="M42.9768 17.0005C42.5895 25.371 37.3753 32 30.9999 32C24.6245 32 19.4103 25.371 19.023 17.0005C18.9975 16.4488 19.4476 16 19.9999 16H41.9999C42.5522 16 43.0024 16.4488 42.9768 17.0005ZM40.9999 17H19.9999V22H40.9999V17Z" fill="#21C68B"/>
<path d="M20.556 17.5L41.444 17.5C41.1688 21.1687 39.8981 24.3929 38.0597 26.7058C36.1288 29.1352 33.6331 30.5 31 30.5C28.3669 30.5 25.8712 29.1352 23.9403 26.7058C22.1019 24.3929 20.8312 21.1687 20.556 17.5Z" stroke="#231F20" stroke-width="3" stroke-linejoin="round"/>
</g>
<defs>
<clipPath id="clip0">
<rect width="58.5" height="60.5" fill="white" transform="translate(3 2)"/>
</clipPath>
</defs>
</svg>
