<svg width="48" height="48" viewBox="0 0 48 48" fill="none" xmlns="http://www.w3.org/2000/svg">
    <path d="M27.65 9.2847L15.9833 14.4175C14.7833 14.9457 14 16.134 14 17.4378V25.1948C14 34.3547 20.4 42.9205 29 45C37.6 42.9205 44 34.3547 44 25.1948V17.4378C44 16.134 43.2167 14.9457 42.0167 14.4175L30.35 9.2847C29.5 8.9051 28.5 8.9051 27.65 9.2847ZM24.4833 33.9256L20.1667 29.651C19.5167 29.0073 19.5167 27.9676 20.1667 27.3239C20.8167 26.6802 21.8667 26.6802 22.5167 27.3239L25.6667 30.4267L35.4667 20.7222C36.1167 20.0785 37.1667 20.0785 37.8167 20.7222C38.4667 21.3658 38.4667 22.4056 37.8167 23.0493L26.8333 33.9256C26.2 34.5693 25.1333 34.5693 24.4833 33.9256Z"
          fill="#29889E" fill-opacity="0.3"/>
    <path d="M9 13.4378C9 12.134 9.78333 10.9457 10.9833 10.4175L15.3418 8.5L22.65 5.2847C23.5 4.9051 24.5 4.9051 25.35 5.2847L37.0167 10.4175C38.2167 10.9457 39 12.134 39 13.4378V21.1948C39 30.3547 32.6 38.9205 24 41C15.4 38.9205 9 30.3547 9 21.1948V18.5V13.4378Z"
          fill="#21C68B"/>
    <path fill-rule="evenodd" clip-rule="evenodd"
          d="M25.7551 4.37042C25.756 4.37081 25.7569 4.37121 25.7578 4.37162L37.4194 9.50221C38.9772 10.1878 40 11.732 40 13.4378V21.1948C40 30.7812 33.3173 39.7758 24.235 41.972L24 42.0288L23.765 41.972C14.6827 39.7758 8 30.7812 8 21.1948V18.5C8 17.9477 8.44772 17.5 9 17.5C9.55228 17.5 10 17.9477 10 18.5V21.1948C10 29.8438 15.9995 37.9076 24 39.9693C32.0005 37.9076 38 29.8438 38 21.1948V13.4378C38 12.536 37.456 11.7035 36.614 11.3329C36.6139 11.3328 36.614 11.3329 36.614 11.3329L24.9422 6.1978C24.3517 5.93409 23.6483 5.93407 23.0578 6.19778L23.0527 6.20004L15.7445 9.41533C15.239 9.63774 14.6489 9.40823 14.4265 8.90271C14.2041 8.39718 14.4336 7.80708 14.9391 7.58467L22.2449 4.3704C23.3529 3.87653 24.6471 3.87653 25.7551 4.37042Z"
          fill="#231F20"/>
    <path fill-rule="evenodd" clip-rule="evenodd"
          d="M16.4711 25.2994L20.643 29.523C21.2711 30.159 22.302 30.159 22.9141 29.523L33.5289 18.7764C34.157 18.1404 34.157 17.113 33.5289 16.477C32.9007 15.841 31.8859 15.841 31.2577 16.477L21.7866 26.0658L18.7423 23C18.1141 22.364 17.0993 22.364 16.4711 23C15.843 23.636 15.843 24.6634 16.4711 25.2994Z"
          fill="white"/>
</svg>
