<svg width="64" height="64" viewBox="0 0 64 64" fill="none" xmlns="http://www.w3.org/2000/svg">
<g clip-path="url(#clip0)">
<g clip-path="url(#clip1)">
<path d="M34.5 64.5C49.964 64.5 62.5 51.964 62.5 36.5C62.5 21.036 49.964 8.5 34.5 8.5C19.036 8.5 6.5 21.036 6.5 36.5C6.5 51.964 19.036 64.5 34.5 64.5Z" fill="#BEDCE3"/>
<path d="M30.2798 58.78C45.7438 58.78 58.2798 46.244 58.2798 30.78C58.2798 15.3161 45.7438 2.78003 30.2798 2.78003C14.8158 2.78003 2.27979 15.3161 2.27979 30.78C2.27979 46.244 14.8158 58.78 30.2798 58.78Z" fill="#F05023"/>
<path d="M30.5 60C14.23 60 1 46.77 1 30.5C1 23.69 3.38 17.05 7.69 11.79C8.21 11.15 9.16 11.06 9.8 11.58C10.44 12.11 10.53 13.05 10.01 13.69C6.13 18.42 4 24.38 4 30.5C4 45.11 15.89 57 30.5 57C45.11 57 57 45.11 57 30.5C57 15.89 45.11 4 30.5 4C29.67 4 29 3.33 29 2.5C29 1.67 29.67 1 30.5 1C46.77 1 60 14.23 60 30.5C60 46.77 46.77 60 30.5 60Z" fill="#231F20"/>
<path d="M30.3767 41.6343C31.4801 41.6343 32.3745 40.7398 32.3745 39.6365C32.3745 38.5331 31.4801 37.6387 30.3767 37.6387C29.2734 37.6387 28.3789 38.5331 28.3789 39.6365C28.3789 40.7398 29.2734 41.6343 30.3767 41.6343Z" fill="white"/>
<path d="M38.2099 34.2299C37.8099 34.2299 37.4199 34.0699 37.1199 33.7599C34.7999 31.3299 32.4399 30.1499 30.1299 30.2499C26.6199 30.4099 24.1499 33.4599 24.1199 33.4899C23.6099 34.1399 22.6599 34.2499 22.0099 33.7399C21.3599 33.2299 21.2499 32.2899 21.7599 31.6399C21.8899 31.4699 25.0599 27.4899 29.9599 27.2599C33.2099 27.0999 36.3299 28.5899 39.2899 31.6899C39.8599 32.2899 39.8399 33.2399 39.2399 33.8099C38.9599 34.0899 38.5899 34.2299 38.2099 34.2299Z" fill="white"/>
<path d="M43.13 27.1301C42.73 27.1301 42.33 26.9701 42.04 26.6601C38.06 22.4101 33.93 20.3201 29.69 20.4301C23.19 20.6101 18.62 25.9801 18.57 26.0301C18.04 26.6701 17.09 26.7501 16.46 26.2201C15.82 25.6901 15.74 24.7401 16.27 24.1101C16.49 23.8501 21.77 17.6501 29.6 17.4301C34.75 17.3001 39.63 19.7001 44.23 24.6101C44.8 25.2101 44.77 26.1601 44.16 26.7301C43.87 27.0001 43.5 27.1301 43.13 27.1301Z" fill="white"/>
</g>
</g>
<defs>
<clipPath id="clip0">
<rect width="64" height="64" fill="white"/>
</clipPath>
<clipPath id="clip1">
<rect width="61.5" height="63.5" fill="white" transform="translate(1 1)"/>
</clipPath>
</defs>
</svg>
