<svg width="48" height="48" viewBox="0 0 48 48" fill="none" xmlns="http://www.w3.org/2000/svg">
    <path d="M10.7302 24.7308C11.616 25.6166 13.0229 25.7035 13.9782 24.9045C22.0894 18.2349 33.8654 18.2349 41.9939 24.8871C42.9666 25.6861 44.3908 25.6166 45.2766 24.7308C46.3014 23.7061 46.2319 22.0039 45.1029 21.0834C35.1854 12.9722 20.8388 12.9722 10.9039 21.0834C9.77496 21.9866 9.68812 23.6887 10.7302 24.7308ZM24.2084 38.209L26.7616 40.7622C27.439 41.4396 28.5332 41.4396 29.2106 40.7622L31.7638 38.209C32.5801 37.3926 32.4064 35.9858 31.3643 35.4473C29.2453 34.3531 26.7095 34.3531 24.5731 35.4473C23.5831 35.9858 23.392 37.3926 24.2084 38.209ZM17.7298 31.7304C18.5809 32.5815 19.9183 32.6683 20.9083 31.9562C25.1463 28.9514 30.8432 28.9514 35.0812 31.9562C36.0712 32.651 37.4086 32.5815 38.2597 31.7304L38.277 31.7131C39.3192 30.6709 39.2497 28.8993 38.0512 28.0483C32.0764 23.7234 23.9305 23.7234 17.9383 28.0483C16.7398 28.9167 16.6703 30.6709 17.7298 31.7304Z" fill="#BEDCE3"/>
    <path d="M6.73024 20.7308C7.61605 21.6166 9.02291 21.7035 9.97819 20.9045C18.0894 14.2349 29.8654 14.2349 37.9939 20.8871C38.9666 21.6861 40.3908 21.6166 41.2766 20.7308C42.3014 19.7061 42.2319 18.0039 41.1029 17.0834C31.1854 8.9722 16.8388 8.9722 6.90393 17.0834C5.77496 17.9866 5.68812 19.6887 6.73024 20.7308ZM20.2084 34.209L22.7616 36.7622C23.439 37.4396 24.5332 37.4396 25.2106 36.7622L27.7638 34.209C28.5801 33.3926 28.4064 31.9858 27.3643 31.4473C25.2453 30.3531 22.7095 30.3531 20.5731 31.4473C19.5831 31.9858 19.392 33.3926 20.2084 34.209ZM13.7298 27.7304C14.5809 28.5815 15.9183 28.6683 16.9083 27.9562C21.1463 24.9514 26.8432 24.9514 31.0812 27.9562C32.0712 28.651 33.4086 28.5815 34.2597 27.7304L34.277 27.7131C35.3192 26.6709 35.2497 24.8993 34.0512 24.0483C28.0764 19.7234 19.9305 19.7234 13.9383 24.0483C12.7398 24.9167 12.6703 26.6709 13.7298 27.7304Z" fill="white"/>
    <path fill-rule="evenodd" clip-rule="evenodd" d="M12.5937 12.4176C22.0733 8.20325 33.4077 9.498 41.7359 16.3093C43.3309 17.611 43.4194 20.0021 41.9836 21.438C40.7331 22.6884 38.729 22.7843 37.3601 21.6607C29.6006 15.3109 18.3577 15.3112 10.6161 21.6746C9.24785 22.8158 7.25921 22.6741 6.02303 21.438C4.56891 19.9838 4.67438 17.5863 6.27913 16.3025C6.71039 15.9575 7.33968 16.0275 7.68469 16.4587C8.0297 16.89 7.95978 17.5193 7.52852 17.8643C6.87533 18.3868 6.80711 19.3936 7.43724 20.0237C7.9716 20.5581 8.79432 20.5909 9.33653 20.1375L9.34294 20.1321C17.8235 13.1588 30.1305 13.1598 38.6272 20.1133L38.6286 20.1144C39.2049 20.5879 40.0486 20.5446 40.5694 20.0237C41.1828 19.4104 41.1327 18.3981 40.4709 17.8584L40.4697 17.8575C32.7409 11.5364 22.2133 10.3297 13.4061 14.2451C12.9015 14.4695 12.3105 14.2422 12.0861 13.7376C11.8618 13.2329 12.089 12.6419 12.5937 12.4176ZM34.6341 23.2358C36.3827 24.4813 36.4189 26.9853 34.984 28.4202L34.9667 28.4375C34.9666 28.4376 34.9667 28.4375 34.9667 28.4375C33.7461 29.6581 31.8632 29.7268 30.5067 28.7748L30.5027 28.772C26.612 26.0134 21.3803 26.0129 17.4891 28.7702C16.1183 29.754 14.2338 29.6488 13.0226 28.4375C11.5694 26.9843 11.6086 24.5014 13.3514 23.2385L13.3529 23.2374C19.6929 18.6616 28.3092 18.6598 34.6341 23.2358ZM14.5241 24.8586C13.8707 25.3329 13.7713 26.3578 14.4368 27.0233C14.9269 27.5134 15.7152 27.5825 16.3243 27.1444L16.3298 27.1405C20.9135 23.8905 27.073 23.89 31.6572 27.1389C32.2804 27.575 33.0713 27.5044 33.5524 27.0233L33.5698 27.006C33.5698 27.006 33.5698 27.006 33.5698 27.006C34.2181 26.3577 34.1165 25.3212 33.4721 24.8636L33.4648 24.8584C27.8405 20.7873 20.1674 20.7861 14.5241 24.8586ZM20.1171 30.5573C22.5385 29.3171 25.415 29.3154 27.823 30.5588C29.5017 31.4262 29.7375 33.6494 28.4708 34.9161L25.9176 37.4693C24.8497 38.5372 23.1223 38.5372 22.0544 37.4693L19.5012 34.9161C18.2299 33.6449 18.4967 31.4383 20.0952 30.5689L20.1061 30.5629L20.1171 30.5573ZM21.0422 32.3306C20.6676 32.5425 20.5567 33.1432 20.9154 33.5019L23.4686 36.0551C23.7554 36.3419 24.2165 36.3419 24.5033 36.0551L27.0565 33.5019C27.4225 33.1359 27.3107 32.5453 26.9052 32.3358C25.0796 31.3931 22.8906 31.3892 21.0422 32.3306Z" fill="#212121"/>
</svg>
