<svg width="48" height="48" viewBox="0 0 48 48" fill="none" xmlns="http://www.w3.org/2000/svg">
<path d="M10.7302 24.7308C11.616 25.6166 13.0229 25.7035 13.9782 24.9045C22.0894 18.2349 33.8654 18.2349 41.9939 24.8871C42.9666 25.6861 44.3908 25.6166 45.2766 24.7308C46.3014 23.7061 46.2319 22.0039 45.1029 21.0834C35.1854 12.9722 20.8388 12.9722 10.9039 21.0834C9.77496 21.9866 9.68812 23.6887 10.7302 24.7308ZM24.2084 38.209L26.7616 40.7622C27.439 41.4396 28.5332 41.4396 29.2106 40.7622L31.7638 38.209C32.5801 37.3926 32.4064 35.9858 31.3643 35.4473C29.2453 34.3531 26.7095 34.3531 24.5731 35.4473C23.5831 35.9858 23.392 37.3926 24.2084 38.209ZM17.7298 31.7304C18.5809 32.5815 19.9183 32.6683 20.9083 31.9562C25.1463 28.9514 30.8432 28.9514 35.0812 31.9562C36.0712 32.651 37.4086 32.5815 38.2597 31.7304L38.277 31.7131C39.3192 30.6709 39.2497 28.8993 38.0512 28.0483C32.0764 23.7234 23.9305 23.7234 17.9383 28.0483C16.7398 28.9167 16.6703 30.6709 17.7298 31.7304Z" fill="#BEDCE3"/>
<path d="M6.73024 20.7308C7.61605 21.6166 9.02291 21.7035 9.97819 20.9045C18.0894 14.2349 29.8654 14.2349 37.9939 20.8871C38.9666 21.6861 40.3908 21.6166 41.2766 20.7308C42.3014 19.7061 42.2319 18.0039 41.1029 17.0834C31.1854 8.9722 16.8388 8.9722 6.90393 17.0834C5.77496 17.9866 5.68812 19.6887 6.73024 20.7308ZM20.2084 34.209L22.7616 36.7622C23.439 37.4396 24.5332 37.4396 25.2106 36.7622L27.7638 34.209C28.5801 33.3926 28.4064 31.9858 27.3643 31.4473C25.2453 30.3531 22.7095 30.3531 20.5731 31.4473C19.5831 31.9858 19.392 33.3926 20.2084 34.209ZM13.7298 27.7304C14.5809 28.5815 15.9183 28.6683 16.9083 27.9562C21.1463 24.9514 26.8432 24.9514 31.0812 27.9562C32.0712 28.651 33.4086 28.5815 34.2597 27.7304L34.277 27.7131C35.3192 26.6709 35.2497 24.8993 34.0512 24.0483C28.0764 19.7234 19.9305 19.7234 13.9383 24.0483C12.7398 24.9167 12.6703 26.6709 13.7298 27.7304Z" fill="white"/>
<path fill-rule="evenodd" clip-rule="evenodd"
      d="M12.5938 12.4176C22.0734 8.20325 33.4078 9.498 41.736 16.3093C43.331 17.611 43.4196 20.0021 41.9837 21.438C40.7333 22.6884 38.7291 22.7843 37.3602 21.6607C29.6007 15.3109 18.3578 15.3112 10.6162 21.6746C9.24797 22.8158 7.25933 22.6741 6.02315 21.438C4.56904 19.9838 4.6745 17.5863 6.27925 16.3025C6.71051 15.9575 7.3398 16.0275 7.68481 16.4587C8.02982 16.89 7.9599 17.5193 7.52864 17.8643C6.87546 18.3868 6.80723 19.3936 7.43737 20.0237C7.97172 20.5581 8.79444 20.5909 9.33665 20.1375L9.34306 20.1321C17.8236 13.1588 30.1306 13.1598 38.6273 20.1133L38.6287 20.1144C39.2051 20.5879 40.0487 20.5446 40.5695 20.0237C41.1829 19.4104 41.1329 18.3981 40.471 17.8584L40.4699 17.8575C32.741 11.5364 22.2135 10.3297 13.4062 14.2451C12.9016 14.4695 12.3106 14.2422 12.0862 13.7376C11.8619 13.2329 12.0891 12.6419 12.5938 12.4176ZM34.6342 23.2358C36.3829 24.4813 36.419 26.9853 34.9842 28.4202L34.9668 28.4375C34.9668 28.4376 34.9668 28.4375 34.9668 28.4375C33.7462 29.6581 31.8634 29.7268 30.5068 28.7748L30.5028 28.772C26.6121 26.0134 21.3804 26.0129 17.4892 28.7702C16.1185 29.754 14.234 29.6488 13.0227 28.4375C11.5695 26.9843 11.6088 24.5014 13.3515 23.2385L13.353 23.2374C19.693 18.6616 28.3093 18.6598 34.6342 23.2358ZM14.5242 24.8586C13.8708 25.3329 13.7714 26.3578 14.437 27.0233C14.927 27.5134 15.7154 27.5825 16.3244 27.1444L16.3299 27.1405C20.9136 23.8905 27.0732 23.89 31.6574 27.1389C32.2805 27.575 33.0715 27.5044 33.5526 27.0233L33.5699 27.006C33.5699 27.006 33.57 27.006 33.5699 27.006C34.2182 26.3577 34.1166 25.3212 33.4723 24.8636L33.4649 24.8584C27.8407 20.7873 20.1675 20.7861 14.5242 24.8586ZM20.1173 30.5573C22.5387 29.3171 25.4151 29.3154 27.8231 30.5588C29.5018 31.4262 29.7376 33.6494 28.4709 34.9161L25.9177 37.4693C24.8498 38.5372 23.1224 38.5372 22.0545 37.4693L19.5013 34.9161C18.2301 33.6449 18.4968 31.4383 20.0954 30.5689L20.1062 30.5629L20.1173 30.5573ZM21.0423 32.3306C20.6677 32.5425 20.5568 33.1432 20.9155 33.5019L23.4687 36.0551C23.7556 36.3419 24.2166 36.3419 24.5035 36.0551L27.0567 33.5019C27.4226 33.1359 27.3108 32.5453 26.9053 32.3358C25.0797 31.3931 22.8907 31.3892 21.0423 32.3306Z"
      fill="#212121"/>
</svg>
