<svg width="48" height="48" viewBox="0 0 48 48" fill="none" xmlns="http://www.w3.org/2000/svg">
    <path d="M37.34 21.94V18.11C37.2848 17.1643 36.9544 16.2554 36.3894 15.495C35.8244 14.7346 35.0495 14.1559 34.16 13.83L33 8.58C32.8909 8.0825 32.6155 7.63704 32.2192 7.3171C31.8229 6.99715 31.3294 6.82181 30.82 6.82H21.88C21.3732 6.8227 20.8825 6.99877 20.4895 7.31895C20.0966 7.63912 19.825 8.08413 19.72 8.58L18.59 13.79C17.6615 14.0705 16.8476 14.6416 16.2679 15.4192C15.6883 16.1969 15.3735 17.1401 15.37 18.11V33.48C15.427 34.4172 15.7538 35.3179 16.3109 36.0737C16.868 36.8295 17.6317 37.4082 18.51 37.74L19.7 43.25C19.8148 43.7456 20.0935 44.188 20.4909 44.5056C20.8883 44.8232 21.3813 44.9974 21.89 45H30.89C31.3869 44.9866 31.8648 44.8069 32.2474 44.4896C32.63 44.1723 32.895 43.7358 33 43.25L34.19 37.78C35.1057 37.4927 35.9059 36.9208 36.4742 36.1475C37.0425 35.3742 37.3493 34.4397 37.35 33.48V29.66C37.8205 29.6132 38.2572 29.3945 38.5764 29.0458C38.8956 28.697 39.075 28.2428 39.08 27.77V23.83C39.0792 23.3543 38.9 22.8963 38.5779 22.5464C38.2557 22.1964 37.814 21.9801 37.34 21.94Z"
          fill="#BEDCE3"/>
    <path d="M18.62 5.87L28.68 5.78L30.48 12.85L33.28 15.18V32.76L30.05 34.99L29.17 41.09L17.96 41.5L16.64 34.73L13.45 32.2V14.52L17.3 12.36L18.62 5.87Z"
          fill="#F05023"/>
    <path d="M30.57 12.92H16.76C15.5505 12.92 14.57 13.9005 14.57 15.11V31.88C14.57 33.0895 15.5505 34.07 16.76 34.07H30.57C31.7795 34.07 32.76 33.0895 32.76 31.88V15.11C32.76 13.9005 31.7795 12.92 30.57 12.92Z"
          fill="white"/>
    <path d="M23.86 29.89C27.0412 29.89 29.62 27.3112 29.62 24.13C29.62 20.9488 27.0412 18.37 23.86 18.37C20.6789 18.37 18.1 20.9488 18.1 24.13C18.1 27.3112 20.6789 29.89 23.86 29.89Z"
          fill="#21C68B"/>
    <path fill-rule="evenodd" clip-rule="evenodd"
          d="M15.9322 34.4616C16.122 34.2266 16.4079 34.09 16.71 34.09H30.46C30.7621 34.09 31.0481 34.2266 31.2379 34.4616C31.4278 34.6966 31.5012 35.0048 31.4377 35.3002L30.1477 41.3002L30.1442 41.3159C30.0359 41.7828 29.7747 42.2001 29.4021 42.5016C29.1001 42.746 28.7389 42.9029 28.3576 42.958C28.2665 42.9853 28.17 43 28.07 43H19.1487C18.6527 43.0074 18.1694 42.8423 17.7816 42.5327C17.392 42.2217 17.1232 41.7845 17.0216 41.2966L15.7324 35.3002C15.6689 35.0048 15.7423 34.6966 15.9322 34.4616ZM27.8702 41C27.9292 40.988 27.9901 40.9813 28.0524 40.9802C28.0858 40.9796 28.1181 40.9678 28.1441 40.9468C28.169 40.9267 28.1868 40.8991 28.1949 40.8682L29.2222 36.09H17.9479L18.9795 40.8885C18.9861 40.9205 19.0037 40.9492 19.0293 40.9697C19.0549 40.9901 19.0868 41.0009 19.1195 41.0002L19.14 41H27.8702Z"
          fill="#231F20"/>
    <path fill-rule="evenodd" clip-rule="evenodd"
          d="M19.1399 5H28.0699C28.5556 5.00009 29.0271 5.16461 29.4073 5.46674C29.7875 5.76888 30.0543 6.19084 30.1641 6.66391L30.1676 6.6798L31.4576 12.6798C31.5211 12.9752 31.4477 13.2834 31.2578 13.5184C31.068 13.7534 30.7821 13.89 30.4799 13.89H16.7499C16.4476 13.89 16.1614 13.7532 15.9716 13.5178C15.7817 13.2824 15.7086 12.9738 15.7726 12.6782L17.0726 6.67825C17.1749 6.20748 17.4339 5.78472 17.807 5.48003C18.1802 5.17534 18.6456 5.00615 19.1273 5.00008L19.1399 5ZM19.1494 7C19.1211 7.00105 19.0939 7.01129 19.072 7.02921C19.0492 7.04777 19.0335 7.07347 19.0272 7.10213C19.0272 7.10219 19.0272 7.10208 19.0272 7.10213L17.9898 11.89H29.2421L28.2148 7.1119C28.2066 7.0806 28.1884 7.05275 28.163 7.03256C28.1366 7.01152 28.1038 7.00005 28.0699 7M28.0699 7H19.1494H28.0699Z"
          fill="#231F20"/>
    <path fill-rule="evenodd" clip-rule="evenodd"
          d="M32.47 21.1C32.47 20.5477 32.9177 20.1 33.47 20.1H34.41C34.41 20.1 34.41 20.1 34.41 20.1C34.6483 20.1 34.8842 20.1473 35.104 20.2391C35.3239 20.331 35.5233 20.4656 35.6908 20.6351C35.8582 20.8047 35.9903 21.0058 36.0794 21.2268C36.1676 21.4454 36.212 21.6793 36.21 21.915V25.85C36.21 26.3274 36.0204 26.7852 35.6828 27.1228C35.3453 27.4604 34.8874 27.65 34.41 27.65H33.47C32.9177 27.65 32.47 27.2023 32.47 26.65V21.1Z"
          fill="#231F20"/>
    <path fill-rule="evenodd" clip-rule="evenodd"
          d="M27.9999 21C28.4237 21.3541 28.4802 21.9848 28.1261 22.4086L23.9573 27.1412C23.7851 27.3474 23.5371 27.4755 23.2693 27.4969C23.0015 27.5182 22.7363 27.4308 22.5336 27.2545L19.8436 24.9145C19.4269 24.552 19.383 23.9204 19.7455 23.5037C20.1079 23.087 20.7396 23.043 21.1563 23.4055L23.0767 25.076L26.5914 21.1262C26.9455 20.7024 27.5761 20.6459 27.9999 21Z"
          fill="white"/>
    <path fill-rule="evenodd" clip-rule="evenodd"
          d="M12.9999 15C12.9999 13.3431 14.3431 12 15.9999 12H30.9999C32.6568 12 33.9999 13.3431 33.9999 15V33C33.9999 34.6569 32.6568 36 30.9999 36H15.9999C14.3431 36 12.9999 34.6569 12.9999 33V15ZM15.9999 14C15.4477 14 14.9999 14.4477 14.9999 15V33C14.9999 33.5523 15.4477 34 15.9999 34H30.9999C31.5522 34 31.9999 33.5523 31.9999 33V15C31.9999 14.4477 31.5522 14 30.9999 14H15.9999Z"
          fill="#231F20"/>
</svg>
