<svg width="36" height="36" viewBox="0 0 36 36" fill="none" xmlns="http://www.w3.org/2000/svg">
<path fill-rule="evenodd" clip-rule="evenodd" d="M18 0C8.05887 0 0 8.05887 0 18C0 27.9411 8.05887 36 18 36C27.9411 36 36 27.9411 36 18C36 8.05887 27.9411 0 18 0ZM14.0425 8.458C15.0665 8.4114 15.3937 8.4 18.0009 8.4H17.9979C20.6059 8.4 20.9319 8.4114 21.9559 8.458C22.978 8.5048 23.676 8.6666 24.288 8.90401C24.92 9.14901 25.454 9.47701 25.988 10.011C26.522 10.5446 26.85 11.0802 27.096 11.7116C27.332 12.322 27.494 13.0196 27.542 14.0417C27.588 15.0657 27.6 15.3929 27.6 18.0001C27.6 20.6073 27.588 20.9337 27.542 21.9577C27.494 22.9794 27.332 23.6772 27.096 24.2878C26.85 24.919 26.522 25.4546 25.988 25.9882C25.4546 26.5222 24.9198 26.851 24.2886 27.0962C23.6778 27.3336 22.9794 27.4954 21.9573 27.5422C20.9333 27.5888 20.6071 27.6002 17.9997 27.6002C15.3927 27.6002 15.0657 27.5888 14.0417 27.5422C13.0198 27.4954 12.322 27.3336 11.7112 27.0962C11.0802 26.851 10.5446 26.5222 10.0112 25.9882C9.47741 25.4546 9.14941 24.919 8.90401 24.2876C8.6668 23.6772 8.505 22.9796 8.458 21.9575C8.4116 20.9335 8.4 20.6073 8.4 18.0001C8.4 15.3929 8.412 15.0655 8.4578 14.0415C8.5038 13.0198 8.6658 12.322 8.9038 11.7114C9.14981 11.0802 9.47781 10.5446 10.0118 10.011C10.5454 9.47721 11.081 9.14921 11.7124 8.90401C12.3228 8.6666 13.0204 8.5048 14.0425 8.458ZM17.1247 10.0024C17.2943 10.0022 17.4768 10.0023 17.6736 10.0023H17.6749L18.0001 10.0024C20.6057 10.0024 20.9145 10.0118 21.9434 10.0586C22.8949 10.1021 23.4113 10.2611 23.7553 10.3947C24.2107 10.5716 24.5354 10.783 24.8767 11.1246C25.2183 11.4662 25.4297 11.7916 25.607 12.247C25.7406 12.5907 25.8998 13.1071 25.9431 14.0587C25.9898 15.0876 26 15.3966 26 18.0013C26 20.606 25.9898 20.9151 25.9431 21.9439C25.8996 22.8955 25.7406 23.412 25.607 23.7556C25.4301 24.2111 25.2183 24.5354 24.8767 24.8768C24.5352 25.2184 24.2109 25.4299 23.7553 25.6068C23.4117 25.741 22.8949 25.8996 21.9434 25.9431C20.9147 25.9898 20.6057 26 18.0001 26C15.3943 26 15.0855 25.9898 14.0568 25.9431C13.1053 25.8991 12.5889 25.7401 12.2447 25.6066C11.7893 25.4297 11.464 25.2182 11.1225 24.8766C10.7809 24.535 10.5695 24.2105 10.3922 23.7548C10.2586 23.4112 10.0994 22.8947 10.0561 21.9431C10.0094 20.9143 10 20.6052 10 17.9989C10 15.3926 10.0094 15.0851 10.0561 14.0563C10.0996 13.1047 10.2586 12.5882 10.3922 12.2442C10.5691 11.7887 10.7809 11.4634 11.1225 11.1218C11.464 10.7802 11.7893 10.5687 12.2447 10.3914C12.5887 10.2572 13.1053 10.0986 14.0568 10.0549C14.957 10.0142 15.3059 10.002 17.1247 10V10.0024ZM23.2092 11.623C22.5627 11.623 22.0382 12.147 22.0382 12.7938C22.0382 13.4404 22.5627 13.965 23.2092 13.965C23.8557 13.965 24.3803 13.4404 24.3803 12.7938C24.3803 12.1472 23.8557 11.6226 23.2092 11.6226V11.623ZM12.9886 18.0036C12.9886 15.2356 15.2325 12.9914 18.0001 12.9914C20.7676 12.9915 23.0108 15.2357 23.0108 18.0036C23.0108 20.7715 20.7677 23.0147 18.0001 23.0147C15.2325 23.0147 12.9886 20.7715 12.9886 18.0036ZM21 18C21 16.3431 19.6567 15 18 15C16.3431 15 15 16.3431 15 18C15 19.6567 16.3431 21 18 21C19.6567 21 21 19.6567 21 18Z" fill="black"/>
</svg>
