<svg width="36" height="36" viewBox="0 0 36 36" fill="none" xmlns="http://www.w3.org/2000/svg">
<path fill-rule="evenodd" clip-rule="evenodd" d="M18 0C8.05887 0 0 8.05887 0 18C0 27.9411 8.05887 36 18 36C27.9411 36 36 27.9411 36 18C36 8.05887 27.9411 0 18 0ZM22.7997 13.6452C22.7997 16.206 20.6421 18.289 17.9878 18.289C15.3341 18.289 13.1758 16.206 13.1758 13.6452C13.1758 11.0836 15.3341 9 17.9878 9C20.6421 9 22.7997 11.0836 22.7997 13.6452ZM19.947 22.0802C20.9265 21.8648 21.8711 21.4908 22.7412 20.9633C23.3997 20.5625 23.598 19.7223 23.1831 19.0867C22.7686 18.4497 21.8988 18.258 21.2391 18.6587C19.2681 19.8552 16.7304 19.8549 14.7605 18.6587C14.1008 18.258 13.2308 18.4497 12.817 19.0867C12.4021 19.7229 12.5999 20.5625 13.2584 20.9633C14.1285 21.4902 15.0731 21.8648 16.0526 22.0802L13.3623 24.6771C12.8124 25.2085 12.8124 26.0701 13.3629 26.6015C13.6384 26.8669 13.9989 26.9997 14.3594 26.9997C14.7204 26.9997 15.0815 26.8669 15.357 26.6015L17.9995 24.0496L20.6443 26.6015C21.1942 27.1328 22.0865 27.1328 22.637 26.6015C23.188 26.0701 23.188 25.208 22.637 24.6771L19.947 22.0802ZM20 14.0001C20 12.897 19.1029 12 18 12C16.898 12 16 12.897 16 14.0001C16 15.1024 16.898 16 18 16C19.1029 16 20 15.1024 20 14.0001Z" fill="black"/>
</svg>
