<svg width="36" height="36" viewBox="0 0 36 36" fill="none" xmlns="http://www.w3.org/2000/svg">
<path fill-rule="evenodd" clip-rule="evenodd" d="M35.9968 17.9984C35.9968 27.9387 27.9387 35.9968 17.9984 35.9968C8.05816 35.9968 0 27.9387 0 17.9984C0 8.05816 8.05816 0 17.9984 0C27.9387 0 35.9968 8.05816 35.9968 17.9984ZM25.5512 10.1362C25.6213 10.1107 25.6947 10.098 25.7617 10.098C26.1189 10.098 26.4219 10.4392 26.323 10.822L22.7763 25.0057C22.6359 25.5703 22.1352 25.9116 21.6153 25.9116C21.3697 25.9116 21.1177 25.835 20.8977 25.6691L16.9867 22.6998L14.6175 24.7091C14.5633 24.7538 14.5027 24.7729 14.4421 24.7729C14.34 24.7729 14.2443 24.7123 14.1997 24.6198H14.1965L14.1901 24.607C14.1869 24.607 14.1869 24.6039 14.1869 24.6039L11.6545 19.5357L7.45388 18.1164C6.93718 17.941 6.92442 17.2138 7.43474 17.0192L25.5512 10.1362ZM14.3403 20.6901L14.34 20.6903L14.3403 20.6905L14.5473 23.328L12.6432 19.3858L22.7667 13.3066L14.342 20.6886L14.34 20.6871L14.3403 20.6901Z" fill="black"/>
</svg>
