<svg width="36" height="36" viewBox="0 0 36 36" fill="none" xmlns="http://www.w3.org/2000/svg">
<path fill-rule="evenodd" clip-rule="evenodd" d="M18 0C8.05887 0 0 8.05887 0 18C0 27.9411 8.05887 36 18 36C27.9411 36 36 27.9411 36 18C36 8.05887 27.9411 0 18 0ZM18.4987 15.2535L18.4609 14.6306C18.3476 13.0163 19.3422 11.5418 20.9161 10.9698C21.4952 10.7665 22.4773 10.741 23.1194 10.919C23.3712 10.9953 23.8497 11.2495 24.1896 11.4783L24.8066 11.8977L25.4865 11.6817C25.8642 11.5673 26.3678 11.3766 26.5944 11.2495C26.8085 11.1351 26.9973 11.0715 26.9973 11.1097C26.9973 11.3257 26.5315 12.063 26.1412 12.4697C25.6124 13.0417 25.7635 13.0926 26.8337 12.7112C27.4758 12.4952 27.4884 12.4952 27.3625 12.7367C27.2869 12.8638 26.8966 13.3087 26.4811 13.7154C25.7761 14.4145 25.7383 14.4908 25.7383 15.0755C25.7383 15.978 25.3102 17.8592 24.8821 18.8888C24.0889 20.8209 22.3892 22.8165 20.6894 23.8207C18.2972 25.2316 15.1118 25.5875 12.43 24.7613C11.5361 24.4817 10 23.7698 10 23.6427C10 23.6046 10.4659 23.5538 11.0324 23.541C12.216 23.5156 13.3995 23.1851 14.4067 22.6004L15.0866 22.1937L14.306 21.9267C13.198 21.5454 12.2034 20.6684 11.9515 19.8421C11.876 19.5752 11.9012 19.5625 12.6063 19.5625L13.3365 19.5498L12.7196 19.2574C11.9893 18.8888 11.322 18.266 10.9947 17.6304C10.7554 17.1728 10.4533 16.0161 10.5414 15.9271C10.5666 15.889 10.831 15.9653 11.1332 16.067C12.0019 16.3847 12.1152 16.3085 11.6116 15.7746C10.6673 14.8086 10.3777 13.3722 10.831 12.0121L11.045 11.402L11.876 12.2282C13.5757 13.8934 15.5776 14.8848 17.8691 15.1772L18.4987 15.2535Z" fill="black"/>
</svg>
