<svg width="36" height="36" viewBox="0 0 36 36" fill="none" xmlns="http://www.w3.org/2000/svg">
<path fill-rule="evenodd" clip-rule="evenodd" d="M18 0C8.05887 0 0 8.05887 0 18C0 27.9411 8.05887 36 18 36C27.9411 36 36 27.9411 36 18C36 8.05887 27.9411 0 18 0ZM19.4656 23.0821C19.2881 23.2693 18.9416 23.3071 18.9416 23.3071H17.794C17.794 23.3071 15.2623 23.4564 13.032 21.1777C10.5998 18.6917 8.45215 13.7592 8.45215 13.7592C8.45215 13.7592 8.3282 13.4356 8.46248 13.2798C8.61368 13.1038 9.02593 13.0927 9.02593 13.0927L11.769 13.0752C11.769 13.0752 12.0272 13.1167 12.2122 13.2503C12.3653 13.3609 12.4507 13.5665 12.4507 13.5665C12.4507 13.5665 12.894 14.6671 13.4809 15.6627C14.6275 17.6067 15.1609 18.0317 15.5497 17.8233C16.1169 17.5201 15.9469 15.0755 15.9469 15.0755C15.9469 15.0755 15.9572 14.1887 15.6614 13.7933C15.4323 13.4872 15.0003 13.3978 14.8097 13.3729C14.6547 13.3526 14.9083 13.0005 15.237 12.8429C15.7309 12.606 16.6024 12.5922 17.6325 12.6023C18.4354 12.6106 18.6664 12.6595 18.9801 12.7341C19.708 12.9066 19.6853 13.4591 19.6363 14.6518C19.6216 15.0084 19.6046 15.4224 19.6046 15.9005C19.6046 16.0079 19.6014 16.1224 19.5981 16.2403C19.5811 16.8513 19.5616 17.5509 19.9718 17.8113C20.1821 17.9441 20.6958 17.8307 21.9814 15.6885C22.5908 14.6726 23.0472 13.4789 23.0472 13.4789C23.0472 13.4789 23.1477 13.266 23.3027 13.1747C23.4614 13.0816 23.6755 13.1102 23.6755 13.1102L26.5622 13.0927C26.5622 13.0927 27.4299 12.9904 27.5698 13.3757C27.7172 13.7785 27.2458 14.7206 26.0663 16.2637C24.9475 17.7278 24.403 18.2669 24.453 18.7436C24.4895 19.092 24.8435 19.4071 25.5226 20.0255C26.9404 21.3176 27.3205 21.9974 27.4118 22.1607C27.4193 22.1743 27.4249 22.1843 27.4289 22.1908C28.0647 23.2259 26.7237 23.3071 26.7237 23.3071L24.1591 23.3421C24.1591 23.3421 23.6088 23.449 22.8838 22.9605C22.5041 22.7048 22.133 22.2871 21.7795 21.8894C21.2397 21.2819 20.7411 20.7207 20.3155 20.8533C19.6008 21.0763 19.6224 22.5871 19.6224 22.5871C19.6224 22.5871 19.6281 22.9107 19.4656 23.0821Z" fill="black"/>
</svg>
