<svg width="36" height="36" viewBox="0 0 36 36" fill="none" xmlns="http://www.w3.org/2000/svg">
<path fill-rule="evenodd" clip-rule="evenodd" d="M18 36C27.9411 36 36 27.9411 36 18C36 8.05887 27.9411 0 18 0C8.05887 0 0 8.05887 0 18C0 27.9411 8.05887 36 18 36ZM27.3764 10.5045C28.4086 10.7827 29.2227 11.6009 29.4982 12.64C30 14.5245 30 18.4545 30 18.4545C30 18.4545 30 22.3845 29.4982 24.2691C29.2227 25.3082 28.4086 26.1264 27.3764 26.4045C25.5055 26.9091 18 26.9091 18 26.9091C18 26.9091 10.4945 26.9091 8.62364 26.4045C7.59136 26.1264 6.77727 25.3082 6.50182 24.2691C6 22.3845 6 18.4545 6 18.4545C6 18.4545 6 14.5245 6.50182 12.64C6.77727 11.6009 7.59136 10.7827 8.62364 10.5045C10.4945 10 18 10 18 10C18 10 25.5055 10 27.3764 10.5045ZM21.8182 18.4545L15.5455 14.8859V22.0232L21.8182 18.4545Z" fill="black"/>
</svg>
