<svg xmlns="http://www.w3.org/2000/svg"><path d="M23.998 6C22.137 10.156 18.88 13.8 15.061 15.999V16H8.94C5.121 13.801 1.863 10.156 0.002 6H0V0H24V6H23.998V6ZM14.008 4H9.992C9.905 6.493 9.079 8.405 7.383 9.974C8.54 11.557 9.379 13.327 9.769 15H14.231C14.621 13.327 15.461 11.557 16.617 9.974C14.921 8.405 14.095 6.494 14.008 4ZM1.266 6.331C2.294 8.381 4.563 12.026 8.643 14.648C7.647 11.266 4.75 7.564 1.266 6.331V6.331ZM22.734 6.331C19.251 7.565 16.354 11.266 15.358 14.648C19.438 12.026 21.706 8.381 22.734 6.331ZM23 4H15.008C15.09 6.178 15.782 7.816 17.234 9.185C18.792 7.318 20.797 5.811 23 5.2V4V4ZM1 4V5.2C3.203 5.811 5.209 7.317 6.766 9.184C8.218 7.816 8.91 6.178 8.992 4H1V4ZM23 3V1H1V3H23Z"/></svg>
