<svg xmlns="http://www.w3.org/2000/svg"><path d="M11.502 0L14.666 0.646C13.575 3.686 13.95 5.205 13.986 5.394C14.423 7.666 15.647 8.771 15.998 9.062L16 24H0V9.061C0.36 8.769 1.579 7.657 2.014 5.394C2.045 5.229 2.396 3.785 1.356 0.647L4.484 0.009C5.89 1.998 7.537 2.067 7.99 2.067C9.307 2.067 10.567 1.315 11.502 0V0ZM1 23H15V9.518C14.553 9.082 13.43 7.799 13.004 5.582C12.707 4.036 13.106 2.274 13.356 1.4L12.293 1.185C11.815 3.561 10.946 6.998 8 6.998C5.043 6.998 4.173 3.561 3.695 1.184L2.639 1.402C2.879 2.292 3.277 4.116 2.996 5.582C2.57 7.799 1.447 9.082 1 9.518V23V23ZM4.814 1.774C5.222 3.596 6.066 5.999 8 5.999C9.93 5.999 10.772 3.593 11.175 1.78C10.461 2.416 9.393 3.064 7.991 3.061C6.841 3.058 5.748 2.609 4.814 1.774V1.774Z"/></svg>
