<svg width="40" height="40" viewBox="0 0 40 40" fill="none" xmlns="http://www.w3.org/2000/svg">
<path fill-rule="evenodd" clip-rule="evenodd" d="M20 0C8.9543 0 0 8.9543 0 20C0 31.0457 8.9543 40 20 40C31.0457 40 40 31.0457 40 20C40 8.9543 31.0457 0 20 0ZM31.1644 15.8778C32.0804 14.9619 32.0804 13.4769 31.1644 12.561C30.2485 11.645 28.7635 11.645 27.8476 12.561L17.9016 22.507L12.753 17.3585C11.8371 16.4426 10.3521 16.4426 9.4362 17.3585C8.52029 18.2744 8.52029 19.7594 9.4362 20.6753L15.9969 27.236C16.2753 27.5144 16.6062 27.7081 16.9578 27.8173C17.836 28.2564 18.9325 28.1097 19.665 27.3772L31.1644 15.8778Z" fill="white"/>
</svg>
