<svg width="40" height="40" viewBox="0 0 40 40" fill="none" xmlns="http://www.w3.org/2000/svg">
<path fill-rule="evenodd" clip-rule="evenodd" d="M20 40C31.0457 40 40 31.0457 40 20C40 8.9543 31.0457 0 20 0C8.9543 0 0 8.9543 0 20C0 31.0457 8.9543 40 20 40Z" fill="#FF7800"/>
<path fill-rule="evenodd" clip-rule="evenodd" d="M0 2.5C0 1.11929 1.11929 0 2.5 0V0C3.88071 0 5 1.11929 5 2.5V15C5 16.3807 3.88071 17.5 2.5 17.5V17.5C1.11929 17.5 0 16.3807 0 15V2.5Z" transform="translate(17.5 7.5)" fill="white"/>
<path fill-rule="evenodd" clip-rule="evenodd" d="M0 2.5C0 1.11929 1.11929 0 2.5 0V0C3.88071 0 5 1.11929 5 2.5V2.5C5 3.88071 3.88071 5 2.5 5V5C1.11929 5 0 3.88071 0 2.5V2.5Z" transform="translate(17.5 27.5)" fill="white"/>
</svg>