<svg width="19" height="19" viewBox="0 0 19 19" fill="none" xmlns="http://www.w3.org/2000/svg">
<path d="M9.66666 0.777664C4.76 0.777664 0.777771 4.75989 0.777771 9.66653C0.777771 14.5732 4.76 18.5555 9.66666 18.5555C14.5733 18.5555 18.5555 14.5732 18.5555 9.66653C18.5555 4.75989 14.5733 0.777664 9.66666 0.777664ZM9.66666 10.5555C9.17779 10.5555 8.77779 10.1555 8.77779 9.66653V6.111C8.77779 5.62211 9.17779 5.22211 9.66666 5.22211C10.1555 5.22211 10.5555 5.62211 10.5555 6.111V9.66653C10.5555 10.1555 10.1555 10.5555 9.66666 10.5555ZM10.5555 13.2221C10.5555 13.7131 10.1576 14.111 9.66666 14.111C9.17572 14.111 8.77779 13.7131 8.77779 13.2221C8.77779 12.7312 9.17572 12.3332 9.66666 12.3332C10.1576 12.3332 10.5555 12.7312 10.5555 13.2221Z" fill="white"/>
</svg>
