<svg width="14px" height="14px" viewBox="0 0 14 14" version="1.1" xmlns="http://www.w3.org/2000/svg" xmlns:xlink="http://www.w3.org/1999/xlink">
    <path d="M7,13.75 C6.5858,13.75 6.25,13.4142 6.25,13 L6.25,7.75 L1,7.75 C0.58579,7.75 0.25,7.4142 0.25,7 C0.25,6.5858 0.58579,6.25 1,6.25 L6.25,6.25 L6.25,1 C6.25,0.58579 6.5858,0.25 7,0.25 C7.4142,0.25 7.75,0.58579 7.75,1 L7.75,6.25 L13,6.25 C13.4142,6.25 13.75,6.5858 13.75,7 C13.75,7.4142 13.4142,7.75 13,7.75 L7.75,7.75 L7.75,13 C7.75,13.4142 7.4142,13.75 7,13.75 Z" id="Path"></path>
</svg>
