<svg width="24" height="24" viewBox="0 0 24 24" fill="none" xmlns="http://www.w3.org/2000/svg">
<path fill-rule="evenodd" clip-rule="evenodd" d="M12 2C10.8954 2 10 2.89543 10 4V4.28988C7.10851 5.15043 5 7.82898 5 11V16L3.68328 16.6584C3.26452 16.8677 3 17.2957 3 17.7639C3 18.4466 3.55341 19 4.23607 19H5H19H19.7639C20.4466 19 21 18.4466 21 17.7639C21 17.2957 20.7355 16.8677 20.3167 16.6584L19 16V11C19 7.82898 16.8915 5.15043 14 4.28988V4C14 2.89543 13.1046 2 12 2ZM14.2393 20C14.2393 21.278 12.9986 21.9999 11.9993 21.9999C11 21.9999 9.75928 21.278 9.75928 20H14.2393Z" fill="black"/>
</svg>
