<svg width="24" height="24" viewBox="0 0 24 24" fill="none" xmlns="http://www.w3.org/2000/svg">
<path fill-rule="evenodd" clip-rule="evenodd" d="M4.33522 7L3.22126 3.93942C3.03242 3.42059 2.45875 3.15308 1.93992 3.34192C1.42088 3.53083 1.1534 4.10488 1.34262 4.62381L5.53804 16.1296C5.72861 16.6522 6.22557 17 6.78186 17H9.25447C7.87376 17 6.75447 18.1193 6.75447 19.5C6.75447 20.8807 7.87376 22 9.25447 22C10.6352 22 11.7545 20.8807 11.7545 19.5C11.7545 18.1193 10.6352 17 9.25447 17H16.3115C14.9347 17.0046 13.8201 18.1221 13.8201 19.5C13.8201 20.8807 14.9394 22 16.3201 22C17.7008 22 18.8201 20.8807 18.8201 19.5C18.8201 18.1221 17.7054 17.0046 16.3286 17H18.9999C19.5522 17 19.9999 16.5523 19.9999 16C19.9999 15.4477 19.5522 15 18.9999 15H7.24698L6.88301 14H19.4998C20.2135 14 20.8554 13.5651 21.1204 12.9019L22.9367 8.19781C23.166 7.62409 22.7438 7 22.1264 7H4.33522ZM16.3201 18.6667C16.7803 18.6667 17.1534 19.0397 17.1534 19.5C17.1534 19.9602 16.7803 20.3333 16.3201 20.3333C15.8598 20.3333 15.4867 19.9602 15.4867 19.5C15.4867 19.0397 15.8598 18.6667 16.3201 18.6667ZM9.25447 18.6667C9.7147 18.6667 10.0878 19.0398 10.0878 19.5C10.0878 19.9602 9.7147 20.3333 9.25447 20.3333C8.79423 20.3333 8.42113 19.9602 8.42113 19.5C8.42113 19.0398 8.79423 18.6667 9.25447 18.6667Z" fill="black"/>
</svg>
