<svg width="24" height="24" viewBox="0 0 24 24" fill="none" xmlns="http://www.w3.org/2000/svg">
<path fill-rule="evenodd" clip-rule="evenodd" d="M12 22C17.5228 22 22 17.5228 22 12C22 6.47715 17.5228 2 12 2C6.47715 2 2 6.47715 2 12C2 17.5228 6.47715 22 12 22ZM18.5359 15.6813C17.2492 17.9609 14.8043 19.5 12 19.5C9.19569 19.5 6.75085 17.9609 5.46412 15.6813C7.21691 14.1663 9.50145 13.25 12 13.25C14.4986 13.25 16.7831 14.1663 18.5359 15.6813ZM14.5 9.5C14.5 10.8807 13.3807 12 12 12C10.6193 12 9.5 10.8807 9.5 9.5C9.5 8.11929 10.6193 7 12 7C13.3807 7 14.5 8.11929 14.5 9.5Z" fill="black"/>
</svg>
