<svg width="24" height="24" viewBox="0 0 24 24" fill="none" xmlns="http://www.w3.org/2000/svg">
<path fill-rule="evenodd" clip-rule="evenodd" d="M12 22C13.0551 22 14.0721 21.8366 15.027 21.5337C14.6969 21.1099 14.5 20.5775 14.5 20C14.5 18.6216 15.6216 17.5 17 17.5H17.5V17C17.5 15.6216 18.6216 14.5 20 14.5C20.5775 14.5 21.1099 14.6969 21.5337 15.027C21.8366 14.0721 22 13.0551 22 12C22 6.47715 17.5228 2 12 2C6.47715 2 2 6.47715 2 12C2 17.5228 6.47715 22 12 22ZM20.8997 16.5648C20.7371 16.2312 20.3943 16 20 16C19.45 16 19 16.45 19 17V19H17C16.45 19 16 19.45 16 20C16 20.3943 16.2312 20.7371 16.5648 20.8997C16.6966 20.9639 16.8443 21 17 21H19V23C19 23.55 19.45 24 20 24C20.55 24 21 23.55 21 23V21H23C23.55 21 24 20.55 24 20C24 19.45 23.55 19 23 19H21V17C21 16.8443 20.9639 16.6966 20.8997 16.5648ZM13.0415 15H14.8315C15.2815 15 15.5015 15.54 15.1915 15.85L12.4015 18.64C12.2015 18.84 11.8915 18.84 11.6915 18.64L8.90153 15.85C8.58153 15.54 8.80153 15 9.25153 15H11.0415V6C11.0415 5.45 11.4915 5 12.0415 5C12.5915 5 13.0415 5.45 13.0415 6V15Z" fill="black"/>
</svg>
