<svg width="24" height="24" viewBox="0 0 24 24" fill="none" xmlns="http://www.w3.org/2000/svg">
<path fill-rule="evenodd" clip-rule="evenodd" d="M12 22C17.5228 22 22 17.5228 22 12C22 6.47715 17.5228 2 12 2C6.47715 2 2 6.47715 2 12C2 17.5228 6.47715 22 12 22ZM13.0415 15H14.8315C15.2815 15 15.5015 15.54 15.1915 15.85L12.4015 18.64C12.2015 18.84 11.8915 18.84 11.6915 18.64L8.90153 15.85C8.58153 15.54 8.80153 15 9.25153 15H11.0415V6C11.0415 5.45 11.4915 5 12.0415 5C12.5915 5 13.0415 5.45 13.0415 6V15Z" fill="black"/>
</svg>
