<svg width="24" height="24" viewBox="0 0 24 24" fill="none" xmlns="http://www.w3.org/2000/svg">
<path fill-rule="evenodd" clip-rule="evenodd" d="M12 2C6.47715 2 2 6.47715 2 12C2 17.5228 6.47715 22 12 22C17.5228 22 22 17.5228 22 12C22 6.47715 17.5228 2 12 2ZM8.85177 13.1033L8.85177 14.8933C8.85177 15.3433 8.31177 15.5633 8.00177 15.2533L5.21177 12.4633C5.01177 12.2633 5.01177 11.9533 5.21177 11.7533L8.00177 8.96333C8.31177 8.64333 8.85177 8.86333 8.85177 9.31333V11.1033L17.8518 11.1033C18.4018 11.1033 18.8518 11.5533 18.8518 12.1033C18.8518 12.6533 18.4018 13.1033 17.8518 13.1033L8.85177 13.1033Z" fill="black"/>
</svg>
