<svg width="24" height="24" viewBox="0 0 24 24" fill="none" xmlns="http://www.w3.org/2000/svg">
<path d="M2 11.125C2 13.4581 3.60062 14.9675 5.76186 15.3806C5.7581 15.4207 5.75 15.4594 5.75 15.5V20.5C5.75 21.1906 6.30938 21.75 7 21.75H8.875C9.56562 21.75 10.125 21.19 10.125 20.5V15.5H12V6.75H7C4.23876 6.75 2 8.36376 2 11.125ZM13.25 15.5H15.125V6.75H13.25V15.5ZM21.7804 3.54216C21.3326 2.89165 20.3994 3.23375 19.7423 3.6718L15.125 6.75V15.5L19.7423 18.5782C20.3994 19.0162 21.3327 19.3585 21.7804 18.708C21.9189 18.5067 22 18.2629 22 18V4.25C22 3.9873 21.9189 3.74344 21.7804 3.54216Z" fill="black"/>
</svg>
