<svg width="24" height="24" viewBox="0 0 24 24" fill="none" xmlns="http://www.w3.org/2000/svg">
<path fill-rule="evenodd" clip-rule="evenodd" d="M12 2C6.47715 2 2 6.47715 2 12C2 17.5228 6.47715 22 12 22C17.5228 22 22 17.5228 22 12C22 6.47715 17.5228 2 12 2ZM15.0619 11.1066V9.31659C15.0619 8.86659 15.6019 8.64659 15.9119 8.95659L18.7019 11.7466C18.9019 11.9466 18.9019 12.2566 18.7019 12.4566L15.9119 15.2466C15.6019 15.5666 15.0619 15.3466 15.0619 14.8966V13.1066L6.06186 13.1066C5.51187 13.1066 5.06186 12.6566 5.06186 12.1066C5.06186 11.5566 5.51187 11.1066 6.06186 11.1066L15.0619 11.1066Z" fill="black"/>
</svg>
