<svg width="24" height="24" viewBox="0 0 24 24" fill="none" xmlns="http://www.w3.org/2000/svg">
<path fill-rule="evenodd" clip-rule="evenodd" d="M12 22C17.5228 22 22 17.5228 22 12C22 6.47715 17.5228 2 12 2C6.47715 2 2 6.47715 2 12C2 17.5228 6.47715 22 12 22ZM15.1232 12.4241C15.8072 11.8678 16.1492 11.0675 16.1492 10.0233C16.1492 9.02918 15.8368 8.27679 15.2121 7.76607C14.592 7.25536 13.6572 7 12.4078 7H10.0281C9.75199 7 9.52814 7.22386 9.52814 7.5V11.9028H9.25C8.97386 11.9028 8.75 12.1267 8.75 12.4028V12.7647C8.75 13.0409 8.97386 13.2647 9.25 13.2647H9.52814V14.0041H9.25C8.97386 14.0041 8.75 14.2279 8.75 14.5041V14.866C8.75 15.1421 8.97386 15.366 9.25 15.366H9.52814V16.5C9.52814 16.7761 9.752 17 10.0281 17H10.6629C10.939 17 11.1629 16.7761 11.1629 16.5V15.366H12.9194C13.1955 15.366 13.4194 15.1421 13.4194 14.866V14.5041C13.4194 14.2279 13.1955 14.0041 12.9194 14.0041H11.1629V13.2585H12.2026C13.4657 13.2585 14.4392 12.9804 15.1232 12.4241ZM12.0316 11.8837H11.1629V8.36799H12.2983C13.0416 8.36799 13.5888 8.50935 13.9399 8.79207C14.291 9.07478 14.4666 9.50342 14.4666 10.078C14.4666 10.6981 14.2705 11.1541 13.8783 11.446C13.4862 11.7378 12.8706 11.8837 12.0316 11.8837Z" fill="black"/>
</svg>
