<svg width="24" height="24" viewBox="0 0 24 24" fill="none" xmlns="http://www.w3.org/2000/svg">
<path fill-rule="evenodd" clip-rule="evenodd" d="M12 2C6.47715 2 2 6.47715 2 12C2 17.5228 6.47715 22 12 22C17.5228 22 22 17.5228 22 12C22 6.47715 17.5228 2 12 2ZM10.9585 9H9.16847C8.71847 9 8.49847 8.46 8.80847 8.15L11.5985 5.36C11.7985 5.16 12.1085 5.16 12.3085 5.36L15.0985 8.15C15.4185 8.46 15.1985 9 14.7485 9L12.9585 9L12.9585 18C12.9585 18.55 12.5085 19 11.9585 19C11.4085 19 10.9585 18.55 10.9585 18L10.9585 9Z" fill="black"/>
</svg>
