<svg width="24" height="24" viewBox="0 0 24 24" fill="none" xmlns="http://www.w3.org/2000/svg">
<path fill-rule="evenodd" clip-rule="evenodd" d="M16.5648 20.8997C16.2312 20.7371 16 20.3943 16 20C16 19.45 16.45 19 17 19H19V17C19 16.45 19.45 16 20 16C20.3943 16 20.7371 16.2312 20.8997 16.5648C20.9639 16.6965 21 16.8443 21 17V19H23C23.55 19 24 19.45 24 20C24 20.55 23.55 21 23 21H21V23C21 23.55 20.55 24 20 24C19.45 24 19 23.55 19 23V21H17C16.8443 21 16.6965 20.9639 16.5648 20.8997ZM14.5 20C14.5 20.5775 14.6969 21.1099 15.027 21.5337C14.0721 21.8366 13.0551 22 12 22C6.47715 22 2 17.5228 2 12C2 6.47715 6.47715 2 12 2C17.5228 2 22 6.47715 22 12C22 13.0551 21.8366 14.0721 21.5337 15.027C21.1099 14.6969 20.5775 14.5 20 14.5C18.6216 14.5 17.5 15.6216 17.5 17V17.5H17C15.6216 17.5 14.5 18.6216 14.5 20ZM10.9585 9H9.16847C8.71847 9 8.49847 8.46 8.80847 8.15L11.5985 5.36C11.7985 5.16 12.1085 5.16 12.3085 5.36L15.0985 8.15C15.4185 8.46 15.1985 9 14.7485 9H12.9585V18C12.9585 18.55 12.5085 19 11.9585 19C11.4085 19 10.9585 18.55 10.9585 18V9Z" fill="black"/>
</svg>
