<svg width="24" height="24" viewBox="0 0 24 24" fill="none" xmlns="http://www.w3.org/2000/svg">
<path d="M19 15V5H5V15H8C8.55228 15 8.98357 15.46 9.16368 15.982C9.56934 17.158 10.6841 18 12 18C13.3159 18 14.4307 17.158 14.8363 15.982C15.0164 15.46 15.4477 15 16 15H19ZM19 3C20.1 3 21 3.9 21 5V19C21 20.1 20.1 21 19 21H5C3.89 21 3 20.1 3 19V5C3 3.9 3.89 3 5 3H19ZM8 13C7.44772 13 7 12.5523 7 12C7 11.4477 7.44772 11 8 11H16C16.5523 11 17 11.4477 17 12C17 12.5523 16.5523 13 16 13H8ZM8 9C7.44772 9 7 8.55228 7 8C7 7.44772 7.44772 7 8 7H16C16.5523 7 17 7.44772 17 8C17 8.55228 16.5523 9 16 9H8Z" fill="black"/>
</svg>
