<svg width="24" height="24" viewBox="0 0 24 24" fill="none" xmlns="http://www.w3.org/2000/svg">
<path d="M21 2H8C7.4 2 7 2.4 7 3V7.1H3.4C2.6 7.1 2 7.7 2 8.5V15.9C2 16.7 2.6 17.3 3.4 17.3H7V21C7 21.6 7.4 22 8 22H21C21.6 22 22 21.6 22 21V3C22 2.4 21.6 2 21 2ZM7 16.2H3.4C3.2 16.2 3 16 3 15.8V11.7H7V16.2ZM7 9.7H3V8.5C3 8.3 3.2 8.1 3.4 8.1H7V9.7ZM12 20H9V17H12V20ZM12 16.1H9V13.1H12V16.1ZM16 20H13V17H16V20ZM16 16.1H13V13.1H16V16.1ZM20 20H17V17H20V20ZM20 16.1H17V13.1H20V16.1ZM20 12.1H9V4.1H20V12.1Z" fill="black"/>
</svg>
