<svg width="24" height="24" viewBox="0 0 24 24" fill="none" xmlns="http://www.w3.org/2000/svg">
<path fill-rule="evenodd" clip-rule="evenodd" d="M20.07 1.80001L19.11 2.76001L21.23 4.88001L22.19 3.92001C22.58 3.53001 22.58 2.90001 22.19 2.51001L21.48 1.80001C21.3875 1.70731 21.2776 1.63376 21.1566 1.58358C21.0357 1.5334 20.906 1.50757 20.775 1.50757C20.644 1.50757 20.5143 1.5334 20.3934 1.58358C20.2724 1.63376 20.1625 1.70731 20.07 1.80001ZM20.23 5.88001L18.11 3.76001L12.15 9.74001C12.05 9.83001 12 9.96001 12 10.09V11.5C12 11.78 12.22 12 12.5 12H13.91C14.0417 11.9971 14.1671 11.9433 14.26 11.85L20.23 5.88001ZM16.4532 3.29726L12.763 7H7C6.44772 7 6 7.44772 6 8C6 8.55228 6.44772 9 7 9H10.8241C10.5993 9.34174 10.5 9.72993 10.5 10.09V11H7C6.44772 11 6 11.4477 6 12C6 12.5523 6.44772 13 7 13H11.174C11.5264 13.3115 11.9903 13.5 12.5 13.5H13.9267L13.9435 13.4996C14.4617 13.4881 14.9553 13.2768 15.3214 12.9099L15.3229 12.9085L20.99 7.24133V21.8C20.87 21.8 20.74 21.75 20.64 21.65L19.85 20.86C19.65 20.66 19.34 20.66 19.14 20.86L18.35 21.65C18.15 21.85 17.84 21.85 17.64 21.65L16.85 20.86C16.65 20.66 16.34 20.66 16.14 20.86L15.35 21.65C15.15 21.85 14.84 21.85 14.64 21.65L13.85 20.86C13.65 20.66 13.34 20.66 13.14 20.86L12.35 21.65C12.15 21.85 11.84 21.85 11.64 21.65L10.85 20.86C10.65 20.66 10.34 20.66 10.14 20.86L9.35 21.65C9.15 21.85 8.84 21.85 8.64 21.65L7.85 20.86C7.65 20.66 7.34 20.66 7.14 20.86L6.35 21.65C6.15 21.85 5.84 21.85 5.64 21.65L4.85 20.86C4.65 20.66 4.34 20.66 4.14 20.86L3.35 21.65C3.26 21.75 3.13 21.8 3 21.8V2.21001C3.13 2.21001 3.26 2.26001 3.35 2.35001L4.14 3.15001C4.34 3.35001 4.65 3.35001 4.85 3.15001L5.64 2.35001C5.84 2.15001 6.15 2.15001 6.35 2.35001L7.14 3.15001C7.34 3.35001 7.65 3.35001 7.85 3.15001L8.64 2.35001C8.84 2.15001 9.15 2.15001 9.35 2.35001L10.15 3.15001C10.35 3.35001 10.66 3.35001 10.86 3.15001L11.65 2.36001C11.85 2.16001 12.16 2.16001 12.36 2.36001L13.15 3.15001C13.35 3.35001 13.66 3.35001 13.86 3.15001L14.65 2.36001C14.85 2.16001 15.16 2.16001 15.36 2.36001L16.15 3.15001C16.2365 3.23646 16.3435 3.28555 16.4532 3.29726ZM7 15C6.44772 15 6 15.4477 6 16C6 16.5523 6.44772 17 7 17H17C17.5523 17 18 16.5523 18 16C18 15.4477 17.5523 15 17 15H7Z" fill="black"/>
</svg>
