<svg width="24" height="24" viewBox="0 0 24 24" fill="none" xmlns="http://www.w3.org/2000/svg">
<path d="M3 21C2.71667 21 2.47917 20.9042 2.2875 20.7125C2.09583 20.5208 2 20.2833 2 20C2 19.7167 2.09583 19.4792 2.2875 19.2875C2.47917 19.0958 2.71667 19 3 19H21C21.2833 19 21.5208 19.0958 21.7125 19.2875C21.9042 19.4792 22 19.7167 22 20C22 20.2833 21.9042 20.5208 21.7125 20.7125C21.5208 20.9042 21.2833 21 21 21H3ZM5.5 18C5.08333 18 4.72917 17.8542 4.4375 17.5625C4.14583 17.2708 4 16.9167 4 16.5V4.5C4 4.08333 4.14583 3.72917 4.4375 3.4375C4.72917 3.14583 5.08333 3 5.5 3C5.91667 3 6.27083 3.14583 6.5625 3.4375C6.85417 3.72917 7 4.08333 7 4.5V16.5C7 16.9167 6.85417 17.2708 6.5625 17.5625C6.27083 17.8542 5.91667 18 5.5 18ZM10.5 18C10.0833 18 9.72917 17.8542 9.4375 17.5625C9.14583 17.2708 9 16.9167 9 16.5V4.5C9 4.08333 9.14583 3.72917 9.4375 3.4375C9.72917 3.14583 10.0833 3 10.5 3C10.9167 3 11.2708 3.14583 11.5625 3.4375C11.8542 3.72917 12 4.08333 12 4.5V16.5C12 16.9167 11.8542 17.2708 11.5625 17.5625C11.2708 17.8542 10.9167 18 10.5 18Z" fill="black"/>
<path d="M17.138 17.7333C17.484 17.9579 17.8607 18.0269 18.2683 17.9403C18.6758 17.8537 18.9919 17.6374 19.2166 17.2915C19.4412 16.9455 19.5103 16.5688 19.4236 16.1612L16.9287 4.42344C16.8421 4.01588 16.6258 3.69977 16.2798 3.47512C15.9339 3.25047 15.5572 3.18146 15.1496 3.26809C14.742 3.35472 14.4259 3.571 14.2013 3.91693C13.9766 4.26287 13.9076 4.63962 13.9942 5.04718L16.4892 16.7849C16.5758 17.1925 16.7921 17.5086 17.138 17.7333Z" fill="black"/>
</svg>
