<svg width="24" height="24" viewBox="0 0 24 24" fill="none" xmlns="http://www.w3.org/2000/svg">
<path d="M13.1579 12.3333V17.6667C13.1579 18.4 13.8137 19 14.6316 19H21.2632V19.6667C21.2632 20.4 20.6 21 19.7895 21H9.47368C8.65579 21 8 20.4 8 19.6667V10.3333C8 9.6 8.65579 9 9.47368 9H19.7895C20.6 9 21.2632 9.6 21.2632 10.3333V11H14.6316C13.8137 11 13.1579 11.6 13.1579 12.3333Z" fill="black"/>
<path fill-rule="evenodd" clip-rule="evenodd" d="M14.6316 13C14.6316 12.6333 14.9632 12.3333 15.3684 12.3333H21C21.5523 12.3333 22 12.781 22 13.3333V16.6667C22 17.219 21.5523 17.6667 21 17.6667H15.3684C14.9632 17.6667 14.6316 17.3667 14.6316 17V13ZM17 16C17.5523 16 18 15.5523 18 15C18 14.4477 17.5523 14 17 14C16.4477 14 16 14.4477 16 15C16 15.5523 16.4477 16 17 16Z" fill="black"/>
<path d="M2 5.5C2 4.11929 3.11929 3 4.5 3H15.5C16.8807 3 18 4.11929 18 5.5V8H16.4V5.6C16.4 5.04772 15.9523 4.6 15.4 4.6H4.6C4.04772 4.6 3.6 5.04772 3.6 5.6V11.6C3.6 12.1523 4.04772 12.6 4.6 12.6H6.5V14.2H4.5C3.11929 14.2 2 13.0807 2 11.7V5.5Z" fill="black"/>
<path d="M2 6H18V8H2V6Z" fill="black"/>
</svg>
