<svg width="24" height="24" viewBox="0 0 24 24" fill="none" xmlns="http://www.w3.org/2000/svg">
<path d="M11.34 15.02C11.73 15.41 12.36 15.41 12.75 15.02L19.11 8.65998C19.5 8.26998 19.5 7.63998 19.11 7.24998L14.16 2.29998C13.78 1.89998 13.15 1.89998 12.76 2.28998L6.39 8.65998C6 9.04998 6 9.67998 6.39 10.07L11.34 15.02ZM13.46 4.40998L17 7.94998L12.05 12.9L8.51 9.35998L13.46 4.40998ZM20.41 15.41L18.29 13.29C18.11 13.11 17.85 13 17.59 13H17.32L15.32 15H17.23L19 17H5L6.78 15H8.83L6.83 13H6.41C6.14 13 5.89 13.11 5.7 13.29L3.58 15.41C3.21 15.79 3 16.3 3 16.83V20C3 21.1 3.9 22 5 22H19C20.1 22 21 21.11 21 20V16.83C21 16.3 20.79 15.79 20.41 15.41Z" fill="black"/>
</svg>
