<svg width="24" height="24" viewBox="0 0 24 24" fill="none" xmlns="http://www.w3.org/2000/svg">
    <path fill-rule="evenodd" clip-rule="evenodd"
          d="M19 4H5C3.89 4 3 4.9 3 6V18C3 19.1 3.89 20 5 20H13V18H6C5.45 18 5 17.55 5 17V8H19V13H21V6C21 4.9 20.11 4 19 4ZM20.15 15.85L18.71 17.29L20.7 19.29C21.09 19.68 21.09 20.31 20.7 20.7C20.31 21.09 19.68 21.09 19.29 20.7L17.29 18.7L15.85 20.14C15.54 20.46 15 20.24 15 19.79V16C15 15.45 15.45 15 16 15H19.8C20.24 15 20.47 15.53 20.15 15.85Z"
          fill="black"/>
</svg>
