<svg width="24" height="24" viewBox="0 0 24 24" fill="none" xmlns="http://www.w3.org/2000/svg">
<path d="M17 13C17 13.5523 16.5523 14 16 14C15.4477 14 15 13.5523 15 13C15 12.4477 15.4477 12 16 12C16.5523 12 17 12.4477 17 13Z" fill="#231F20"/>
<path fill-rule="evenodd" clip-rule="evenodd" d="M2 6C2 4.89543 2.89543 4 4 4H12C13.1046 4 14 4.89543 14 6H19C20.6569 6 22 7.34315 22 9V17C22 18.6569 20.6569 20 19 20H5C3.34315 20 2 18.6569 2 17V6ZM19 13C19 14.6569 17.6569 16 16 16C14.6938 16 13.5825 15.1652 13.1707 14H10C10 14.5523 9.55228 15 9 15C8.44772 15 8 14.5523 8 14H7V15C7 15.5523 6.55228 16 6 16C5.44772 16 5 15.5523 5 15V13C5 12.4477 5.44772 12 6 12H13.1707C13.5825 10.8348 14.6938 10 16 10C17.6569 10 19 11.3431 19 13Z" fill="#231F20"/>
</svg>
