<svg width="24" height="24" viewBox="0 0 24 24" fill="none" xmlns="http://www.w3.org/2000/svg">
<path d="M2 5C2 3.34315 3.34315 2 5 2H9C10.6569 2 12 3.34315 12 5V9C12 10.6569 10.6569 12 9 12H5C3.34315 12 2 10.6569 2 9V5Z" fill="#231F20"/>
<path fill-rule="evenodd" clip-rule="evenodd" d="M14 7C14 5.34315 15.3431 4 17 4H19C20.6569 4 22 5.34315 22 7V9C22 10.6569 20.6569 12 19 12H17C15.3431 12 14 10.6569 14 9V7ZM17 6C16.4477 6 16 6.44772 16 7V9C16 9.55228 16.4477 10 17 10H19C19.5523 10 20 9.55228 20 9V7C20 6.44772 19.5523 6 19 6H17Z" fill="#231F20"/>
<path fill-rule="evenodd" clip-rule="evenodd" d="M14 17C14 15.3431 15.3431 14 17 14H19C20.6569 14 22 15.3431 22 17V19C22 20.6569 20.6569 22 19 22H17C15.3431 22 14 20.6569 14 19V17ZM17 16C16.4477 16 16 16.4477 16 17V19C16 19.5523 16.4477 20 17 20H19C19.5523 20 20 19.5523 20 19V17C20 16.4477 19.5523 16 19 16H17Z" fill="#231F20"/>
<path fill-rule="evenodd" clip-rule="evenodd" d="M4 17C4 15.3431 5.34315 14 7 14H9C10.6569 14 12 15.3431 12 17V19C12 20.6569 10.6569 22 9 22H7C5.34315 22 4 20.6569 4 19V17ZM7 16C6.44772 16 6 16.4477 6 17V19C6 19.5523 6.44772 20 7 20H9C9.55228 20 10 19.5523 10 19V17C10 16.4477 9.55228 16 9 16H7Z" fill="#231F20"/>
</svg>
