<svg width="24" height="24" viewBox="0 0 24 24" fill="none" xmlns="http://www.w3.org/2000/svg">
<path fill-rule="evenodd" clip-rule="evenodd" d="M10 18C14.4183 18 18 14.4183 18 10C18 5.58172 14.4183 2 10 2C5.58172 2 2 5.58172 2 10C2 14.4183 5.58172 18 10 18ZM15.5433 7.7039C15.8448 8.43185 16 9.21207 16 10H10L10 4C10.7879 4 11.5681 4.15519 12.2961 4.45672C13.0241 4.75825 13.6855 5.20021 14.2426 5.75736C14.7998 6.31451 15.2417 6.97595 15.5433 7.7039Z" fill="#231F20"/>
<path d="M14.7915 17.6199L18.5858 21.4142C19.3669 22.1953 20.6332 22.1953 21.4142 21.4142C22.1953 20.6332 22.1953 19.3669 21.4142 18.5858L17.6199 14.7915C16.9009 15.9326 15.9326 16.9009 14.7915 17.6199Z" fill="#231F20"/>
</svg>
