<svg width="24" height="24" viewBox="0 0 24 24" fill="none" xmlns="http://www.w3.org/2000/svg">
<path fill-rule="evenodd" clip-rule="evenodd" d="M12 20C17.5228 20 22 16.4183 22 12C22 7.58172 17.5228 4 12 4C6.47715 4 2 7.58172 2 12C2 13.6925 2.65698 15.2622 3.77804 16.5549L2 21L7.52787 19.1574C8.87358 19.6966 10.3925 20 12 20ZM9 9C8.44772 9 8 9.44772 8 10C8 10.5523 8.44772 11 9 11H15C15.5523 11 16 10.5523 16 10C16 9.44772 15.5523 9 15 9H9ZM9 13C8.44772 13 8 13.4477 8 14C8 14.5523 8.44772 15 9 15H11C11.5523 15 12 14.5523 12 14C12 13.4477 11.5523 13 11 13H9Z" fill="#231F20"/>
</svg>
