<svg width="24" height="24" viewBox="0 0 24 24" fill="none" xmlns="http://www.w3.org/2000/svg">
<path fill-rule="evenodd" clip-rule="evenodd" d="M12 2C6.47715 2 2 6.47715 2 12C2 17.5228 6.47715 22 12 22C17.5228 22 22 17.5228 22 12C22 6.47715 17.5228 2 12 2ZM4 12C4 7.58172 7.58172 4 12 4C16.4183 4 20 7.58172 20 12C20 16.4183 16.4183 20 12 20C7.58172 20 4 16.4183 4 12ZM15.1132 12.4241C15.7972 11.8678 16.1392 11.0675 16.1392 10.0233C16.1392 9.02918 15.8268 8.27679 15.2021 7.76607C14.582 7.25536 13.6472 7 12.3977 7H10.0181C9.74198 7 9.51813 7.22386 9.51813 7.5V11.9028H9.23999C8.96385 11.9028 8.73999 12.1267 8.73999 12.4028V12.7647C8.73999 13.0409 8.96385 13.2647 9.23999 13.2647H9.51813V14.0041H9.23999C8.96385 14.0041 8.73999 14.2279 8.73999 14.5041V14.866C8.73999 15.1421 8.96385 15.366 9.23999 15.366H9.51813V16.5C9.51813 16.7761 9.74199 17 10.0181 17H10.6529C10.929 17 11.1529 16.7761 11.1529 16.5V15.366H12.9094C13.1855 15.366 13.4094 15.1421 13.4094 14.866V14.5041C13.4094 14.2279 13.1855 14.0041 12.9094 14.0041H11.1529V13.2585H12.1925C13.4557 13.2585 14.4292 12.9804 15.1132 12.4241ZM12.0215 11.8837H11.1529V8.36799H12.2883C13.0316 8.36799 13.5788 8.50935 13.9299 8.79207C14.281 9.07478 14.4566 9.50342 14.4566 10.078C14.4566 10.6981 14.2605 11.1541 13.8683 11.446C13.4762 11.7378 12.8606 11.8837 12.0215 11.8837Z" fill="#080808"/>
</svg>
