<svg width="24" height="24" viewBox="0 0 24 24" fill="none" xmlns="http://www.w3.org/2000/svg">
<path fill-rule="evenodd" clip-rule="evenodd" d="M19.6878 11.9954V11.788L21.839 10.2076C21.9459 10.7991 21.9998 11.3991 22 12.0002C21.9999 14.2684 21.2288 16.4692 19.8131 18.2414C18.3975 20.0135 16.4214 21.2518 14.2093 21.7529C11.9971 22.254 9.68033 21.9882 7.63918 20.9991C5.59802 20.0099 3.95376 18.3563 2.97627 16.3095C1.99879 14.2628 1.74615 11.9445 2.25983 9.73528C2.77351 7.52602 4.02299 5.55703 5.80318 4.15147C7.58337 2.74592 9.78851 1.98731 12.0567 2.00016C14.3248 2.01301 16.5212 2.79656 18.2854 4.2222L16.3342 5.6539C14.9145 4.68381 13.2108 4.21715 11.4949 4.32838C9.77907 4.4396 8.14989 5.12231 6.86734 6.26756C5.58478 7.41282 4.72275 8.95463 4.41878 10.647C4.11481 12.3394 4.38641 14.0848 5.19025 15.6048C5.9941 17.1248 7.28387 18.3318 8.85377 19.0332C10.4237 19.7346 12.1833 19.89 13.8518 19.4745C15.5203 19.0591 17.0017 18.0969 18.0594 16.7413C19.1172 15.3857 19.6905 13.7148 19.6878 11.9954ZM8.19727 12.2026V9.33191L12.0021 11.7173L19.9119 5.89777C20.3877 6.51152 20.7904 7.17862 21.1119 7.88557L12.0021 14.588L8.19727 12.2026Z" fill="black"/>
</svg>
