<svg width="24" height="24" viewBox="0 0 24 24" fill="none" xmlns="http://www.w3.org/2000/svg">
<path d="m 16,6 h 4 c 1.11,0 2,0.89 2,2 v 11 c 0,1.11 -0.89,2 -2,2 H 4 C 2.89,21 2,20.11 2,19 L 2.01,8 C 2.01,6.89 2.89,6 4,6 H 8 V 4 C 8,2.89 8.89,2 10,2 h 4 c 1.11,0 2,0.89 2,2 z m -6,0 h 4 V 4 h -4 z m 5.0824,7.513 c 0,-0.1374 -0.0091,-0.2748 -0.0366,-0.4031 l 0.8702,-0.6778 c 0.0733,-0.0641 0.1008,-0.1741 0.0458,-0.2657 L 15.1374,10.7466 C 15.0916,10.655 14.9817,10.6275 14.8809,10.655 l -1.0168,0.4122 C 13.6534,10.9023 13.4244,10.7649 13.1679,10.6641 L 13.0122,9.58323 C 13.0031,9.47331 12.9114,9.40002 12.8198,9.40002 h -1.6396 c -0.1008,0 -0.1924,0.07329 -0.2016,0.17405 L 10.8229,10.655 c -0.2473,0.1099 -0.4855,0.2382 -0.6962,0.403 L 9.10993,10.6458 c -0.0916,-0.0366 -0.20153,0 -0.25649,0.0916 l -0.82442,1.4199 c -0.04581,0.0916 -0.03665,0.2015 0.0458,0.2656 l 0.87022,0.6779 c -0.01832,0.1282 -0.02748,0.2656 -0.02748,0.403 0,0.1374 0.00916,0.2748 0.02748,0.4031 l -0.87022,0.6778 c -0.07328,0.0642 -0.10077,0.1741 -0.0458,0.2657 l 0.82442,1.4198 c 0.0458,0.0916 0.15573,0.1191 0.25649,0.0916 l 1.01677,-0.4122 c 0.2107,0.1649 0.4397,0.3023 0.6962,0.4031 l 0.1557,1.0809 c 0.0183,0.1008 0.1008,0.174 0.2016,0.174 h 1.6396 c 0.1008,0 0.1924,-0.0732 0.2016,-0.174 l 0.1557,-1.0809 c 0.2473,-0.1099 0.4855,-0.2382 0.687,-0.4031 l 1.026,0.4122 c 0.0916,0.0367 0.2015,0 0.2565,-0.0916 L 15.971,14.8504 C 16.0259,14.768 15.9985,14.658 15.9252,14.5939 L 15.0458,13.916 c 0.0183,-0.1282 0.0366,-0.2656 0.0366,-0.403 z m -4.3236,-0.0092 c 0,0.6871 0.5588,1.2367 1.2366,1.2367 0.6779,0 1.2367,-0.5496 1.2367,-1.2367 0,-0.687 -0.5497,-1.2366 -1.2367,-1.2366 -0.687,0 -1.2366,0.5496 -1.2366,1.2366 z" fill="black"/>
</svg>
