<svg width="24" height="24" viewBox="0 0 24 24" fill="none" xmlns="http://www.w3.org/2000/svg">
<path d="M21.9002 7.89L20.8502 4.52C20.6302 3.62 19.8502 3 18.9402 3H5.0502C4.1502 3 3.3602 3.63 3.1502 4.52L2.1002 7.89C1.6402 9.86 2.9502 11 3.0002 11.06V19C3.0002 20.1 3.9002 21 5.0002 21H19.0002C20.1002 21 21.0002 20.1 21.0002 19V11.06C22.1202 9.94 22.0902 8.65 21.9002 7.89ZM13.0002 5H14.9602L15.5002 8.52C15.5902 9.23 15.1102 10 14.2202 10C13.5502 10 13.0002 9.41 13.0002 8.69V5ZM6.4402 8.86C6.3602 9.51 5.8402 10 5.2302 10C4.3002 10 3.8802 9.03 4.0402 8.36L5.0502 5H7.0202L6.4402 8.86ZM11.0002 8.69C11.0002 9.41 10.4502 10 9.7102 10C8.9602 10 8.4102 9.3 8.4902 8.52L9.0402 5H11.0002V8.69ZM18.7702 10C18.1602 10 17.6302 9.51 17.5602 8.86L16.9802 5L18.9102 4.99L19.9602 8.36C20.1202 9.03 19.7102 10 18.7702 10Z"/>
</svg>
