<svg width="21" height="18" viewBox="0 0 21 18" fill="none" xmlns="http://www.w3.org/2000/svg">
<path d="M19.9002 4.89L18.8502 1.52C18.6302 0.62 17.8502 0 16.9402 0H3.0502C2.1502 0 1.3602 0.63 1.1502 1.52L0.100197 4.89C-0.359803 6.86 0.950197 8 1.0002 8.06V16C1.0002 17.1 1.9002 18 3.0002 18H17.0002C18.1002 18 19.0002 17.1 19.0002 16V8.06C20.1202 6.94 20.0902 5.65 19.9002 4.89ZM11.0002 2H12.9602L13.5002 5.52C13.5902 6.23 13.1102 7 12.2202 7C11.5502 7 11.0002 6.41 11.0002 5.69V2ZM4.4402 5.86C4.3602 6.51 3.8402 7 3.2302 7C2.3002 7 1.8802 6.03 2.0402 5.36L3.0502 2H5.0202L4.4402 5.86ZM9.0002 5.69C9.0002 6.41 8.4502 7 7.7102 7C6.9602 7 6.4102 6.3 6.4902 5.52L7.0402 2H9.0002V5.69ZM16.7702 7C16.1602 7 15.6302 6.51 15.5602 5.86L14.9802 2L16.9102 1.99L17.9602 5.36C18.1202 6.03 17.7102 7 16.7702 7Z"/>
</svg>
