<svg width="24" height="24" viewBox="0 0 24 24" fill="none" xmlns="http://www.w3.org/2000/svg">
<path fill-rule="evenodd" clip-rule="evenodd" d="M11.2569 21.7248C11.0734 21.9083 10.7982 22 10.5229 22V21.9083H5.20183C4.65138 21.9083 4.10092 21.7248 3.6422 21.2661C3.18349 20.8073 3 20.2569 3 19.6147V10.4404C3 9.24771 3.18349 8.14679 3.6422 7.13761C4.10092 6.12844 4.74312 5.21101 5.47707 4.47706C6.30275 3.74312 7.22018 3.10092 8.22936 2.6422C9.23853 2.18349 10.3395 2 11.5321 2C12.7248 2 13.8257 2.18349 14.8349 2.73395C15.9358 3.19266 16.8532 3.83486 17.5872 4.56881C18.3211 5.30275 18.9633 6.22018 19.422 7.22936C19.8807 8.23853 20.0642 9.33945 20.0642 10.5321V14.5008C20.0429 14.5003 20.0215 14.5 20 14.5C18.6216 14.5 17.5 15.6216 17.5 17V17.5H17C16.1614 17.5 15.418 17.9151 14.9642 18.5505C14.9516 18.5385 14.9391 18.5262 14.9266 18.5138C14.4679 18.055 14.2844 17.5046 14.2844 16.8624V13.6514C14.2844 13.0092 14.4679 12.4587 14.9266 12C15.3853 11.5413 15.9358 11.3578 16.578 11.3578H18.1376V10.5321C18.1376 8.69725 17.4954 7.13761 16.211 5.85321C14.9266 4.56881 13.367 4.01835 11.5321 4.01835C9.69725 4.01835 8.13762 4.56881 6.85321 5.85321C5.56881 7.13761 4.92661 8.69725 4.92661 10.5321V11.2661H6.48624C7.12844 11.2661 7.6789 11.4495 8.13762 11.9083C8.59633 12.367 8.77982 12.9174 8.77982 13.5596V16.7706C8.77982 17.4128 8.59633 17.9633 8.13762 18.422C7.6789 18.8807 7.12844 19.0642 6.48624 19.0642H4.92661V19.7064C4.92661 19.7982 4.92661 19.7982 5.01835 19.8899C5.01835 19.9817 5.11009 19.9817 5.20183 19.9817H10.5229C10.7982 19.9817 11.0734 20.0734 11.2569 20.2569C11.4404 20.4404 11.5321 20.7156 11.5321 20.9908C11.5321 21.2661 11.4404 21.5413 11.2569 21.7248ZM23 21H21V23C21 23.55 20.55 24 20 24C19.45 24 19 23.55 19 23V21H17C16.45 21 16 20.55 16 20C16 19.45 16.45 19 17 19H19V17C19 16.45 19.45 16 20 16C20.55 16 21 16.45 21 17V19H23C23.55 19 24 19.45 24 20C24 20.55 23.55 21 23 21Z" fill="black"/>
</svg>
