<svg width="24" height="24" viewBox="0 0 24 24" fill="none" xmlns="http://www.w3.org/2000/svg">
<path d="M10.5232 22C10.7984 22 11.0736 21.9083 11.2571 21.7248C11.4406 21.5413 11.5323 21.2661 11.5323 20.9908C11.5323 20.7156 11.4406 20.4404 11.2571 20.2569C11.0736 20.0734 10.7984 19.9817 10.5232 19.9817H5.20207C5.11032 19.9817 5.01858 19.9817 5.01858 19.8899C4.92684 19.7982 4.92684 19.7982 4.92684 19.7064V19.0642H6.48647C7.12867 19.0642 7.67913 18.8807 8.13785 18.422C8.59656 17.9633 8.78005 17.4128 8.78005 16.7706V13.5596C8.78005 12.9174 8.59656 12.367 8.13785 11.9083C7.67913 11.4495 7.12867 11.2661 6.48647 11.2661H4.92684V10.5321C4.92684 8.69725 5.56904 7.13761 6.85344 5.85321C8.13785 4.56881 9.69748 4.01835 11.5323 4.01835C13.3672 4.01835 14.9268 4.56881 16.2112 5.85321C17.4956 7.13761 18.1378 8.69725 18.1378 10.5321V11.3578H16.5782C15.936 11.3578 15.3856 11.5413 14.9268 12C14.4681 12.4587 14.2846 13.0092 14.2846 13.6514V16.8624C14.2846 17.5046 14.4681 18.055 14.9268 18.5138C15.3856 18.9725 15.936 19.156 16.5782 19.156H17.7709C18.4131 19.156 18.9635 18.9725 19.3305 18.5138C19.881 17.9633 20.0645 17.4128 20.0645 16.7706V10.5321C20.0645 9.33945 19.881 8.23853 19.4223 7.22936C18.9635 6.22018 18.3213 5.30275 17.5874 4.56881C16.8534 3.83486 15.936 3.19266 14.8351 2.73395C13.8259 2.18349 12.725 2 11.5323 2C10.3397 2 9.23876 2.18349 8.22959 2.6422C7.22042 3.10092 6.30298 3.74312 5.4773 4.47706C4.74335 5.21101 4.10115 6.12844 3.64243 7.13761C3.18372 8.14679 3.00023 9.24771 3.00023 10.4404V19.6147C3.00023 20.2569 3.18372 20.8073 3.64243 21.2661C4.10115 21.7248 4.65161 21.9083 5.20207 21.9083H10.5232V22Z" fill="black"/>
</svg>
