<svg width="24" height="24" viewBox="0 0 24 24" fill="none" xmlns="http://www.w3.org/2000/svg">
<path d="M12.5413 22C12.2661 22 11.9908 21.9083 11.8073 21.7248C11.6239 21.5413 11.5321 21.2661 11.5321 20.9908C11.5321 20.7156 11.6239 20.4404 11.8073 20.2569C11.9908 20.0734 12.2661 19.9817 12.5413 19.9817H17.8624C17.9541 19.9817 18.0459 19.9817 18.0459 19.8899C18.1376 19.7982 18.1376 19.7982 18.1376 19.7064V19.0642H16.578C15.9358 19.0642 15.3853 18.8807 14.9266 18.422C14.4679 17.9633 14.2844 17.4128 14.2844 16.7706V13.5596C14.2844 12.9174 14.4679 12.367 14.9266 11.9083C15.3853 11.4495 15.9358 11.2661 16.578 11.2661H18.1376V10.5321C18.1376 8.69725 17.4954 7.13761 16.211 5.85321C14.9266 4.56881 13.367 4.01835 11.5321 4.01835C9.69725 4.01835 8.13762 4.56881 6.85321 5.85321C5.56881 7.13761 4.92661 8.69725 4.92661 10.5321V11.3578H6.48624C7.12844 11.3578 7.6789 11.5413 8.13762 12C8.59633 12.4587 8.77982 13.0092 8.77982 13.6514V16.8624C8.77982 17.5046 8.59633 18.055 8.13762 18.5138C7.6789 18.9725 7.12844 19.156 6.48624 19.156H5.29358C4.65138 19.156 4.10092 18.9725 3.73395 18.5138C3.18349 17.9633 3 17.4128 3 16.7706V10.5321C3 9.33945 3.18349 8.23853 3.6422 7.22936C4.10092 6.22018 4.74312 5.30275 5.47706 4.56881C6.21101 3.83486 7.12844 3.19266 8.22936 2.73395C9.23853 2.18349 10.3395 2 11.5321 2C12.7248 2 13.8257 2.18349 14.8349 2.6422C15.844 3.10092 16.7615 3.74312 17.5872 4.47706C18.3211 5.21101 18.9633 6.12844 19.422 7.13761C19.8807 8.14679 20.0642 9.24771 20.0642 10.4404V19.6147C20.0642 20.2569 19.8807 20.8073 19.422 21.2661C18.9633 21.7248 18.4128 21.9083 17.8624 21.9083H12.5413V22Z" fill="black"/>
</svg>
