<svg width="24" height="24" viewBox="0 0 24 24" fill="none" xmlns="http://www.w3.org/2000/svg">
    <path fill-rule="evenodd" clip-rule="evenodd"
          d="M7.26619 2.59168C7.63042 2.22551 8.1252 2.01903 8.64167 2.01767L15.3054 2.00001C15.8218 1.99864 16.3177 2.20249 16.6839 2.56672L21.4083 7.26619C21.7745 7.63042 21.981 8.1252 21.9823 8.64167L22 15.3054C22.0014 15.8218 21.7975 16.3177 21.4333 16.6839L16.7338 21.4083C16.3696 21.7745 15.8748 21.981 15.3583 21.9823L8.69462 22C8.17815 22.0014 7.68229 21.7975 7.31613 21.4333L2.59168 16.7338C2.22552 16.3696 2.01904 15.8748 2.01767 15.3583L2.00001 8.69462C1.99864 8.17815 2.20249 7.68229 2.56672 7.31613L7.26619 2.59168ZM8.80626 7.18555H7.03374C6.35142 7.18555 6 7.2882 6 7.77917V8.33932C6 8.83029 6.35142 8.93295 7.03374 8.93295H7.44417C7.69812 8.93295 7.81355 9.05122 7.81355 9.39044V16.7193C7.81355 17.3129 7.93154 17.6186 8.49587 17.6186H9.15768C9.72458 17.6186 9.84 17.3129 9.84 16.7193V7.77917C9.84 7.2882 9.48858 7.18555 8.80626 7.18555ZM17.2907 10.2225C17.2907 10.7983 17.275 11.5102 16.3244 12.2065C17.4603 12.6484 17.5451 13.6147 17.5451 14.8867C17.5451 16.7703 16.8845 17.7031 14.3225 17.7544C11.7606 17.7031 11.1 16.7703 11.1 14.8867C11.1 13.6147 11.1848 12.6484 12.3207 12.2065C11.3723 11.5124 11.3544 10.7983 11.3544 10.2225V9.64676C11.4548 7.72976 12.0998 7 14.3225 7C16.5453 7 17.188 7.72976 17.2907 9.64676V10.2225ZM15.6281 10.0351C15.6281 8.89915 15.2554 8.55994 14.3225 8.55994C13.3897 8.55994 13.017 8.93039 13.017 10.0351C13.017 11.1397 13.3897 11.5124 14.3225 11.5124C15.2554 11.5124 15.6281 11.171 15.6281 10.0351ZM12.8474 14.6502C12.8474 15.7191 13.2379 16.1432 14.3225 16.1432C15.4071 16.1432 15.7977 15.7191 15.7977 14.6502C15.7977 13.5812 15.4071 13.0902 14.3225 13.0902C13.2379 13.0902 12.8474 13.5812 12.8474 14.6502Z"
          fill="black"/>
</svg>
