<svg width="24" height="24" viewBox="0 0 24 24" fill="none" xmlns="http://www.w3.org/2000/svg">
    <path fill-rule="evenodd" clip-rule="evenodd"
          d="M11 1C10.4477 1 10 1.44772 10 2V3H14V2C14 1.44772 13.5523 1 13 1H11ZM14 4H10V8.12602C8.27477 8.57006 7 10.1362 7 12V21C7 22.1046 7.89543 23 9 23H15C16.1046 23 17 22.1046 17 21H14C12.8954 21 12 20.1046 12 19V13C12 11.8954 12.8954 11 14 11H16.874C16.5122 9.59439 15.4056 8.4878 14 8.12602V4ZM14 12C13.4477 12 13 12.4477 13 13V19C13 19.5523 13.4477 20 14 20H17V12H14Z"
          fill="black"/>
</svg>
