<svg width="24" height="24" viewBox="0 0 24 24" fill="none" xmlns="http://www.w3.org/2000/svg">
    <path fill-rule="evenodd" clip-rule="evenodd"
          d="M18.85 6.72997C19.47 6.11997 19.85 5.27997 19.85 4.34997C19.85 2.83997 18.85 1.55997 17.47 1.13997C16.99 0.999968 16.5 1.35997 16.5 1.85997C16.5 2.18997 16.71 2.47997 17.02 2.56997C17.79 2.79997 18.35 3.50997 18.35 4.34997C18.35 5.16997 17.82 5.85997 17.08 6.10997C16.75 6.21997 16.5 6.49997 16.5 6.84997V6.99997C16.5 7.36997 16.77 7.68997 17.14 7.74997C19.07 8.05997 20.5 9.74997 20.5 11.77V13.25C20.5 13.66 20.84 14 21.25 14C21.66 14 22 13.66 22 13.25V11.76C22 9.53997 20.72 7.61997 18.85 6.72997ZM16.03 9.19997H14.73C13.71 9.19997 12.79 8.46997 12.66 7.44997C12.54 6.49997 13.12 5.74997 13.96 5.51997C14.28 5.42997 14.5 5.13997 14.5 4.79997C14.5 4.30997 14.04 3.93997 13.57 4.07997C12.15 4.48997 11.12 5.80997 11.15 7.35997C11.18 9.19997 12.77 10.65 14.61 10.65H16.03C17.08 10.65 18 11.39 18 12.7V13.25C18 13.66 18.33 14 18.75 14H18.76C19.17 14 19.51 13.67 19.51 13.25V12.36C19.5 10.55 17.9 9.19997 16.03 9.19997ZM19.5 15V20H18V15H19.5ZM22 15V20H20.5V15H22ZM2 17.5C2 16.1193 3.11929 15 4.5 15H9V15.7676C8.4022 16.1134 8 16.7597 8 17.5C8 18.2403 8.4022 18.8866 9 19.2324V20H4.5C3.11929 20 2 18.8807 2 17.5ZM11 19.2324V20H17V15H11V15.7676C11.5978 16.1134 12 16.7597 12 17.5C12 18.2403 11.5978 18.8866 11 19.2324ZM10 18.5C10.5523 18.5 11 18.0523 11 17.5C11 16.9477 10.5523 16.5 10 16.5C9.44772 16.5 9 16.9477 9 17.5C9 18.0523 9.44772 18.5 10 18.5Z"
          fill="black"/>
</svg>
