<svg width="24" height="24" viewBox="0 0 24 24" fill="none" xmlns="http://www.w3.org/2000/svg">
    <path d="M9.53947 6.18605C9.53947 5.67229 9.99157 5.25581 10.5493 5.25581H13.5787C14.1364 5.25581 14.5885 5.67229 14.5885 6.18605V7.11628C14.5885 7.63003 14.1364 8.04651 13.5787 8.04651H10.5493C9.99157 8.04651 9.53947 7.63003 9.53947 7.11628V6.18605Z"
          fill="black"/>
    <path d="M10.5493 3.39535H13.5787V7.11628H10.5493V3.39535Z" fill="black"/>
    <path fill-rule="evenodd" clip-rule="evenodd"
          d="M8.29127 2H14.0836C14.6413 2 15.0934 2.41648 15.0934 2.93023C15.0934 3.44399 14.6413 3.86047 14.0836 3.86047H8.76804L6.96163 4.69249C6.46281 4.92225 5.85624 4.73599 5.60683 4.27648C5.35742 3.81696 5.55961 3.2582 6.05843 3.02844L8.29127 2Z"
          fill="black"/>
    <path fill-rule="evenodd" clip-rule="evenodd"
          d="M10.2781 8.97674C8.80354 8.97674 7.44618 9.71691 6.73687 10.9077L6.12604 11.9332C5.71912 12.6164 5.5553 13.4 5.65769 14.1735L6.26073 18.7294C6.50785 20.5964 8.22854 22 10.2703 22H13.8577C15.8994 22 17.6201 20.5965 17.8673 18.7294L18.4703 14.1735C18.5727 13.4 18.4089 12.6164 18.0019 11.9332L17.3911 10.9077C16.6818 9.71691 15.3244 8.97674 13.8499 8.97674H10.2781ZM11.0542 12.883C11.0542 12.3692 11.5063 11.9528 12.064 11.9528C12.6217 11.9528 13.0738 12.3692 13.0738 12.883V14.5581H14.5C15.0577 14.5581 15.5098 14.9746 15.5098 15.4884C15.5098 16.0021 15.0577 16.4186 14.5 16.4186H13.0738V18.0923C13.0738 18.606 12.6217 19.0225 12.064 19.0225C11.5063 19.0225 11.0542 18.606 11.0542 18.0923V16.4186H9.50981C8.95211 16.4186 8.5 16.0021 8.5 15.4884C8.5 14.9746 8.95211 14.5581 9.50981 14.5581H11.0542V12.883Z"
          fill="black"/>
</svg>
