<svg width="24" height="24" viewBox="0 0 24 24" fill="none" xmlns="http://www.w3.org/2000/svg">
    <path fill-rule="evenodd" clip-rule="evenodd"
          d="M19 11H20.5C21.88 11 23 12.12 23 13.5C23 14.3178 22.6067 15.0442 21.9991 15.5004C21.5425 14.8933 20.8163 14.5 20 14.5C18.6216 14.5 17.5 15.6216 17.5 17V17.5H17C15.6216 17.5 14.5 18.6216 14.5 20C14.5 20.8168 14.8939 21.5435 15.5016 22H13.2V20.5C13.2 19.01 11.99 17.8 10.5 17.8C9.01 17.8 7.8 19.01 7.8 20.5V22H4C2.9 22 2 21.1 2 20V16.2H3.5C4.99 16.2 6.2 14.99 6.2 13.5C6.2 12.01 4.99 10.8 3.5 10.8H2.01V7C2.01 5.9 2.9 5 4 5H8V3.5C8 2.12 9.12 1 10.5 1C11.88 1 13 2.12 13 3.5V5H17C18.1 5 19 5.9 19 7V11Z"
          fill="black"/>
    <path d="M21 21H23C23.55 21 24 20.55 24 20C24 19.45 23.55 19 23 19H21V17C21 16.45 20.55 16 20 16C19.45 16 19 16.45 19 17V19H17C16.45 19 16 19.45 16 20C16 20.55 16.45 21 17 21H19V23C19 23.55 19.45 24 20 24C20.55 24 21 23.55 21 23V21Z"
          fill="black"/>
</svg>
