<svg width="24" height="24" viewBox="0 0 24 24" fill="none" xmlns="http://www.w3.org/2000/svg">
    <path fill-rule="evenodd" clip-rule="evenodd"
          d="M4 5C3.72386 5 3.5 5.22386 3.5 5.5V18.5C3.5 18.7761 3.72386 19 4 19H5C5.27614 19 5.5 18.7761 5.5 18.5V5.5C5.5 5.22386 5.27614 5 5 5H4ZM13 5C12.7239 5 12.5 5.22386 12.5 5.5V9.73221C13.1155 9.41144 13.7887 9.18628 14.5 9.07645V5.5C14.5 5.22386 14.2761 5 14 5H13ZM11.5 5.5V10.3762C10.6272 11.0585 9.93319 11.959 9.5 12.9956V5.5C9.5 5.22386 9.72386 5 10 5H11C11.2761 5 11.5 5.22386 11.5 5.5ZM20.5 5.5V11.3464C19.9495 10.6844 19.2699 10.1335 18.5 9.73221V5.5C18.5 5.22386 18.7239 5 19 5H20C20.2761 5 20.5 5.22386 20.5 5.5ZM17.5 5.5V9.3135C16.8699 9.10996 16.1978 9 15.5 9V5.5C15.5 5.22386 15.7239 5 16 5H17C17.2761 5 17.5 5.22386 17.5 5.5ZM7 5C6.72386 5 6.5 5.22386 6.5 5.5V16.5C6.5 16.7761 6.72386 17 7 17H8C8.27614 17 8.5 16.7761 8.5 16.5V5.5C8.5 5.22386 8.27614 5 8 5H7ZM21 15.5C21 18.5376 18.5376 21 15.5 21C12.4624 21 10 18.5376 10 15.5C10 12.4624 12.4624 10 15.5 10C18.5376 10 21 12.4624 21 15.5ZM16.6538 17.0137H14.3418L13.9022 18.25H12.5L14.8824 12.25H16.1044L18.5 18.25H17.0978L16.6538 17.0137ZM14.6978 16.0124H16.2978L15.4934 13.7665L14.6978 16.0124Z"
          fill="black"/>
</svg>
