<svg width="24" height="24" viewBox="0 0 24 24" fill="none" xmlns="http://www.w3.org/2000/svg">
    <path fill-rule="evenodd" clip-rule="evenodd"
          d="M23.1022 2.00516C23.0686 2.00175 23.0345 2 23 2L20 2C19.4477 2 19 2.44771 19 3C19 3.55228 19.4477 4 20 4L22 4V6C22 6.55228 22.4477 7 23 7C23.5523 7 24 6.55228 24 6V3C24 2.48223 23.6065 2.05637 23.1022 2.00516ZM0 3C0 2.96548 0.00174889 2.93137 0.00516289 2.89776C0.0563729 2.3935 0.482233 2 1 2H4C4.55228 2 5 2.44772 5 3C5 3.55228 4.55228 4 4 4H2L2 6C2 6.55228 1.55228 7 1 7C0.447715 7 0 6.55228 0 6V3ZM24 21C24 21.0345 23.9983 21.0686 23.9948 21.1022C23.9436 21.6065 23.5178 22 23 22H20C19.4477 22 19 21.5523 19 21C19 20.4477 19.4477 20 20 20H22V18C22 17.4477 22.4477 17 23 17C23.5523 17 24 17.4477 24 18V21ZM1 22C0.965482 22 0.931373 21.9983 0.897756 21.9948C0.3935 21.9436 0 21.5178 0 21V18C0 17.4477 0.447716 17 1 17C1.55229 17 2 17.4477 2 18L2 20H4C4.55229 20 5 20.4477 5 21C5 21.5523 4.55228 22 4 22H1ZM3.19922 5.60012H4.79922V18.4001H3.19922V5.60012ZM8.00039 5.60012H6.40039V15.2001H8.00039V5.60012ZM9.59961 5.60012H11.1996V15.2001H9.59961V5.60012ZM14.4008 5.60012H12.8008V18.4001H14.4008V5.60012ZM16 5.60012H17.6V15.2001H16V5.60012ZM20.7992 5.60012H19.1992V18.4001H20.7992V5.60012ZM6.40039 16.8001H8.00039V18.4001H6.40039V16.8001ZM11.1996 16.8001H9.59961V18.4001H11.1996V16.8001ZM16 16.8001H17.6V18.4001H16V16.8001Z"
          fill="black"/>
</svg>
