<svg width="24" height="24" viewBox="0 0 24 24" fill="none" xmlns="http://www.w3.org/2000/svg">
    <path fill-rule="evenodd" clip-rule="evenodd"
          d="M5.5 4C5.5 3.44772 5.94772 3 6.5 3H17.5C18.0523 3 18.5 3.44772 18.5 4V8C18.5 8.55228 18.0523 9 17.5 9H6.5C5.94772 9 5.5 8.55228 5.5 8V4ZM9.5 6C9.5 5.44772 9.94772 5 10.5 5H13.5C14.0523 5 14.5 5.44772 14.5 6C14.5 6.55228 14.0523 7 13.5 7H10.5C9.94772 7 9.5 6.55228 9.5 6ZM5.5 11C5.5 10.4477 5.94772 10 6.5 10H17.5C18.0523 10 18.5 10.4477 18.5 11V15C18.5 15.5523 18.0523 16 17.5 16H6.5C5.94772 16 5.5 15.5523 5.5 15V11ZM5.5 18C5.5 17.4477 5.94772 17 6.5 17H17.5C18.0523 17 18.5 17.4477 18.5 18V20C18.5 20.5523 18.0523 21 17.5 21H6.5C5.94772 21 5.5 20.5523 5.5 20V18Z"
          fill="black"/>
</svg>
