<svg width="24" height="24" viewBox="0 0 24 24" fill="none" xmlns="http://www.w3.org/2000/svg">
    <path fill-rule="evenodd" clip-rule="evenodd"
          d="M12.0703 2.56202C12.0329 2.26359 12.2656 2 12.5664 2H14.4336C14.7344 2 14.9671 2.26359 14.9297 2.56202L14.25 8H17C17.5304 8 18.0391 8.21071 18.4142 8.58579C18.7893 8.96086 19 9.46957 19 10V11V13C19.2652 13 19.5196 13.1054 19.7071 13.2929C19.8946 13.4804 20 13.7348 20 14C20 14.2652 19.8946 14.5196 19.7071 14.7071C19.5196 14.8946 19.2652 15 19 15H16C15.7348 15 15.4804 14.8946 15.2929 14.7071C15.1054 14.5196 15 14.2652 15 14C15 13.7348 15.1054 13.4804 15.2929 13.2929C15.4804 13.1054 15.7348 13 16 13V11H9V19C9.55228 19 10 19.4477 10 20C10 20.5523 9.55228 21 9 21H8.5H4.5H4C3.44772 21 3 20.5523 3 20C3 19.4477 3.44772 19 4 19V11V8C4 6.89543 4.89543 6 6 6H7C8.10457 6 9 6.89543 9 8H12.75L12.0703 2.56202Z"
          fill="black"/>
</svg>
