<svg width="24" height="24" viewBox="0 0 24 24" fill="none" xmlns="http://www.w3.org/2000/svg">
    <path d="M12 11.6249C12 10.7544 11.6204 9.96392 10.9568 9.37971C10.4143 8.90209 9.92531 8.31466 9.85481 7.5953C9.74129 6.43692 9.58483 4.79933 9.58483 4.57298C9.58483 4.44752 9.62926 4.29893 9.67104 4.1592C9.74754 3.90333 9.81516 3.67717 9.58483 3.67717H6.50738C6.27066 3.67717 6.3301 3.91924 6.3955 4.18557C6.42791 4.31759 6.4618 4.45557 6.4618 4.57298C6.4618 4.79778 6.32346 6.4221 6.22233 7.57946C6.15878 8.30673 5.67158 8.90617 5.11445 9.37793C4.42393 9.96265 4 10.7537 4 11.6249V19.0639C4.0814 22.002 4.66712 21.9979 7.32103 21.9792C7.54679 21.9776 7.78751 21.9759 8.04416 21.9759C8.45883 21.9759 8.83014 21.9832 9.16264 21.9898C11.5349 22.0368 11.9315 22.0447 12 19.0639V19H9C7.89543 19 7 18.1046 7 17V14C7 12.8954 7.89543 12 9 12H12V11.6249Z"
          fill="black"/>
    <path d="M6 2.5C6 2.22386 6.23824 2 6.53946 2H9.46054C9.75848 2 10 2.22193 10 2.5C10 2.77614 9.76176 3 9.46054 3H6.53946C6.24152 3 6 2.77807 6 2.5Z"
          fill="black"/>
    <path d="M13.5998 19.0823L13.5994 19.1007C13.5821 19.8542 13.5436 20.5341 13.4299 21.1002C13.3918 21.2898 13.3409 21.4903 13.269 21.6923L13.3497 21.8C13.4441 21.9259 13.5923 22 13.7497 22H18.2497C18.4071 22 18.5553 21.9259 18.6497 21.8L19.9997 20.0001L20 18H19C17.3431 18 16 16.6569 16 15C16 13.3431 17.3431 12 19 12H20V10.0002L18.6497 8.2C18.5553 8.0741 18.4071 8 18.2497 8H13.7497C13.5923 8 13.4441 8.0741 13.3497 8.2L12.7534 8.99506C13.2872 9.73896 13.5998 10.6352 13.5998 11.625V19.0823Z"
          fill="black"/>
    <path d="M8 14C8 13.4477 8.44772 13 9 13H12V18H9C8.44772 18 8 17.5523 8 17V14Z" fill="black"/>
    <path d="M19 13C17.8954 13 17 13.8954 17 15C17 16.1046 17.8954 17 19 17H20V13H19Z" fill="black"/>
</svg>
