<svg width="24" height="24" viewBox="0 0 24 24" fill="none" xmlns="http://www.w3.org/2000/svg">
    <path d="M8.386 20.348C8.04793 20.2574 7.86736 19.8881 8.00624 19.5629L10.5165 13.6719L7.13575 12.766C6.28573 12.5383 7.01111 11.9562 7.03819 11.9324C8.83242 10.1045 11.5121 7.4061 15.0657 3.80307C15.2089 3.65509 15.4306 3.6006 15.6238 3.65236C15.9618 3.74295 16.1424 4.11227 16.0035 4.4374L13.4933 10.3284L16.8837 11.2369C17.27 11.3404 17.4334 11.5809 17.0992 11.9779C12.4357 16.6708 9.72375 19.4123 8.94402 20.1973C8.80084 20.3453 8.58884 20.4023 8.386 20.348Z"
          fill="black"/>
</svg>
