<svg width="24" height="24" viewBox="0 0 24 24" fill="none" xmlns="http://www.w3.org/2000/svg">
    <path d="M10 2C10 1.44772 10.4477 1 11 1H13C13.5523 1 14 1.44772 14 2V2.5C14 2.77614 13.7761 3 13.5 3H10.5C10.2239 3 10 2.77614 10 2.5V2Z"
          fill="black"/>
    <path d="M7.5 17C7.22386 17 7 16.7761 7 16.5V12.5C7 12.2239 7.22386 12 7.5 12H16.5C16.7761 12 17 12.2239 17 12.5V16.5C17 16.7761 16.7761 17 16.5 17H7.5Z"
          fill="black"/>
    <path d="M7.5 18C7.22386 18 7 18.2239 7 18.5V21C7 22.1046 7.89543 23 9 23H15C16.1046 23 17 22.1046 17 21V18.5C17 18.2239 16.7761 18 16.5 18H7.5Z"
          fill="black"/>
    <path d="M7.00755 10.4995C6.99919 10.7755 7.22386 11 7.5 11H16.5C16.7761 11 17.0008 10.7755 16.9924 10.4995C16.8825 6.8671 15.5847 4 14 4H10C8.41527 4 7.11753 6.8671 7.00755 10.4995Z"
          fill="black"/>
</svg>
