<svg width="24" height="24" viewBox="0 0 24 24" fill="none" xmlns="http://www.w3.org/2000/svg">
    <path fill-rule="evenodd" clip-rule="evenodd"
          d="M11 16C10.45 16 10 15.55 10 15H3.01V19C3.01 20.1 3.91 21 5.01 21H19C19.1787 21 19.3522 20.9762 19.5174 20.9317L20.6775 22.0919C21.068 22.4824 21.7012 22.4824 22.0917 22.0919C22.4823 21.7014 22.4823 21.0682 22.0917 20.6777L5.12117 3.70711C4.73064 3.31658 4.09748 3.31658 3.70696 3.70711C3.31643 4.09763 3.31643 4.7308 3.70696 5.12132L5.58564 7H4C2.9 7 2 7.9 2 9V12C2 13.11 2.89 14 4 14H10V13C10 12.5732 10.271 12.2066 10.6494 12.0638L13.9362 15.3506C13.7934 15.729 13.4268 16 13 16H11ZM21 15V16.7999L19.2001 15H21ZM20 14H18.2001L11.2002 7H14C14 5.9 13.1 5 12 5C11.2455 5 10.585 5.42347 10.2446 6.04447L8.79959 4.59944C9.52921 3.62806 10.6909 3 12 3C14.21 3 16 4.79 16 7H20C21.1 7 22 7.9 22 9V12C22 13.1 21.1 14 20 14Z"
          fill="black"/>
</svg>
