<svg width="24" height="24" viewBox="0 0 24 24" fill="none" xmlns="http://www.w3.org/2000/svg">
    <path d="M9.18977 6.35001C7.14977 8.64001 5.74977 11.93 5.61977 12.24L3.35977 11.27C2.70977 10.99 2.54977 10.14 3.04977 9.64001L6.05977 6.63001C6.52977 6.16001 7.20977 5.95001 7.86977 6.08001L9.18977 6.35001ZM10.6798 16.51C10.9798 16.81 11.4198 16.89 11.7998 16.71C12.9598 16.17 15.4498 14.9 17.0598 13.29C21.6498 8.7 21.6898 4.96001 21.4198 3.36001C21.3498 2.96001 21.0298 2.64001 20.6298 2.57001C19.0298 2.30001 15.2898 2.34 10.6998 6.93001C9.08977 8.54001 7.82977 11.03 7.27977 12.19C7.09977 12.57 7.18977 13.02 7.47977 13.31L10.6798 16.51ZM17.6498 14.81C15.3598 16.85 12.0698 18.25 11.7598 18.38L12.7298 20.64C13.0098 21.29 13.8598 21.45 14.3598 20.95L17.3698 17.94C17.8398 17.47 18.0498 16.79 17.9198 16.13L17.6498 14.81ZM8.93977 17.41C9.13977 18.47 8.78977 19.45 8.11977 20.12C7.34977 20.89 4.95977 21.46 3.40977 21.76C2.71977 21.89 2.10977 21.28 2.23977 20.59C2.53977 19.04 3.09977 16.65 3.87977 15.88C4.54977 15.21 5.52977 14.86 6.58977 15.06C7.75977 15.28 8.71977 16.24 8.93977 17.41ZM12.9998 9.00001C12.9998 7.90001 13.8998 7.00001 14.9998 7.00001C16.0998 7.00001 16.9998 7.90001 16.9998 9.00001C16.9998 10.1 16.0998 11 14.9998 11C13.8998 11 12.9998 10.1 12.9998 9.00001Z"
          fill="black"/>
</svg>
