<svg width="24" height="24" viewBox="0 0 24 24" fill="none" xmlns="http://www.w3.org/2000/svg">
    <path fill-rule="evenodd" clip-rule="evenodd"
          d="M3.75 3C3.75 2.58579 3.41421 2.25 3 2.25C2.58579 2.25 2.25 2.58579 2.25 3V4.41886C2.07072 4.50389 1.90555 4.61958 1.76256 4.76256C1.43437 5.09075 1.25 5.53587 1.25 6V7C1.25 7.72935 1.53973 8.42882 2.05546 8.94454C2.57118 9.46027 3.27065 9.75 4 9.75H4.25V17.5C4.25 18.6272 4.69777 19.7082 5.4948 20.5052C6.29183 21.3022 7.37283 21.75 8.5 21.75C9.62717 21.75 10.7082 21.3022 11.5052 20.5052C12.3022 19.7082 12.75 18.6272 12.75 17.5V6.5C12.75 5.77065 13.0397 5.07118 13.5555 4.55546C14.0712 4.03973 14.7707 3.75 15.5 3.75C16.2293 3.75 16.9288 4.03973 17.4445 4.55546C17.9603 5.07118 18.25 5.77065 18.25 6.5V14.25H18C17.2707 14.25 16.5712 14.5397 16.0555 15.0555C15.5397 15.5712 15.25 16.2707 15.25 17V18C15.25 18.4641 15.4344 18.9092 15.7626 19.2374C15.9055 19.3804 16.0707 19.4961 16.25 19.5811V21C16.25 21.4142 16.5858 21.75 17 21.75C17.4142 21.75 17.75 21.4142 17.75 21V19.75H20.25V21C20.25 21.4142 20.5858 21.75 21 21.75C21.4142 21.75 21.75 21.4142 21.75 21V19.5811C21.9293 19.4961 22.0945 19.3804 22.2374 19.2374C22.5656 18.9092 22.75 18.4641 22.75 18V17C22.75 16.2707 22.4603 15.5712 21.9445 15.0555C21.4288 14.5397 20.7293 14.25 20 14.25H19.75V6.5C19.75 5.37283 19.3022 4.29183 18.5052 3.4948C17.7082 2.69777 16.6272 2.25 15.5 2.25C14.3728 2.25 13.2918 2.69777 12.4948 3.4948C11.6978 4.29183 11.25 5.37283 11.25 6.5V17.5C11.25 18.2293 10.9603 18.9288 10.4445 19.4445C9.92882 19.9603 9.22935 20.25 8.5 20.25C7.77065 20.25 7.07118 19.9603 6.55546 19.4445C6.03973 18.9288 5.75 18.2293 5.75 17.5V9.75H6C6.72935 9.75 7.42882 9.46027 7.94454 8.94454C8.46027 8.42882 8.75 7.72935 8.75 7V6C8.75 5.53587 8.56563 5.09075 8.23744 4.76256C8.09445 4.61958 7.92928 4.50389 7.75 4.41886V3C7.75 2.58579 7.41421 2.25 7 2.25C6.58579 2.25 6.25 2.58579 6.25 3V4.25H3.75V3ZM3 5.75C2.9337 5.75 2.87011 5.77634 2.82322 5.82322C2.77634 5.87011 2.75 5.9337 2.75 6V7C2.75 7.33152 2.8817 7.64946 3.11612 7.88388C3.35054 8.1183 3.66848 8.25 4 8.25H6C6.33152 8.25 6.64946 8.1183 6.88388 7.88388C7.1183 7.64946 7.25 7.33152 7.25 7V6C7.25 5.9337 7.22366 5.87011 7.17678 5.82322C7.12989 5.77634 7.0663 5.75 7 5.75H3ZM21.1768 18.1768C21.1299 18.2237 21.0663 18.25 21 18.25H17C16.9337 18.25 16.8701 18.2237 16.8232 18.1768C16.7763 18.1299 16.75 18.0663 16.75 18V17C16.75 16.6685 16.8817 16.3505 17.1161 16.1161C17.3505 15.8817 17.6685 15.75 18 15.75H20C20.3315 15.75 20.6495 15.8817 20.8839 16.1161C21.1183 16.3505 21.25 16.6685 21.25 17V18C21.25 18.0663 21.2237 18.1299 21.1768 18.1768Z"
          fill="black"/>
</svg>
