<svg width="24" height="24" viewBox="0 0 24 24" fill="none" xmlns="http://www.w3.org/2000/svg">
    <path fill-rule="evenodd" clip-rule="evenodd"
          d="M3.5875 20.4125C3.97917 20.8042 4.45 21 5 21H19C19.55 21 20.0208 20.8042 20.4125 20.4125C20.8042 20.0208 21 19.55 21 19V5C21 4.45 20.8042 3.97917 20.4125 3.5875C20.0208 3.19583 19.55 3 19 3H5C4.45 3 3.97917 3.19583 3.5875 3.5875C3.19583 3.97917 3 4.45 3 5V19C3 19.55 3.19583 20.0208 3.5875 20.4125ZM5.9625 13.1375C5.62083 13.2292 5.3 13.3667 5 13.55V5H19V13.55C18.7 13.3667 18.3792 13.2292 18.0375 13.1375C17.6958 13.0458 17.35 13 17 13H7C6.65 13 6.30417 13.0458 5.9625 13.1375ZM12 18C12.5523 18 13 17.5523 13 17C13 16.4477 12.5523 16 12 16C11.4477 16 11 16.4477 11 17C11 17.5523 11.4477 18 12 18Z"
          fill="black"/>
</svg>
