<svg width="24" height="24" viewBox="0 0 24 24" fill="none" xmlns="http://www.w3.org/2000/svg">
    <path fill-rule="evenodd" clip-rule="evenodd"
          d="M14.5 17.5C15.6046 17.5 16.5 16.6046 16.5 15.5C16.5 14.3954 15.6046 13.5 14.5 13.5C13.3954 13.5 12.5 14.3954 12.5 15.5C12.5 16.6046 13.3954 17.5 14.5 17.5ZM13.9992 15.6C14.4411 15.6 14.7992 15.2418 14.7992 14.8C14.7992 14.3582 14.4411 14 13.9992 14C13.5574 14 13.1992 14.3582 13.1992 14.8C13.1992 15.2418 13.5574 15.6 13.9992 15.6Z"
          fill="black"/>
    <path d="M3.36636 18.0796L4.38226 14.7955L6.62524 17.4211C6.74685 17.5634 6.6237 17.7799 6.4392 17.7481L5.36794 17.5634C5.13066 17.5225 4.88658 17.5686 4.68055 17.6932L3.66093 18.3099C3.50359 18.405 3.31202 18.2553 3.36636 18.0796Z"
          fill="black"/>
    <path fill-rule="evenodd" clip-rule="evenodd"
          d="M17.0996 21C18.2042 21 19.0996 20.1046 19.0996 19C19.0996 17.8954 18.2042 17 17.0996 17C15.9951 17 15.0996 17.8954 15.0996 19C15.0996 20.1046 15.9951 21 17.0996 21ZM16.6008 19.1C17.0426 19.1 17.4008 18.7418 17.4008 18.3C17.4008 17.8582 17.0426 17.5 16.6008 17.5C16.159 17.5 15.8008 17.8582 15.8008 18.3C15.8008 18.7418 16.159 19.1 16.6008 19.1Z"
          fill="black"/>
    <path fill-rule="evenodd" clip-rule="evenodd"
          d="M12 21C13.1046 21 14 20.1046 14 19C14 17.8954 13.1046 17 12 17C10.8954 17 10 17.8954 10 19C10 20.1046 10.8954 21 12 21ZM11.4992 19.1C11.9411 19.1 12.2992 18.7418 12.2992 18.3C12.2992 17.8582 11.9411 17.5 11.4992 17.5C11.0574 17.5 10.6992 17.8582 10.6992 18.3C10.6992 18.7418 11.0574 19.1 11.4992 19.1Z"
          fill="black"/>
    <path d="M5.29552 3.858C6.35365 5.03551 4.96095 7.85156 5.5924 7.30122C5.72384 7.18666 6.2562 5.96434 7.89064 5.125C8.75265 4.68233 9.5335 4.3901 10.5725 4.31791C10.6824 4.31028 10.7092 4.15495 10.6053 4.11857C8.07064 3.23156 4.30331 2.75384 5.29552 3.858Z"
          fill="black"/>
    <path fill-rule="evenodd" clip-rule="evenodd"
          d="M14.4353 10.0339C14.5446 10.3221 14.6814 10.5941 14.8493 10.8693C17.1643 10.82 18.8613 10.5173 19.8875 9.88746C20.0564 9.7838 20.1373 9.5395 19.953 9.46674C19.8628 9.43116 19.7476 9.41669 19.6114 9.39959C19.4615 9.38076 19.2862 9.35875 19.0912 9.30192C18.5183 9.13497 18.4999 9.00097 18.4999 9.00097C19.4999 9.00097 20.4692 8.62902 20.311 8.37011C19.6259 7.24869 18.0912 6.30192 16.5667 5.68122C16.0943 5.48888 15.5856 5.32773 15.0549 5.20238C14.9024 5.36338 14.7618 5.53894 14.6379 5.73352C14.3185 6.23542 14.0928 6.89132 14.0928 7.80161C14.0928 8.75855 14.2122 9.44533 14.4353 10.0339ZM17.0705 7.86075C17.3388 7.79528 17.5032 7.52473 17.4377 7.25646C17.3722 6.98819 17.1017 6.82379 16.8334 6.88927C16.5651 6.95474 16.4007 7.22529 16.4662 7.49356C16.5317 7.76182 16.8022 7.92622 17.0705 7.86075Z"
          fill="black"/>
    <path d="M11.5917 10.8017C12.3403 10.8418 13.0471 10.8664 13.7112 10.874C13.6341 10.7168 13.5636 10.5556 13.5002 10.3884C13.2233 9.65788 13.0928 8.84467 13.0928 7.80161C13.0928 6.71189 13.3671 5.86779 13.7943 5.19655C13.8383 5.12748 13.8837 5.06055 13.9303 4.99563C11.3811 4.65623 8.5772 5.14192 6.91824 6.9015C4.72227 9.23067 4.13801 12.8011 4.1461 15.0236C4.14801 15.5471 4.10245 15.7099 3.94533 16.2345C3.99608 16.1344 4.21875 16.096 4.46632 16.0534C4.76425 16.0021 5.09823 15.9445 5.21202 15.7657C5.03127 15.465 5.12114 15.0597 5.21202 14.7501C5.54689 13.6095 7.09472 10.5605 11.5917 10.8017Z"
          fill="black"/>
</svg>
