<svg width="24" height="24" viewBox="0 0 24 24" fill="none" xmlns="http://www.w3.org/2000/svg">
    <path fill-rule="evenodd" clip-rule="evenodd"
          d="M16.5001 2C15.8251 2 15.2779 2.54721 15.2779 3.22222V3.37709C13.5108 3.90294 12.2222 5.53986 12.2222 7.47775V10.4003L11.4135 10.7972C11.1604 10.9215 11 11.1789 11 11.4609C11 11.8692 11.331 12.2002 11.7393 12.2002H21.2607C21.669 12.2002 22 11.8692 22 11.4609C22 11.1789 21.8396 10.9215 21.5865 10.7972L20.7778 10.4002L20.7777 7.47775C20.7777 5.53995 19.4893 3.9031 17.7223 3.37717V3.22222C17.7223 2.54721 17.1751 2 16.5001 2ZM17.8684 12.8001C17.8684 13.5669 17.1102 14 16.4995 14C15.8888 14 15.1306 13.5669 15.1306 12.8001H17.8684Z"
          fill="black"/>
    <path d="M13.0124 5C12.5148 5.69913 12.2222 6.55426 12.2222 7.47775V10.4003L11.4135 10.7972C11.1604 10.9215 11 11.1789 11 11.4609C11 11.8692 11.331 12.2002 11.7393 12.2002L19 12.2003V6.7C19 5.765 18.235 5 17.3 5H13.0124Z"
          fill="black"/>
    <path d="M10.73 5C10.4032 5.75986 10.2222 6.59742 10.2222 7.47776V9.18003C9.46529 9.68325 9 10.5365 9 11.4609C9 12.9738 10.2264 14.2003 11.7393 14.2003H13.4665C13.6956 14.6454 14.0199 15.0067 14.3681 15.274C14.9925 15.7534 15.7653 16 16.4995 16C17.2337 16 18.0065 15.7534 18.6309 15.274C18.7583 15.1762 18.8825 15.0658 19 14.9433V16.9C19 17.835 18.235 18.6 17.3 18.6H5.4L2 22L2.0085 6.7C2.0085 5.765 2.765 5 3.7 5H10.73Z"
          fill="black"/>
    <path d="M16.4995 14C15.8888 14 15.1306 13.5669 15.1306 12.8001H17.8684C17.8684 13.5669 17.1102 14 16.4995 14Z"
          fill="black"/>
</svg>
