<svg width="24" height="24" viewBox="0 0 24 24" fill="none" xmlns="http://www.w3.org/2000/svg">
    <path fill-rule="evenodd" clip-rule="evenodd"
          d="M13.875 2.875C13.875 3.69139 13.3532 4.38591 12.625 4.64331V6H17.5C18.6046 6 19.5 6.89543 19.5 8V9.8125C20.9264 10.102 22 11.3631 22 12.875C22 14.3868 20.9264 15.6479 19.5 15.9375V19C19.5 20.1046 18.6046 21 17.5 21H6.5C5.39543 21 4.5 20.1046 4.5 19V15.9375C3.0736 15.6479 2 14.3868 2 12.875C2 11.3631 3.0736 10.102 4.5 9.8125V8C4.5 6.89543 5.39543 6 6.5 6H11.375V4.64331C10.6468 4.38591 10.125 3.69139 10.125 2.875C10.125 1.83947 10.9645 1 12 1C13.0355 1 13.875 1.83947 13.875 2.875ZM10.75 11C10.75 11.6904 10.1904 12.25 9.5 12.25C8.80964 12.25 8.25 11.6904 8.25 11C8.25 10.3096 8.80964 9.75 9.5 9.75C10.1904 9.75 10.75 10.3096 10.75 11ZM14.5 12.25C15.1904 12.25 15.75 11.6904 15.75 11C15.75 10.3096 15.1904 9.75 14.5 9.75C13.8096 9.75 13.25 10.3096 13.25 11C13.25 11.6904 13.8096 12.25 14.5 12.25ZM8.43306 14.9331C8.67714 14.689 9.07286 14.689 9.31694 14.9331C9.81368 15.4298 10.7535 15.853 11.8072 15.9233C12.8452 15.9925 13.9023 15.7138 14.6831 14.9331C14.9271 14.689 15.3229 14.689 15.5669 14.9331C15.811 15.1771 15.811 15.5729 15.5669 15.8169C14.4727 16.9112 13.0298 17.2575 11.7241 17.1705C10.434 17.0845 9.18632 16.5702 8.43306 15.8169C8.18898 15.5729 8.18898 15.1771 8.43306 14.9331Z"
          fill="black"/>
</svg>
