<svg width="24" height="24" viewBox="0 0 24 24" fill="none" xmlns="http://www.w3.org/2000/svg">
    <path fill-rule="evenodd" clip-rule="evenodd"
          d="M8.00139 3.1064L1.37617 5.65456C1.08345 5.76714 0.93106 6.09006 1.03024 6.38759L2.47914 10.7343C2.55899 10.9738 2.78316 11.1354 3.03566 11.1354H4.95934C5.28332 11.1354 5.54596 11.398 5.54596 11.722V21.108C5.54596 21.432 5.8086 21.6946 6.13259 21.6946H17.8651C18.1891 21.6946 18.4517 21.432 18.4517 21.108V11.722C18.4517 11.398 18.7143 11.1354 19.0383 11.1354H20.962C21.2145 11.1354 21.4387 10.9738 21.5185 10.7343L22.9698 6.38054C23.068 6.08587 22.9195 5.76572 22.6311 5.65036L16.1127 3.04301C16.076 3.0283 16.0382 3.01748 16 3.01038C15.9944 5.21474 14.2057 7 12 7C9.82644 7 8.05779 5.26636 8.00139 3.1064ZM14.9737 3.39882C14.7787 4.86714 13.5216 6 12 6C10.4426 6 9.16242 4.8133 9.0143 3.29483C9.59463 3.63845 10.6252 4.09592 11.9988 4.09592C13.2376 4.09592 14.2903 3.72389 14.9737 3.39882Z"
          fill="black"/>
</svg>
