<svg width="24" height="24" viewBox="0 0 24 24" fill="none" xmlns="http://www.w3.org/2000/svg">
    <path d="M6.5 20C4.96667 20 3.66667 19.4667 2.6 18.4C1.53333 17.3333 1 16.0333 1 14.5C1 13.2 1.40433 12.054 2.213 11.062C3.021 10.0707 4.03333 9.43333 5.25 9.15C5.66667 7.65 6.49167 6.41667 7.725 5.45C8.95833 4.48333 10.3833 4 12 4C13.9833 4 15.646 4.68733 16.988 6.062C18.3293 7.43733 19 9.08333 19 11C20.25 11.1333 21.2293 11.65 21.938 12.55C22.646 13.45 23 14.425 23 15.475C23 16.725 22.5627 17.7917 21.688 18.675C20.8127 19.5583 19.75 20 18.5 20H6.5ZM6.5 18H18.5C19.2 18 19.7917 17.7583 20.275 17.275C20.7583 16.7917 21 16.2 21 15.5C21 14.8 20.7583 14.2083 20.275 13.725C19.7917 13.2417 19.2 13 18.5 13H17V11C17 9.61667 16.5127 8.43733 15.538 7.462C14.5627 6.48733 13.3833 6 12 6C10.95 6 10.0167 6.28733 9.2 6.862C8.38333 7.43733 7.78333 8.175 7.4 9.075C8.53333 9.25833 9.50833 9.74567 10.325 10.537C11.1417 11.329 11.6667 12.2833 11.9 13.4C11.9667 13.6833 11.896 13.9373 11.688 14.162C11.4793 14.3873 11.2083 14.5 10.875 14.5C10.6417 14.5 10.4373 14.4207 10.262 14.262C10.0873 14.104 9.96667 13.9 9.9 13.65C9.71667 12.9 9.30833 12.2707 8.675 11.762C8.04167 11.254 7.31667 11 6.5 11C5.53333 11 4.70833 11.3417 4.025 12.025C3.34167 12.7083 3 13.5333 3 14.5C3 15.4667 3.34167 16.2917 4.025 16.975C4.70833 17.6583 5.53333 18 6.5 18Z"
          fill="black"/>
</svg>
