<svg width="24" height="24" viewBox="0 0 24 24" fill="none" xmlns="http://www.w3.org/2000/svg">
    <path fill-rule="evenodd" clip-rule="evenodd"
          d="M2.6 15.4C3.66667 16.4667 4.96667 17 6.5 17H10V15H6.5C5.53333 15 4.70833 14.6583 4.025 13.975C3.34167 13.2917 3 12.4667 3 11.5C3 10.5333 3.34167 9.70833 4.025 9.025C4.70833 8.34167 5.53333 8 6.5 8C6.67071 8 6.83741 8.0111 7.00011 8.03329L7 8C7 6.18792 7.96396 4.60099 9.40707 3.72402C10.1734 3.24134 11.0377 3 12 3C13.3833 3 14.5627 3.48733 15.538 4.462C16.5127 5.43733 17 6.61667 17 8V10H18.5C19.2 10 19.7917 10.2417 20.275 10.725C20.7583 11.2083 21 11.8 21 12.5C21 13.2 20.7583 13.7917 20.275 14.275C19.7917 14.7583 19.2 15 18.5 15H14V17H18.5C19.75 17 20.8127 16.5583 21.688 15.675C22.5627 14.7917 23 13.725 23 12.475C23 11.425 22.646 10.45 21.938 9.55C21.2293 8.65 20.25 8.13333 19 8C19 6.08333 18.3293 4.43733 16.988 3.062C15.646 1.68733 13.9833 1 12 1C10.3833 1 8.95833 1.48333 7.725 2.45C6.49167 3.41667 5.66667 4.65 5.25 6.15C4.03333 6.43333 3.021 7.07067 2.213 8.062C1.40433 9.054 1 10.2 1 11.5C1 13.0333 1.53333 14.3333 2.6 15.4ZM8.49998 18.5C8.10998 18.8875 8.10998 19.5136 8.49998 19.9011L11.2876 22.7093C11.6776 23.0969 12.3076 23.0969 12.6976 22.7093L15.41 19.9011C15.8 19.5136 15.8 18.8875 15.41 18.5C15.02 18.1125 14.39 18.1125 14 18.5L12.9876 19.609V10.9937C12.9876 10.4472 12.5376 10 11.9876 10C11.4376 10 10.9876 10.4472 10.9876 10.9937V19.609L9.90999 18.5C9.51999 18.1125 8.87998 18.1224 8.49998 18.5Z"
          fill="black"/>
</svg>
