<svg width="24" height="24" viewBox="0 0 24 24" fill="none" xmlns="http://www.w3.org/2000/svg">
    <path fill-rule="evenodd" clip-rule="evenodd"
          d="M5 3C3.89543 3 3 3.89543 3 5V6.59998V6.6V10.2V10.2V13.8H6.6V10.2H10.2V13.8H13.8V10.2H10.2V6.59998H6.6V3H5ZM3 17.4V19C3 20.1046 3.89543 21 5 21H6.59998H6.6H10.2H10.2H13.8V17.4H10.2V13.8H6.6H6.59998H3V17.4V17.4ZM13.8 21V17.4V17.4V13.8H17.4V17.4H21V19C21 20.1046 20.1046 21 19 21H17.4H17.4H13.8ZM19 3H17.4V6.59998H13.8V10.2H17.4V13.8H21V10.2H17.4V6.6H21V5C21 3.89543 20.1046 3 19 3Z"
          fill="black"/>
</svg>
