<svg width="24" height="24" viewBox="0 0 24 24" fill="none" xmlns="http://www.w3.org/2000/svg">
    <path fill-rule="evenodd" clip-rule="evenodd"
          d="M7.2925 10.8825C6.9025 11.2725 6.2725 11.2725 5.8825 10.8825L2.2925 7.2925C1.9025 6.9025 1.9025 6.2725 2.2925 5.8825L5.8825 2.2925C6.2725 1.9025 6.9025 1.9025 7.2925 2.2925C7.6825 2.6825 7.6825 3.3125 7.2925 3.7025L5.4125 5.5925H14.0825C14.6325 5.5925 15.0825 6.0425 15.0825 6.5925C15.0825 7.1425 14.6325 7.5925 14.0825 7.5925H5.4125L7.2925 9.4725C7.6825 9.8625 7.6725 10.5025 7.2925 10.8825ZM22 9C22 7.89543 21.1045 7 20 7H19V10H16V13H13V16H9.99998V13H6.99998V16H9.99998V19H6.99998V20C6.99998 21.1046 7.89541 22 8.99998 22H9.99998H13H16H19H20C21.1045 22 22 21.1046 22 20V19V16V13V10V9ZM16 16V19H13V16H16ZM16 16H19V13H16V16Z"
          fill="black"/>
</svg>
