<svg width="24" height="24" viewBox="0 0 24 24" fill="none" xmlns="http://www.w3.org/2000/svg">
    <path fill-rule="evenodd" clip-rule="evenodd"
          d="M10 8.08462V6.29462C6.69 6.29462 4 8.98462 4 12.2946C4 13.0846 4.15 13.8546 4.44 14.5446C4.59 14.9046 4.48 15.3146 4.21 15.5846C3.7 16.0946 2.84 15.9146 2.57 15.2446C2.2 14.3346 2 13.3346 2 12.2946C2 7.87462 5.58 4.29462 10 4.29462V2.50462C10 2.05462 10.54 1.83462 10.85 2.14462L13.64 4.93462C13.84 5.13462 13.84 5.44462 13.64 5.64462L10.85 8.43462C10.54 8.75462 10 8.53462 10 8.08462ZM22 9C22 7.89543 21.1046 7 20 7H19V10H16V13H13V16H10V13H7V16H10V19H7V20C7 21.1046 7.89543 22 9 22H10H13H16H19H20C21.1046 22 22 21.1046 22 20V19V16V13V10V9ZM16 16V19H13V16H16ZM16 16H19V13H16V16Z"
          fill="black"/>
</svg>
