<svg width="24" height="24" viewBox="0 0 24 24" fill="none" xmlns="http://www.w3.org/2000/svg">
    <path fill-rule="evenodd" clip-rule="evenodd"
          d="M10 8C10 4.7 12.7 2 16 2C19.3 2 22 4.7 22 8C22 11.3 19.3 14 16 14C12.7 14 10 11.3 10 8ZM16 3.2C13.36 3.2 11.2 5.36 11.2 8C11.2 9.08 11.56 10.1 12.22 10.94L18.94 4.22C18.1 3.56 17.08 3.2 16 3.2ZM13.06 11.78C13.9 12.44 14.92 12.8 16 12.8C18.64 12.8 20.8 10.64 20.8 8C20.8 6.92 20.44 5.9 19.78 5.06L13.06 11.78ZM4 7C2.89543 7 2 7.89543 2 9V10V13V16V19V20C2 21.1046 2.89543 22 4 22H5H8H11H14H15C16.1046 22 17 21.1046 17 20V19H14V16H11V13H8V10H5V7H4ZM8 16H5V13H8V16ZM8 16V19H11V16H8Z"
          fill="black"/>
</svg>
