<svg width="24" height="24" viewBox="0 0 24 24" fill="none" xmlns="http://www.w3.org/2000/svg">
    <path fill-rule="evenodd" clip-rule="evenodd"
          d="M13.1009 9.85982L9.73149 5.53263C8.98715 4.5767 7.58924 4.39031 6.60918 5.11632C5.62911 5.84234 5.43802 7.20582 6.18236 8.16176L9.55173 12.489L13.1009 9.85982ZM5.26143 3.38545C3.3013 4.83747 2.91911 7.56445 4.4078 9.47633L8.71827 15.0069L15.8165 9.74865L11.5061 4.21806C10.0174 2.30619 7.22156 1.93342 5.26143 3.38545Z"
          fill="black"/>
    <path d="M10.5077 20.8627C10.6566 19.9353 10.844 17.7903 9.66656 16.6419C8.13667 15.1496 4.88181 15.905 4.88181 15.905C4.88181 15.905 4.1074 19.0797 5.63729 20.5719C6.69993 21.6084 8.59476 21.5606 9.65307 21.4347L7.55988 19.601C7.35293 19.4197 7.33584 19.1091 7.52171 18.9072C7.70757 18.7054 8.02601 18.6887 8.23296 18.87L10.5077 20.8627Z"
          fill="black"/>
    <path d="M18.7386 20.6928C20.6987 19.2407 21.0809 16.5137 19.5922 14.6019L15.549 9.40925L8.4507 14.6675L8.77854 15.0885C9.35876 15.2788 9.8988 15.5667 10.334 15.9912C10.7122 16.3601 10.9846 16.8062 11.1775 17.2881C11.3704 16.8062 11.6429 16.3601 12.0211 15.9912C14.0579 14.0045 18.3914 15.0101 18.3914 15.0101C18.3914 15.0101 19.4224 19.2369 17.3856 21.2236C17.3042 21.303 17.2191 21.3776 17.1308 21.4477C17.697 21.309 18.2443 21.0589 18.7386 20.6928Z"
          fill="black"/>
    <path d="M14.7211 21.3827C15.5045 21.2557 16.2001 20.9904 16.6733 20.5289C17.3939 19.8259 17.648 18.6197 17.645 17.3741C17.6436 16.7859 17.585 16.2483 17.5256 15.8546C17.122 15.7967 16.5708 15.7395 15.9677 15.7381C14.6907 15.7352 13.454 15.983 12.7334 16.6859C12.182 17.2237 11.9038 18.056 11.8048 18.9751L12.4939 19.8601C12.5617 19.9471 12.6321 20.0309 12.705 20.1114L14.1221 18.87C14.3291 18.6887 14.6475 18.7054 14.8334 18.9072C15.0192 19.1091 15.0022 19.4197 14.7952 19.601L13.4574 20.773C13.8469 21.0436 14.2742 21.2477 14.7211 21.3827Z"
          fill="black"/>
    <path d="M11.8481 20.862C11.6993 19.9346 11.5118 17.7896 12.6893 16.6411C14.2192 15.1489 17.474 15.9043 17.474 15.9043C17.474 15.9043 18.2484 19.079 16.7185 20.5712C15.6559 21.6077 13.7611 21.5598 12.7028 21.4339L14.796 19.6003C15.0029 19.419 15.02 19.1084 14.8341 18.9065C14.6483 18.7047 14.3298 18.688 14.1229 18.8693L11.8481 20.862Z"
          fill="black"/>
</svg>
