<svg width="24" height="24" viewBox="0 0 24 24" fill="none" xmlns="http://www.w3.org/2000/svg">
    <path fill-rule="evenodd" clip-rule="evenodd"
          d="M11.3138 2.82843C12.8759 1.26634 15.4086 1.26634 16.9707 2.82843C18.5328 4.39053 18.5328 6.92319 16.9707 8.48529L13.4352 12.0208L12.7281 12.7279L8.48541 16.9706C6.92331 18.5327 4.39065 18.5327 2.82856 16.9706C1.26646 15.4085 1.26646 12.8758 2.82856 11.3137L7.0712 7.07107L7.7783 6.36397L11.3138 2.82843ZM7.7783 9.19239L4.24277 12.7279C3.46172 13.509 3.46172 14.7753 4.24277 15.5564C5.02382 16.3374 6.29015 16.3374 7.0712 15.5564L10.6067 12.0208L7.7783 9.19239ZM13.8775 14.8315L21.6242 19.304C22.5338 17.2311 21.7568 14.7618 19.7509 13.6036C17.7449 12.4455 15.2179 13.0073 13.8775 14.8315ZM13.3775 15.6975L21.1242 20.17C19.7838 21.9942 17.2568 22.556 15.2509 21.3979C13.2449 20.2397 12.4679 17.7704 13.3775 15.6975Z"
          fill="black"/>
</svg>
