<svg width="24" height="24" viewBox="0 0 24 24" fill="none" xmlns="http://www.w3.org/2000/svg">
    <path fill-rule="evenodd" clip-rule="evenodd"
          d="M12.0002 2C11.1786 2 10.3888 2.30355 10.5129 2.84986C10.775 4.00326 10.8851 4.1247 12.0002 4.1247C13.1149 4.1247 13.225 4.00326 13.4871 2.84986C13.6112 2.30355 12.8214 2 12.0002 2ZM9.47475 4.99902C9.52491 4.99902 9.57471 5.00056 9.6241 5.0036C9.67349 5.00056 9.72329 4.99902 9.77344 4.99902C10.7827 4.99902 11.6462 5.62254 12 6.50536C12.3537 5.62254 13.2173 4.99902 14.2265 4.99902C14.2767 4.99902 14.3266 5.00057 14.376 5.00361C14.4255 5.00057 14.4753 4.99902 14.5255 4.99902C15.7132 4.99902 16.6993 5.86263 16.8899 6.99617C16.6215 7.06113 16.3296 7.09675 16.0245 7.09675C15.52 7.09675 15.0518 6.99935 14.6656 6.833C13.9812 7.82533 14.056 9.18335 14.8901 10.0957L18.895 6.58816C19.1066 6.40285 19.4308 6.42763 19.5962 6.65519C20.3829 7.73827 20.8567 8.9755 20.9723 10.2597C21.1025 11.7071 20.7726 13.1579 20.0191 14.4515C19.2655 15.7451 18.1177 16.8313 16.7025 17.5899C16.2331 17.8415 15.7403 18.0539 15.2308 18.2253L16.8754 19.8672C17.0931 20.0844 17.0652 20.4457 16.8052 20.6099C15.3704 21.5159 13.7048 22 12 22C10.2952 22 8.62965 21.5159 7.19488 20.6099C6.93487 20.4457 6.907 20.0844 7.12462 19.8672L8.76929 18.2253C8.25972 18.0539 7.76694 17.8415 7.29751 17.5899C5.8823 16.8313 4.73448 15.7451 3.98094 14.4515C3.22741 13.1578 2.89752 11.7071 3.02775 10.2597C3.14329 8.9755 3.61706 7.73827 4.40385 6.65519C4.56916 6.42763 4.89337 6.40285 5.10496 6.58816L9.11025 10.096C9.94468 9.18361 10.0196 7.8253 9.33507 6.83281C8.94875 6.99928 8.48045 7.09675 7.97573 7.09675C7.6706 7.09675 7.37879 7.06113 7.11035 6.99617C7.30099 5.86263 8.28702 4.99902 9.47475 4.99902Z"
          fill="black"/>
</svg>
