<svg width="24" height="24" viewBox="0 0 24 24" fill="none" xmlns="http://www.w3.org/2000/svg">
    <path fill-rule="evenodd" clip-rule="evenodd"
          d="M13.9057 4.10289C13.7934 3.99031 13.7058 3.85553 13.6485 3.70717C13.597 3.5715 13.5827 3.42452 13.6071 3.28146C13.6228 3.15001 13.6816 3.02746 13.7742 2.93289C13.8688 2.84024 13.9914 2.78148 14.1228 2.76575L20.6971 2.15289C20.832 2.14183 20.9676 2.16288 21.0928 2.21432C21.2298 2.26948 21.3543 2.35167 21.4589 2.45598C21.5634 2.56029 21.6459 2.68459 21.7014 2.82146C21.753 2.9471 21.7741 3.08322 21.7628 3.2186L21.1671 9.81003C21.1514 9.94148 21.0926 10.064 21 10.1586C20.9054 10.2512 20.7828 10.31 20.6514 10.3257C20.5124 10.3501 20.3695 10.3373 20.2371 10.2886C20.092 10.2349 19.9593 10.1523 19.8471 10.0457L13.9057 4.10289ZM12.3985 14.2643L12.1557 14.51C11.7907 14.8771 11.5853 15.3734 11.5843 15.891C11.5832 16.4086 11.7865 16.9058 12.15 17.2743L12.7614 17.8943C12.9277 18.0629 13.0203 18.2907 13.0187 18.5275C13.017 18.7644 12.9214 18.9908 12.7528 19.1572C12.5842 19.3235 12.3564 19.416 12.1196 19.4144C11.8828 19.4128 11.6563 19.3172 11.49 19.1486L10.8785 18.5286C10.4718 18.1172 10.1659 17.6171 9.98493 17.0676C9.80399 16.5181 9.7529 15.9341 9.83567 15.3615L3.84853 21.3472C3.76663 21.4341 3.66811 21.5038 3.5588 21.552C3.44949 21.6002 3.33163 21.626 3.21217 21.6278C3.09272 21.6296 2.97412 21.6075 2.86339 21.5626C2.75266 21.5178 2.65206 21.4512 2.56753 21.3668C2.48301 21.2823 2.41629 21.1818 2.37133 21.0711C2.32636 20.9605 2.30406 20.8419 2.30575 20.7224C2.30745 20.603 2.33309 20.4851 2.38117 20.3757C2.42926 20.2663 2.4988 20.1677 2.58567 20.0857L10.4028 12.2686L8.4871 10.3543C8.41484 10.2823 8.35884 10.1957 8.32286 10.1002C8.28689 10.0048 8.27178 9.90272 8.27855 9.80093C8.28531 9.69915 8.3138 9.6 8.3621 9.51015C8.41039 9.42029 8.47737 9.34183 8.55853 9.28003L13.1014 5.82432L18.1071 10.83L14.6528 15.3729C14.591 15.4538 14.5126 15.5206 14.4229 15.5687C14.3332 15.6169 14.2342 15.6453 14.1326 15.6521C14.031 15.6588 13.9291 15.6438 13.8338 15.608C13.7385 15.5721 13.6519 15.5163 13.58 15.4443L12.3985 14.2643ZM15.6885 16.4786C15.7714 16.3957 15.8699 16.3299 15.9782 16.285C16.0866 16.2401 16.2027 16.217 16.32 16.217C16.4372 16.217 16.5534 16.2401 16.6617 16.285C16.77 16.3299 16.8685 16.3957 16.9514 16.4786L17.5957 17.1243C17.7631 17.2918 17.8572 17.5189 17.8572 17.7557C17.8572 17.9926 17.7631 18.2197 17.5957 18.3872C17.4282 18.5546 17.2011 18.6487 16.9642 18.6487C16.7274 18.6487 16.5003 18.5546 16.3328 18.3872L15.69 17.7429C15.607 17.66 15.5412 17.5615 15.4964 17.4532C15.4515 17.3449 15.4284 17.2287 15.4284 17.1115C15.4284 16.9942 15.4515 16.8781 15.4964 16.7697C15.5412 16.6614 15.607 16.5629 15.69 16.48L15.6885 16.4786ZM19.6885 16.4786C19.7715 16.3956 19.8701 16.3297 19.9786 16.2848C20.087 16.2399 20.2033 16.2168 20.3207 16.2168C20.4381 16.2168 20.5543 16.2399 20.6628 16.2848C20.7713 16.3297 20.8698 16.3956 20.9528 16.4786C21.0358 16.5616 21.1017 16.6602 21.1466 16.7686C21.1915 16.8771 21.2147 16.9933 21.2147 17.1107C21.2147 17.2281 21.1915 17.3444 21.1466 17.4529C21.1017 17.5613 21.0358 17.6599 20.9528 17.7429L20.3071 18.3857C20.1382 18.5452 19.9138 18.6325 19.6816 18.6292C19.4494 18.6259 19.2276 18.5323 19.0633 18.3681C18.899 18.204 18.8051 17.9823 18.8015 17.7501C18.798 17.5179 18.885 17.2934 19.0442 17.1243L19.69 16.48L19.6885 16.4786ZM15.6885 21.3486C16.0371 21.6972 16.6028 21.6972 16.9514 21.3486L17.5957 20.7029C17.7549 20.5338 17.842 20.3093 17.8384 20.0771C17.8349 19.8449 17.741 19.6232 17.5767 19.4591C17.4123 19.2949 17.1905 19.2013 16.9583 19.198C16.7261 19.1947 16.5017 19.282 16.3328 19.4415L15.69 20.0843C15.6068 20.1673 15.5408 20.2658 15.4958 20.3743C15.4508 20.4827 15.4277 20.599 15.4277 20.7165C15.4277 20.8339 15.4508 20.9502 15.4958 21.0587C15.5408 21.1671 15.6068 21.2657 15.69 21.3486H15.6885ZM19.6885 21.3486C19.856 21.5163 20.0832 21.6105 20.3202 21.6107C20.5571 21.6108 20.7845 21.5168 20.9521 21.3493C21.1198 21.1819 21.214 20.9546 21.2142 20.7177C21.2143 20.4807 21.1203 20.2534 20.9528 20.0857L20.3071 19.4415C20.2252 19.3545 20.1267 19.2848 20.0174 19.2366C19.9081 19.1884 19.7902 19.1626 19.6707 19.1608C19.5513 19.159 19.4327 19.1812 19.322 19.226C19.2112 19.2708 19.1106 19.3374 19.0261 19.4219C18.9416 19.5063 18.8749 19.6068 18.8299 19.7175C18.7849 19.8282 18.7626 19.9468 18.7643 20.0662C18.766 20.1857 18.7917 20.3036 18.8397 20.4129C18.8878 20.5223 18.9574 20.6209 19.0442 20.7029L19.69 21.3486H19.6885Z"
          fill="black"/>
</svg>
