<svg width="24" height="24" viewBox="0 0 24 24" fill="none" xmlns="http://www.w3.org/2000/svg">
    <path fill-rule="evenodd" clip-rule="evenodd"
          d="M12.9985 11.659C12.9985 12.211 12.5515 12.658 11.9995 12.658C11.4475 12.658 11.0005 12.211 11.0005 11.659C11.0005 11.107 11.4475 10.66 11.9995 10.66C12.5515 10.66 12.9985 11.107 12.9985 11.659ZM10.3295 11.6885V14.3125C10.3295 15.2345 11.0775 15.9815 11.9995 15.9815C12.9215 15.9815 13.6695 15.2345 13.6695 14.3125V11.6885C13.6695 10.7655 12.9215 10.0185 11.9995 10.0185C11.0775 10.0185 10.3295 10.7655 10.3295 11.6885ZM12.2505 2.66649H17.0005C17.0005 3.93449 16.9995 4.92849 15.7495 6.66749C14.7605 8.04349 14.6665 8.63649 14.6665 10.1665V19.9165V21.9175V22.5C14.6665 23.329 13.9955 24 13.1665 24H10.8335C10.0045 24 9.33351 23.329 9.33351 22.5V21.9175V19.9165V10.1665C9.33351 8.63649 9.23951 8.04349 8.24951 6.66749C7.00051 4.92849 6.99951 3.93449 6.99951 2.66649H11.7505H12.2505ZM6.99951 0.500488C6.99951 0.224488 7.22351 0.000488281 7.49951 0.000488281H16.5005C16.7765 0.000488281 17.0005 0.224488 17.0005 0.500488V1.66649H6.99951V0.500488Z"
          fill="black"/>
</svg>
