<svg width="24" height="24" viewBox="0 0 24 24" fill="none" xmlns="http://www.w3.org/2000/svg">
    <path fill-rule="evenodd" clip-rule="evenodd"
          d="M3.7713 1.7088C3.31746 2.16264 3.0625 2.77818 3.0625 3.42C3.06236 3.8766 3.19139 4.32393 3.4347 4.7103C3.67801 5.09667 4.02566 5.40633 4.4375 5.6035V18.4522C4.02574 18.6511 3.67835 18.9621 3.43516 19.3493C3.19198 19.7366 3.06282 20.1846 3.0625 20.6419C3.0625 21.2837 3.31746 21.8992 3.7713 22.3531C4.22514 22.8069 4.84068 23.0619 5.4825 23.0619H18.0637C18.7056 23.0619 19.3211 22.8069 19.7749 22.3531C20.2288 21.8992 20.4837 21.2837 20.4837 20.6419C20.4839 20.274 20.4004 19.9109 20.2397 19.58C20.0789 19.2492 19.845 18.9592 19.5556 18.732V5.32575C19.9523 5.01531 20.2422 4.58883 20.3849 4.10578C20.5277 3.62273 20.5161 3.10717 20.3519 2.63099C20.1877 2.15481 19.879 1.74174 19.4688 1.44938C19.0586 1.15701 18.5675 0.999918 18.0637 1H5.4825C4.84068 1 4.22514 1.25496 3.7713 1.7088ZM5.4825 2.375H18.0637C18.3309 2.37394 18.5883 2.47523 18.7831 2.65805C18.9778 2.84087 19.0952 3.09135 19.1111 3.35802C19.1269 3.62469 19.04 3.8873 18.8682 4.0919C18.6965 4.2965 18.4529 4.42755 18.1875 4.45813V4.46497H5.5V4.465H5.4825C5.20535 4.465 4.93955 4.3549 4.74357 4.15893C4.5476 3.96295 4.4375 3.69715 4.4375 3.42C4.4375 3.14285 4.5476 2.87705 4.74357 2.68107C4.93955 2.4851 5.20535 2.375 5.4825 2.375ZM5.8125 7.92309V15.4787H7.96712C8.48129 16.0324 9.10429 16.474 9.79708 16.7756C10.4899 17.0773 11.2375 17.2326 11.9931 17.2318C12.7487 17.2326 13.4964 17.0773 14.1892 16.7756C14.882 16.474 15.505 16.0324 16.0191 15.4787H18.1875V7.92309H15.9607C15.4479 7.38777 14.832 6.96191 14.1501 6.67123C13.4682 6.38055 12.7344 6.23108 11.9931 6.23184C11.2518 6.23108 10.5181 6.38055 9.83618 6.67123C9.15426 6.96191 8.53833 7.38777 8.02556 7.92309H5.8125ZM18.1875 19.59H5.8125V19.59H5.4825C4.905 19.59 4.4375 20.0644 4.4375 20.6419C4.4375 21.2194 4.905 21.6869 5.4825 21.6869H18.0637C18.6412 21.6869 19.1087 21.2194 19.1087 20.6419C19.1087 20.1056 18.7066 19.6588 18.1875 19.5969V19.59ZM9.54294 9.25416C9.75483 9.52401 10.0511 9.71498 10.3844 9.79653C9.76823 9.91952 9.21371 10.2521 8.81513 10.7378C8.41655 11.2235 8.19852 11.8323 8.19812 12.4606C8.19812 13.9593 9.415 15.1762 10.9138 15.1762H13.0725C13.7461 15.1738 14.3948 14.9212 14.8928 14.4675C15.3907 14.0138 15.7023 13.3913 15.7671 12.7208C15.832 12.0503 15.6454 11.3796 15.2437 10.8388C14.8419 10.2981 14.2536 9.92592 13.5929 9.79447C13.9299 9.71579 14.2304 9.52541 14.4455 9.25429C14.6605 8.98318 14.7776 8.64728 14.7775 8.30122H13.21C12.9756 8.30049 12.7441 8.35354 12.5334 8.45627C12.3227 8.55901 12.1383 8.7087 11.9945 8.89384C11.714 8.53703 11.2781 8.30809 10.79 8.30809H9.21562C9.21579 8.65119 9.33105 8.98431 9.54294 9.25416Z"
          fill="black"/>
</svg>
