<svg width="24" height="24" viewBox="0 0 24 24" fill="none" xmlns="http://www.w3.org/2000/svg">
    <path fill-rule="evenodd" clip-rule="evenodd"
          d="M6.09115 17.968L3.87803 17.706C3.32627 17.6407 2.93405 17.1386 3.00924 16.5881C3.19092 15.2579 3.53369 12.8775 3.87646 11.1909C3.88673 11.1404 3.89691 11.0902 3.907 11.0404C4.31238 9.0418 4.59521 7.64737 6.06849 6.93358C6.16237 6.88809 6.25065 6.83256 6.33198 6.76869C6.40605 6.88854 6.48522 7.00331 6.56634 7.11228C6.93728 7.61062 7.39888 8.05325 7.76697 8.38937C8.43959 9.00356 9.53098 9.76241 10.884 10.7032C11.2839 10.9812 11.7066 11.2751 12.1481 11.5859C12.4076 11.7685 12.7407 12.0417 13.0028 12.3199C13.1341 12.4592 13.2365 12.5882 13.3031 12.6978C13.3626 12.7957 13.3739 12.8458 13.376 12.8553C13.376 12.857 13.3764 12.8573 13.376 12.8553L13.3765 23H7.89421C7.33585 23 6.88733 22.5433 6.89427 21.988L7.29052 13.9468C7.30411 13.671 7.09154 13.4364 6.81573 13.4228C6.53993 13.4092 6.30532 13.6217 6.29173 13.8975L6.09115 17.968ZM10.8765 13.0572C10.8765 12.6697 11.1905 12.3557 11.578 12.3557C11.9654 12.3557 12.2795 12.6697 12.2795 13.0572C12.2795 13.4446 11.9654 13.7587 11.578 13.7587C11.1905 13.7587 10.8765 13.4446 10.8765 13.0572Z"
          fill="black"/>
    <path d="M14.3765 23H16.8706C17.4369 23 17.8901 22.5303 17.87 21.9644L17.8565 21.5879L17.3638 13.9234C17.3461 13.6478 17.5551 13.41 17.8307 13.3923C18.1063 13.3746 18.344 13.5836 18.3617 13.8592L18.6262 17.9735C18.6327 17.9726 18.6392 17.9718 18.6458 17.971L20.8753 17.7063C21.4269 17.6409 21.8189 17.1388 21.7437 16.5884C21.5621 15.2582 21.2193 12.8776 20.8765 11.1909C20.4398 9.04244 19.7584 7.78007 18.378 6.94292C18.1466 7.3926 17.787 7.88494 17.2024 8.39643C16.1953 9.27764 15.0644 10.0244 14.0041 10.7245C13.7584 10.8868 13.5161 11.0468 13.2804 11.2051C13.4351 11.3392 13.5897 11.4846 13.7306 11.6342C13.8893 11.8026 14.0418 11.988 14.1575 12.1782C14.2674 12.3589 14.3765 12.596 14.3765 12.8557V23Z"
          fill="black"/>
    <path fill-rule="evenodd" clip-rule="evenodd"
          d="M17.8734 5.29019C17.8932 5.01807 17.9069 4.70759 17.9069 4.36026C17.9069 2.80695 16.9577 2.03097 15.6269 1.42622C14.3765 0.857944 10.3765 0.857907 9.13787 1.42622C7.99664 1.94987 6.87646 2.64161 6.87646 4.30226C6.87646 4.40171 6.87631 4.49641 6.87616 4.58693C6.87559 4.93659 6.87513 5.2238 6.88402 5.48093C6.92066 5.79102 7.08947 6.14031 7.36851 6.51519C7.67948 6.93297 8.08171 7.32257 8.44129 7.65092C9.06032 8.21619 10.0712 8.91927 11.4054 9.8473C11.7307 10.0736 12.0753 10.3132 12.4381 10.5675C12.7953 10.323 13.1563 10.0848 13.5175 9.84641C14.5529 9.16303 15.5897 8.47878 16.5439 7.64386C17.1516 7.11208 17.4389 6.63574 17.5973 6.25044C17.6781 6.05409 17.729 5.87264 17.7711 5.70162C17.7802 5.66484 17.7895 5.62521 17.7992 5.5841C17.8218 5.48847 17.8463 5.38465 17.8734 5.29019ZM12.3765 7.35565C12.3765 7.35565 14.8765 6.05528 14.8765 5.09478C14.8765 4.13429 13.7572 3.35565 12.3765 3.35565C10.9958 3.35565 9.87646 4.13429 9.87646 5.09478C9.87646 6.05528 12.3765 7.35565 12.3765 7.35565Z"
          fill="black"/>
</svg>
