<svg width="24" height="24" viewBox="0 0 24 24" fill="none" xmlns="http://www.w3.org/2000/svg">
    <path fill-rule="evenodd" clip-rule="evenodd"
          d="M1.82187 8.33493C0.865281 8.88722 0.537532 10.1104 1.08982 11.067L1.58981 11.933C2.1421 12.8896 3.36528 13.2173 4.32186 12.6651L18.1783 4.66505C19.1349 4.11277 19.4626 2.88959 18.9103 1.933L18.4103 1.06698C17.858 0.110399 16.6349 -0.217351 15.6783 0.334934L1.82187 8.33493ZM3.99991 20V14.4905C4.21831 14.4248 4.43263 14.3331 4.6387 14.2141L9.18986 11.5865C9.37158 11.837 9.66672 12 9.99991 12H15.9999C16.5522 12 16.9999 11.5523 16.9999 11C16.9999 10.4477 16.5522 10 15.9999 10H11.9377L14.5358 8.5H20.9999C21.5522 8.5 21.9999 8.94772 21.9999 9.5V20C21.9999 21.1046 21.1045 22 19.9999 22H5.99991C4.89534 22 3.99991 21.1046 3.99991 20Z"
          fill="black"/>
</svg>
