<svg width="24" height="24" viewBox="0 0 24 24" fill="none" xmlns="http://www.w3.org/2000/svg">
    <path fill-rule="evenodd" clip-rule="evenodd"
          d="M5 3C3.89543 3 3 3.89543 3 5V19C3 20.1046 3.89543 21 5 21H19C20.1046 21 21 20.1046 21 19V5C21 3.89543 20.1046 3 19 3H5ZM6 13C5.44772 13 5 13.4477 5 14V18C5 18.5523 5.44772 19 6 19H10C10.5523 19 11 18.5523 11 18V14C11 13.4477 10.5523 13 10 13H6ZM9 6C9 5.44772 9.44772 5 10 5H14C14.5523 5 15 5.44772 15 6V10C15 10.5523 14.5523 11 14 11H10C9.44772 11 9 10.5523 9 10V6ZM14 13C13.4477 13 13 13.4477 13 14V18C13 18.5523 13.4477 19 14 19H18C18.5523 19 19 18.5523 19 18V14C19 13.4477 18.5523 13 18 13H14Z"
          fill="black"/>
</svg>
