<svg width="24" height="24" viewBox="0 0 24 24" fill="none" xmlns="http://www.w3.org/2000/svg">
    <path fill-rule="evenodd" clip-rule="evenodd"
          d="M21.6249 3.54163V9.20829C22.2196 9.65429 22.6588 10.2761 22.8805 10.9856C23.1021 11.6951 23.0949 12.4564 22.8598 13.1616C22.6248 13.8668 22.1738 14.4801 21.5708 14.9148C20.9677 15.3494 20.2433 15.5833 19.4999 15.5833C18.7566 15.5833 18.0321 15.3494 17.4291 14.9148C16.826 14.4801 16.3751 13.8668 16.14 13.1616C15.9049 12.4564 15.8977 11.6951 16.1193 10.9856C16.341 10.2761 16.7803 9.65429 17.3749 9.20829V3.54163C17.3749 2.97804 17.5988 2.43754 17.9973 2.03902C18.3958 1.64051 18.9363 1.41663 19.4999 1.41663C20.0635 1.41663 20.604 1.64051 21.0025 2.03902C21.401 2.43754 21.6249 2.97804 21.6249 3.54163ZM20.0008 3.04076C19.8679 2.90792 19.6878 2.83329 19.4999 2.83329C19.3121 2.83329 19.1319 2.90792 18.9991 3.04076C18.8662 3.1736 18.7916 3.35376 18.7916 3.54163V5.66663H20.2083V3.54163C20.2083 3.35376 20.1336 3.1736 20.0008 3.04076ZM20.75 21V16.4079C20.3459 16.5236 19.9253 16.5833 19.4999 16.5833C19.4164 16.5833 19.3331 16.581 19.25 16.5764V20.25H14.75V14C14.75 13.5858 14.4142 13.25 14 13.25H8C7.58579 13.25 7.25 13.5858 7.25 14V20.25H2.75V11.8107L11 3.56066L16.279 8.83967C16.3105 8.808 16.3425 8.77677 16.3749 8.746V6.81426L11.5303 1.96967C11.2374 1.67678 10.7626 1.67678 10.4697 1.96967L1.46967 10.9697C1.32902 11.1103 1.25 11.3011 1.25 11.5V21C1.25 21.4142 1.58579 21.75 2 21.75H8C8.41421 21.75 8.75 21.4142 8.75 21V14.75H13.25V21C13.25 21.4142 13.5858 21.75 14 21.75H20C20.4142 21.75 20.75 21.4142 20.75 21Z"
          fill="black"/>
</svg>
