<svg width="24" height="24" viewBox="0 0 24 24" fill="none" xmlns="http://www.w3.org/2000/svg">
    <path fill-rule="evenodd" clip-rule="evenodd"
          d="M5.01861 8.04291C4.85216 6.82593 5.82333 5.74456 7.08273 5.74456H16.1574C17.4168 5.74456 18.3879 6.82593 18.2215 8.04291L16.4168 21.2382C16.2788 22.2468 15.3963 23 14.3526 23H8.88746C7.84376 23 6.96128 22.2468 6.82334 21.2382L5.01861 8.04291ZM16.1574 7.77461L7.08273 7.77461L8.88746 20.9699H14.3526L16.1574 7.77461Z"
          fill="black"/>
    <path d="M6.00508 11.418C5.94698 11.1065 6.19248 10.8197 6.51728 10.8197H16.7228C17.0476 10.8197 17.2931 11.1065 17.235 11.418L15.3419 21.5682C15.2969 21.8096 15.0813 21.985 14.8297 21.985H8.41036C8.15876 21.985 7.94317 21.8096 7.89816 21.5682L6.00508 11.418Z"
          fill="black"/>
    <path fill-rule="evenodd" clip-rule="evenodd"
          d="M18.9211 1.62827C19.1403 2.1465 18.8871 2.73989 18.3555 2.95364L14.9518 4.32224L13.0554 11.2578C12.9073 11.7995 12.3368 12.1215 11.7811 11.9771C11.2255 11.8328 10.8951 11.2766 11.0432 10.7349L13.2051 2.82861L17.5615 1.07695C18.0931 0.863201 18.7018 1.11004 18.9211 1.62827Z"
          fill="black"/>
</svg>
