<svg width="24" height="24" viewBox="0 0 24 24" fill="none" xmlns="http://www.w3.org/2000/svg">
    <path fill-rule="evenodd" clip-rule="evenodd"
          d="M1 8C1 6.89543 1.89543 6 3 6H14.5858C14.851 6 15.1054 6.10536 15.2929 6.29289L16 7L16.7071 6.29289C16.8946 6.10536 17.149 6 17.4142 6H21C22.1046 6 23 6.89543 23 8V16C23 17.1046 22.1046 18 21 18H17.4142C17.149 18 16.8946 17.8946 16.7071 17.7071L16 17L15.2929 17.7071C15.1054 17.8946 14.851 18 14.5858 18H3C1.89543 18 1 17.1046 1 16V8ZM4 15.2319C4 14.9558 4.22386 14.7319 4.5 14.7319H11.5C11.7761 14.7319 12 14.9558 12 15.2319C12 15.5081 11.7761 15.7319 11.5 15.7319H4.5C4.22386 15.7319 4 15.5081 4 15.2319ZM5 7.73193C4.44772 7.73193 4 8.17965 4 8.73193V11.7319C4 12.2842 4.44772 12.7319 5 12.7319H11C11.5523 12.7319 12 12.2842 12 11.7319V8.73193C12 8.17965 11.5523 7.73193 11 7.73193H5ZM16 11.2319C15.7239 11.2319 15.5 11.0081 15.5 10.7319V8.73193C15.5 8.45579 15.7239 8.23193 16 8.23193C16.2761 8.23193 16.5 8.45579 16.5 8.73193V10.7319C16.5 11.0081 16.2761 11.2319 16 11.2319ZM15.5 15.2319C15.5 15.5081 15.7239 15.7319 16 15.7319C16.2761 15.7319 16.5 15.5081 16.5 15.2319V13.2319C16.5 12.9558 16.2761 12.7319 16 12.7319C15.7239 12.7319 15.5 12.9558 15.5 13.2319V15.2319Z"
          fill="black"/>
</svg>
