<svg width="24" height="24" viewBox="0 0 24 24" fill="none" xmlns="http://www.w3.org/2000/svg">
    <path d="M16.5189 20.0784C15.1229 20.8219 13.5305 21.243 11.8402 21.243C10.1499 21.243 8.55746 20.8219 7.1614 20.0784L6.45761 21.5647C6.14211 22.231 6.62598 23 7.36073 23H16.3196C17.0543 23 17.5382 22.231 17.2227 21.5647L16.5189 20.0784Z"
          fill="black"/>
    <path d="M10.1666 5.30296L11.0376 6.56133C11.4654 7.17925 12.5346 7.17925 12.9624 6.56132L13.8334 5.30296C13.8375 5.3043 13.8417 5.30563 13.8458 5.30697L12.3493 9.06355C12.2359 9.04349 12.1192 9.03302 12 9.03302C11.8808 9.03302 11.7641 9.04349 11.6507 9.06355L10.1542 5.30697C10.1584 5.30563 10.1625 5.30429 10.1666 5.30296Z"
          fill="black"/>
    <path d="M9.57354 4.44615C6.90351 5.43697 5 8.01591 5 11.0413C5 14.9232 8.13401 18.0702 12 18.0702C15.866 18.0702 19 14.9232 19 11.0413C19 8.01591 17.0965 5.43697 14.4265 4.44615L15.5971 2.75485C18.7773 4.14873 21 7.33436 21 11.0413C21 16.0324 16.9706 20.0784 12 20.0784C7.02944 20.0784 3 16.0324 3 11.0413C3 7.33436 5.2227 4.14873 8.40285 2.75485L9.57354 4.44615Z"
          fill="black"/>
    <path d="M10.7401 9.48148C10.6149 9.58362 10.5022 9.70066 10.4047 9.82991L6.67196 8.26819C7.24077 7.16853 8.13731 6.26721 9.23166 5.69472L10.7401 9.48148Z"
          fill="black"/>
    <path d="M10 11.0413C10 10.9447 10.0068 10.8497 10.0199 10.7567L6.287 9.19494C6.10064 9.77678 6 10.3972 6 11.0413C6 11.6879 6.10146 12.3108 6.28926 12.8947L10.0304 11.392C10.0104 11.2781 10 11.1609 10 11.0413Z"
          fill="black"/>
    <path d="M10.4466 12.3063C10.5743 12.4643 10.7254 12.6023 10.8947 12.7152L9.39825 16.4717C8.23058 15.9066 7.27307 14.9729 6.67542 13.821L10.4466 12.3063Z"
          fill="black"/>
    <path d="M13.6676 16.8303C13.1382 16.9838 12.5786 17.066 12 17.066C11.4214 17.066 10.8618 16.9838 10.3324 16.8303L11.841 13.0433C11.8935 13.0474 11.9465 13.0495 12 13.0495C12.0535 13.0495 12.1065 13.0474 12.159 13.0433L13.6676 16.8303Z"
          fill="black"/>
    <path d="M13.9801 11.3258C13.9932 11.2329 14 11.1379 14 11.0413C14 10.9875 13.9979 10.9343 13.9938 10.8816L17.7652 9.36682C17.9181 9.89842 18 10.4602 18 11.0413C18 11.6853 17.8994 12.3058 17.713 12.8876L13.9801 11.3258Z"
          fill="black"/>
    <path d="M14.6018 16.4717L13.1053 12.7152C13.2935 12.5897 13.4592 12.4331 13.5953 12.2526L17.328 13.8144C16.7306 14.9693 15.7717 15.9055 14.6018 16.4717Z"
          fill="black"/>
    <path d="M13.6671 9.93137C13.5546 9.76146 13.4171 9.60973 13.2599 9.48149L14.7684 5.69473C15.9155 6.29484 16.8453 7.25629 17.4081 8.42878L13.6671 9.93137Z"
          fill="black"/>
    <path d="M13 11.0413C13 11.5958 12.5523 12.0454 12 12.0454C11.4477 12.0454 11 11.5958 11 11.0413C11 10.4867 11.4477 10.0372 12 10.0372C12.5523 10.0372 13 10.4867 13 11.0413Z"
          fill="black"/>
    <path d="M12.7218 5.63444C12.401 6.14937 11.599 6.14937 11.2782 5.63444L9.1129 2.15861C8.79211 1.64367 9.1931 1 9.83468 1L14.1653 1C14.8069 1 15.2079 1.64367 14.8871 2.15861L12.7218 5.63444Z"
          fill="black"/>
</svg>
