<svg width="24" height="24" viewBox="0 0 24 24" fill="none" xmlns="http://www.w3.org/2000/svg">
    <path fill-rule="evenodd" clip-rule="evenodd"
          d="M20 6C20 6.55 20.45 7 21 7C21.55 7 22 6.55 22 6V3C22 2.45 21.55 2 21 2H18C17.45 2 17 2.45 17 3C17 3.55 17.45 4 18 4H20V6ZM22 18V21C22 21.55 21.55 22 21 22H18C17.45 22 17 21.55 17 21C17 20.45 17.45 20 18 20H20V18C20 17.45 20.45 17 21 17C21.55 17 22 17.45 22 18ZM6 22H3C2.45 22 2 21.55 2 21V18C2 17.45 2.45 17 3 17C3.55 17 4 17.45 4 18V20H6C6.55 20 7 20.45 7 21C7 21.55 6.55 22 6 22ZM2 6V3C2 2.45 2.45 2 3 2H6C6.55 2 7 2.45 7 3C7 3.55 6.55 4 6 4H4V6C4 6.55 3.55 7 3 7C2.45 7 2 6.55 2 6ZM5 6.4C5 5.6268 5.6268 5 6.4 5H7.8V7.8H10.6V10.6H7.8V13.4H10.6V16.2H13.4V13.4H16.2V16.2H19V17.6C19 18.3732 18.3732 19 17.6 19H6.4C5.6268 19 5 18.3732 5 17.6V6.4ZM16.2 10.6H19V13.4H16.2V10.6ZM13.4 10.6H16.2V7.8H19V6.4C19 5.6268 18.3732 5 17.6 5H16.2V7.8H13.4V10.6ZM13.4 10.6H10.6V13.4H13.4V10.6Z"
          fill="black"/>
</svg>
