<svg width="24" height="24" viewBox="0 0 24 24" fill="none" xmlns="http://www.w3.org/2000/svg">
    <path fill-rule="evenodd" clip-rule="evenodd"
          d="M19.5625 19.353C20.4846 19.353 21.2321 18.6068 21.2321 17.6864C21.2321 16.7659 20.4846 16.0197 19.5625 16.0197C18.6404 16.0197 17.8929 16.7659 17.8929 17.6864C17.8929 18.6068 18.6404 19.353 19.5625 19.353ZM19.5625 21.1178C21.461 21.1178 23 19.5815 23 17.6864C23 15.7913 21.461 14.255 19.5625 14.255C17.664 14.255 16.125 15.7913 16.125 17.6864C16.125 19.5815 17.664 21.1178 19.5625 21.1178Z"
          fill="black"/>
    <path d="M9.74106 2.9804C9.74106 3.52186 9.30134 3.9608 8.75891 3.9608C8.21649 3.9608 7.77677 3.52186 7.77677 2.9804C7.77677 2.43894 8.21649 2 8.75891 2C9.30134 2 9.74106 2.43894 9.74106 2.9804Z"
          fill="black"/>
    <path d="M5.81248 2.9804C5.81248 3.52186 5.37276 3.9608 4.83034 3.9608C4.28791 3.9608 3.84819 3.52186 3.84819 2.9804C3.84819 2.43894 4.28791 2 4.83034 2C5.37276 2 5.81248 2.43894 5.81248 2.9804Z"
          fill="black"/>
    <path fill-rule="evenodd" clip-rule="evenodd"
          d="M8.36569 2.98026C8.36569 2.49295 8.76144 2.0979 9.24962 2.0979C9.94177 2.0979 10.7299 2.36156 11.3525 2.79662C11.9736 3.2306 12.5889 3.95598 12.5889 4.94106V11.0906L12.4405 11.3129C11.7356 12.3683 10.4186 13.8295 7.67821 15.2829V18.1765C7.67821 18.8658 7.9663 19.3475 8.40419 19.6805C8.86666 20.0322 9.52736 20.2353 10.2318 20.2353C10.9362 20.2353 11.5969 20.0322 12.0594 19.6805C12.4972 19.3475 12.7853 18.8658 12.7853 18.1765V13.2745C12.7853 12.1328 13.2886 11.2365 14.0471 10.6474C14.782 10.0767 15.7198 9.81791 16.6155 9.81793C17.5112 9.81795 18.449 10.0768 19.1839 10.6474C19.9424 11.2365 20.4459 12.1327 20.4461 13.2743C20.4464 14.9897 20.4464 15.481 20.4463 15.543L20.4462 15.5556L20.4461 15.5647L20.4453 15.5896C20.4398 15.6555 19.5147 16.4298 18.6819 15.6265C18.6801 15.6037 18.6788 15.5749 18.6786 15.569L18.6785 15.5604L18.6784 15.5549L18.6784 15.5487L18.6782 15.2357C18.6782 15.2281 18.6783 15.2206 18.6785 15.2131C18.6785 14.8948 18.6784 14.3064 18.6782 13.2746C18.6781 12.7001 18.4448 12.3093 18.0984 12.0403C17.7282 11.7529 17.1929 11.5827 16.6154 11.5826C16.038 11.5826 15.5027 11.7528 15.1327 12.0402C14.7865 12.3091 14.5532 12.6999 14.5532 13.2745V18.1765C14.5532 19.4479 13.9819 20.4369 13.1307 21.0842C12.3042 21.7129 11.2461 22 10.2318 22C9.21745 22 8.1594 21.7129 7.33281 21.0842C6.48164 20.4369 5.91036 19.4479 5.91036 18.1765L5.91036 14.1998L6.39896 13.9559C8.99055 12.6623 10.2041 11.3989 10.821 10.5473V4.94106C10.821 4.74965 10.6998 4.49464 10.3387 4.24234C9.97919 3.99112 9.53961 3.86262 9.24962 3.86262C8.76144 3.86262 8.36569 3.46757 8.36569 2.98026Z"
          fill="black"/>
    <path fill-rule="evenodd" clip-rule="evenodd"
          d="M5.22322 2.9804C5.22322 2.49308 4.82747 2.09804 4.33929 2.09804C3.64714 2.09804 2.85903 2.3617 2.23641 2.79676C1.61534 3.23073 1 3.95612 1 4.94119V11.0907L1.14846 11.313C1.89396 12.4293 3.32432 13.9996 6.3993 15.5345C6.83593 15.7524 7.36689 15.5757 7.58522 15.1399C7.80356 14.704 7.62659 14.174 7.18995 13.9561C4.59836 12.6625 3.38481 11.399 2.76786 10.5475V4.94119C2.76786 4.74979 2.88913 4.49478 3.25021 4.24247C3.60972 3.99126 4.0493 3.86276 4.33929 3.86276C4.82747 3.86276 5.22322 3.46771 5.22322 2.9804Z"
          fill="black"/>
</svg>
