<svg width="24" height="24" viewBox="0 0 24 24" fill="none" xmlns="http://www.w3.org/2000/svg">
    <path fill-rule="evenodd" clip-rule="evenodd"
          d="M9 2C8.44772 2 8 2.44772 8 3V3.33333C8 3.76607 7.85964 4.18714 7.6 4.53333L5.4 7.46667C5.14036 7.81286 5 8.23393 5 8.66667V20C5 21.1046 5.89543 22 7 22H17C18.1046 22 19 21.1046 19 20V8.66667C19 8.23393 18.8596 7.81286 18.6 7.46667L16.4 4.53333C16.1404 4.18714 16 3.76607 16 3.33333V3C16 2.44772 15.5523 2 15 2H9ZM14 9V21H17C17.5523 21 18 20.5523 18 20V9H14ZM18 8L16 5.5L14 8H18Z"
          fill="black"/>
</svg>
