<svg width="24" height="24" viewBox="0 0 24 24" fill="none" xmlns="http://www.w3.org/2000/svg">
    <path fill-rule="evenodd" clip-rule="evenodd"
          d="M20 7C20 7.55 20.45 8 21 8C21.55 8 22 7.55 22 7V3C22 2.45 21.55 2 21 2H17C16.45 2 16 2.45 16 3C16 3.55 16.45 4 17 4H20V7ZM22 17V21C22 21.55 21.55 22 21 22H17C16.45 22 16 21.55 16 21C16 20.45 16.45 20 17 20H20V17C20 16.45 20.45 16 21 16C21.55 16 22 16.45 22 17ZM7 22H3C2.45 22 2 21.55 2 21V17C2 16.45 2.45 16 3 16C3.55 16 4 16.45 4 17V20H7C7.55 20 8 20.45 8 21C8 21.55 7.55 22 7 22ZM2 7V3C2 2.45 2.45 2 3 2H7C7.55 2 8 2.45 8 3C8 3.55 7.55 4 7 4H4V7C4 7.55 3.55 8 3 8C2.45 8 2 7.55 2 7ZM2.11111 11C1.49746 11 1 11.4477 1 12C1 12.5523 1.49746 13 2.11111 13H21.8889C22.5025 13 23 12.5523 23 12C23 11.4477 22.5025 11 21.8889 11H2.11111Z"
          fill="black"/>
</svg>
