<svg width="24" height="24" viewBox="0 0 24 24" fill="none" xmlns="http://www.w3.org/2000/svg">
    <path fill-rule="evenodd" clip-rule="evenodd"
          d="M2.77278 2.77287C2.38226 3.1634 2.38226 3.79656 2.77278 4.18709L5.50351 6.91782V7.91772C5.50351 8.47001 5.95123 8.91772 6.50351 8.91772H7.50342L8.50342 9.91772H6.50351C5.95123 9.91772 5.50351 10.3654 5.50351 10.9177V14.9177C5.50351 15.47 5.95123 15.9177 6.50351 15.9177H14.5034L15.5034 16.9177H6.50351C5.95123 16.9177 5.50351 17.3654 5.50351 17.9177V19.9177C5.50351 20.47 5.95123 20.9177 6.50351 20.9177H17.5035C18.0558 20.9177 18.5035 20.4701 18.5035 19.9178L19.8136 21.228C20.2042 21.6185 20.8373 21.6185 21.2279 21.228C21.6184 20.8374 21.6184 20.2043 21.2279 19.8137L17.3318 15.9177H17.3412L11.3412 9.91772H11.3318L10.3318 8.91772H10.3412L5.61052 4.18709C5.57081 4.14738 5.53514 4.10517 5.50351 4.06095V4.08939L4.18699 2.77287C3.79647 2.38235 3.1633 2.38235 2.77278 2.77287ZM9.64933 5.39747L7.16959 2.91772H17.5035C18.0558 2.91772 18.5035 3.36544 18.5035 3.91772V7.91772C18.5035 8.47001 18.0558 8.91772 17.5035 8.91772H13.1696L11.1696 6.91772H13.5035C14.0558 6.91772 14.5035 6.47001 14.5035 5.91772C14.5035 5.36544 14.0558 4.91772 13.5035 4.91772H10.5035C10.1418 4.91772 9.82493 5.10977 9.64933 5.39747ZM14.1696 9.91772L18.5035 14.2516V10.9177C18.5035 10.3654 18.0558 9.91772 17.5035 9.91772H14.1696Z"
          fill="black"/>
</svg>
