<svg width="24" height="24" viewBox="0 0 24 24" fill="none" xmlns="http://www.w3.org/2000/svg">
    <path fill-rule="evenodd" clip-rule="evenodd"
          d="M3.35408 1.95036C2.96356 1.55984 2.33039 1.55984 1.93987 1.95036C1.54934 2.34089 1.54934 2.97405 1.93987 3.36458L3.03255 4.45726C3.01116 4.56823 2.99996 4.68282 2.99996 4.80003V19.2C2.99996 20.1941 3.80584 21 4.79996 21H19.2C19.3172 21 19.4318 20.9888 19.5427 20.9674L20.8372 22.2619C21.2277 22.6524 21.8609 22.6524 22.2514 22.2619C22.6419 21.8714 22.6419 21.2382 22.2514 20.8477L3.35408 1.95036ZM13.8 15.2247V17.4H10.2V13.8H12.3753L13.8 15.2247ZM10.2 11.6247V13.8H6.59996V10.2H8.77532L10.2 11.6247ZM17.4 10.2V13.6152L17.5848 13.8H21V10.2H17.4ZM17.4 6.60003H13.8V10.0152L13.9848 10.2H17.4V6.60003ZM17.4 6.60003H21V4.80003C21 3.80592 20.1941 3.00003 19.2 3.00003H17.4V6.60003Z"
          fill="black"/>
</svg>
