<svg width="24" height="24" viewBox="0 0 24 24" fill="none" xmlns="http://www.w3.org/2000/svg">
    <path fill-rule="evenodd" clip-rule="evenodd"
          d="M15.3605 1.5335C14.9906 1.19041 14.5046 0.999841 14 1H12L11.85 1.005C11.3468 1.04284 10.8766 1.26947 10.5335 1.63945C10.1904 2.00943 9.99984 2.49542 10 3V3.5C10.0004 4.91835 9.55855 6.30153 8.736 7.457L8.686 7.526L8.486 7.818C7.51674 9.29883 7.00033 11.0302 7 12.8V15.4228C7.66198 15.5954 8.32591 15.9005 8.86478 16.4261C9.23059 16.7829 9.49193 17.1955 9.67773 17.6227C9.86356 17.1953 10.125 16.7823 10.491 16.4253C11.5516 15.3909 13.0966 15.2107 14.1576 15.2132C14.4595 15.2139 14.7445 15.2295 14.9998 15.252C15.4493 15.2741 15.8514 15.3194 16.1676 15.3648L16.9035 15.4704L17.0144 16.2055C17.0616 16.5187 17.1089 16.9181 17.1314 17.3648C17.1538 17.6113 17.1693 17.8855 17.17 18.1758C17.1725 19.2212 16.9845 20.7456 15.9168 21.7871C15.8393 21.8626 15.7594 21.9335 15.6774 22H16L16.176 21.995C16.9399 21.9501 17.6578 21.615 18.1827 21.0583C18.7077 20.5015 19 19.7652 19 19V12.801L18.994 12.447C18.9244 10.6785 18.3405 8.96874 17.314 7.527L17.264 7.455L17.094 7.205C16.381 6.104 16 4.817 16 3.5V3L15.995 2.85C15.9572 2.34685 15.7305 1.87659 15.3605 1.5335ZM11.638 6H14.362C14.6383 6.93659 15.0685 7.82067 15.635 8.616L15.863 8.948C16.604 10.093 17 11.43 17 12.8L16.997 12.617C16.684 12.8362 16.4101 13.1067 16.187 13.417C16.0545 13.6015 15.8791 13.7509 15.676 13.8525C15.4729 13.9541 15.2481 14.0047 15.021 14C14.518 14.01 14.082 13.792 13.812 13.417C13.4902 12.9686 13.0642 12.6053 12.5706 12.3584C12.077 12.1116 11.5308 11.9885 10.979 12C10.2726 11.9887 9.58096 12.2023 9.004 12.61L9.007 12.485C9.06802 11.1196 9.52185 9.80081 10.314 8.687L10.364 8.618L10.558 8.334C11.0304 7.61309 11.3942 6.82669 11.638 6ZM9.00769 21.3628L9.00889 21.3553C9.05757 21.0502 9.10999 20.6156 9.11718 20.1292C9.13195 19.1305 8.95617 17.9121 8.16654 17.1419C7.8401 16.8235 7.43513 16.6074 7 16.4645C5.39583 15.9376 3.38178 16.405 3.38178 16.405C3.38178 16.405 2.60737 19.5798 4.13727 21.072C5.1999 22.1085 7.09473 22.0606 8.15304 21.9347L6.05985 20.101C5.8529 19.9197 5.83581 19.6091 6.02168 19.4073C6.20755 19.2054 6.52599 19.1888 6.73294 19.3701L9.00769 21.3628ZM10.3769 21.3553L10.3781 21.3628L12.6528 19.3701C12.8598 19.1888 13.1782 19.2054 13.3641 19.4073C13.5499 19.6091 13.5328 19.9197 13.3259 20.101L11.2327 21.9347C12.291 22.0606 14.1858 22.1085 15.2485 21.072C16.7784 19.5798 16.004 16.405 16.004 16.405C16.004 16.405 13.9899 15.9376 12.3857 16.4645C11.9506 16.6074 11.5456 16.8235 11.2192 17.1419C10.4296 17.9121 10.2538 19.1305 10.2686 20.1292C10.2758 20.6156 10.3282 21.0502 10.3769 21.3553Z"
          fill="black"/>
</svg>
