<svg width="24" height="24" viewBox="0 0 24 24" fill="none" xmlns="http://www.w3.org/2000/svg">
    <path d="M21.6816 9.00972L15.0002 11.0001L13.4224 10.2113C13.1446 10.0725 12.8384 10.0002 12.528 10H10.7501V8.50002H12.5002C12.7764 8.50002 13.0002 8.27627 13.0002 8.00002V7.50001C13.0002 7.22375 12.7764 7 12.5002 7H7.50009C7.22383 7 7.00008 7.22375 7.00008 7.50001V8.00002C7.00008 8.27627 7.22383 8.50002 7.50009 8.50002H9.25011V10H7.50009L3.17877 9.21441C3.11908 9.20341 3.05852 9.19787 2.99783 9.19785C2.45844 9.19785 2 9.63629 2 10.1982V13.1654C2 13.6485 2.34563 14.0629 2.82126 14.1492L5.00005 14.5457V16.0001C5.00005 16.5523 5.44787 17.0002 6.00006 17.0002H14.5824C14.8496 17.0002 15.1058 16.8933 15.2936 16.703L21.9269 9.99192C21.9738 9.94505 22 9.88129 22 9.81504V9.25004C22.0003 9.0841 21.8412 8.96409 21.6816 9.00972ZM5.00005 13.021L3.50002 12.7482V10.7972L5.00005 11.0701V13.021ZM19.1668 15.6667C19.1668 16.403 19.7637 17.0002 20.5003 17.0002C21.2369 17.0002 21.8337 16.4033 21.8337 15.6667C21.8337 14.9301 20.5003 13.0001 20.5003 13.0001C20.5003 13.0001 19.1668 14.9304 19.1668 15.6667Z"
          fill="black"/>
</svg>
