<svg width="24" height="24" viewBox="0 0 24 24" fill="none" xmlns="http://www.w3.org/2000/svg">
    <path fill-rule="evenodd" clip-rule="evenodd"
          d="M19.0758 6.99812C19.869 6.95866 20.5 6.30302 20.5 5.5C20.5 4.67157 19.8284 4 19 4C18.1716 4 17.5 4.67157 17.5 5.5C17.5 5.79907 17.5875 6.0777 17.7384 6.31167L16.5754 8.25H11.5V6.75C11.5 6.33579 11.1642 6 10.75 6C10.3358 6 10 6.33579 10 6.75V17.25C10 17.6642 10.3358 18 10.75 18C11.1642 18 11.5 17.6642 11.5 17.25V15.75H16.5754L17.1884 16.7717C17.0684 16.9873 17 17.2357 17 17.5C17 18.3284 17.6716 19 18.5 19C19.3284 19 20 18.3284 20 17.5C20 16.6716 19.3284 16 18.5 16C18.4916 16 18.4832 16.0001 18.4748 16.0002L17.6431 14.6141C17.5076 14.3882 17.2634 14.25 17 14.25H11.5V12.75H18.2007C18.46 13.1984 18.9448 13.5 19.5 13.5C20.3284 13.5 21 12.8284 21 12C21 11.1716 20.3284 10.5 19.5 10.5C18.9448 10.5 18.46 10.8016 18.2007 11.25H11.5V9.75H17C17.2634 9.75 17.5076 9.61178 17.6431 9.38587L19.0758 6.99812ZM8 5H2V19H8C8.55228 19 9 18.5523 9 18V6C9 5.44772 8.55228 5 8 5Z"
          fill="black"/>
</svg>
