<svg width="24" height="24" viewBox="0 0 24 24" fill="none" xmlns="http://www.w3.org/2000/svg">
    <path fill-rule="evenodd" clip-rule="evenodd"
          d="M4 3C4 3.55228 3.55228 4 3 4C2.44772 4 2 3.55228 2 3C2 2.44772 2.44772 2 3 2C3.55228 2 4 2.44772 4 3ZM18.5 8C20.9853 8 23 6.65685 23 5C23 3.34315 20.9853 2 18.5 2C16.5407 2 14.8738 2.83481 14.2561 4H13C13 3.44772 12.5523 3 12 3H9C8.44772 3 8 3.44772 8 4V7C7.44772 7 7 7.44772 7 8C7 8.55228 7.44772 9 8 9H13C13.5523 9 14 8.55228 14 8C14 7.44772 13.5523 7 13 7V6H14.2561C14.8738 7.16519 16.5407 8 18.5 8ZM4 14C4 11.7909 5.79086 10 8 10H13C15.2091 10 17 11.7909 17 14V18C17 20.2091 15.2091 22 13 22H8C5.79086 22 4 20.2091 4 18V14ZM6 6C6.55228 6 7 5.55228 7 5C7 4.44772 6.55228 4 6 4C5.44772 4 5 4.44772 5 5C5 5.55228 5.44772 6 6 6ZM3 8C3.55228 8 4 7.55228 4 7C4 6.44772 3.55228 6 3 6C2.44772 6 2 6.44772 2 7C2 7.55228 2.44772 8 3 8Z"
          fill="black"/>
</svg>
