<svg width="24" height="24" viewBox="0 0 24 24" fill="none" xmlns="http://www.w3.org/2000/svg">
    <path fill-rule="evenodd" clip-rule="evenodd"
          d="M4 9.5C4 8.39688 4.89687 7.5 6 7.5H6.05C6.28125 6.35938 7.29063 5.5 8.5 5.5C8.96875 5.5 9.40625 5.62813 9.77813 5.85C10.1938 5.05 11.0344 4.5 12 4.5C12.9656 4.5 13.8063 5.05 14.2219 5.85C14.5938 5.62813 15.0312 5.5 15.5 5.5C16.7094 5.5 17.7188 6.35938 17.95 7.5H18C19.1031 7.5 20 8.39688 20 9.5C20 9.86563 19.9031 10.2063 19.7313 10.5H4.26875C4.09687 10.2063 4 9.86563 4 9.5ZM3.56452 12.788C3.66429 12.3281 4.0712 12 4.54179 12H19.4581C19.9287 12 20.3356 12.3281 20.4353 12.788L21.566 18H21.75C22.4404 18 23 18.5596 23 19.25C23 19.9404 22.4404 20.5 21.75 20.5H2.25C1.55964 20.5 1 19.9404 1 19.25C1 18.5596 1.55964 18 2.25 18H2.43382L3.56452 12.788Z"
          fill="black"/>
</svg>
