<svg width="24" height="24" viewBox="0 0 24 24" fill="none" xmlns="http://www.w3.org/2000/svg">
    <path fill-rule="evenodd" clip-rule="evenodd"
          d="M16 6H20C21.11 6 22 6.89 22 8V19C22 20.11 21.11 21 20 21H4C2.89 21 2 20.11 2 19L2.01 8C2.01 6.89 2.89 6 4 6H8V4C8 2.89 8.89 2 10 2H14C15.11 2 16 2.89 16 4V6ZM10 6H14V4H10V6ZM7.3625 12.7C7.60417 12.9417 7.9 13.0625 8.25 13.0625C8.6 13.0625 8.89583 12.9417 9.1375 12.7C9.37917 12.4583 9.5 12.1625 9.5 11.8125C9.5 11.4625 9.37917 11.1667 9.1375 10.925C8.89583 10.6833 8.6 10.5625 8.25 10.5625C7.9 10.5625 7.60417 10.6833 7.3625 10.925C7.12083 11.1667 7 11.4625 7 11.8125C7 12.1625 7.12083 12.4583 7.3625 12.7ZM9.6125 10.7C9.85417 10.9417 10.15 11.0625 10.5 11.0625C10.85 11.0625 11.1458 10.9417 11.3875 10.7C11.6292 10.4583 11.75 10.1625 11.75 9.8125C11.75 9.4625 11.6292 9.16667 11.3875 8.925C11.1458 8.68333 10.85 8.5625 10.5 8.5625C10.15 8.5625 9.85417 8.68333 9.6125 8.925C9.37083 9.16667 9.25 9.4625 9.25 9.8125C9.25 10.1625 9.37083 10.4583 9.6125 10.7ZM12.6125 10.7C12.8542 10.9417 13.15 11.0625 13.5 11.0625C13.85 11.0625 14.1458 10.9417 14.3875 10.7C14.6292 10.4583 14.75 10.1625 14.75 9.8125C14.75 9.4625 14.6292 9.16667 14.3875 8.925C14.1458 8.68333 13.85 8.5625 13.5 8.5625C13.15 8.5625 12.8542 8.68333 12.6125 8.925C12.3708 9.16667 12.25 9.4625 12.25 9.8125C12.25 10.1625 12.3708 10.4583 12.6125 10.7ZM14.8625 12.7C15.1042 12.9417 15.4 13.0625 15.75 13.0625C16.1 13.0625 16.3958 12.9417 16.6375 12.7C16.8792 12.4583 17 12.1625 17 11.8125C17 11.4625 16.8792 11.1667 16.6375 10.925C16.3958 10.6833 16.1 10.5625 15.75 10.5625C15.4 10.5625 15.1042 10.6833 14.8625 10.925C14.6208 11.1667 14.5 11.4625 14.5 11.8125C14.5 12.1625 14.6208 12.4583 14.8625 12.7ZM8.381 17.6315C8.63533 17.9188 8.95 18.0625 9.325 18.0625C9.775 18.0625 10.2208 18.025 10.6625 17.95C11.1042 17.875 11.55 17.8375 12 17.8375C12.45 17.8375 12.8958 17.875 13.3375 17.95C13.7792 18.025 14.225 18.0625 14.675 18.0625C15.0497 18.0628 15.3642 17.9192 15.6185 17.6315C15.8728 17.3438 16 17.0042 16 16.6125C15.9997 16.1792 15.8517 15.8 15.556 15.475C15.2603 15.15 14.9667 14.8292 14.675 14.5125C14.4337 14.2458 14.2233 13.9583 14.044 13.65C13.8647 13.3417 13.6583 13.0542 13.425 12.7875C13.2417 12.5708 13.0292 12.3958 12.7875 12.2625C12.5458 12.1292 12.2833 12.0625 12 12.0625C11.7167 12.0625 11.4542 12.1333 11.2125 12.275C10.9708 12.4167 10.7583 12.5958 10.575 12.8125C10.3333 13.0795 10.125 13.365 9.95 13.669C9.775 13.973 9.56667 14.2542 9.325 14.5125C9.03367 14.8292 8.74 15.15 8.444 15.475C8.148 15.8 8 16.1792 8 16.6125C7.99967 17.0045 8.12667 17.3442 8.381 17.6315Z"
          fill="black"/>
</svg>
