<svg width="24" height="24" viewBox="0 0 24 24" fill="none" xmlns="http://www.w3.org/2000/svg">
    <path d="M4.66659 21.1666C4.16242 21.1666 3.73097 20.9873 3.37225 20.6285C3.01353 20.2698 2.83386 19.8381 2.83325 19.3333V7.76877C2.83325 7.3619 3.07977 6.99559 3.4567 6.84238L14.8139 2.22595C15.2329 2.05566 15.7102 2.26015 15.876 2.68091C16.0393 3.0954 15.8384 3.56407 15.4257 3.73168L8.60825 6.49996H19.3333C19.8374 6.49996 20.2692 6.67963 20.6285 7.03896C20.9878 7.39829 21.1672 7.82974 21.1666 8.33329V19.3333C21.1666 19.8375 20.9872 20.2692 20.6285 20.6285C20.2698 20.9879 19.838 21.1672 19.3333 21.1666H4.66659ZM8.33325 18.4166C8.97492 18.4166 9.51728 18.1951 9.96034 17.752C10.4034 17.309 10.6249 16.7666 10.6249 16.125C10.6249 15.4833 10.4034 14.9409 9.96034 14.4979C9.51728 14.0548 8.97492 13.8333 8.33325 13.8333C7.69159 13.8333 7.14922 14.0548 6.70617 14.4979C6.26311 14.9409 6.04159 15.4833 6.04159 16.125C6.04159 16.7666 6.26311 17.309 6.70617 17.752C7.14922 18.1951 7.69159 18.4166 8.33325 18.4166ZM4.66659 11.0833H15.6666V10.1666C15.6666 9.66037 16.077 9.24996 16.5833 9.24996C17.0895 9.24996 17.4999 9.66036 17.4999 10.1666V11.0833H19.3333V8.33329H4.66659V11.0833Z"
          fill="black"/>
</svg>
