<svg width="24" height="24" viewBox="0 0 24 24" fill="none" xmlns="http://www.w3.org/2000/svg">
    <path d="M19.83 7.50003L17.56 5.23003C17.63 4.81003 17.74 4.42003 17.88 4.08003C17.99 3.82003 18.03 3.52003 17.97 3.21003C17.84 2.49003 17.14 1.99003 16.4 2.00003C14.81 2.03003 13.4 2.81003 12.5 4.00003H7.5C4.46 4.00003 2 6.46003 2 9.50003C2 11.75 3.37 16.98 4.08 19.54C4.32 20.4 5.11 21 6.01 21H8C9.1 21 10 20.1 10 19H12C12 20.1 12.9 21 14 21H16.01C16.89 21 17.67 20.42 17.93 19.57L19.18 15.41L21.32 14.69C21.73 14.55 22 14.17 22 13.74V8.50003C22 7.95003 21.55 7.50003 21 7.50003H19.83ZM12 9.00003H9C8.45 9.00003 8 8.55003 8 8.00003C8 7.45003 8.45 7.00003 9 7.00003H12C12.55 7.00003 13 7.45003 13 8.00003C13 8.55003 12.55 9.00003 12 9.00003ZM16 11C15.45 11 15 10.55 15 10C15 9.45002 15.45 9.00003 16 9.00003C16.55 9.00003 17 9.45002 17 10C17 10.55 16.55 11 16 11Z"
          fill="black"/>
</svg>
