<svg width="24" height="24" viewBox="0 0 24 24" fill="none" xmlns="http://www.w3.org/2000/svg">
    <path d="M5 11.6667C5 11.2985 5.29848 11 5.66667 11H18.3333C18.7015 11 19 11.2985 19 11.6667C19 12.403 18.403 13 17.6667 13H14C14 13.5523 13.5523 14 13 14H11C10.4477 14 10 13.5523 10 13H6.33333C5.59695 13 5 12.403 5 11.6667Z"
          fill="black"/>
    <path fill-rule="evenodd" clip-rule="evenodd"
          d="M3.79285 15.7253C3.91551 15.296 4.30789 15 4.75438 15H19.2458C19.6923 15 20.0846 15.296 20.2073 15.7253L21.6359 20.7253C21.8184 21.3641 21.3387 22 20.6743 22H3.3258C2.66142 22 2.18176 21.3641 2.36428 20.7253L3.79285 15.7253ZM6.00007 17.5C6.00007 17.2239 6.22393 17 6.50007 17H11.5001C11.7762 17 12.0001 17.2239 12.0001 17.5V18.5C12.0001 18.7761 11.7762 19 11.5001 19H6.50007C6.22393 19 6.00007 18.7761 6.00007 18.5V17.5Z"
          fill="black"/>
    <path fill-rule="evenodd" clip-rule="evenodd"
          d="M12.5 3.5C12.5 3.22386 12.2761 3 12 3H9C8.72386 3 8.5 3.22386 8.5 3.5C8.5 3.77614 8.72386 4 9 4C9.27614 4 9.5 4.22386 9.5 4.5C9.5 4.77614 9.27614 5 9 5H8.5C8.22386 5 8 5.22386 8 5.5V9.5C8 9.77614 8.22386 10 8.5 10H12.5C12.7761 10 13 9.77614 13 9.5V5.5C13 5.22386 12.7761 5 12.5 5H12C11.7239 5 11.5 4.77614 11.5 4.5C11.5 4.22386 11.7239 4 12 4C12.2761 4 12.5 3.77614 12.5 3.5Z"
          fill="black"/>
    <path fill-rule="evenodd" clip-rule="evenodd"
          d="M14 10H15.5C15.7761 10 16 9.77614 16 9.5V7.57143C16 7.33474 15.8081 7.14286 15.5714 7.14286H15.4285C15.2707 7.14286 15.1428 7.01494 15.1428 6.85714C15.1428 6.69935 15.2707 6.57143 15.4285 6.57143C15.5863 6.57143 15.7143 6.44351 15.7143 6.28571C15.7143 6.12792 15.5863 6 15.4285 6H14V10Z"
          fill="black"/>
</svg>
