<svg width="24" height="24" viewBox="0 0 24 24" fill="none" xmlns="http://www.w3.org/2000/svg">
    <path fill-rule="evenodd" clip-rule="evenodd"
          d="M16.1375 10.7774C15.4399 10.4406 15.34 10.3924 13.6697 10.3924C12.2725 10.3924 10.8224 11.5 10.9625 12.5941C11.1135 13.7735 11.5713 14.8312 12.7277 14.8312C13.9536 14.8312 14.3995 14.4668 15.1589 13.8462C15.3532 13.6874 15.568 13.5118 15.8217 13.3213C17.0668 12.3861 17.9263 11.7219 17.9263 11.7219C18.2596 11.4662 18.7818 11.4872 19.0923 11.7699L19.9397 12.5413C20.001 12.5971 20.004 12.6927 19.9453 12.7538L13.9244 19.0186C13.6609 19.2864 13.2743 19.689 13.0071 20.0114C12.9452 20.0859 10.7371 19.7664 8.94321 19.1753C7.14935 18.5841 5.16808 17.5865 5.19118 17.439C5.54616 15.1723 6.77116 10.0371 6.77116 10.0371C6.77116 10.0371 7.85075 2.90467 8.06945 2.691C8.28338 2.482 10.2072 2.88018 9.9347 4.36065L10.6276 1.12387C10.647 1.04276 10.7304 0.988356 10.8138 1.00213C10.8138 1.00213 12.8344 1.24105 12.472 2.74101C12.0801 4.36296 11.5051 7.21975 11.2289 8.61508C11.9252 8.14629 12.749 7.80389 13.6697 7.80389C16.5887 7.80389 17.9999 10.5 17.9999 10.5C17.9999 10.5 17.1942 11.2815 16.32 10.8651C16.2545 10.8339 16.194 10.8047 16.1375 10.7774ZM4.65134 19.037C5.16456 19.2831 6.27 19.813 8.14963 20.4303C10.8781 21.3265 12.4172 21.5137 12.4172 21.5137L12.2026 22.2154C12.024 22.7996 11.4041 23.1303 10.8189 22.9514L4.78441 21.1065C4.19834 20.9273 3.86981 20.3079 4.04879 19.7225L4.30162 18.8955C4.30858 18.8727 4.41957 18.9259 4.65134 19.037Z"
          fill="black"/>
</svg>
