<svg width="24" height="24" viewBox="0 0 24 24" fill="none" xmlns="http://www.w3.org/2000/svg">
    <path fill-rule="evenodd" clip-rule="evenodd"
          d="M5.45931 2.13311C5.26992 1.94379 4.97639 1.90653 4.74575 2.04274C2.17143 3.56267 1.25008 6.82241 2.64817 9.46385C2.71122 9.58297 2.7902 9.64376 2.97956 9.78953C3.19243 9.9534 3.54481 10.2247 4.17089 10.8069C8.33632 14.6807 11.4284 21.5818 11.4591 21.651C11.5533 21.8632 11.7636 22 11.9957 22H21.4129C21.7362 22 21.9986 21.7387 22 21.4154C22.0049 20.2668 21.6462 19.1717 20.9627 18.2484C19.8682 16.7699 18.4694 16.386 17.8225 16.2085C17.6908 16.1723 17.5903 16.1447 17.5299 16.1182C17.3759 16.0719 17.2095 16.0907 17.0699 16.1704C15.3096 17.1743 12.9719 16.5101 12.0894 14.5566C11.7083 13.7129 11.3399 12.7815 10.953 11.8034C9.68541 8.59867 8.21976 4.89322 5.45931 2.13311ZM6.84607 21.4129V15.8546C5.74683 14.235 4.4777 12.6318 3.0083 11.3386C3.31104 13.2518 3.30216 14.5665 3.28545 17.041C3.2777 18.1898 3.26825 19.5884 3.28751 21.4129C3.28751 21.7371 3.55036 21.9999 3.87458 21.9999H6.259C6.58322 21.9999 6.84607 21.7371 6.84607 21.4129Z"
          fill="black"/>
</svg>
