<svg width="24" height="24" viewBox="0 0 24 24" fill="none" xmlns="http://www.w3.org/2000/svg">
    <path d="M5.25 7.5C5.05109 7.5 4.86032 7.42098 4.71967 7.28033C4.57902 7.13968 4.5 6.94891 4.5 6.75C4.50149 5.35807 5.05509 4.02358 6.03933 3.03933C7.02358 2.05509 8.35807 1.50149 9.75 1.5H16.5C16.8978 1.5 17.2794 1.65804 17.5607 1.93934C17.842 2.22064 18 2.60218 18 3V7.5C18 8.09674 18.2371 8.66903 18.659 9.09099C19.081 9.51295 19.6533 9.75 20.25 9.75C20.4489 9.75 20.6397 9.82902 20.7803 9.96967C20.921 10.1103 21 10.3011 21 10.5C21 10.6989 20.921 10.8897 20.7803 11.0303C20.6397 11.171 20.4489 11.25 20.25 11.25C19.2554 11.25 18.3016 10.8549 17.5983 10.1517C16.8951 9.44839 16.5 8.49456 16.5 7.5H13.5V9.80813C13.499 10.1456 13.5744 10.479 13.7206 10.7832C13.8667 11.0875 14.0797 11.3547 14.3438 11.565L15.8438 12.7641C16.2837 13.1145 16.6387 13.5599 16.8823 14.0669C17.1258 14.5739 17.2515 15.1294 17.25 15.6919V21C17.25 21.3978 17.092 21.7794 16.8107 22.0607C16.5294 22.342 16.1478 22.5 15.75 22.5H6C5.60218 22.5 5.22064 22.342 4.93934 22.0607C4.65804 21.7794 4.5 21.3978 4.5 21V19.8253C4.49884 15.5129 5.5958 11.2712 7.6875 7.5H5.25ZM16.5 3H9.75C8.88588 3.00123 8.0486 3.30026 7.3792 3.84671C6.7098 4.39315 6.2492 5.15362 6.075 6H16.5V3Z"
          fill="black"/>
</svg>
