<svg width="24" height="24" viewBox="0 0 24 24" fill="none" xmlns="http://www.w3.org/2000/svg">
    <path fill-rule="evenodd" clip-rule="evenodd"
          d="M5 8H19C19.55 8 20 7.55 20 7C20 6.45 19.55 6 19 6H5C4.45 6 4 6.45 4 7C4 7.55 4.45 8 5 8ZM7 2H17C17.55 2 18 2.45 18 3C18 3.55 17.55 4 17 4H7C6.45 4 6 3.55 6 3C6 2.45 6.45 2 7 2ZM22 19V12C22 10.9 21.1 10 20 10H4C2.9 10 2 10.9 2 12V19C2 20.1 2.9 21 4 21H20C21.1 21 22 20.1 22 19ZM5 12C4.44772 12 4 12.4477 4 13V16C4 16.5523 4.44772 17 5 17H8C8.55228 17 9 16.5523 9 16V13C9 12.4477 8.55228 12 8 12H5ZM12 12C11.4477 12 11 12.4477 11 13C11 13.5523 11.4477 14 12 14H19C19.5523 14 20 13.5523 20 13C20 12.4477 19.5523 12 19 12H12ZM11 17C11 16.4477 11.4477 16 12 16H16C16.5523 16 17 16.4477 17 17C17 17.5523 16.5523 18 16 18H12C11.4477 18 11 17.5523 11 17Z"
          fill="black"/>
</svg>
