<svg width="24" height="24" viewBox="0 0 24 24" fill="none" xmlns="http://www.w3.org/2000/svg">
    <path fill-rule="evenodd" clip-rule="evenodd"
          d="M4 6C4 3.79086 5.79086 2 8 2H16C18.2091 2 20 3.79086 20 6C20 8.20914 18.2091 10 16 10H8C5.79086 10 4 8.20914 4 6ZM19 6C19 7.65685 17.6569 9 16 9C14.3431 9 13 7.65685 13 6C13 4.34315 14.3431 3 16 3C17.6569 3 19 4.34315 19 6ZM16 15H8C9.65685 15 11 16.3431 11 18C11 19.6569 9.65685 21 8 21H16C17.6569 21 19 19.6569 19 18C19 16.3431 17.6569 15 16 15ZM8 14C5.79086 14 4 15.7909 4 18C4 20.2091 5.79086 22 8 22H16C18.2091 22 20 20.2091 20 18C20 15.7909 18.2091 14 16 14H8Z"
          fill="black"/>
</svg>
