<svg width="24" height="24" viewBox="0 0 24 24" fill="none" xmlns="http://www.w3.org/2000/svg">
    <path fill-rule="evenodd" clip-rule="evenodd"
          d="M19.9468 4.46382L19.7225 4.91425L21.8187 7.84886C21.9527 8.03667 22.0158 8.26592 21.9967 8.49584C21.9776 8.72577 21.8775 8.94147 21.7144 9.1046L20.2519 10.567C20.1072 10.7116 19.9207 10.807 19.7188 10.8397C19.5169 10.8724 19.3098 10.8408 19.1268 10.7493L17.9042 10.139L17.2296 11.0379L19.2477 17.498L19.4135 17.3712C19.5601 17.2571 19.7001 17.1347 19.8327 17.0046C20.012 16.8227 20.2556 16.7184 20.511 16.7142C20.7664 16.7099 21.0133 16.8061 21.1985 16.982C21.3837 17.1579 21.4925 17.3995 21.5015 17.6548C21.5104 17.9101 21.4188 18.1587 21.2464 18.3472L20.6263 18.898C20.2393 19.2051 19.6709 19.6049 18.9221 20.0017C17.4177 20.7972 15.1919 21.5772 12.2505 21.5772C9.30906 21.5772 7.08226 20.7972 5.57888 20.0017C4.97832 19.6865 4.40787 19.3171 3.87466 18.898C3.72452 18.7781 3.23607 18.3306 3.25459 18.3472C3.08968 18.1737 2.99434 17.9456 2.98676 17.7063C2.97917 17.4671 3.05986 17.2334 3.21345 17.0498C3.36704 16.8663 3.5828 16.7456 3.81962 16.7108C4.05645 16.6761 4.29778 16.7296 4.49766 16.8613L5.50186 11.8393C4.99196 12.3161 4.44111 13.0532 3.86004 14.2134C3.80528 14.3319 3.72728 14.4382 3.63065 14.526C3.53402 14.6138 3.42073 14.6813 3.29752 14.7245C3.1743 14.7677 3.04366 14.7858 2.91336 14.7775C2.78305 14.7693 2.65573 14.7349 2.53894 14.6765C2.42216 14.6181 2.31829 14.5369 2.23351 14.4376C2.14872 14.3383 2.08475 14.223 2.04538 14.0985C2.00601 13.974 1.99204 13.8429 2.00432 13.7129C2.01659 13.5829 2.05485 13.4567 2.11682 13.3417C3.14637 11.2817 4.24807 10.1078 5.47749 9.4936C6.50801 8.97785 7.53172 8.91253 8.39942 8.90278H11.999C12.0964 8.60759 12.2067 8.31678 12.3295 8.03117C12.7282 7.10107 13.399 5.88822 14.4861 4.80115C15.616 3.67118 16.7801 3.2188 17.6966 3.06573C18.0641 3.00477 18.4373 2.98612 18.809 3.01016C18.9192 3.01796 19.2477 3.06573 19.3121 3.08231C19.4536 3.11783 19.5853 3.18467 19.6976 3.27788C19.8098 3.3711 19.8997 3.48832 19.9606 3.6209C20.0215 3.75349 20.0519 3.89805 20.0495 4.04393C20.0471 4.18982 20.012 4.33331 19.9468 4.46382ZM9.49527 19.3494L10.4897 16.7024H13.0383L14.0902 19.5064C13.5199 19.5834 12.9076 19.6273 12.2515 19.6273C11.2287 19.6273 10.3113 19.52 9.49722 19.3494H9.49527Z"
          fill="black"/>
</svg>
