<svg width="24" height="24" viewBox="0 0 24 24" fill="none" xmlns="http://www.w3.org/2000/svg">
    <path fill-rule="evenodd" clip-rule="evenodd"
          d="M11.0013 2.04932C9.90166 2.15836 8.85445 2.44551 7.88889 2.88153C8.13251 3.35311 7.96455 3.93766 7.50006 4.20583C7.03607 4.47372 6.44663 4.32751 6.15969 3.88187C5.28336 4.51343 4.51341 5.28338 3.88186 6.15971C4.32748 6.44665 4.47369 7.03608 4.2058 7.50006C3.93763 7.96455 3.3531 8.13251 2.88152 7.88891C2.44551 8.85447 2.15836 9.90167 2.04932 11.0013C2.57872 11.0269 3.00006 11.4643 3.00006 12.0001C3.00006 12.5358 2.57872 12.9732 2.04932 12.9989C2.15836 14.0985 2.44552 15.1457 2.88153 16.1112C3.35311 15.8676 3.93763 16.0356 4.2058 16.5001C4.47367 16.9641 4.32748 17.5535 3.88187 17.8404C4.51342 18.7168 5.28337 19.4867 6.15969 20.1182C6.44664 19.6726 7.03607 19.5264 7.50006 19.7943C7.96455 20.0625 8.1325 20.647 7.88889 21.1186C8.85446 21.5546 9.90166 21.8418 11.0013 21.9508C11.0269 21.4214 11.4643 21.0001 12.0001 21.0001C12.5358 21.0001 12.9732 21.4214 12.9989 21.9508C14.0985 21.8418 15.1457 21.5546 16.1112 21.1186C15.8676 20.647 16.0356 20.0625 16.5001 19.7943C16.964 19.5264 17.5535 19.6726 17.8404 20.1183C18.7167 19.4867 19.4867 18.7168 20.1182 17.8404C19.6726 17.5535 19.5264 16.9641 19.7943 16.5001C20.0624 16.0356 20.647 15.8676 21.1186 16.1112C21.5546 15.1457 21.8418 14.0985 21.9508 12.9989C21.4214 12.9732 21.0001 12.5358 21.0001 12.0001C21.0001 11.4643 21.4214 11.0269 21.9508 11.0013C21.8418 9.90166 21.5546 8.85446 21.1186 7.8889C20.647 8.13254 20.0624 7.96459 19.7943 7.50009C19.5264 7.03608 19.6726 6.44663 20.1183 6.1597C19.4867 5.28337 18.7168 4.51342 17.8404 3.88187C17.5535 4.32751 16.964 4.47372 16.5001 4.20583C16.0356 3.93766 15.8676 3.35311 16.1112 2.88153C15.1457 2.44551 14.0985 2.15836 12.9989 2.04932C12.9732 2.57872 12.5358 3.00006 12.0001 3.00006C11.4643 3.00006 11.0269 2.57872 11.0013 2.04932ZM18.0001 12.0001C18.0001 15.3138 15.3138 18.0001 12.0001 18.0001C8.68635 18.0001 6.00006 15.3138 6.00006 12.0001C6.00006 8.68635 8.68635 6.00006 12.0001 6.00006C15.3138 6.00006 18.0001 8.68635 18.0001 12.0001ZM17.0001 12.0001C17.0001 14.7615 14.7615 17.0001 12.0001 17.0001C9.23864 17.0001 7.00006 14.7615 7.00006 12.0001C7.00006 9.23864 9.23864 7.00006 12.0001 7.00006C14.7615 7.00006 17.0001 9.23864 17.0001 12.0001ZM16.0001 12.0001C16.0001 14.2092 14.2092 16.0001 12.0001 16.0001C9.79092 16.0001 8.00006 14.2092 8.00006 12.0001C8.00006 9.79092 9.79092 8.00006 12.0001 8.00006C14.2092 8.00006 16.0001 9.79092 16.0001 12.0001Z"
          fill="black"/>
</svg>
