<svg width="24" height="24" viewBox="0 0 24 24" fill="none" xmlns="http://www.w3.org/2000/svg">
    <path fill-rule="evenodd" clip-rule="evenodd"
          d="M16 3H8L8 8H16V3ZM6 3V8H5.38462C5.1722 8 5 8.1722 5 8.38461V11C5 14.171 7.10851 16.8496 10 17.7101V21C10 22.1046 10.8954 23 12 23C13.1046 23 14 22.1046 14 21V17.7101C16.8915 16.8496 19 14.171 19 11V8.38462C19 8.1722 18.8278 8 18.6154 8H18V3C18 1.89543 17.1046 1 16 1H8C6.89543 1 6 1.89543 6 3ZM9 5C9 4.44772 9.44772 4 10 4C10.5523 4 11 4.44772 11 5V6C11 6.55228 10.5523 7 10 7C9.44772 7 9 6.55228 9 6V5ZM14 4C13.4477 4 13 4.44772 13 5V6C13 6.55228 13.4477 7 14 7C14.5523 7 15 6.55228 15 6V5C15 4.44772 14.5523 4 14 4Z"
          fill="black"/>
</svg>
