<svg width="24" height="24" viewBox="0 0 24 24" fill="none" xmlns="http://www.w3.org/2000/svg">
    <path d="M6.0699 9.80005C5.8699 10 5.8699 10.31 6.0699 10.51C7.1399 11.58 7.2299 13.26 6.3499 14.43C6.1999 14.63 6.2299 14.9 6.3999 15.08C6.6199 15.3 6.9699 15.27 7.1599 15.03C8.2299 13.6 8.2199 11.6 7.1199 10.18L14.7399 2.56005C15.2299 2.07005 16.0199 2.07005 16.5099 2.56005C16.9999 3.05005 16.9999 3.84005 16.5099 4.33005L11.3799 9.46005C11.1799 9.66005 11.1799 9.97005 11.3799 10.17C11.5799 10.37 11.8899 10.37 12.0899 10.17L18.6299 3.63005C19.1199 3.14005 19.9099 3.14005 20.3999 3.63005C20.8899 4.12005 20.8899 4.91005 20.3999 5.40005L13.8599 11.94C13.6599 12.14 13.6599 12.45 13.8599 12.65C14.0599 12.85 14.3699 12.85 14.5699 12.65L20.0499 7.17005C20.5399 6.68005 21.3299 6.68005 21.8199 7.17005C22.3099 7.66005 22.3099 8.45005 21.8199 8.94005L15.6299 15.13C15.4299 15.33 15.4299 15.64 15.6299 15.84C15.8299 16.04 16.1399 16.04 16.3399 15.84L20.4099 11.77C20.8999 11.28 21.6899 11.28 22.1799 11.77C22.6699 12.26 22.6699 13.05 22.1799 13.54L15.1099 20.6101C11.8899 23.83 6.6599 23.83 3.4399 20.6101C0.219902 17.3901 0.219902 12.16 3.4399 8.94005L8.0399 4.34005C8.5299 3.85005 9.3199 3.85005 9.8099 4.34005C10.2999 4.83005 10.2999 5.62005 9.8099 6.11005L6.0699 9.80005ZM6.9999 1.80005C6.9999 1.39005 6.6599 1.05005 6.2499 1.05005C6.2099 1.05005 6.1799 1.05005 6.1399 1.06005C3.5099 1.44005 1.4399 3.52005 1.0599 6.14005C1.0599 6.17005 1.0499 6.21005 1.0499 6.25005C1.0499 6.66005 1.3899 7.00005 1.7999 7.00005C2.1799 7.00005 2.4899 6.72005 2.5399 6.36005C2.8199 4.39005 4.3799 2.83005 6.3499 2.55005C6.7199 2.49005 6.9999 2.18005 6.9999 1.80005ZM16.9999 22.2001C16.9999 22.6101 17.3399 22.9501 17.7499 22.9501C17.7899 22.9501 17.8199 22.9501 17.8599 22.9401C20.4899 22.5601 22.5599 20.48 22.9399 17.8601C22.9399 17.83 22.9499 17.7901 22.9499 17.75C22.9499 17.34 22.6099 17 22.1999 17C21.8199 17 21.5099 17.28 21.4599 17.64C21.1799 19.61 19.6199 21.17 17.6499 21.4501C17.2799 21.51 16.9999 21.8201 16.9999 22.2001Z"
          fill="black"/>
</svg>
