<svg width="24" height="24" viewBox="0 0 24 24" fill="none" xmlns="http://www.w3.org/2000/svg">
    <path fill-rule="evenodd" clip-rule="evenodd"
          d="M4 3C4 2.44772 4.44772 2 5 2H8C8.55228 2 9 2.44772 9 3V9.5H19C19.5523 9.5 20 9.94772 20 10.5V17C20 17.5523 19.5523 18 19 18C18.4477 18 18 17.5523 18 17V11.5H8C7.44772 11.5 7 11.0523 7 10.5V4H5C4.44772 4 4 3.55228 4 3Z"
          fill="black"/>
    <path fill-rule="evenodd" clip-rule="evenodd"
          d="M7 6C7 5.44772 7.44772 5 8 5H13.5C14.0523 5 14.5 5.44772 14.5 6C14.5 6.55228 14.0523 7 13.5 7H8C7.44772 7 7 6.55228 7 6Z"
          fill="black"/>
    <path fill-rule="evenodd" clip-rule="evenodd"
          d="M12 14C12 13.4477 12.4477 13 13 13H18.5C19.0523 13 19.5 13.4477 19.5 14C19.5 14.5523 19.0523 15 18.5 15H13C12.4477 15 12 14.5523 12 14Z"
          fill="black"/>
    <path fill-rule="evenodd" clip-rule="evenodd"
          d="M8 20C10.2091 20 12 18.2091 12 16C12 13.7909 10.2091 12 8 12C5.79086 12 4 13.7909 4 16C4 18.2091 5.79086 20 8 20ZM8 22C11.3137 22 14 19.3137 14 16C14 12.6863 11.3137 10 8 10C4.68629 10 2 12.6863 2 16C2 19.3137 4.68629 22 8 22Z"
          fill="black"/>
    <path fill-rule="evenodd" clip-rule="evenodd"
          d="M19 20C19.5523 20 20 19.5523 20 19C20 18.4477 19.5523 18 19 18C18.4477 18 18 18.4477 18 19C18 19.5523 18.4477 20 19 20ZM19 22C20.6569 22 22 20.6569 22 19C22 17.3431 20.6569 16 19 16C17.3431 16 16 17.3431 16 19C16 20.6569 17.3431 22 19 22Z"
          fill="black"/>
</svg>
