<svg width="24" height="24" viewBox="0 0 24 24" fill="none" xmlns="http://www.w3.org/2000/svg">
    <path d="M9.65672 14.8584C7.69674 13.3729 6.00002 10.6559 6 8.03125C6 6.95139 6.22504 5.92838 6.62716 5.01412C4.03986 5.2108 2 7.43786 2 10.1562C2.00002 13.004 4.85714 16 7 16C7.8475 16 8.80671 15.5698 9.65672 14.8584Z"
          fill="black"/>
    <path d="M14.9003 15.2248C17.0404 13.9126 19 11.0956 19 8.03125C19 7.03315 18.8077 6.08363 18.4611 5.22364C20.5097 5.86818 22 7.83274 22 10.1563C22 13.25 19.1429 16 17 16C16.3334 16 15.5977 15.7101 14.9003 15.2248Z"
          fill="black"/>
    <path d="M6.71716 15.2828C6.87337 15.1266 7.12663 15.1266 7.28284 15.2828L8.31716 16.3172C8.56914 16.5691 8.39068 17 8.03431 17H5.96569C5.60932 17 5.43086 16.5691 5.68284 16.3172L6.71716 15.2828Z"
          fill="black"/>
    <path d="M16.7172 15.2828C16.8734 15.1266 17.1266 15.1266 17.2828 15.2828L18.3172 16.3172C18.5691 16.5691 18.3907 17 18.0343 17H15.9657C15.6093 17 15.4309 16.5691 15.6828 16.3172L16.7172 15.2828Z"
          fill="black"/>
    <path fill-rule="evenodd" clip-rule="evenodd"
          d="M17 14.5C16.7239 14.5 16.5 14.7239 16.5 15V16.5C16.5 17.054 16.6568 17.4591 16.788 17.776C16.7929 17.7878 16.7976 17.7993 16.8023 17.8106C16.9294 18.1174 17 18.2878 17 18.5C17 18.8695 16.9862 19.3067 16.6464 19.6464C16.4512 19.8417 16.4512 20.1583 16.6464 20.3536C16.8417 20.5488 17.1583 20.5488 17.3536 20.3536C18.0009 19.7062 18.0003 18.8871 18 18.5213C18 18.514 18 18.5069 18 18.5C18 18.08 17.8541 17.7324 17.742 17.4654C17.7317 17.4408 17.7216 17.4169 17.712 17.3936C17.5932 17.1066 17.5 16.8509 17.5 16.5V15C17.5 14.7239 17.2761 14.5 17 14.5Z"
          fill="black"/>
    <path fill-rule="evenodd" clip-rule="evenodd"
          d="M6.89072 15.5C7.16687 15.5 7.39072 15.7239 7.39072 16C7.39072 16.0644 7.40028 16.1458 7.41896 16.262C7.42322 16.2885 7.42814 16.3177 7.43338 16.349C7.44864 16.4399 7.46667 16.5472 7.47922 16.6498C7.51381 16.9324 7.52795 17.3133 7.33424 17.6854C7.24842 17.8503 7.13544 17.9979 7.03579 18.1205C6.98896 18.1781 6.94803 18.2268 6.90951 18.2727C6.85419 18.3387 6.80382 18.3987 6.74802 18.4705C6.57161 18.6976 6.5 18.8531 6.5 19C6.5 19.1158 6.55736 19.2718 6.65259 19.4322C6.6962 19.5057 6.7403 19.5676 6.77318 19.6107C6.78944 19.632 6.80248 19.648 6.8107 19.6579L6.81907 19.6678C7.00257 19.874 6.98405 20.1898 6.7779 20.3734C6.57169 20.557 6.25564 20.5388 6.07197 20.3326L6.44481 20.0005C6.07197 20.3326 6.07197 20.3326 6.07197 20.3326L6.07124 20.3317L6.07035 20.3307L6.06807 20.3281L6.06162 20.3207C6.05651 20.3148 6.0498 20.3069 6.04172 20.2972C6.02558 20.2778 6.00383 20.2509 5.97834 20.2175C5.92772 20.1512 5.86048 20.0568 5.79275 19.9428C5.66531 19.7282 5.5 19.3842 5.5 19C5.5 18.5052 5.75081 18.1241 5.95829 17.857C6.02152 17.7756 6.09784 17.6844 6.16438 17.6048C6.20024 17.5619 6.23325 17.5224 6.25985 17.4897C6.35026 17.3784 6.41008 17.295 6.44721 17.2237C6.49937 17.1235 6.51351 16.9909 6.48663 16.7713C6.47697 16.6924 6.46466 16.6191 6.4507 16.536C6.44463 16.4998 6.43824 16.4618 6.43163 16.4207C6.4119 16.2979 6.39072 16.1496 6.39072 16C6.39072 15.7239 6.61458 15.5 6.89072 15.5Z"
          fill="black"/>
    <path fill-rule="evenodd" clip-rule="evenodd"
          d="M12.5 15C14.8571 15 18 11.75 18 8.09375C18 4.72826 15.5376 2 12.5 2C9.46243 2 7 4.72826 7 8.09375C7.00002 11.4592 10.1429 15 12.5 15ZM13.7894 12.3253C13.5136 12.338 13.3003 12.5719 13.3129 12.8477C13.3256 13.1236 13.5595 13.3369 13.8354 13.3242C14.3425 13.3009 14.7963 12.9912 15.125 12.6625C15.4651 12.3224 15.7506 11.8843 15.9057 11.4579C16 11.1984 15.8662 10.9115 15.6067 10.8171C15.3471 10.7227 15.0603 10.8566 14.9659 11.1161C14.8646 11.3945 14.6631 11.7103 14.4179 11.9554C14.1613 12.212 13.9316 12.3187 13.7894 12.3253Z"
          fill="black"/>
    <path d="M12.1422 13.7155C12.2896 13.4207 12.7104 13.4207 12.8578 13.7155L14.2106 16.4211C14.3435 16.6871 14.1501 17 13.8528 17H11.1472C10.8499 17 10.6565 16.6871 10.7894 16.4211L12.1422 13.7155Z"
          fill="black"/>
    <path fill-rule="evenodd" clip-rule="evenodd"
          d="M12.5 15C12.7761 15 13 15.2239 13 15.5V17.5C13 17.9157 12.9256 18.2501 12.803 18.535C12.6824 18.8153 12.5235 19.0264 12.3922 19.1925C12.3783 19.2101 12.3647 19.2272 12.3516 19.2438C12.1131 19.5444 12 19.6871 12 20C12 20.4136 12.1028 20.7125 12.1972 20.9014C12.2448 20.9966 12.2909 21.065 12.3219 21.1063C12.3373 21.1269 12.3489 21.1405 12.3548 21.1473C12.3566 21.1493 12.3585 21.1515 12.3585 21.1515C12.5488 21.3471 12.5471 21.66 12.3536 21.8536C12.1583 22.0488 11.8417 22.0488 11.6464 21.8536C11.6394 21.8464 11.6394 21.8464 11.6464 21.8536L11.6457 21.8528L11.645 21.8521L11.6433 21.8504C11.6433 21.8504 11.6409 21.848 11.6394 21.8464C11.6296 21.8361 11.6296 21.8361 11.6296 21.8361C11.6222 21.8282 11.6129 21.8181 11.6022 21.8058C11.5808 21.7813 11.5533 21.7481 11.5219 21.7062C11.4591 21.6225 11.3802 21.5034 11.3028 21.3486C11.1472 21.0375 11 20.5864 11 20C11 19.3279 11.3183 18.9324 11.5511 18.6431C11.5707 18.6188 11.5897 18.5952 11.6078 18.5722C11.7265 18.4221 11.8176 18.2949 11.8845 18.1397C11.9494 17.9889 12 17.7902 12 17.5V15.5C12 15.2239 12.2239 15 12.5 15Z"
          fill="black"/>
</svg>
