<svg width="24" height="24" viewBox="0 0 24 24" fill="none" xmlns="http://www.w3.org/2000/svg">
    <path d="M19.3294 20C21.6241 20 22 18.6077 22 16.1989H21.1493C21.1493 18.0995 20.9318 18.5635 20.6548 18.5635C20.3185 18.5635 20.1998 17.989 19.9624 16.9503C19.1909 13.5248 18.9733 13.0608 15.5509 11.8232C17.5489 11.0718 16.7181 5.54696 18.4392 5.37016C17.8655 5.72376 17.7666 6.34254 17.7666 6.87293C17.7666 7.8674 18.4787 8.5304 19.4876 8.5304C20.4965 8.5304 21.2285 7.71271 21.2285 6.27625C21.2285 4.77348 20.2394 4 19.0722 4C15.0762 4 16.817 11.3591 14.5618 11.3591H13.8496V4.97238H14.9179V4H9.12166V4.97238H10.1899V11.3591H9.4184C7.1632 11.3591 8.92383 4 4.90801 4C3.76063 4 2.77151 4.77348 2.77151 6.27625C2.77151 7.71271 3.50346 8.5304 4.57171 8.5304C5.60039 8.5304 6.17408 7.8453 6.17408 6.85083C6.17408 6.16575 5.91691 5.56906 5.4817 5.25967C7.24233 5.85635 6.35213 11.2044 8.31056 11.8232C5.00692 13.1049 4.8091 13.5248 4.03759 16.9503C3.8002 17.989 3.6815 18.5635 3.36498 18.5635C3.06825 18.5635 2.85064 18.0995 2.85064 16.1989H2C2 18.6519 2.35608 20 4.67062 20C6.62906 20 7.36103 18.8067 7.81603 16.9724C8.29082 15.1823 8.35013 12.3315 9.71514 12.3315H10.1899V19.0276H9.12166V20H14.9179V19.0276H13.8496V12.3315H14.2849C15.6498 12.3315 15.6894 15.1823 16.1642 16.9724C16.6192 18.8067 17.3709 20 19.3294 20Z"
          fill="black"/>
</svg>
