<svg width="40" height="40" viewBox="0 0 40 40" fill="none" xmlns="http://www.w3.org/2000/svg">
<path d="M0 20C0 8.95431 8.95431 0 20 0C31.0457 0 40 8.95431 40 20C40 31.0457 31.0457 40 20 40C8.95431 40 0 31.0457 0 20Z" fill="#8BC34A"/>
<path d="M23.2864 0.721293C24.2379 1.68301 24.2379 3.24228 23.2864 4.20401L11.3397 16.2787C10.5788 17.0479 9.43946 17.2019 8.527 16.7406C8.1621 16.626 7.81842 16.4226 7.52929 16.1304L0.713575 9.2415C-0.237858 8.27982 -0.237858 6.72053 0.713575 5.75881C1.66533 4.79708 3.20804 4.79708 4.15947 5.75881L9.50789 11.1648L19.8405 0.721293C20.7919 -0.240431 22.3347 -0.240431 23.2864 0.721293Z" transform="translate(8 12)" fill="white"/>
</svg>
