<svg width="24" height="24" viewBox="0 0 24 24" fill="none" xmlns="http://www.w3.org/2000/svg">
<path fill-rule="evenodd" clip-rule="evenodd" d="M19 21H5C3.9 21 3 20.1 3 19V5C3 3.9 3.9 3 5 3H19C20.1 3 21 3.9 21 5V6C21 6.55 20.55 7 20 7C19.45 7 19 6.55 19 6C19 5.45 18.55 5 18 5H6C5.45 5 5 5.45 5 6V18C5 18.55 5.45 19 6 19H18C18.55 19 19 18.55 19 18C19 17.45 19.45 17 20 17C20.55 17 21 17.45 21 18V19C21 20.1 20.11 21 19 21ZM16.79 16.29C17.18 16.68 17.81 16.68 18.2 16.29L21.79 12.7C22.18 12.31 22.18 11.68 21.79 11.29L18.2 7.69997C17.81 7.30997 17.18 7.30997 16.79 7.69997C16.4 8.08997 16.4 8.71997 16.79 9.10997L18.67 11H10C9.45 11 9 11.45 9 12C9 12.55 9.45 13 10 13H18.67L16.79 14.88C16.4 15.27 16.41 15.91 16.79 16.29Z" fill="black"/>
</svg>
