<svg width="24" height="24" viewBox="0 0 24 24" fill="none" xmlns="http://www.w3.org/2000/svg">
<path fill-rule="evenodd" clip-rule="evenodd" d="M14.4577 16.8719C13.309 17.587 11.9527 18 10.5 18C6.35786 18 3 14.6421 3 10.5C3 6.35786 6.35786 3 10.5 3C14.6421 3 18 6.35786 18 10.5C18 12.4657 17.2438 14.2548 16.0064 15.5922L19.793 19.3788C20.1835 19.7693 20.1835 20.4025 19.793 20.793C19.4025 21.1835 18.7693 21.1835 18.3788 20.793L14.4577 16.8719ZM16 10.5C16 13.5376 13.5376 16 10.5 16C7.46243 16 5 13.5376 5 10.5C5 7.46243 7.46243 5 10.5 5C13.5376 5 16 7.46243 16 10.5Z" fill="black"/>
</svg>
