<svg width="24" height="24" viewBox="0 0 24 24" fill="none" xmlns="http://www.w3.org/2000/svg">
<path fill-rule="evenodd" clip-rule="evenodd" d="M4.5 3.25109C4.5 2.56013 5.06064 2 5.74988 2H18.2501C18.9404 2 19.5 2.56106 19.5 3.25109V20.7489C19.5 21.4399 18.9394 22 18.2501 22H5.74988C5.05959 22 4.5 21.4389 4.5 20.7489V3.25109ZM7.62554 4.5C7.28053 4.5 7 4.78012 7 5.12567V8.87433C7 9.22046 7.28007 9.5 7.62554 9.5H16.3745C16.7195 9.5 17 9.21988 17 8.87433V5.12567C17 4.77954 16.7199 4.5 16.3745 4.5M8.25 19.5C8.94036 19.5 9.5 18.9404 9.5 18.25C9.5 17.5596 8.94036 17 8.25 17C7.55964 17 7 17.5596 7 18.25C7 18.9404 7.55964 19.5 8.25 19.5ZM12 19.5C12.6904 19.5 13.25 18.9404 13.25 18.25C13.25 17.5596 12.6904 17 12 17C11.3096 17 10.75 17.5596 10.75 18.25C10.75 18.9404 11.3096 19.5 12 19.5ZM15.75 19.5C16.4404 19.5 17 18.9404 17 18.25C17 17.5596 16.4404 17 15.75 17C15.0596 17 14.5 17.5596 14.5 18.25C14.5 18.9404 15.0596 19.5 15.75 19.5ZM8.25 14.5C8.94036 14.5 9.5 13.9404 9.5 13.25C9.5 12.5596 8.94036 12 8.25 12C7.55964 12 7 12.5596 7 13.25C7 13.9404 7.55964 14.5 8.25 14.5ZM12 14.5C12.6904 14.5 13.25 13.9404 13.25 13.25C13.25 12.5596 12.6904 12 12 12C11.3096 12 10.75 12.5596 10.75 13.25C10.75 13.9404 11.3096 14.5 12 14.5ZM15.75 14.5C16.4404 14.5 17 13.9404 17 13.25C17 12.5596 16.4404 12 15.75 12C15.0596 12 14.5 12.5596 14.5 13.25C14.5 13.9404 15.0596 14.5 15.75 14.5Z" fill="black"/>
</svg>
