<svg width="24" height="24" viewBox="0 0 24 24" fill="none" xmlns="http://www.w3.org/2000/svg">
<path d="M3 21H13C13.55 21 14 21.45 14 22C14 22.55 13.55 23 13 23H3C2.45 23 2 22.55 2 22C2 21.45 2.45 21 3 21ZM6.24 8.07005L9.07 5.24005L21.8 17.97C22.58 18.75 22.58 20.02 21.8 20.8C21.02 21.58 19.75 21.58 18.97 20.8L6.24 8.07005ZM14.73 2.41005L17.56 5.24005C18.34 6.02005 18.34 7.29005 17.56 8.07005L16.14 9.49005L10.49 3.83005L11.9 2.42005C12.68 1.63005 13.95 1.63005 14.73 2.41005V2.41005ZM4.83 9.48005L10.49 15.14L9.08 16.55C8.3 17.33 7.03 17.33 6.25 16.55L3.42 13.72C2.64 12.94 2.64 11.67 3.42 10.89L4.83 9.48005Z" fill="black"/>
</svg>
