<svg width="24" height="24" viewBox="0 0 24 24" fill="none" xmlns="http://www.w3.org/2000/svg">
<path fill-rule="evenodd" clip-rule="evenodd" d="M12 8C12 10.21 10.21 12 8 12C5.79 12 4 10.21 4 8C4 5.79 5.79 4 8 4C10.21 4 12 5.79 12 8ZM12.3 14.8538C10.9812 14.2853 9.38415 14 8 14C5 14 1 15.34 1 18V19C1 19.55 1.39375 20 1.875 20H12.8351C12.4948 19.4117 12.3 18.7286 12.3 18V14.8538ZM22 7C22 5.89999 21.1 5 20 5H17C15.9 5 15 5.89999 15 7V8.26974C14.4033 8.61687 14 9.26361 14 10V18C14 19.1 14.9 20 16 20H21C22.1 20 23 19.1 23 18V10C23 9.26361 22.5967 8.61687 22 8.26974V7ZM20 8C20 7.45 19.55 7 19 7H18C17.45 7 17 7.45 17 8H20ZM16 10.5C16 10.2239 16.2239 10 16.5 10H20.5C20.7761 10 21 10.2239 21 10.5V11.5C21 11.7761 20.7761 12 20.5 12H16.5C16.2239 12 16 11.7761 16 11.5V10.5ZM16.5 13C16.2239 13 16 13.2239 16 13.5V14.5C16 14.7761 16.2239 15 16.5 15H17.5C17.7761 15 18 14.7761 18 14.5V13.5C18 13.2239 17.7761 13 17.5 13H16.5ZM19.5 13C19.2239 13 19 13.2239 19 13.5V14.5C19 14.7761 19.2239 15 19.5 15H20.5C20.7761 15 21 14.7761 21 14.5V13.5C21 13.2239 20.7761 13 20.5 13H19.5ZM16.5 16C16.2239 16 16 16.2239 16 16.5V17.5C16 17.7761 16.2239 18 16.5 18H17.5C17.7761 18 18 17.7761 18 17.5V16.5C18 16.2239 17.7761 16 17.5 16H16.5Z" fill="black"/>
</svg>
