<svg width="24" height="24" viewBox="0 0 24 24" fill="none" xmlns="http://www.w3.org/2000/svg">
<path fill-rule="evenodd" clip-rule="evenodd" d="M15 7C15 9.21 13.21 11 11 11C8.79 11 7 9.21 7 7C7 4.79 8.79 3 11 3C13.21 3 15 4.79 15 7ZM8.64679 13.2465C6.01582 13.7451 3 14.9991 3 17V20C3 20.55 3.45 21 4 21H9.26756C9.09739 20.7058 9 20.3643 9 20V17.3229C8.68882 16.9703 8.5 16.5072 8.5 16V14C8.5 13.7334 8.55215 13.4791 8.64679 13.2465ZM14.6667 17.5C14.6667 17.8208 14.9292 18.0833 15.25 18.0833H16.4167C16.7375 18.0833 17 17.8208 17 17.5H21.0833V19.8333C21.0833 20.475 20.5583 21 19.9167 21H11.7558C11.1142 21 10.5892 20.475 10.5892 19.8333V17.5H14.6667ZM18.1667 12.8333H20.5C21.1417 12.8333 21.6667 13.3583 21.6667 14V15.75C21.6667 16.3917 21.1417 16.9167 20.5 16.9167H17V16.3333C17 16.0125 16.7375 15.75 16.4167 15.75H15.25C14.9292 15.75 14.6667 16.0125 14.6667 16.3333V16.9167H11.1667C10.5192 16.9167 10 16.3975 10 15.75V14C10 13.3583 10.525 12.8333 11.1667 12.8333H13.5C13.5 11.5442 14.5442 10.5 15.8333 10.5C17.1225 10.5 18.1667 11.5442 18.1667 12.8333ZM15.8333 11.6667C15.1917 11.6667 14.6667 12.1917 14.6667 12.8333H17C17 12.1917 16.475 11.6667 15.8333 11.6667Z" fill="black"/>
</svg>
