<svg width="24" height="24" viewBox="0 0 24 24" fill="none" xmlns="http://www.w3.org/2000/svg">
<path fill-rule="evenodd" clip-rule="evenodd" d="M2.73054 1.24519C2.34002 0.854668 1.70685 0.854668 1.31633 1.24519C0.925806 1.63572 0.925806 2.26888 1.31633 2.65941L1.95422 3.29729C1.3828 3.65038 1 4.2827 1 5.00009V19.0001C1 20.1001 1.9 21.0001 3 21.0001H19.657L21.4036 22.7467C21.7941 23.1372 22.4273 23.1372 22.8178 22.7467C23.2083 22.3561 23.2083 21.723 22.8178 21.3324L2.73054 1.24519ZM14.2046 15.5477L14.5747 15.9178C14.8426 16.2421 15 16.6034 15 17.0001C15 17.5524 14.5523 18.0001 14 18.0001H4C3.44772 18.0001 3 17.5524 3 17.0001C3 15.0001 7 13.9001 9 13.9001C10.4452 13.9001 12.9346 14.4744 14.2046 15.5477ZM10.3421 11.6851L6.31494 7.65802C6.11335 8.06158 6 8.5173 6 9.00009C6 10.6601 7.34 12.0001 9 12.0001C9.48279 12.0001 9.93851 11.8867 10.3421 11.6851ZM23 5.00009L22.9902 18.711L16.2793 12.0001H18C18.55 12.0001 19 11.5501 19 11.0001C19 10.4501 18.55 10.0001 18 10.0001H15C14.796 10.0001 14.6058 10.062 14.4472 10.1679L7.2793 3.00009H21C22.1 3.00009 23 3.90009 23 5.00009ZM15 8.00009H20C20.55 8.00009 21 7.55009 21 7.00009C21 6.45009 20.55 6.00009 20 6.00009H15C14.45 6.00009 14 6.45009 14 7.00009C14 7.55009 14.45 8.00009 15 8.00009Z" fill="black"/>
</svg>
