<svg width="24" height="24" viewBox="0 0 24 24" fill="none" xmlns="http://www.w3.org/2000/svg">
<path fill-rule="evenodd" clip-rule="evenodd" d="M3 3H21C22.1 3 23 3.9 23 5L22.99 19C22.99 20.1 22.1 21 21 21H3C1.9 21 1 20.1 1 19V5C1 3.9 1.9 3 3 3ZM12 9C12 7.34 10.66 6 9 6C7.34 6 6 7.34 6 9C6 10.66 7.34 12 9 12C10.66 12 12 10.66 12 9ZM14 18C14.5523 18 15 17.5523 15 17C15 15 11 13.9 9 13.9C7 13.9 3 15 3 17C3 17.5523 3.44772 18 4 18H14ZM15 12H18C18.55 12 19 11.55 19 11C19 10.45 18.55 10 18 10H15C14.45 10 14 10.45 14 11C14 11.55 14.45 12 15 12ZM15 8H20C20.55 8 21 7.55 21 7C21 6.45 20.55 6 20 6H15C14.45 6 14 6.45 14 7C14 7.55 14.45 8 15 8Z" fill="black"/>
</svg>
