<svg width="24" height="24" viewBox="0 0 24 24" fill="none" xmlns="http://www.w3.org/2000/svg">
<path d="M5.46208 1C3.97679 2.01655 3.58537 4.03772 4.62538 5.48976L9.9738 12.9559L8.02873 15.6708C6.24316 14.6599 3.93257 15.1354 2.727 16.8185C1.45418 18.5959 1.89589 21.0447 3.71391 22.2893C5.53202 23.5334 8.03788 23.102 9.31123 21.3246C10.1849 20.105 10.2504 18.5687 9.61816 17.323L12.0001 13.9977L14.3819 17.3227C13.7499 18.5684 13.8154 20.1046 14.6888 21.3243C15.9621 23.1016 18.4677 23.5331 20.2858 22.289C22.1041 21.0444 22.5458 18.5953 21.273 16.8183C20.0674 15.1354 17.7569 14.66 15.9713 15.6706L14.0262 12.9557L19.3743 5.4898C20.4146 4.03776 20.023 2.0166 18.5376 1.00004L12.0001 10.127L5.46208 1ZM8.11129 19.0629C8.11129 20.1875 7.1785 21.0993 6.02793 21.0993C4.87736 21.0993 3.94457 20.1875 3.94457 19.0629C3.94457 17.938 4.87736 17.0265 6.02793 17.0265C7.1785 17.0265 8.11129 17.938 8.11129 19.0629ZM20.0559 19.0629C20.0559 20.1875 19.1231 21.0993 17.9725 21.0993C16.822 21.0993 15.8892 20.1875 15.8892 19.0629C15.8892 17.938 16.822 17.0265 17.9725 17.0265C19.1231 17.0265 20.0559 17.938 20.0559 19.0629Z" fill="#91B1B8"/>
</svg>
