<svg width="24" height="24" viewBox="0 0 24 24" fill="none" xmlns="http://www.w3.org/2000/svg">
<path fill-rule="evenodd" clip-rule="evenodd" d="M15.5695 11.29L14.1695 13.71C14.0795 13.86 13.8995 13.92 13.7395 13.86L11.9995 13.16C11.6395 13.44 11.2395 13.67 10.8195 13.85L10.5595 15.7C10.5295 15.87 10.3795 16 10.2095 16H7.40951C7.23951 16 7.08952 15.87 7.05951 15.71L6.79952 13.86C6.36952 13.68 5.97951 13.45 5.61951 13.17L3.87952 13.87C3.71952 13.93 3.53952 13.87 3.44952 13.72L2.04952 11.3C1.95952 11.15 1.99952 10.96 2.12952 10.85L3.60951 9.69C3.57951 9.46 3.55951 9.23 3.55951 9C3.55951 8.77 3.57951 8.54 3.60951 8.32L2.12952 7.16C1.99952 7.05 1.95952 6.86 2.04952 6.71L3.44952 4.29C3.53952 4.14 3.71952 4.08 3.87952 4.14L5.61951 4.84C5.97951 4.56 6.37952 4.33 6.79952 4.15L7.05951 2.3C7.08952 2.13 7.23951 2 7.40951 2H10.2095C10.3795 2 10.5295 2.13 10.5595 2.29L10.8195 4.14C11.2495 4.32 11.6395 4.55 11.9995 4.83L13.7395 4.13C13.8995 4.07 14.0795 4.13 14.1695 4.28L15.5695 6.7C15.6595 6.85 15.6195 7.04 15.4895 7.15L14.0095 8.31C14.0395 8.54 14.0595 8.77 14.0595 9C14.0595 9.23 14.0395 9.46 14.0095 9.68L15.4895 10.84C15.6195 10.95 15.6595 11.14 15.5695 11.29ZM6.80951 9C6.80951 10.1 7.70952 11 8.80952 11C9.90952 11 10.8095 10.1 10.8095 9C10.8095 7.9 9.90952 7 8.80952 7C7.70952 7 6.80951 7.9 6.80951 9ZM20.9602 17.93L21.9202 18.67C22.0002 18.74 22.0302 18.86 21.9702 18.95L21.0702 20.5C21.0102 20.6 20.8902 20.64 20.7902 20.6L19.6702 20.15C19.4502 20.33 19.1902 20.47 18.9202 20.59L18.7502 21.77C18.7402 21.88 18.6402 21.96 18.5302 21.96H16.7402C16.6302 21.96 16.5402 21.88 16.5202 21.77L16.3502 20.59C16.0702 20.48 15.8202 20.33 15.5902 20.15L14.4802 20.6C14.3702 20.63 14.2502 20.6 14.2002 20.5L13.3002 18.95C13.2402 18.85 13.2702 18.73 13.3502 18.66L14.3002 17.92C14.2802 17.78 14.2702 17.63 14.2702 17.48C14.2702 17.33 14.2802 17.18 14.3002 17.04L13.3502 16.3C13.2602 16.23 13.2502 16.11 13.3002 16.01L14.2002 14.46C14.2602 14.36 14.3802 14.32 14.4802 14.36L15.5902 14.81C15.8202 14.63 16.0802 14.49 16.3502 14.37L16.5202 13.19C16.5302 13.08 16.6302 13 16.7402 13H18.5302C18.6302 13 18.7302 13.08 18.7402 13.2L18.9102 14.38C19.1902 14.49 19.4402 14.64 19.6702 14.82L20.7802 14.37C20.8902 14.34 21.0102 14.37 21.0602 14.47L21.9602 16.02C22.0202 16.12 21.9902 16.24 21.9102 16.31L20.9602 17.05C20.9902 17.19 21.0002 17.34 21.0002 17.49C21.0002 17.64 20.9802 17.79 20.9602 17.93ZM16.2802 17.48C16.2802 18.23 16.8902 18.83 17.6302 18.83C18.3702 18.83 18.9802 18.23 18.9802 17.48C18.9802 16.73 18.3802 16.13 17.6302 16.13C16.8802 16.13 16.2802 16.73 16.2802 17.48Z" fill="black"/>
</svg>
