<svg width="24" height="24" viewBox="0 0 24 24" fill="none" xmlns="http://www.w3.org/2000/svg">
<path fill-rule="evenodd" clip-rule="evenodd" d="M2 12C2 6.48 6.47 2 11.99 2C17.52 2 22 6.48 22 12C22 17.52 17.52 22 11.99 22C6.47 22 2 17.52 2 12ZM4 12C4 16.42 7.58 20 12 20C16.42 20 20 16.42 20 12C20 7.58 16.42 4 12 4C7.58 4 4 7.58 4 12ZM8.5 11C9.32843 11 10 10.3284 10 9.5C10 8.67157 9.32843 8 8.5 8C7.67157 8 7 8.67157 7 9.5C7 10.3284 7.67157 11 8.5 11ZM17 9.5C17 10.3284 16.3284 11 15.5 11C14.6716 11 14 10.3284 14 9.5C14 8.67157 14.6716 8 15.5 8C16.3284 8 17 8.67157 17 9.5ZM9.28161 16.7267C10.1202 16.3872 11.0374 16.2 12.0002 16.2C12.963 16.2 13.8802 16.3872 14.7188 16.7267C15.1027 16.8821 15.54 16.6968 15.6954 16.3129C15.8508 15.9289 15.6656 15.4917 15.2816 15.3363C14.2673 14.9257 13.1592 14.7 12.0002 14.7C10.8412 14.7 9.73311 14.9257 8.71879 15.3363C8.33484 15.4917 8.14958 15.9289 8.305 16.3129C8.46041 16.6968 8.89766 16.8821 9.28161 16.7267Z" fill="black"/>
</svg>
