<svg width="24" height="24" viewBox="0 0 24 24" fill="none" xmlns="http://www.w3.org/2000/svg">
<path fill-rule="evenodd" clip-rule="evenodd" d="M2 12C2 6.48 6.47 2 11.99 2C17.52 2 22 6.48 22 12C22 17.52 17.52 22 11.99 22C6.47 22 2 17.52 2 12ZM4 12C4 16.42 7.58 20 12 20C16.42 20 20 16.42 20 12C20 7.58 16.42 4 12 4C7.58 4 4 7.58 4 12ZM7.35 15.97C8.37 14.36 10.1 13.39 12 13.39C13.9 13.39 15.63 14.35 16.66 15.97C16.88 16.32 16.77 16.78 16.42 17C16.29 17.07 16.16 17.11 16.02 17.11C15.77 17.11 15.52 16.99 15.38 16.76C14.64 15.58 13.38 14.88 12 14.88C10.62 14.88 9.36 15.58 8.62 16.76C8.4 17.11 7.94 17.22 7.59 17C7.24 16.78 7.13 16.32 7.35 15.97ZM8.5 11C9.32843 11 10 10.3284 10 9.5C10 8.67157 9.32843 8 8.5 8C7.67157 8 7 8.67157 7 9.5C7 10.3284 7.67157 11 8.5 11ZM15.5 11C16.3284 11 17 10.3284 17 9.5C17 8.67157 16.3284 8 15.5 8C14.6716 8 14 8.67157 14 9.5C14 10.3284 14.6716 11 15.5 11Z" fill="black"/>
</svg>
