<svg width="24" height="24" viewBox="0 0 24 24" fill="none" xmlns="http://www.w3.org/2000/svg">
<path fill-rule="evenodd" clip-rule="evenodd" d="M2 12C2 6.48 6.47 2 11.99 2C17.52 2 22 6.48 22 12C22 17.52 17.52 22 11.99 22C6.47 22 2 17.52 2 12ZM4 12C4 16.42 7.58 20 12 20C16.42 20 20 16.42 20 12C20 7.58 16.42 4 12 4C7.58 4 4 7.58 4 12ZM15.5104 11.9749C15.9009 12.3654 16.5341 12.3654 16.9246 11.9749C18.2915 10.608 18.2915 8.39196 16.9246 7.02513C15.5578 5.65829 13.3417 5.65829 11.9749 7.02513L10.2071 8.79289C8.84027 10.1597 8.84027 12.3758 10.2071 13.7426C10.3271 13.8627 10.4537 13.9722 10.5857 14.0711L12.0352 12.6216C11.8856 12.5501 11.7453 12.4524 11.6213 12.3284C11.0355 11.7426 11.0355 10.7929 11.6213 10.2071L13.3891 8.43934C13.9749 7.85355 14.9246 7.85355 15.5104 8.43934C16.0962 9.02513 16.0962 9.97487 15.5104 10.5607C15.1199 10.9512 15.1199 11.5843 15.5104 11.9749ZM8.43934 11.9749C8.04882 11.5844 7.41565 11.5844 7.02513 11.9749C5.65829 13.3417 5.65829 15.5578 7.02513 16.9246C8.39196 18.2915 10.608 18.2915 11.9749 16.9246L13.7426 15.1569C15.1095 13.79 15.1095 11.5739 13.7426 10.2071C13.6226 10.0871 13.496 9.97757 13.364 9.87862L11.9145 11.3281C12.0642 11.3996 12.2045 11.4974 12.3284 11.6213C12.9142 12.2071 12.9142 13.1569 12.3284 13.7426L10.5607 15.5104C9.97487 16.0962 9.02513 16.0962 8.43934 15.5104C7.85355 14.9246 7.85355 13.9749 8.43934 13.3891C8.82986 12.9986 8.82986 12.3654 8.43934 11.9749Z" fill="black" />
</svg>
