<svg width="24" height="24" viewBox="0 0 24 24" fill="none" xmlns="http://www.w3.org/2000/svg">
<path fill-rule="evenodd" clip-rule="evenodd" d="M19.07 0.800012L18.11 1.76001L20.23 3.88001L21.19 2.92001C21.58 2.53001 21.58 1.90001 21.19 1.51001L20.48 0.800012C20.3875 0.707309 20.2776 0.633761 20.1566 0.58358C20.0357 0.533398 19.906 0.507568 19.775 0.507568C19.644 0.507568 19.5143 0.533398 19.3934 0.58358C19.2724 0.633761 19.1625 0.707309 19.07 0.800012ZM19.23 4.88001L17.11 2.76001L11.15 8.74001C11.05 8.83001 11 8.96001 11 9.09001V10.5C11 10.78 11.22 11 11.5 11H12.91C13.0417 10.9971 13.1671 10.9433 13.26 10.85L19.23 4.88001ZM10.1064 7.66222C9.68082 8.06723 9.5 8.6042 9.5 9.09V9.5V10.5V11.5C9.5 12.0523 9.94772 12.5 10.5 12.5H12.5L12.5024 12.5H12.9267L12.9435 12.4996C13.4617 12.4881 13.9553 12.2768 14.3214 11.9099L14.3229 11.9084L19.111 7.12035L19.41 7.42C19.79 7.79 20 8.3 20 8.83V20C20 21.1 19.1 22 18 22H5.99C4.89 22 4 21.1 4 20V4C4 2.9 4.9 2 6 2H13.17C13.7 2 14.21 2.21 14.59 2.59L14.878 2.87859L10.1064 7.66222Z" fill="black"/>
</svg>
