<svg width="24" height="24" viewBox="0 0 24 24" fill="none" xmlns="http://www.w3.org/2000/svg">
<path fill-rule="evenodd" clip-rule="evenodd" d="M5 3C3.89543 3 3 3.89543 3 5V9C3 10.1046 3.89543 11 5 11H9C10.1046 11 11 10.1046 11 9V5C11 3.89543 10.1046 3 9 3H5ZM15 3C13.8954 3 13 3.89543 13 5V9C13 10.1046 13.8954 11 15 11H19C20.1046 11 21 10.1046 21 9V5C21 3.89543 20.1046 3 19 3H15ZM3 15C3 13.8954 3.89543 13 5 13H9C10.1046 13 11 13.8954 11 15V19C11 20.1046 10.1046 21 9 21H5C3.89543 21 3 20.1046 3 19V15ZM15 13C13.8954 13 13 13.8954 13 15V19C13 20.1046 13.8954 21 15 21H19C20.1046 21 21 20.1046 21 19V15C21 13.8954 20.1046 13 19 13H15Z" fill="black"/>
</svg>
