<svg width="24" height="24" viewBox="0 0 24 24" fill="none" xmlns="http://www.w3.org/2000/svg">
<path fill-rule="evenodd" clip-rule="evenodd" d="M21.2601 16.9999C22.0301 18.3299 21.0701 19.9999 19.5301 19.9999H4.47012C2.93012 19.9999 1.97012 18.3299 2.74012 16.9999L10.2701 3.98993C11.0401 2.65993 12.9601 2.65993 13.7301 3.98993L21.2601 16.9999ZM11.0001 11.9999C11.0001 12.5499 11.4501 12.9999 12.0001 12.9999C12.5501 12.9999 13.0001 12.5499 13.0001 11.9999V7.99994C13.0001 7.44994 12.5501 6.99994 12.0001 6.99994C11.4501 6.99994 11.0001 7.44994 11.0001 7.99994V11.9999ZM12.0001 16.9999C12.5524 16.9999 13.0001 16.5522 13.0001 15.9999C13.0001 15.4477 12.5524 14.9999 12.0001 14.9999C11.4478 14.9999 11.0001 15.4477 11.0001 15.9999C11.0001 16.5522 11.4478 16.9999 12.0001 16.9999Z" fill="black"/>
</svg>
