<svg width="24" height="24" viewBox="0 0 24 24" fill="none" xmlns="http://www.w3.org/2000/svg">
<path d="M6.5 17C7.28333 17 8.046 17.0873 8.788 17.262C9.52933 17.4373 10.2667 17.7 11 18.05V8.2C10.3167 7.8 9.59167 7.5 8.825 7.3C8.05833 7.1 7.28333 7 6.5 7C5.9 7 5.30433 7.05833 4.713 7.175C4.121 7.29167 3.55 7.46667 3 7.7V17.6C3.58333 17.4 4.16267 17.25 4.738 17.15C5.31267 17.05 5.9 17 6.5 17ZM13 18.05C13.7333 17.7 14.471 17.4373 15.213 17.262C15.9543 17.0873 16.7167 17 17.5 17C18.1 17 18.6877 17.05 19.263 17.15C19.8377 17.25 20.4167 17.4 21 17.6V7.7C20.45 7.46667 19.8793 7.29167 19.288 7.175C18.696 7.05833 18.1 7 17.5 7C16.7167 7 15.9417 7.1 15.175 7.3C14.4083 7.5 13.6833 7.8 13 8.2V18.05ZM12 20.475C11.7667 20.475 11.546 20.446 11.338 20.388C11.1293 20.3293 10.9333 20.25 10.75 20.15C10.1 19.7667 9.41667 19.4793 8.7 19.288C7.98333 19.096 7.25 19 6.5 19C5.8 19 5.11267 19.0917 4.438 19.275C3.76267 19.4583 3.11667 19.7167 2.5 20.05C2.15 20.2333 1.81267 20.225 1.488 20.025C1.16267 19.825 1 19.5333 1 19.15V7.1C1 6.91667 1.046 6.74167 1.138 6.575C1.22933 6.40833 1.36667 6.28333 1.55 6.2C2.31667 5.8 3.11667 5.5 3.95 5.3C4.78333 5.1 5.63333 5 6.5 5C7.46667 5 8.41267 5.125 9.338 5.375C10.2627 5.625 11.15 6 12 6.5C12.85 6 13.7377 5.625 14.663 5.375C15.5877 5.125 16.5333 5 17.5 5C18.3667 5 19.2167 5.1 20.05 5.3C20.8833 5.5 21.6833 5.8 22.45 6.2C22.6333 6.28333 22.771 6.40833 22.863 6.575C22.9543 6.74167 23 6.91667 23 7.1V19.15C23 19.5333 22.8377 19.825 22.513 20.025C22.1877 20.225 21.85 20.2333 21.5 20.05C20.8833 19.7167 20.2373 19.4583 19.562 19.275C18.8873 19.0917 18.2 19 17.5 19C16.75 19 16.0167 19.096 15.3 19.288C14.5833 19.4793 13.9 19.7667 13.25 20.15C13.0667 20.25 12.871 20.3293 12.663 20.388C12.4543 20.446 12.2333 20.475 12 20.475Z" fill="black"/>
</svg>
