<svg width="24" height="24" viewBox="0 0 24 24" fill="none" xmlns="http://www.w3.org/2000/svg">
<path fill-rule="evenodd" clip-rule="evenodd" d="M18 8.5044C18 10.1246 17.3584 11.5943 16.3158 12.6727C15.5239 13.4954 15.1704 14.3814 15 15.5C14.9248 15.9815 14.4912 16.5 14 16.5H10C9.5138 16.5 9.09299 15.9815 9.02281 15.5C8.84738 14.3814 8.46644 13.4853 7.67448 12.6677C6.65195 11.6043 6.01538 10.1597 6.00034 8.56961C5.96526 5.22891 8.62182 2.52525 11.9601 2.50017C15.2933 2.47509 18 5.17373 18 8.5044ZM12.6768 4.86775C12.6768 4.49657 12.3761 4.19059 12.0002 4.19059C9.61428 4.19059 7.66947 6.1318 7.66947 8.52446C7.66947 8.89565 7.97021 9.20163 8.34614 9.20163C8.71706 9.20163 9.02281 8.90067 9.02281 8.52446C9.02281 6.87919 10.3611 5.54492 12.0002 5.54492C12.3761 5.54492 12.6768 5.24396 12.6768 4.86775ZM9.39018 18.1117C9.31842 17.7986 9.55631 17.5 9.87754 17.5H14.1225C14.4437 17.5 14.6816 17.7986 14.6098 18.1117L14.3807 19.1117C14.3286 19.3389 14.1264 19.5 13.8933 19.5H10.1067C9.8736 19.5 9.67142 19.3389 9.61935 19.1117L9.39018 18.1117ZM13.75 20.5H10.25C10.25 21.0523 10.6977 21.5 11.25 21.5H12.75C13.3023 21.5 13.75 21.0523 13.75 20.5Z" fill="#231F20"/>
</svg>
