<svg width="24" height="24" viewBox="0 0 24 24" fill="none" xmlns="http://www.w3.org/2000/svg">
<path d="M4.59066 16.7875L6.59178 15.1965C7.07261 14.8147 7.34838 14.2419 7.34838 13.6338L7.34838 11.0316C10.3677 10.0488 13.6416 10.0417 16.668 11.0316L16.668 13.6479C16.668 14.256 16.9438 14.8288 17.4247 15.2106L19.4116 16.7875C20.2107 17.4168 21.3491 17.3532 22.0703 16.6319L23.2936 15.4086C24.0927 14.6096 24.0927 13.2802 23.2441 12.5307C16.8307 6.86678 7.17868 6.87386 0.772288 12.5307C-0.0762401 13.2802 -0.0762387 14.6096 0.722791 15.4086L1.94609 16.6319C2.65319 17.3532 3.79163 17.4168 4.59066 16.7875Z" fill="#212121"/>
</svg>
