<svg width="24" height="24" viewBox="0 0 24 24" fill="none" xmlns="http://www.w3.org/2000/svg">
<g clip-path="url(#clip0_32147_38738)">
<path d="M11.7752 10.65C11.8752 10.65 11.9669 10.6334 12.0502 10.6C12.1335 10.5667 12.2169 10.5084 12.3002 10.425L17.0502 5.62505V7.92505C17.0502 8.14172 17.121 8.32088 17.2627 8.46255C17.4044 8.60422 17.5835 8.67505 17.8002 8.67505C18.0169 8.67505 18.196 8.60422 18.3377 8.46255C18.4794 8.32088 18.5502 8.14172 18.5502 7.92505V3.80005C18.5502 3.58338 18.4794 3.40422 18.3377 3.26255C18.196 3.12088 18.0169 3.05005 17.8002 3.05005H13.6752C13.4585 3.05005 13.2794 3.12088 13.1377 3.26255C12.996 3.40422 12.9252 3.58338 12.9252 3.80005C12.9252 4.01672 12.996 4.19588 13.1377 4.33755C13.2794 4.47922 13.4585 4.55005 13.6752 4.55005H16.0752L11.7502 8.82505L6.50019 3.57505C6.35019 3.42505 6.17103 3.34588 5.96269 3.33755C5.75436 3.32922 5.57519 3.40005 5.42519 3.55005C5.27519 3.70005 5.2002 3.87922 5.2002 4.08755C5.2002 4.29588 5.27519 4.47505 5.42519 4.62505L11.2502 10.45C11.3335 10.5334 11.4169 10.5875 11.5002 10.6125C11.5835 10.6375 11.6752 10.65 11.7752 10.65Z" fill="#212121"/>
<path d="M4.58041 20.4979L6.58152 18.907C7.06235 18.5251 7.33813 17.9524 7.33813 17.3442L7.33813 14.7421C10.3575 13.7592 13.6314 13.7521 16.6578 14.7421L16.6578 17.3584C16.6578 17.9665 16.9336 18.5393 17.4144 18.9211L19.4014 20.4979C20.2004 21.1273 21.3388 21.0636 22.0601 20.3424L23.2834 19.1191C24.0824 18.3201 24.0824 16.9907 23.2339 16.2412C16.8204 10.5772 7.16842 10.5843 0.762034 16.2412C-0.086494 16.9907 -0.0864927 18.3201 0.712537 19.1191L1.93583 20.3424C2.64294 21.0636 3.78138 21.1273 4.58041 20.4979Z" fill="#212121"/>
</g>
<defs>
<clipPath id="clip0_32147_38738">
<rect width="24" height="24" fill="white"/>
</clipPath>
</defs>
</svg>
