<svg width="24" height="24" viewBox="0 0 24 24" fill="none" xmlns="http://www.w3.org/2000/svg">
<path fill-rule="evenodd" clip-rule="evenodd" d="M18.3097 19.3778C16.7226 20.9889 13.8642 22 11.4285 22C7.86869 22 4.48993 19.8667 3.10126 16.8C2.78165 16.1222 3.25556 15.3333 4.005 15.3333H4.2144C4.62219 15.3333 4.96384 15.5889 5.14018 15.9667C6.19822 18.2222 8.79447 19.7778 11.4285 19.7778C13.258 19.7778 15.5654 19.0222 16.7777 17.8222L15.2458 16.2778C14.8931 15.9333 15.1356 15.3333 15.6315 15.3333H20.3596C20.6682 15.3333 20.9107 15.5778 20.9107 15.8889V20.6556C20.9107 21.1556 20.3155 21.4 19.9739 21.0556L18.3097 19.3778ZM3.10112 8.11113L3.10112 3.34446C3.10112 2.84446 3.63503 2.60001 3.97669 2.94446L5.64089 4.62224C7.22794 3.01112 9.97251 2 12.4082 2C15.968 2 19.5211 4.13335 20.8987 7.20002C21.2184 7.8778 20.7444 8.66668 19.995 8.66668H19.7966C19.3888 8.66668 19.0472 8.41113 18.8708 8.03335C17.8128 5.77779 15.0423 4.22222 12.4082 4.22222C10.5787 4.22222 8.38516 4.97779 7.17283 6.17779L8.70478 7.72224C9.05746 8.06668 8.81499 8.66668 8.31904 8.66669H3.59095C3.28235 8.66669 3.10112 8.42224 3.10112 8.11113ZM9.97731 16C9.97731 16.2761 10.2012 16.5 10.4773 16.5H11.322C11.5981 16.5 11.822 16.2761 11.822 16V15.1513H13.2033C13.4795 15.1513 13.7033 14.9274 13.7033 14.6513V14.4286C13.7033 14.1524 13.4795 13.9286 13.2033 13.9286H11.822V12.9454H12.6161C13.4631 12.9454 14.1309 12.8151 14.6195 12.5546C15.1163 12.2941 15.4706 11.9496 15.6824 11.521C15.8941 11.0924 16 10.6345 16 10.1471C16 9.32353 15.7394 8.67647 15.2182 8.20588C14.7051 7.73529 13.8866 7.5 12.7627 7.5H10.4773C10.2012 7.5 9.97731 7.72386 9.97731 8V11.3824H9.5C9.22386 11.3824 9 11.6062 9 11.8824V12.4454C9 12.7215 9.22386 12.9454 9.5 12.9454H9.97731V13.9286H9.5C9.22386 13.9286 9 14.1524 9 14.4286V14.6513C9 14.9274 9.22386 15.1513 9.5 15.1513H9.97731V16ZM13.6667 11.105C13.3653 11.2899 12.954 11.3824 12.4328 11.3824H11.822V9.06303H12.6649C13.6422 9.06303 14.1309 9.44538 14.1309 10.2101C14.1309 10.6218 13.9761 10.9202 13.6667 11.105Z" fill="black"/>
</svg>
