<svg width="24" height="24" viewBox="0 0 24 24" fill="none" xmlns="http://www.w3.org/2000/svg">
<path d="M17.3001 6.30004C16.9101 5.91004 16.2801 5.91004 15.8901 6.30004L10.2501 11.94L11.6601 13.35L17.3001 7.70004C17.6801 7.32004 17.6801 6.68004 17.3001 6.30004ZM21.5401 6.29004L11.6601 16.17L8.18014 12.7C7.79014 12.31 7.16014 12.31 6.77014 12.7C6.38014 13.09 6.38014 13.72 6.77014 14.11L10.9501 18.29C11.3401 18.68 11.9701 18.68 12.3601 18.29L22.9501 7.71004C23.3401 7.32004 23.3401 6.69004 22.9501 6.30004H22.9401C22.5601 5.90004 21.9301 5.90004 21.5401 6.29004ZM1.12014 14.12L5.30014 18.3C5.69014 18.69 6.32014 18.69 6.71014 18.3L7.41014 17.6L2.53014 12.7C2.14014 12.31 1.51014 12.31 1.12014 12.7C0.730137 13.09 0.730137 13.73 1.12014 14.12Z" fill="black"/>
</svg>
