<svg width="24" height="24" viewBox="0 0 24 24" fill="none" xmlns="http://www.w3.org/2000/svg">
<path fill-rule="evenodd" clip-rule="evenodd" d="M12 22C17.5229 22 22 17.5228 22 12C22 6.47716 17.5229 2 12 2C6.47714 2 2 6.47716 2 12C2 17.5228 6.47714 22 12 22ZM11 7C11 6.44771 11.4477 6 12 6C12.5523 6 13 6.44771 13 7V12.5976L15.5356 15.1332C15.9261 15.5237 15.9261 16.1568 15.5356 16.5474C15.1451 16.9379 14.5119 16.9379 14.1213 16.5474L11.2929 13.7189C11.0968 13.5228 10.9992 13.2655 11 13.0084L11 13V7Z" fill="#231F20"/>
</svg>
