<svg width="24" height="24" viewBox="0 0 24 24" fill="none" xmlns="http://www.w3.org/2000/svg">
<path fill-rule="evenodd" clip-rule="evenodd" d="M12 2C17.52 2 22 6.48 22 12C22 17.52 17.52 22 12 22C6.48 22 2 17.52 2 12C2 6.48 6.48 2 12 2ZM17.0055 10.72L14.2823 7.99676C14.1248 7.83927 13.8555 7.95081 13.8555 8.17354V10.07H7.35548C7.07934 10.07 6.85548 10.2938 6.85548 10.57V11.43H13.7627H15.8333H17.1554C17.1554 11.43 17.2055 10.92 17.0055 10.72ZM7.0055 13.28L9.72873 16.0032C9.88622 16.1607 10.1555 16.0492 10.1555 15.8264V13.93H16.6555C16.9316 13.93 17.1555 13.7061 17.1555 13.43V12.57H10.2483H8.17766H6.85554C6.85554 12.57 6.8055 13.08 7.0055 13.28Z" fill="black"/>
</svg>
