<svg width="24" height="24" viewBox="0 0 24 24" fill="none" xmlns="http://www.w3.org/2000/svg">
<path d="M4.92889 19.0711C8.83212 22.9743 15.1678 22.9743 19.071 19.0711C22.9743 15.1678 22.9743 8.83216 19.071 4.92893C15.1678 1.0257 8.83212 1.0257 4.92889 4.92893C1.02566 8.83216 1.02566 15.1678 4.92889 19.0711ZM15.5355 9.87868L13.4142 12L15.5355 14.1213C15.9244 14.5102 15.9244 15.1466 15.5355 15.5355C15.1466 15.9244 14.5102 15.9244 14.1213 15.5355L12 13.4142L9.87863 15.5355C9.48973 15.9244 8.85333 15.9244 8.46442 15.5355C8.07551 15.1466 8.07551 14.5102 8.46442 14.1213L10.5857 12L8.46442 9.87868C8.07551 9.48977 8.07551 8.85338 8.46442 8.46447C8.85333 8.07556 9.48973 8.07556 9.87863 8.46447L12 10.5858L14.1213 8.46447C14.5102 8.07556 15.1466 8.07556 15.5355 8.46447C15.9244 8.85338 15.9244 9.48977 15.5355 9.87868Z" fill="black"/>
</svg>
