<svg width="24" height="24" viewBox="0 0 24 24" fill="none" xmlns="http://www.w3.org/2000/svg">
<path fill-rule="evenodd" clip-rule="evenodd" d="M7 1L17 1.01C18.1 1.01 19 1.9 19 3V21C19 22.1 18.1 23 17 23H7C5.9 23 5 22.1 5 21V3C5 1.9 5.9 1 7 1ZM7 5V19H17V5H7ZM15.184 9.6C14.448 8.632 13.304 8 12 8C9.792 8 8 9.792 8 12C8 12.272 8.032 12.544 8.08 12.8H9.744C9.656 12.552 9.6 12.28 9.6 12C9.6 10.672 10.672 9.6 12 9.6H15.184ZM8.816 14.4C9.552 15.368 10.696 16 12 16C14.208 16 16 14.208 16 12C16 11.728 15.976 11.456 15.92 11.2H14.256C14.344 11.448 14.4 11.72 14.4 12C14.4 13.328 13.328 14.4 12 14.4H8.816Z" fill="black"/>
</svg>
