<svg width="24" height="24" viewBox="0 0 24 24" fill="none" xmlns="http://www.w3.org/2000/svg">
<path d="M7.3188 12.142C6.89373 11.7544 6.89373 11.1284 7.3188 10.7409C7.73297 10.3633 8.43052 10.3533 8.85559 10.7409L10.9046 12.609L10.9046 3.99368C10.9046 3.44715 11.3951 2.99998 11.9946 2.99998C12.594 2.99998 13.0845 3.44715 13.0845 3.99368L13.0845 12.609L15.1444 10.7409C15.5695 10.3533 16.2561 10.3533 16.6812 10.7409C17.1063 11.1284 17.1063 11.7544 16.6812 12.142L12.7684 15.7093C12.3433 16.0969 11.6567 16.0969 11.2316 15.7093L7.3188 12.142Z" fill="black"/>
<rect x="5" y="19" width="14" height="2" rx="1" fill="black"/>
</svg>
