<svg width="24" height="24" viewBox="0 0 24 24" fill="none" xmlns="http://www.w3.org/2000/svg">
<path fill-rule="evenodd" clip-rule="evenodd" d="M7.3188 10.7409C6.89373 11.1284 6.89373 11.7544 7.3188 12.142L11.2316 15.7093C11.6567 16.0969 12.3433 16.0969 12.7684 15.7093L16.6812 12.142C17.1063 11.7544 17.1063 11.1284 16.6812 10.7409C16.2561 10.3533 15.5695 10.3533 15.1444 10.7409L13.0845 12.609L13.0845 3.99369C13.0845 3.44716 12.594 3 11.9946 3C11.3951 3 10.9046 3.44716 10.9046 3.99369L10.9046 12.609L8.85559 10.7409C8.43052 10.3533 7.73297 10.3633 7.3188 10.7409ZM6 19C5.44772 19 5 19.4477 5 20C5 20.5523 5.44772 21 6 21L18 21C18.5523 21 19 20.5523 19 20C19 19.4477 18.5523 19 18 19H6Z" fill="black"/>
</svg>
