<svg width="24" height="24" viewBox="0 0 24 24" fill="none" xmlns="http://www.w3.org/2000/svg">
<path d="M4.75 11.25C4.53333 11.25 4.35417 11.1792 4.2125 11.0375C4.07083 10.8958 4 10.7167 4 10.5C4 10.2833 4.07083 10.1042 4.2125 9.9625C4.35417 9.82083 4.53333 9.75 4.75 9.75H19.25C19.4667 9.75 19.6458 9.82083 19.7875 9.9625C19.9292 10.1042 20 10.2833 20 10.5C20 10.7167 19.9292 10.8958 19.7875 11.0375C19.6458 11.1792 19.4667 11.25 19.25 11.25H4.75ZM4.75 14.25C4.53333 14.25 4.35417 14.1792 4.2125 14.0375C4.07083 13.8958 4 13.7167 4 13.5C4 13.2833 4.07083 13.1042 4.2125 12.9625C4.35417 12.8208 4.53333 12.75 4.75 12.75H19.25C19.4667 12.75 19.6458 12.8208 19.7875 12.9625C19.9292 13.1042 20 13.2833 20 13.5C20 13.7167 19.9292 13.8958 19.7875 14.0375C19.6458 14.1792 19.4667 14.25 19.25 14.25H4.75Z" fill="#231F20"/>
</svg>
