<svg width="24" height="24" viewBox="0 0 24 24" fill="none" xmlns="http://www.w3.org/2000/svg">
<path fill-rule="evenodd" clip-rule="evenodd" d="M12 22C17.5228 22 22 17.5228 22 12C22 6.47715 17.5228 2 12 2C6.47715 2 2 6.47715 2 12C2 17.5228 6.47715 22 12 22ZM7 16.4805V14.8339C7 14.758 7.02708 14.693 7.08125 14.6389L12.9908 8.72927L15.0221 10.7605L9.10708 16.6701C9.05833 16.7243 8.98792 16.7514 8.9175 16.7514H7.27083C7.11917 16.7514 7 16.6322 7 16.4805ZM16.5929 8.42594C16.8042 8.63719 16.8042 8.97844 16.5929 9.18969L15.6017 10.1809L13.5704 8.14969L14.5617 7.15844C14.7729 6.94719 15.1142 6.94719 15.3254 7.15844L16.5929 8.42594Z" fill="black"/>
</svg>
