<svg width="24" height="24" viewBox="0 0 24 24" fill="none" xmlns="http://www.w3.org/2000/svg">
<mask id="mask0" style="mask-type:alpha" maskUnits="userSpaceOnUse" x="3" y="1" width="18" height="20">
<path fill-rule="evenodd" clip-rule="evenodd" d="M18 3H19C20.1 3 21 3.9 21 5V19C21 20.1 20.1 21 19 21H5C3.89 21 3 20.1 3 19L3.01 5C3.01 3.9 3.89 3 5 3H6V2C6 1.45 6.45 1 7 1C7.55 1 8 1.45 8 2V3H16V2C16 1.45 16.45 1 17 1C17.55 1 18 1.45 18 2V3ZM6 19H18C18.55 19 19 18.55 19 18V8H5V18C5 18.55 5.45 19 6 19ZM12.464 10.1554C12.296 9.73719 11.704 9.73719 11.536 10.1554L10.8238 11.9289C10.7523 12.107 10.5852 12.2284 10.3937 12.2414L8.48697 12.3707C8.03731 12.4012 7.85435 12.9643 8.20021 13.2532L9.66679 14.4786C9.81407 14.6016 9.87792 14.7981 9.83109 14.9843L9.36484 16.8376C9.25489 17.2747 9.73388 17.6227 10.1156 17.3831L11.7341 16.3669C11.8967 16.2649 12.1033 16.2649 12.2659 16.3669L13.8844 17.3831C14.2661 17.6227 14.7451 17.2747 14.6352 16.8376L14.1689 14.9843C14.1221 14.7981 14.1859 14.6016 14.3332 14.4786L15.7998 13.2532C16.1457 12.9643 15.9627 12.4012 15.513 12.3707L13.6063 12.2414C13.4148 12.2284 13.2477 12.107 13.1762 11.9289L12.464 10.1554Z" fill="black"/>
</mask>
<g mask="url(#mask0)">
<rect width="24" height="24" fill="#231F20"/>
</g>
</svg>
