<svg width="24" height="24" viewBox="0 0 24 24" fill="none" xmlns="http://www.w3.org/2000/svg">
<path d="M20.4 22.025L16.2 17.9C15.6167 18.1333 14.9583 18.3125 14.225 18.4375C13.4917 18.5625 12.75 18.625 12 18.625C9.56667 18.625 7.35833 17.9458 5.375 16.5875C3.39167 15.2292 1.93333 13.4083 1 11.125C1.33333 10.2583 1.79583 9.4125 2.3875 8.5875C2.97917 7.7625 3.7 6.975 4.55 6.225L1.4 3.075L2.45 2L21.375 20.925L20.4 22.025ZM12 15.375C12.2333 15.375 12.4833 15.3542 12.75 15.3125C13.0167 15.2708 13.2417 15.2083 13.425 15.125L8 9.7C7.91667 9.9 7.85417 10.125 7.8125 10.375C7.77083 10.625 7.75 10.875 7.75 11.125C7.75 12.325 8.16667 13.3333 9 14.15C9.83333 14.9667 10.8333 15.375 12 15.375ZM18.95 16.375L15.725 13.15C15.8917 12.8833 16.0208 12.5708 16.1125 12.2125C16.2042 11.8542 16.25 11.4917 16.25 11.125C16.25 9.94167 15.8375 8.9375 15.0125 8.1125C14.1875 7.2875 13.1833 6.875 12 6.875C11.6333 6.875 11.275 6.91667 10.925 7C10.575 7.08333 10.2583 7.21667 9.975 7.4L7.225 4.625C7.80833 4.35833 8.55417 4.125 9.4625 3.925C10.3708 3.725 11.2583 3.625 12.125 3.625C14.5083 3.625 16.6875 4.30417 18.6625 5.6625C20.6375 7.02083 22.0833 8.84167 23 11.125C22.5667 12.1917 22.0083 13.1667 21.325 14.05C20.6417 14.9333 19.85 15.7083 18.95 16.375ZM14.625 12.05L11.075 8.5C11.5583 8.31667 12.0583 8.27917 12.575 8.3875C13.0917 8.49583 13.5417 8.73333 13.925 9.1C14.3083 9.48333 14.575 9.9125 14.725 10.3875C14.875 10.8625 14.8417 11.4167 14.625 12.05Z" fill="black"/>
</svg>
