<svg width="24" height="24" viewBox="0 0 24 24" fill="none" xmlns="http://www.w3.org/2000/svg">
<path fill-rule="evenodd" clip-rule="evenodd" d="M2 12C2 6.47715 6.47715 2 12 2C17.5228 2 22 6.47715 22 12C22 17.5228 17.5228 22 12 22C6.47715 22 2 17.5228 2 12ZM8.32079 6.44535C13.7806 6.9348 17.5129 10.8268 17.5558 15.73C17.565 16.7803 17.0615 17.4408 16.033 17.5412C14.8905 17.6528 14.1351 17.1355 14.0534 15.8932C13.8318 12.52 11.6255 10.1699 8.36617 9.97343C7.11298 9.8978 6.31266 9.37859 6.46554 7.98044C6.61437 6.61979 7.62083 6.42911 8.32079 6.44535ZM10.8722 15.2248C10.8722 16.5056 9.88104 17.5439 8.65834 17.5439C7.43564 17.5439 6.44444 16.5056 6.44444 15.2248C6.44444 13.944 7.43564 12.9058 8.65834 12.9058C9.88104 12.9058 10.8722 13.944 10.8722 15.2248Z" fill="white"/>
</svg>
