<svg width="24" height="24" viewBox="0 0 24 24" fill="none" xmlns="http://www.w3.org/2000/svg">
<path fill-rule="evenodd" clip-rule="evenodd" d="M19.15 3.55L20.54 5.23C20.83 5.57 21 6.02 21 6.5V19C21 20.1 20.1 21 19 21H5C3.9 21 3 20.1 3 19V6.5C3 6.02 3.17 5.57 3.46 5.23L4.84 3.55C5.12 3.21 5.53 3 6 3H18C18.47 3 18.88 3.21 19.15 3.55ZM5.93 4L5.12 5H18.87L17.93 4H5.93ZM9 10C8.44772 10 8 10.4477 8 11V15C8 15.5523 8.44772 16 9 16H15C15.5523 16 16 15.5523 16 15V11C16 10.4477 15.5523 10 15 10H9Z" fill="#91B1B8"/>
</svg>
