<svg width="24" height="24" viewBox="0 0 24 24" fill="none" xmlns="http://www.w3.org/2000/svg">
<path fill-rule="evenodd" clip-rule="evenodd" d="M10.58 3.59L11.99 5H2C2 3.9 2.89 3 3.99 3H9.16C9.69 3 10.2 3.21 10.58 3.59ZM2 6H20C21.1046 6 22 6.89543 22 8V18C22 19.1046 21.1046 20 20 20H4C2.89543 20 2 19.1046 2 18V6ZM6.2925 13.3949L9.8825 16.9849C10.2725 17.3749 10.9125 17.3749 11.2925 16.9849L17.6001 10.4024C17.9901 10.0124 17.9901 9.38243 17.6001 8.99243C17.2101 8.60243 16.5801 8.60243 16.1901 8.99243L10.5925 14.8649L7.7025 11.9849C7.3125 11.5949 6.6825 11.5949 6.2925 11.9849C5.9025 12.3749 5.9025 13.0049 6.2925 13.3949Z" fill="black"/>
</svg>
