<svg width="24" height="24" viewBox="0 0 24 24" fill="none" xmlns="http://www.w3.org/2000/svg">
<path fill-rule="evenodd" clip-rule="evenodd" d="M10.58 3.59L11.99 5H2C2 3.9 2.89 3 3.99 3H9.16C9.69 3 10.2 3.21 10.58 3.59ZM2 6H20C21.1046 6 22 6.89543 22 8V18C22 19.1046 21.1046 20 20 20H4C2.89543 20 2 19.1046 2 18V6ZM11.9351 15.6444L13.6351 13.9444H8.09435C7.82151 13.9444 7.59589 13.8552 7.41749 13.6769C7.2391 13.4985 7.1499 13.2728 7.1499 13C7.1499 12.7272 7.2391 12.5015 7.41749 12.3231C7.59589 12.1448 7.82151 12.0556 8.09435 12.0556H13.6351L11.9351 10.3556C11.7462 10.1667 11.6518 9.9463 11.6518 9.69444C11.6518 9.44259 11.7462 9.22222 11.9351 9.03333C12.124 8.84444 12.3443 8.75 12.5962 8.75C12.8481 8.75 13.0684 8.84444 13.2573 9.03333L16.5629 12.3389C16.7518 12.5278 16.8462 12.7481 16.8462 13C16.8462 13.2519 16.7518 13.4722 16.5629 13.6611L13.2573 16.9667C13.0684 17.1556 12.8481 17.25 12.5962 17.25C12.3443 17.25 12.124 17.1556 11.9351 16.9667C11.7462 16.7778 11.6518 16.5574 11.6518 16.3056C11.6518 16.0537 11.7462 15.8333 11.9351 15.6444Z" fill="#231F20"/>
</svg>
