<svg width="24" height="24" viewBox="0 0 24 24" fill="none" xmlns="http://www.w3.org/2000/svg">
<path fill-rule="evenodd" clip-rule="evenodd" d="M10.58 3.59L11.99 5H2C2 3.9 2.89 3 3.99 3H9.16C9.69 3 10.2 3.21 10.58 3.59ZM2 6H20C21.1046 6 22 6.89543 22 8V18C22 19.1046 21.1046 20 20 20H4C2.89543 20 2 19.1046 2 18V6ZM11 13C11 13.55 11.45 14 12 14C12.55 14 13 13.55 13 13V9C13 8.45 12.55 8 12 8C11.45 8 11 8.45 11 9V13ZM12 18C12.5523 18 13 17.5523 13 17C13 16.4477 12.5523 16 12 16C11.4477 16 11 16.4477 11 17C11 17.5523 11.4477 18 12 18Z" fill="black"/>
</svg>
