<svg width="24" height="24" viewBox="0 0 24 24" fill="none" xmlns="http://www.w3.org/2000/svg">
<path fill-rule="evenodd" clip-rule="evenodd" d="M6.87868 2.87862C6.03459 3.72272 5.79864 4.94467 6.17085 6H4C2.89543 6 2 6.89543 2 8V9H22V8C22 6.89543 21.1046 6 20 6H17.8289C18.2012 4.9446 17.9653 3.72249 17.1212 2.87831C15.9496 1.70674 14.0501 1.70674 12.8785 2.87831C12.6696 3.08728 12.3389 3.41713 11.9999 3.75505C11.6609 3.41726 11.3302 3.08754 11.1213 2.87862C9.94975 1.70705 8.05025 1.70705 6.87868 2.87862ZM16 4.99961C16 5.55189 15.5523 5.99961 15 5.99961C14.4477 5.99961 13.5 4.99961 13.5 4.99961C13.5 4.99961 14.4477 3.99961 15 3.99961C15.5523 3.99961 16 4.44732 16 4.99961ZM10.4998 4.99997C10.4998 4.99997 9.55207 5.99997 8.99978 5.99997C8.4475 5.99997 7.99978 5.55225 7.99978 4.99997C7.99978 4.44768 8.4475 3.99997 8.99978 3.99997C9.55207 3.99997 10.4998 4.99997 10.4998 4.99997ZM3 11H10V22H5C3.89543 22 3 21.1046 3 20V11ZM19 22H14V11H21V20C21 21.1046 20.1046 22 19 22Z" fill="#C4C4C4"/>
</svg>
