<svg width="24" height="24" viewBox="0 0 24 24" fill="none" xmlns="http://www.w3.org/2000/svg">
<path d="M11.2157 10.9185C11.07 11.0594 10.8857 11.1298 10.6629 11.1298H6.11143C5.88857 11.1298 5.70428 11.0594 5.55857 10.9185C5.41286 10.7776 5.34 10.5994 5.34 10.384C5.34 10.1685 5.41286 9.99033 5.55857 9.84945C5.70428 9.70856 5.88857 9.63812 6.11143 9.63812H8.76L3.23143 4.29282C3.07714 4.14365 3 3.96547 3 3.75829C3 3.5511 3.07714 3.37293 3.23143 3.22376C3.38571 3.07459 3.57 3 3.78428 3C3.99857 3 4.18286 3.07459 4.33714 3.22376L9.89143 8.59392V5.98342C9.89143 5.76796 9.96428 5.58978 10.11 5.44889C10.2557 5.30801 10.44 5.23757 10.6629 5.23757C10.8857 5.23757 11.07 5.30801 11.2157 5.44889C11.3614 5.58978 11.4343 5.76796 11.4343 5.98342V10.384C11.4343 10.5994 11.3614 10.7776 11.2157 10.9185Z" fill="black"/>
<path fill-rule="evenodd" clip-rule="evenodd" d="M13.2857 6.58009C13.2857 6.03085 13.7462 5.58561 14.3143 5.58561H18.9429C20.079 5.58561 21 6.47609 21 7.57456V17.0221C21 18.1205 20.079 19.011 18.9429 19.011H8.56891L6.81303 20.7087C6.51886 20.9931 6.07645 21.0782 5.6921 20.9243C5.30775 20.7703 5.05714 20.4077 5.05714 20.0055V14.0386C5.05714 13.4894 5.51765 13.0442 6.08572 13.0442C6.65378 13.0442 7.11429 13.4894 7.11429 14.0386V17.6046C7.50008 17.2316 8.02332 17.0221 8.56891 17.0221H18.9429V7.57456H14.3143C13.7462 7.57456 13.2857 7.12932 13.2857 6.58009Z" fill="black"/>
</svg>
