<svg width="24" height="24" viewBox="0 0 24 24" fill="none" xmlns="http://www.w3.org/2000/svg">
<path d="M3 16H8.175L7.3 16.875C7.1 17.075 7.00417 17.3084 7.0125 17.575C7.02083 17.8417 7.11667 18.075 7.3 18.275C7.5 18.475 7.73333 18.5792 8 18.5875C8.26667 18.5959 8.5 18.5 8.7 18.3L11.3 15.7C11.5 15.5 11.6 15.2667 11.6 15C11.6 14.7334 11.5 14.5 11.3 14.3L8.7 11.7C8.51667 11.5167 8.28333 11.425 8 11.425C7.71667 11.425 7.48333 11.5167 7.3 11.7C7.1 11.9 7 12.1375 7 12.4125C7 12.6875 7.09167 12.9167 7.275 13.1L8.175 14H3C2.71667 14 2.47917 14.0959 2.2875 14.2875C2.09583 14.4792 2 14.7167 2 15C2 15.2834 2.09583 15.5209 2.2875 15.7125C2.47917 15.9042 2.71667 16 3 16Z" fill="black"/>
<path d="M6 8C6 7.44772 6.44772 7 7 7H17C17.5523 7 18 7.44772 18 8C18 8.55228 17.5523 9 17 9H7C6.44772 9 6 8.55228 6 8Z" fill="black"/>
<path d="M13 11C13 10.4477 13.4477 10 14 10H17C17.5523 10 18 10.4477 18 11C18 11.5523 17.5523 12 17 12H14C13.4477 12 13 11.5523 13 11Z" fill="black"/>
<path fill-rule="evenodd" clip-rule="evenodd" d="M2 5C2 3.89543 2.89543 3 4 3H20C21.1046 3 22 3.89543 22 5V20C22 20.3688 21.797 20.7077 21.4719 20.8817C21.1467 21.0557 20.7522 21.0366 20.4453 20.8321L17.6972 19H13C12.4477 19 12 18.5523 12 18C12 17.4477 12.4477 17 13 17H17.6972C18.0921 17 18.4781 17.1169 18.8066 17.3359L20 18.1315V5H4V11.5C4 12.0523 3.55228 12.5 3 12.5C2.44772 12.5 2 12.0523 2 11.5V5Z" fill="black"/>
</svg>
