<svg width="24" height="24" viewBox="0 0 24 24" fill="none" xmlns="http://www.w3.org/2000/svg">
<path fill-rule="evenodd" clip-rule="evenodd" d="M3 5C3 3.89543 3.89543 3 5 3H19C20.1046 3 21 3.89543 21 5V19C21 20.1046 20.1046 21 19 21H5C3.89543 21 3 20.1046 3 19V5ZM8.75 10C9.16421 10 9.5 9.66421 9.5 9.25C9.5 8.83579 9.16421 8.5 8.75 8.5C8.33579 8.5 8 8.83579 8 9.25C8 9.66421 8.33579 10 8.75 10ZM8 11.75C8 11.3358 8.33579 11 8.75 11C9.16421 11 9.5 11.3358 9.5 11.75V14.75C9.5 15.1642 9.16421 15.5 8.75 15.5C8.33579 15.5 8 15.1642 8 14.75V11.75ZM14.5 7.75C14.5 7.33579 14.8358 7 15.25 7C15.6642 7 16 7.33579 16 7.75V10.5V11V15C16 15.28 15.78 15.5 15.5 15.5H13C12 15.5 11.5 14.75 11.5 14V11.5C11.5 10.75 12 10 13 10H14.5V7.75ZM13.5 11.5H14.5V14H13.5C13.2239 14 13 13.7761 13 13.5V12C13 11.7239 13.2239 11.5 13.5 11.5Z" fill="black"/>
</svg>
