<svg width="24" height="24" viewBox="0 0 24 24" fill="none" xmlns="http://www.w3.org/2000/svg">
<path fill-rule="evenodd" clip-rule="evenodd" d="M7.3188 10.7409C6.89373 11.1284 6.89373 11.7544 7.3188 12.142L11.2316 15.7093C11.6567 16.0969 12.3433 16.0969 12.7684 15.7093L16.6812 12.142C17.1063 11.7544 17.1063 11.1284 16.6812 10.7409C16.2561 10.3533 15.5695 10.3533 15.1444 10.7409L13.0845 12.609L13.0845 3.99369C13.0845 3.44716 12.594 3 11.9945 3C11.3951 3 10.9046 3.44716 10.9046 3.99369L10.9046 12.609L8.85559 10.7409C8.43052 10.3533 7.73297 10.3633 7.3188 10.7409ZM4.5 19H5H6H6.5H17.5H18L19 19H19.5C19.7761 19 20 18.7761 20 18.5V18V17V16C20 15.4477 20.4477 15 21 15C21.5523 15 22 15.4477 22 16V19C22 20.1046 21.1046 21 20 21L4 21C2.89543 21 2 20.1046 2 19L2 16C2 15.4477 2.44772 15 3 15C3.55228 15 4 15.4477 4 16V17V18L4 18.5C4 18.7761 4.22386 19 4.5 19Z" fill="black"/>
</svg>
