<svg width="24" height="24" viewBox="0 0 24 24" fill="none" xmlns="http://www.w3.org/2000/svg">
<path d="M19.23 15.26L16.69 14.97C16.08 14.9 15.48 15.11 15.05 15.54L13.21 17.38C10.38 15.94 8.06004 13.63 6.62004 10.79L8.47004 8.94001C8.90004 8.51001 9.11004 7.91001 9.04004 7.30001L8.75004 4.78001C8.63004 3.77001 7.78004 3.01001 6.76004 3.01001H5.03004C3.90004 3.01001 2.96004 3.95001 3.03004 5.08001C3.56004 13.62 10.39 20.44 18.92 20.97C20.05 21.04 20.99 20.1 20.99 18.97V17.24C21 16.23 20.24 15.38 19.23 15.26Z" fill="black"/>
<path d="M13.0626 10.8625C13.2043 11.0042 13.3834 11.075 13.6001 11.075H18.0251C18.2418 11.075 18.4209 11.0042 18.5626 10.8625C18.7043 10.7209 18.7751 10.5417 18.7751 10.325C18.7751 10.1084 18.7043 9.92919 18.5626 9.78752C18.4209 9.64586 18.2418 9.57502 18.0251 9.57502H15.4501L20.8251 4.20002C20.9751 4.05002 21.0501 3.87086 21.0501 3.66252C21.0501 3.45419 20.9751 3.27502 20.8251 3.12502C20.6751 2.97502 20.4959 2.90002 20.2876 2.90002C20.0793 2.90002 19.9001 2.97502 19.7501 3.12502L14.3501 8.52502V5.90002C14.3501 5.68336 14.2793 5.50419 14.1376 5.36252C13.9959 5.22086 13.8168 5.15002 13.6001 5.15002C13.3834 5.15002 13.2043 5.22086 13.0626 5.36252C12.9209 5.50419 12.8501 5.68336 12.8501 5.90002V10.325C12.8501 10.5417 12.9209 10.7209 13.0626 10.8625Z" fill="black"/>
</svg>
