<svg width="24" height="24" viewBox="0 0 24 24" fill="none" xmlns="http://www.w3.org/2000/svg">
    <mask id="path-1-inside-1" fill="white">
        <path d="M16.6924 11.0355C16.3019 10.645 16.3019 10.0118 16.6924 9.62132L17.753 8.56066C18.3388 7.97487 18.3388 7.02513 17.753 6.43934C17.1673 5.85355 16.2175 5.85355 15.6317 6.43934L11.3891 10.682C10.8033 11.2678 10.8033 12.2175 11.3891 12.8033C11.5131 12.9273 11.6533 13.025 11.803 13.0965L10.3535 14.546C10.2215 14.447 10.0949 14.3376 9.97487 14.2175C8.60804 12.8507 8.60804 10.6346 9.97487 9.26777L14.2175 5.02513C15.5843 3.65829 17.8004 3.65829 19.1673 5.02513C20.5341 6.39196 20.5341 8.60804 19.1673 9.97487L18.1066 11.0355C17.7161 11.4261 17.0829 11.4261 16.6924 11.0355Z"/>
        <path d="M7.5 13.1569C7.10948 12.7663 6.47631 12.7663 6.08579 13.1569L5.02513 14.2175C3.65829 15.5843 3.65829 17.8004 5.02513 19.1673C6.39196 20.5341 8.60804 20.5341 9.97487 19.1673L14.2175 14.9246C15.5843 13.5578 15.5843 11.3417 14.2175 9.97487C14.0975 9.85483 13.9709 9.74534 13.8389 9.64638L12.3894 11.0959C12.5391 11.1674 12.6793 11.2651 12.8033 11.3891C13.3891 11.9749 13.3891 12.9246 12.8033 13.5104L8.56066 17.753C7.97487 18.3388 7.02513 18.3388 6.43934 17.753C5.85355 17.1673 5.85355 16.2175 6.43934 15.6317L7.5 14.5711C7.89052 14.1805 7.89052 13.5474 7.5 13.1569Z"/>
    </mask>
    <path d="M16.6924 11.0355C16.3019 10.645 16.3019 10.0118 16.6924 9.62132L17.753 8.56066C18.3388 7.97487 18.3388 7.02513 17.753 6.43934C17.1673 5.85355 16.2175 5.85355 15.6317 6.43934L11.3891 10.682C10.8033 11.2678 10.8033 12.2175 11.3891 12.8033C11.5131 12.9273 11.6533 13.025 11.803 13.0965L10.3535 14.546C10.2215 14.447 10.0949 14.3376 9.97487 14.2175C8.60804 12.8507 8.60804 10.6346 9.97487 9.26777L14.2175 5.02513C15.5843 3.65829 17.8004 3.65829 19.1673 5.02513C20.5341 6.39196 20.5341 8.60804 19.1673 9.97487L18.1066 11.0355C17.7161 11.4261 17.0829 11.4261 16.6924 11.0355Z" fill="#231F20"/>
    <path d="M7.5 13.1569C7.10948 12.7663 6.47631 12.7663 6.08579 13.1569L5.02513 14.2175C3.65829 15.5843 3.65829 17.8004 5.02513 19.1673C6.39196 20.5341 8.60804 20.5341 9.97487 19.1673L14.2175 14.9246C15.5843 13.5578 15.5843 11.3417 14.2175 9.97487C14.0975 9.85483 13.9709 9.74534 13.8389 9.64638L12.3894 11.0959C12.5391 11.1674 12.6793 11.2651 12.8033 11.3891C13.3891 11.9749 13.3891 12.9246 12.8033 13.5104L8.56066 17.753C7.97487 18.3388 7.02513 18.3388 6.43934 17.753C5.85355 17.1673 5.85355 16.2175 6.43934 15.6317L7.5 14.5711C7.89052 14.1805 7.89052 13.5474 7.5 13.1569Z" fill="#231F20"/>
    <path d="M17.753 8.56066L19.1673 9.97487L17.753 8.56066ZM15.6317 6.43934L14.2175 5.02513L15.6317 6.43934ZM11.3891 10.682L12.8033 12.0962L11.3891 10.682ZM11.803 13.0965L13.2172 14.5107L15.217 12.5109L12.6651 11.2918L11.803 13.0965ZM10.3535 14.546L9.15377 16.1462L10.5414 17.1865L11.7677 15.9602L10.3535 14.546ZM9.97487 9.26777L11.3891 10.682L9.97487 9.26777ZM14.2175 5.02513L12.8033 3.61091L14.2175 5.02513ZM19.1673 9.97487L17.753 8.56066L17.753 8.56066L19.1673 9.97487ZM18.1066 11.0355L19.5208 12.4497H19.5208L18.1066 11.0355ZM16.6924 9.62132L15.2782 8.20711L16.6924 9.62132ZM5.02513 14.2175L6.43934 15.6317L5.02513 14.2175ZM13.8389 9.64638L15.0386 8.04617L13.651 7.00585L12.4247 8.23217L13.8389 9.64638ZM12.3894 11.0959L10.9752 9.68167L8.97538 11.6815L11.5273 12.9005L12.3894 11.0959ZM12.8033 13.5104L14.2175 14.9246L12.8033 13.5104ZM8.56066 17.753L7.14645 16.3388H7.14645L8.56066 17.753ZM6.43934 15.6317L5.02513 14.2175L5.02513 14.2175L6.43934 15.6317ZM7.5 14.5711L8.91421 15.9853L8.91421 15.9853L7.5 14.5711ZM6.08579 13.1569L4.67157 11.7426L4.67157 11.7426L6.08579 13.1569ZM18.1066 11.0355L19.1673 9.97487L16.3388 7.14645L15.2782 8.20711L18.1066 11.0355ZM19.1673 9.97487C20.5341 8.60804 20.5341 6.39196 19.1673 5.02513L16.3388 7.85355C16.1436 7.65829 16.1436 7.34171 16.3388 7.14645L19.1673 9.97487ZM19.1673 5.02513C17.8004 3.65829 15.5843 3.65829 14.2175 5.02513L17.0459 7.85355C16.8507 8.04882 16.5341 8.04882 16.3388 7.85355L19.1673 5.02513ZM14.2175 5.02513L9.97487 9.26777L12.8033 12.0962L17.0459 7.85355L14.2175 5.02513ZM9.97487 9.26777C8.60804 10.6346 8.60804 12.8507 9.97487 14.2175L12.8033 11.3891C12.9986 11.5843 12.9986 11.9009 12.8033 12.0962L9.97487 9.26777ZM9.97487 14.2175C10.2616 14.5042 10.5892 14.7332 10.9409 14.9012L12.6651 11.2918C12.7174 11.3168 12.7645 11.3503 12.8033 11.3891L9.97487 14.2175ZM11.7677 15.9602L13.2172 14.5107L10.3888 11.6823L8.93928 13.1318L11.7677 15.9602ZM8.56066 15.6317C8.74791 15.819 8.9462 15.9906 9.15377 16.1462L11.5532 12.9458C11.4968 12.9035 11.4419 12.8561 11.3891 12.8033L8.56066 15.6317ZM8.56066 7.85355C6.41278 10.0014 6.41278 13.4838 8.56066 15.6317L11.3891 12.8033C10.8033 12.2175 10.8033 11.2678 11.3891 10.682L8.56066 7.85355ZM12.8033 3.61091L8.56066 7.85355L11.3891 10.682L15.6317 6.43934L12.8033 3.61091ZM20.5815 3.61091C18.4336 1.46303 14.9512 1.46303 12.8033 3.61091L15.6317 6.43934C16.2175 5.85355 17.1673 5.85355 17.753 6.43934L20.5815 3.61091ZM20.5815 11.3891C22.7294 9.2412 22.7294 5.7588 20.5815 3.61091L17.753 6.43934C18.3388 7.02513 18.3388 7.97487 17.753 8.56066L20.5815 11.3891ZM19.5208 12.4497L20.5815 11.3891L17.753 8.56066L16.6924 9.62132L19.5208 12.4497ZM16.6924 9.62132C17.0829 9.2308 17.7161 9.2308 18.1066 9.62132L15.2782 12.4497C16.4497 13.6213 18.3492 13.6213 19.5208 12.4497L16.6924 9.62132ZM15.2782 8.20711C14.1066 9.37868 14.1066 11.2782 15.2782 12.4497L18.1066 9.62132C18.4971 10.0118 18.4971 10.645 18.1066 11.0355L15.2782 8.20711ZM4.67157 11.7426L3.61091 12.8033L6.43934 15.6317L7.5 14.5711L4.67157 11.7426ZM3.61091 12.8033C1.46303 14.9512 1.46303 18.4336 3.61091 20.5815L6.43934 17.753C5.85355 17.1673 5.85355 16.2175 6.43934 15.6317L3.61091 12.8033ZM3.61091 20.5815C5.7588 22.7294 9.2412 22.7294 11.3891 20.5815L8.56066 17.753C7.97487 18.3388 7.02513 18.3388 6.43934 17.753L3.61091 20.5815ZM11.3891 20.5815L15.6317 16.3388L12.8033 13.5104L8.56066 17.753L11.3891 20.5815ZM15.6317 16.3388C17.7796 14.191 17.7796 10.7085 15.6317 8.56066L12.8033 11.3891C13.3891 11.9749 13.3891 12.9246 12.8033 13.5104L15.6317 16.3388ZM15.6317 8.56066C15.4445 8.37341 15.2462 8.20179 15.0386 8.04617L12.6392 11.2466C12.6956 11.2889 12.7505 11.3363 12.8033 11.3891L15.6317 8.56066ZM12.4247 8.23217L10.9752 9.68167L13.8036 12.5101L15.2531 11.0606L12.4247 8.23217ZM14.2175 9.97487C13.9308 9.68814 13.6032 9.45923 13.2515 9.29123L11.5273 12.9005C11.475 12.8755 11.4279 12.8421 11.3891 12.8033L14.2175 9.97487ZM14.2175 14.9246C15.5843 13.5578 15.5843 11.3417 14.2175 9.97487L11.3891 12.8033C11.1938 12.608 11.1938 12.2915 11.3891 12.0962L14.2175 14.9246ZM9.97487 19.1673L14.2175 14.9246L11.3891 12.0962L7.14645 16.3388L9.97487 19.1673ZM5.02513 19.1673C6.39196 20.5341 8.60804 20.5341 9.97487 19.1673L7.14645 16.3388C7.34171 16.1436 7.65829 16.1436 7.85355 16.3388L5.02513 19.1673ZM5.02513 14.2175C3.65829 15.5843 3.65829 17.8004 5.02513 19.1673L7.85355 16.3388C8.04882 16.5341 8.04882 16.8507 7.85355 17.0459L5.02513 14.2175ZM6.08579 13.1569L5.02513 14.2175L7.85355 17.0459L8.91421 15.9853L6.08579 13.1569ZM8.91421 15.9853C10.0858 14.8137 10.0858 12.9142 8.91421 11.7426L6.08579 14.5711C5.69526 14.1805 5.69526 13.5474 6.08579 13.1569L8.91421 15.9853ZM7.5 14.5711C7.10948 14.9616 6.47631 14.9616 6.08579 14.5711L8.91421 11.7426C7.74264 10.5711 5.84315 10.5711 4.67157 11.7426L7.5 14.5711Z" fill="#231F20" mask="url(#path-1-inside-1)"/>
</svg>
