<svg width="24" height="24" viewBox="0 0 24 24" fill="none" xmlns="http://www.w3.org/2000/svg">
<path d="M10.05 13.95L3.65 11.35C3.46667 11.2667 3.31267 11.1417 3.188 10.975C3.06267 10.8084 3 10.6167 3 10.4C3 10.1834 3.05833 9.99169 3.175 9.82502C3.29167 9.65836 3.45 9.53336 3.65 9.45002L18.95 3.77502C19.15 3.69169 19.3417 3.67502 19.525 3.72502C19.7083 3.77502 19.8667 3.86669 20 4.00002C20.1333 4.13336 20.225 4.29169 20.275 4.47502C20.325 4.65836 20.3083 4.85002 20.225 5.05002L14.55 20.35C14.4667 20.5667 14.3377 20.729 14.163 20.837C13.9877 20.9457 13.8083 21 13.625 21C13.4417 21 13.2583 20.9457 13.075 20.837C12.8917 20.729 12.75 20.5667 12.65 20.35L10.05 13.95Z" fill="#91B1B8"/>
</svg>
