<svg width="24" height="24" viewBox="0 0 24 24" fill="none" xmlns="http://www.w3.org/2000/svg">
<path d="M11.8977 2.13556C9.66603 2.13591 7.5004 2.89262 5.7542 4.28221C4.008 5.67179 2.78433 7.61219 2.28288 9.78675H7.36111C7.77581 8.93799 8.42051 8.22272 9.2218 7.72241C10.0231 7.22209 10.9488 6.95683 11.8934 6.95683C12.8381 6.95683 13.7638 7.22209 14.5651 7.72241C15.3663 8.22272 16.011 8.93799 16.4257 9.78675H10.5011V13.9848H16.5315C16.1433 14.8921 15.4973 15.6656 14.6735 16.2091C13.8498 16.7527 12.8846 17.0424 11.8977 17.0424C10.9107 17.0424 9.94552 16.7527 9.12177 16.2091C8.29801 15.6656 7.65197 14.8921 7.26377 13.9848H2.23633C2.61178 15.8126 3.49799 17.4965 4.79209 18.841C6.08618 20.1854 7.73506 21.1352 9.5473 21.58C11.3595 22.0249 13.2608 21.9466 15.0303 21.3543C16.7999 20.762 18.3651 19.6799 19.5443 18.2336C20.7235 16.7874 21.4683 15.0363 21.6922 13.1838C21.9162 11.3312 21.61 9.45313 20.8094 7.76757C20.0087 6.08202 18.7464 4.65813 17.169 3.66123C15.5915 2.66433 13.7637 2.13529 11.8977 2.13556Z" fill="black"/>
</svg>
