<svg width="24" height="24" viewBox="0 0 24 24" fill="none" xmlns="http://www.w3.org/2000/svg">
<path fill-rule="evenodd" clip-rule="evenodd" d="M12.0121 12.289C14.6664 12.289 16.8241 10.206 16.8241 7.64519C16.8241 5.08358 14.6664 3 12.0121 3C9.35841 3 7.2002 5.08358 7.2002 7.64519C7.2002 10.206 9.35841 12.289 12.0121 12.289ZM12.0244 5.80005C13.1273 5.80005 14.0244 6.69706 14.0244 7.80019C14.0244 8.90246 13.1273 9.80005 12.0244 9.80005C10.9224 9.80005 10.0244 8.90246 10.0244 7.80019C10.0244 6.69706 10.9224 5.80005 12.0244 5.80005ZM16.7413 14.9633C15.8712 15.4908 14.9266 15.8648 13.9471 16.0802L16.6371 18.6771C17.1881 19.208 17.1881 20.0701 16.6371 20.6015C16.0866 21.1328 15.1943 21.1328 14.6444 20.6015L11.9996 18.0496L9.35711 20.6015C9.08157 20.8669 8.72053 20.9997 8.35948 20.9997C7.99901 20.9997 7.63854 20.8669 7.363 20.6015C6.81251 20.0701 6.81251 19.2085 7.36243 18.6771L10.0527 16.0802C9.07322 15.8648 8.12857 15.4902 7.25849 14.9633C6.60003 14.5625 6.40223 13.7229 6.81711 13.0867C7.23085 12.4497 8.10093 12.258 8.76055 12.6587C10.7305 13.8549 13.2682 13.8552 15.2392 12.6587C15.8989 12.258 16.7686 12.4497 17.1832 13.0867C17.5981 13.7223 17.3998 14.5625 16.7413 14.9633Z" fill="black"/>
</svg>
