<svg width="24" height="24" viewBox="0 0 24 24" fill="none" xmlns="http://www.w3.org/2000/svg">
<path d="M11.8977 2.1355C9.66603 2.13585 7.5004 2.89256 5.7542 4.28214C4.008 5.67173 2.78433 7.61213 2.28288 9.78669H7.36111C7.77581 8.93793 8.42051 8.22266 9.2218 7.72235C10.0231 7.22203 10.9488 6.95677 11.8934 6.95677C12.8381 6.95677 13.7638 7.22203 14.5651 7.72235C15.3663 8.22266 16.011 8.93793 16.4257 9.78669H10.5011V13.9847H16.5315C16.1433 14.8921 15.4973 15.6655 14.6735 16.2091C13.8498 16.7526 12.8846 17.0424 11.8977 17.0424C10.9107 17.0424 9.94552 16.7526 9.12177 16.2091C8.29801 15.6655 7.65197 14.8921 7.26377 13.9847H2.23633C2.61178 15.8126 3.49799 17.4965 4.79209 18.8409C6.08618 20.1853 7.73506 21.1351 9.5473 21.58C11.3595 22.0248 13.2608 21.9466 15.0303 21.3542C16.7999 20.7619 18.3651 19.6798 19.5443 18.2336C20.7235 16.7873 21.4683 15.0363 21.6922 13.1837C21.9162 11.3311 21.61 9.45307 20.8094 7.76751C20.0087 6.08196 18.7464 4.65807 17.169 3.66117C15.5915 2.66426 13.7637 2.13523 11.8977 2.1355Z" fill="black"/>
</svg>
