<svg width="24" height="24" viewBox="0 0 24 24" fill="none" xmlns="http://www.w3.org/2000/svg">
<path d="M12.4535 16.2928C11.9897 16.2619 11.4549 16.1806 11.033 16.0584C10.954 16.0355 10.6268 15.9153 10.5436 15.8771C9.07501 15.1968 8.05192 13.7118 8.05192 11.9889C8.05192 9.62589 9.97442 7.70109 12.339 7.70109C14.6826 7.70109 16.5921 9.59306 16.6249 11.9294H18.1737C18.1409 8.73946 15.5369 6.15423 12.339 6.15423C9.12197 6.15423 6.50353 8.77114 6.50353 11.9889C6.50353 14.2073 7.7511 16.1367 9.57778 17.1224C9.90762 17.2968 10.381 17.4766 10.5417 17.5259C11.0624 17.6809 11.7015 17.7839 12.2703 17.8271C12.4634 17.8416 13.138 17.8492 13.3346 17.85H24V16.3073H13.3525C13.2109 16.3073 12.5921 16.302 12.4535 16.2928ZM13.3525 13.8706C13.2399 13.8706 12.6509 13.8668 12.5421 13.8576C12.3577 13.842 12.0905 13.8145 11.9187 13.7752C11.7248 13.7232 11.5427 13.6545 11.4606 13.6095C10.8853 13.2983 10.4932 12.6898 10.4932 11.9889C10.4932 10.9693 11.319 10.1424 12.339 10.1424C13.3377 10.1424 14.1496 10.9368 14.1821 11.9294H15.6702C15.6389 10.1161 14.1607 8.65471 12.339 8.65471C10.497 8.65471 9.00401 10.1474 9.00401 11.9889C9.00401 13.2877 9.74843 14.4092 10.8326 14.9586C10.9994 15.0563 11.3132 15.1586 11.4026 15.1819C11.7087 15.2625 12.1199 15.3174 12.4535 15.3419C12.5768 15.3522 13.1808 15.3568 13.3083 15.3575V15.3598H23.9996V13.8706H13.3525ZM5.54915 17.8442H3.99007V7.70453H1.71178V6.14507H5.54915V17.8442ZM0 8.48369V9.98321H1.71178V17.8442H3.20977V8.48369H0Z" fill="black"/>
</svg>
