<svg width="24" height="24" viewBox="0 0 24 24" fill="none" xmlns="http://www.w3.org/2000/svg">
<path d="M18.6845 11.8909C18.6845 11.8909 21.3583 8.07273 21.5722 6.87273C21.6791 6.43636 21.4652 6.21818 21.0374 6.21818H18.7914C18.2567 6.21818 18.0428 6.43636 17.9358 6.76364C17.9358 6.76364 16.6524 9.49091 15.1551 11.1273C14.6203 11.6727 14.4064 11.8909 14.1925 11.8909C13.9786 11.8909 13.8717 11.6727 13.8717 11.2364V6.87273C13.7647 6.21818 13.7647 6 13.2299 6H9.59358C9.27273 6 9.05882 6.21818 9.05882 6.43636C9.05882 6.98182 9.91444 7.09091 9.91444 8.72727V11.8909C9.91444 12.5455 9.91444 12.7636 9.59358 12.7636C8.84492 12.7636 6.91979 10.0364 5.85027 6.87273C5.74332 6.21818 5.42246 6 4.8877 6H2.53476C2.2139 6 2 6.21818 2 6.54545C2 7.2 2.74866 10.0364 5.52941 13.9636C7.45455 16.5818 9.91444 18 12.1604 18C13.5508 18 13.8717 17.7818 13.8717 17.1273V15.1636C13.8717 14.6182 14.0856 14.4 14.2995 14.4C14.6203 14.4 15.1551 14.5091 16.4385 15.8182C17.9358 17.3455 18.0428 18 18.8984 18H21.4652C21.6791 18 22 17.8909 22 17.4545C22 16.9091 21.2513 15.8182 20.0749 14.5091C19.6471 13.8545 18.7914 13.2 18.5775 12.8727C18.3636 12.5455 18.4706 12.3273 18.6845 11.8909Z" fill="black"/>
</svg>
