<svg width="24" height="24" viewBox="0 0 24 24" fill="none" xmlns="http://www.w3.org/2000/svg">
<path fill-rule="evenodd" clip-rule="evenodd" d="M12.004 2.1873C12.9362 2.1873 13.8205 2.39257 14.6151 2.76062L15.6657 0.941252C15.7233 0.841408 15.8519 0.805924 15.9508 0.864939C16.0516 0.922033 16.0856 1.05024 16.0281 1.14956L14.9886 2.94916C16.7436 3.91043 17.9911 5.69306 18.2257 7.78408H5.78174C6.01464 5.71445 7.23998 3.94691 8.96665 2.97888L8.03453 1.16216C7.98175 1.05898 8.02394 0.934155 8.12622 0.880905C8.22845 0.828077 8.35469 0.868905 8.40747 0.971655L9.33809 2.78674C10.1469 2.40226 11.0505 2.18726 12.004 2.18726V2.1873ZM21.3723 15.2151C21.3723 15.9452 20.7809 16.5379 20.0494 16.5379C19.3179 16.5379 18.7251 15.9456 18.7251 15.2151V9.42578C18.7251 8.69425 19.3174 8.10339 20.0494 8.10339C20.7805 8.10339 21.3723 8.6943 21.3723 9.42578V15.2151ZM3.9508 16.5379C4.67994 16.5379 5.27319 15.9452 5.27319 15.2151V9.42578C5.27319 8.6943 4.67994 8.10339 3.9508 8.10339C3.21828 8.10339 2.62695 8.69425 2.62695 9.42578V15.2151C2.62695 15.9456 3.2188 16.5379 3.9508 16.5379ZM11.0344 21.8404C11.0344 22.5705 10.4421 23.1633 9.70959 23.1633C8.97951 23.1633 8.38818 22.571 8.38818 21.8404V18.6691H6.74997C6.24836 18.6691 5.84229 18.2621 5.84229 17.7605V8.37316C8.59652 8.36308 15.0218 8.36308 18.1644 8.37316V17.7605C18.1644 18.2621 17.7597 18.6691 17.2572 18.6691H15.6232V21.8404C15.6232 22.5705 15.0309 23.1633 14.2989 23.1633C13.5689 23.1633 12.9761 22.571 12.9761 21.8404V18.6691H11.0344V21.8404ZM9.19644 5.5804C8.90938 5.5804 8.67754 5.34954 8.67754 5.06346C8.67754 4.77837 8.90938 4.54746 9.19644 4.54746C9.4806 4.54746 9.71244 4.77832 9.71244 5.06346C9.71244 5.34954 9.4806 5.5804 9.19644 5.5804ZM14.8225 5.5804C14.5364 5.5804 14.3046 5.34954 14.3046 5.06346C14.3046 4.77837 14.5364 4.54746 14.8225 4.54746C15.1095 4.54746 15.3395 4.77832 15.3395 5.06346C15.3395 5.34954 15.1096 5.5804 14.8225 5.5804Z" fill="black"/>
</svg>
