<svg width="24" height="24" viewBox="0 0 24 24" fill="none" xmlns="http://www.w3.org/2000/svg">
<path d="M20.8116 18.6642C20.1665 18.4 19.8905 18.0493 19.9172 17.5261C19.9447 16.9155 19.5982 16.4682 19.4337 16.2915C19.5331 15.9118 19.8236 14.5983 19.434 13.4573C19.0154 12.2362 17.7372 10.3711 16.4183 8.53768C15.8784 7.78477 15.8529 6.96637 15.8234 6.0187C15.7951 5.11482 15.7632 4.09026 15.2592 2.9513C14.7111 1.71115 13.6114 1 12.2418 1C11.4271 1 10.5908 1.25462 9.94725 1.69852C8.62941 2.60803 8.80361 4.591 8.91887 5.90315C8.93467 6.08283 8.94953 6.25255 8.95818 6.39746C9.03493 7.68256 8.96511 8.35988 8.87379 8.56574C8.81471 8.70027 8.52388 9.08314 8.21609 9.48852C7.89778 9.90775 7.5369 10.383 7.24109 10.8258C6.88815 11.3586 6.60323 12.173 6.32769 12.9606C6.12608 13.537 5.93565 14.0814 5.75027 14.4067C5.39892 15.0325 5.48634 15.616 5.55934 15.8857C5.42633 15.9781 5.23417 16.16 5.07195 16.503C4.87589 16.9213 4.47809 17.1462 3.65088 17.3052C3.27075 17.383 3.00862 17.5428 2.87157 17.7803C2.67213 18.1259 2.78076 18.5601 2.87987 18.8568C3.0263 19.2931 2.93505 19.5692 2.76915 20.0705C2.73092 20.1862 2.68757 20.3172 2.64364 20.4617C2.57446 20.6897 2.59942 20.897 2.71764 21.0778C3.03005 21.5554 3.94165 21.7238 4.88008 21.8346C5.4404 21.9011 6.05366 22.1253 6.6468 22.3421C7.22796 22.5544 7.82889 22.7741 8.37514 22.8407C8.45817 22.8512 8.5404 22.8565 8.61967 22.8565C9.44442 22.8565 9.81705 22.3092 9.93521 22.0844C10.2315 22.0239 11.2532 21.8303 12.3062 21.8043C13.3576 21.7743 14.3749 21.9819 14.6631 22.0465C14.7537 22.2199 14.9925 22.616 15.3732 22.82C15.5825 22.9344 15.8737 23 16.1719 23C16.4905 23 17.0965 22.9247 17.5761 22.4201C18.0545 21.9132 19.2497 21.266 20.1225 20.7935C20.3173 20.688 20.4995 20.5894 20.6592 20.5003C21.1495 20.2285 21.417 19.8401 21.3932 19.4348C21.3733 19.0982 21.1504 18.8029 20.8116 18.6642ZM9.958 18.5666C9.89698 18.1367 9.34394 17.7103 8.70349 17.2166C8.17981 16.8129 7.58624 16.3554 7.42272 15.9679C7.08478 15.1685 7.35116 13.763 7.81562 13.0392C8.04514 12.6768 8.23261 12.1272 8.41395 11.5958C8.60971 11.0219 8.81219 10.4285 9.03861 10.1688C9.39718 9.76327 9.72855 8.97422 9.78726 8.35238C10.123 8.67293 10.6439 9.07968 11.1251 9.07968C11.1992 9.07968 11.2711 9.07001 11.3398 9.05061C11.669 8.95554 12.1533 8.67574 12.6215 8.40525C13.0253 8.17198 13.5231 7.88431 13.7104 7.85813C14.0316 8.31934 15.898 12.4497 16.0888 13.7761C16.2397 14.8256 16.0802 15.6932 16.0001 16.033C15.9356 16.0242 15.8587 16.0171 15.7779 16.0171C15.2581 16.0171 15.1205 16.3008 15.0846 16.4703C14.9924 16.9105 14.9827 18.3182 14.9817 18.6344C14.7937 18.8733 13.8431 19.998 12.4783 20.2001C11.9224 20.2809 11.4032 20.3219 10.9354 20.3219C10.5355 20.3219 10.2803 20.291 10.1743 20.2749L9.48849 19.4902C9.75892 19.3567 10.0293 19.075 9.958 18.5666ZM10.8283 5.62717C10.8068 5.6364 10.7858 5.64629 10.7651 5.65682C10.763 5.61036 10.7582 5.56326 10.7507 5.51602C10.6759 5.08503 10.3901 4.7722 10.0713 4.7722C10.0477 4.7722 10.024 4.774 9.99796 4.77797C9.80833 4.80956 9.65959 4.95202 9.57808 5.15399C9.64956 4.71081 9.90066 4.38268 10.1986 4.38268C10.5484 4.38268 10.8439 4.85414 10.8439 5.41215C10.8439 5.48248 10.8388 5.55244 10.8283 5.62717ZM13.5466 5.95948C13.5786 5.85749 13.596 5.74713 13.596 5.63258C13.596 5.12665 13.275 4.73029 12.8652 4.73029C12.4647 4.73029 12.1389 5.13502 12.1389 5.63258C12.1389 5.66648 12.1406 5.70046 12.1437 5.73436C12.1225 5.72621 12.1018 5.71827 12.0816 5.71063C12.0355 5.57105 12.0122 5.42542 12.0122 5.27676C12.0122 4.67179 12.3989 4.17956 12.8742 4.17956C13.3495 4.17956 13.7362 4.67179 13.7362 5.27676C13.7362 5.52842 13.6667 5.76862 13.5466 5.95948ZM13.1961 7.13696C13.1893 7.16754 13.1747 7.1811 13.0136 7.26492C12.9322 7.30726 12.8309 7.35999 12.7042 7.43717L12.6195 7.48846C12.2792 7.69475 11.4824 8.17796 11.266 8.20631C11.1191 8.22607 11.0282 8.16909 10.8239 8.03024C10.7778 7.99886 10.7287 7.96553 10.6764 7.93199C10.3081 7.69028 10.0711 7.42404 10.0443 7.31996C10.1644 7.22712 10.4621 6.99479 10.6145 6.85723C10.9239 6.56957 11.2352 6.37626 11.3893 6.37626C11.3975 6.37626 11.4048 6.37683 11.4125 6.37828C11.5935 6.41023 12.0401 6.58847 12.3663 6.71859C12.517 6.77875 12.6472 6.83069 12.7388 6.86358C13.0274 6.96269 13.1779 7.0895 13.1961 7.13696ZM15.789 20.5801C15.9518 19.8458 16.1394 18.8467 16.109 18.2578C16.102 18.124 16.0902 17.9783 16.0787 17.8375C16.0573 17.5743 16.0255 17.1829 16.0583 17.0669C16.0648 17.0639 16.072 17.0613 16.08 17.059C16.0814 17.3957 16.1545 18.0674 16.6916 18.3016C16.8517 18.3714 17.0346 18.4067 17.2353 18.4067C17.7733 18.4067 18.3703 18.1428 18.6148 17.8983C18.7588 17.7543 18.8799 17.5782 18.9647 17.4387C18.9833 17.493 18.9946 17.5639 18.9887 17.6554C18.9567 18.152 19.1981 18.8109 19.6574 19.0537L19.7243 19.0888C19.8879 19.1746 20.3224 19.4028 20.3294 19.511C20.3294 19.511 20.3257 19.5238 20.3015 19.5463C20.1926 19.6457 19.8095 19.8414 19.4391 20.0306C18.7819 20.3661 18.037 20.7465 17.7024 21.0983C17.2314 21.594 16.6986 21.927 16.3769 21.927C16.3382 21.927 16.3029 21.9221 16.2715 21.9121C15.9221 21.8032 15.6345 21.2991 15.789 20.5801ZM3.87932 18.7067C3.84369 18.5399 3.81556 18.4082 3.84578 18.2807C3.86771 18.1862 4.33419 18.085 4.53341 18.0417C4.8135 17.9809 5.10318 17.9181 5.2926 17.8031C5.54874 17.648 5.68745 17.3618 5.80978 17.1094C5.89836 16.9268 5.98982 16.738 6.09867 16.6761C6.1048 16.6725 6.11418 16.6683 6.13207 16.6683C6.33598 16.6683 6.76387 17.097 7.01041 17.4806C7.07295 17.5774 7.18879 17.7712 7.32281 17.9956C7.72365 18.6663 8.2725 19.5849 8.55915 19.8927C8.81745 20.1695 9.2356 20.7016 9.13274 21.158C9.05744 21.5121 8.65653 21.8 8.56196 21.8637C8.52763 21.8715 8.48514 21.8755 8.43516 21.8755C7.88652 21.8755 6.80051 21.419 6.21704 21.1738L6.1307 21.1375C5.80488 21.0009 5.27298 20.9148 4.75861 20.8316C4.34933 20.7653 3.78887 20.6746 3.69597 20.5927C3.62066 20.5082 3.70801 20.2336 3.78505 19.9913C3.84052 19.8172 3.89779 19.6372 3.92917 19.4487C3.97367 19.148 3.9213 18.9033 3.87932 18.7067Z" fill="black"/>
</svg>
