<svg width="24" height="24" viewBox="0 0 24 24" fill="none" xmlns="http://www.w3.org/2000/svg">
<path d="M18.6119 10.0537C19.6181 10.0537 20.4338 10.8661 20.4338 11.8683C20.4338 12.8705 19.6181 13.683 18.6119 13.683H15.1106L20.4338 19.8293H15.6733L12.0001 15.5881L8.3269 19.8293H3.56641L8.88965 13.683H5.38832C4.38211 13.683 3.56641 12.8705 3.56641 11.8683C3.56641 10.8661 4.38211 10.0537 5.38832 10.0537H18.6119ZM12.0295 4.17078C13.4252 4.17078 14.5567 5.29771 14.5567 6.68785C14.5567 8.07799 13.4252 9.20492 12.0295 9.20492C10.6338 9.20492 9.50233 8.07799 9.50233 6.68785C9.50233 5.29771 10.6338 4.17078 12.0295 4.17078Z" fill="white"/>
<path d="M2.39086 11.8683C2.39086 10.2195 3.73282 8.88293 5.38821 8.88293V10.0537C4.38199 10.0537 3.56629 10.8661 3.56629 11.8683C3.56629 12.8705 4.38199 13.6829 5.38821 13.6829H8.88953L3.56629 19.8293H8.32678L12 15.5881L15.6732 19.8293H20.4337L15.1105 13.6829H18.6118C19.618 13.6829 20.4337 12.8705 20.4337 11.8683C20.4337 10.8661 19.618 10.0537 18.6118 10.0537V8.88293C20.2672 8.88293 21.6091 10.2195 21.6091 11.8683C21.6091 13.5171 20.2672 14.8537 18.6118 14.8537H17.6768L23 21H15.1348L12 17.3804L8.86517 21H1L6.32324 14.8537H5.38821C3.73282 14.8537 2.39086 13.5171 2.39086 11.8683ZM14.5566 6.6878C14.5566 5.29766 13.4251 4.17073 12.0294 4.17073C10.6337 4.17073 9.50221 5.29766 9.50221 6.6878C9.50221 8.07795 10.6337 9.20488 12.0294 9.20488C13.4251 9.20488 14.5566 8.07795 14.5566 6.6878ZM15.732 6.6878C15.732 7.51016 15.4617 8.26961 15.0048 8.88293H18.6118V10.0537H5.38821V8.88293H9.05394C8.59707 8.26961 8.32678 7.51016 8.32678 6.6878C8.32678 4.65109 9.98449 3 12.0294 3C14.0743 3 15.732 4.65109 15.732 6.6878Z" fill="black"/>
</svg>
