<svg width="24" height="24" viewBox="0 0 24 24" fill="none" xmlns="http://www.w3.org/2000/svg">
<path fill-rule="evenodd" clip-rule="evenodd" d="M11.6609 8.63067L11.6986 9.25351L11.0691 9.17725C8.7776 8.88489 6.77569 7.89343 5.07595 6.22829L4.24497 5.40207L4.03093 6.0122C3.57767 7.37228 3.86725 8.80863 4.81155 9.77467C5.31518 10.3085 5.20186 10.3848 4.33311 10.067C4.03093 9.96533 3.76653 9.88907 3.74135 9.9272C3.65321 10.0162 3.95539 11.1729 4.19461 11.6305C4.52197 12.266 5.18927 12.8889 5.91953 13.2575L6.53647 13.5498L5.80621 13.5626C5.10114 13.5626 5.07595 13.5753 5.1515 13.8422C5.40331 14.6684 6.39797 15.5455 7.50595 15.9268L8.28656 16.1937L7.60667 16.6005C6.59942 17.1852 5.4159 17.5157 4.23238 17.5411C3.6658 17.5538 3.19995 17.6047 3.19995 17.6428C3.19995 17.7699 4.73601 18.4817 5.62994 18.7614C8.31175 19.5876 11.4972 19.2317 13.8894 17.8208C15.5891 16.8166 17.2889 14.8209 18.0821 12.8889C18.5102 11.8593 18.9382 9.97804 18.9382 9.07556C18.9382 8.49085 18.976 8.41459 19.6811 7.71548C20.0966 7.30873 20.4869 6.86384 20.5624 6.73673C20.6883 6.49522 20.6757 6.49522 20.0336 6.71131C18.9634 7.09264 18.8123 7.0418 19.3411 6.4698C19.7314 6.06305 20.1973 5.32581 20.1973 5.10972C20.1973 5.07159 20.0084 5.13514 19.7944 5.24954C19.5678 5.37665 19.0641 5.56732 18.6864 5.68171L18.0065 5.8978L17.3896 5.47834C17.0496 5.24954 16.5712 4.99532 16.3194 4.91905C15.6773 4.7411 14.6952 4.76652 14.116 4.9699C12.5422 5.54189 11.5475 7.01637 11.6609 8.63067Z" fill="black"/>
</svg>
