<svg width="24" height="24" viewBox="0 0 24 24" fill="none" xmlns="http://www.w3.org/2000/svg">
<path fill-rule="evenodd" clip-rule="evenodd" d="M8.04236 2.45803C9.06637 2.41142 9.39357 2.40002 12.0008 2.40002H11.9978C14.6058 2.40002 14.9318 2.41142 15.9558 2.45803C16.9779 2.50483 17.6759 2.66663 18.2879 2.90403C18.9199 3.14903 19.4539 3.47704 19.9879 4.01104C20.5219 4.54465 20.8499 5.08025 21.0959 5.71166C21.3319 6.32207 21.4939 7.01967 21.5419 8.04168C21.5879 9.06569 21.5999 9.3929 21.5999 12.0001C21.5999 14.6074 21.5879 14.9338 21.5419 15.9578C21.4939 16.9794 21.3319 17.6772 21.0959 18.2878C20.8499 18.919 20.5219 19.4546 19.9879 19.9882C19.4545 20.5222 18.9197 20.851 18.2885 21.0962C17.6777 21.3336 16.9793 21.4954 15.9572 21.5422C14.9332 21.5888 14.607 21.6002 11.9996 21.6002C9.39258 21.6002 9.06557 21.5888 8.04156 21.5422C7.01975 21.4954 6.32194 21.3336 5.71114 21.0962C5.08013 20.851 4.54452 20.5222 4.01112 19.9882C3.47731 19.4546 3.14931 18.919 2.90391 18.2876C2.66671 17.6772 2.5049 16.9796 2.4579 15.9576C2.4115 14.9336 2.3999 14.6074 2.3999 12.0001C2.3999 9.3929 2.4119 9.06549 2.4577 8.04148C2.5037 7.01987 2.66571 6.32207 2.90371 5.71146C3.14971 5.08025 3.47771 4.54465 4.01172 4.01104C4.54532 3.47724 5.08093 3.14923 5.71234 2.90403C6.32274 2.66663 7.02035 2.50483 8.04236 2.45803ZM11.6749 4.00234H11.6747H11.6746C11.4774 4.00226 11.2946 4.00217 11.1247 4.00244V4C9.30589 4.00203 8.95701 4.01423 8.05677 4.0549C7.1053 4.09862 6.5887 4.25722 6.2447 4.39141C5.7893 4.56872 5.46401 4.78019 5.12245 5.12178C4.7809 5.46338 4.56905 5.78871 4.39218 6.24418C4.25861 6.58821 4.09962 7.10468 4.05611 8.05627C4.00935 9.08513 4 9.39257 4 11.9989C4 14.6052 4.00935 14.9143 4.05611 15.9431C4.09942 16.8947 4.25861 17.4112 4.39218 17.7548C4.56946 18.2105 4.7809 18.535 5.12245 18.8766C5.46401 19.2182 5.7893 19.4297 6.2447 19.6066C6.5889 19.7401 7.1053 19.8991 8.05677 19.9431C9.0855 19.9898 9.39433 20 12.0001 20C14.6057 20 14.9147 19.9898 15.9434 19.9431C16.8949 19.8996 17.4117 19.741 17.7553 19.6068C18.2109 19.4299 18.5352 19.2184 18.8767 18.8768C19.2183 18.5354 19.4301 18.2111 19.607 17.7556C19.7406 17.412 19.8996 16.8955 19.9431 15.9439C19.9898 14.9151 20 14.606 20 12.0013C20 9.39664 19.9898 9.08757 19.9431 8.05871C19.8998 7.10712 19.7406 6.59065 19.607 6.24702C19.4297 5.79156 19.2183 5.46623 18.8767 5.12463C18.5354 4.78303 18.2107 4.57157 17.7553 4.39467C17.4113 4.26108 16.8949 4.10207 15.9434 4.05856C14.9145 4.01179 14.6057 4.00244 12.0001 4.00244L11.6749 4.00234ZM17.2091 5.62297C16.5626 5.62297 16.0381 6.14695 16.0381 6.79375C16.0381 7.44035 16.5626 7.96494 17.2091 7.96494C17.8556 7.96494 18.3802 7.44035 18.3802 6.79375C18.3802 6.14716 17.8556 5.62256 17.2091 5.62256V5.62297ZM12.0003 6.99146C9.23266 6.99146 6.98877 9.23563 6.98877 12.0036C6.98877 14.7716 9.23266 17.0147 12.0003 17.0147C14.7679 17.0147 17.011 14.7716 17.011 12.0036C17.011 9.2357 14.7678 6.99156 12.0003 6.99146ZM12 9C13.6567 9 15 10.3431 15 12C15 13.6567 13.6567 15 12 15C10.3431 15 9 13.6567 9 12C9 10.3431 10.3431 9 12 9Z" fill="black"/>
</svg>
