<svg width="24" height="24" viewBox="0 0 24 24" fill="none" xmlns="http://www.w3.org/2000/svg">
<path d="M3 5.78882L5.65851 10.5509V13.4556L3.00311 18.2083L3 5.78882Z" fill="black"/>
<path d="M13.2073 8.81769L15.6984 7.2876L20.7966 7.28284L13.2073 11.942V8.81769Z" fill="black"/>
<path d="M13.1934 5.76058L13.2075 12.0654L10.5427 10.4246V1L13.1934 5.76058Z" fill="black"/>
<path d="M20.7966 7.28284L15.6984 7.2876L13.1934 5.76058L10.5427 1L20.7966 7.28284Z" fill="black"/>
<path d="M13.2075 18.2347V15.1758L10.5427 13.5662L10.5442 23.0001L13.2075 18.2347Z" fill="black"/>
<path d="M15.6925 16.7185L5.65851 10.5509L3 5.78882L20.7861 16.7123L15.6925 16.7185Z" fill="black"/>
<path d="M10.5442 23.0001L13.2075 18.2347L15.6925 16.7185L20.7861 16.7123L10.5442 23.0001Z" fill="black"/>
<path d="M3.00311 18.2083L10.5647 13.5663L8.02254 12.0032L5.65851 13.4556L3.00311 18.2083Z" fill="black"/>
</svg>
