<svg width="24" height="24" viewBox="0 0 24 24" fill="none" xmlns="http://www.w3.org/2000/svg">
<path fill-rule="evenodd" clip-rule="evenodd" d="M7.55853 18.8649L7.8855 19.027C9.13891 19.7838 10.6103 20.1622 12.0817 20.1622C13.6076 20.1622 15.1335 19.7297 16.3869 18.9189C20.3106 16.5406 21.455 11.5135 19.0572 7.62164C16.6593 3.72975 11.5912 2.59462 7.66752 4.97299C3.74381 7.35137 2.5994 12.4325 4.99722 16.2703L5.2152 16.5946L4.39776 19.6757L7.55853 18.8649ZM16.2779 13.8919L16.8773 14.1622C16.9863 14.2162 17.0408 14.2703 17.0408 14.2703V14.6487C16.9863 14.9189 16.9318 15.1892 16.8228 15.4054C16.7683 15.5135 16.6593 15.6216 16.5504 15.7298C16.4959 15.7838 16.4414 15.8243 16.3869 15.8649C16.3324 15.9054 16.2779 15.946 16.2234 16L16.1144 16.1081C16.0532 16.1688 15.992 16.1955 15.9211 16.2263C15.8658 16.2503 15.8046 16.2769 15.7329 16.3243C15.5149 16.4325 15.188 16.5406 14.9155 16.5406H14.3705C14.2888 16.5135 14.1934 16.5 14.098 16.4865C14.0027 16.473 13.9073 16.4595 13.8256 16.4325C12.3542 16.0541 11.0463 15.3514 9.90185 14.3784C9.83065 14.2725 9.73618 14.1896 9.63365 14.0996C9.57924 14.0519 9.52256 14.0022 9.46588 13.946L9.2479 13.7298C8.37596 12.9189 7.72201 12 7.23155 10.973L7.17705 10.8108C7.01357 10.4325 6.90457 10 6.90457 9.56759C6.90457 8.97299 7.12256 8.3784 7.50403 7.89191C7.55853 7.83786 7.5994 7.7838 7.64027 7.72975C7.68114 7.6757 7.72201 7.62164 7.77651 7.56759C7.83101 7.54056 7.8855 7.50002 7.94 7.45948C7.99449 7.41894 8.04899 7.3784 8.10348 7.35137L8.15798 7.29732C8.21248 7.29732 8.26697 7.2838 8.32147 7.27029C8.37596 7.25678 8.43046 7.24326 8.48496 7.24326H8.92092H9.08441C9.2479 7.29732 9.35689 7.35137 9.46588 7.51353C9.62937 7.83786 10.2833 9.29732 10.3378 9.56759C10.3923 9.72975 10.3378 9.94597 10.2288 10.1081C10.1743 10.1622 10.1335 10.2298 10.0926 10.2973C10.0517 10.3649 10.0108 10.4325 9.95635 10.4865C9.79286 10.6487 9.57487 10.9189 9.57487 10.9189C9.52038 10.973 9.52038 11.0811 9.52038 11.1892C9.54119 11.2305 9.55406 11.2639 9.56505 11.2924C9.58283 11.3386 9.59569 11.372 9.62937 11.4054L9.68387 11.5135C9.95635 12 10.3378 12.4325 10.7193 12.8108C10.7738 12.8649 10.8419 12.9189 10.91 12.973C10.9781 13.027 11.0463 13.0811 11.1008 13.1352C11.5367 13.5676 12.0817 13.8919 12.6811 14.1622L12.9536 14.2703C13.0081 14.3243 13.1171 14.3784 13.1716 14.3784H13.2261C13.3351 14.3784 13.4441 14.3243 13.4986 14.2162C14.2615 13.3514 14.316 13.2973 14.316 13.2973C14.425 13.2433 14.534 13.1892 14.6975 13.1892C14.7247 13.1892 14.752 13.2027 14.7792 13.2162C14.8065 13.2297 14.8337 13.2433 14.861 13.2433C15.4059 13.5135 16.2779 13.8919 16.2779 13.8919Z" fill="black"/>
</svg>
