<svg width="24" height="24" viewBox="0 0 24 24" fill="none" xmlns="http://www.w3.org/2000/svg">
<path fill-rule="evenodd" clip-rule="evenodd" d="M22 12C22 17.5228 17.5228 22 12 22C6.47715 22 2 17.5228 2 12C2 6.47715 6.47715 2 12 2C17.5228 2 22 6.47715 22 12ZM8.69643 11.084C7.69473 11.5213 6.6655 11.9707 5.72436 12.4891L5.72428 12.4892C5.23281 12.849 5.88611 13.1035 6.49892 13.3423C6.59631 13.3802 6.69269 13.4178 6.78328 13.4553C6.85867 13.4784 6.93535 13.5029 7.01305 13.5276C7.69458 13.7448 8.45454 13.9869 9.11619 13.6227C10.2031 12.9983 11.2288 12.2765 12.2538 11.5552C12.5896 11.3189 12.9253 11.0826 13.263 10.8498C13.2788 10.8397 13.2966 10.8282 13.3161 10.8156C13.6038 10.629 14.2511 10.2094 14.0117 10.7875C13.4458 11.4064 12.8397 11.9542 12.2302 12.505C11.8193 12.8764 11.4068 13.2492 11.0042 13.646C10.6537 13.9309 10.2896 14.5036 10.6822 14.9025C11.5854 15.5348 12.5028 16.1518 13.4196 16.7685C13.7191 16.9699 14.0186 17.1714 14.3175 17.3733C14.8226 17.7765 15.6119 17.4503 15.723 16.8202C15.7729 16.5276 15.8229 16.235 15.873 15.9423C16.1465 14.3431 16.4201 12.7433 16.6618 11.1389C16.6947 10.8869 16.732 10.6349 16.7693 10.3828C16.8598 9.77142 16.9503 9.15928 16.9786 8.5446C16.9057 7.93126 16.162 8.0661 15.7482 8.20401C13.621 9.01343 11.5151 9.88285 9.41753 10.7676C9.17987 10.8729 8.93896 10.9781 8.69643 11.084Z" fill="black"/>
</svg>
