<svg width="24" height="24" viewBox="0 0 24 24" fill="none" xmlns="http://www.w3.org/2000/svg">
<path fill-rule="evenodd" clip-rule="evenodd" d="M15.6501 1.15161H16.2247C16.2031 4.09161 14.7021 6.3006 11.9282 5.95738C12.0271 3.19447 13.6212 1.95036 15.6501 1.15161ZM20.0889 8.57748C20.0889 8.5775 20.0889 8.57751 20.0889 8.57752V8.57747C20.0889 8.57748 20.0889 8.57748 20.0889 8.57748ZM15.5063 6.39352C17.7403 6.2356 19.1082 7.12743 20.0889 8.57748C16.8739 9.79241 17.2661 16.3319 20.6644 17.0212V17.3145C20.5659 17.5152 20.4684 17.7171 20.371 17.919C19.3996 19.9315 18.4285 21.9436 16.3651 22.8484H15.5064C13.8609 21.8994 11.0707 21.657 9.49389 22.8484H8.35004C5.4729 21.1583 4.08906 17.9567 3.33545 14.11V11.7811C3.79051 8.96827 5.83529 6.27882 8.77721 6.39352C9.30964 6.41519 9.81665 6.65094 10.3313 6.89028C10.889 7.14957 11.4556 7.41305 12.0734 7.41305C12.6125 7.41305 13.1844 7.17109 13.7726 6.9222C14.3401 6.68205 14.9229 6.43546 15.5063 6.39352Z" fill="black"/>
</svg>
