<svg width="24" height="24" viewBox="0 0 24 24" fill="none" xmlns="http://www.w3.org/2000/svg">
<path fill-rule="evenodd" clip-rule="evenodd" d="M7.55853 18.8648L7.8855 19.027C9.13891 19.7837 10.6103 20.1621 12.0817 20.1621C13.6076 20.1621 15.1335 19.7297 16.3869 18.9189C20.3106 16.5405 21.455 11.5135 19.0572 7.62158C16.6593 3.72969 11.5912 2.59455 7.66752 4.97293C3.74381 7.35131 2.5994 12.4324 4.99722 16.2702L5.2152 16.5946L4.39776 19.6756L7.55853 18.8648ZM16.2779 13.8919L16.8773 14.1621C16.9863 14.2162 17.0408 14.2702 17.0408 14.2702V14.6486C16.9863 14.9189 16.9318 15.1891 16.8228 15.4054C16.7683 15.5135 16.6593 15.6216 16.5504 15.7297C16.4959 15.7837 16.4414 15.8243 16.3869 15.8648C16.3324 15.9054 16.2779 15.9459 16.2234 16L16.1144 16.1081C16.0532 16.1688 15.992 16.1954 15.9211 16.2262C15.8658 16.2503 15.8046 16.2769 15.7329 16.3243C15.5149 16.4324 15.188 16.5405 14.9155 16.5405H14.3705C14.2888 16.5135 14.1934 16.5 14.098 16.4864C14.0027 16.4729 13.9073 16.4594 13.8256 16.4324C12.3542 16.054 11.0463 15.3513 9.90185 14.3783C9.83065 14.2724 9.73618 14.1895 9.63365 14.0996C9.57924 14.0519 9.52256 14.0021 9.46588 13.9459L9.2479 13.7297C8.37596 12.9189 7.72201 12 7.23155 10.9729L7.17705 10.8108C7.01357 10.4324 6.90457 9.99996 6.90457 9.56753C6.90457 8.97293 7.12256 8.37834 7.50403 7.89185C7.55853 7.8378 7.5994 7.78374 7.64027 7.72969C7.68114 7.67564 7.72201 7.62158 7.77651 7.56753C7.83101 7.5405 7.8855 7.49996 7.94 7.45942C7.99449 7.41888 8.04899 7.37834 8.10348 7.35131L8.15798 7.29726C8.21248 7.29726 8.26697 7.28374 8.32147 7.27023C8.37596 7.25672 8.43046 7.2432 8.48496 7.2432H8.92092H9.08441C9.2479 7.29726 9.35689 7.35131 9.46588 7.51347C9.62937 7.8378 10.2833 9.29726 10.3378 9.56753C10.3923 9.72969 10.3378 9.94591 10.2288 10.1081C10.1743 10.1621 10.1335 10.2297 10.0926 10.2973C10.0517 10.3648 10.0108 10.4324 9.95635 10.4864C9.79286 10.6486 9.57487 10.9189 9.57487 10.9189C9.52038 10.9729 9.52038 11.081 9.52038 11.1891C9.54119 11.2304 9.55406 11.2638 9.56505 11.2924C9.58283 11.3386 9.59569 11.372 9.62937 11.4054L9.68387 11.5135C9.95635 12 10.3378 12.4324 10.7193 12.8108C10.7738 12.8648 10.8419 12.9189 10.91 12.9729C10.9781 13.027 11.0463 13.081 11.1008 13.1351C11.5367 13.5675 12.0817 13.8919 12.6811 14.1621L12.9536 14.2702C13.0081 14.3243 13.1171 14.3783 13.1716 14.3783H13.2261C13.3351 14.3783 13.4441 14.3243 13.4986 14.2162C14.2615 13.3513 14.316 13.2973 14.316 13.2973C14.425 13.2432 14.534 13.1891 14.6975 13.1891C14.7247 13.1891 14.752 13.2027 14.7792 13.2162C14.8065 13.2297 14.8337 13.2432 14.861 13.2432C15.4059 13.5135 16.2779 13.8919 16.2779 13.8919Z" fill="black"/>
</svg>
