<svg width="24" height="24" viewBox="0 0 24 24" fill="none" xmlns="http://www.w3.org/2000/svg">
<path fill-rule="evenodd" clip-rule="evenodd" d="M4.9501 5.57643C4.89317 5.7156 4.86421 5.86462 4.86486 6.01499V8.85499H2.48486V6.01499C2.48486 5.0805 2.85539 4.18414 3.51524 3.52243C4.17508 2.86071 5.07038 2.48763 6.00486 2.48499H8.85486V4.86499H6.00486C5.8545 4.86564 5.70574 4.89591 5.56707 4.95405C5.4284 5.0122 5.30254 5.09709 5.19669 5.20388C5.09083 5.31067 5.00704 5.43726 4.9501 5.57643ZM17.995 4.86999C18.2978 4.87131 18.5878 4.99253 18.8014 5.20711C19.0151 5.4217 19.135 5.71218 19.135 6.01499V8.85499H21.515V6.01499C21.515 4.06499 19.935 2.48499 17.995 2.48499H15.145V4.86999H17.995ZM19.135 18C19.135 18.3024 19.0149 18.5923 18.8011 18.8061C18.5873 19.0199 18.2974 19.14 17.995 19.14H15.145V21.515H17.995C18.9273 21.5137 19.8211 21.1431 20.4808 20.4844C21.1405 19.8256 21.5124 18.9323 21.515 18V15.15H19.135V18ZM6.00486 19.14C5.70292 19.1387 5.41372 19.0182 5.20021 18.8047C4.98671 18.5912 4.86618 18.302 4.86486 18V15.15H2.48486V18C2.48751 18.9323 2.85937 19.8256 3.51907 20.4844C4.17877 21.1431 5.07257 21.5137 6.00486 21.515H8.85486V19.14H6.00486ZM5.54492 12.6249L10.6299 17.7099L18.4549 9.87494L16.7749 8.18994L10.6249 14.3399L7.22492 10.9399L5.54492 12.6249Z" fill="black"/>
</svg>
