<svg width="24" height="24" viewBox="0 0 24 24" xmlns="http://www.w3.org/2000/svg">
<path fill-rule="evenodd" clip-rule="evenodd" d="M5 4C3.89543 4 3 4.89543 3 6V16.4C3 17.5046 3.89543 18.4 5 18.4H9.29999V20.65C9.29999 21.147 9.70294 21.55 10.2 21.55C10.697 21.55 11.1 21.147 11.1 20.65V18.4H12.9V20.65C12.9 21.147 13.3029 21.55 13.8 21.55C14.2971 21.55 14.7 21.147 14.7 20.65V18.4H19C20.1046 18.4 21 17.5046 21 16.4V6C21 4.89543 20.1046 4 19 4H5ZM14.1708 8.38695C14.0438 8.1498 13.7841 8 13.5 8C13.2159 8 12.9562 8.1498 12.8292 8.38695L10.5 12.7348L9.67082 11.187C9.54378 10.9498 9.28408 10.8 9 10.8H6.75C6.33579 10.8 6 11.1134 6 11.5C6 11.8866 6.33579 12.2 6.75 12.2H8.53647L9.82918 14.613C9.95622 14.8502 10.2159 15 10.5 15C10.7841 15 11.0438 14.8502 11.1708 14.613L13.5 10.2652L14.3292 11.813C14.4562 12.0502 14.7159 12.2 15 12.2H17.25C17.6642 12.2 18 11.8866 18 11.5C18 11.1134 17.6642 10.8 17.25 10.8H15.4635L14.1708 8.38695Z" />
</svg>
