<svg width="24" height="24" viewBox="0 0 24 24" fill="none" xmlns="http://www.w3.org/2000/svg">
<path d="M17.1498 14.975L16.0748 13.9C16.3581 13.55 16.579 13.1667 16.7373 12.75C16.8956 12.3333 16.9998 11.9 17.0498 11.45C17.0831 11.2667 17.1706 11.1083 17.3123 10.975C17.454 10.8417 17.6165 10.775 17.7998 10.775C18.0331 10.775 18.2248 10.8542 18.3748 11.0125C18.5248 11.1708 18.5831 11.3583 18.5498 11.575C18.4665 12.1917 18.3081 12.7917 18.0748 13.375C17.8415 13.9583 17.5331 14.4917 17.1498 14.975ZM13.9498 11.775C11.2189 9.09566 10.084 7.90924 9.0748 6.9V4.525C9.0748 3.825 9.32064 3.22917 9.8123 2.7375C10.304 2.24583 10.8998 2 11.5998 2C12.2998 2 12.8956 2.24583 13.3873 2.7375C13.879 3.22917 14.1248 3.825 14.1248 4.525V10.775C14.1248 10.9083 14.1123 11.075 14.0873 11.275C14.0623 11.475 14.0165 11.6417 13.9498 11.775ZM20.2748 22.15L1.3748 3.25C1.24147 3.11667 1.1748 2.95417 1.1748 2.7625C1.1748 2.57083 1.24147 2.40833 1.3748 2.275C1.50814 2.14167 1.66647 2.075 1.8498 2.075C2.03314 2.075 2.19147 2.14167 2.3248 2.275L21.2498 21.2C21.3831 21.3333 21.4498 21.4917 21.4498 21.675C21.4498 21.8583 21.3831 22.0167 21.2498 22.15C21.1165 22.2833 20.954 22.35 20.7623 22.35C20.5706 22.35 20.4081 22.2833 20.2748 22.15ZM10.8498 20.25V17.6C9.21647 17.4167 7.82064 16.7625 6.6623 15.6375C5.50397 14.5125 4.83314 13.1583 4.6498 11.575C4.61647 11.3583 4.67897 11.1708 4.8373 11.0125C4.99564 10.8542 5.19147 10.775 5.4248 10.775C5.60814 10.775 5.76647 10.8417 5.89981 10.975C6.03314 11.1083 6.11647 11.2667 6.14981 11.45C6.33314 12.8 6.94147 13.9208 7.9748 14.8125C9.00814 15.7042 10.2165 16.15 11.5998 16.15C12.2331 16.15 12.8415 16.0458 13.4248 15.8375C14.0081 15.6292 14.5415 15.3417 15.0248 14.975L16.0998 16.05C15.5831 16.4833 15.0081 16.8292 14.3748 17.0875C13.7415 17.3458 13.0665 17.5167 12.3498 17.6V20.25C12.3498 20.4667 12.279 20.6458 12.1373 20.7875C11.9956 20.9292 11.8165 21 11.5998 21C11.3831 21 11.204 20.9292 11.0623 20.7875C10.9206 20.6458 10.8498 20.4667 10.8498 20.25Z" fill="#212121"/>
</svg>
