<svg width="24" height="24" viewBox="0 0 24 24" fill="none" xmlns="http://www.w3.org/2000/svg">
<path d="M19.6876 21.2L17.3626 18.875C17.1293 19.0084 16.8959 19.1374 16.6626 19.262C16.4293 19.3874 16.1876 19.5 15.9376 19.6C15.6043 19.7334 15.2959 19.6917 15.0126 19.475C14.7293 19.2584 14.5876 18.9584 14.5876 18.575C14.5876 18.3917 14.6419 18.2294 14.7506 18.088C14.8586 17.946 14.9959 17.8417 15.1626 17.775C15.2959 17.725 15.4253 17.6707 15.5506 17.612C15.6753 17.554 15.7959 17.4917 15.9126 17.425L12.5876 14.1V16.875C12.5876 17.325 12.3833 17.6374 11.9746 17.812C11.5666 17.9874 11.2043 17.9167 10.8876 17.6L7.5876 14.3H4.5876C4.30426 14.3 4.06693 14.204 3.8756 14.012C3.6836 13.8207 3.5876 13.5834 3.5876 13.3V9.30002C3.5876 9.01669 3.6836 8.77902 3.8756 8.58702C4.06693 8.39569 4.30426 8.30002 4.5876 8.30002H6.7876L2.6876 4.20002C2.50426 4.01669 2.4126 3.78336 2.4126 3.50002C2.4126 3.21669 2.50426 2.98336 2.6876 2.80002C2.87093 2.61669 3.10426 2.52502 3.3876 2.52502C3.67093 2.52502 3.90426 2.61669 4.0876 2.80002L21.0876 19.8C21.2709 19.9834 21.3626 20.2167 21.3626 20.5C21.3626 20.7834 21.2709 21.0167 21.0876 21.2C20.9043 21.3834 20.6709 21.475 20.3876 21.475C20.1043 21.475 19.8709 21.3834 19.6876 21.2ZM15.9376 2.95002C17.6376 3.63336 19.0043 4.72502 20.0376 6.22502C21.0709 7.72502 21.5876 9.40836 21.5876 11.275C21.5876 12.1584 21.4669 13.0084 21.2256 13.825C20.9836 14.6417 20.6376 15.4 20.1876 16.1L18.7376 14.65C19.0209 14.1334 19.2336 13.5917 19.3756 13.025C19.5169 12.4584 19.5876 11.875 19.5876 11.275C19.5876 9.80836 19.1836 8.49169 18.3756 7.32502C17.5669 6.15836 16.4959 5.30836 15.1626 4.77502C14.9793 4.70836 14.8376 4.60002 14.7376 4.45002C14.6376 4.30002 14.5876 4.13336 14.5876 3.95002C14.5876 3.58336 14.7293 3.29169 15.0126 3.07502C15.2959 2.85836 15.6043 2.81669 15.9376 2.95002ZM16.8376 12.75L14.5876 10.5V7.25002C15.3709 7.61669 15.9836 8.16669 16.4256 8.90002C16.8669 9.63336 17.0876 10.4334 17.0876 11.3C17.0876 11.55 17.0669 11.796 17.0256 12.038C16.9836 12.2794 16.9209 12.5167 16.8376 12.75ZM12.5876 8.50002L9.9876 5.90002L10.8876 5.00002C11.2043 4.68336 11.5666 4.61236 11.9746 4.78702C12.3833 4.96236 12.5876 5.27502 12.5876 5.72502V8.50002Z" fill="#91B1B8"/>
</svg>
