<svg width="24" height="24" viewBox="0 0 24 24" fill="none" xmlns="http://www.w3.org/2000/svg">
<path d="M12 2C6.475 2 2 6.475 2 12C2 17.525 6.475 22 12 22C17.525 22 22 17.525 22 12C22 6.475 17.525 2 12 2ZM10.2167 16.5333L8.89166 13.375H8.48333C7.39167 13.375 6.49999 12.4917 6.49999 11.3917C6.49999 10.2917 7.38333 9.40832 8.48333 9.40832H11.5083V13.3667H10.5L11.825 16.525H10.2167V16.5333ZM17.4917 14.5815C17.4917 15.0013 17.1513 15.3416 16.7315 15.3416C16.5299 15.3416 16.3375 15.2608 16.1912 15.1221C15.4796 14.4474 14.5143 13.6987 13.5083 13.3083V9.49166C14.5143 9.1013 15.4796 8.35254 16.1912 7.67788C16.3375 7.53917 16.5299 7.45832 16.7315 7.45832C17.1513 7.45832 17.4917 7.79865 17.4917 8.21847V14.5815Z" fill="black"/>
</svg>
