<svg width="24" height="24" viewBox="0 0 24 24" fill="none" xmlns="http://www.w3.org/2000/svg">
<path fill-rule="evenodd" clip-rule="evenodd" d="M15.1415 10.86L12.3515 13.65C12.1615 13.84 11.8415 13.84 11.6515 13.64L8.8615 10.85C8.5415 10.54 8.7615 10 9.2115 10H11.0015V4C11.0015 3.45 11.4515 3 12.0015 3C12.5515 3 13.0015 3.45 13.0015 4V10.01H14.7915C15.2315 10.01 15.4515 10.55 15.1415 10.86ZM2 17C2 15.8954 2.89543 15 4 15H20C21.1046 15 22 15.8954 22 17V19.6667C22 20.7712 21.1046 21.6667 20 21.6667H4C2.89543 21.6667 2 20.7712 2 19.6667V17ZM5.33336 19.4486C5.94701 19.4486 6.44447 18.9511 6.44447 18.3375C6.44447 17.7238 5.94701 17.2264 5.33336 17.2264C4.71971 17.2264 4.22225 17.7238 4.22225 18.3375C4.22225 18.9511 4.71971 19.4486 5.33336 19.4486ZM8.666 19.4486C9.27965 19.4486 9.77712 18.9511 9.77712 18.3375C9.77712 17.7238 9.27965 17.2264 8.666 17.2264C8.05235 17.2264 7.55489 17.7238 7.55489 18.3375C7.55489 18.9511 8.05235 19.4486 8.666 19.4486Z" fill="#91B1B8"/>
</svg>
