<svg width="24" height="24" viewBox="0 0 24 24" fill="none" xmlns="http://www.w3.org/2000/svg">
<path d="M19.23 15.26L16.69 14.97C16.08 14.9 15.48 15.11 15.05 15.54L13.21 17.38C10.38 15.94 8.06004 13.63 6.62004 10.79L8.47004 8.94001C8.90004 8.51001 9.11004 7.91001 9.04004 7.30001L8.75004 4.78001C8.63004 3.77001 7.78004 3.01001 6.76004 3.01001H5.03004C3.90004 3.01001 2.96004 3.95001 3.03004 5.08001C3.56004 13.62 10.39 20.44 18.92 20.97C20.05 21.04 20.99 20.1 20.99 18.97V17.24C21 16.23 20.24 15.38 19.23 15.26Z" fill="black"/>
<path d="M20.8378 3.11257C20.6961 2.97091 20.517 2.90007 20.3003 2.90007L15.8753 2.90007C15.6586 2.90007 15.4795 2.97091 15.3378 3.11257C15.1961 3.25424 15.1253 3.43341 15.1253 3.65007C15.1253 3.86674 15.1961 4.04591 15.3378 4.18757C15.4795 4.32924 15.6586 4.40007 15.8753 4.40007L18.4503 4.40007L13.0753 9.77507C12.9253 9.92507 12.8503 10.1042 12.8503 10.3126C12.8503 10.5209 12.9253 10.7001 13.0753 10.8501C13.2253 11.0001 13.4045 11.0751 13.6128 11.0751C13.8211 11.0751 14.0003 11.0001 14.1503 10.8501L19.5503 5.45007L19.5503 8.07507C19.5503 8.29174 19.6211 8.47091 19.7628 8.61257C19.9045 8.75424 20.0836 8.82507 20.3003 8.82507C20.517 8.82507 20.6961 8.75424 20.8378 8.61257C20.9795 8.47091 21.0503 8.29174 21.0503 8.07507L21.0503 3.65007C21.0503 3.43341 20.9795 3.25424 20.8378 3.11257Z" fill="black"/>
</svg>
