<svg width="24" height="24" viewBox="0 0 24 24" fill="none" xmlns="http://www.w3.org/2000/svg">
<path d="M3 17.0001H21C21.55 17.0001 22 17.4501 22 18.0001C22 18.5501 21.55 19.0001 21 19.0001H3C2.45 19.0001 2 18.5501 2 18.0001C2 17.4501 2.45 17.0001 3 17.0001ZM2.5 12.5701C2.86 12.7801 3.32 12.6501 3.53 12.2901L4 11.4701L4.48 12.3001C4.69 12.6601 5.15 12.7801 5.51 12.5801C5.87 12.3701 5.99 11.9201 5.79 11.5601L5.3 10.7201H6.25C6.66 10.7201 7 10.3801 7 9.97006C7 9.56006 6.66 9.22006 6.25 9.22006H5.3L5.77 8.40006C5.98 8.04006 5.86 7.58006 5.5 7.37006C5.14 7.17006 4.68 7.29006 4.47 7.65006L4 8.47006L3.53 7.65006C3.32 7.29006 2.86 7.17006 2.5 7.37006C2.14 7.58006 2.02 8.04006 2.23 8.40006L2.7 9.22006H1.75C1.34 9.22006 1 9.56006 1 9.97006C1 10.3801 1.34 10.7201 1.75 10.7201H2.7L2.22 11.5501C2.02 11.9101 2.14 12.3701 2.5 12.5701ZM10.5 12.5701C10.86 12.7801 11.32 12.6501 11.53 12.2901L12 11.4701L12.48 12.3001C12.69 12.6601 13.15 12.7801 13.51 12.5801C13.87 12.3701 13.99 11.9201 13.79 11.5601L13.31 10.7301H14.26C14.67 10.7301 15.01 10.3901 15.01 9.98006C15.01 9.57006 14.67 9.23006 14.26 9.23006H13.3L13.77 8.41006C13.98 8.05006 13.85 7.59006 13.5 7.38006C13.14 7.17006 12.68 7.30006 12.48 7.65006L12 8.47006L11.53 7.65006C11.32 7.29006 10.86 7.17006 10.51 7.38006C10.15 7.59006 10.03 8.05006 10.24 8.41006L10.71 9.23006H9.75C9.34 9.22006 9 9.56006 9 9.97006C9 10.3801 9.34 10.7201 9.75 10.7201H10.7L10.22 11.5501C10.02 11.9101 10.14 12.3701 10.5 12.5701ZM23 9.97006C23 9.56006 22.66 9.22006 22.25 9.22006H21.3L21.77 8.40006C21.98 8.04006 21.85 7.58006 21.5 7.37006C21.14 7.16006 20.68 7.29006 20.48 7.64006L20 8.47006L19.53 7.65006C19.32 7.29006 18.86 7.17006 18.51 7.38006C18.15 7.59006 18.03 8.05006 18.24 8.41006L18.71 9.23006H17.76C17.34 9.22006 17 9.56006 17 9.97006C17 10.3801 17.34 10.7201 17.75 10.7201H18.7L18.22 11.5501C18.01 11.9101 18.14 12.3701 18.5 12.5701C18.86 12.7801 19.32 12.6501 19.53 12.2901L20 11.4701L20.48 12.3001C20.69 12.6601 21.15 12.7801 21.51 12.5801C21.87 12.3701 21.99 11.9201 21.79 11.5601L21.31 10.7301H22.26C22.66 10.7201 23 10.3801 23 9.97006Z" fill="black"/>
</svg>
