<svg width="24" height="24" viewBox="0 0 24 24" fill="none" xmlns="http://www.w3.org/2000/svg">
<path d="M20.1586 4.8C20.0686 4.34 19.6586 4 19.1786 4H4.81861C4.33861 4 3.92861 4.34 3.83861 4.8L2.83861 9.8C2.71861 10.42 3.18861 11 3.81861 11H3.99861V19C3.99861 19.55 4.44861 20 4.99861 20H12.9986C13.5486 20 13.9986 19.55 13.9986 19V11H17.9986V19C17.9986 19.55 18.4486 20 18.9986 20C19.5486 20 19.9986 19.55 19.9986 19V11H20.1786C20.8086 11 21.2786 10.42 21.1586 9.8L20.1586 4.8ZM11.9986 16H5.99861V11H11.9986V16Z" fill="#91B1B8"/>
</svg>
