<svg width="24" height="24" viewBox="0 0 24 24" fill="none" xmlns="http://www.w3.org/2000/svg">
<mask id="path-1-inside-1_35134_35620" fill="white">
<path fill-rule="evenodd" clip-rule="evenodd" d="M14.3116 4.28003C13.9382 3.90666 13.3329 3.90666 12.9595 4.28003C12.5861 4.6534 12.5861 5.25875 12.9595 5.63212L13.7804 6.45304L9.24138 10.0263L8.22737 9.01231C7.854 8.63894 7.24864 8.63894 6.87527 9.01231C6.5019 9.38568 6.5019 9.99104 6.87527 10.3644L9.57933 13.0685C9.57928 13.0685 9.57923 13.0686 9.57917 13.0686L5.25489 17.3929C5.20832 17.4395 5.16647 17.4905 5.12994 17.5453L4.09794 19.0933C3.94376 19.3246 3.97425 19.6325 4.1708 19.8291C4.36735 20.0256 4.6753 20.0561 4.90657 19.9019L6.45457 18.8699C6.50937 18.8334 6.56042 18.7916 6.60698 18.745L10.9313 14.4207C10.9313 14.4207 10.9314 14.4206 10.9314 14.4206L13.6357 17.1249C14.0091 17.4982 14.6145 17.4982 14.9878 17.1249C15.3612 16.7515 15.3612 16.1461 14.9878 15.7728L13.9737 14.7586L17.547 10.2196L18.3679 11.0405C18.7413 11.4139 19.3466 11.4139 19.72 11.0405C20.0933 10.6671 20.0933 10.0618 19.72 9.6884L14.3116 4.28003ZM10.6804 11.4654L15.2233 7.89595L16.104 8.77666L12.5346 13.3196L10.6804 11.4654Z"/>
</mask>
<path d="M12.9596 4.28L11.5454 2.86579L12.9596 4.28ZM14.3117 4.28L15.7259 2.86579V2.86579L14.3117 4.28ZM12.9596 5.63209L14.3738 4.21788V4.21788L12.9596 5.63209ZM13.7806 6.45301L15.0177 8.02449L16.7873 6.63136L15.1948 5.0388L13.7806 6.45301ZM9.2415 10.0263L7.82729 11.4405L9.08313 12.6964L10.4786 11.5978L9.2415 10.0263ZM6.8754 9.01229L8.28961 10.4265H8.28961L6.8754 9.01229ZM6.87539 10.3644L5.46118 11.7786H5.46118L6.87539 10.3644ZM9.57945 13.0684L10.9874 14.4889L12.4142 13.0747L10.9937 11.6542L9.57945 13.0684ZM9.57929 13.0686L8.17136 11.6481L8.16508 11.6544L9.57929 13.0686ZM5.25501 17.3929L3.84079 15.9787L3.84079 15.9787L5.25501 17.3929ZM5.13006 17.5453L6.79417 18.6547H6.79417L5.13006 17.5453ZM4.09806 19.0933L5.76216 20.2027L5.76216 20.2027L4.09806 19.0933ZM4.17092 19.8291L2.75671 21.2433H2.75671L4.17092 19.8291ZM4.90669 19.9019L3.79729 18.2378H3.79729L4.90669 19.9019ZM6.45469 18.8699L7.56409 20.534L7.5641 20.534L6.45469 18.8699ZM10.9315 14.4205L12.3458 13.0063L10.9315 11.5921L9.51733 13.0063L10.9315 14.4205ZM13.6359 17.1248L15.0501 15.7106L13.6359 17.1248ZM13.9738 14.7586L12.4023 13.5215L11.3038 14.917L12.5596 16.1728L13.9738 14.7586ZM17.5471 10.2196L18.9613 8.80535L17.3688 7.21279L15.9756 8.98245L17.5471 10.2196ZM18.368 11.0405L19.7822 9.62625L19.7822 9.62625L18.368 11.0405ZM19.7201 11.0405L21.1343 12.4547V12.4547L19.7201 11.0405ZM19.7201 9.68837L21.1343 8.27416L19.7201 9.68837ZM15.2235 7.89592L16.6377 6.48171L15.383 5.22705L13.9878 6.32328L15.2235 7.89592ZM10.6805 11.4653L9.44491 9.89271L7.67227 11.2855L9.26634 12.8796L10.6805 11.4653ZM16.1042 8.77663L17.6768 10.0123L18.773 8.61707L17.5184 7.36242L16.1042 8.77663ZM12.5347 13.3195L11.1205 14.7338L12.7146 16.3278L14.1074 14.5552L12.5347 13.3195ZM14.3738 5.69421C13.9662 6.10189 13.3052 6.10189 12.8975 5.69421L15.7259 2.86579C14.5715 1.71137 12.6998 1.71137 11.5454 2.86579L14.3738 5.69421ZM14.3738 4.21788C14.7815 4.62556 14.7815 5.28653 14.3738 5.69421L11.5454 2.86579C10.391 4.02021 10.391 5.89189 11.5454 7.04631L14.3738 4.21788ZM15.1948 5.0388L14.3738 4.21788L11.5454 7.04631L12.3663 7.86722L15.1948 5.0388ZM10.4786 11.5978L15.0177 8.02449L12.5434 4.88154L8.00439 8.45483L10.4786 11.5978ZM6.81327 10.4265L7.82729 11.4405L10.6557 8.61209L9.6417 7.59807L6.81327 10.4265ZM8.28961 10.4265C7.88193 10.8342 7.22095 10.8342 6.81327 10.4265L9.6417 7.59807C8.48728 6.44365 6.6156 6.44365 5.46118 7.59807L8.28961 10.4265ZM8.28961 8.95016C8.69729 9.35785 8.69728 10.0188 8.28961 10.4265L5.46118 7.59807C4.30677 8.75249 4.30676 10.6242 5.46118 11.7786L8.28961 8.95016ZM10.9937 11.6542L8.28961 8.95016L5.46118 11.7786L8.16524 14.4827L10.9937 11.6542ZM10.9872 14.4891C10.9903 14.486 10.9928 14.4835 10.9943 14.482C10.9951 14.4812 10.9957 14.4806 10.9961 14.4802C10.9963 14.48 10.9965 14.4798 10.9966 14.4797C10.9966 14.4797 10.9967 14.4797 10.9967 14.4796C10.9967 14.4796 10.9967 14.4796 10.9967 14.4796C10.9967 14.4796 10.9967 14.4796 10.9967 14.4796C10.9969 14.4794 10.9958 14.4805 10.9944 14.4819C10.9929 14.4834 10.9904 14.4859 10.9874 14.4889L8.17154 11.648C8.16843 11.651 8.16593 11.6535 8.16442 11.655C8.16364 11.6558 8.16301 11.6565 8.16263 11.6568C8.16244 11.657 8.16228 11.6572 8.16218 11.6573C8.16213 11.6573 8.16209 11.6574 8.16207 11.6574C8.16206 11.6574 8.16205 11.6574 8.16204 11.6574C8.16203 11.6574 8.16203 11.6574 8.16203 11.6574C8.16182 11.6577 8.16298 11.6565 8.16434 11.6551C8.16582 11.6536 8.1683 11.6512 8.17138 11.6481L10.9872 14.4891ZM6.66922 18.8071L10.9935 14.4828L8.16508 11.6544L3.84079 15.9787L6.66922 18.8071ZM6.79417 18.6547C6.75763 18.7095 6.71578 18.7605 6.66923 18.8071L3.84079 15.9787C3.7011 16.1184 3.57555 16.2715 3.46596 16.4359L6.79417 18.6547ZM5.76216 20.2027L6.79417 18.6547L3.46596 16.4359L2.43396 17.9839L5.76216 20.2027ZM5.58514 18.4149C6.06271 18.8924 6.13682 19.6407 5.76216 20.2027L2.43396 17.9839C1.75095 19.0084 1.88604 20.3726 2.75671 21.2433L5.58514 18.4149ZM3.79729 18.2378C4.35926 17.8632 5.10755 17.9373 5.58514 18.4149L2.75671 21.2433C3.62738 22.114 4.99158 22.249 6.0161 21.566L3.79729 18.2378ZM5.34529 17.2058L3.79729 18.2378L6.0161 21.566L7.56409 20.534L5.34529 17.2058ZM5.19289 17.3308C5.23945 17.2842 5.2905 17.2423 5.34529 17.2058L7.5641 20.534C7.72847 20.4244 7.88162 20.2989 8.02131 20.1592L5.19289 17.3308ZM9.51717 13.0065L5.19289 17.3308L8.02131 20.1592L12.3456 15.8349L9.51717 13.0065ZM9.51733 13.0063C9.51733 13.0063 9.51733 13.0063 9.51733 13.0063H9.51733C9.51733 13.0063 9.51733 13.0063 9.51733 13.0063H9.51733C9.51733 13.0063 9.51733 13.0063 9.51733 13.0063H9.51733C9.51733 13.0063 9.51733 13.0063 9.51733 13.0063H9.51733C9.51733 13.0063 9.51733 13.0063 9.51733 13.0063C9.51733 13.0063 9.51733 13.0063 9.51733 13.0063C9.51733 13.0063 9.51733 13.0063 9.51733 13.0063C9.51733 13.0063 9.51733 13.0063 9.51733 13.0063C9.51733 13.0063 9.51733 13.0063 9.51733 13.0063C9.51733 13.0063 9.51733 13.0063 9.51733 13.0063C9.51733 13.0063 9.51733 13.0063 9.51733 13.0063C9.51733 13.0063 9.51733 13.0063 9.51733 13.0063L9.51732 13.0063C9.51732 13.0063 9.51732 13.0063 9.51732 13.0063L9.51732 13.0063C9.51732 13.0063 9.51732 13.0063 9.51732 13.0063L9.51732 13.0063C9.51732 13.0063 9.51732 13.0063 9.51732 13.0063C9.51732 13.0063 9.51732 13.0063 9.51732 13.0063C9.51732 13.0063 9.51732 13.0063 9.51732 13.0063C9.51732 13.0063 9.51732 13.0063 9.51732 13.0063C9.51732 13.0063 9.51732 13.0063 9.51732 13.0063C9.51732 13.0063 9.51732 13.0063 9.51732 13.0063C9.51732 13.0063 9.51732 13.0063 9.51732 13.0063C9.51732 13.0063 9.51732 13.0063 9.51732 13.0063C9.51732 13.0063 9.51732 13.0063 9.51732 13.0063C9.51732 13.0063 9.51732 13.0063 9.51732 13.0063C9.51732 13.0063 9.51732 13.0063 9.51732 13.0063C9.51732 13.0063 9.51732 13.0063 9.51732 13.0063C9.51732 13.0063 9.51732 13.0063 9.51732 13.0063C9.51732 13.0063 9.51732 13.0063 9.51732 13.0063C9.51732 13.0063 9.51732 13.0063 9.51732 13.0063C9.51732 13.0063 9.51732 13.0063 9.51732 13.0063C9.51732 13.0063 9.51732 13.0063 9.51732 13.0063H9.51731C9.51731 13.0063 9.51731 13.0063 9.51731 13.0063C9.51731 13.0063 9.51731 13.0063 9.51731 13.0063H9.51731C9.51731 13.0063 9.51731 13.0063 9.51731 13.0063C9.51731 13.0063 9.51731 13.0063 9.51731 13.0063H9.51731C9.51731 13.0063 9.51731 13.0063 9.51731 13.0063C9.51731 13.0063 9.51731 13.0063 9.51731 13.0063H9.51731C9.51731 13.0063 9.51731 13.0063 9.51731 13.0063H9.51731C9.51731 13.0063 9.51731 13.0063 9.51731 13.0063H9.51731C9.51731 13.0063 9.51731 13.0063 9.51731 13.0063H9.51731C9.51731 13.0063 9.51731 13.0063 9.51731 13.0063C9.51731 13.0063 9.51731 13.0063 9.51731 13.0063C9.51731 13.0063 9.51731 13.0063 9.51731 13.0063C9.51731 13.0063 9.51731 13.0063 9.51731 13.0063C9.51731 13.0063 9.51731 13.0063 9.51731 13.0063C9.51731 13.0063 9.51731 13.0063 9.51731 13.0063C9.51731 13.0063 9.51731 13.0063 9.51731 13.0063C9.51731 13.0063 9.51731 13.0063 9.51731 13.0063L9.5173 13.0063C9.5173 13.0063 9.5173 13.0063 9.5173 13.0063L9.5173 13.0063C9.5173 13.0063 9.5173 13.0063 9.5173 13.0063L9.5173 13.0063C9.5173 13.0063 9.5173 13.0063 9.5173 13.0063C9.5173 13.0063 9.5173 13.0063 9.5173 13.0063C9.5173 13.0063 9.5173 13.0063 9.5173 13.0063C9.5173 13.0063 9.5173 13.0063 9.5173 13.0063C9.5173 13.0063 9.5173 13.0063 9.5173 13.0063C9.5173 13.0063 9.5173 13.0063 9.5173 13.0063C9.5173 13.0063 9.5173 13.0063 9.5173 13.0063C9.5173 13.0063 9.5173 13.0063 9.5173 13.0064C9.5173 13.0064 9.5173 13.0064 9.5173 13.0064C9.5173 13.0064 9.5173 13.0064 9.5173 13.0064C9.5173 13.0064 9.5173 13.0064 9.5173 13.0064C9.5173 13.0064 9.5173 13.0064 9.5173 13.0064C9.5173 13.0064 9.5173 13.0064 9.5173 13.0064C9.5173 13.0064 9.5173 13.0064 9.5173 13.0064C9.5173 13.0064 9.5173 13.0064 9.5173 13.0064C9.5173 13.0064 9.5173 13.0064 9.5173 13.0064C9.5173 13.0064 9.5173 13.0064 9.5173 13.0064H9.51729C9.51729 13.0064 9.51729 13.0064 9.51729 13.0064C9.51729 13.0064 9.51729 13.0064 9.51729 13.0064H9.51729C9.51729 13.0064 9.51729 13.0064 9.51729 13.0064C9.51729 13.0064 9.51729 13.0064 9.51729 13.0064H9.51729C9.51729 13.0064 9.51729 13.0064 9.51729 13.0064C9.51729 13.0064 9.51729 13.0064 9.51729 13.0064H9.51729C9.51729 13.0064 9.51729 13.0064 9.51729 13.0064H9.51729C9.51729 13.0064 9.51729 13.0064 9.51729 13.0064H9.51729C9.51729 13.0064 9.51729 13.0064 9.51729 13.0064H9.51729C9.51729 13.0064 9.51729 13.0064 9.51729 13.0064C9.51729 13.0064 9.51729 13.0064 9.51729 13.0064C9.51729 13.0064 9.51729 13.0064 9.51729 13.0064C9.51729 13.0064 9.51729 13.0064 9.51729 13.0064C9.51729 13.0064 9.51729 13.0064 9.51729 13.0064C9.51729 13.0064 9.51729 13.0064 9.51729 13.0064C9.51729 13.0064 9.51729 13.0064 9.51729 13.0064C9.51729 13.0064 9.51729 13.0064 9.51729 13.0064L9.51728 13.0064C9.51728 13.0064 9.51728 13.0064 9.51728 13.0064L9.51728 13.0064C9.51728 13.0064 9.51728 13.0064 9.51728 13.0064L9.51728 13.0064C9.51728 13.0064 9.51728 13.0064 9.51728 13.0064C9.51728 13.0064 9.51728 13.0064 9.51728 13.0064C9.51728 13.0064 9.51728 13.0064 9.51728 13.0064C9.51728 13.0064 9.51728 13.0064 9.51728 13.0064C9.51728 13.0064 9.51728 13.0064 9.51728 13.0064C9.51728 13.0064 9.51728 13.0064 9.51728 13.0064C9.51728 13.0064 9.51728 13.0064 9.51728 13.0064C9.51728 13.0064 9.51728 13.0064 9.51728 13.0064C9.51728 13.0064 9.51728 13.0064 9.51728 13.0064C9.51728 13.0064 9.51728 13.0064 9.51728 13.0064C9.51728 13.0064 9.51728 13.0064 9.51728 13.0064C9.51728 13.0064 9.51728 13.0064 9.51728 13.0064C9.51728 13.0064 9.51728 13.0064 9.51728 13.0064C9.51728 13.0064 9.51728 13.0064 9.51728 13.0064C9.51728 13.0064 9.51728 13.0064 9.51728 13.0064C9.51728 13.0064 9.51728 13.0064 9.51728 13.0064C9.51728 13.0064 9.51728 13.0064 9.51728 13.0064H9.51727C9.51727 13.0064 9.51727 13.0064 9.51727 13.0064C9.51727 13.0064 9.51727 13.0064 9.51727 13.0064H9.51727C9.51727 13.0064 9.51727 13.0064 9.51727 13.0064C9.51727 13.0064 9.51727 13.0064 9.51727 13.0064H9.51727C9.51727 13.0064 9.51727 13.0064 9.51727 13.0064C9.51727 13.0064 9.51727 13.0064 9.51727 13.0064H9.51727C9.51727 13.0064 9.51727 13.0064 9.51727 13.0064H9.51727C9.51727 13.0064 9.51727 13.0064 9.51727 13.0064H9.51727C9.51727 13.0064 9.51727 13.0064 9.51727 13.0064H9.51727C9.51727 13.0064 9.51727 13.0064 9.51727 13.0064C9.51727 13.0064 9.51727 13.0064 9.51727 13.0064C9.51727 13.0064 9.51727 13.0064 9.51727 13.0064C9.51727 13.0064 9.51727 13.0064 9.51727 13.0064C9.51727 13.0064 9.51727 13.0064 9.51727 13.0064C9.51727 13.0064 9.51727 13.0064 9.51727 13.0064C9.51727 13.0064 9.51727 13.0064 9.51727 13.0064C9.51727 13.0064 9.51727 13.0064 9.51727 13.0064L9.51726 13.0064C9.51726 13.0064 9.51726 13.0064 9.51726 13.0064L9.51726 13.0064C9.51726 13.0064 9.51726 13.0064 9.51726 13.0064L9.51726 13.0064C9.51726 13.0064 9.51726 13.0064 9.51726 13.0064C9.51726 13.0064 9.51726 13.0064 9.51726 13.0064C9.51726 13.0064 9.51726 13.0064 9.51726 13.0064C9.51726 13.0064 9.51726 13.0064 9.51726 13.0064C9.51726 13.0064 9.51726 13.0064 9.51726 13.0064C9.51726 13.0064 9.51726 13.0064 9.51726 13.0064C9.51726 13.0064 9.51726 13.0064 9.51726 13.0064C9.51726 13.0064 9.51726 13.0064 9.51726 13.0064C9.51726 13.0064 9.51726 13.0064 9.51726 13.0064C9.51726 13.0064 9.51726 13.0064 9.51726 13.0064C9.51726 13.0064 9.51726 13.0064 9.51726 13.0064C9.51726 13.0064 9.51726 13.0064 9.51726 13.0064C9.51726 13.0064 9.51726 13.0064 9.51726 13.0064C9.51726 13.0064 9.51726 13.0064 9.51726 13.0064C9.51726 13.0064 9.51726 13.0064 9.51726 13.0064C9.51726 13.0064 9.51726 13.0064 9.51726 13.0064C9.51726 13.0064 9.51726 13.0064 9.51726 13.0064H9.51725C9.51725 13.0064 9.51725 13.0064 9.51725 13.0064C9.51725 13.0064 9.51725 13.0064 9.51725 13.0064H9.51725C9.51725 13.0064 9.51725 13.0064 9.51725 13.0064C9.51725 13.0064 9.51725 13.0064 9.51725 13.0064H9.51725C9.51725 13.0064 9.51725 13.0064 9.51725 13.0064C9.51725 13.0064 9.51725 13.0064 9.51725 13.0064H9.51725C9.51725 13.0064 9.51725 13.0064 9.51725 13.0064H9.51725C9.51725 13.0064 9.51725 13.0064 9.51725 13.0064H9.51725C9.51725 13.0064 9.51725 13.0064 9.51725 13.0064H9.51725C9.51725 13.0064 9.51725 13.0064 9.51725 13.0064C9.51725 13.0064 9.51725 13.0064 9.51725 13.0064C9.51725 13.0064 9.51725 13.0064 9.51725 13.0064C9.51725 13.0064 9.51725 13.0064 9.51725 13.0064C9.51725 13.0064 9.51725 13.0064 9.51725 13.0064C9.51725 13.0064 9.51725 13.0064 9.51725 13.0064C9.51725 13.0064 9.51725 13.0064 9.51725 13.0064C9.51725 13.0064 9.51725 13.0064 9.51725 13.0064L9.51724 13.0064C9.51724 13.0064 9.51724 13.0064 9.51724 13.0064L9.51724 13.0064C9.51724 13.0064 9.51724 13.0064 9.51724 13.0064L9.51724 13.0064C9.51724 13.0064 9.51724 13.0064 9.51724 13.0064C9.51724 13.0064 9.51724 13.0064 9.51724 13.0064C9.51724 13.0064 9.51724 13.0064 9.51724 13.0064C9.51724 13.0064 9.51724 13.0064 9.51724 13.0064C9.51724 13.0064 9.51724 13.0064 9.51724 13.0064C9.51724 13.0064 9.51724 13.0064 9.51724 13.0064C9.51724 13.0064 9.51724 13.0064 9.51724 13.0064C9.51724 13.0064 9.51724 13.0064 9.51724 13.0064C9.51724 13.0064 9.51724 13.0064 9.51724 13.0064C9.51724 13.0064 9.51724 13.0064 9.51724 13.0064C9.51724 13.0064 9.51724 13.0064 9.51724 13.0064C9.51724 13.0064 9.51724 13.0064 9.51724 13.0064C9.51724 13.0064 9.51724 13.0064 9.51724 13.0064C9.51724 13.0064 9.51724 13.0064 9.51724 13.0064C9.51724 13.0064 9.51724 13.0064 9.51724 13.0064C9.51724 13.0064 9.51724 13.0064 9.51724 13.0064C9.51724 13.0064 9.51724 13.0064 9.51724 13.0064H9.51723C9.51723 13.0064 9.51723 13.0064 9.51723 13.0064C9.51723 13.0064 9.51723 13.0064 9.51723 13.0064H9.51723C9.51723 13.0064 9.51723 13.0064 9.51723 13.0064C9.51723 13.0064 9.51723 13.0064 9.51723 13.0064H9.51723C9.51723 13.0064 9.51723 13.0064 9.51723 13.0064C9.51723 13.0064 9.51723 13.0064 9.51723 13.0064H9.51723C9.51723 13.0064 9.51723 13.0064 9.51723 13.0064H9.51723C9.51723 13.0064 9.51723 13.0064 9.51723 13.0064H9.51723C9.51723 13.0064 9.51723 13.0064 9.51723 13.0064H9.51723C9.51723 13.0064 9.51723 13.0064 9.51723 13.0064C9.51723 13.0064 9.51723 13.0064 9.51723 13.0064C9.51723 13.0064 9.51723 13.0064 9.51723 13.0064C9.51723 13.0064 9.51723 13.0064 9.51723 13.0064C9.51723 13.0064 9.51723 13.0064 9.51723 13.0064C9.51723 13.0064 9.51723 13.0064 9.51723 13.0064C9.51723 13.0064 9.51723 13.0064 9.51723 13.0064C9.51723 13.0064 9.51723 13.0064 9.51723 13.0064L9.51722 13.0064C9.51722 13.0064 9.51722 13.0064 9.51722 13.0064L9.51722 13.0064C9.51722 13.0064 9.51722 13.0064 9.51722 13.0064L9.51722 13.0064C9.51722 13.0064 9.51722 13.0064 9.51722 13.0064C9.51722 13.0064 9.51722 13.0064 9.51722 13.0064C9.51722 13.0064 9.51722 13.0064 9.51722 13.0064C9.51722 13.0064 9.51722 13.0064 9.51722 13.0064C9.51722 13.0064 9.51722 13.0064 9.51722 13.0064C9.51722 13.0064 9.51722 13.0064 9.51722 13.0064C9.51722 13.0064 9.51722 13.0064 9.51722 13.0064C9.51722 13.0064 9.51722 13.0064 9.51722 13.0064C9.51722 13.0064 9.51722 13.0064 9.51722 13.0064C9.51722 13.0064 9.51722 13.0064 9.51722 13.0064C9.51722 13.0064 9.51722 13.0064 9.51722 13.0064C9.51722 13.0064 9.51722 13.0064 9.51722 13.0064C9.51722 13.0064 9.51722 13.0064 9.51722 13.0064C9.51722 13.0064 9.51722 13.0064 9.51722 13.0064C9.51722 13.0064 9.51722 13.0064 9.51722 13.0064C9.51722 13.0064 9.51722 13.0064 9.51722 13.0064C9.51722 13.0064 9.51722 13.0064 9.51722 13.0064H9.51721C9.51721 13.0064 9.51721 13.0064 9.51721 13.0064C9.51721 13.0064 9.51721 13.0064 9.51721 13.0064H9.51721C9.51721 13.0064 9.51721 13.0064 9.51721 13.0064C9.51721 13.0064 9.51721 13.0064 9.51721 13.0064H9.51721C9.51721 13.0064 9.51721 13.0064 9.51721 13.0064C9.51721 13.0064 9.51721 13.0064 9.51721 13.0064H9.51721C9.51721 13.0064 9.51721 13.0064 9.51721 13.0064H9.51721C9.51721 13.0064 9.51721 13.0064 9.51721 13.0064H9.51721C9.51721 13.0064 9.51721 13.0064 9.51721 13.0064H9.51721C9.51721 13.0064 9.51721 13.0064 9.51721 13.0064C9.51721 13.0064 9.51721 13.0064 9.51721 13.0064C9.51721 13.0064 9.51721 13.0064 9.51721 13.0064C9.51721 13.0064 9.51721 13.0064 9.51721 13.0064C9.51721 13.0064 9.51721 13.0064 9.51721 13.0064C9.51721 13.0064 9.51721 13.0064 9.51721 13.0064C9.51721 13.0064 9.51721 13.0064 9.51721 13.0064C9.51721 13.0064 9.51721 13.0064 9.51721 13.0064L9.5172 13.0064C9.5172 13.0064 9.5172 13.0064 9.5172 13.0064L9.5172 13.0064C9.5172 13.0064 9.5172 13.0064 9.5172 13.0064L9.5172 13.0064C9.5172 13.0064 9.5172 13.0064 9.5172 13.0064C9.5172 13.0064 9.5172 13.0064 9.5172 13.0064C9.5172 13.0064 9.5172 13.0064 9.5172 13.0064C9.5172 13.0064 9.5172 13.0064 9.5172 13.0064C9.5172 13.0064 9.5172 13.0064 9.5172 13.0064C9.5172 13.0064 9.5172 13.0064 9.5172 13.0064C9.5172 13.0064 9.5172 13.0064 9.5172 13.0064C9.5172 13.0064 9.5172 13.0064 9.5172 13.0065C9.5172 13.0065 9.5172 13.0065 9.5172 13.0065C9.5172 13.0065 9.5172 13.0065 9.5172 13.0065C9.5172 13.0065 9.5172 13.0065 9.5172 13.0065C9.5172 13.0065 9.5172 13.0065 9.5172 13.0065C9.5172 13.0065 9.5172 13.0065 9.5172 13.0065C9.5172 13.0065 9.5172 13.0065 9.5172 13.0065C9.5172 13.0065 9.5172 13.0065 9.5172 13.0065C9.5172 13.0065 9.5172 13.0065 9.5172 13.0065C9.5172 13.0065 9.5172 13.0065 9.5172 13.0065H9.51719C9.51719 13.0065 9.51719 13.0065 9.51719 13.0065C9.51719 13.0065 9.51719 13.0065 9.51719 13.0065H9.51719C9.51719 13.0065 9.51719 13.0065 9.51719 13.0065C9.51719 13.0065 9.51719 13.0065 9.51719 13.0065H9.51719C9.51719 13.0065 9.51719 13.0065 9.51719 13.0065C9.51719 13.0065 9.51719 13.0065 9.51719 13.0065H9.51719C9.51719 13.0065 9.51719 13.0065 9.51719 13.0065H9.51719C9.51719 13.0065 9.51719 13.0065 9.51719 13.0065H9.51719C9.51719 13.0065 9.51719 13.0065 9.51719 13.0065H9.51719C9.51719 13.0065 9.51719 13.0065 9.51719 13.0065C9.51719 13.0065 9.51719 13.0065 9.51719 13.0065C9.51719 13.0065 9.51719 13.0065 9.51719 13.0065C9.51719 13.0065 9.51719 13.0065 9.51719 13.0065C9.51719 13.0065 9.51719 13.0065 9.51719 13.0065C9.51719 13.0065 9.51719 13.0065 9.51719 13.0065C9.51719 13.0065 9.51719 13.0065 9.51719 13.0065C9.51719 13.0065 9.51719 13.0065 9.51719 13.0065L9.51718 13.0065C9.51718 13.0065 9.51718 13.0065 9.51718 13.0065L9.51718 13.0065C9.51718 13.0065 9.51718 13.0065 9.51718 13.0065L9.51718 13.0065C9.51718 13.0065 9.51718 13.0065 9.51718 13.0065C9.51718 13.0065 9.51718 13.0065 9.51718 13.0065C9.51718 13.0065 9.51718 13.0065 9.51718 13.0065C9.51718 13.0065 9.51718 13.0065 9.51718 13.0065C9.51718 13.0065 9.51718 13.0065 9.51718 13.0065C9.51718 13.0065 9.51718 13.0065 9.51718 13.0065C9.51718 13.0065 9.51718 13.0065 9.51718 13.0065C9.51718 13.0065 9.51718 13.0065 9.51718 13.0065C9.51718 13.0065 9.51718 13.0065 9.51718 13.0065C9.51718 13.0065 9.51718 13.0065 9.51718 13.0065C9.51718 13.0065 9.51718 13.0065 9.51718 13.0065C9.51718 13.0065 9.51718 13.0065 9.51718 13.0065C9.51718 13.0065 9.51718 13.0065 9.51718 13.0065C9.51718 13.0065 9.51718 13.0065 9.51718 13.0065C9.51718 13.0065 9.51718 13.0065 9.51718 13.0065C9.51718 13.0065 9.51718 13.0065 9.51718 13.0065C9.51718 13.0065 9.51718 13.0065 9.51718 13.0065H9.51717C9.51717 13.0065 9.51717 13.0065 9.51717 13.0065C9.51717 13.0065 9.51717 13.0065 9.51717 13.0065H9.51717C9.51717 13.0065 9.51717 13.0065 9.51717 13.0065C9.51717 13.0065 9.51717 13.0065 9.51717 13.0065H9.51717C9.51717 13.0065 9.51717 13.0065 9.51717 13.0065L12.3456 15.8349C12.3456 15.8349 12.3456 15.8349 12.3456 15.8349C12.3456 15.8349 12.3456 15.8349 12.3456 15.8349V15.8349C12.3456 15.8349 12.3456 15.8349 12.3456 15.8349V15.8349C12.3456 15.8349 12.3456 15.8349 12.3456 15.8349V15.8349C12.3456 15.8349 12.3456 15.8349 12.3456 15.8349V15.8349C12.3456 15.8349 12.3456 15.8349 12.3456 15.8349V15.8349C12.3456 15.8349 12.3456 15.8349 12.3456 15.8349V15.8349C12.3456 15.8349 12.3456 15.8349 12.3456 15.8349V15.8349C12.3456 15.8349 12.3456 15.8349 12.3456 15.8349C12.3456 15.8349 12.3456 15.8349 12.3456 15.8349H12.3456C12.3456 15.8349 12.3456 15.8349 12.3456 15.8349H12.3456C12.3456 15.8349 12.3456 15.8349 12.3456 15.8349H12.3456C12.3456 15.8349 12.3456 15.8349 12.3456 15.8349H12.3456C12.3456 15.8349 12.3456 15.8349 12.3456 15.8349H12.3456C12.3456 15.8349 12.3456 15.8349 12.3456 15.8349H12.3456C12.3456 15.8349 12.3456 15.8349 12.3456 15.8349H12.3456C12.3456 15.8349 12.3456 15.8349 12.3456 15.8349C12.3456 15.8349 12.3456 15.8349 12.3456 15.8349C12.3456 15.8349 12.3456 15.8349 12.3456 15.8349C12.3456 15.8349 12.3456 15.8349 12.3456 15.8349C12.3456 15.8349 12.3456 15.8349 12.3456 15.8349C12.3456 15.8349 12.3456 15.8349 12.3456 15.8349C12.3456 15.8349 12.3456 15.8349 12.3456 15.8349V15.8349C12.3456 15.8349 12.3456 15.8349 12.3456 15.8349V15.8349C12.3456 15.8349 12.3456 15.8349 12.3456 15.8349V15.8349C12.3456 15.8349 12.3456 15.8349 12.3456 15.8349V15.8349C12.3456 15.8349 12.3456 15.8349 12.3456 15.8349V15.8349C12.3456 15.8349 12.3456 15.8349 12.3456 15.8349V15.8349C12.3456 15.8349 12.3456 15.8349 12.3456 15.8349V15.8349C12.3456 15.8349 12.3456 15.8349 12.3456 15.8349C12.3456 15.8349 12.3456 15.8349 12.3456 15.8349H12.3456C12.3456 15.8349 12.3456 15.8349 12.3456 15.8349H12.3456C12.3456 15.8349 12.3456 15.8349 12.3456 15.8349H12.3456C12.3456 15.8349 12.3456 15.8349 12.3456 15.8349H12.3456C12.3456 15.8349 12.3456 15.8349 12.3456 15.8349H12.3456C12.3456 15.8349 12.3456 15.8349 12.3456 15.8349H12.3456C12.3456 15.8349 12.3456 15.8349 12.3456 15.8349H12.3456C12.3456 15.8349 12.3456 15.8349 12.3456 15.8349C12.3456 15.8349 12.3456 15.8349 12.3456 15.8349C12.3456 15.8349 12.3456 15.8349 12.3456 15.8349C12.3456 15.8349 12.3456 15.8349 12.3456 15.8349C12.3456 15.8349 12.3456 15.8349 12.3456 15.8349C12.3456 15.8349 12.3456 15.8349 12.3456 15.8349C12.3456 15.8349 12.3456 15.8349 12.3456 15.8349V15.8349C12.3456 15.8349 12.3456 15.8349 12.3456 15.8349V15.8349C12.3456 15.8349 12.3456 15.8349 12.3456 15.8349V15.8349C12.3456 15.8349 12.3456 15.8349 12.3456 15.8349V15.8349C12.3456 15.8349 12.3456 15.8349 12.3456 15.8349V15.8349C12.3456 15.8349 12.3456 15.8349 12.3456 15.8349V15.8349C12.3456 15.8349 12.3456 15.8349 12.3456 15.8349V15.8349C12.3456 15.8349 12.3456 15.8349 12.3456 15.8349C12.3456 15.8349 12.3456 15.8349 12.3456 15.8349H12.3456C12.3456 15.8349 12.3456 15.8349 12.3456 15.8349H12.3457C12.3457 15.8349 12.3457 15.8349 12.3457 15.8349H12.3457C12.3457 15.8349 12.3457 15.8349 12.3457 15.8349H12.3457C12.3457 15.8349 12.3457 15.8349 12.3457 15.8349H12.3457C12.3457 15.8349 12.3457 15.8349 12.3457 15.8348H12.3457C12.3457 15.8348 12.3457 15.8348 12.3457 15.8348H12.3457C12.3457 15.8348 12.3457 15.8348 12.3457 15.8348C12.3457 15.8348 12.3457 15.8348 12.3457 15.8348C12.3457 15.8348 12.3457 15.8348 12.3457 15.8348C12.3457 15.8348 12.3457 15.8348 12.3457 15.8348C12.3457 15.8348 12.3457 15.8348 12.3457 15.8348C12.3457 15.8348 12.3457 15.8348 12.3457 15.8348C12.3457 15.8348 12.3457 15.8348 12.3457 15.8348V15.8348C12.3457 15.8348 12.3457 15.8348 12.3457 15.8348V15.8348C12.3457 15.8348 12.3457 15.8348 12.3457 15.8348V15.8348C12.3457 15.8348 12.3457 15.8348 12.3457 15.8348V15.8348C12.3457 15.8348 12.3457 15.8348 12.3457 15.8348V15.8348C12.3457 15.8348 12.3457 15.8348 12.3457 15.8348V15.8348C12.3457 15.8348 12.3457 15.8348 12.3457 15.8348V15.8348C12.3457 15.8348 12.3457 15.8348 12.3457 15.8348C12.3457 15.8348 12.3457 15.8348 12.3457 15.8348H12.3457C12.3457 15.8348 12.3457 15.8348 12.3457 15.8348H12.3457C12.3457 15.8348 12.3457 15.8348 12.3457 15.8348H12.3457C12.3457 15.8348 12.3457 15.8348 12.3457 15.8348H12.3457C12.3457 15.8348 12.3457 15.8348 12.3457 15.8348H12.3457C12.3457 15.8348 12.3457 15.8348 12.3457 15.8348H12.3457C12.3457 15.8348 12.3457 15.8348 12.3457 15.8348H12.3457C12.3457 15.8348 12.3457 15.8348 12.3457 15.8348C12.3457 15.8348 12.3457 15.8348 12.3457 15.8348C12.3457 15.8348 12.3457 15.8348 12.3457 15.8348C12.3457 15.8348 12.3457 15.8348 12.3457 15.8348C12.3457 15.8348 12.3457 15.8348 12.3457 15.8348C12.3457 15.8348 12.3457 15.8348 12.3457 15.8348C12.3457 15.8348 12.3457 15.8348 12.3457 15.8348V15.8348C12.3457 15.8348 12.3457 15.8348 12.3457 15.8348V15.8348C12.3457 15.8348 12.3457 15.8348 12.3457 15.8348V15.8348C12.3457 15.8348 12.3457 15.8348 12.3457 15.8348V15.8348C12.3457 15.8348 12.3457 15.8348 12.3457 15.8348V15.8348C12.3457 15.8348 12.3457 15.8348 12.3457 15.8348V15.8348C12.3457 15.8348 12.3457 15.8348 12.3457 15.8348V15.8348C12.3457 15.8348 12.3457 15.8348 12.3457 15.8348C12.3457 15.8348 12.3457 15.8348 12.3457 15.8348H12.3457C12.3457 15.8348 12.3457 15.8348 12.3457 15.8348H12.3457C12.3457 15.8348 12.3457 15.8348 12.3457 15.8348H12.3457C12.3457 15.8348 12.3457 15.8348 12.3457 15.8348H12.3457C12.3457 15.8348 12.3457 15.8348 12.3457 15.8348H12.3457C12.3457 15.8348 12.3457 15.8348 12.3457 15.8348H12.3457C12.3457 15.8348 12.3457 15.8348 12.3457 15.8348H12.3457C12.3457 15.8348 12.3457 15.8348 12.3457 15.8348C12.3457 15.8348 12.3457 15.8348 12.3457 15.8348C12.3457 15.8348 12.3457 15.8348 12.3457 15.8348C12.3457 15.8348 12.3457 15.8348 12.3457 15.8348C12.3457 15.8348 12.3457 15.8348 12.3457 15.8348C12.3457 15.8348 12.3457 15.8348 12.3457 15.8348C12.3457 15.8348 12.3457 15.8348 12.3457 15.8348V15.8348C12.3457 15.8348 12.3457 15.8348 12.3457 15.8348V15.8348C12.3457 15.8348 12.3457 15.8348 12.3457 15.8348V15.8348C12.3457 15.8348 12.3457 15.8348 12.3457 15.8348V15.8348C12.3457 15.8348 12.3457 15.8348 12.3457 15.8348V15.8348C12.3457 15.8348 12.3457 15.8348 12.3457 15.8348V15.8348C12.3457 15.8348 12.3457 15.8348 12.3457 15.8348V15.8348C12.3457 15.8348 12.3457 15.8348 12.3457 15.8348C12.3457 15.8348 12.3457 15.8348 12.3457 15.8348H12.3457C12.3457 15.8348 12.3457 15.8348 12.3457 15.8348H12.3457C12.3457 15.8348 12.3457 15.8348 12.3457 15.8348H12.3457C12.3457 15.8348 12.3457 15.8348 12.3457 15.8348H12.3457C12.3457 15.8348 12.3457 15.8348 12.3457 15.8348H12.3457C12.3457 15.8348 12.3457 15.8348 12.3457 15.8348H12.3457C12.3457 15.8348 12.3457 15.8348 12.3457 15.8348H12.3457C12.3457 15.8348 12.3457 15.8348 12.3457 15.8348C12.3457 15.8348 12.3457 15.8348 12.3457 15.8348C12.3457 15.8348 12.3457 15.8348 12.3457 15.8348C12.3457 15.8348 12.3457 15.8348 12.3457 15.8348C12.3457 15.8348 12.3457 15.8348 12.3457 15.8348C12.3457 15.8348 12.3457 15.8348 12.3457 15.8348C12.3457 15.8348 12.3457 15.8348 12.3457 15.8348V15.8348C12.3457 15.8348 12.3457 15.8348 12.3457 15.8348V15.8348C12.3457 15.8348 12.3457 15.8348 12.3457 15.8348V15.8348C12.3457 15.8348 12.3457 15.8348 12.3457 15.8348V15.8348C12.3457 15.8348 12.3457 15.8348 12.3457 15.8348V15.8348C12.3457 15.8348 12.3457 15.8348 12.3457 15.8348V15.8348C12.3457 15.8348 12.3457 15.8348 12.3457 15.8348V15.8348C12.3457 15.8348 12.3457 15.8348 12.3457 15.8348C12.3457 15.8348 12.3457 15.8348 12.3457 15.8348H12.3457C12.3457 15.8348 12.3457 15.8348 12.3457 15.8348H12.3457C12.3457 15.8348 12.3457 15.8348 12.3457 15.8348H12.3457C12.3457 15.8348 12.3457 15.8348 12.3457 15.8348H12.3457C12.3457 15.8348 12.3457 15.8348 12.3457 15.8348H12.3457C12.3457 15.8348 12.3457 15.8348 12.3457 15.8348H12.3457C12.3457 15.8348 12.3457 15.8348 12.3457 15.8348H12.3457C12.3457 15.8348 12.3457 15.8348 12.3457 15.8348C12.3457 15.8348 12.3457 15.8348 12.3457 15.8348C12.3457 15.8348 12.3457 15.8348 12.3457 15.8348C12.3457 15.8348 12.3457 15.8348 12.3457 15.8348C12.3457 15.8348 12.3457 15.8348 12.3457 15.8348C12.3457 15.8348 12.3457 15.8348 12.3457 15.8348C12.3457 15.8348 12.3457 15.8348 12.3457 15.8348V15.8348C12.3457 15.8348 12.3457 15.8348 12.3457 15.8348V15.8348C12.3457 15.8348 12.3457 15.8348 12.3457 15.8348V15.8348C12.3457 15.8348 12.3457 15.8348 12.3457 15.8348V15.8348C12.3457 15.8348 12.3457 15.8348 12.3457 15.8348V15.8348C12.3457 15.8348 12.3457 15.8348 12.3457 15.8348V15.8348C12.3457 15.8348 12.3457 15.8348 12.3457 15.8348V15.8348C12.3457 15.8348 12.3457 15.8348 12.3457 15.8348C12.3457 15.8348 12.3457 15.8348 12.3457 15.8348H12.3457C12.3457 15.8348 12.3457 15.8348 12.3457 15.8348H12.3458C12.3458 15.8348 12.3458 15.8348 12.3458 15.8348H12.3458C12.3458 15.8348 12.3458 15.8348 12.3458 15.8348H12.3458C12.3458 15.8348 12.3458 15.8348 12.3458 15.8348H12.3458C12.3458 15.8348 12.3458 15.8348 12.3458 15.8347H12.3458C12.3458 15.8347 12.3458 15.8347 12.3458 15.8347H12.3458C12.3458 15.8347 12.3458 15.8347 12.3458 15.8347C12.3458 15.8347 12.3458 15.8347 12.3458 15.8347C12.3458 15.8347 12.3458 15.8347 12.3458 15.8347C12.3458 15.8347 12.3458 15.8347 12.3458 15.8347C12.3458 15.8347 12.3458 15.8347 12.3458 15.8347L9.51733 13.0063ZM15.0501 15.7106L12.3458 13.0063L9.51733 15.8347L12.2216 18.5391L15.0501 15.7106ZM13.5737 15.7106C13.9814 15.303 14.6424 15.303 15.0501 15.7106L12.2216 18.5391C13.3761 19.6935 15.2477 19.6935 16.4022 18.5391L13.5737 15.7106ZM13.5737 17.187C13.1661 16.7793 13.1661 16.1183 13.5737 15.7106L16.4022 18.5391C17.5566 17.3846 17.5566 15.513 16.4022 14.3585L13.5737 17.187ZM12.5596 16.1728L13.5737 17.187L16.4022 14.3585L15.388 13.3444L12.5596 16.1728ZM15.9756 8.98245L12.4023 13.5215L15.5453 15.9957L19.1186 11.4567L15.9756 8.98245ZM19.7822 9.62625L18.9613 8.80535L16.1329 11.6338L16.9538 12.4547L19.7822 9.62625ZM18.3059 9.62625C18.7136 9.21857 19.3745 9.21857 19.7822 9.62625L16.9538 12.4547C18.1082 13.6091 19.9799 13.6091 21.1343 12.4547L18.3059 9.62625ZM18.3059 11.1026C17.8982 10.6949 17.8982 10.0339 18.3059 9.62625L21.1343 12.4547C22.2887 11.3003 22.2887 9.42858 21.1343 8.27416L18.3059 11.1026ZM12.8975 5.69421L18.3059 11.1026L21.1343 8.27416L15.7259 2.86579L12.8975 5.69421ZM13.9878 6.32328L9.44491 9.89271L11.9162 13.038L16.4591 9.46856L13.9878 6.32328ZM17.5184 7.36242L16.6377 6.48171L13.8092 9.31013L14.69 10.1908L17.5184 7.36242ZM14.1074 14.5552L17.6768 10.0123L14.5315 7.54099L10.9621 12.0839L14.1074 14.5552ZM9.26634 12.8796L11.1205 14.7338L13.949 11.9053L12.0948 10.0511L9.26634 12.8796Z" fill="#231F20" mask="url(#path-1-inside-1_35134_35620)"/>
</svg>
