<svg width="24" height="24" viewBox="0 0 24 24" fill="none" xmlns="http://www.w3.org/2000/svg">
<path fill-rule="evenodd" clip-rule="evenodd" d="M14.3116 4.28003C13.9382 3.90666 13.3329 3.90666 12.9595 4.28003C12.5861 4.6534 12.5861 5.25875 12.9595 5.63212L13.7804 6.45298L9.24133 10.0263L8.22737 9.01231C7.854 8.63894 7.24864 8.63894 6.87527 9.01231C6.5019 9.38568 6.5019 9.99104 6.87527 10.3644L9.57933 13.0685C9.57928 13.0685 9.57923 13.0686 9.57917 13.0686L5.25489 17.3929C5.20832 17.4395 5.16647 17.4905 5.12994 17.5453L4.09794 19.0933C3.94376 19.3246 3.97425 19.6325 4.1708 19.8291C4.36735 20.0256 4.6753 20.0561 4.90657 19.9019L6.45457 18.8699C6.50937 18.8334 6.56042 18.7916 6.60698 18.745L10.9313 14.4207C10.9313 14.4207 10.9314 14.4206 10.9314 14.4206L13.6357 17.1249C14.0091 17.4982 14.6145 17.4982 14.9878 17.1249C15.3612 16.7515 15.3612 16.1461 14.9878 15.7728L13.9736 14.7586L17.5469 10.2195L18.3679 11.0405C18.7413 11.4139 19.3466 11.4139 19.72 11.0405C20.0933 10.6671 20.0933 10.0618 19.72 9.6884L14.3116 4.28003Z" fill="#231F20"/>
</svg>
