<svg width="24" height="24" viewBox="0 0 24 24" fill="none" xmlns="http://www.w3.org/2000/svg">
<path d="M16.0703 2.465C16.0703 1.6559 16.7262 1 17.5353 1C18.3444 1 19.0003 1.6559 19.0003 2.465V13.3545C18.2736 12.531 17.2132 12.009 16.0307 12.0001C16.0545 11.8704 16.067 11.7366 16.067 11.6V10.3021L16.0703 10.3044V2.465Z" fill="#91B1B8"/>
<path d="M5 18C5 21 8.33357 23 12 23C15.6664 23 19 21 19 18V16C19 14.3431 17.6569 13 16 13L13.4865 13.0001C12.6643 13.0073 12 13.6761 12 14.5C12 15.3284 12.6716 16 13.5 16H14.5C15.3284 16 16 16.6716 16 17.5V18.5C16 18.7761 15.7761 19 15.5 19C15.2239 19 15 18.7761 15 18.5V17.5C15 17.2239 14.7761 17 14.5 17H13.5C12.1193 17 11 15.8807 11 14.5C11 14.3672 11.0104 14.2368 11.0303 14.1096C10.7564 14.232 10.453 14.3 10.1336 14.3C9.50619 14.3 8.94012 14.0374 8.53934 13.616C8.30713 14.5821 7.4375 15.3 6.4002 15.3C5.86825 15.3 5.3804 15.1112 5 14.797V18Z" fill="#91B1B8"/>
<path d="M13.8615 13H13.8725L13.867 13L13.8615 13Z" fill="#91B1B8"/>
<path d="M13.5 12H15.209C15.2467 11.8733 15.267 11.739 15.267 11.6L15.2668 9.4C15.2668 8.6268 14.64 8 13.8668 8C13.0936 8 12.4668 8.6268 12.4668 9.4V11.6C12.4668 11.8035 12.5102 11.9969 12.5883 12.1714C12.8708 12.0608 13.1783 12 13.5 12Z" fill="#91B1B8"/>
<path d="M11.2391 9.04094C11.4237 9.2781 11.5336 9.57622 11.5336 9.90001V12.1C11.5336 12.8732 10.9068 13.5 10.1336 13.5C10.1079 13.5 10.0823 13.4993 10.057 13.4979C9.31932 13.4583 8.7334 12.8476 8.7334 12.1V9.9C8.7334 9.1268 9.3602 8.5 10.1334 8.5C10.5828 8.5 10.983 8.71175 11.2391 9.04094Z" fill="#91B1B8"/>
<path d="M7.72766 10.4546C7.54161 9.89977 7.01749 9.5 6.4 9.5C5.6268 9.5 5 10.1268 5 10.9V13.1C5 13.8473 5.58544 14.4578 6.32267 14.4979C6.34833 14.4993 6.37418 14.5 6.4002 14.5C7.17339 14.5 7.8002 13.8732 7.8002 13.1V10.9C7.8002 10.7443 7.7746 10.5946 7.72766 10.4546Z" fill="#91B1B8"/>
</svg>
