<svg width="24" height="24" viewBox="0 0 24 24" fill="none" xmlns="http://www.w3.org/2000/svg">
<path fill-rule="evenodd" clip-rule="evenodd" d="M18.2479 1.84298C19.3326 2.16306 20 3.21408 20 4.35568V12V19.6443C20 20.7859 19.3326 21.8369 18.2479 22.157C16.438 22.6911 14.2959 23 12 23C9.70411 23 7.56199 22.6911 5.75212 22.157C4.66742 21.8369 4 20.7859 4 19.6443V12V4.35568C4 3.21408 4.66742 2.16306 5.75212 1.84298C7.56199 1.30891 9.70411 1 12 1C14.2959 1 16.438 1.30891 18.2479 1.84298ZM12.8002 3.6C12.8002 4.04183 12.442 4.4 12.0002 4.4C11.5584 4.4 11.2002 4.04183 11.2002 3.6C11.2002 3.15817 11.5584 2.8 12.0002 2.8C12.442 2.8 12.8002 3.15817 12.8002 3.6ZM7.87012 6.84091C7.87012 6.51456 8.1347 6.25 8.46103 6.25H15.5519C15.8783 6.25 16.1428 6.51456 16.1428 6.84091V9.20455C16.1428 9.53089 15.8783 9.79545 15.5519 9.79545H8.46103C8.1347 9.79545 7.87012 9.53089 7.87012 9.20455V6.84091ZM8.46103 10.9773C8.1347 10.9773 7.87012 11.2418 7.87012 11.5682V13.9318C7.87012 14.2582 8.1347 14.5227 8.46103 14.5227H10.8247C11.151 14.5227 11.4156 14.2582 11.4156 13.9318V11.5682C11.4156 11.2418 11.151 10.9773 10.8247 10.9773H8.46103ZM13.1883 10.9773C12.862 10.9773 12.5974 11.2418 12.5974 11.5682V13.9318C12.5974 14.2582 12.862 14.5227 13.1883 14.5227H15.5519C15.8783 14.5227 16.1428 14.2582 16.1428 13.9318V11.5682C16.1428 11.2418 15.8783 10.9773 15.5519 10.9773H13.1883ZM8.46103 15.7045C8.1347 15.7045 7.87012 15.9691 7.87012 16.2955V18.6591C7.87012 18.9854 8.1347 19.25 8.46103 19.25H10.8247C11.151 19.25 11.4156 18.9854 11.4156 18.6591V16.2955C11.4156 15.9691 11.151 15.7045 10.8247 15.7045H8.46103Z" fill="#91B1B8"/>
</svg>
