<svg width="24" height="24" viewBox="0 0 24 24" fill="none" xmlns="http://www.w3.org/2000/svg">
<path d="M12.0002 3C11.4502 3 11.0002 3.45 11.0002 4V12C11.0002 12.55 11.4502 13 12.0002 13C12.5502 13 13.0002 12.55 13.0002 12V4C13.0002 3.45 12.5502 3 12.0002 3ZM17.1402 5.86C16.7502 6.25 16.7602 6.86 17.1302 7.25C18.2602 8.45 18.9602 10.05 19.0002 11.82C19.0902 15.65 15.9202 18.95 12.0902 18.99C8.18017 19.05 5.00017 15.9 5.00017 12C5.00017 10.16 5.71017 8.49 6.87017 7.24C7.24017 6.85 7.24017 6.24 6.86017 5.86C6.46017 5.46 5.81017 5.47 5.43017 5.88C3.98017 7.42 3.07017 9.47 3.00017 11.74C2.86017 16.62 6.83017 20.84 11.7102 20.99C16.8102 21.15 21.0002 17.06 21.0002 11.99C21.0002 9.62 20.0802 7.48 18.5802 5.88C18.2002 5.47 17.5402 5.46 17.1402 5.86Z" fill="black"/>
</svg>
