<svg width="24" height="24" viewBox="0 0 24 24" fill="none" xmlns="http://www.w3.org/2000/svg">
<path fill-rule="evenodd" clip-rule="evenodd" d="M4.12833 4.49613C3.70682 3.96924 2.85714 4.26729 2.85714 4.94203V17.6901H21.1429V4.94203C21.1429 4.26729 20.2932 3.96924 19.8717 4.49613C19.5859 4.85332 19.0427 4.85332 18.7569 4.49613L18.3781 4.02267C17.9206 3.45078 17.0508 3.45078 16.5933 4.02267L16.5496 4.07733C16.0921 4.64922 15.2222 4.64922 14.7647 4.07733L14.721 4.02267C14.2635 3.45078 13.3937 3.45078 12.9361 4.02267L12.8924 4.07733C12.4349 4.64922 11.5651 4.64922 11.1076 4.07733L11.0639 4.02267C10.6063 3.45078 9.73652 3.45078 9.27901 4.02267L9.23528 4.07733C8.77776 4.64922 7.90795 4.64922 7.45044 4.07733L7.40671 4.02267C6.94919 3.45078 6.07938 3.45078 5.62186 4.02267L5.2431 4.49613C4.95735 4.85332 4.41408 4.85332 4.12833 4.49613ZM23.122 21.1428H0.878049C0.393116 21.1428 0 20.759 0 20.2856C0 19.8122 0.393116 19.4285 0.878049 19.4285H23.122C23.6069 19.4285 24 19.8122 24 20.2856C24 20.759 23.6069 21.1428 23.122 21.1428ZM18.2148 10.2856C18.6115 10.2856 18.9331 9.90187 18.9331 9.42848C18.9331 8.95509 18.6115 8.57134 18.2148 8.57134H5.81248C5.41578 8.57134 5.09419 8.95509 5.09419 9.42848C5.09419 9.90187 5.41578 10.2856 5.81248 10.2856H18.2148ZM10.3617 13.4285C10.3617 13.9019 10.0401 14.2856 9.64337 14.2856H5.81248C5.41578 14.2856 5.09419 13.9019 5.09419 13.4285C5.09419 12.9551 5.41578 12.5713 5.81248 12.5713H9.64337C10.0401 12.5713 10.3617 12.9551 10.3617 13.4285Z" fill="black"/>
</svg>
