<svg width="24" height="24" viewBox="0 0 24 24" fill="none" xmlns="http://www.w3.org/2000/svg">
<path fill-rule="evenodd" clip-rule="evenodd" d="M2 12C2 6.48 6.48 2 12 2C17.52 2 22 6.48 22 12C22 17.52 17.52 22 12 22C6.48 22 2 17.52 2 12ZM10.5846 6.36672L5.81837 10.5739C5.37846 10.9622 5.36481 11.6431 5.7901 12.0474L10.5781 16.5989C10.7373 16.7503 11 16.6377 11 16.418V13.5C13.047 13.5508 15.6875 14.1051 17.5185 16.3423C17.6714 16.5291 18 16.4265 18 16.1852C18 12.4101 14.6562 9.90578 11 9.5V6.55414C11 6.33884 10.746 6.22424 10.5846 6.36672Z" fill="black"/>
</svg>
