<svg width="24" height="24" viewBox="0 0 24 24" fill="none" xmlns="http://www.w3.org/2000/svg">
<path d="M8.875 21C7.79167 21 6.875 20.6208 6.125 19.8625C5.375 19.1042 5 18.1917 5 17.125V8.4C4.41667 8.18333 3.9375 7.8375 3.5625 7.3625C3.1875 6.8875 3 6.35 3 5.75C3 4.98333 3.27083 4.33333 3.8125 3.8C4.35417 3.26667 5.00833 3 5.775 3C6.525 3 7.16667 3.26667 7.7 3.8C8.23333 4.33333 8.5 4.98333 8.5 5.75C8.5 6.35 8.3125 6.8875 7.9375 7.3625C7.5625 7.8375 7.08333 8.18333 6.5 8.4V17.125C6.5 17.775 6.72917 18.3333 7.1875 18.8C7.64583 19.2667 8.21667 19.5 8.9 19.5C9.56667 19.5 10.125 19.2667 10.575 18.8C11.025 18.3333 11.25 17.775 11.25 17.125V6.875C11.25 5.79167 11.625 4.875 12.375 4.125C13.125 3.375 14.0417 3 15.125 3C16.2083 3 17.125 3.375 17.875 4.125C18.625 4.875 19 5.79167 19 6.875V15.6C19.5833 15.8167 20.0625 16.1625 20.4375 16.6375C20.8125 17.1125 21 17.65 21 18.25C21 19 20.7333 19.6458 20.2 20.1875C19.6667 20.7292 19.0167 21 18.25 21C17.5 21 16.8542 20.7292 16.3125 20.1875C15.7708 19.6458 15.5 19 15.5 18.25C15.5 17.65 15.6875 17.1083 16.0625 16.625C16.4375 16.1417 16.9167 15.8 17.5 15.6V6.875C17.5 6.20833 17.2708 5.64583 16.8125 5.1875C16.3542 4.72917 15.7917 4.5 15.125 4.5C14.4583 4.5 13.8958 4.72917 13.4375 5.1875C12.9792 5.64583 12.75 6.20833 12.75 6.875V17.125C12.75 18.1917 12.375 19.1042 11.625 19.8625C10.875 20.6208 9.95833 21 8.875 21ZM5.775 7C6.10833 7 6.39583 6.875 6.6375 6.625C6.87917 6.375 7 6.075 7 5.725C7 5.39167 6.87917 5.10417 6.6375 4.8625C6.39583 4.62083 6.1 4.5 5.75 4.5C5.41667 4.5 5.125 4.62083 4.875 4.8625C4.625 5.10417 4.5 5.4 4.5 5.75C4.5 6.08333 4.625 6.375 4.875 6.625C5.125 6.875 5.425 7 5.775 7ZM18.275 19.5C18.6083 19.5 18.8958 19.375 19.1375 19.125C19.3792 18.875 19.5 18.575 19.5 18.225C19.5 17.8917 19.3792 17.6042 19.1375 17.3625C18.8958 17.1208 18.6 17 18.25 17C17.9167 17 17.625 17.1208 17.375 17.3625C17.125 17.6042 17 17.9 17 18.25C17 18.5833 17.125 18.875 17.375 19.125C17.625 19.375 17.925 19.5 18.275 19.5Z" fill="black"/>
</svg>
