<svg width="24" height="24" viewBox="0 0 24 24" fill="none" xmlns="http://www.w3.org/2000/svg">
<path fill-rule="evenodd" clip-rule="evenodd" d="M12.7198 2.69386V3.85099H6.70103V2.73867C6.70103 1.77843 7.47946 1 8.4397 1H14.4579C13.5126 1 12.7435 1.75433 12.7198 2.69386ZM14.7554 3.57729C15.5556 3.57729 16.2043 4.22598 16.2043 5.02618V10.045C15.4425 10.1314 14.7177 10.3401 14.0502 10.6509V7.90417C14.0502 7.26401 13.5312 6.74506 12.8911 6.74506L6.65633 6.74506C6.01617 6.74506 5.49722 7.26401 5.49722 7.90417V11.2879C5.49722 11.9281 6.01617 12.447 6.65633 12.447H11.6848C11.2303 12.9773 10.8538 13.5764 10.5729 14.2264C10.4129 14.1038 10.2127 14.0309 9.99544 14.0309C9.47059 14.0309 9.04511 14.4564 9.04511 14.9812C9.04511 15.5061 9.47059 15.9316 9.99544 15.9316C10.0252 15.9316 10.0546 15.9302 10.0836 15.9275C10.0514 16.1372 10.0284 16.35 10.0152 16.5653L9.99544 16.5651C9.47059 16.5651 9.04511 16.9906 9.04511 17.5155C9.04511 18.0403 9.47059 18.4658 9.99544 18.4658C10.0491 18.4658 10.1017 18.4613 10.1529 18.4528C10.3493 19.3835 10.7307 20.2459 11.2566 21H4.98209C4.18189 21 3.5332 20.3513 3.5332 19.5511V5.02618C3.5332 4.22598 4.18189 3.57729 4.98209 3.57729H5.87398V4.53063H13.4791V3.57729H14.7554ZM6.19413 14.9812C6.19413 15.5061 6.6196 15.9316 7.14446 15.9316C7.66931 15.9316 8.09478 15.5061 8.09478 14.9812C8.09478 14.4564 7.66931 14.0309 7.14446 14.0309C6.6196 14.0309 6.19413 14.4564 6.19413 14.9812ZM7.14446 18.4658C6.6196 18.4658 6.19413 18.0403 6.19413 17.5155C6.19413 16.9906 6.6196 16.5651 7.14446 16.5651C7.66931 16.5651 8.09478 16.9906 8.09478 17.5155C8.09478 18.0403 7.66931 18.4658 7.14446 18.4658ZM15.552 20.5L15.852 22H17.852L18.152 20.5C18.352 20.4167 18.5396 20.3293 18.715 20.238C18.8896 20.146 19.0686 20.0333 19.252 19.9L20.702 20.35L21.702 18.65L20.552 17.65C20.5853 17.45 20.602 17.2417 20.602 17.025C20.602 16.8083 20.5853 16.6 20.552 16.4L21.702 15.4L20.702 13.65L19.252 14.15C19.0686 14 18.8896 13.875 18.715 13.775C18.5396 13.675 18.352 13.5833 18.152 13.5L17.852 12H15.852L15.552 13.5C15.352 13.5833 15.1643 13.6707 14.989 13.762C14.8143 13.854 14.6353 13.9667 14.452 14.1L13.002 13.65L12.002 15.35L13.152 16.35C13.1186 16.5833 13.102 16.8 13.102 17C13.102 17.2 13.1186 17.4167 13.152 17.65L12.002 18.65L13.002 20.35L14.452 19.9C14.6353 20.0333 14.8143 20.146 14.989 20.238C15.1643 20.3293 15.352 20.4167 15.552 20.5ZM18.265 18.413C17.873 18.8043 17.402 19 16.852 19C16.302 19 15.8313 18.8043 15.44 18.413C15.048 18.021 14.852 17.55 14.852 17C14.852 16.45 15.048 15.979 15.44 15.587C15.8313 15.1957 16.302 15 16.852 15C17.402 15 17.873 15.1957 18.265 15.587C18.6563 15.979 18.852 16.45 18.852 17C18.852 17.55 18.6563 18.021 18.265 18.413Z" fill="black"/>
</svg>
