<svg width="24" height="24" viewBox="0 0 24 24" fill="none" xmlns="http://www.w3.org/2000/svg">
<path d="M21 6.98932V19.1015C21 19.6142 20.8118 20.0587 20.4352 20.4352C20.0587 20.8118 19.6061 21 19.0774 21H4.89853C4.38585 21 3.94125 20.8118 3.56475 20.4352C3.18825 20.0587 3 19.6142 3 19.1015V4.92256C3 4.39386 3.18825 3.94126 3.56475 3.56475C3.94125 3.18825 4.38585 3 4.89853 3H17.0107L21 6.98932ZM11.988 17.5394C12.6769 17.5394 13.2657 17.2951 13.7543 16.8064C14.243 16.3178 14.4873 15.729 14.4873 15.0401C14.4873 14.3511 14.243 13.7624 13.7543 13.2737C13.2657 12.785 12.6769 12.5407 11.988 12.5407C11.2991 12.5407 10.7103 12.781 10.2216 13.2617C9.73298 13.7423 9.48865 14.3351 9.48865 15.0401C9.48865 15.729 9.73298 16.3178 10.2216 16.8064C10.7103 17.2951 11.2991 17.5394 11.988 17.5394ZM6.17223 9.63284H14.7757V6.19626H6.17223V9.63284Z" fill="black"/>
</svg>
