<svg width="24" height="24" viewBox="0 0 24 24" fill="none" xmlns="http://www.w3.org/2000/svg">
<path d="M21.6844 16.7105L21.6729 16.6534C21.3761 15.1015 20.7466 13.2648 20.1378 11.4886C19.8641 10.6902 19.6028 9.92693 19.3844 9.22673C20.2758 8.53585 20.9553 7.67847 21.0233 6.73071L21.0245 6.7083C21.0278 6.61496 21.0278 6.56106 21.0245 6.46778L21.0233 6.44549C20.8657 4.24118 17.4752 2.4206 15.6843 2.26312C14.4402 2.09834 12.0547 2 9.29659 2C6.52764 2 4.13441 2.09909 2.89458 2.26509L2.87285 2.26842C2.46089 2.33856 2.0222 2.67322 2.02689 3.40195C2.03418 4.53158 3.11992 6.42987 4.04743 7.7123C4.84097 8.80952 6.38639 10.6839 7.8197 10.9089L7.83353 10.9109C9.14744 11.0869 10.4707 11.1761 11.7664 11.1761C12.5058 11.1761 13.2543 11.146 14.0048 11.0884C14.5272 11.869 14.9501 12.6112 15.1043 13.4334C15.1673 13.7796 15.1545 14.1473 15.1409 14.5365C15.1275 14.9223 15.1137 15.3212 15.1707 15.7393L15.1726 15.7521C15.2442 16.2059 15.3931 16.613 15.5372 17.0067C15.6293 17.2582 15.7163 17.496 15.7814 17.739C15.8839 18.2664 15.8573 18.7888 15.8292 19.3414C15.8155 19.6096 15.8014 19.8868 15.8012 20.1753C15.7892 20.9477 15.9938 21.4682 16.4268 21.7663C16.6699 21.9336 16.9411 22 17.2298 22C17.7937 22 18.4239 21.7468 19.0401 21.4992C19.2946 21.397 19.5349 21.3004 19.7567 21.2265C22.4137 20.3552 22.1391 18.9834 21.6844 16.7105ZM13.1707 4.80611H16.4221C16.763 4.80611 17.0395 5.0825 17.0395 5.42347C17.0395 5.76443 16.763 6.04082 16.4221 6.04082H13.1707C12.8298 6.04082 12.5534 5.76443 12.5534 5.42347C12.5534 5.0825 12.8298 4.80611 13.1707 4.80611ZM13.1707 7.94554C12.8298 7.94554 12.5534 7.66915 12.5534 7.32818C12.5534 6.98722 12.8298 6.71083 13.1707 6.71083H16.4221C16.763 6.71083 17.0395 6.98722 17.0395 7.32818C17.0395 7.66915 16.763 7.94554 16.4221 7.94554H13.1707Z" fill="black"/>
</svg>
