<svg width="24" height="24" viewBox="0 0 24 24" fill="none" xmlns="http://www.w3.org/2000/svg">
<path d="M22.6504 17.1816L22.6378 17.1187C22.3114 15.4116 21.6189 13.3914 20.9492 11.4375C20.6481 10.5593 20.3607 9.71965 20.1205 8.94943C21.101 8.18946 21.8484 7.24634 21.9232 6.2038L21.9246 6.17915C21.9282 6.07647 21.9282 6.01718 21.9246 5.91457L21.9232 5.89006C21.7499 3.4653 18.0203 1.46266 16.0504 1.28943C14.6818 1.10818 12.0577 1 9.02383 1C5.97798 1 3.34542 1.10899 1.9816 1.2916L1.9577 1.29527C1.50454 1.37241 1.02198 1.74055 1.02714 2.54215C1.03515 3.78474 2.22947 5.87288 3.24973 7.28355C4.12264 8.4905 5.8226 10.5523 7.39924 10.7998L7.41446 10.8021C8.85976 10.9956 10.3153 11.0937 11.7406 11.0937C12.554 11.0937 13.3773 11.0606 14.2028 10.9972C14.7776 11.8559 15.2427 12.6723 15.4124 13.5768C15.4816 13.9576 15.4676 14.362 15.4526 14.7902C15.4379 15.2146 15.4227 15.6533 15.4854 16.1133L15.4874 16.1274C15.5662 16.6265 15.73 17.0744 15.8885 17.5074C15.9898 17.784 16.0855 18.0457 16.1572 18.313C16.2699 18.8931 16.2407 19.4677 16.2097 20.0756C16.1946 20.3706 16.1791 20.6755 16.1789 20.9929C16.1657 21.8426 16.3907 22.4151 16.867 22.743C17.1345 22.9271 17.4329 23.0001 17.7504 23.0001C18.3707 23.0001 19.0639 22.7215 19.7418 22.4492C20.0216 22.3367 20.286 22.2305 20.53 22.1492C23.4527 21.1908 23.1507 19.6818 22.6504 17.1816ZM13.2854 4.08673H16.862C17.2369 4.08673 17.541 4.39076 17.541 4.76582C17.541 5.14089 17.2369 5.44491 16.862 5.44491H13.2854C12.9103 5.44491 12.6063 5.14089 12.6063 4.76582C12.6063 4.39076 12.9103 4.08673 13.2854 4.08673ZM13.2854 7.54011C12.9103 7.54011 12.6063 7.23608 12.6063 6.86102C12.6063 6.48596 12.9103 6.18193 13.2854 6.18193H16.862C17.2369 6.18193 17.541 6.48596 17.541 6.86102C17.541 7.23608 17.2369 7.54011 16.862 7.54011H13.2854Z" fill="black"/>
</svg>
