<svg width="24" height="24" viewBox="0 0 24 24" fill="none" xmlns="http://www.w3.org/2000/svg">
<path fill-rule="evenodd" clip-rule="evenodd" d="M12.131 17.37C10.8109 14.7298 8.2633 11.3368 6.47998 9.54192L8.19382 7.60806C10.174 9.64614 11.3436 11.4179 12.0268 12.5527C14.3428 8.2218 18.8011 2.8371 21.6729 0L22.6341 1.08852C17.7242 6.75114 14.3081 12.5759 12.131 17.37ZM19 18V8.2602C19.617 7.35602 20.2711 6.44425 20.9634 5.53014C20.9875 5.68322 21 5.84015 21 6V18C21 19.6569 19.6569 21 18 21H6C4.34315 21 3 19.6569 3 18V6C3 4.34315 4.34315 3 6 3H16.9142C16.3763 3.64239 15.833 4.31298 15.2969 5H6C5.44772 5 5 5.44772 5 6V18C5 18.5523 5.44772 19 6 19H18C18.5523 19 19 18.5523 19 18Z" fill="#91B1B8"/>
</svg>
