<svg width="24" height="24" viewBox="0 0 24 24" xmlns="http://www.w3.org/2000/svg">
  <path d="M 5 3 C 3.89 3 3 3.9 3 5 L 3 19 C 3 20.1 3.9 21 5 21 L 19 21 C 20.1 21 21 20.1 21 19 L 21 10.263672 L 19 12.263672 L 19 18 C 19 18.55 18.55 19 18 19 L 6 19 C 5.45 19 5 18.55 5 18 L 5 6 C 5 5.45 5.45 5 6 5 L 10.589844 5 C 11.604344 4.25669 12.792563 3.6696494 14.164062 3.2871094 C 14.179763 3.1888694 14.201163 3.09321 14.226562 3 L 5 3 z M 16.787109 3.0058594 C 16.439648 3.0474261 16.128906 3.3311438 16.128906 3.7421875 L 16.128906 4.9160156 C 10.956206 5.6549656 8.73895 9.3501819 8 13.044922 C 9.84738 10.458622 12.434106 9.2773437 16.128906 9.2773438 L 16.128906 10.525391 C 16.128906 11.183091 16.926978 11.508469 17.392578 11.042969 L 20.783203 7.6503906 C 21.071303 7.3622006 21.071303 6.897565 20.783203 6.609375 L 17.392578 3.2167969 C 17.217978 3.0422194 16.995586 2.9809194 16.787109 3.0058594 z " />
</svg>
