<svg width="24" height="24" viewBox="0 0 24 24" fill="none" xmlns="http://www.w3.org/2000/svg">
<path d="M6.13979 11.86L3.35979 14.65C3.16979 14.85 3.16979 15.16 3.35979 15.36L6.13979 18.15C6.44978 18.47 6.98978 18.24 6.98978 17.8V16H12.9998C13.5498 16 13.9998 15.55 13.9998 15C13.9998 14.45 13.5498 14 12.9998 14H6.98978V12.21C6.98978 11.76 6.44978 11.54 6.13979 11.86ZM20.6498 8.64997L17.8698 5.85997C17.5598 5.53997 17.0198 5.76997 17.0198 6.20997V7.99997H10.9998C10.4498 7.99997 9.99979 8.44997 9.99979 8.99997C9.99979 9.54997 10.4498 9.99997 10.9998 9.99997H17.0098V11.79C17.0098 12.24 17.5498 12.46 17.8598 12.14L20.6398 9.34997C20.8398 9.15997 20.8398 8.83997 20.6498 8.64997Z" fill="black"/>
</svg>
