<svg width="24" height="24" viewBox="0 0 24 24" fill="none" xmlns="http://www.w3.org/2000/svg">
<path fill-rule="evenodd" clip-rule="evenodd" d="M16.5 14.9824C20.1326 14.726 23 11.6979 23 8C23 4.13401 19.866 1 16 1C15.0801 1 14.2016 1.17745 13.3969 1.5H6.5C5.40002 1.5 4.5 2.39999 4.5 3.5V5.76974C3.90332 6.11687 3.5 6.76361 3.5 7.5V20.5C3.5 21.6 4.40002 22.5 5.5 22.5H14.5C15.6 22.5 16.5 21.6 16.5 20.5V14.9824ZM10.7144 12.5896C11.4621 13.4499 12.4164 14.1259 13.5 14.5404V15C13.5 15.2761 13.2761 15.5 13 15.5H11C10.7239 15.5 10.5 15.2761 10.5 15V13C10.5 12.83 10.5848 12.6799 10.7144 12.5896ZM9.93648 11.5H7C6.72388 11.5 6.5 11.2761 6.5 11V9C6.5 8.72386 6.72388 8.5 7 8.5H9.01758C9.09432 9.58736 9.41941 10.6062 9.93648 11.5ZM9.45963 5.5H6.5V4.5C6.5 3.95 6.95001 3.5 7.5 3.5H10.6379C10.1411 4.09131 9.74037 4.76598 9.45963 5.5ZM15.444 3.03057C15.6265 3.01037 15.8121 3 16 3C18.7614 3 21 5.23858 21 8C21 10.5927 19.0267 12.7245 16.5 12.9753C16.3355 12.9916 16.1687 13 16 13C14.6193 13 13.3693 12.4404 12.4645 11.5355C12.4527 11.5237 12.441 11.5119 12.4293 11.5C11.6546 10.7098 11.1402 9.66358 11.0247 8.5C11.0084 8.33555 11 8.16875 11 8C11 7.13705 11.2186 6.32517 11.6035 5.6167C11.6248 5.57748 11.6466 5.53858 11.6689 5.5C12.057 4.82916 12.5964 4.25684 13.2405 3.82977C13.885 3.40245 14.6343 3.12055 15.4416 3.03083C15.4424 3.03074 15.4432 3.03066 15.444 3.03057ZM15 4.75C15 4.34 15.34 4 15.75 4C16.16 4 16.5 4.34 16.5 4.75V8.25L18.74 9.57C19.09 9.77 19.2 10.22 18.99 10.56C18.79 10.89 18.35 11 18.01 10.8L15.49 9.29C15.19 9.11 15 8.78 15 8.43V4.75ZM6.5 13C6.5 12.7239 6.72388 12.5 7 12.5H9C9.27612 12.5 9.5 12.7239 9.5 13V15C9.5 15.2761 9.27612 15.5 9 15.5H7C6.72388 15.5 6.5 15.2761 6.5 15V13ZM6.5 17C6.5 16.7239 6.72388 16.5 7 16.5H9C9.27612 16.5 9.5 16.7239 9.5 17V19C9.5 19.2761 9.27612 19.5 9 19.5H7C6.72388 19.5 6.5 19.2761 6.5 19V17Z" fill="black"/>
</svg>
