<svg width="24" height="24" viewBox="0 0 24 24" fill="none" xmlns="http://www.w3.org/2000/svg">
<path fill-rule="evenodd" clip-rule="evenodd" d="M15.5 1.5C16.6 1.5 17.5 2.39999 17.5 3.5V5.76974C18.0967 6.11687 18.5 6.76361 18.5 7.5V15.6789C18.189 16.0316 18 16.4942 18 17V18H17C15.8977 18 15 18.8977 15 20C15 21.1023 15.8977 22 17 22H17.8193C17.4665 22.3109 17.0043 22.5 16.5 22.5H7.5C6.40002 22.5 5.5 21.6 5.5 20.5V7.5C5.5 6.76361 5.90332 6.11687 6.5 5.76974V3.5C6.5 2.39999 7.40002 1.5 8.5 1.5H15.5ZM15.5 4.5V5.5H8.5V4.5C8.5 3.95 8.95001 3.5 9.5 3.5H14.5C15.05 3.5 15.5 3.95 15.5 4.5ZM9 8.5C8.72388 8.5 8.5 8.72386 8.5 9V11C8.5 11.2761 8.72388 11.5 9 11.5H15C15.2761 11.5 15.5 11.2761 15.5 11V9C15.5 8.72386 15.2761 8.5 15 8.5H9ZM8.5 13C8.5 12.7239 8.72388 12.5 9 12.5H11C11.2761 12.5 11.5 12.7239 11.5 13V15C11.5 15.2761 11.2761 15.5 11 15.5H9C8.72388 15.5 8.5 15.2761 8.5 15V13ZM12.5 13C12.5 12.7239 12.7239 12.5 13 12.5H15C15.2761 12.5 15.5 12.7239 15.5 13V15C15.5 15.2761 15.2761 15.5 15 15.5H13C12.7239 15.5 12.5 15.2761 12.5 15V13ZM8.5 17C8.5 16.7239 8.72388 16.5 9 16.5H11C11.2761 16.5 11.5 16.7239 11.5 17V19C11.5 19.2761 11.2761 19.5 11 19.5H9C8.72388 19.5 8.5 19.2761 8.5 19V17ZM23 21H21V23C21 23.55 20.55 24 20 24C19.45 24 19 23.55 19 23V21H17C16.45 21 16 20.55 16 20C16 19.45 16.45 19 17 19H19V17C19 16.45 19.45 16 20 16C20.55 16 21 16.45 21 17V19H23C23.55 19 24 19.45 24 20C24 20.55 23.55 21 23 21Z"/>
</svg>
