<svg width="24" height="24" viewBox="0 0 24 24" xmlns="http://www.w3.org/2000/svg">
<path d="M17.9401 20.275L13.5151 15.85L15.6151 13.75L20.0401 18.175C20.3235 18.4584 20.4651 18.8084 20.4651 19.225C20.4651 19.6417 20.3235 19.9917 20.0401 20.275C19.7568 20.5584 19.4068 20.7 18.9901 20.7C18.5735 20.7 18.2235 20.5584 17.9401 20.275ZM4.14014 20.275C3.8568 19.9917 3.71514 19.6417 3.71514 19.225C3.71514 18.8084 3.8568 18.4584 4.14014 18.175L9.99014 12.325L8.29014 10.625C8.07347 10.8417 7.8318 10.9417 7.56514 10.925C7.29847 10.9084 7.07347 10.8084 6.89014 10.625L6.31514 10.05V12.1L6.14014 12.275C5.99014 12.425 5.81514 12.5 5.61514 12.5C5.41514 12.5 5.24014 12.425 5.09014 12.275L3.11514 10.3C2.96514 10.15 2.89014 9.97505 2.89014 9.77505C2.89014 9.57505 2.96514 9.40005 3.11514 9.25005L3.29014 9.07505H5.34014L4.79014 8.52505C4.59014 8.32505 4.49014 8.09172 4.49014 7.82505C4.49014 7.55838 4.59014 7.32505 4.79014 7.12505L7.64014 4.27505C7.97347 3.94172 8.3318 3.70005 8.71514 3.55005C9.09847 3.40005 9.49014 3.32505 9.89014 3.32505C10.2901 3.32505 10.6818 3.40005 11.0651 3.55005C11.4485 3.70005 11.8068 3.94172 12.1401 4.27505L9.84014 6.57505L10.3901 7.12505C10.5735 7.30838 10.6735 7.53338 10.6901 7.80005C10.7068 8.06672 10.6068 8.30838 10.3901 8.52505L12.0901 10.225L14.3401 7.97505C14.2735 7.79172 14.2195 7.60005 14.1781 7.40005C14.1361 7.20005 14.1151 7.00005 14.1151 6.80005C14.1151 5.81672 14.4528 4.98738 15.1281 4.31205C15.8028 3.63738 16.6318 3.30005 17.6151 3.30005C17.8651 3.30005 18.1028 3.32505 18.3281 3.37505C18.5528 3.42505 18.7818 3.50005 19.0151 3.60005L16.5401 6.07505L18.3401 7.87505L20.8151 5.40005C20.9318 5.63338 21.0111 5.86238 21.0531 6.08705C21.0945 6.31238 21.1151 6.55005 21.1151 6.80005C21.1151 7.78338 20.7778 8.61238 20.1031 9.28705C19.4278 9.96238 18.5985 10.3 17.6151 10.3C17.4151 10.3 17.2151 10.2834 17.0151 10.25C16.8151 10.2167 16.6235 10.1584 16.4401 10.075L6.24014 20.275C5.9568 20.5584 5.6068 20.7 5.19014 20.7C4.77347 20.7 4.42347 20.5584 4.14014 20.275Z" />
</svg>
