<svg width="24" height="24" viewBox="0 0 24 24" fill="none" xmlns="http://www.w3.org/2000/svg">
<path fill-rule="evenodd" clip-rule="evenodd" d="M3.74797 3.74858C3.35745 4.13911 3.35745 4.77227 3.74797 5.1628L7.34077 8.7556C7.17012 8.79392 7.00794 8.87949 6.87512 9.01231C6.50175 9.38568 6.50175 9.99104 6.87512 10.3644L9.57918 13.0685L9.57902 13.0686L5.25474 17.3929C5.20817 17.4395 5.16632 17.4905 5.12979 17.5453L4.09779 19.0933C3.94361 19.3246 3.9741 19.6325 4.17065 19.8291C4.36719 20.0256 4.67515 20.0561 4.90642 19.9019L6.45442 18.8699C6.50921 18.8334 6.56026 18.7916 6.60683 18.745L10.9311 14.4207L10.9313 14.4206L13.6356 17.1249C14.009 17.4982 14.6143 17.4982 14.9877 17.1249C15.1205 16.992 15.2061 16.8299 15.2444 16.6592L18.8367 20.2516C19.2273 20.6421 19.8604 20.6421 20.251 20.2516C20.6415 19.861 20.6415 19.2279 20.251 18.8374L5.16218 3.74858C4.77166 3.35806 4.1385 3.35806 3.74797 3.74858ZM17.5468 10.2195L16.1729 11.9647L12.0351 7.82681L13.7802 6.45298L12.9594 5.63212C12.586 5.25875 12.586 4.6534 12.9594 4.28003C13.3327 3.90666 13.9381 3.90666 14.3115 4.28003L19.7198 9.6884C20.0932 10.0618 20.0932 10.6671 19.7198 11.0405C19.3465 11.4139 18.7411 11.4139 18.3677 11.0405L17.5468 10.2195Z" fill="#212121"/>
</svg>
