<svg width="24" height="24" viewBox="0 0 24 24" fill="none" xmlns="http://www.w3.org/2000/svg">
<path fill-rule="evenodd" clip-rule="evenodd" d="M8 3H16V8H8L8 3ZM6 8V3C6 1.89543 6.89543 1 8 1H16C17.1046 1 18 1.89543 18 3V8H18.4231C18.7417 8 19 8.2583 19 8.57692V16C19 19.866 15.866 23 12 23C8.13401 23 5 19.866 5 16V8.57692C5 8.2583 5.2583 8 5.57692 8H6ZM9 5C9 4.44772 9.44772 4 10 4C10.5523 4 11 4.44772 11 5V6C11 6.55228 10.5523 7 10 7C9.44772 7 9 6.55228 9 6V5ZM14 4C13.4477 4 13 4.44772 13 5V6C13 6.55228 13.4477 7 14 7C14.5523 7 15 6.55228 15 6V5C15 4.44772 14.5523 4 14 4Z" fill="#231F20"/>
</svg>
