<svg width="24" height="24" viewBox="0 0 24 24" fill="none" xmlns="http://www.w3.org/2000/svg">
<path fill-rule="evenodd" clip-rule="evenodd" d="M12 12C14.21 12 16 10.21 16 8C16 5.79 14.21 4 12 4C9.79 4 8 5.79 8 8C8 10.21 9.79 12 12 12ZM12 14C9.33 14 4 15.34 4 18V19C4 19.55 4.45 20 5 20H15C15 18.8977 15.8977 18 17 18H18V17C18 16.5212 18.1694 16.0809 18.4514 15.7361C16.6676 14.5806 13.7575 14 12 14ZM23 21H21V23C21 23.55 20.55 24 20 24C19.45 24 19 23.55 19 23V21H17C16.45 21 16 20.55 16 20C16 19.45 16.45 19 17 19H19V17C19 16.45 19.45 16 20 16C20.55 16 21 16.45 21 17V19H23C23.55 19 24 19.45 24 20C24 20.55 23.55 21 23 21Z" fill="black"/>
</svg>
