<svg width="24" height="24" viewBox="0 0 24 24" fill="none" xmlns="http://www.w3.org/2000/svg">
<path d="M10.05 16C10.2667 16 10.4458 15.9292 10.5875 15.7875C10.7292 15.6458 10.8 15.4667 10.8 15.25V12.7H13.35C13.5667 12.7 13.7458 12.6292 13.8875 12.4875C14.0292 12.3458 14.1 12.1667 14.1 11.95C14.1 11.7333 14.0292 11.5542 13.8875 11.4125C13.7458 11.2708 13.5667 11.2 13.35 11.2H10.8V8.65C10.8 8.43333 10.7292 8.25417 10.5875 8.1125C10.4458 7.97083 10.2667 7.9 10.05 7.9C9.83333 7.9 9.65417 7.97083 9.5125 8.1125C9.37083 8.25417 9.3 8.43333 9.3 8.65V11.2H6.75C6.53333 11.2 6.35417 11.2708 6.2125 11.4125C6.07083 11.5542 6 11.7333 6 11.95C6 12.1667 6.07083 12.3458 6.2125 12.4875C6.35417 12.6292 6.53333 12.7 6.75 12.7H9.3V15.25C9.3 15.4667 9.37083 15.6458 9.5125 15.7875C9.65417 15.9292 9.83333 16 10.05 16ZM3.5 20C3.1 20 2.75 19.85 2.45 19.55C2.15 19.25 2 18.9 2 18.5V5.5C2 5.1 2.15 4.75 2.45 4.45C2.75 4.15 3.1 4 3.5 4H16.5C16.9 4 17.25 4.15 17.55 4.45C17.85 4.75 18 5.1 18 5.5V10.875L21.35 7.525C21.4833 7.39167 21.625 7.35833 21.775 7.425C21.925 7.49167 22 7.60833 22 7.775V16.225C22 16.3917 21.925 16.5083 21.775 16.575C21.625 16.6417 21.4833 16.6083 21.35 16.475L18 13.125V18.5C18 18.9 17.85 19.25 17.55 19.55C17.25 19.85 16.9 20 16.5 20H3.5ZM3.5 18.5H16.5V5.5H3.5V18.5ZM3.5 18.5V5.5V18.5Z" fill="#231F20"/>
</svg>
