<svg width="24" height="24" viewBox="0 0 24 24" fill="none" xmlns="http://www.w3.org/2000/svg">
<path d="M19.6876 21.1999L17.3626 18.8749C17.1293 19.0082 16.8959 19.1372 16.6626 19.2619C16.4293 19.3872 16.1876 19.4999 15.9376 19.5999C15.6043 19.7332 15.2959 19.6916 15.0126 19.4749C14.7293 19.2582 14.5876 18.9582 14.5876 18.5749C14.5876 18.3916 14.6419 18.2292 14.7506 18.0879C14.8586 17.9459 14.9959 17.8416 15.1626 17.7749C15.2959 17.7249 15.4253 17.6706 15.5506 17.6119C15.6753 17.5539 15.7959 17.4916 15.9126 17.4249L12.5876 14.0999V16.8749C12.5876 17.3249 12.3833 17.6372 11.9746 17.8119C11.5666 17.9872 11.2043 17.9166 10.8876 17.5999L7.5876 14.2999H4.5876C4.30426 14.2999 4.06693 14.2039 3.8756 14.0119C3.6836 13.8206 3.5876 13.5832 3.5876 13.2999V9.2999C3.5876 9.01657 3.6836 8.7789 3.8756 8.5869C4.06693 8.39557 4.30426 8.2999 4.5876 8.2999H6.7876L2.6876 4.1999C2.50426 4.01657 2.4126 3.78324 2.4126 3.4999C2.4126 3.21657 2.50426 2.98324 2.6876 2.7999C2.87093 2.61657 3.10426 2.5249 3.3876 2.5249C3.67093 2.5249 3.90426 2.61657 4.0876 2.7999L21.0876 19.7999C21.2709 19.9832 21.3626 20.2166 21.3626 20.4999C21.3626 20.7832 21.2709 21.0166 21.0876 21.1999C20.9043 21.3832 20.6709 21.4749 20.3876 21.4749C20.1043 21.4749 19.8709 21.3832 19.6876 21.1999ZM15.9376 2.9499C17.6376 3.63324 19.0043 4.7249 20.0376 6.2249C21.0709 7.7249 21.5876 9.40824 21.5876 11.2749C21.5876 12.1582 21.4669 13.0082 21.2256 13.8249C20.9836 14.6416 20.6376 15.3999 20.1876 16.0999L18.7376 14.6499C19.0209 14.1332 19.2336 13.5916 19.3756 13.0249C19.5169 12.4582 19.5876 11.8749 19.5876 11.2749C19.5876 9.80824 19.1836 8.49157 18.3756 7.3249C17.5669 6.15824 16.4959 5.30824 15.1626 4.7749C14.9793 4.70824 14.8376 4.5999 14.7376 4.4499C14.6376 4.2999 14.5876 4.13324 14.5876 3.9499C14.5876 3.58324 14.7293 3.29157 15.0126 3.0749C15.2959 2.85824 15.6043 2.81657 15.9376 2.9499ZM16.8376 12.7499L14.5876 10.4999V7.2499C15.3709 7.61657 15.9836 8.16657 16.4256 8.8999C16.8669 9.63324 17.0876 10.4332 17.0876 11.2999C17.0876 11.5499 17.0669 11.7959 17.0256 12.0379C16.9836 12.2792 16.9209 12.5166 16.8376 12.7499ZM12.5876 8.4999L9.9876 5.8999L10.8876 4.9999C11.2043 4.68324 11.5666 4.61224 11.9746 4.7869C12.3833 4.96224 12.5876 5.2749 12.5876 5.7249V8.4999Z" fill="black"/>
</svg>
