<svg width="24" height="24" viewBox="0 0 24 24" fill="none" xmlns="http://www.w3.org/2000/svg">
<path fill-rule="evenodd" clip-rule="evenodd" d="M4.19 4.47L11.19 1.36C11.7 1.13 12.3 1.13 12.81 1.36L19.81 4.47C20.53 4.79 21 5.51 21 6.3V11C21 16.55 17.16 21.74 12 23C6.84 21.74 3 16.55 3 11V6.3C3 5.51 3.47 4.79 4.19 4.47ZM8.46442 9.87868C8.0739 9.48815 8.0739 8.85499 8.46442 8.46446C8.85495 8.07394 9.48811 8.07394 9.87864 8.46446L12 10.5858L14.1213 8.46449C14.5118 8.07397 15.1449 8.07397 15.5355 8.46449C15.926 8.85502 15.926 9.48818 15.5355 9.87871L13.4142 12L15.5355 14.1213C15.926 14.5118 15.926 15.145 15.5355 15.5355C15.145 15.9261 14.5118 15.9261 14.1213 15.5355L12 13.4142L9.87862 15.5356C9.48809 15.9261 8.85493 15.9261 8.4644 15.5356C8.07388 15.145 8.07388 14.5119 8.4644 14.1213L10.5857 12L8.46442 9.87868Z" fill="black"/>
</svg>
