<svg width="24" height="24" viewBox="0 0 24 24" fill="none" xmlns="http://www.w3.org/2000/svg">
<path d="M4.6998 19.3C4.51647 19.1167 4.4248 18.8833 4.4248 18.6C4.4248 18.3167 4.51647 18.0833 4.6998 17.9L15.5998 7H9.9998C9.71647 7 9.47914 6.90433 9.2878 6.713C9.0958 6.521 8.9998 6.28333 8.9998 6C8.9998 5.71667 9.0958 5.479 9.2878 5.287C9.47914 5.09567 9.71647 5 9.9998 5H17.9998C18.2831 5 18.5205 5.09567 18.7118 5.287C18.9038 5.479 18.9998 5.71667 18.9998 6V14C18.9998 14.2833 18.9038 14.5207 18.7118 14.712C18.5205 14.904 18.2831 15 17.9998 15C17.7165 15 17.4791 14.904 17.2878 14.712C17.0958 14.5207 16.9998 14.2833 16.9998 14V8.4L6.0748 19.325C5.89147 19.5083 5.66647 19.6 5.3998 19.6C5.13314 19.6 4.8998 19.5 4.6998 19.3Z" fill="black"/>
</svg>
