<svg width="24" height="24" viewBox="0 0 24 24" xmlns="http://www.w3.org/2000/svg">
<path d="M3 12C3 7.02945 7.02944 3.00001 12 3.00001C16.9706 3.00001 21 7.02945 21 12C21 16.9706 16.9706 21 12 21C7.02944 21 3 16.9706 3 12ZM12 1.50001C6.20101 1.50001 1.5 6.20102 1.5 12C1.5 17.799 6.20101 22.5 12 22.5C17.799 22.5 22.5 17.799 22.5 12C22.5 6.20102 17.799 1.50001 12 1.50001ZM7.22703 11.2876L11.4697 15.5302C11.7626 15.8231 12.2374 15.8231 12.5303 15.5302L16.773 11.2876C17.0659 10.9947 17.0659 10.5198 16.773 10.2269C16.4801 9.93403 16.0052 9.93403 15.7123 10.2269L12 13.9392L8.28769 10.2269C7.9948 9.93403 7.51992 9.93403 7.22703 10.2269C6.93414 10.5198 6.93414 10.9947 7.22703 11.2876Z"/>
</svg>
