<svg width="24" height="24" viewBox="0 0 24 24" xmlns="http://www.w3.org/2000/svg">
<path d="M21 12C21 16.9706 16.9706 21 12 21C7.02944 21 3 16.9706 3 12C3.00001 7.02943 7.02944 3 12 3C16.9706 3 21 7.02944 21 12ZM12 22.5C17.799 22.5 22.5 17.799 22.5 12C22.5 6.20101 17.799 1.5 12 1.5C6.20102 1.5 1.50001 6.20101 1.5 12C1.5 17.799 6.20101 22.5 12 22.5ZM16.773 12.7124L12.5303 8.46978C12.2374 8.17689 11.7626 8.17689 11.4697 8.46978L7.22703 12.7124C6.93414 13.0053 6.93414 13.4802 7.22703 13.7731C7.51992 14.066 7.9948 14.066 8.28769 13.7731L12 10.0608L15.7123 13.7731C16.0052 14.066 16.4801 14.066 16.773 13.7731C17.0659 13.4802 17.0659 13.0053 16.773 12.7124Z"/>
</svg>
