<svg width="24" height="24" viewBox="0 0 24 24" fill="none" xmlns="http://www.w3.org/2000/svg">
<path d="M12.005 14.4199L15.905 18.2949C16.0883 18.4783 16.3175 18.5741 16.5925 18.5824C16.8675 18.5908 17.105 18.4949 17.305 18.2949C17.4883 18.1116 17.58 17.8783 17.58 17.5949C17.58 17.3116 17.4883 17.0783 17.305 16.8949L12.705 12.2949C12.605 12.1949 12.4966 12.1241 12.38 12.0824C12.2633 12.0408 12.1383 12.0199 12.005 12.0199C11.8716 12.0199 11.7466 12.0408 11.63 12.0824C11.5133 12.1241 11.405 12.1949 11.305 12.2949L6.70496 16.8949C6.52162 17.0783 6.42579 17.3074 6.41746 17.5824C6.40912 17.8574 6.50496 18.0949 6.70496 18.2949C6.88829 18.4783 7.12162 18.5699 7.40496 18.5699C7.68829 18.5699 7.92162 18.4783 8.10496 18.2949L12.005 14.4199ZM12.005 7.81992L15.905 11.6949C16.0883 11.8783 16.3175 11.9741 16.5925 11.9824C16.8675 11.9908 17.105 11.8949 17.305 11.6949C17.4883 11.5116 17.58 11.2783 17.58 10.9949C17.58 10.7116 17.4883 10.4783 17.305 10.2949L12.705 5.69492C12.605 5.59492 12.4966 5.52409 12.38 5.48242C12.2633 5.44075 12.1383 5.41992 12.005 5.41992C11.8716 5.41992 11.7466 5.44075 11.63 5.48242C11.5133 5.52409 11.405 5.59492 11.305 5.69492L6.70496 10.2949C6.52162 10.4783 6.42579 10.7074 6.41746 10.9824C6.40912 11.2574 6.50496 11.4949 6.70496 11.6949C6.88829 11.8783 7.12162 11.9699 7.40496 11.9699C7.68829 11.9699 7.92162 11.8783 8.10496 11.6949L12.005 7.81992Z" fill="black"/>
</svg>
