<svg width="24" height="24" viewBox="0 0 24 24" fill="none" xmlns="http://www.w3.org/2000/svg">
<path d="M9.58008 11.9949L5.70508 8.09492C5.52174 7.91159 5.42591 7.68242 5.41758 7.40742C5.40924 7.13242 5.50508 6.89492 5.70508 6.69492C5.88841 6.51159 6.12174 6.41992 6.40508 6.41992C6.68841 6.41992 6.92174 6.51159 7.10508 6.69492L11.7051 11.2949C11.8051 11.3949 11.8759 11.5033 11.9176 11.6199C11.9592 11.7366 11.9801 11.8616 11.9801 11.9949C11.9801 12.1283 11.9592 12.2533 11.9176 12.3699C11.8759 12.4866 11.8051 12.5949 11.7051 12.6949L7.10508 17.2949C6.92174 17.4783 6.69258 17.5741 6.41758 17.5824C6.14258 17.5908 5.90508 17.4949 5.70508 17.2949C5.52174 17.1116 5.43008 16.8783 5.43008 16.5949C5.43008 16.3116 5.52174 16.0783 5.70508 15.8949L9.58008 11.9949ZM16.1801 11.9949L12.3051 8.09492C12.1217 7.91159 12.0259 7.68242 12.0176 7.40742C12.0092 7.13242 12.1051 6.89492 12.3051 6.69492C12.4884 6.51159 12.7217 6.41992 13.0051 6.41992C13.2884 6.41992 13.5217 6.51159 13.7051 6.69492L18.3051 11.2949C18.4051 11.3949 18.4759 11.5033 18.5176 11.6199C18.5592 11.7366 18.5801 11.8616 18.5801 11.9949C18.5801 12.1283 18.5592 12.2533 18.5176 12.3699C18.4759 12.4866 18.4051 12.5949 18.3051 12.6949L13.7051 17.2949C13.5217 17.4783 13.2926 17.5741 13.0176 17.5824C12.7426 17.5908 12.5051 17.4949 12.3051 17.2949C12.1217 17.1116 12.0301 16.8783 12.0301 16.5949C12.0301 16.3116 12.1217 16.0783 12.3051 15.8949L16.1801 11.9949Z" fill="black"/>
</svg>
