<svg width="24" height="24" viewBox="0 0 24 24" fill="none" xmlns="http://www.w3.org/2000/svg">
<path d="M12.005 9.58301L15.905 5.70801C16.0883 5.52467 16.3175 5.42884 16.5925 5.42051C16.8675 5.41217 17.105 5.50801 17.305 5.70801C17.4883 5.89134 17.58 6.12467 17.58 6.40801C17.58 6.69134 17.4883 6.92467 17.305 7.10801L12.705 11.708C12.605 11.808 12.4966 11.8788 12.38 11.9205C12.2633 11.9622 12.1383 11.983 12.005 11.983C11.8716 11.983 11.7466 11.9622 11.63 11.9205C11.5133 11.8788 11.405 11.808 11.305 11.708L6.70496 7.10801C6.52162 6.92467 6.42579 6.69551 6.41746 6.42051C6.40912 6.14551 6.50496 5.90801 6.70496 5.70801C6.88829 5.52467 7.12162 5.43301 7.40496 5.43301C7.68829 5.43301 7.92162 5.52467 8.10496 5.70801L12.005 9.58301ZM12.005 16.183L15.905 12.308C16.0883 12.1247 16.3175 12.0288 16.5925 12.0205C16.8675 12.0122 17.105 12.108 17.305 12.308C17.4883 12.4913 17.58 12.7247 17.58 13.008C17.58 13.2913 17.4883 13.5247 17.305 13.708L12.705 18.308C12.605 18.408 12.4966 18.4788 12.38 18.5205C12.2633 18.5622 12.1383 18.583 12.005 18.583C11.8716 18.583 11.7466 18.5622 11.63 18.5205C11.5133 18.4788 11.405 18.408 11.305 18.308L6.70496 13.708C6.52162 13.5247 6.42579 13.2955 6.41746 13.0205C6.40912 12.7455 6.50496 12.508 6.70496 12.308C6.88829 12.1247 7.12162 12.033 7.40496 12.033C7.68829 12.033 7.92162 12.1247 8.10496 12.308L12.005 16.183Z" fill="black"/>
</svg>
