<svg width="24" height="24" viewBox="0 0 24 24" fill="none" xmlns="http://www.w3.org/2000/svg">
<path d="M14.417 11.9949L18.292 8.09492C18.4753 7.91159 18.5712 7.68242 18.5795 7.40742C18.5878 7.13242 18.492 6.89492 18.292 6.69492C18.1087 6.51159 17.8753 6.41992 17.592 6.41992C17.3087 6.41992 17.0753 6.51159 16.892 6.69492L12.292 11.2949C12.192 11.3949 12.1212 11.5033 12.0795 11.6199C12.0378 11.7366 12.017 11.8616 12.017 11.9949C12.017 12.1283 12.0378 12.2533 12.0795 12.3699C12.1212 12.4866 12.192 12.5949 12.292 12.6949L16.892 17.2949C17.0753 17.4783 17.3045 17.5741 17.5795 17.5824C17.8545 17.5908 18.092 17.4949 18.292 17.2949C18.4753 17.1116 18.567 16.8783 18.567 16.5949C18.567 16.3116 18.4753 16.0783 18.292 15.8949L14.417 11.9949ZM7.81699 11.9949L11.692 8.09492C11.8753 7.91159 11.9712 7.68242 11.9795 7.40742C11.9878 7.13242 11.892 6.89492 11.692 6.69492C11.5087 6.51159 11.2753 6.41992 10.992 6.41992C10.7087 6.41992 10.4753 6.51159 10.292 6.69492L5.69199 11.2949C5.59199 11.3949 5.52116 11.5033 5.47949 11.6199C5.43783 11.7366 5.41699 11.8616 5.41699 11.9949C5.41699 12.1283 5.43783 12.2533 5.47949 12.3699C5.52116 12.4866 5.59199 12.5949 5.69199 12.6949L10.292 17.2949C10.4753 17.4783 10.7045 17.5741 10.9795 17.5824C11.2545 17.5908 11.492 17.4949 11.692 17.2949C11.8753 17.1116 11.967 16.8783 11.967 16.5949C11.967 16.3116 11.8753 16.0783 11.692 15.8949L7.81699 11.9949Z" fill="black"/>
</svg>
