<svg width="24" height="24" viewBox="0 0 24 24" xmlns="http://www.w3.org/2000/svg">
<path d="M5.83021 12L8.29021 9.53999C8.68021 9.14999 8.68021 8.51999 8.29021 8.12999C7.90021 7.73999 7.27022 7.73999 6.88021 8.12999L3.70021 11.3C3.31021 11.69 3.31021 12.32 3.70021 12.71L6.88021 15.88C7.27022 16.27 7.90021 16.27 8.29021 15.88C8.68021 15.49 8.68021 14.86 8.29021 14.47L5.83021 12ZM18.1702 12L15.7102 14.46C15.3202 14.85 15.3202 15.48 15.7102 15.87C16.1002 16.26 16.7302 16.26 17.1202 15.87L20.3002 12.7C20.6902 12.31 20.6902 11.68 20.3002 11.29L17.1302 8.11999C16.7402 7.72999 16.1102 7.72999 15.7202 8.11999C15.3302 8.50999 15.3302 9.13999 15.7202 9.52998L18.1702 12Z"/>
</svg>
