<svg width="24" height="24" viewBox="0 0 24 24" fill="none" xmlns="http://www.w3.org/2000/svg">
<path fill-rule="evenodd" clip-rule="evenodd" d="M4 2.3999H0.8C0.3584 2.3999 0 2.7583 0 3.1999V6.3999C0 6.8415 0.3584 7.1999 0.8 7.1999C1.2416 7.1999 1.6 6.8415 1.6 6.3999V3.9999H4C4.4416 3.9999 4.8 3.6415 4.8 3.1999C4.8 2.7583 4.4416 2.3999 4 2.3999ZM23.1992 16.8C22.7576 16.8 22.3992 17.1584 22.3992 17.6V20H19.9992C19.5576 20 19.1992 20.3584 19.1992 20.8C19.1992 21.2416 19.5576 21.6 19.9992 21.6H23.1992C23.6408 21.6 23.9992 21.2416 23.9992 20.8V17.6C23.9992 17.1584 23.6408 16.8 23.1992 16.8ZM19.9992 2.3999H23.1992C23.6408 2.3999 23.9992 2.7583 23.9992 3.1999V6.3999C23.9992 6.8415 23.6408 7.1999 23.1992 7.1999C22.7576 7.1999 22.3992 6.8415 22.3992 6.3999V3.9999H19.9992C19.5576 3.9999 19.1992 3.6415 19.1992 3.1999C19.1992 2.7583 19.5576 2.3999 19.9992 2.3999ZM4 20H1.6V17.6C1.6 17.1584 1.2416 16.8 0.8 16.8C0.3584 16.8 0 17.1584 0 17.6V20.8C0 21.2416 0.3584 21.6 0.8 21.6H4C4.4416 21.6 4.8 21.2416 4.8 20.8C4.8 20.3584 4.4416 20 4 20ZM3.19922 5.6001H4.79922V18.4001H3.19922V5.6001ZM8.00039 5.6001H6.40039V15.2001H8.00039V5.6001ZM9.59961 5.6001H11.1996V15.2001H9.59961V5.6001ZM14.4008 5.6001H12.8008V18.4001H14.4008V5.6001ZM16 5.6001H17.6V15.2001H16V5.6001ZM19.1992 5.6001V18.4001H20.7992V5.6001H19.1992ZM6.40039 16.8H8.00039V18.4H6.40039V16.8ZM11.1996 16.8H9.59961V18.4H11.1996V16.8ZM16 16.8H17.6V18.4H16V16.8Z" fill="black"/>
</svg>
